<svg width="581" height="475" viewBox="0 0 581 475" fill="none" xmlns="http://www.w3.org/2000/svg">
<path d="M188.149 368.775C188.09 368.775 188.031 368.764 187.977 368.741C187.922 368.719 187.872 368.686 187.83 368.644C187.788 368.603 187.755 368.554 187.733 368.499C187.71 368.445 187.698 368.387 187.698 368.328V325.939C187.7 325.821 187.748 325.709 187.833 325.627C187.917 325.544 188.031 325.498 188.149 325.498C188.267 325.498 188.381 325.544 188.465 325.627C188.55 325.709 188.598 325.821 188.6 325.939V368.328C188.6 368.387 188.588 368.445 188.566 368.499C188.543 368.554 188.51 368.603 188.468 368.644C188.426 368.686 188.376 368.719 188.322 368.741C188.267 368.764 188.208 368.775 188.149 368.775Z" fill="white"/>
<path d="M233.071 292.324C232.101 293.963 230.959 295.494 229.664 296.893C228.42 298.335 227.057 299.659 225.718 301.01C222.956 303.62 220.12 306.161 217.137 308.523C211.187 313.279 204.881 317.58 198.275 321.386C191.676 325.246 184.7 328.432 177.456 330.898C173.821 332.127 170.099 333.09 166.322 333.779C164.409 334.007 162.502 334.379 160.582 334.485C158.659 334.54 156.734 334.627 154.811 334.652C147.145 334.395 139.528 333.323 132.091 331.454C124.667 329.669 117.359 327.438 110.208 324.773C103.05 322.158 96.0212 319.22 89.0277 316.252C87.2787 315.519 85.5252 314.772 83.7636 314.133C82.9013 313.832 81.9722 313.518 81.0493 313.139C80.622 312.891 80.1741 312.674 79.7668 312.398C79.3661 312.111 78.9833 311.8 78.6203 311.467C77.2317 310.086 76.189 308.4 75.5763 306.546C74.9532 304.718 74.6087 302.809 74.5542 300.88L74.5591 300.936C69.9767 275.978 64.0932 251.274 56.9325 226.922C53.4475 214.724 49.5549 202.646 45.5553 190.61C41.5484 178.575 37.277 166.633 32.7411 154.783C30.4523 148.869 28.1594 142.956 25.7556 137.089C24.5923 134.146 23.2282 131.286 22.2216 128.171C21.2239 125.084 20.572 121.897 20.2777 118.668C20.1129 117.032 20.0663 115.386 20.1382 113.743C20.3207 111.965 21.0597 110.288 22.2512 108.948C23.4426 107.609 25.0266 106.674 26.7805 106.276C28.3729 105.879 29.9955 105.613 31.6318 105.481C34.9383 105.261 38.2554 105.713 41.3806 106.808L50.4805 109.775L86.8816 121.644C88.4396 122.087 89.9598 122.653 91.4279 123.335C92.8966 124.07 94.243 125.025 95.4201 126.166C97.7994 128.446 99.3523 131.444 99.8364 134.692L102.537 153.539C102.54 153.562 102.534 153.585 102.52 153.604C102.506 153.623 102.485 153.635 102.462 153.639C102.439 153.642 102.415 153.637 102.396 153.623C102.376 153.609 102.363 153.589 102.359 153.566L99.1796 134.8C98.6328 131.732 97.1038 128.921 94.8201 126.786C93.6936 125.723 92.4093 124.838 91.0123 124.162C89.5782 123.521 88.0954 122.994 86.5777 122.585L50.0182 111.208L40.8783 108.364C37.9498 107.376 34.8486 106.993 31.7656 107.239C30.2207 107.39 28.6891 107.653 27.1832 108.028C25.802 108.345 24.5554 109.084 23.6186 110.142C22.6818 111.199 22.1018 112.521 21.9601 113.923C21.9065 115.45 21.9572 116.979 22.1119 118.5C22.401 121.594 23.0329 124.648 23.9961 127.605C24.9453 130.534 26.3231 133.424 27.5018 136.381C29.922 142.261 32.2534 148.176 34.4961 154.124C43.4646 177.915 51.3214 202.075 58.0664 226.605C61.4358 238.852 64.5791 251.16 67.3659 263.548C70.308 275.902 72.7236 288.368 75.1789 300.824L75.1827 300.856L75.1838 300.88C75.1717 304.609 76.5718 308.206 79.1058 310.956C79.4437 311.261 79.7995 311.546 80.1714 311.809C80.5475 312.064 80.9673 312.251 81.3617 312.476C82.2004 312.801 83.0795 313.087 84.0174 313.393C85.8392 314.019 87.597 314.735 89.3649 315.44C96.4156 318.29 103.468 321.097 110.637 323.585C117.79 326.086 125.068 328.217 132.443 329.968C139.787 331.743 147.29 332.787 154.842 333.082C156.721 333.069 158.599 332.995 160.479 332.956C162.354 332.865 164.199 332.512 166.063 332.306C169.773 331.653 173.431 330.731 177.007 329.548C184.174 327.134 191.098 324.058 197.688 320.362C204.305 316.675 210.64 312.511 216.643 307.902C219.674 305.632 222.562 303.182 225.382 300.658C226.748 299.352 228.143 298.069 229.415 296.671C230.734 295.322 231.906 293.837 232.911 292.242L232.917 292.233C232.929 292.213 232.949 292.198 232.972 292.192C232.995 292.186 233.019 292.19 233.04 292.202C233.06 292.214 233.075 292.234 233.081 292.257C233.087 292.28 233.083 292.304 233.071 292.324Z" fill="white"/>
<path d="M27.5285 114.46L41.3357 119.275L55.1086 124.18L68.8649 129.131L82.5967 134.146C82.7133 134.189 82.8175 134.259 82.9 134.351C82.9826 134.443 83.0409 134.554 83.0699 134.674L83.0727 134.687C85.8189 146.359 88.4578 158.055 90.9895 169.776C93.5442 181.491 95.9939 193.23 98.6486 204.922C103.876 228.326 109.586 251.621 115.103 274.959C116.419 280.719 118.824 286.179 122.188 291.049C125.547 295.894 129.94 299.943 135.055 302.907C140.185 305.807 145.97 307.371 151.872 307.455C154.851 307.435 157.828 307.262 160.789 306.936C163.771 306.617 166.752 306.285 169.705 305.798C175.619 304.901 181.436 303.459 187.081 301.491C192.712 299.442 198.182 296.977 203.444 294.119C208.751 291.314 213.934 288.255 219.068 285.117C224.228 282.019 229.339 278.835 234.456 275.659C234.476 275.647 234.5 275.643 234.523 275.648C234.546 275.653 234.566 275.666 234.579 275.686C234.592 275.706 234.597 275.73 234.592 275.753C234.587 275.776 234.574 275.796 234.554 275.809C224.551 282.509 214.596 289.303 204.052 295.222C198.788 298.226 193.293 300.813 187.618 302.959C181.909 305.061 176.007 306.607 169.996 307.574C166.999 308.079 163.985 308.424 160.971 308.756C157.938 309.099 154.889 309.285 151.837 309.312C145.614 309.263 139.509 307.614 134.117 304.526C128.853 301.325 124.314 297.075 120.786 292.043C117.258 287.012 114.818 281.309 113.619 275.294C108.459 251.875 103.493 228.412 98.0435 205.059C95.3601 193.372 92.4717 181.733 89.688 170.069C86.8938 158.408 84.1944 146.725 81.5897 135.021L82.0657 135.562L68.3804 130.422L54.7194 125.218L41.0755 119.968L27.4653 114.628C27.4433 114.619 27.4256 114.603 27.416 114.581C27.4064 114.56 27.4056 114.535 27.4139 114.513C27.4222 114.491 27.4388 114.473 27.4602 114.463C27.4816 114.453 27.5062 114.452 27.5285 114.46ZM187.006 45.343C183.224 43.0612 182.27 36.1863 185.186 31.5847C188.864 25.7818 192.974 36.3129 192.974 36.3129C199.679 46.1993 213.307 19.764 213.307 19.764C213.307 19.764 202.491 6.22403 177.832 15.2507C153.173 24.2774 170.045 55.011 170.045 55.011C170.045 55.011 144.304 67.0466 152.956 99.0697C152.956 99.0697 175.958 93.7516 174.587 55.6088C174.587 55.6088 184.213 51.8409 187.006 45.343Z" fill="white"/>
<path d="M189.702 46.0246C188.327 46.3622 186.874 46.1553 185.649 45.4476C185.598 45.4168 185.554 45.3763 185.518 45.3285C185.483 45.2806 185.458 45.2264 185.444 45.1688C185.429 45.1112 185.427 45.0514 185.436 44.9928C185.445 44.9342 185.466 44.8779 185.497 44.8273C185.528 44.7766 185.569 44.7325 185.617 44.6975C185.665 44.6625 185.719 44.6372 185.777 44.6232C185.835 44.6091 185.896 44.6066 185.955 44.6157C186.014 44.6247 186.07 44.6453 186.121 44.6761C186.154 44.6967 186.184 44.7208 186.212 44.748C187.167 45.6025 188.417 46.0596 189.702 46.0246ZM212.605 21.1466C214.074 23.4822 215.224 26.0019 216.023 28.6392C216.878 31.3115 217.201 34.1239 216.973 36.919L216.8 36.4112C217.623 37.2701 218.425 38.1484 219.217 39.0363L221.591 41.7491C221.799 42.0231 221.948 42.3364 222.03 42.6698C222.112 43.0032 222.124 43.3497 222.067 43.6881C222.009 44.0265 221.883 44.3497 221.695 44.6378C221.508 44.926 221.263 45.1731 220.976 45.3641C220.488 45.7351 219.967 46.0603 219.419 46.3355C219.136 46.5111 218.818 46.6217 218.486 46.6591C218.155 46.6965 217.82 46.6598 217.505 46.5516L217.818 46.3637C217.783 50.2311 217.374 54.0861 216.597 57.8759C216.191 59.8537 215.347 61.7168 214.125 63.3299C213.41 64.2121 212.401 64.8115 211.281 65.0199C210.717 65.0846 210.146 65.0618 209.59 64.9522L208.202 64.7148C206.394 64.3927 204.544 64.3933 202.737 64.7166C200.96 65.0829 199.316 65.9197 197.978 67.1383C195.372 69.8858 193.361 73.1356 192.069 76.6864C192.062 76.7041 192.048 76.7183 192.031 76.726C192.013 76.7336 191.993 76.7341 191.975 76.7273C191.959 76.7205 191.946 76.7082 191.938 76.6925C191.93 76.6768 191.928 76.6588 191.932 76.6418C192.398 74.7631 193.041 72.9318 193.851 71.1722C194.645 69.356 195.755 67.6926 197.129 66.2582C198.564 64.7794 200.399 63.7443 202.413 63.2775C204.399 62.8599 206.45 62.8402 208.445 63.2196L209.899 63.5134C210.287 63.602 210.686 63.6331 211.084 63.6057C211.878 63.4696 212.599 63.0569 213.115 62.4413C214.251 61.0045 215.08 59.3528 215.551 57.5871C216.66 53.9408 217.277 50.1646 217.387 46.3571C217.389 46.2994 217.414 46.245 217.456 46.2057C217.499 46.1664 217.555 46.1455 217.614 46.1476C217.644 46.1492 217.673 46.1565 217.701 46.169C217.956 46.2377 218.222 46.2512 218.483 46.2088C218.744 46.1663 218.992 46.0688 219.211 45.9228C219.721 45.646 220.198 45.3158 220.637 44.9376C220.841 44.7886 221.012 44.5991 221.139 44.381C221.266 44.1629 221.346 43.921 221.375 43.6706C221.403 43.4202 221.378 43.1667 221.303 42.9261C221.227 42.6856 221.102 42.4633 220.936 42.2732L218.389 39.8186C217.536 38.9882 216.693 38.1483 215.871 37.289C215.809 37.225 215.762 37.1489 215.732 37.0656C215.702 36.9824 215.69 36.8938 215.696 36.8055L215.698 36.781C215.812 35.4704 215.809 34.1522 215.688 32.8422C215.55 31.5163 215.329 30.2001 215.029 28.9009C214.399 26.2722 213.546 23.7012 212.48 21.2154C212.476 21.207 212.473 21.1978 212.473 21.1884C212.472 21.179 212.474 21.1696 212.477 21.1607C212.48 21.1519 212.485 21.1437 212.491 21.1367C212.498 21.1297 212.505 21.1241 212.514 21.12C212.53 21.1133 212.548 21.1123 212.564 21.1172C212.581 21.122 212.596 21.1324 212.605 21.1466Z" fill="white"/>
<path d="M208.711 31.6921C209.524 30.8767 210.613 30.3903 211.767 30.3268C212.907 30.2173 214.052 30.4696 215.038 31.0473C213.899 31.1339 212.876 31.1264 211.845 31.2185C210.791 31.3106 209.744 31.4688 208.711 31.6921ZM211.469 37.2263C211.819 37.2142 212.151 37.0674 212.395 36.8168C212.638 36.5663 212.774 36.2315 212.774 35.883C212.774 35.5346 212.638 35.1998 212.395 34.9492C212.151 34.6986 211.819 34.5518 211.469 34.5398C211.118 34.5518 210.786 34.6986 210.542 34.9492C210.299 35.1998 210.163 35.5346 210.163 35.883C210.163 36.2315 210.299 36.5663 210.542 36.8168C210.786 37.0674 211.118 37.2142 211.469 37.2263ZM193.947 52.6469C195.208 54.1693 196.356 55.7089 197.582 57.1858C198.786 58.6882 200.122 60.082 201.572 61.351C199.72 60.5808 198.103 59.3402 196.886 57.7536C195.617 56.2328 194.623 54.505 193.947 52.6469ZM101.403 147.725C102.299 143.593 103.386 139.582 104.56 135.553C105.749 131.54 106.99 127.535 108.427 123.596C111.221 115.671 114.56 107.945 118.421 100.475C120.389 96.7392 122.565 93.1144 124.937 89.6177C127.293 86.0753 129.959 82.7471 132.905 79.6721C135.854 76.5199 139.256 73.8197 143.002 71.6596C146.823 69.4678 151.102 68.1836 155.506 67.907L155.518 67.9065C155.592 67.9031 155.667 67.9065 155.742 67.9168C160.001 68.5339 164.222 69.2624 168.436 70.0881C172.649 70.9046 176.851 71.7879 181.028 72.8133C185.26 73.7485 189.395 75.0767 193.377 76.7806C195.35 77.7531 197.14 78.7816 199.084 79.7022L204.877 82.4562C206.832 83.3752 208.724 84.4202 210.542 85.5847C212.41 86.7493 214.026 88.2721 215.296 90.064C217.789 93.4506 220.717 96.5979 223.518 99.7923C229.186 106.155 234.964 112.422 240.852 118.595C240.951 118.699 241.014 118.832 241.032 118.975C241.049 119.117 241.02 119.261 240.949 119.386L240.943 119.396C238.76 123.217 236.404 126.898 233.929 130.523C231.45 134.14 228.818 137.662 225.995 141.045C223.164 144.453 220.059 147.625 216.71 150.532C213.321 153.583 209.34 155.914 205.011 157.38L205.588 157.04C202.459 160.2 199.259 163.235 195.884 166.145C194.194 167.594 192.463 169.007 190.613 170.323C189.675 171.001 188.696 171.623 187.683 172.183C186.513 172.91 185.171 173.318 183.793 173.368L185.308 171.618C186.025 174.744 186.771 177.876 187.552 180.986L188.759 185.631C188.962 186.4 189.178 187.165 189.402 187.913C189.598 188.606 189.834 189.287 190.108 189.954L190.141 190.026C190.222 190.205 190.266 190.398 190.271 190.594C190.276 190.79 190.243 190.985 190.172 191.168C190.102 191.351 189.996 191.519 189.86 191.661C189.724 191.803 189.562 191.918 189.382 191.997C189.232 192.063 189.073 192.104 188.91 192.12C178.861 193.058 168.828 193.698 158.753 194.047C148.661 194.456 138.552 194.226 128.489 193.357C125.967 193.096 123.445 192.78 120.934 192.3C118.382 191.866 115.885 191.161 113.485 190.196C112.226 189.685 111.051 188.991 109.997 188.138C109.439 187.663 108.963 187.101 108.587 186.474C108.227 185.842 108.029 185.291 107.743 184.695C106.729 182.364 105.901 179.957 105.265 177.497C104.013 172.632 103.105 167.686 102.549 162.695C101.962 157.715 101.574 152.76 101.403 147.725ZM101.689 147.752C102.435 157.664 104.138 167.483 106.777 177.071C107.467 179.424 108.341 181.721 109.39 183.939C109.66 184.46 109.922 185.078 110.198 185.519C110.482 185.955 110.836 186.343 111.244 186.667C112.167 187.357 113.186 187.909 114.27 188.306C118.942 189.83 123.797 190.733 128.708 190.99C138.677 191.612 148.674 191.672 158.65 191.171C168.645 190.783 178.66 190.101 188.602 189.131L187.403 191.298C187.044 190.481 186.741 189.642 186.497 188.785C186.255 187.99 186.03 187.204 185.819 186.417C185.382 184.845 185.006 183.27 184.625 181.696C183.871 178.547 183.159 175.401 182.471 172.238C182.43 172.052 182.427 171.86 182.461 171.673C182.495 171.486 182.566 171.308 182.669 171.148C182.773 170.988 182.907 170.851 183.065 170.742C183.222 170.634 183.399 170.558 183.586 170.518C183.717 170.49 183.852 170.48 183.986 170.488C184.814 170.386 185.611 170.108 186.323 169.674C187.241 169.177 188.129 168.626 188.981 168.023C190.731 166.808 192.428 165.455 194.092 164.061C197.411 161.262 200.631 158.276 203.721 155.223L203.732 155.213C203.89 155.057 204.085 154.943 204.299 154.882C208.302 153.565 212.002 151.469 215.182 148.718C218.487 145.952 221.565 142.928 224.387 139.677C227.255 136.439 229.955 133.04 232.513 129.533C235.068 126.03 237.511 122.416 239.748 118.719L239.839 119.52C234.155 113.154 228.449 106.816 222.809 100.412C220.009 97.1815 217.192 94.0078 214.552 90.5873C212.154 87.1699 208.204 85.2467 204.411 83.4158C200.569 81.6296 196.586 79.8756 192.79 78.0062C188.853 76.4748 184.781 75.3108 180.627 74.5293C172.304 72.7414 163.829 71.5386 155.405 70.3032L155.64 70.3129C151.619 70.6084 147.721 71.8241 144.252 73.8651C140.738 75.9349 137.521 78.4642 134.685 81.3852C131.796 84.3287 129.176 87.521 126.855 90.9246C124.487 94.3264 122.311 97.8562 120.336 101.498C116.336 108.799 112.818 116.352 109.806 124.107C106.742 131.848 104.009 139.774 101.689 147.752Z" fill="white"/>
<path d="M204.655 156.131C203.63 153.813 202.667 151.476 201.693 149.145C200.716 146.816 199.795 144.465 198.782 142.154C197.84 139.814 196.83 137.503 195.78 135.215C195.272 134.062 194.719 132.933 194.12 131.827C193.841 131.265 193.527 130.72 193.18 130.197C193.016 129.93 192.837 129.671 192.644 129.423L192.001 128.729C193.862 130.483 195.358 132.584 196.404 134.912C197.592 137.16 198.602 139.487 199.613 141.81C200.561 144.16 201.497 146.513 202.338 148.9C203.179 151.287 203.98 153.689 204.655 156.131ZM190.378 200.747C190.293 200.746 190.209 200.722 190.137 200.676C190.065 200.631 190.007 200.566 189.97 200.489L185.511 191.083C185.485 191.03 185.47 190.972 185.467 190.913C185.464 190.854 185.473 190.796 185.493 190.74C185.513 190.684 185.544 190.633 185.584 190.59C185.624 190.546 185.672 190.51 185.726 190.485C185.779 190.46 185.838 190.446 185.897 190.443C185.956 190.44 186.016 190.449 186.071 190.469C186.127 190.49 186.179 190.52 186.222 190.56C186.266 190.6 186.302 190.648 186.327 190.702L190.786 200.107C190.819 200.176 190.833 200.251 190.828 200.326C190.823 200.401 190.799 200.474 190.759 200.538C190.718 200.602 190.662 200.654 190.595 200.691C190.529 200.727 190.454 200.746 190.378 200.747ZM109.434 186.435L114.877 206.342C112.029 196.357 110.01 188.647 109.434 186.435Z" fill="white"/>
<path d="M301.668 311.525C298.625 316.845 300.032 327.786 299.4 331.509C298.542 336.773 296.528 341.784 293.499 346.187C292.681 339.925 291.719 333.677 290.729 327.429C289.738 321.196 288.618 314.976 287.585 308.743C286.422 302.538 285.331 296.305 284.11 290.114L282.259 280.814C281.584 277.718 280.966 274.623 280.248 271.542C280.65 274.68 281.124 277.804 281.569 280.942L283.019 290.299C284.01 296.547 285.115 302.766 286.163 308.985C287.326 315.205 288.417 321.424 289.638 327.629C290.858 333.819 292.092 340.025 293.499 346.187C286.694 356.1 275.238 362.362 262.461 367.141C252.887 370.7 243.027 373.449 232.987 375.357C225.637 311.196 237.108 266.064 237.108 266.064C237.108 266.064 235.801 264.452 231.264 264.452C226.713 264.452 214.065 271.87 214.065 271.87C166.043 300.883 151.112 284.765 139.757 272.512C132.305 264.467 121.466 229.519 114.92 206.525C159.052 222.644 183.558 200.292 188.152 200.292C189.602 200.292 196.709 199.55 206.614 198.609C207.781 199.793 208.689 201.203 209.282 202.752C209.875 204.301 210.14 205.954 210.06 207.609C214.166 213.401 219.148 203.729 216.98 200.292C216.494 199.504 216.117 198.655 215.86 197.767C217.827 197.596 219.865 197.411 221.947 197.239C225.407 201.946 229.413 208.908 232.987 212.331C239.261 218.35 240.352 208.679 240.352 208.679C248.133 214.271 248.133 204.386 248.133 204.386C255.053 208.465 252.67 198.609 252.67 198.609C253.145 198.198 253.495 197.665 253.683 197.068C253.871 196.471 253.888 195.834 253.732 195.228C262.57 194.792 271.427 194.915 280.249 195.599C307.181 198.309 332.822 276.377 332.822 276.377C333.798 290.242 312.694 292.182 301.668 311.525ZM147.609 333.399C148.613 339.622 149.232 345.874 149.885 352.124C150.492 358.377 150.781 364.655 151.173 370.925L152.371 389.733L153.479 408.548C153.481 408.572 153.473 408.595 153.457 408.612C153.442 408.63 153.42 408.641 153.396 408.643C153.373 408.645 153.349 408.637 153.331 408.622C153.313 408.607 153.302 408.585 153.299 408.562L151.473 389.803L149.735 371.036C149.149 364.781 148.46 358.534 148.088 352.262C147.763 345.987 147.403 339.715 147.429 333.413C147.429 333.39 147.438 333.368 147.453 333.352C147.469 333.335 147.49 333.325 147.513 333.323C147.535 333.321 147.558 333.328 147.576 333.342C147.594 333.356 147.605 333.377 147.609 333.399ZM167.323 332.902C167.957 339.197 168.204 345.498 168.486 351.8C168.721 358.102 168.637 364.41 168.657 370.716L168.738 389.634L168.729 408.554C168.729 408.577 168.72 408.6 168.703 408.617C168.687 408.634 168.664 408.643 168.64 408.644C168.617 408.644 168.594 408.635 168.577 408.619C168.56 408.603 168.55 408.58 168.549 408.557L167.837 389.65L167.215 370.743C167.001 364.44 166.682 358.139 166.683 351.833C166.73 345.525 166.743 339.219 167.143 332.905C167.145 332.882 167.155 332.861 167.171 332.846C167.187 332.83 167.209 332.822 167.232 332.821C167.254 332.821 167.276 332.829 167.293 332.844C167.31 332.859 167.321 332.879 167.323 332.902Z" fill="white"/>
<path d="M160.788 423.644C185.338 423.644 205.24 415.634 205.24 405.753C205.24 395.871 185.338 387.861 160.788 387.861C136.238 387.861 116.336 395.871 116.336 405.753C116.336 415.634 136.238 423.644 160.788 423.644Z" fill="white"/>
<path d="M183.889 171.928C182.947 172.593 181.855 173.015 180.708 173.157C180.119 173.239 179.52 173.217 178.938 173.092C178.627 173.049 178.335 172.916 178.1 172.708C177.865 172.501 177.697 172.23 177.616 171.928C177.807 172.099 178.032 172.23 178.276 172.311C178.52 172.392 178.779 172.422 179.035 172.4C179.557 172.387 180.078 172.344 180.594 172.27C181.686 172.098 182.785 171.984 183.889 171.928ZM203.68 157.079C208.425 160.135 213.156 163.215 217.942 166.175C219.141 166.907 220.346 167.637 221.567 168.31C222.173 168.663 222.794 168.961 223.399 169.279C223.688 169.398 224.027 169.574 224.271 169.65C224.38 169.675 224.487 169.706 224.592 169.745C224.832 169.789 225.076 169.845 225.313 169.911C226.662 170.475 227.966 171.138 229.216 171.893C230.448 172.608 231.662 173.348 232.857 174.111C237.681 177.118 242.247 180.515 246.509 184.267C248.696 186.145 250.626 188.3 252.248 190.678L252.797 191.647L253.237 192.598C253.565 193.25 253.846 193.925 254.078 194.617C254.309 195.367 254.342 196.163 254.173 196.929C253.982 197.7 253.55 198.391 252.94 198.903L253.058 198.523C253.24 199.434 253.354 200.357 253.4 201.285C253.471 202.236 253.357 203.191 253.063 204.099C252.986 204.341 252.866 204.568 252.709 204.769L252.474 205.081L252.144 205.318C251.927 205.476 251.674 205.577 251.407 205.611C251.158 205.672 250.898 205.679 250.645 205.634C250.161 205.578 249.688 205.455 249.239 205.267L247.989 204.622L248.415 204.381C248.383 205.431 248.22 206.473 247.928 207.483C247.667 208.547 247.048 209.491 246.174 210.159C245.694 210.446 245.153 210.62 244.594 210.668C244.036 210.715 243.473 210.635 242.95 210.433C242.45 210.247 241.96 210.033 241.485 209.791L240.148 208.952L240.683 208.717C240.544 210.406 239.977 212.033 239.036 213.447C238.761 213.828 238.404 214.143 237.99 214.368C237.576 214.593 237.117 214.722 236.646 214.747L235.935 214.692C235.713 214.638 235.503 214.552 235.287 214.48C234.872 214.33 234.477 214.128 234.113 213.878C232.746 212.905 231.521 211.749 230.473 210.442C229.416 209.183 228.426 207.881 227.483 206.555C225.593 203.905 223.821 201.192 221.935 198.597C221.028 197.304 220.037 196.071 218.968 194.906C218.482 194.369 217.92 193.904 217.301 193.526C217.08 193.383 216.826 193.3 216.562 193.286C216.377 193.289 216.2 193.362 216.068 193.492L216.342 192.985C216.156 194.703 216.356 196.441 216.929 198.073C217.076 198.473 217.25 198.862 217.45 199.238C217.55 199.424 217.657 199.607 217.77 199.785C217.901 200.037 218.036 200.329 218.156 200.605C218.475 201.657 218.538 202.769 218.34 203.85C218.004 205.934 216.987 207.851 215.445 209.303C214.989 209.727 214.435 210.034 213.833 210.197C213.23 210.361 212.597 210.376 211.987 210.241C210.875 209.866 209.923 209.128 209.288 208.146C209.167 208.003 209.105 207.821 209.113 207.634L209.118 207.525C209.21 205.39 208.708 203.271 207.669 201.399C207.403 200.941 207.102 200.503 206.771 200.089C206.426 199.656 206.098 199.35 205.643 198.852C204.793 197.94 204.088 196.904 203.552 195.781C202.565 193.579 201.978 191.22 201.82 188.814C201.636 186.47 201.656 184.115 201.88 181.775L201.92 182.035C201.201 180.673 200.131 179.525 198.82 178.708C197.47 177.823 195.991 177.15 194.435 176.713C192.866 176.238 191.256 175.908 189.626 175.725C188.806 175.663 187.984 175.579 187.159 175.534L184.677 175.474C184.653 175.475 184.63 175.466 184.612 175.45C184.595 175.434 184.584 175.411 184.583 175.388C184.584 175.364 184.593 175.342 184.609 175.325C184.625 175.308 184.646 175.297 184.669 175.295L187.165 175.177C187.998 175.17 188.833 175.209 189.67 175.224C191.349 175.314 193.016 175.558 194.65 175.951C196.314 176.34 197.906 176.984 199.369 177.86C200.113 178.308 200.804 178.836 201.431 179.436C202.103 180.05 202.656 180.781 203.063 181.593C203.093 181.655 203.108 181.724 203.106 181.792L203.104 181.854C202.99 184.127 203.046 186.406 203.27 188.671C203.471 190.887 204.064 193.049 205.023 195.06C205.51 196.017 206.141 196.896 206.895 197.664C207.226 198.017 207.756 198.499 208.141 198.966C208.549 199.444 208.916 199.957 209.236 200.497C210.494 202.68 211.107 205.171 211.007 207.684L210.838 207.063C211.346 207.659 211.899 208.303 212.475 208.387C212.785 208.443 213.105 208.422 213.406 208.327C213.706 208.232 213.979 208.066 214.201 207.842C215.393 206.679 216.181 205.168 216.45 203.529C216.592 202.765 216.565 201.979 216.374 201.225L216.174 200.769C216.038 200.549 215.912 200.325 215.794 200.097C215.56 199.642 215.357 199.172 215.189 198.69C214.537 196.767 214.335 194.721 214.599 192.709C214.622 192.522 214.711 192.35 214.849 192.223L214.873 192.201C215.341 191.776 215.955 191.543 216.589 191.55C217.142 191.572 217.679 191.737 218.148 192.028C218.914 192.499 219.606 193.08 220.201 193.752C221.307 194.989 222.329 196.297 223.261 197.668C225.114 200.359 226.812 203.112 228.614 205.78C229.518 207.11 230.423 208.437 231.405 209.693C232.336 210.952 233.435 212.079 234.673 213.043C234.968 213.266 235.292 213.448 235.635 213.586C235.802 213.646 235.968 213.726 236.136 213.775L236.638 213.828C236.978 213.818 237.311 213.731 237.613 213.575C237.914 213.418 238.176 213.195 238.378 212.924C239.269 211.652 239.829 210.181 240.009 208.642C240.024 208.551 240.074 208.47 240.149 208.416C240.224 208.362 240.318 208.34 240.409 208.354C240.457 208.363 240.503 208.38 240.544 208.406L241.805 209.222C242.242 209.449 242.69 209.652 243.149 209.831C243.581 210.01 244.048 210.088 244.515 210.059C244.982 210.029 245.436 209.894 245.842 209.663C246.61 209.077 247.156 208.251 247.392 207.317C247.689 206.366 247.843 205.377 247.851 204.381C247.851 204.333 247.864 204.287 247.888 204.245C247.911 204.204 247.945 204.169 247.986 204.144C248.027 204.119 248.073 204.105 248.121 204.102C248.169 204.1 248.217 204.11 248.26 204.131L248.277 204.14L249.464 204.728C249.858 204.884 250.271 204.986 250.693 205.029C251.079 205.087 251.472 205 251.797 204.786C252.121 204.571 252.354 204.245 252.449 203.869C252.695 203.043 252.78 202.178 252.7 201.32C252.645 200.438 252.509 199.563 252.293 198.705C252.276 198.637 252.278 198.566 252.299 198.498C252.32 198.431 252.359 198.371 252.411 198.324C252.868 197.894 253.184 197.336 253.317 196.724C253.45 196.113 253.393 195.475 253.155 194.896C252.911 194.266 252.623 193.654 252.293 193.063L251.807 192.12L251.278 191.275C249.626 189.069 247.693 187.085 245.527 185.373C241.221 181.79 236.714 178.454 232.027 175.38C229.751 173.817 227.36 172.426 224.873 171.22C224.769 171.195 224.668 171.161 224.571 171.116C224.371 171.072 224.094 171.018 223.864 170.951C223.44 170.808 223.155 170.64 222.795 170.484C222.153 170.142 221.522 169.788 220.92 169.411C219.697 168.673 218.517 167.893 217.337 167.11C212.628 163.971 208.064 160.65 203.575 157.225C203.557 157.211 203.544 157.19 203.541 157.167C203.537 157.144 203.543 157.121 203.557 157.102C203.57 157.083 203.591 157.07 203.614 157.066C203.637 157.062 203.66 157.066 203.68 157.079Z" fill="white"/>
<path d="M223.907 189.121C227.048 192.022 230.027 195.092 232.83 198.317C235.656 201.534 238.292 204.912 240.724 208.434C240.789 208.532 240.813 208.652 240.79 208.767C240.768 208.883 240.701 208.985 240.603 209.051C240.505 209.118 240.385 209.143 240.269 209.123C240.152 209.102 240.049 209.037 239.98 208.941L239.969 208.924C237.678 205.343 235.179 201.897 232.485 198.604C229.802 195.29 226.939 192.124 223.907 189.121ZM232.992 187.187C238.441 192.565 243.613 198.212 248.49 204.107C248.564 204.199 248.598 204.317 248.586 204.434C248.573 204.551 248.514 204.659 248.422 204.733C248.33 204.808 248.211 204.843 248.093 204.832C247.975 204.82 247.866 204.763 247.79 204.672L247.777 204.655C243.147 198.589 238.213 192.759 232.992 187.187ZM239.481 185.79C241.797 187.805 244.094 189.843 246.373 191.903L249.76 195.03C250.874 196.096 251.985 197.145 253.029 198.335C253.107 198.425 253.147 198.542 253.139 198.66C253.13 198.779 253.075 198.889 252.985 198.967C252.895 199.045 252.777 199.084 252.658 199.076C252.538 199.068 252.427 199.013 252.349 198.924L252.336 198.908L252.323 198.892C251.4 197.729 250.332 196.611 249.282 195.505L246.061 192.226C243.89 190.06 241.697 187.915 239.481 185.79ZM212.731 152.106C213.893 153.54 215.185 154.866 216.591 156.065C217.973 157.311 219.374 158.536 220.794 159.742L229.386 166.897C235.126 171.653 240.994 176.268 246.794 180.945L246.875 181.017L246.894 181.036C249.423 183.66 252.295 185.935 255.432 187.801C258.571 189.621 261.979 190.938 265.53 191.705C272.677 193.255 280.128 192.631 286.914 189.917C290.238 188.567 293.595 186.639 297.019 185.099C300.42 183.465 303.904 182.003 307.403 180.589C310.923 179.224 314.488 177.971 318.106 176.881C321.729 175.734 325.454 174.936 329.231 174.497C329.276 174.493 329.322 174.498 329.366 174.512L329.382 174.517C332.686 175.608 336.139 176.188 339.62 176.237C343.075 176.307 346.497 175.559 349.603 174.055C351.14 173.235 352.618 172.309 354.025 171.283C355.745 170.456 357.679 170.175 359.565 170.479C361.361 170.668 363.135 171.018 364.867 171.523C365.244 171.652 365.631 171.747 366.024 171.808C366.363 171.849 366.707 171.828 367.038 171.745C367.669 171.568 368.22 171.18 368.597 170.647L368.957 170.312C368.89 170.345 368.827 170.388 368.772 170.44C368.635 170.564 368.543 170.73 368.512 170.911C368.488 171.046 368.496 171.185 368.537 171.317C368.577 171.448 368.648 171.568 368.744 171.666L368.616 170.617C368.84 170.176 368.928 169.679 368.869 169.189C368.841 168.914 368.788 168.643 368.711 168.377C368.637 168.117 368.54 167.863 368.422 167.619C368.365 167.508 368.332 167.387 368.324 167.263C368.316 167.138 368.333 167.014 368.374 166.896L368.395 166.839C368.64 165.723 368.565 164.562 368.18 163.487C367.823 162.266 367.355 161.081 366.783 159.944C366.718 159.814 366.681 159.672 366.673 159.526C366.664 159.381 366.686 159.235 366.735 159.098L366.76 159.031C366.931 158.584 367.009 158.107 366.989 157.63C366.937 157.117 366.804 156.617 366.593 156.146C366.359 155.637 366.068 155.156 365.726 154.711C365.387 154.26 365.008 153.841 364.592 153.459C364.412 153.298 364.286 153.086 364.23 152.852C364.175 152.618 364.194 152.372 364.284 152.149L364.312 152.081C364.682 151.202 364.701 150.217 364.366 149.325C363.905 148.467 363.132 147.817 362.204 147.507C359.95 146.804 357.559 146.651 355.234 147.062C350.23 147.754 345.303 148.905 340.513 150.5L340.502 150.504C340.341 150.554 340.173 150.577 340.005 150.57C335.537 150.384 331.018 152.347 326.355 153.794C323.999 154.523 321.774 155.342 319.178 155.884C316.689 156.401 314.246 156.663 311.791 156.945C301.991 157.851 292.228 158.165 282.455 158.279L278.791 158.314L276.959 158.325L276.044 158.329C275.724 158.33 275.353 158.319 275.011 158.288C272.907 158.092 270.93 157.197 269.402 155.747C268.888 155.242 268.538 154.849 268.098 154.394L258.107 143.775C251.451 136.691 244.845 129.559 238.287 122.38C238.262 122.353 238.249 122.317 238.25 122.28C238.251 122.243 238.267 122.208 238.294 122.182C238.32 122.156 238.356 122.142 238.394 122.142C238.431 122.142 238.467 122.156 238.494 122.182C245.509 128.921 252.467 135.714 259.368 142.562L269.724 152.831C270.139 153.24 270.616 153.737 270.979 154.074C272.147 155.129 273.638 155.762 275.212 155.872C275.697 155.908 276.294 155.87 276.918 155.857L278.743 155.803L282.392 155.68C292.112 155.281 301.858 154.902 311.471 153.904C313.858 153.635 316.271 153.376 318.558 152.903C320.742 152.463 323.116 151.621 325.411 150.909C327.727 150.172 330.035 149.403 332.454 148.736C334.938 147.985 337.529 147.643 340.124 147.722L339.617 147.792C342.138 147.012 344.633 146.348 347.185 145.767C349.744 145.167 352.338 144.722 354.952 144.433C356.296 144.29 357.648 144.241 358.998 144.287C360.442 144.334 361.865 144.64 363.198 145.19C364.71 145.776 365.935 146.919 366.617 148.38C366.926 149.143 367.057 149.966 367.001 150.786C366.956 151.582 366.764 152.362 366.434 153.089L366.155 151.712C366.685 152.214 367.165 152.766 367.589 153.36C368.021 153.952 368.384 154.59 368.671 155.264C368.972 155.981 369.151 156.743 369.2 157.519C369.222 158.334 369.067 159.144 368.746 159.894L368.722 158.981C369.33 160.264 369.808 161.604 370.149 162.981C370.332 163.692 370.445 164.42 370.486 165.153C370.553 165.971 370.434 166.794 370.138 167.56L370.111 166.78C370.438 167.502 370.631 168.277 370.681 169.067C370.742 169.916 370.545 170.764 370.116 171.501L369.988 170.452C370.086 170.553 370.159 170.676 370.201 170.81C370.242 170.944 370.251 171.086 370.227 171.225C370.193 171.412 370.098 171.583 369.956 171.711C369.891 171.771 369.818 171.821 369.738 171.86L370.099 171.525C369.802 172.01 369.389 172.414 368.895 172.699C368.438 172.986 367.94 173.201 367.418 173.338C366.889 173.451 366.344 173.467 365.81 173.384C365.336 173.296 364.87 173.169 364.418 173.003C362.788 172.471 361.113 172.086 359.414 171.852C357.815 171.536 356.157 171.702 354.654 172.329C353.189 173.323 351.659 174.219 350.073 175.01C346.808 176.547 343.221 177.29 339.61 177.179C336.043 177.067 332.511 176.453 329.117 175.356L329.268 175.376C325.572 175.824 321.934 176.661 318.416 177.872C314.856 179.012 311.379 180.401 307.949 181.888C304.538 183.42 301.15 185.003 297.842 186.746C294.473 188.413 291.376 190.375 287.797 191.998C280.622 195.14 272.621 195.911 264.972 194.197C261.171 193.338 257.529 191.89 254.181 189.906C250.879 187.895 247.877 185.433 245.264 182.593L245.363 182.683C239.604 177.916 233.987 172.997 228.383 168.054C225.577 165.59 222.823 163.064 220.122 160.478C218.765 159.193 217.429 157.885 216.114 156.552C215.471 155.869 214.808 155.213 214.199 154.494L213.286 153.421C213 153.041 212.745 152.63 212.478 152.24C212.457 152.209 212.45 152.172 212.457 152.135C212.464 152.099 212.485 152.066 212.516 152.045C212.546 152.024 212.584 152.016 212.621 152.022C212.658 152.029 212.691 152.049 212.713 152.079L212.731 152.106Z" fill="white"/>
<path d="M346.986 152.8C349.997 151.844 353.093 151.178 356.232 150.812C357.816 150.62 359.415 150.591 361.005 150.725C362.662 150.803 364.267 151.324 365.65 152.232C365.747 152.303 365.811 152.408 365.829 152.525C365.848 152.643 365.818 152.763 365.748 152.858C365.677 152.954 365.571 153.018 365.453 153.037C365.335 153.055 365.214 153.025 365.117 152.955L365.095 152.938C363.868 152.063 362.428 151.529 360.924 151.392C359.381 151.188 357.821 151.144 356.269 151.258C353.132 151.475 350.024 151.991 346.986 152.8ZM351.096 158.057C353.919 157.448 356.79 157.085 359.676 156.972C361.135 156.923 362.596 157.012 364.038 157.237C365.579 157.404 367.015 158.092 368.106 159.185C368.185 159.274 368.226 159.391 368.218 159.509C368.211 159.628 368.157 159.739 368.067 159.818C368.023 159.857 367.971 159.887 367.915 159.906C367.859 159.925 367.8 159.933 367.741 159.93C367.621 159.922 367.51 159.868 367.43 159.779L367.414 159.76L367.398 159.74C366.474 158.752 365.243 158.102 363.901 157.895C362.511 157.605 361.097 157.446 359.677 157.42C356.803 157.384 353.932 157.597 351.096 158.057ZM352.61 163.761C355.538 163.234 358.522 163.09 361.488 163.331C362.993 163.44 364.474 163.762 365.887 164.288C367.363 164.807 368.662 165.727 369.637 166.945C369.673 166.992 369.699 167.045 369.714 167.103C369.729 167.16 369.732 167.219 369.724 167.278C369.716 167.336 369.696 167.392 369.666 167.443C369.635 167.494 369.595 167.539 369.548 167.574C369.5 167.609 369.446 167.635 369.388 167.65C369.331 167.664 369.271 167.667 369.212 167.659C369.153 167.65 369.097 167.63 369.046 167.6C368.995 167.57 368.95 167.53 368.915 167.482L368.903 167.465L368.896 167.455C368.066 166.32 366.935 165.438 365.628 164.908C364.291 164.334 362.879 163.952 361.434 163.776C358.506 163.389 355.54 163.384 352.61 163.761ZM306.034 20.3604V106.758L426.735 117.397V20.3604H306.034ZM413.432 104.502L318.364 96.7644V31.966L413.432 30.9988V104.502Z" fill="white"/>
<path d="M325.534 38.9531C325.66 41.5972 325.771 44.1353 325.829 46.632C325.893 49.132 325.933 51.5905 325.837 54.0732L325.502 53.7397C327.647 53.8113 329.792 53.9173 331.937 53.9271C334.082 53.9483 336.227 53.8991 338.372 53.8282L338.126 54.0732C338.032 51.5478 337.964 49.0225 337.941 46.4974C337.891 43.9721 337.888 41.4468 337.914 38.9217L338.372 39.3773C336.285 39.3864 334.188 39.2833 332.067 39.2321L325.534 38.9531ZM325.47 38.8897L331.807 38.6106C333.976 38.5596 336.169 38.4565 338.372 38.4655C338.494 38.4667 338.61 38.5152 338.695 38.6004C338.781 38.6857 338.83 38.801 338.831 38.9216C338.856 41.4467 338.853 43.972 338.804 46.4973C338.78 49.0225 338.713 51.5478 338.619 54.0731L338.618 54.0902C338.617 54.1212 338.61 54.1518 338.597 54.1801C338.584 54.2084 338.566 54.2338 338.543 54.255C338.52 54.2762 338.493 54.2927 338.464 54.3036C338.435 54.3144 338.403 54.3194 338.372 54.3183C336.227 54.2474 334.082 54.1981 331.937 54.2196C329.792 54.2291 327.647 54.3352 325.502 54.4067C325.459 54.4081 325.417 54.4012 325.377 54.3863C325.337 54.3714 325.301 54.3489 325.27 54.32C325.239 54.2911 325.214 54.2564 325.196 54.2178C325.178 54.1793 325.169 54.1377 325.167 54.0954L325.166 54.0731C325.071 51.505 325.11 48.9129 325.175 46.3625C325.232 43.8085 325.344 41.2963 325.47 38.8897ZM387.264 37.6167C387.486 42.7615 387.637 47.7709 387.769 52.7408C387.924 57.7228 387.992 62.6176 388.049 67.5093C388.106 72.3975 388.029 77.2312 387.868 82.0907C387.732 86.951 387.531 91.8489 387.517 96.7686L387.191 96.4442C390.122 96.4847 393.053 96.4088 395.984 96.3968C398.915 96.3758 401.846 96.2642 404.777 96.2021L404.207 96.7686C404.045 91.833 403.926 86.8976 403.85 81.9623L403.682 67.1561C403.645 62.2206 403.658 57.2851 403.721 52.3498L403.996 37.5435L404.777 38.3192L396.175 38.002L387.264 37.6167ZM387.117 37.4703L395.792 37.0851L404.777 36.7677C404.876 36.7642 404.974 36.7801 405.067 36.8145C405.16 36.8489 405.245 36.9011 405.317 36.9681C405.39 37.0351 405.448 37.1156 405.489 37.2051C405.53 37.2946 405.553 37.3912 405.557 37.4895V37.4982L405.558 37.5436L405.833 52.3499C405.892 57.2853 405.905 62.2207 405.872 67.1562L405.704 81.9624C405.623 86.8977 405.504 91.8332 405.347 96.7687L405.346 96.7993C405.341 96.9451 405.279 97.0831 405.172 97.1834C405.066 97.2837 404.924 97.3383 404.777 97.3353C401.846 97.2733 398.915 97.1617 395.984 97.1406C393.053 97.1286 390.122 97.0527 387.191 97.0931C387.148 97.0937 387.106 97.086 387.067 97.0704C387.028 97.0549 386.992 97.0318 386.961 97.0025C386.931 96.9732 386.907 96.9383 386.89 96.8997C386.873 96.8611 386.865 96.8196 386.864 96.7775V96.7687C386.85 91.8174 386.648 86.8444 386.513 81.834C386.352 76.8225 386.275 71.7853 386.332 66.8029C386.389 61.8236 386.457 56.8475 386.611 51.9588C386.744 47.0578 386.895 42.1963 387.117 37.4703ZM374.475 121.245V112.791L361.173 111.618V119.919C353.094 120.135 347.076 122.337 346.759 125.585C346.361 129.661 355.086 133.838 366.247 134.914C377.409 135.99 386.779 133.558 387.177 129.482C387.49 126.282 382.176 123.02 374.475 121.245ZM250.017 134.198C256.619 130.018 263.297 125.964 269.998 121.947C270.076 121.901 270.168 121.884 270.258 121.898C276.458 122.844 282.636 123.93 288.81 125.031C294.983 126.148 301.176 127.134 307.379 128.06L325.988 130.849C332.183 131.822 338.387 132.747 344.573 133.779C344.696 133.798 344.805 133.866 344.877 133.966C344.95 134.066 344.979 134.19 344.959 134.312C344.939 134.43 344.874 134.536 344.778 134.608C340.185 138.035 335.559 141.419 330.901 144.759L323.939 149.803L316.932 154.787C316.922 154.794 316.91 154.797 316.899 154.795C316.887 154.793 316.877 154.787 316.87 154.777C316.863 154.768 316.86 154.756 316.861 154.745C316.863 154.733 316.869 154.722 316.878 154.715L323.668 149.443L330.502 144.229C335.05 140.743 339.623 137.288 344.218 133.865L344.424 134.695C338.226 133.733 332.046 132.665 325.858 131.645L307.315 128.454C301.135 127.386 294.945 126.379 288.733 125.503C282.525 124.611 276.318 123.703 270.135 122.656L270.394 122.607C263.657 126.563 256.898 130.483 250.063 134.275C250.053 134.281 250.041 134.282 250.029 134.279C250.018 134.276 250.008 134.269 250.002 134.259C249.996 134.249 249.995 134.237 249.997 134.226C250 134.214 250.007 134.205 250.017 134.198ZM258.019 142.43C261.816 143.395 265.584 144.454 269.347 145.527L280.604 148.853L291.8 152.377C295.521 153.587 299.238 154.811 302.925 156.131C299.127 155.167 295.36 154.108 291.597 153.035L280.34 149.708L269.144 146.183C265.423 144.973 261.707 143.748 258.019 142.43Z" fill="white"/>
<path d="M385.771 126.361C388.048 126.053 390.351 125.987 392.641 126.162C394.996 126.274 397.303 126.863 399.42 127.893C400.527 128.465 401.48 129.29 402.202 130.3C402.921 131.355 403.32 132.594 403.349 133.868C403.372 135.09 403.187 136.308 402.803 137.47C402.463 138.666 401.88 139.78 401.091 140.744C400.301 141.707 399.332 142.511 398.238 143.113C397.209 143.702 396.13 144.201 395.014 144.603C392.792 145.425 390.448 145.878 388.078 145.944C385.74 145.992 383.407 145.69 381.159 145.049C379.002 144.388 376.705 144.319 374.512 144.848C375.537 144.294 376.68 143.99 377.847 143.96C379.01 143.884 380.178 143.925 381.334 144.08C383.53 144.473 385.768 144.586 387.994 144.416C390.185 144.238 392.339 143.75 394.39 142.964C395.41 142.572 396.399 142.104 397.349 141.566C398.265 141.085 399.079 140.432 399.744 139.644C400.411 138.855 400.921 137.948 401.248 136.97C401.608 135.987 401.799 134.95 401.814 133.904C401.834 132.9 401.568 131.91 401.045 131.05C400.477 130.182 399.713 129.458 398.814 128.936C396.876 127.862 394.754 127.156 392.556 126.854C390.313 126.499 388.043 126.334 385.771 126.361Z" fill="white"/>
<path d="M376.484 150.919C376.484 150.919 376.098 163.501 369.365 171.059C369.635 170.448 369.766 169.785 369.749 169.118C369.732 168.451 369.567 167.796 369.266 167.199C370.347 164.62 367.752 159.462 367.752 159.462C369.266 156.024 365.372 152.585 365.372 152.585C365.372 152.585 367.752 147.642 361.479 145.922C361.479 145.922 378.62 137.97 376.484 150.919Z" fill="white"/>
<path d="M413.285 245.033C413.224 245.033 413.163 245.024 413.105 245.005L297.089 206.888C297.018 206.865 296.952 206.827 296.894 206.779C296.837 206.73 296.79 206.67 296.757 206.603C296.723 206.536 296.702 206.463 296.697 206.388C296.691 206.314 296.701 206.239 296.724 206.167C296.748 206.096 296.785 206.03 296.835 205.974C296.884 205.917 296.944 205.87 297.011 205.837C297.079 205.803 297.152 205.783 297.227 205.777C297.303 205.772 297.378 205.781 297.45 205.805L413.222 243.842L562.289 159.131V152.336L285.827 102.24L240.552 119.589C240.411 119.643 240.253 119.639 240.114 119.578C239.975 119.516 239.867 119.403 239.812 119.262C239.757 119.121 239.761 118.965 239.822 118.826C239.883 118.688 239.997 118.58 240.139 118.525L285.564 101.117C285.663 101.081 285.77 101.071 285.874 101.088L562.966 151.298C563.098 151.322 563.218 151.391 563.304 151.494C563.39 151.597 563.437 151.726 563.437 151.859V159.462C563.437 159.563 563.411 159.662 563.36 159.748C563.309 159.835 563.236 159.907 563.148 159.957L413.571 244.957C413.484 245.007 413.385 245.033 413.285 245.033Z" fill="white"/>
<path d="M412.961 237.818C412.915 237.818 412.869 237.811 412.825 237.797L289.529 199.04C289.473 199.022 289.42 198.994 289.375 198.956C289.33 198.918 289.293 198.872 289.265 198.82C289.21 198.714 289.2 198.592 289.236 198.479C289.272 198.366 289.352 198.271 289.458 198.217C289.564 198.162 289.687 198.152 289.801 198.188L412.909 236.885L562.639 151.471C562.69 151.441 562.747 151.423 562.806 151.415C562.865 151.408 562.924 151.412 562.981 151.427C563.039 151.442 563.092 151.469 563.139 151.505C563.186 151.541 563.225 151.585 563.255 151.637C563.284 151.688 563.303 151.744 563.311 151.802C563.318 151.861 563.314 151.92 563.299 151.977C563.283 152.033 563.257 152.087 563.22 152.133C563.184 152.18 563.139 152.219 563.088 152.248L413.186 237.76C413.117 237.798 413.04 237.818 412.961 237.818Z" fill="white"/>
<path d="M413.284 244.91C413.168 244.91 413.057 244.866 412.973 244.786C412.89 244.707 412.84 244.599 412.835 244.484L412.51 237.392C412.507 237.333 412.516 237.274 412.537 237.219C412.557 237.164 412.588 237.113 412.627 237.069C412.667 237.026 412.715 236.991 412.769 236.966C412.823 236.941 412.881 236.927 412.94 236.924C413.058 236.923 413.172 236.966 413.26 237.045C413.347 237.124 413.401 237.233 413.41 237.35L413.735 244.442C413.738 244.501 413.729 244.559 413.709 244.615C413.689 244.67 413.658 244.721 413.618 244.765C413.578 244.808 413.53 244.843 413.476 244.868C413.422 244.893 413.364 244.907 413.305 244.91H413.284Z" fill="white"/>
<path d="M413.327 242.379L414.228 297.141L414.904 351.902C415.147 370.156 415.65 388.41 415.355 406.664C415.192 415.791 415.029 424.918 414.672 434.045L414.13 447.735C413.859 452.299 413.672 456.862 413.327 461.426C413.322 461.482 413.297 461.535 413.255 461.574C413.213 461.612 413.158 461.633 413.101 461.633C413.044 461.633 412.989 461.612 412.948 461.574C412.906 461.535 412.88 461.482 412.876 461.426C412.53 456.862 412.344 452.299 412.073 447.735L411.531 434.045C411.173 424.918 411.011 415.791 410.848 406.664C410.553 388.41 411.055 370.156 411.299 351.902L411.975 297.141L412.876 242.379C412.877 242.32 412.901 242.264 412.943 242.223C412.985 242.182 413.042 242.159 413.101 242.159C413.161 242.159 413.217 242.182 413.259 242.223C413.302 242.264 413.326 242.32 413.327 242.379ZM551.408 167.2L552.309 221.961L552.985 276.723C553.228 294.977 553.731 313.231 553.436 331.485C553.273 340.612 553.111 349.738 552.753 358.866L552.211 372.556C551.94 377.12 551.754 381.683 551.408 386.246C551.403 386.303 551.378 386.356 551.336 386.394C551.294 386.432 551.239 386.454 551.182 386.454C551.125 386.454 551.071 386.432 551.029 386.394C550.987 386.356 550.961 386.303 550.957 386.246C550.611 381.683 550.425 377.12 550.154 372.556L549.612 358.866C549.254 349.738 549.092 340.612 548.929 331.485C548.634 313.231 549.136 294.977 549.38 276.723L550.056 221.961L550.957 167.2C550.958 167.141 550.982 167.085 551.024 167.043C551.066 167.002 551.123 166.979 551.182 166.979C551.242 166.979 551.299 167.002 551.341 167.043C551.383 167.085 551.407 167.141 551.408 167.2ZM321.786 317.644C321.786 317.644 332.094 318.497 367.504 342.654C373.298 346.681 380.387 348.435 387.404 347.577C389.274 347.371 391.105 346.904 392.844 346.19C392.844 346.19 419.775 353.106 395.764 357.619C395.764 357.619 361.371 358.586 335.738 339.888L336.063 350.204H323.084C323.084 350.204 317.244 323.447 321.786 317.644Z" fill="white"/>
<path d="M332.803 278.346C334.794 281.678 336.683 285.063 338.626 288.419L344.282 298.58C346.19 301.953 347.982 305.397 349.832 308.791C351.66 312.143 353.846 315.289 356.351 318.177C357.583 319.635 358.891 321.029 360.268 322.352C361.642 323.666 363.127 324.911 364.596 326.181C367.529 328.717 370.537 331.16 373.513 333.641C376.507 336.1 379.554 338.497 382.706 340.742C384.268 341.885 385.868 342.975 387.527 343.968L388.785 344.69L390.085 345.327C390.955 345.752 391.885 346.043 392.844 346.19C390.887 345.984 388.997 345.368 387.297 344.384C385.551 343.497 383.861 342.509 382.209 341.468C378.927 339.35 375.768 337.061 372.653 334.721C369.523 332.397 366.532 329.902 363.532 327.423C362.047 326.173 360.534 324.943 359.082 323.593C354.725 319.566 351.106 314.816 348.387 309.557C346.599 306.107 344.778 302.695 343.06 299.218L337.848 288.826C336.168 285.331 334.434 281.865 332.803 278.346ZM308.983 302.026C311.586 304.2 313.965 306.626 316.083 309.27C318.263 311.863 320.174 314.669 321.786 317.644C319.18 315.473 316.801 313.046 314.686 310.4C312.509 307.805 310.598 304.999 308.983 302.026ZM247.773 396.094C247.773 396.094 258.104 395.576 296.436 414.834C302.717 418.059 309.978 418.859 316.818 417.08C318.643 416.629 320.396 415.924 322.023 414.986C322.023 414.986 349.641 418.278 326.449 425.927C326.449 425.927 292.492 431.436 264.582 416.295L266.286 426.476L253.423 428.193C253.423 428.193 244.049 402.446 247.773 396.094Z" fill="white"/>
<path d="M269.521 364.266C270.372 367.418 271.111 370.593 271.909 373.756L273.013 378.519C273.319 380.076 273.807 381.592 274.467 383.037C275.133 384.452 275.981 385.776 276.991 386.973C278.028 388.173 279.161 389.343 280.319 390.451C282.635 392.685 285.143 394.713 287.817 396.509C293.248 400.085 298.785 403.587 304.366 406.953C307.162 408.634 309.994 410.257 312.899 411.727C314.334 412.495 315.809 413.189 317.316 413.805C318.797 414.487 320.394 414.888 322.023 414.986C320.367 415.082 318.709 414.832 317.156 414.252C315.582 413.755 314.035 413.177 312.521 412.521C309.505 411.195 306.576 409.696 303.677 408.149C297.882 405.034 292.325 401.577 286.803 397.989C284.054 396.116 281.484 393.996 279.125 391.656C277.953 390.473 276.84 389.265 275.773 387.967C274.701 386.64 273.834 385.163 273.201 383.582C272.581 382.025 272.145 380.401 271.902 378.743L271.048 373.93C270.541 370.708 269.975 367.498 269.521 364.266ZM246.898 372.139C247.681 376.076 248.128 380.072 248.236 384.084C248.425 388.093 248.27 392.111 247.773 396.094C246.987 392.157 246.54 388.161 246.436 384.149C246.251 380.14 246.405 376.122 246.898 372.139ZM217.049 53.3484C215.211 53.5271 213.359 53.2131 211.685 52.439C210.811 52.0557 210.046 51.4657 209.455 50.7207C208.867 49.9721 208.599 49.0233 208.71 48.0799C208.958 48.8891 209.391 49.6306 209.974 50.2467C210.558 50.8627 211.276 51.3368 212.074 51.6321C213.685 52.3316 215.348 52.9054 217.049 53.3484ZM391.339 44.8184C391.897 44.7992 392.426 44.5653 392.814 44.1661C393.202 43.767 393.419 43.2337 393.419 42.6787C393.419 42.1238 393.202 41.5905 392.814 41.1913C392.426 40.7922 391.897 40.5583 391.339 40.5391C390.781 40.5583 390.252 40.7922 389.864 41.1913C389.476 41.5905 389.259 42.1238 389.259 42.6787C389.259 43.2337 389.476 43.767 389.864 44.1661C390.252 44.5653 390.781 44.7992 391.339 44.8184ZM391.684 56.6292C392.242 56.61 392.771 56.3761 393.159 55.977C393.547 55.5778 393.764 55.0445 393.764 54.4895C393.764 53.9346 393.547 53.4013 393.159 53.0021C392.771 52.603 392.242 52.3691 391.684 52.3499C391.126 52.3691 390.597 52.603 390.209 53.0021C389.821 53.4013 389.604 53.9346 389.604 54.4895C389.604 55.0445 389.821 55.5778 390.209 55.977C390.597 56.3761 391.126 56.61 391.684 56.6292ZM391.856 69.2959C392.414 69.2766 392.943 69.0428 393.331 68.6436C393.719 68.2445 393.936 67.7112 393.936 67.1562C393.936 66.6012 393.719 66.068 393.331 65.6688C392.943 65.2696 392.414 65.0358 391.856 65.0166C391.298 65.0358 390.769 65.2696 390.381 65.6688C389.993 66.068 389.776 66.6012 389.776 67.1562C389.776 67.7112 389.993 68.2445 390.381 68.6436C390.769 69.0428 391.298 69.2766 391.856 69.2959ZM391.856 83.3319C392.414 83.3127 392.943 83.0788 393.331 82.6797C393.719 82.2805 393.936 81.7472 393.936 81.1922C393.936 80.6373 393.719 80.104 393.331 79.7048C392.943 79.3057 392.414 79.0718 391.856 79.0526C391.298 79.0718 390.769 79.3057 390.381 79.7048C389.993 80.104 389.776 80.6373 389.776 81.1922C389.776 81.7472 389.993 82.2805 390.381 82.6797C390.769 83.0788 391.298 83.3127 391.856 83.3319ZM392.201 94.6292C392.759 94.61 393.288 94.3761 393.676 93.977C394.064 93.5778 394.281 93.0445 394.281 92.4895C394.281 91.9346 394.064 91.4013 393.676 91.0021C393.288 90.603 392.759 90.3691 392.201 90.3499C391.642 90.3691 391.113 90.603 390.725 91.0021C390.337 91.4013 390.12 91.9346 390.12 92.4895C390.12 93.0445 390.337 93.5778 390.725 93.977C391.113 94.3761 391.642 94.61 392.201 94.6292ZM331.883 47.3709C332.195 47.3692 332.5 47.2802 332.764 47.1141C333.027 46.9481 333.238 46.7116 333.373 46.4319C333.592 45.9438 333.742 45.4276 333.817 44.8983C333.885 44.6153 333.893 44.3214 333.841 44.0351C333.789 43.7487 333.678 43.4761 333.515 43.2346C333.316 43.0092 333.059 42.8416 332.772 42.7494C332.484 42.6572 332.177 42.6439 331.883 42.711C331.358 42.8164 330.885 43.095 330.54 43.5015C330.25 43.9109 330.096 44.3996 330.099 44.8999C330.086 45.4229 330.192 45.9421 330.407 46.4195C330.538 46.7 330.746 46.9381 331.007 47.1064C331.268 47.2747 331.572 47.3664 331.883 47.3709ZM331.883 47.4977C331.15 47.5427 330.421 47.365 329.793 46.988C329.463 46.7481 329.195 46.4335 329.011 46.0703C328.828 45.7071 328.734 45.3057 328.738 44.8994C328.732 44.4879 328.811 44.0795 328.969 43.6994C329.128 43.3193 329.363 42.9756 329.661 42.6894C329.952 42.4109 330.305 42.2048 330.691 42.0879C331.077 41.971 331.486 41.9467 331.883 42.0169C332.608 42.1286 333.283 42.4554 333.818 42.9544C334.392 43.4573 334.768 44.1464 334.879 44.8989C334.925 45.2947 334.863 45.6954 334.702 46.0601C334.54 46.4247 334.284 46.74 333.959 46.9737C333.336 47.3522 332.613 47.5348 331.883 47.4977Z" fill="white"/>
<path d="M336.011 54.1177C334.679 54.3397 333.335 54.4885 331.986 54.5635C331.263 54.595 330.533 54.6322 329.794 54.6132C329.054 54.5964 328.315 54.5001 327.598 54.4334L327.525 54.4264C327.483 54.4225 327.442 54.4105 327.404 54.3909C327.367 54.3713 327.334 54.3446 327.307 54.3124C327.28 54.2801 327.26 54.2429 327.248 54.2029C327.235 54.1628 327.231 54.1208 327.235 54.0791V54.0733C327.338 53.3011 327.395 52.5235 327.406 51.7446C327.355 50.9315 327.471 50.1166 327.747 49.3494C328.072 48.5228 328.637 47.8112 329.371 47.3053C330.105 46.7995 330.974 46.5224 331.867 46.5095C332.76 46.4965 333.636 46.7483 334.385 47.2326C335.133 47.717 335.719 48.4119 336.068 49.2287C336.405 50.039 336.504 50.9276 336.354 51.7916C336.267 52.6444 336.123 53.4385 336.011 54.1177ZM335.922 54.0291L335.579 51.6979C335.542 51.0096 335.352 50.338 335.024 49.7312C334.687 49.163 334.216 48.6853 333.651 48.3397C333.086 47.9941 332.444 47.7913 331.782 47.7488C331.087 47.7313 330.4 47.8937 329.788 48.2201C329.175 48.5464 328.659 49.0255 328.289 49.6102C327.902 50.2521 327.727 50.9987 327.79 51.7446C327.801 52.5234 327.857 53.301 327.96 54.0733L327.598 53.7136C328.275 53.6467 328.931 53.5504 329.586 53.5335C330.242 53.5145 330.906 53.5518 331.578 53.5833C332.927 53.6643 334.334 53.8263 335.922 54.0291ZM343.985 38.9532C344.111 41.5973 344.222 44.1354 344.28 46.6321C344.344 49.1322 344.384 51.5906 344.288 54.0733L343.953 53.7399C346.098 53.8114 348.243 53.9175 350.388 53.9272C352.533 53.9485 354.678 53.8992 356.823 53.8283L356.577 54.0733C356.483 51.548 356.415 49.0227 356.392 46.4975C356.342 43.9722 356.339 41.4469 356.365 38.9218L356.823 39.3775C354.736 39.3865 352.639 39.2834 350.518 39.2323L343.985 38.9532ZM343.921 38.8898L350.259 38.6107C352.427 38.5597 354.62 38.4567 356.823 38.4657C356.945 38.4669 357.061 38.5153 357.146 38.6006C357.232 38.6858 357.281 38.8011 357.282 38.9217C357.307 41.4469 357.304 43.9722 357.255 46.4974C357.231 49.0226 357.164 51.5479 357.07 54.0732L357.069 54.0903C357.068 54.1214 357.061 54.1519 357.048 54.1802C357.035 54.2085 357.017 54.234 356.994 54.2552C356.971 54.2764 356.944 54.2928 356.915 54.3037C356.886 54.3146 356.854 54.3196 356.823 54.3184C354.678 54.2475 352.533 54.1983 350.388 54.2197C348.243 54.2293 346.098 54.3353 343.953 54.4069C343.91 54.4083 343.868 54.4013 343.828 54.3864C343.788 54.3716 343.752 54.349 343.721 54.3201C343.69 54.2912 343.665 54.2565 343.647 54.218C343.629 54.1794 343.62 54.1378 343.618 54.0955L343.617 54.0732C343.522 51.5051 343.561 48.9131 343.626 46.3627C343.684 43.8087 343.795 41.2964 343.921 38.8898Z" fill="white"/>
<path d="M350.334 47.3709C350.646 47.3692 350.951 47.2802 351.215 47.1141C351.478 46.9481 351.689 46.7116 351.824 46.4319C352.043 45.9439 352.193 45.4276 352.268 44.8983C352.336 44.6153 352.344 44.3214 352.292 44.0351C352.24 43.7487 352.129 43.4762 351.966 43.2346C351.767 43.0092 351.51 42.8416 351.222 42.7494C350.935 42.6572 350.628 42.6439 350.334 42.711C349.809 42.8164 349.336 43.095 348.99 43.5015C348.701 43.9109 348.547 44.3996 348.549 44.8999C348.537 45.4229 348.642 45.9421 348.858 46.4195C348.989 46.7 349.197 46.9381 349.458 47.1064C349.719 47.2747 350.023 47.3664 350.334 47.3709ZM350.334 47.4977C349.601 47.5427 348.872 47.365 348.243 46.988C347.913 46.7481 347.645 46.4335 347.462 46.0703C347.279 45.7071 347.185 45.3057 347.189 44.8994C347.183 44.4879 347.261 44.0795 347.42 43.6994C347.579 43.3193 347.814 42.9756 348.112 42.6894C348.402 42.4109 348.755 42.2048 349.141 42.0879C349.528 41.9711 349.936 41.9467 350.334 42.0169C351.059 42.1286 351.733 42.4554 352.269 42.9544C352.843 43.4573 353.219 44.1464 353.329 44.8989C353.375 45.2947 353.314 45.6954 353.153 46.0601C352.991 46.4247 352.735 46.74 352.41 46.9737C351.787 47.3522 351.063 47.5348 350.334 47.4977Z" fill="white"/>
<path d="M354.461 54.1177C353.129 54.3397 351.785 54.4885 350.437 54.5635C349.713 54.595 348.983 54.6322 348.244 54.6132C347.504 54.5964 346.765 54.5001 346.048 54.4334L345.975 54.4264C345.933 54.4225 345.892 54.4105 345.855 54.3909C345.817 54.3713 345.784 54.3446 345.757 54.3124C345.73 54.2801 345.71 54.2429 345.698 54.2029C345.685 54.1628 345.681 54.1208 345.685 54.0791L345.686 54.0733C345.788 53.3011 345.845 52.5235 345.856 51.7446C345.805 50.9315 345.922 50.1166 346.197 49.3494C346.522 48.5228 347.088 47.8112 347.821 47.3053C348.555 46.7995 349.424 46.5224 350.317 46.5095C351.21 46.4965 352.087 46.7483 352.835 47.2326C353.583 47.717 354.169 48.4119 354.518 49.2287C354.856 50.039 354.955 50.9276 354.804 51.7916C354.717 52.6444 354.573 53.4385 354.461 54.1177ZM354.372 54.0291L354.029 51.6979C353.992 51.0096 353.803 50.338 353.474 49.7312C353.137 49.163 352.666 48.6853 352.101 48.3397C351.536 47.9941 350.894 47.7913 350.232 47.7488C349.538 47.7313 348.85 47.8937 348.238 48.2201C347.626 48.5464 347.109 49.0255 346.739 49.6102C346.352 50.2521 346.177 50.9987 346.24 51.7446C346.251 52.5234 346.308 53.301 346.41 54.0733L346.048 53.7136C346.726 53.6467 347.381 53.5504 348.036 53.5335C348.692 53.5145 349.357 53.5518 350.028 53.5833C351.377 53.6643 352.784 53.8263 354.372 54.0291ZM362.778 38.9532C362.904 41.5973 363.016 44.1354 363.074 46.6321C363.138 49.1322 363.178 51.5906 363.082 54.0733L362.746 53.7399C364.891 53.8114 367.037 53.9175 369.182 53.9272C371.326 53.9485 373.472 53.8992 375.617 53.8283L375.37 54.0733C375.276 51.548 375.209 49.0227 375.185 46.4975C375.136 43.9722 375.133 41.4469 375.158 38.9218L375.617 39.3775C373.529 39.3865 371.432 39.2834 369.311 39.2323L362.778 38.9532ZM362.715 38.8898L369.052 38.6107C371.221 38.5597 373.414 38.4567 375.617 38.4657C375.738 38.4668 375.854 38.5153 375.94 38.6005C376.026 38.6858 376.074 38.8011 376.076 38.9217C376.101 41.4469 376.098 43.9722 376.048 46.4974C376.025 49.0226 375.957 51.5479 375.863 54.0732V54.0903C375.862 54.1214 375.855 54.1519 375.842 54.1802C375.829 54.2085 375.81 54.234 375.787 54.2552C375.764 54.2764 375.738 54.2928 375.708 54.3037C375.679 54.3146 375.648 54.3195 375.617 54.3184C373.472 54.2475 371.326 54.1983 369.182 54.2197C367.037 54.2293 364.891 54.3353 362.746 54.4069C362.704 54.4083 362.661 54.4013 362.622 54.3864C362.582 54.3716 362.545 54.349 362.514 54.3201C362.483 54.2912 362.458 54.2565 362.44 54.218C362.423 54.1794 362.413 54.1378 362.412 54.0955L362.411 54.0732C362.315 51.5051 362.355 48.9131 362.419 46.3627C362.477 43.8087 362.588 41.2964 362.715 38.8898Z" fill="white"/>
<path d="M369.128 47.3709C369.44 47.3692 369.745 47.2802 370.009 47.1142C370.272 46.9481 370.483 46.7116 370.618 46.4319C370.837 45.9439 370.987 45.4277 371.061 44.8983C371.13 44.6153 371.138 44.3214 371.086 44.0351C371.034 43.7487 370.923 43.4762 370.76 43.2346C370.561 43.0092 370.304 42.8416 370.016 42.7494C369.729 42.6572 369.422 42.644 369.128 42.711C368.603 42.8165 368.13 43.0951 367.784 43.5015C367.495 43.9109 367.341 44.3996 367.344 44.8999C367.331 45.4229 367.436 45.9421 367.652 46.4195C367.783 46.7 367.991 46.9381 368.252 47.1064C368.513 47.2747 368.817 47.3664 369.128 47.3709ZM369.128 47.4977C368.395 47.5427 367.666 47.365 367.037 46.988C366.707 46.7481 366.439 46.4335 366.256 46.0703C366.073 45.7071 365.979 45.3057 365.983 44.8994C365.977 44.4879 366.055 44.0795 366.214 43.6995C366.373 43.3194 366.608 42.9756 366.906 42.6894C367.196 42.4109 367.549 42.2048 367.935 42.0879C368.322 41.9711 368.73 41.9467 369.128 42.0169C369.853 42.1286 370.527 42.4554 371.063 42.9544C371.637 43.4573 372.013 44.1464 372.123 44.8989C372.169 45.2947 372.108 45.6955 371.947 46.0601C371.785 46.4247 371.529 46.74 371.204 46.9737C370.581 47.3522 369.857 47.5348 369.128 47.4977Z" fill="white"/>
<path d="M373.254 54.1177C371.922 54.3397 370.578 54.4885 369.229 54.5635C368.506 54.595 367.776 54.6322 367.037 54.6133C366.297 54.5964 365.558 54.5001 364.841 54.4334L364.767 54.4264C364.726 54.4225 364.685 54.4104 364.647 54.3909C364.61 54.3713 364.577 54.3446 364.55 54.3124C364.523 54.2801 364.503 54.2429 364.491 54.2029C364.478 54.1628 364.474 54.1208 364.478 54.0791V54.0733C364.581 53.3011 364.638 52.5235 364.649 51.7446C364.598 50.9315 364.714 50.1166 364.99 49.3494C365.315 48.5228 365.881 47.8112 366.614 47.3053C367.348 46.7995 368.217 46.5224 369.11 46.5094C370.003 46.4965 370.88 46.7483 371.628 47.2326C372.376 47.717 372.962 48.4119 373.311 49.2287C373.648 50.039 373.747 50.9276 373.597 51.7916C373.51 52.6444 373.366 53.4385 373.254 54.1177ZM373.165 54.0291L372.822 51.6979C372.785 51.0097 372.595 50.338 372.267 49.7312C371.93 49.163 371.459 48.6853 370.894 48.3397C370.329 47.9942 369.687 47.7913 369.025 47.7488C368.33 47.7313 367.643 47.8937 367.031 48.2201C366.418 48.5464 365.902 49.0255 365.532 49.6102C365.145 50.2522 364.97 50.9987 365.033 51.7446C365.044 52.5235 365.1 53.301 365.203 54.0733L364.841 53.7136C365.519 53.6467 366.174 53.5504 366.829 53.5335C367.485 53.5145 368.149 53.5518 368.821 53.5833C370.17 53.6643 371.577 53.8263 373.165 54.0291ZM354.448 57.7688C354.574 60.4128 354.686 62.9511 354.743 65.4476C354.808 67.9477 354.847 70.4062 354.752 72.8888L354.416 72.5554C356.561 72.627 358.706 72.733 360.851 72.7428C362.996 72.764 365.141 72.7147 367.286 72.6438L367.04 72.8888C366.946 70.3635 366.878 67.8382 366.855 65.3131C366.806 62.7878 366.803 60.2624 366.828 57.7373L367.286 58.193C365.199 58.2021 363.102 58.099 360.981 58.048L354.448 57.7688ZM354.384 57.7054L360.722 57.4263C362.891 57.3752 365.084 57.2722 367.286 57.2812C367.408 57.2824 367.524 57.3308 367.61 57.4161C367.695 57.5014 367.744 57.6167 367.745 57.7372C367.77 60.2624 367.767 62.7877 367.718 65.313C367.695 67.8382 367.627 70.3635 367.533 72.8887V72.906C367.532 72.937 367.524 72.9676 367.511 72.9958C367.498 73.0241 367.48 73.0495 367.457 73.0707C367.434 73.0919 367.407 73.1084 367.378 73.1192C367.349 73.1301 367.318 73.1351 367.286 73.1339C365.141 73.063 362.996 73.0138 360.851 73.0352C358.706 73.0447 356.561 73.1508 354.416 73.2224C354.33 73.2252 354.247 73.194 354.184 73.1357C354.121 73.0773 354.084 72.9966 354.081 72.9112V72.8887C353.985 70.3207 354.025 67.7286 354.089 65.1782C354.147 62.6242 354.258 60.1119 354.384 57.7054Z" fill="white"/>
<path d="M360.798 66.1864C361.11 66.1847 361.415 66.0957 361.678 65.9297C361.942 65.7636 362.153 65.5271 362.288 65.2474C362.507 64.7594 362.656 64.2432 362.731 63.7139C362.8 63.4309 362.808 63.1369 362.756 62.8506C362.704 62.5642 362.593 62.2917 362.43 62.0501C362.23 61.8248 361.974 61.6571 361.686 61.565C361.399 61.4728 361.092 61.4595 360.798 61.5265C360.273 61.6319 359.799 61.9105 359.454 62.317C359.165 62.7264 359.011 63.2151 359.013 63.7154C359.001 64.2385 359.106 64.7576 359.322 65.235C359.453 65.5155 359.661 65.7537 359.922 65.922C360.183 66.0903 360.486 66.1819 360.798 66.1864ZM360.798 66.3132C360.065 66.3582 359.336 66.1805 358.707 65.8035C358.377 65.5636 358.109 65.249 357.926 64.8858C357.742 64.5226 357.649 64.1212 357.653 63.7149C357.646 63.3034 357.725 62.8951 357.884 62.515C358.042 62.1349 358.278 61.7911 358.576 61.5049C358.866 61.2264 359.219 61.0203 359.605 60.9035C359.992 60.7866 360.4 60.7622 360.798 60.8325C361.523 60.9441 362.197 61.2709 362.732 61.7699C363.307 62.2728 363.683 62.9618 363.793 63.7144C363.839 64.1102 363.778 64.511 363.616 64.8756C363.455 65.2402 363.198 65.5555 362.874 65.7892C362.251 66.1677 361.527 66.3503 360.798 66.3132Z" fill="white"/>
<path d="M364.925 72.9333C363.592 73.1552 362.249 73.304 360.9 73.379C360.177 73.4107 359.447 73.4478 358.707 73.4288C357.968 73.4119 357.228 73.3156 356.511 73.2489L356.438 73.242C356.396 73.2381 356.355 73.226 356.318 73.2065C356.281 73.1869 356.248 73.1602 356.221 73.128C356.194 73.0957 356.174 73.0585 356.161 73.0184C356.149 72.9784 356.145 72.9363 356.148 72.8946L356.149 72.8889C356.251 72.1166 356.308 71.339 356.319 70.5602C356.269 69.7471 356.385 68.9323 356.661 68.1651C356.986 67.3385 357.551 66.6268 358.285 66.121C359.019 65.6151 359.887 65.338 360.78 65.325C361.673 65.3121 362.55 65.5638 363.298 66.0482C364.047 66.5325 364.633 67.2274 364.982 68.0443C365.319 68.8546 365.418 69.7432 365.268 70.6072C365.181 71.46 365.037 72.254 364.925 72.9333ZM364.836 72.8446L364.493 70.5134C364.456 69.8252 364.266 69.1536 363.937 68.5467C363.601 67.9785 363.129 67.5008 362.564 67.1553C361.999 66.8097 361.358 66.6068 360.696 66.5643C360.001 66.5468 359.314 66.7092 358.701 67.0356C358.089 67.3619 357.572 67.841 357.203 68.4257C356.816 69.0676 356.641 69.8142 356.703 70.5601C356.714 71.339 356.771 72.1165 356.873 72.8888L356.511 72.5291C357.189 72.4622 357.844 72.3659 358.5 72.349C359.155 72.33 359.82 72.3673 360.491 72.399C361.84 72.4798 363.248 72.6418 364.836 72.8446ZM334.38 57.7688C334.506 60.4128 334.618 62.9511 334.675 65.4476C334.74 67.9477 334.78 70.4062 334.684 72.8889L334.348 72.5554C336.494 72.627 338.638 72.733 340.783 72.7428C342.929 72.764 345.074 72.7147 347.219 72.6438L346.972 72.8889C346.878 70.3635 346.811 67.8382 346.787 65.3131C346.738 62.7878 346.735 60.2624 346.76 57.7373L347.219 58.193C345.131 58.2021 343.034 58.099 340.913 58.048L334.38 57.7688ZM334.316 57.7054L340.654 57.4263C342.823 57.3752 345.016 57.2722 347.219 57.2812C347.34 57.2824 347.456 57.3308 347.542 57.4161C347.628 57.5014 347.676 57.6167 347.677 57.7372C347.702 60.2624 347.699 62.7877 347.65 65.313C347.627 67.8382 347.559 70.3635 347.465 72.8887V72.906C347.464 72.937 347.457 72.9676 347.444 72.9958C347.431 73.0241 347.412 73.0495 347.389 73.0707C347.366 73.0919 347.34 73.1084 347.31 73.1192C347.281 73.1301 347.25 73.1351 347.219 73.1339C345.074 73.063 342.929 73.0138 340.783 73.0352C338.638 73.0448 336.494 73.1508 334.348 73.2224C334.306 73.2238 334.263 73.2169 334.224 73.202C334.184 73.1871 334.147 73.1646 334.116 73.1357C334.085 73.1068 334.06 73.0721 334.042 73.0336C334.025 72.9951 334.015 72.9535 334.014 72.9112L334.013 72.8887C333.917 70.3207 333.957 67.7286 334.021 65.1782C334.079 62.6242 334.19 60.1119 334.316 57.7054ZM325.534 77.3695C325.66 80.0135 325.771 82.5518 325.829 85.0483C325.894 87.5484 325.933 90.0069 325.838 92.4895L325.502 92.1561C327.647 92.2277 329.792 92.3337 331.937 92.3433C334.082 92.3647 336.227 92.3154 338.372 92.2445L338.126 92.4895C338.032 89.9642 337.964 87.4389 337.941 84.9138C337.892 82.3885 337.889 79.8632 337.914 77.3381L338.372 77.7937C336.285 77.8028 334.188 77.6997 332.067 77.6485L325.534 77.3695ZM325.47 77.3061L331.808 77.027C333.976 76.9758 336.17 76.8729 338.372 76.8819C338.494 76.8831 338.61 76.9315 338.696 77.0168C338.781 77.1021 338.83 77.2174 338.831 77.3379C338.856 79.8631 338.853 82.3884 338.804 84.9137C338.781 87.4388 338.713 89.9642 338.619 92.4894V92.5066C338.618 92.5376 338.61 92.5682 338.597 92.5964C338.584 92.6247 338.566 92.6502 338.543 92.6714C338.52 92.6926 338.493 92.7091 338.464 92.7199C338.435 92.7308 338.404 92.7358 338.372 92.7347C336.227 92.6638 334.082 92.6145 331.937 92.6358C329.792 92.6455 327.647 92.7516 325.502 92.8231C325.46 92.8245 325.417 92.8176 325.377 92.8027C325.338 92.7878 325.301 92.7653 325.27 92.7364C325.239 92.7075 325.214 92.6728 325.196 92.6342C325.179 92.5957 325.169 92.5541 325.167 92.5118L325.166 92.4895C325.071 89.9213 325.111 87.3293 325.175 84.7789C325.233 82.2249 325.344 79.7125 325.47 77.3061Z" fill="white"/>
<path d="M331.884 85.787C332.196 85.7853 332.501 85.6963 332.764 85.5302C333.028 85.364 333.239 85.1275 333.373 84.8478C333.593 84.3598 333.742 83.8436 333.817 83.3144C333.885 83.0314 333.894 82.7374 333.842 82.4511C333.79 82.1647 333.679 81.8922 333.516 81.6506C333.316 81.4252 333.059 81.2576 332.772 81.1654C332.485 81.0732 332.178 81.0599 331.884 81.127C331.359 81.2324 330.885 81.511 330.54 81.9175C330.251 82.3269 330.097 82.8156 330.099 83.3159C330.087 83.8389 330.192 84.3581 330.408 84.8355C330.539 85.116 330.747 85.3542 331.008 85.5225C331.269 85.6908 331.572 85.7825 331.884 85.787ZM331.884 85.9137C331.151 85.9588 330.422 85.781 329.793 85.4041C329.463 85.1642 329.195 84.8496 329.012 84.4864C328.828 84.1232 328.735 83.7218 328.739 83.3155C328.732 82.904 328.811 82.4956 328.97 82.1155C329.128 81.7354 329.364 81.3917 329.661 81.1055C329.952 80.827 330.305 80.6209 330.691 80.504C331.078 80.3871 331.486 80.3628 331.884 80.433C332.609 80.5446 333.283 80.8714 333.818 81.3705C334.393 81.8733 334.768 82.5623 334.879 83.3147C334.925 83.7105 334.864 84.1113 334.702 84.476C334.541 84.8406 334.284 85.156 333.96 85.3897C333.337 85.7682 332.613 85.9509 331.884 85.9137Z" fill="white"/>
<path d="M336.011 92.5338C334.679 92.7557 333.335 92.9045 331.986 92.9796C331.263 93.0111 330.533 93.0484 329.794 93.0294C329.054 93.0125 328.315 92.9162 327.598 92.8494L327.525 92.8426C327.483 92.8387 327.442 92.8266 327.404 92.807C327.367 92.7875 327.334 92.7608 327.307 92.7285C327.28 92.6963 327.26 92.659 327.248 92.619C327.235 92.579 327.231 92.5369 327.235 92.4952V92.4895C327.338 91.7172 327.395 90.9396 327.406 90.1607C327.355 89.3476 327.471 88.5327 327.747 87.7655C328.072 86.9389 328.637 86.2273 329.371 85.7215C330.105 85.2156 330.974 84.9386 331.867 84.9256C332.76 84.9127 333.636 85.1644 334.385 85.6488C335.133 86.1331 335.719 86.828 336.068 87.6448C336.405 88.4551 336.504 89.3438 336.354 90.2077C336.267 91.0604 336.123 91.8546 336.011 92.5338ZM335.922 92.4452L335.579 90.1139C335.542 89.4257 335.352 88.7541 335.024 88.1473C334.687 87.5791 334.216 87.1014 333.651 86.7558C333.086 86.4103 332.444 86.2074 331.782 86.1649C331.087 86.1474 330.4 86.3099 329.788 86.6362C329.175 86.9626 328.659 87.4416 328.289 88.0263C327.902 88.6683 327.727 89.4148 327.79 90.1607C327.801 90.9396 327.857 91.7172 327.96 92.4895L327.598 92.1295C328.275 92.0628 328.931 91.9666 329.586 91.9497C330.242 91.9307 330.906 91.968 331.578 91.9995C332.927 92.0804 334.334 92.2422 335.922 92.4452ZM343.985 77.3694C344.111 80.0135 344.222 82.5517 344.28 85.0483C344.344 87.5484 344.384 90.0068 344.288 92.4895L343.953 92.156C346.098 92.2276 348.243 92.3336 350.388 92.3432C352.533 92.3646 354.678 92.3154 356.823 92.2445L356.577 92.4895C356.483 89.9642 356.415 87.4388 356.392 84.9137C356.342 82.3884 356.339 79.8631 356.365 77.338L356.823 77.7937C354.736 77.8027 352.639 77.6996 350.518 77.6484L343.985 77.3694ZM343.921 77.306L350.259 77.0269C352.427 76.9757 354.62 76.8728 356.823 76.8818C356.945 76.883 357.061 76.9315 357.146 77.0167C357.232 77.102 357.281 77.2173 357.282 77.3379C357.307 79.863 357.304 82.3884 357.255 84.9137C357.231 87.4388 357.164 89.9641 357.07 92.4894L357.069 92.5065C357.068 92.5376 357.061 92.5681 357.048 92.5964C357.035 92.6247 357.017 92.6501 356.994 92.6713C356.971 92.6925 356.944 92.709 356.915 92.7199C356.886 92.7307 356.854 92.7357 356.823 92.7346C354.678 92.6638 352.533 92.6145 350.388 92.6357C348.243 92.6455 346.098 92.7515 343.953 92.8231C343.91 92.8245 343.868 92.8175 343.828 92.8027C343.788 92.7878 343.752 92.7652 343.721 92.7363C343.69 92.7074 343.665 92.6727 343.647 92.6342C343.629 92.5956 343.62 92.554 343.618 92.5117L343.617 92.4895C343.522 89.9213 343.561 87.3293 343.626 84.7789C343.684 82.2248 343.795 79.7124 343.921 77.306ZM362.622 77.3694C362.749 80.0135 362.86 82.5517 362.918 85.0483C362.982 87.5484 363.022 90.0068 362.926 92.4895L362.591 92.156C364.736 92.2276 366.881 92.3336 369.026 92.3432C371.171 92.3646 373.316 92.3154 375.461 92.2445L375.214 92.4895C375.121 89.9642 375.053 87.4388 375.029 84.9137C374.98 82.3884 374.977 79.8631 375.002 77.338L375.461 77.7937C373.373 77.8027 371.277 77.6996 369.155 77.6484L362.622 77.3694ZM362.559 77.306L368.896 77.0269C371.065 76.9757 373.258 76.8728 375.461 76.8818C375.582 76.883 375.698 76.9314 375.784 77.0167C375.87 77.102 375.919 77.2173 375.92 77.3379C375.945 79.863 375.942 82.3884 375.893 84.9137C375.869 87.4388 375.801 89.9641 375.708 92.4894L375.707 92.5065C375.706 92.5376 375.699 92.5681 375.686 92.5964C375.673 92.6247 375.654 92.6502 375.632 92.6713C375.609 92.6925 375.582 92.709 375.552 92.7199C375.523 92.7307 375.492 92.7358 375.461 92.7346C373.316 92.6638 371.171 92.6145 369.026 92.6357C366.881 92.6455 364.736 92.7515 362.591 92.8231C362.548 92.8245 362.506 92.8175 362.466 92.8027C362.426 92.7878 362.389 92.7652 362.358 92.7363C362.327 92.7074 362.302 92.6727 362.285 92.6342C362.267 92.5956 362.257 92.554 362.256 92.5117L362.255 92.4895C362.159 89.9213 362.199 87.3293 362.263 84.7789C362.321 82.2248 362.433 79.7124 362.559 77.306Z" fill="white"/>
<path d="M368.971 85.7871C369.283 85.7854 369.589 85.6964 369.852 85.5303C370.116 85.3642 370.327 85.1277 370.461 84.8478C370.681 84.3599 370.83 83.8437 370.905 83.3144C370.973 83.0315 370.982 82.7375 370.93 82.4512C370.878 82.1648 370.767 81.8922 370.603 81.6507C370.404 81.4253 370.147 81.2576 369.86 81.1655C369.573 81.0733 369.266 81.06 368.971 81.1271C368.447 81.2325 367.973 81.5111 367.628 81.9176C367.338 82.3269 367.184 82.8157 367.187 83.316C367.175 83.839 367.28 84.3582 367.495 84.8356C367.626 85.1161 367.834 85.3542 368.095 85.5225C368.357 85.6909 368.66 85.7825 368.971 85.7871ZM368.971 85.9138C368.239 85.9589 367.509 85.7811 366.881 85.4042C366.551 85.1643 366.283 84.8497 366.1 84.4865C365.916 84.1232 365.823 83.7219 365.827 83.3156C365.82 82.9041 365.899 82.4957 366.058 82.1156C366.216 81.7355 366.452 81.3918 366.749 81.1055C367.04 80.8271 367.393 80.621 367.779 80.5041C368.165 80.3872 368.574 80.3629 368.971 80.4331C369.697 80.5446 370.371 80.8714 370.906 81.3706C371.48 81.8734 371.856 82.5624 371.967 83.3148C372.013 83.7106 371.952 84.1114 371.79 84.476C371.629 84.8407 371.372 85.1561 371.048 85.3898C370.424 85.7683 369.701 85.951 368.971 85.9138Z" fill="white"/>
<path d="M373.098 92.5338C371.766 92.7557 370.422 92.9045 369.073 92.9796C368.35 93.0111 367.62 93.0484 366.88 93.0294C366.141 93.0125 365.402 92.9162 364.685 92.8494L364.612 92.8425C364.57 92.8387 364.529 92.8266 364.491 92.807C364.454 92.7875 364.421 92.7608 364.394 92.7285C364.367 92.6963 364.347 92.6591 364.335 92.619C364.322 92.579 364.318 92.5369 364.322 92.4952V92.4895C364.425 91.7172 364.482 90.9396 364.493 90.1607C364.442 89.3476 364.558 88.5327 364.834 87.7655C365.159 86.9389 365.725 86.2273 366.458 85.7215C367.192 85.2156 368.061 84.9386 368.954 84.9256C369.847 84.9127 370.724 85.1644 371.472 85.6488C372.22 86.1331 372.806 86.828 373.155 87.6448C373.492 88.4551 373.591 89.3438 373.441 90.2077C373.354 91.0604 373.21 91.8546 373.098 92.5338ZM373.009 92.4452L372.666 90.1139C372.629 89.4257 372.44 88.7541 372.111 88.1473C371.774 87.5791 371.303 87.1014 370.738 86.7558C370.173 86.4103 369.531 86.2074 368.869 86.1649C368.174 86.1474 367.487 86.3099 366.875 86.6362C366.262 86.9626 365.746 87.4416 365.376 88.0263C364.989 88.6683 364.814 89.4148 364.877 90.1607C364.888 90.9396 364.944 91.7172 365.047 92.4894L364.685 92.1295C365.362 92.0628 366.018 91.9665 366.673 91.9497C367.329 91.9307 367.993 91.9679 368.665 91.9995C370.014 92.0804 371.421 92.2422 373.009 92.4452Z" fill="white"/>
<path d="M270.786 128.023L270.538 129.427L271.952 129.674L272.2 128.269L270.786 128.023Z" fill="white"/>
<path d="M322.626 138.481L319.81 137.992L320.057 136.588L322.872 137.077L322.626 138.481ZM316.994 137.503L314.179 137.014L314.426 135.61L317.241 136.099L316.994 137.503ZM311.364 136.525L308.549 136.036L308.796 134.632L311.611 135.121L311.364 136.525ZM305.733 135.547L302.918 135.057L303.166 133.653L305.981 134.143L305.733 135.547ZM300.103 134.568L297.288 134.079L297.535 132.675L300.35 133.164L300.103 134.568ZM294.473 133.59L291.658 133.101L291.904 131.697L294.719 132.186L294.473 133.59ZM288.842 132.612L286.026 132.123L286.273 130.719L289.088 131.208L288.842 132.612ZM283.211 131.633L280.396 131.144L280.643 129.74L283.458 130.229L283.211 131.633ZM277.581 130.655L274.766 130.166L275.012 128.762L277.828 129.251L277.581 130.655Z" fill="white"/>
<path d="M325.69 137.561L325.441 138.966L326.855 139.213L327.104 137.808L325.69 137.561Z" fill="white"/>
<path d="M266.158 132.921L265.857 134.319L267.261 134.617L267.562 133.219L266.158 132.921Z" fill="white"/>
<path d="M316.502 145.039L313.767 144.46L314.067 143.064L316.802 143.644L316.502 145.039ZM311.032 143.882L308.296 143.302L308.595 141.906L311.331 142.486L311.032 143.882ZM305.561 142.723L302.826 142.145L303.124 140.749L305.86 141.327L305.561 142.723ZM300.089 141.565L297.354 140.986L297.654 139.59L300.389 140.169L300.089 141.565ZM294.618 140.406L291.883 139.828L292.182 138.432L294.917 139.01L294.618 140.406ZM289.148 139.249L286.412 138.669L286.71 137.273L289.446 137.853L289.148 139.249ZM283.676 138.091L280.941 137.512L281.241 136.116L283.976 136.695L283.676 138.091ZM278.205 136.932L275.469 136.353L275.769 134.957L278.505 135.536L278.205 136.932ZM272.733 135.775L269.998 135.195L270.298 133.799L273.033 134.379L272.733 135.775Z" fill="white"/>
<path d="M319.54 144.219L319.239 145.616L320.643 145.914L320.944 144.517L319.54 144.219Z" fill="white"/>
<path d="M270.58 141.145C273.032 141.283 275.462 141.69 277.825 142.358C280.204 142.965 282.508 143.833 284.694 144.947C282.241 144.811 279.811 144.404 277.449 143.734C275.071 143.124 272.767 142.256 270.58 141.145Z" fill="white"/>
</svg>
