<svg width="550" height="618" viewBox="0 0 550 618" fill="none" xmlns="http://www.w3.org/2000/svg">
<path d="M67.1964 267.281C67.7471 271.733 68.926 276.083 70.6978 280.203C69.027 276.049 67.8517 271.711 67.1964 267.281ZM204.888 329.2C207.695 326.867 209.787 323.786 210.922 320.313C211.891 317.215 212.095 313.827 209.409 312.09C203.681 308.379 188.503 319.19 185.121 325.268C181.755 331.345 168.6 347.57 173.648 371.881C178.713 396.21 197.596 416.146 197.596 416.146C197.596 416.146 199.263 417.865 201.778 420.674L209.189 400.109C204.158 394.439 200.061 389.774 198.957 388.446C195.693 384.514 176.249 353.273 204.888 329.2ZM153.422 394.865C153.422 394.865 134.521 379.321 114.635 369.855C100.527 363.148 93.5416 352.541 94.867 344.165C95.2588 341.975 96.2496 339.937 97.729 338.278C99.2085 336.619 101.119 335.404 103.247 334.767C108.941 332.945 122.436 326.629 121.043 307.698L120.787 301.705C117.829 301.623 114.928 300.873 112.3 299.511C109.672 298.149 107.385 296.21 105.61 293.839C99.5411 285.736 88.918 281.684 72.4656 283.965L63.865 279.147C63.865 279.147 63.2359 263.655 66.7034 262.157C66.6528 260.999 66.6359 259.824 66.6528 258.632C66.6528 258.632 59.0548 260.318 60.3295 275.946C60.3295 275.946 57.2871 274.244 54.5848 256.691C54.5848 256.691 41.4288 260.403 45.151 286.077C46.3032 291.225 46.0747 296.588 44.4887 301.62C44.4887 301.62 39.0834 324.927 34.6981 338.444C30.3128 351.962 21.3728 384.82 42.619 447.148L53.5823 482.372C53.5823 482.372 58.9702 520.542 50.5398 527.981C50.5398 527.981 37.7242 529.48 42.4488 539.541C42.6801 540.042 42.99 540.501 43.3667 540.903C43.0104 540.278 42.8012 539.579 42.755 538.86C42.6959 538.15 42.7651 537.435 42.9592 536.749C43.1551 536.006 43.5554 535.334 44.1145 534.808C44.3837 534.527 44.7198 534.318 45.0913 534.202C45.4629 534.086 45.8578 534.066 46.2391 534.144C45.7789 534.558 45.4085 535.062 45.151 535.625C44.921 536.143 44.7336 536.678 44.5908 537.226C44.2675 538.478 43.8585 539.707 43.3667 540.903C44.5568 542.231 47.1064 543.934 51.8991 542.844L52.4087 542.793C51.6444 541.465 51.3452 539.919 51.5589 538.401C51.6656 537.617 51.9317 536.864 52.3407 536.187C52.5321 535.818 52.8161 535.504 53.1648 535.277C53.5135 535.05 53.915 534.918 54.3301 534.894C53.9317 535.438 53.6639 536.067 53.5474 536.732C53.4287 537.345 53.3267 537.975 53.242 538.639C53.1043 540.048 52.8251 541.44 52.4087 542.793L55.2645 542.538C55.1062 541.497 55.1348 540.436 55.3492 539.405C55.5973 538.36 56.0929 537.391 56.7941 536.579C57.4952 535.75 58.3569 535.073 59.327 534.587C60.2726 534.213 61.1643 533.715 61.9787 533.106C63.6118 531.924 64.9497 530.38 65.8876 528.594C66.6765 526.709 67.2412 524.738 67.5699 522.721C69.3579 514.612 70.5117 506.375 71.0207 498.086C71.7004 489.795 71.8191 481.47 71.7344 473.145C71.7178 468.974 71.5817 464.819 71.3941 460.649C71.2589 456.477 70.9866 452.323 70.6978 448.152C71.9383 456.422 72.7212 464.754 73.0431 473.111C73.3857 481.475 73.278 489.852 72.7203 498.205C72.1448 506.576 70.848 514.881 68.8445 523.028C68.4161 525.12 67.7431 527.154 66.8394 529.088C65.7677 530.973 64.2718 532.582 62.4707 533.787C61.5753 534.371 60.6103 534.84 59.5983 535.183C58.6714 535.572 57.833 536.145 57.1343 536.869C56.4347 537.624 55.9057 538.521 55.583 539.499C55.2604 540.478 55.1518 541.514 55.2645 542.538C55.2645 542.538 55.8421 544.496 59.1734 545.602C58.6116 544.108 58.5461 542.472 58.9866 540.938C59.2153 540.126 59.6219 539.376 60.1768 538.741C60.4533 538.379 60.8429 538.121 61.2833 538.007C61.7238 537.893 62.1898 537.929 62.6068 538.112C62.2949 538.232 62.0132 538.42 61.7812 538.661C61.5493 538.902 61.3728 539.191 61.264 539.507C61.0066 540.12 60.7966 540.752 60.6358 541.397C60.2749 542.84 59.7854 544.247 59.1734 545.602C61.7842 546.35 64.5207 546.553 67.213 546.198C66.6533 545.599 66.3017 544.835 66.2104 544.019C66.1133 543.201 66.1885 542.371 66.4311 541.584C66.6781 540.817 67.0846 540.111 67.6237 539.512C68.1629 538.914 68.8225 538.436 69.5591 538.112C69.3209 538.895 69.0147 539.559 68.7599 540.206C68.5051 540.869 68.2503 541.483 68.0462 542.112C67.6212 543.439 67.3475 544.81 67.2303 546.198C69.5047 545.994 71.7604 545.618 73.9784 545.075C73.9784 545.075 81.5756 544.189 82.3408 527.726C83.7202 520.13 86.0085 512.727 89.1562 505.679L94.476 487.565C95.2072 482.236 96.3458 477.044 97.4845 471.851L99.2522 464.087C99.7966 461.483 100.476 458.929 100.799 456.273C101.06 458.957 100.98 461.663 100.561 464.326C100.221 466.982 99.6945 469.604 99.1335 472.225C97.9956 477.456 96.4382 482.586 94.476 487.565C94.476 487.565 95.2411 501.882 109.518 517.205C107.589 508.897 106.496 500.416 106.255 491.889C105.973 483.282 107.245 474.694 110.011 466.539C112.942 458.325 118.43 451.271 125.666 446.416C132.95 441.777 141.507 439.549 150.124 440.049C145.896 440.138 141.702 440.826 137.665 442.092C133.651 443.299 129.849 445.125 126.397 447.505C122.977 449.888 119.958 452.801 117.456 456.137C114.997 459.507 113.028 463.21 111.609 467.135C108.844 475.091 107.475 483.466 107.564 491.889C107.522 496.117 107.692 500.345 108.074 504.556C108.295 506.667 108.414 508.795 108.703 510.889L109.518 517.205C109.518 517.205 106.119 523.674 94.9865 524.168C94.9865 524.168 88.1537 524.815 87.3885 533.43C87.3885 533.43 87.0151 538.316 98.1477 539.542C98.1477 539.542 109.909 541.823 116.997 537.771L123.728 538.112H126.227C124.362 533.631 123.281 528.863 123.031 524.015C122.51 515.266 123.965 506.511 127.287 498.403C130.609 490.294 135.714 483.04 142.221 477.18C160.611 460.411 180.056 460.717 185.58 461.194C182.673 438.159 174.293 412.435 153.422 394.865ZM54.8902 275.351C54.8902 275.351 54.0072 276.866 55.2645 280.424C55.2645 280.424 44.3867 277.632 53.7515 260.148C53.7515 260.148 55.2645 273.069 59.82 279.147C57.9649 278.185 56.2956 276.899 54.8902 275.351ZM99.0315 302.71C88.918 305.246 87.1337 296.376 87.1337 296.376C97.7568 295.627 99.0315 302.71 99.0315 302.71ZM61.0773 314.372C67.1237 312.91 73.2807 311.953 79.4851 311.511C82.5889 311.264 85.7034 311.179 88.816 311.256C91.9532 311.221 95.0701 311.763 98.0115 312.857C96.5011 312.557 94.9622 312.425 93.4229 312.465C91.8925 312.447 90.3629 312.533 88.816 312.584C85.7568 312.737 82.6803 312.975 79.6038 313.197C73.4515 313.657 67.2985 314.184 61.0773 314.372ZM66.6528 325.778C68.7388 323.883 71.0508 322.253 73.5362 320.926C76.0207 319.576 78.6272 318.465 81.3209 317.607C84.0136 316.742 86.7871 316.155 89.5986 315.852C92.3945 315.532 95.2183 315.543 98.0115 315.887C95.2247 316.261 92.4876 316.585 89.8019 317.163C87.1052 317.693 84.4431 318.387 81.8305 319.241C79.2078 320.058 76.6317 321.019 74.1139 322.118C71.5983 323.224 69.1002 324.399 66.6528 325.778ZM87.0151 325.642C83.1053 328.281 79.281 331.039 75.2533 333.627C78.4558 330.06 82.0867 326.903 86.0631 324.229C89.9761 321.425 94.3728 319.371 99.0316 318.168C94.8329 320.467 90.9074 322.986 87.0151 325.642Z" fill="white"/>
<path d="M66.7123 262.146C66.7123 262.146 66.7123 262.202 66.719 262.299C66.7123 262.25 66.7123 262.202 66.7051 262.153L66.7123 262.146Z" fill="white"/>
<path d="M93.0842 296.926C93.5649 297.321 93.9403 297.829 94.1767 298.405C94.3843 298.87 94.4908 299.374 94.4892 299.884C94.4937 300.393 94.3885 300.898 94.1809 301.363C93.9443 301.94 93.5673 302.448 93.0842 302.842C92.6012 302.448 92.2242 301.94 91.9874 301.363C91.7799 300.898 91.6749 300.393 91.6795 299.884C91.6779 299.374 91.7844 298.87 91.992 298.405C92.2283 297.829 92.6036 297.321 93.0842 296.926ZM66.7049 262.153C66.8846 264.011 67.1362 265.853 67.4597 267.677C67.7817 269.502 68.1423 271.321 68.6324 273.106C69.0686 274.905 69.6001 276.679 70.2247 278.422C70.8052 280.184 71.5521 281.88 72.2708 283.606C70.3109 280.406 68.8543 276.923 67.9523 273.279C67.0007 269.651 66.5805 265.903 66.7049 262.153ZM265.473 294.309C266.807 291.101 268.675 288.142 270.997 285.558C273.31 282.888 276.142 280.717 279.32 279.178C280.929 278.416 282.625 277.854 284.37 277.504C286.117 277.188 287.897 277.096 289.667 277.23C293.144 277.548 296.538 278.481 299.69 279.985C302.859 281.355 305.842 283.123 308.566 285.247C311.341 287.373 313.729 289.962 315.627 292.9C317.602 295.886 318.823 299.309 319.186 302.872C319.531 306.585 318.412 310.286 316.067 313.183L316.046 313.21C315.988 313.285 315.918 313.35 315.838 313.402C313.614 314.939 310.971 315.753 308.269 315.732C306.865 315.639 305.512 315.166 304.355 314.363C303.254 313.566 302.342 312.535 301.685 311.345C301.127 310.31 300.478 309.328 299.745 308.409C298.968 307.519 298.12 306.603 297.29 305.721C296.447 304.842 295.608 303.958 294.739 303.109C294.301 302.688 293.857 302.273 293.39 301.893C293.161 301.703 292.921 301.525 292.673 301.361C292.443 301.212 292.123 301.045 291.968 301.138L291.931 301.16C291.909 301.174 291.882 301.178 291.857 301.172C291.831 301.166 291.809 301.15 291.795 301.128C291.781 301.106 291.776 301.079 291.781 301.053C291.786 301.028 291.801 301.005 291.823 300.99C292.216 300.724 292.549 300.965 292.834 301.057C293.121 301.187 293.398 301.339 293.663 301.51C294.192 301.844 294.693 302.21 295.187 302.583C296.175 303.329 297.123 304.122 298.041 304.943C298.967 305.769 299.861 306.576 300.776 307.455C301.667 308.371 302.448 309.388 303.104 310.484C303.635 311.421 304.396 312.206 305.315 312.764C306.234 313.323 307.281 313.636 308.355 313.675C310.578 313.59 312.731 312.869 314.557 311.595L314.329 311.813C316.335 309.329 317.35 306.189 317.18 302.998C316.912 299.722 315.917 296.547 314.268 293.705C311.01 287.73 305.751 283.099 299.418 280.629C296.306 279.366 292.978 278.719 289.62 278.726C286.332 278.777 283.089 279.494 280.085 280.835C274.072 283.868 269.062 288.578 265.66 294.397C265.654 294.409 265.645 294.42 265.635 294.429C265.624 294.437 265.612 294.444 265.599 294.448C265.586 294.452 265.572 294.453 265.559 294.452C265.545 294.45 265.532 294.446 265.52 294.44C265.499 294.427 265.482 294.407 265.474 294.383C265.465 294.359 265.465 294.333 265.473 294.309Z" fill="white"/>
<path d="M367.192 290.977C363.446 291.631 359.834 292.903 356.503 294.741C353.106 296.458 349.825 298.4 346.586 300.403C340.091 304.388 333.807 308.719 327.613 313.168C321.421 317.621 315.295 322.168 309.235 326.807C303.176 331.443 297.208 336.21 291.27 340.986L291.262 340.993C291.127 341.101 290.965 341.169 290.793 341.189C290.621 341.209 290.448 341.179 290.292 341.104C290.136 341.029 290.005 340.911 289.914 340.765C289.822 340.618 289.774 340.448 289.775 340.275L289.859 319.303L290.083 298.33L290.526 298.916L285.072 297.461C283.255 296.966 281.399 296.657 279.563 296.245C277.728 295.815 275.853 295.648 273.998 295.336C272.136 295.077 270.256 295.005 268.384 294.862C264.639 294.701 260.89 295.037 257.233 295.863C256.325 296.073 255.433 296.351 254.566 296.694C253.693 297.011 252.845 297.396 252.03 297.844C250.403 298.691 249.013 299.933 247.988 301.456L248.02 301.35C247.25 308.643 246.631 315.953 246.163 323.281C245.68 330.609 245.416 337.923 245.431 345.262C245.395 359.933 245.766 374.614 246.165 389.281L246.158 389.187C246.45 390.6 246.96 391.958 247.67 393.214C248.039 393.846 248.455 394.45 248.916 395.02L249.611 395.869C249.866 396.132 250.145 396.371 250.409 396.623C252.632 398.588 255.308 399.968 258.195 400.639C264.205 401.722 270.379 401.466 276.279 399.89C279.259 399.213 282.301 398.406 285.333 397.601L294.456 395.363L312.744 391.174C324.932 388.41 337.151 385.819 349.196 382.569C352.221 381.803 355.191 380.865 358.192 380.017C361.144 379.034 364.145 378.17 367.043 377.039C372.938 375.084 378.536 372.323 383.677 368.834L383.691 368.823C383.782 368.757 383.894 368.73 384.005 368.748C384.115 368.765 384.214 368.826 384.28 368.916C384.334 368.99 384.363 369.08 384.361 369.171L384.039 388.932C384.039 388.959 384.028 388.985 384.008 389.004C383.989 389.023 383.963 389.034 383.936 389.034C383.909 389.034 383.883 389.023 383.863 389.004C383.844 388.985 383.833 388.959 383.833 388.932L383.511 369.171L384.195 369.508C379.063 373.184 373.431 376.104 367.471 378.179C364.563 379.373 361.566 380.293 358.606 381.335C355.608 382.24 352.631 383.237 349.61 384.059C337.561 387.487 325.394 390.448 313.206 393.216L294.954 397.453L285.874 399.709C282.867 400.511 279.875 401.336 276.756 402.029C270.528 403.634 264.022 403.838 257.705 402.626C254.49 401.849 251.519 400.281 249.062 398.064C246.577 395.777 244.898 392.746 244.274 389.424L244.267 389.362V389.328C244.113 381.98 244.087 374.636 244.059 367.29C244.047 359.943 244.079 352.596 244.223 345.248C244.327 337.901 244.731 330.54 245.343 323.223C245.919 315.898 246.543 308.581 247.375 301.276L247.379 301.246C247.382 301.219 247.392 301.192 247.407 301.169C249.654 297.782 253.424 296.203 257.062 295.201C260.778 294.326 264.594 293.948 268.409 294.08C272.206 294.244 275.989 294.649 279.735 295.293C281.595 295.667 283.48 295.94 285.322 296.398L290.855 297.744C290.98 297.774 291.092 297.846 291.172 297.947C291.253 298.048 291.297 298.173 291.299 298.303V298.33L291.523 319.303L291.607 340.275L290.111 339.565C296.037 334.712 302.107 330.067 308.203 325.447C314.315 320.852 320.467 316.303 326.771 311.967C333.074 307.633 339.466 303.418 346.075 299.548C349.392 297.635 352.762 295.808 356.24 294.195C359.672 292.455 363.368 291.297 367.179 290.77C367.206 290.768 367.232 290.776 367.253 290.793C367.274 290.81 367.287 290.835 367.29 290.862C367.293 290.889 367.285 290.916 367.269 290.937C367.252 290.958 367.228 290.972 367.201 290.976L367.192 290.977Z" fill="white"/>
<path d="M308.47 265.482L313.758 278.017L318.899 290.61L318.307 290.152C322.986 290.478 327.687 290.082 332.246 288.98C336.778 287.934 341.002 285.838 344.579 282.861C348.059 279.792 350.586 275.786 351.861 271.321C353.134 266.784 353.605 262.059 353.251 257.359L353.249 257.318L353.252 257.272C353.484 256.266 353.985 255.342 354.702 254.6C355.419 253.857 356.324 253.325 357.321 253.059C359.162 252.532 361.082 252.329 362.993 252.46C366.739 252.494 370.477 252.817 374.174 253.427C385.347 255.231 395.89 259.809 404.842 266.744L409.136 270.422C409.858 271.027 410.534 271.687 411.156 272.395L413.097 274.453C415.677 277.207 418.052 280.146 420.204 283.247C421.325 284.765 422.188 286.45 423.193 288.045C424.131 289.679 425.21 291.241 426.031 292.935L428.459 298.038C429.321 299.713 430.083 301.438 430.742 303.203C431.991 306.748 433.337 310.283 434.503 313.835L441.322 335.148C443.619 342.244 446.058 349.29 448.566 356.309C449.839 359.81 451.166 363.294 452.584 366.735C453.293 368.457 454.021 370.172 454.833 371.844C455.548 373.538 456.507 375.118 457.681 376.533L457.732 376.585C457.749 376.603 457.758 376.627 457.758 376.652C457.759 376.677 457.749 376.701 457.732 376.718C457.715 376.736 457.691 376.747 457.667 376.748C457.642 376.749 457.618 376.74 457.599 376.723C456.289 375.354 455.203 373.786 454.381 372.078C453.473 370.438 452.648 368.756 451.844 367.065C450.218 363.69 448.809 360.224 447.385 356.765C444.564 349.837 442.008 342.808 439.535 335.755C437.029 328.712 434.743 321.597 432.464 314.481C431.284 310.946 429.951 307.509 428.705 304.018C428.068 302.282 427.338 300.583 426.517 298.926L424.2 293.888C423.415 292.214 422.378 290.678 421.48 289.066C420.517 287.493 419.692 285.825 418.616 284.329L415.358 279.856C414.3 278.344 413.128 276.916 411.852 275.585L410.009 273.519C409.42 272.808 408.777 272.144 408.086 271.533L403.982 267.815C401.12 265.477 398.073 263.376 394.872 261.532C388.44 257.815 381.396 255.283 374.072 254.056C370.408 253.465 366.7 253.186 362.989 253.223C361.172 253.109 359.349 253.331 357.612 253.878C356.806 254.117 356.077 254.565 355.499 255.177C354.921 255.788 354.515 256.542 354.321 257.362V257.275C354.861 262.12 354.544 267.023 353.385 271.758C352.151 276.587 349.502 280.935 345.778 284.241C341.994 287.426 337.483 289.625 332.646 290.641C327.895 291.749 322.995 292.071 318.14 291.595C318.009 291.581 317.884 291.531 317.779 291.45C317.675 291.369 317.595 291.26 317.548 291.136L312.839 278.376L308.277 265.557C308.268 265.532 308.269 265.504 308.28 265.479C308.291 265.455 308.311 265.435 308.337 265.426C308.362 265.416 308.39 265.416 308.415 265.427C308.439 265.437 308.459 265.457 308.47 265.482ZM287.156 261.045C279.77 263.444 272.688 266.694 266.05 270.73C259.401 274.677 253.248 279.41 247.725 284.827C242.198 290.203 237.469 296.343 233.68 303.062C229.905 309.839 226.079 316.678 222.117 323.37C218.158 330.068 214.063 336.694 210.652 343.616C208.906 347.023 207.533 350.61 206.558 354.313C205.554 357.927 205.634 361.757 206.788 365.326C208.228 368.83 210.536 371.908 213.494 374.271C216.403 376.782 219.616 378.917 223.058 380.623C230.03 384.039 237.492 386.342 245.174 387.447C241.292 387.1 237.445 386.422 233.678 385.419C229.885 384.449 226.185 383.15 222.617 381.538C219.039 379.88 215.687 377.771 212.642 375.263C211.124 373.982 209.706 372.587 208.401 371.09C207.093 369.534 206.046 367.776 205.299 365.885C203.917 362.035 203.749 357.853 204.816 353.904C205.792 350.062 207.181 346.337 208.958 342.794C212.38 335.716 216.427 329.043 220.339 322.316C224.363 315.643 228.194 308.921 232.049 302.131C235.939 295.273 240.855 289.052 246.626 283.686C258.09 272.94 272.004 265.167 287.156 261.045Z" fill="white"/>
<path d="M217.174 348.292C218.979 346.553 220.994 345.048 223.172 343.812C225.345 342.543 227.64 341.497 230.023 340.689C232.435 339.904 234.936 339.428 237.468 339.271C240.001 339.155 242.53 339.558 244.902 340.458C242.471 340.374 240.037 340.515 237.632 340.879C235.274 341.316 232.948 341.91 230.669 342.656C228.379 343.396 226.14 344.308 223.896 345.25C221.661 346.216 219.436 347.233 217.174 348.292ZM383.936 369.171C386.662 367.018 389.211 364.722 391.729 362.397C394.226 360.049 396.664 357.645 399.042 355.183C401.428 352.726 403.741 350.197 406.046 347.647C408.354 345.098 410.595 342.484 412.971 339.936C411.292 342.984 409.394 345.905 407.292 348.676C405.198 351.458 402.939 354.112 400.527 356.623C398.1 359.127 395.509 361.465 392.771 363.623C390.054 365.814 387.089 367.677 383.936 369.171ZM375.003 287.518C378.739 286.705 382.59 286.569 386.374 287.115C390.216 287.634 393.927 288.865 397.317 290.746C399.007 291.711 400.606 292.826 402.095 294.079C403.527 295.39 404.822 296.844 405.959 298.418C406.562 299.171 407.099 299.974 407.565 300.818L408.879 303.381C409.288 304.245 409.625 305.141 409.885 306.06C410.193 306.961 410.475 307.866 410.737 308.77C409.12 305.415 407.091 302.276 404.698 299.425C403.513 298.039 402.219 296.751 400.828 295.574C399.407 294.443 397.894 293.433 396.307 292.552C393.11 290.77 389.668 289.472 386.092 288.701C382.449 287.904 378.731 287.507 375.003 287.518ZM258.745 467.939L248.169 484.084C244.645 489.467 241.088 494.826 237.496 500.161C237.413 500.285 237.299 500.385 237.167 500.452C237.034 500.519 236.886 500.55 236.737 500.543C236.588 500.535 236.444 500.49 236.318 500.41C236.193 500.331 236.089 500.22 236.019 500.089L235.988 500.032C233.431 495.449 230.276 491.228 226.606 487.479C222.942 483.692 218.971 480.215 214.735 477.084C212.553 475.607 210.437 474.033 208.143 472.727C207.007 472.059 205.908 471.33 204.743 470.712L201.243 468.871C200.091 468.231 198.894 467.677 197.685 467.149L194.08 465.523C191.644 464.515 189.154 463.632 186.696 462.679L186.667 462.667C186.334 462.538 186.064 462.284 185.914 461.959C185.764 461.634 185.746 461.263 185.864 460.925C188.3 453.943 190.888 447.016 193.403 440.063C195.929 433.113 198.453 426.163 201.069 419.245L216.607 377.686C216.664 377.534 216.779 377.411 216.926 377.344C217.074 377.277 217.242 377.271 217.393 377.328C217.427 377.341 217.46 377.357 217.492 377.375C221.742 379.892 226.206 382.027 230.833 383.754C235.427 385.551 240.268 386.633 245.189 386.962C245.311 386.968 245.426 387.019 245.512 387.107C245.597 387.194 245.645 387.311 245.647 387.434L245.648 387.469C245.735 389.154 246.206 390.796 247.024 392.27C247.847 393.778 248.897 395.151 250.137 396.339C251.381 397.54 252.748 398.607 254.215 399.522L256.478 400.809L258.838 401.924L258.849 401.929C258.946 401.975 259.028 402.048 259.086 402.138C259.144 402.228 259.176 402.333 259.177 402.441L259.98 482.874L260.179 523.091C260.273 536.497 260.263 549.902 260.223 563.308V563.317C260.221 563.584 260.153 563.847 260.025 564.082C259.193 565.528 258.01 566.74 256.584 567.606C255.279 568.419 253.866 569.045 252.388 569.465C249.588 570.257 246.705 570.715 243.797 570.828C238.15 571.055 232.494 570.813 226.887 570.103C215.802 568.65 204.807 566.577 193.953 563.895C183.099 561.329 172.369 558.31 161.706 555.103C151.037 551.911 140.458 548.441 129.971 544.695L129.961 544.692C129.912 544.674 129.868 544.643 129.836 544.602C128.289 542.647 127.026 540.483 126.083 538.173C126.068 538.136 126.067 538.093 126.083 538.056C126.098 538.018 126.127 537.988 126.164 537.971C126.202 537.955 126.244 537.954 126.282 537.969C126.32 537.983 126.35 538.012 126.367 538.049C127.381 540.28 128.704 542.357 130.298 544.218L130.163 544.126C140.776 547.434 151.476 550.466 162.187 553.415C172.91 556.329 183.687 558.999 194.518 561.427C205.308 563.904 216.227 565.776 227.225 567.035C232.662 567.687 238.142 567.9 243.612 567.671C246.267 567.561 248.9 567.139 251.456 566.412C253.792 565.893 255.845 564.508 257.203 562.535L257.006 563.308C256.966 549.902 256.956 536.497 257.049 523.091L257.249 482.874L258.052 402.441L258.39 402.957L255.969 401.789L253.638 400.439C252.113 399.472 250.694 398.346 249.404 397.081C248.1 395.809 246.998 394.344 246.139 392.736C245.247 391.101 244.751 389.277 244.691 387.414L245.15 387.921C242.639 387.758 240.143 387.405 237.685 386.865C235.244 386.294 232.836 385.586 230.474 384.743C225.758 383.039 221.202 380.919 216.86 378.407L217.744 378.096L203.256 420.034C200.867 427.034 198.386 433.999 195.907 440.966C193.416 447.928 190.999 454.917 188.431 461.852L187.599 460.099C190.105 461.097 192.64 462.026 195.12 463.084L198.794 464.785C200.025 465.338 201.243 465.917 202.419 466.585L205.984 468.507C207.17 469.152 208.292 469.911 209.448 470.607C211.783 471.97 213.943 473.605 216.162 475.144C220.499 478.383 224.519 482.026 228.171 486.023C231.885 490.007 235.046 494.474 237.569 499.303L236.062 499.174C239.76 493.911 243.482 488.665 247.227 483.435L258.489 467.763C258.513 467.73 258.548 467.708 258.588 467.701C258.628 467.694 258.669 467.703 258.703 467.726C258.736 467.749 258.759 467.784 258.767 467.824C258.775 467.864 258.767 467.906 258.745 467.939Z" fill="white"/>
<path d="M220.401 507.622C223.499 506.321 226.732 505.37 230.04 504.786C233.359 504.144 236.736 503.857 240.114 503.929C243.528 503.972 246.914 504.54 250.155 505.614C253.395 506.693 256.308 508.582 258.618 511.102C255.89 509.287 252.871 507.955 249.694 507.163C248.899 507.003 248.11 506.835 247.326 506.648L244.919 506.327C244.122 506.191 243.306 506.165 242.498 506.104C241.689 506.044 240.881 505.98 240.064 505.999C236.792 505.921 233.519 506.048 230.263 506.381C226.988 506.696 223.708 507.109 220.401 507.622ZM190.765 462.724C185.755 474.145 180.189 485.277 174.488 496.338C168.73 507.37 162.834 518.33 156.377 528.998C161.382 517.574 166.948 506.443 172.654 495.384C178.415 484.353 184.312 473.394 190.765 462.724Z" fill="white"/>
<path d="M198.316 539.935C203.192 531.426 208.574 523.268 214.096 515.204C219.667 507.176 225.361 499.233 231.579 491.652C226.708 500.164 221.32 508.319 215.796 516.38C210.221 524.405 204.531 532.351 198.316 539.935ZM183.184 582.818C190.186 582.41 197.172 581.899 204.158 581.354C203.55 584.266 202.17 586.959 200.163 589.152C200.163 589.152 85.7746 600.337 68.6581 591.382C68.6581 591.382 62.6926 576.843 73.4858 571.633C77.0719 569.897 85.0774 566.713 94.9353 562.542C97.9072 563.032 100.8 563.919 103.536 565.181C106.254 566.427 108.774 568.067 111.014 570.05C112.121 571.041 113.149 572.117 114.091 573.268C114.988 574.444 115.789 575.691 116.488 576.996C117.865 579.614 118.856 582.418 119.428 585.321L119.445 585.338C119.481 585.503 119.574 585.65 119.708 585.753C119.842 585.855 120.007 585.908 120.176 585.9L141.184 585.049L162.193 584.027C169.195 583.704 176.181 583.244 183.184 582.818Z" fill="white"/>
<path d="M198.311 539.933C163.943 556.958 156.379 529.003 156.379 529.003C151.09 533.555 145.376 537.586 139.315 541.04C140.709 541.102 142.075 541.456 143.326 542.078C144.654 542.718 145.866 543.575 146.912 544.615C147.949 545.648 148.81 546.844 149.461 548.156C150.114 549.455 150.523 550.863 150.668 552.31C149.836 551.118 149.155 549.927 148.323 548.854C147.538 547.771 146.662 546.758 145.705 545.824C144.77 544.872 143.752 544.005 142.663 543.236C141.568 542.444 140.421 541.728 139.229 541.091C136.476 542.726 133.626 544.326 130.68 545.892C131.999 545.974 133.289 546.321 134.471 546.914C137.135 548.192 139.291 550.333 140.59 552.991C141.249 554.288 141.658 555.697 141.796 557.145C140.981 555.936 140.283 554.762 139.468 553.689C138.677 552.606 137.802 551.587 136.85 550.642C135.905 549.694 134.882 548.829 133.791 548.054C132.732 547.282 131.619 546.587 130.459 545.977C127.451 547.577 124.375 549.144 121.281 550.659C122.733 550.696 124.16 551.051 125.462 551.698C128.132 552.982 130.294 555.128 131.598 557.792C132.25 559.086 132.659 560.488 132.805 561.929C131.989 560.737 131.292 559.546 130.459 558.474C129.68 557.391 128.81 556.377 127.859 555.443C126.918 554.491 125.894 553.625 124.8 552.855C123.681 552.039 122.505 551.305 121.281 550.659C112.187 555.103 102.941 559.155 94.9355 562.542C97.9645 562.824 100.936 563.547 103.757 564.688C106.606 565.813 109.257 567.388 111.61 569.352C112.795 570.338 113.898 571.42 114.907 572.587C115.885 573.787 116.766 575.062 117.542 576.4C118.985 578.901 120.044 581.604 120.686 584.419L141.117 583.381L162.125 582.513C169.127 582.189 176.13 582.002 183.133 581.798C190.136 581.576 197.155 581.457 204.158 581.355C207.998 565.691 198.311 539.933 198.311 539.933ZM182.435 570.901C175.858 570.901 175.874 560.686 182.435 560.686C189.013 560.686 188.996 570.901 182.435 570.901Z" fill="white"/>
<path d="M130.645 545.892C130.577 545.926 130.525 545.943 130.457 545.977C130.39 545.943 130.339 545.909 130.271 545.875C130.396 545.872 130.521 545.878 130.645 545.892ZM139.314 541.039C139.28 541.057 139.263 541.073 139.229 541.091C139.195 541.074 139.178 541.057 139.144 541.039H139.314Z" fill="white"/>
<path d="M258.618 402.443C258.618 402.443 245.217 408.693 301.797 414.659L491.39 384.334L461.611 372.9L258.618 402.443Z" fill="white"/>
<path d="M258.773 402.443C259.081 417.049 259.35 431.655 259.483 446.262C259.641 460.868 259.825 475.474 259.85 490.08C259.891 504.686 260.031 519.292 259.991 533.898C259.942 548.504 259.916 563.11 259.707 577.716L258.99 576.692L289.633 588.231C299.835 592.113 310.102 595.811 320.334 599.611L320.056 599.592C328.508 597.871 336.933 596.018 345.365 594.206L370.647 588.696L421.175 577.504C438.016 573.767 454.859 570.038 471.726 566.422C488.592 562.802 505.434 559.066 522.32 555.541L521.035 557.301C519.557 542.72 517.906 528.146 516.082 513.58C514.273 499.023 512.457 484.465 510.327 469.954C508.181 455.447 505.951 440.947 503.161 426.557C501.751 419.366 500.241 412.193 498.462 405.088C496.843 397.947 494.426 391.011 491.256 384.412L491.251 384.403C491.233 384.367 491.229 384.325 491.241 384.286C491.252 384.247 491.279 384.214 491.315 384.195C491.351 384.175 491.393 384.171 491.432 384.182C491.471 384.193 491.504 384.219 491.524 384.255C494.942 390.784 497.613 397.679 499.487 404.808C501.545 411.874 503.245 419.033 504.814 426.215C507.956 440.58 510.563 455.052 512.868 469.565C515.176 484.077 517.323 498.615 519.182 513.189C521.034 527.766 522.734 542.362 524.28 556.976C524.322 557.373 524.216 557.772 523.983 558.096C523.749 558.42 523.405 558.646 523.015 558.732L522.996 558.736C506.132 562.369 489.224 565.792 472.341 569.33C455.458 572.871 438.552 576.302 421.644 579.723L370.924 590.005L345.582 595.232C337.14 596.998 328.689 598.725 320.266 600.584C320.174 600.602 320.078 600.596 319.988 600.564C309.706 596.907 299.459 593.148 289.146 589.574L258.247 578.741C258.04 578.669 257.861 578.535 257.733 578.357C257.604 578.179 257.534 577.966 257.53 577.747V577.716C257.321 563.11 257.295 548.504 257.245 533.898C257.205 519.292 257.345 504.686 257.386 490.08C257.411 475.474 257.595 460.868 257.753 446.262C257.887 431.655 258.155 417.049 258.463 402.443C258.464 402.403 258.481 402.364 258.51 402.336C258.539 402.307 258.578 402.291 258.618 402.291C258.659 402.291 258.698 402.307 258.727 402.336C258.756 402.364 258.772 402.403 258.773 402.443Z" fill="white"/>
<path d="M301.796 414.659C302.664 422.141 303.4 429.633 304.206 437.119L306.401 459.593C307.833 474.584 309.118 489.56 310.446 504.587C311.517 519.618 312.382 534.656 313.039 549.7L313.874 572.273C314.054 579.801 314.286 587.327 314.355 594.858L311.451 549.784C310.478 534.764 309.617 519.737 308.386 504.746L304.823 459.731L303.202 437.202C302.736 429.687 302.2 422.177 301.796 414.659ZM264.586 573.754C266.651 573.816 268.692 573.297 270.478 572.258C272.217 571.208 273.647 569.716 274.622 567.933C276.464 564.258 277.35 560.177 277.201 556.068C277.536 547.669 277.76 539.265 278.246 530.87L279.899 505.698C280.392 497.306 280.752 488.908 280.978 480.504C280.981 480.383 281.031 480.269 281.116 480.184C281.201 480.099 281.315 480.05 281.435 480.047C281.556 480.044 281.672 480.087 281.761 480.168C281.85 480.249 281.905 480.361 281.914 480.481L281.916 480.504L283.889 508.288L285.755 536.069L286.687 549.95C286.841 552.261 287.009 554.572 287.215 556.872C287.318 558.02 287.427 559.172 287.576 560.296C287.641 560.852 287.738 561.44 287.839 561.889L287.905 562.149L288.104 562.571C288.244 562.856 288.352 563.127 288.467 563.402C289.285 565.548 290.215 567.65 291.255 569.697C292.322 571.719 293.57 573.64 294.983 575.436C297.854 579.051 301.163 582.294 304.834 585.09C304.845 585.098 304.854 585.108 304.861 585.12C304.868 585.132 304.872 585.144 304.874 585.158C304.876 585.171 304.875 585.185 304.872 585.198C304.869 585.211 304.863 585.224 304.854 585.235C304.838 585.256 304.815 585.27 304.789 585.274C304.763 585.278 304.736 585.273 304.714 585.258C300.797 582.702 297.243 579.628 294.149 576.119C291.097 572.529 288.664 568.454 286.95 564.062C286.833 563.805 286.719 563.54 286.595 563.308L286.413 562.948L286.208 562.381C286.052 561.779 285.93 561.169 285.842 560.553C285.653 559.381 285.51 558.225 285.373 557.064C285.1 554.746 284.866 552.432 284.645 550.117C284.234 545.484 283.869 540.851 283.548 536.218C282.906 526.949 282.481 517.67 282.01 508.395C281.565 499.119 281.275 489.835 280.978 480.552L281.916 480.553C281.373 488.939 280.963 497.332 280.686 505.732L280.029 530.932C279.745 539.329 279.199 547.716 278.764 556.108C278.763 560.443 277.647 564.704 275.525 568.482C274.412 570.351 272.787 571.86 270.844 572.831C268.9 573.802 266.718 574.194 264.559 573.96C264.533 573.956 264.509 573.942 264.492 573.922C264.476 573.901 264.468 573.875 264.47 573.849C264.472 573.822 264.484 573.798 264.504 573.78C264.524 573.763 264.549 573.753 264.576 573.754H264.586ZM356.308 405.94C356.308 405.94 387.835 398.714 388.477 468.933C388.548 476.698 388.831 487.269 390.636 494.821C394.345 510.331 402.162 528.131 412.096 513.049C415.43 507.87 417.138 501.809 417.001 495.648C416.9 487.37 414.913 475.013 405.526 465.366C389.977 449.387 393.987 444.486 395.475 435.538C396.964 426.59 400.617 420.561 390.636 411.303L380.656 402.045L398.453 399.199C408.256 402.132 416.445 414.162 415.949 425.098C415.868 426.869 415.736 428.678 415.57 430.467C414.533 441.578 417.357 452.707 423.564 461.973C430.118 471.738 437.29 485.629 437.29 499.668C437.29 525.519 409 560.815 383.936 532.851C358.872 504.888 368.302 499.668 369.295 458.903C370.288 418.139 329.11 410.29 329.11 410.29L356.308 405.94ZM288.547 182.24C284.774 190.052 281.986 198.304 280.25 206.807C279.925 208.939 279.765 211.093 279.771 213.25C279.679 215.455 279.515 217.659 279.227 219.852C279.026 222.089 278.385 224.264 277.34 226.252C276.698 227.163 275.962 228.003 275.143 228.758C274.479 229.482 274.089 230.416 274.04 231.398C274.043 231.833 274.177 232.257 274.424 232.614C274.671 232.972 275.019 233.247 275.424 233.403C275.802 233.592 276.41 233.792 276.912 234.024C277.547 234.27 278.11 234.673 278.549 235.195C278.926 235.768 279.16 236.423 279.23 237.106C279.323 237.686 279.381 238.227 279.449 238.773C279.584 239.857 279.692 240.935 279.851 242.003C280.381 246.246 281.48 250.398 283.119 254.347C284.706 258.196 287.569 261.603 291.794 261.766C296.131 262.165 300.473 262.601 304.836 263.179L304.847 263.181C304.873 263.184 304.896 263.197 304.913 263.217C304.929 263.237 304.938 263.263 304.936 263.289C304.935 263.315 304.924 263.339 304.905 263.357C304.887 263.376 304.862 263.386 304.836 263.387C300.467 263.492 296.079 263.455 291.684 263.382C291.105 263.377 290.527 263.318 289.959 263.206L289.066 263.062C288.776 262.978 288.492 262.876 288.215 262.756C287.081 262.341 286.034 261.72 285.126 260.923C283.394 259.35 282.025 257.418 281.111 255.262C279.367 251.119 278.291 246.725 277.921 242.244C277.799 241.139 277.703 240.038 277.632 238.941C277.656 237.995 277.515 237.052 277.216 236.154C276.951 235.832 276.612 235.579 276.228 235.417C275.756 235.151 275.329 234.983 274.748 234.644C274.17 234.318 273.685 233.85 273.338 233.284C273.004 232.701 272.854 232.03 272.908 231.359C273.04 230.139 273.599 229.004 274.486 228.156C274.901 227.717 275.374 227.406 275.733 227.057C276.106 226.695 276.44 226.293 276.727 225.859C277.798 223.999 278.425 221.915 278.56 219.772C278.749 217.605 278.769 215.427 278.619 213.258C278.408 211.04 278.382 208.809 278.543 206.587C279.114 202.165 280.318 197.848 282.118 193.769C283.832 189.704 285.924 185.809 288.368 182.137C288.375 182.125 288.385 182.116 288.397 182.108C288.408 182.101 288.421 182.096 288.434 182.093C288.447 182.091 288.461 182.091 288.475 182.093C288.488 182.096 288.501 182.102 288.512 182.109C288.532 182.124 288.546 182.145 288.553 182.168C288.559 182.192 288.557 182.218 288.547 182.24Z" fill="white"/>
<path d="M273.66 211.76C274.931 214.808 275.991 217.93 277.164 221.012C278.198 224.144 279.343 227.236 280.278 230.402C280.288 230.437 280.288 230.473 280.277 230.507C280.267 230.542 280.246 230.572 280.219 230.594C280.191 230.617 280.157 230.631 280.122 230.634C280.086 230.637 280.05 230.63 280.019 230.613L279.888 230.541C278.22 229.613 276.769 228.341 275.629 226.808C274.62 225.469 273.823 223.982 273.268 222.4C272.708 220.818 272.392 219.161 272.329 217.484C272.249 215.577 272.57 213.674 273.271 211.899L273.326 211.762C273.34 211.729 273.363 211.7 273.392 211.68C273.422 211.66 273.457 211.649 273.493 211.649C273.529 211.649 273.564 211.659 273.593 211.679C273.623 211.699 273.647 211.727 273.66 211.76Z" fill="white"/>
<path d="M322.706 223.255C322.684 223.255 322.663 223.253 322.642 223.25C322.575 223.241 322.509 223.22 322.45 223.187C322.391 223.153 322.339 223.108 322.297 223.055C322.256 223.001 322.225 222.94 322.207 222.874C322.189 222.809 322.184 222.74 322.192 222.673C322.22 222.362 322.181 222.049 322.076 221.755C321.972 221.461 321.805 221.193 321.588 220.97C315.651 213.987 273.869 212.363 273.447 212.346C273.31 212.341 273.181 212.282 273.087 212.181C272.994 212.081 272.944 211.947 272.949 211.809C272.945 211.74 272.956 211.67 272.982 211.605C273.008 211.539 273.048 211.481 273.099 211.433C273.151 211.386 273.212 211.35 273.279 211.329C273.345 211.308 273.416 211.303 273.485 211.312C275.224 211.376 316.146 212.973 322.375 220.299C322.687 220.63 322.923 221.026 323.068 221.457C323.214 221.888 323.265 222.346 323.218 222.799C323.203 222.924 323.142 223.04 323.048 223.124C322.954 223.208 322.832 223.254 322.706 223.255Z" fill="white"/>
<path d="M319.495 239.253C330.29 251.743 353.787 257.317 353.787 257.317C364.396 252.47 364.582 209.779 361.045 185.358C357.509 160.936 327.73 166.902 320.012 169.698C312.293 172.494 289.152 175.104 289.152 175.104C289.152 175.104 294.601 221.71 306.141 224.134C306.141 224.134 316.228 213.638 319.629 221.869C320.172 223.247 320.395 224.731 320.282 226.209L319.495 239.253Z" fill="white"/>
<path d="M314.418 245.285C312.658 245.19 310.952 244.64 309.465 243.691C309.347 243.623 309.26 243.51 309.224 243.377C309.188 243.245 309.206 243.104 309.275 242.984C309.343 242.865 309.455 242.778 309.588 242.743C309.72 242.707 309.861 242.725 309.98 242.793C312.579 244.283 314.686 244.629 316.246 243.827C318.665 242.574 319.043 238.909 319.046 238.873C319.051 238.805 319.07 238.738 319.101 238.678C319.133 238.617 319.176 238.563 319.229 238.52C319.281 238.476 319.342 238.444 319.408 238.425C319.473 238.405 319.542 238.399 319.61 238.407C319.677 238.414 319.743 238.434 319.803 238.465C319.863 238.497 319.916 238.541 319.959 238.593C320.003 238.646 320.035 238.706 320.055 238.771C320.075 238.837 320.082 238.905 320.075 238.973C320.059 239.146 319.635 243.237 316.721 244.747C316.008 245.11 315.218 245.295 314.418 245.285ZM279.266 244.767C279.641 245.79 280.327 246.67 281.229 247.281C281.669 247.526 282.154 247.68 282.655 247.734C283.157 247.787 283.663 247.738 284.145 247.589C286.247 246.893 288.258 245.945 290.133 244.767C288.636 246.59 286.629 247.925 284.37 248.6C283.759 248.775 283.116 248.807 282.49 248.692C281.865 248.578 281.275 248.32 280.766 247.938C280.304 247.548 279.93 247.063 279.672 246.516C279.413 245.969 279.274 245.372 279.266 244.767ZM282.441 223.637C283.244 223.608 284.006 223.269 284.565 222.689C285.124 222.11 285.436 221.335 285.436 220.53C285.436 219.724 285.124 218.949 284.565 218.37C284.006 217.79 283.244 217.451 282.441 217.423C281.637 217.451 280.875 217.79 280.316 218.37C279.757 218.949 279.445 219.724 279.445 220.53C279.445 221.335 279.757 222.11 280.316 222.689C280.875 223.269 281.637 223.608 282.441 223.637ZM167.295 531.857C168.099 531.829 168.861 531.489 169.42 530.909C169.979 530.33 170.291 529.556 170.291 528.75C170.291 527.944 169.979 527.17 169.42 526.59C168.861 526.01 168.099 525.671 167.295 525.643C166.491 525.671 165.73 526.01 165.171 526.59C164.612 527.17 164.3 527.944 164.3 528.75C164.3 529.556 164.612 530.33 165.171 530.909C165.73 531.489 166.491 531.829 167.295 531.857ZM196.702 519.18C197.506 519.152 198.268 518.812 198.827 518.233C199.385 517.653 199.698 516.879 199.698 516.073C199.698 515.267 199.385 514.493 198.827 513.913C198.268 513.334 197.506 512.994 196.702 512.966C195.898 512.994 195.136 513.334 194.578 513.913C194.019 514.493 193.707 515.267 193.707 516.073C193.707 516.879 194.019 517.653 194.578 518.233C195.136 518.812 195.898 519.152 196.702 519.18ZM185.163 542.297C185.967 542.268 186.728 541.929 187.287 541.349C187.846 540.77 188.158 539.995 188.158 539.19C188.158 538.384 187.846 537.609 187.287 537.03C186.728 536.45 185.967 536.111 185.163 536.082C184.359 536.111 183.597 536.45 183.038 537.03C182.479 537.609 182.167 538.384 182.167 539.19C182.167 539.995 182.479 540.77 183.038 541.349C183.597 541.929 184.359 542.268 185.163 542.297ZM179.579 502.402C180.383 502.374 181.145 502.034 181.704 501.455C182.263 500.875 182.575 500.101 182.575 499.295C182.575 498.489 182.263 497.715 181.704 497.135C181.145 496.556 180.383 496.216 179.579 496.188C178.775 496.216 178.014 496.556 177.455 497.135C176.896 497.715 176.584 498.489 176.584 499.295C176.584 500.101 176.896 500.875 177.455 501.455C178.014 502.034 178.775 502.374 179.579 502.402ZM212.708 495.318C213.512 495.29 214.274 494.95 214.833 494.37C215.392 493.791 215.704 493.017 215.704 492.211C215.704 491.405 215.392 490.631 214.833 490.051C214.274 489.472 213.512 489.132 212.708 489.104C211.904 489.132 211.143 489.472 210.584 490.051C210.025 490.631 209.713 491.405 209.713 492.211C209.713 493.017 210.025 493.791 210.584 494.37C211.143 494.95 211.904 495.29 212.708 495.318ZM193.352 478.54C194.156 478.512 194.918 478.172 195.476 477.592C196.035 477.013 196.348 476.238 196.348 475.433C196.348 474.627 196.035 473.853 195.476 473.273C194.918 472.693 194.156 472.354 193.352 472.326C192.548 472.354 191.786 472.693 191.228 473.273C190.669 473.853 190.356 474.627 190.356 475.433C190.356 476.238 190.669 477.013 191.228 477.592C191.786 478.172 192.548 478.512 193.352 478.54ZM194.841 499.792C195.645 499.764 196.407 499.424 196.965 498.845C197.524 498.265 197.837 497.491 197.837 496.685C197.837 495.879 197.524 495.105 196.965 494.525C196.407 493.946 195.645 493.606 194.841 493.578C194.037 493.606 193.275 493.946 192.716 494.525C192.158 495.105 191.845 495.879 191.845 496.685C191.845 497.491 192.158 498.265 192.716 498.845C193.275 499.424 194.037 499.764 194.841 499.792ZM180.324 521.044C181.128 521.016 181.889 520.677 182.448 520.097C183.007 519.517 183.319 518.743 183.319 517.937C183.319 517.131 183.007 516.357 182.448 515.778C181.889 515.198 181.128 514.858 180.324 514.83C179.52 514.858 178.758 515.198 178.199 515.778C177.64 516.357 177.328 517.131 177.328 517.937C177.328 518.743 177.64 519.517 178.199 520.097C178.758 520.677 179.52 521.016 180.324 521.044ZM207.941 525.953L204.529 530.914C203.876 530.635 203.337 530.14 203.001 529.513C202.665 528.886 202.552 528.163 202.681 527.463C202.81 526.763 203.172 526.127 203.709 525.661C204.246 525.195 204.926 524.925 205.636 524.897C206.076 524.879 206.514 524.965 206.915 525.148C207.316 525.332 207.667 525.608 207.941 525.953ZM219.264 509.527L215.779 514.582C215.355 514.145 215.066 513.594 214.948 512.996C214.83 512.398 214.888 511.778 215.115 511.212C215.341 510.647 215.727 510.159 216.225 509.808C216.723 509.458 217.312 509.259 217.92 509.237C218.384 509.23 218.844 509.329 219.264 509.527ZM266.062 426.217C266.866 426.189 267.628 425.849 268.187 425.269C268.745 424.69 269.058 423.916 269.058 423.11C269.058 422.304 268.745 421.53 268.187 420.95C267.628 420.371 266.866 420.031 266.062 420.003C265.258 420.031 264.496 420.371 263.938 420.95C263.379 421.53 263.067 422.304 263.067 423.11C263.067 423.916 263.379 424.69 263.938 425.269C264.496 425.849 265.258 426.189 266.062 426.217ZM280.455 436.159C281.259 436.131 282.021 435.792 282.58 435.212C283.139 434.632 283.451 433.858 283.451 433.052C283.451 432.247 283.139 431.472 282.58 430.893C282.021 430.313 281.259 429.973 280.455 429.945C279.651 429.973 278.89 430.313 278.331 430.893C277.772 431.472 277.46 432.247 277.46 433.052C277.46 433.858 277.772 434.632 278.331 435.212C278.89 435.792 279.651 436.131 280.455 436.159ZM295.345 425.223C296.149 425.194 296.91 424.855 297.469 424.275C298.028 423.696 298.34 422.921 298.34 422.116C298.34 421.31 298.028 420.535 297.469 419.956C296.91 419.376 296.149 419.037 295.345 419.008C294.541 419.037 293.779 419.376 293.22 419.956C292.661 420.535 292.349 421.31 292.349 422.116C292.349 422.921 292.661 423.696 293.22 424.275C293.779 424.855 294.541 425.194 295.345 425.223ZM267.551 454.553C268.355 454.525 269.117 454.185 269.676 453.606C270.234 453.026 270.547 452.252 270.547 451.446C270.547 450.64 270.234 449.866 269.676 449.286C269.117 448.707 268.355 448.367 267.551 448.339C266.747 448.367 265.985 448.707 265.427 449.286C264.868 449.866 264.555 450.64 264.555 451.446C264.555 452.252 264.868 453.026 265.427 453.606C265.985 454.185 266.747 454.525 267.551 454.553ZM295.345 452.565C296.149 452.537 296.91 452.197 297.469 451.617C298.028 451.038 298.34 450.263 298.34 449.458C298.34 448.652 298.028 447.878 297.469 447.298C296.91 446.718 296.149 446.379 295.345 446.351C294.541 446.379 293.779 446.718 293.22 447.298C292.661 447.878 292.349 448.652 292.349 449.458C292.349 450.263 292.661 451.038 293.22 451.617C293.779 452.197 294.541 452.537 295.345 452.565ZM281.448 466.981C282.252 466.953 283.014 466.614 283.572 466.034C284.131 465.454 284.444 464.68 284.444 463.874C284.444 463.069 284.131 462.294 283.572 461.715C283.014 461.135 282.252 460.795 281.448 460.767C280.644 460.795 279.882 461.135 279.323 461.715C278.765 462.294 278.452 463.069 278.452 463.874C278.452 464.68 278.765 465.454 279.323 466.034C279.882 466.614 280.644 466.953 281.448 466.981ZM268.544 481.895C269.348 481.867 270.109 481.528 270.668 480.948C271.227 480.368 271.539 479.594 271.539 478.788C271.539 477.983 271.227 477.208 270.668 476.629C270.109 476.049 269.348 475.709 268.544 475.681C267.74 475.709 266.978 476.049 266.419 476.629C265.86 477.208 265.548 477.983 265.548 478.788C265.548 479.594 265.86 480.368 266.419 480.948C266.978 481.528 267.74 481.867 268.544 481.895ZM296.834 482.89C297.638 482.861 298.399 482.522 298.958 481.942C299.517 481.363 299.829 480.588 299.829 479.783C299.829 478.977 299.517 478.202 298.958 477.623C298.399 477.043 297.638 476.704 296.834 476.676C296.03 476.704 295.268 477.043 294.709 477.623C294.15 478.202 293.838 478.977 293.838 479.783C293.838 480.588 294.15 481.363 294.709 481.942C295.268 482.522 296.03 482.861 296.834 482.89ZM270.033 507.746C270.837 507.718 271.598 507.378 272.157 506.799C272.716 506.219 273.028 505.445 273.028 504.639C273.028 503.833 272.716 503.059 272.157 502.479C271.598 501.9 270.837 501.56 270.033 501.532C269.229 501.56 268.467 501.9 267.908 502.479C267.349 503.059 267.037 503.833 267.037 504.639C267.037 505.445 267.349 506.219 267.908 506.799C268.467 507.378 269.229 507.718 270.033 507.746ZM296.834 508.74C297.638 508.712 298.399 508.373 298.958 507.793C299.517 507.213 299.829 506.439 299.829 505.633C299.829 504.827 299.517 504.053 298.958 503.474C298.399 502.894 297.638 502.554 296.834 502.526C296.03 502.554 295.268 502.894 294.709 503.474C294.15 504.053 293.838 504.827 293.838 505.633C293.838 506.439 294.15 507.213 294.709 507.793C295.268 508.373 296.03 508.712 296.834 508.74ZM269.04 530.614C269.844 530.586 270.606 530.246 271.164 529.667C271.723 529.087 272.036 528.313 272.036 527.507C272.036 526.701 271.723 525.927 271.164 525.347C270.606 524.768 269.844 524.428 269.04 524.4C268.236 524.428 267.474 524.768 266.916 525.347C266.357 525.927 266.044 526.701 266.044 527.507C266.044 528.313 266.357 529.087 266.916 529.667C267.474 530.246 268.236 530.586 269.04 530.614ZM296.834 533.1C297.638 533.072 298.399 532.732 298.958 532.152C299.517 531.573 299.829 530.798 299.829 529.993C299.829 529.187 299.517 528.413 298.958 527.833C298.399 527.253 297.638 526.914 296.834 526.886C296.03 526.914 295.268 527.253 294.709 527.833C294.15 528.413 293.838 529.187 293.838 529.993C293.838 530.798 294.15 531.573 294.709 532.152C295.268 532.732 296.03 533.072 296.834 533.1ZM269.536 555.968C270.34 555.94 271.102 555.6 271.661 555.02C272.22 554.441 272.532 553.666 272.532 552.861C272.532 552.055 272.22 551.281 271.661 550.701C271.102 550.121 270.34 549.782 269.536 549.754C268.732 549.782 267.971 550.121 267.412 550.701C266.853 551.281 266.541 552.055 266.541 552.861C266.541 553.666 266.853 554.441 267.412 555.02C267.971 555.6 268.732 555.94 269.536 555.968ZM297.33 556.962C298.134 556.934 298.896 556.594 299.454 556.015C300.013 555.435 300.326 554.661 300.326 553.855C300.326 553.049 300.013 552.275 299.454 551.695C298.896 551.116 298.134 550.776 297.33 550.748C296.526 550.776 295.764 551.116 295.205 551.695C294.647 552.275 294.334 553.049 294.334 553.855C294.334 554.661 294.647 555.435 295.205 556.015C295.764 556.594 296.526 556.934 297.33 556.962ZM282.937 574.859C283.741 574.83 284.502 574.491 285.061 573.911C285.62 573.332 285.932 572.557 285.932 571.751C285.932 570.946 285.62 570.171 285.061 569.592C284.502 569.012 283.741 568.673 282.937 568.644C282.133 568.673 281.371 569.012 280.812 569.592C280.254 570.171 279.941 570.946 279.941 571.751C279.941 572.557 280.254 573.332 280.812 573.911C281.371 574.491 282.133 574.83 282.937 574.859ZM303.782 578.836C304.586 578.807 305.348 578.468 305.907 577.888C306.465 577.309 306.778 576.534 306.778 575.729C306.778 574.923 306.465 574.148 305.907 573.569C305.348 572.989 304.586 572.65 303.782 572.621C302.978 572.65 302.216 572.989 301.658 573.569C301.099 574.148 300.786 574.923 300.786 575.729C300.786 576.534 301.099 577.309 301.658 577.888C302.216 578.468 302.978 578.807 303.782 578.836ZM311.723 434.668C312.527 434.64 313.289 434.3 313.848 433.721C314.406 433.141 314.719 432.367 314.719 431.561C314.719 430.755 314.406 429.981 313.848 429.401C313.289 428.822 312.527 428.482 311.723 428.454C310.919 428.482 310.157 428.822 309.599 429.401C309.04 429.981 308.727 430.755 308.727 431.561C308.727 432.367 309.04 433.141 309.599 433.721C310.157 434.3 310.919 434.64 311.723 434.668ZM324.627 423.234C325.431 423.206 326.193 422.866 326.752 422.287C327.311 421.707 327.623 420.933 327.623 420.127C327.623 419.321 327.311 418.547 326.752 417.967C326.193 417.388 325.431 417.048 324.627 417.02C323.823 417.048 323.062 417.388 322.503 417.967C321.944 418.547 321.632 419.321 321.632 420.127C321.632 420.933 321.944 421.707 322.503 422.287C323.062 422.866 323.823 423.206 324.627 423.234ZM340.509 431.188C341.313 431.16 342.075 430.82 342.634 430.241C343.193 429.661 343.505 428.887 343.505 428.081C343.505 427.275 343.193 426.501 342.634 425.921C342.075 425.342 341.313 425.002 340.509 424.974C339.705 425.002 338.944 425.342 338.385 425.921C337.826 426.501 337.514 427.275 337.514 428.081C337.514 428.887 337.826 429.661 338.385 430.241C338.944 430.82 339.705 431.16 340.509 431.188ZM329.591 444.113C330.395 444.085 331.156 443.746 331.715 443.166C332.274 442.586 332.586 441.812 332.586 441.006C332.586 440.201 332.274 439.426 331.715 438.847C331.156 438.267 330.395 437.928 329.591 437.899C328.787 437.928 328.025 438.267 327.466 438.847C326.907 439.426 326.595 440.201 326.595 441.006C326.595 441.812 326.907 442.586 327.466 443.166C328.025 443.746 328.787 444.085 329.591 444.113ZM320.16 463.999C320.964 463.971 321.726 463.631 322.285 463.051C322.844 462.472 323.156 461.697 323.156 460.892C323.156 460.086 322.844 459.312 322.285 458.732C321.726 458.152 320.964 457.813 320.16 457.785C319.356 457.813 318.595 458.152 318.036 458.732C317.477 459.312 317.165 460.086 317.165 460.892C317.165 461.697 317.477 462.472 318.036 463.051C318.595 463.631 319.356 463.971 320.16 463.999ZM348.45 458.033C349.254 458.005 350.016 457.665 350.575 457.086C351.134 456.506 351.446 455.732 351.446 454.926C351.446 454.12 351.134 453.346 350.575 452.766C350.016 452.187 349.254 451.847 348.45 451.819C347.646 451.847 346.885 452.187 346.326 452.766C345.767 453.346 345.455 454.12 345.455 454.926C345.455 455.732 345.767 456.506 346.326 457.086C346.885 457.665 347.646 458.005 348.45 458.033ZM337.531 473.444C338.335 473.416 339.097 473.076 339.656 472.497C340.215 471.917 340.527 471.143 340.527 470.337C340.527 469.531 340.215 468.757 339.656 468.178C339.097 467.598 338.335 467.258 337.531 467.23C336.728 467.258 335.966 467.598 335.407 468.178C334.848 468.757 334.536 469.531 334.536 470.337C334.536 471.143 334.848 471.917 335.407 472.497C335.966 473.076 336.728 473.416 337.531 473.444ZM323.635 488.855C324.439 488.827 325.2 488.487 325.759 487.908C326.318 487.328 326.63 486.554 326.63 485.748C326.63 484.942 326.318 484.168 325.759 483.588C325.2 483.009 324.439 482.669 323.635 482.641C322.831 482.669 322.069 483.009 321.51 483.588C320.951 484.168 320.639 484.942 320.639 485.748C320.639 486.554 320.951 487.328 321.51 487.908C322.069 488.487 322.831 488.827 323.635 488.855ZM352.917 482.392C353.721 482.364 354.483 482.025 355.042 481.445C355.601 480.865 355.913 480.091 355.913 479.285C355.913 478.48 355.601 477.705 355.042 477.126C354.483 476.546 353.721 476.206 352.917 476.178C352.113 476.206 351.352 476.546 350.793 477.126C350.234 477.705 349.922 478.48 349.922 479.285C349.922 480.091 350.234 480.865 350.793 481.445C351.352 482.025 352.113 482.364 352.917 482.392ZM341.502 500.289C342.306 500.261 343.068 499.921 343.626 499.342C344.185 498.762 344.498 497.988 344.498 497.182C344.498 496.376 344.185 495.602 343.626 495.022C343.068 494.443 342.306 494.103 341.502 494.075C340.698 494.103 339.936 494.443 339.378 495.022C338.819 495.602 338.506 496.376 338.506 497.182C338.506 497.988 338.819 498.762 339.378 499.342C339.936 499.921 340.698 500.261 341.502 500.289ZM325.62 514.706C326.424 514.678 327.186 514.338 327.744 513.758C328.303 513.179 328.616 512.405 328.616 511.599C328.616 510.793 328.303 510.019 327.744 509.439C327.186 508.86 326.424 508.52 325.62 508.492C324.816 508.52 324.054 508.86 323.495 509.439C322.937 510.019 322.624 510.793 322.624 511.599C322.624 512.405 322.937 513.179 323.495 513.758C324.054 514.338 324.816 514.678 325.62 514.706ZM347.458 528.128C348.262 528.1 349.023 527.761 349.582 527.181C350.141 526.601 350.453 525.827 350.453 525.021C350.453 524.216 350.141 523.441 349.582 522.862C349.023 522.282 348.262 521.942 347.458 521.914C346.654 521.942 345.892 522.282 345.333 522.862C344.774 523.441 344.462 524.216 344.462 525.021C344.462 525.827 344.774 526.601 345.333 527.181C345.892 527.761 346.654 528.1 347.458 528.128ZM357.88 508.74C358.684 508.712 359.446 508.373 360.005 507.793C360.564 507.213 360.876 506.439 360.876 505.633C360.876 504.827 360.564 504.053 360.005 503.474C359.446 502.894 358.684 502.554 357.88 502.526C357.076 502.554 356.315 502.894 355.756 503.474C355.197 504.053 354.885 504.827 354.885 505.633C354.885 506.439 355.197 507.213 355.756 507.793C356.315 508.373 357.076 508.712 357.88 508.74ZM329.591 539.562C330.395 539.534 331.156 539.195 331.715 538.615C332.274 538.035 332.586 537.261 332.586 536.455C332.586 535.649 332.274 534.875 331.715 534.296C331.156 533.716 330.395 533.376 329.591 533.348C328.787 533.376 328.025 533.716 327.466 534.296C326.907 534.875 326.595 535.649 326.595 536.455C326.595 537.261 326.907 538.035 327.466 538.615C328.025 539.195 328.787 539.534 329.591 539.562ZM352.421 555.47C353.225 555.442 353.987 555.103 354.545 554.523C355.104 553.944 355.417 553.169 355.417 552.363C355.417 551.558 355.104 550.783 354.545 550.204C353.987 549.624 353.225 549.284 352.421 549.256C351.617 549.284 350.855 549.624 350.296 550.204C349.738 550.783 349.425 551.558 349.425 552.363C349.425 553.169 349.738 553.944 350.296 554.523C350.855 555.103 351.617 555.442 352.421 555.47ZM367.31 532.603C368.114 532.574 368.876 532.235 369.435 531.655C369.994 531.076 370.306 530.301 370.306 529.496C370.306 528.69 369.994 527.915 369.435 527.336C368.876 526.756 368.114 526.417 367.31 526.388C366.506 526.417 365.745 526.756 365.186 527.336C364.627 527.915 364.315 528.69 364.315 529.496C364.315 530.301 364.627 531.076 365.186 531.655C365.745 532.235 366.506 532.574 367.31 532.603ZM332.072 570.881C332.876 570.853 333.638 570.514 334.197 569.934C334.755 569.355 335.068 568.58 335.068 567.774C335.068 566.969 334.755 566.194 334.197 565.615C333.638 565.035 332.876 564.696 332.072 564.667C331.268 564.696 330.506 565.035 329.948 565.615C329.389 566.194 329.076 566.969 329.076 567.774C329.076 568.58 329.389 569.355 329.948 569.934C330.506 570.514 331.268 570.853 332.072 570.881ZM356.391 585.795C357.195 585.767 357.957 585.428 358.516 584.848C359.075 584.268 359.387 583.494 359.387 582.688C359.387 581.883 359.075 581.108 358.516 580.529C357.957 579.949 357.195 579.609 356.391 579.581C355.587 579.609 354.826 579.949 354.267 580.529C353.708 581.108 353.396 581.883 353.396 582.688C353.396 583.494 353.708 584.268 354.267 584.848C354.826 585.428 355.587 585.767 356.391 585.795ZM335.546 595.738C336.35 595.71 337.112 595.37 337.671 594.791C338.23 594.211 338.542 593.437 338.542 592.631C338.542 591.825 338.23 591.051 337.671 590.471C337.112 589.892 336.35 589.552 335.546 589.524C334.742 589.552 333.981 589.892 333.422 590.471C332.863 591.051 332.551 591.825 332.551 592.631C332.551 593.437 332.863 594.211 333.422 594.791C333.981 595.37 334.742 595.71 335.546 595.738ZM375.251 569.39C376.055 569.362 376.817 569.022 377.376 568.443C377.935 567.863 378.247 567.089 378.247 566.283C378.247 565.477 377.935 564.703 377.376 564.123C376.817 563.544 376.055 563.204 375.251 563.176C374.447 563.204 373.686 563.544 373.127 564.123C372.568 564.703 372.256 565.477 372.256 566.283C372.256 567.089 372.568 567.863 373.127 568.443C373.686 569.022 374.447 569.362 375.251 569.39ZM390.637 554.476C391.441 554.448 392.203 554.108 392.762 553.529C393.32 552.949 393.633 552.175 393.633 551.369C393.633 550.563 393.32 549.789 392.762 549.21C392.203 548.63 391.441 548.29 390.637 548.262C389.833 548.29 389.072 548.63 388.513 549.21C387.954 549.789 387.642 550.563 387.642 551.369C387.642 552.175 387.954 552.949 388.513 553.529C389.072 554.108 389.833 554.448 390.637 554.476ZM399.075 580.327C399.878 580.299 400.64 579.959 401.199 579.38C401.758 578.8 402.07 578.026 402.07 577.22C402.07 576.414 401.758 575.64 401.199 575.06C400.64 574.481 399.878 574.141 399.075 574.113C398.271 574.141 397.509 574.481 396.95 575.06C396.391 575.64 396.079 576.414 396.079 577.22C396.079 578.026 396.391 578.8 396.95 579.38C397.509 579.959 398.271 580.299 399.075 580.327ZM411.979 562.43C412.783 562.402 413.544 562.063 414.103 561.483C414.662 560.903 414.974 560.129 414.974 559.323C414.974 558.517 414.662 557.743 414.103 557.164C413.544 556.584 412.783 556.244 411.979 556.216C411.175 556.244 410.413 556.584 409.854 557.164C409.295 557.743 408.983 558.517 408.983 559.323C408.983 560.129 409.295 560.903 409.854 561.483C410.413 562.063 411.175 562.402 411.979 562.43ZM428.853 544.036C429.657 544.008 430.419 543.669 430.978 543.089C431.537 542.51 431.849 541.735 431.849 540.929C431.849 540.124 431.537 539.349 430.978 538.77C430.419 538.19 429.657 537.851 428.853 537.822C428.049 537.851 427.288 538.19 426.729 538.77C426.17 539.349 425.858 540.124 425.858 540.929C425.858 541.735 426.17 542.51 426.729 543.089C427.288 543.669 428.049 544.008 428.853 544.036ZM435.802 569.887C436.606 569.859 437.367 569.519 437.926 568.94C438.485 568.36 438.797 567.586 438.797 566.78C438.797 565.974 438.485 565.2 437.926 564.621C437.367 564.041 436.606 563.701 435.802 563.673C434.998 563.701 434.236 564.041 433.677 564.621C433.119 565.2 432.806 565.974 432.806 566.78C432.806 567.586 433.119 568.36 433.677 568.94C434.236 569.519 434.998 569.859 435.802 569.887ZM448.706 551.493C449.51 551.465 450.272 551.126 450.83 550.546C451.389 549.966 451.702 549.192 451.702 548.386C451.702 547.581 451.389 546.806 450.83 546.227C450.272 545.647 449.51 545.307 448.706 545.279C447.902 545.307 447.14 545.647 446.582 546.227C446.023 546.806 445.71 547.581 445.71 548.386C445.71 549.192 446.023 549.966 446.582 550.546C447.14 551.126 447.902 551.465 448.706 551.493ZM462.107 533.597C462.91 533.569 463.672 533.229 464.231 532.649C464.79 532.07 465.102 531.296 465.102 530.49C465.102 529.684 464.79 528.91 464.231 528.33C463.672 527.75 462.91 527.411 462.107 527.383C461.303 527.411 460.541 527.75 459.982 528.33C459.423 528.91 459.111 529.684 459.111 530.49C459.111 531.296 459.423 532.07 459.982 532.649C460.541 533.229 461.303 533.569 462.107 533.597ZM470.544 559.448C471.348 559.419 472.11 559.08 472.668 558.5C473.227 557.921 473.539 557.146 473.539 556.34C473.539 555.535 473.227 554.76 472.668 554.181C472.11 553.601 471.348 553.262 470.544 553.233C469.74 553.262 468.978 553.601 468.419 554.181C467.861 554.76 467.548 555.535 467.548 556.34C467.548 557.146 467.861 557.921 468.419 558.5C468.978 559.08 469.74 559.419 470.544 559.448ZM478.981 542.545C479.785 542.517 480.547 542.177 481.106 541.598C481.665 541.018 481.977 540.244 481.977 539.438C481.977 538.632 481.665 537.858 481.106 537.278C480.547 536.699 479.785 536.359 478.981 536.331C478.177 536.359 477.416 536.699 476.857 537.278C476.298 537.858 475.986 538.632 475.986 539.438C475.986 540.244 476.298 541.018 476.857 541.598C477.416 542.177 478.177 542.517 478.981 542.545ZM494.863 526.637C495.667 526.609 496.429 526.269 496.988 525.69C497.547 525.11 497.859 524.336 497.859 523.53C497.859 522.724 497.547 521.95 496.988 521.37C496.429 520.791 495.667 520.451 494.863 520.423C494.059 520.451 493.298 520.791 492.739 521.37C492.18 521.95 491.868 522.724 491.868 523.53C491.868 524.336 492.18 525.11 492.739 525.69C493.298 526.269 494.059 526.609 494.863 526.637ZM503.797 555.47C504.601 555.442 505.363 555.103 505.921 554.523C506.48 553.944 506.793 553.169 506.793 552.363C506.793 551.558 506.48 550.783 505.921 550.204C505.363 549.624 504.601 549.284 503.797 549.256C502.993 549.284 502.231 549.624 501.673 550.204C501.114 550.783 500.801 551.558 500.801 552.363C500.801 553.169 501.114 553.944 501.673 554.523C502.231 555.103 502.993 555.442 503.797 555.47ZM512.234 537.077C513.038 537.049 513.8 536.709 514.359 536.129C514.918 535.55 515.23 534.775 515.23 533.97C515.23 533.164 514.918 532.39 514.359 531.81C513.8 531.23 513.038 530.891 512.234 530.863C511.43 530.891 510.669 531.23 510.11 531.81C509.551 532.39 509.239 533.164 509.239 533.97C509.239 534.775 509.551 535.55 510.11 536.129C510.669 536.709 511.43 537.049 512.234 537.077ZM472.529 517.192C473.333 517.163 474.095 516.824 474.654 516.244C475.212 515.665 475.525 514.89 475.525 514.084C475.525 513.279 475.212 512.504 474.654 511.925C474.095 511.345 473.333 511.006 472.529 510.977C471.725 511.006 470.964 511.345 470.405 511.925C469.846 512.504 469.534 513.279 469.534 514.084C469.534 514.89 469.846 515.665 470.405 516.244C470.964 516.824 471.725 517.163 472.529 517.192ZM440.765 520.671C441.569 520.643 442.331 520.304 442.889 519.724C443.448 519.144 443.761 518.37 443.761 517.564C443.761 516.759 443.448 515.984 442.889 515.405C442.331 514.825 441.569 514.485 440.765 514.457C439.961 514.485 439.199 514.825 438.641 515.405C438.082 515.984 437.769 516.759 437.769 517.564C437.769 518.37 438.082 519.144 438.641 519.724C439.199 520.304 439.961 520.643 440.765 520.671ZM453.173 501.78C453.977 501.752 454.739 501.413 455.297 500.833C455.856 500.254 456.169 499.479 456.169 498.673C456.169 497.868 455.856 497.093 455.297 496.514C454.739 495.934 453.977 495.595 453.173 495.566C452.369 495.595 451.607 495.934 451.048 496.514C450.49 497.093 450.177 497.868 450.177 498.673C450.177 499.479 450.49 500.254 451.048 500.833C451.607 501.413 452.369 501.752 453.173 501.78ZM487.419 498.301C488.223 498.272 488.984 497.933 489.543 497.353C490.102 496.774 490.414 495.999 490.414 495.194C490.414 494.388 490.102 493.613 489.543 493.034C488.984 492.454 488.223 492.115 487.419 492.087C486.615 492.115 485.853 492.454 485.294 493.034C484.735 493.613 484.423 494.388 484.423 495.194C484.423 495.999 484.735 496.774 485.294 497.353C485.853 497.933 486.615 498.272 487.419 498.301ZM507.768 507.746C508.571 507.718 509.333 507.378 509.892 506.799C510.451 506.219 510.763 505.445 510.763 504.639C510.763 503.833 510.451 503.059 509.892 502.479C509.333 501.9 508.571 501.56 507.768 501.532C506.964 501.56 506.202 501.9 505.643 502.479C505.084 503.059 504.772 503.833 504.772 504.639C504.772 505.445 505.084 506.219 505.643 506.799C506.202 507.378 506.964 507.718 507.768 507.746ZM496.849 476.427C497.653 476.399 498.414 476.059 498.973 475.48C499.532 474.9 499.844 474.126 499.844 473.32C499.844 472.514 499.532 471.74 498.973 471.16C498.414 470.581 497.653 470.241 496.849 470.213C496.045 470.241 495.283 470.581 494.724 471.16C494.165 471.74 493.853 472.514 493.853 473.32C493.853 474.126 494.165 474.9 494.724 475.48C495.283 476.059 496.045 476.399 496.849 476.427ZM467.07 479.907C467.874 479.879 468.635 479.539 469.194 478.959C469.753 478.38 470.065 477.606 470.065 476.8C470.065 475.994 469.753 475.22 469.194 474.64C468.635 474.06 467.874 473.721 467.07 473.693C466.266 473.721 465.504 474.06 464.945 474.64C464.386 475.22 464.074 475.994 464.074 476.8C464.074 477.606 464.386 478.38 464.945 478.959C465.504 479.539 466.266 479.879 467.07 479.907ZM441.758 480.404C442.562 480.376 443.323 480.036 443.882 479.457C444.441 478.877 444.753 478.103 444.753 477.297C444.753 476.491 444.441 475.717 443.882 475.137C443.323 474.558 442.562 474.218 441.758 474.19C440.954 474.218 440.192 474.558 439.633 475.137C439.074 475.717 438.762 476.491 438.762 477.297C438.762 478.103 439.074 478.877 439.633 479.457C440.192 480.036 440.954 480.376 441.758 480.404ZM449.202 460.519C450.006 460.491 450.768 460.151 451.327 459.571C451.886 458.992 452.198 458.217 452.198 457.412C452.198 456.606 451.886 455.832 451.327 455.252C450.768 454.672 450.006 454.333 449.202 454.305C448.398 454.333 447.637 454.672 447.078 455.252C446.519 455.832 446.207 456.606 446.207 457.412C446.207 458.217 446.519 458.992 447.078 459.571C447.637 460.151 448.398 460.491 449.202 460.519ZM477.492 457.039C478.296 457.011 479.058 456.671 479.617 456.091C480.176 455.512 480.488 454.738 480.488 453.932C480.488 453.126 480.176 452.352 479.617 451.772C479.058 451.193 478.296 450.853 477.492 450.825C476.688 450.853 475.927 451.193 475.368 451.772C474.809 452.352 474.497 453.126 474.497 453.932C474.497 454.738 474.809 455.512 475.368 456.091C475.927 456.671 476.688 457.011 477.492 457.039ZM421.905 461.016C422.709 460.988 423.471 460.648 424.029 460.068C424.588 459.489 424.901 458.715 424.901 457.909C424.901 457.103 424.588 456.329 424.029 455.749C423.471 455.17 422.709 454.83 421.905 454.802C421.101 454.83 420.339 455.17 419.781 455.749C419.222 456.329 418.909 457.103 418.909 457.909C418.909 458.715 419.222 459.489 419.781 460.068C420.339 460.648 421.101 460.988 421.905 461.016ZM435.802 443.119C436.606 443.091 437.367 442.751 437.926 442.172C438.485 441.592 438.797 440.818 438.797 440.012C438.797 439.206 438.485 438.432 437.926 437.853C437.367 437.273 436.606 436.933 435.802 436.905C434.998 436.933 434.236 437.273 433.677 437.853C433.119 438.432 432.806 439.206 432.806 440.012C432.806 440.818 433.119 441.592 433.677 442.172C434.236 442.751 434.998 443.091 435.802 443.119ZM461.61 443.616C462.414 443.588 463.176 443.249 463.735 442.669C464.294 442.089 464.606 441.315 464.606 440.509C464.606 439.704 464.294 438.929 463.735 438.35C463.176 437.77 462.414 437.43 461.61 437.402C460.806 437.43 460.045 437.77 459.486 438.35C458.927 438.929 458.615 439.704 458.615 440.509C458.615 441.315 458.927 442.089 459.486 442.669C460.045 443.249 460.806 443.588 461.61 443.616ZM488.411 438.645C489.215 438.617 489.977 438.277 490.536 437.698C491.095 437.118 491.407 436.344 491.407 435.538C491.407 434.732 491.095 433.958 490.536 433.378C489.977 432.799 489.215 432.459 488.411 432.431C487.607 432.459 486.846 432.799 486.287 433.378C485.728 433.958 485.416 434.732 485.416 435.538C485.416 436.344 485.728 437.118 486.287 437.698C486.846 438.277 487.607 438.617 488.411 438.645ZM505.286 452.068C506.09 452.039 506.852 451.7 507.41 451.12C507.969 450.541 508.282 449.766 508.282 448.961C508.282 448.155 507.969 447.38 507.41 446.801C506.852 446.221 506.09 445.882 505.286 445.853C504.482 445.882 503.72 446.221 503.161 446.801C502.603 447.38 502.29 448.155 502.29 448.961C502.29 449.766 502.603 450.541 503.161 451.12C503.72 451.7 504.482 452.039 505.286 452.068ZM511.738 488.358C512.542 488.33 513.304 487.99 513.862 487.411C514.421 486.831 514.734 486.057 514.734 485.251C514.734 484.445 514.421 483.671 513.862 483.091C513.304 482.512 512.542 482.172 511.738 482.144C510.934 482.172 510.172 482.512 509.614 483.091C509.055 483.671 508.742 484.445 508.742 485.251C508.742 486.057 509.055 486.831 509.614 487.411C510.172 487.99 510.934 488.33 511.738 488.358ZM472.033 424.228C472.837 424.2 473.598 423.861 474.157 423.281C474.716 422.701 475.028 421.927 475.028 421.121C475.028 420.315 474.716 419.541 474.157 418.962C473.598 418.382 472.837 418.042 472.033 418.014C471.229 418.042 470.467 418.382 469.908 418.962C469.35 419.541 469.037 420.315 469.037 421.121C469.037 421.927 469.35 422.701 469.908 423.281C470.467 423.861 471.229 424.2 472.033 424.228ZM446.224 423.731C447.028 423.703 447.79 423.363 448.349 422.784C448.908 422.204 449.22 421.43 449.22 420.624C449.22 419.818 448.908 419.044 448.349 418.464C447.79 417.885 447.028 417.545 446.224 417.517C445.42 417.545 444.659 417.885 444.1 418.464C443.541 419.044 443.229 419.818 443.229 420.624C443.229 421.43 443.541 422.204 444.1 422.784C444.659 423.363 445.42 423.703 446.224 423.731ZM416.942 429.2C417.746 429.171 418.507 428.832 419.066 428.252C419.625 427.673 419.937 426.898 419.937 426.093C419.937 425.287 419.625 424.513 419.066 423.933C418.507 423.353 417.746 423.014 416.942 422.986C416.138 423.014 415.376 423.353 414.817 423.933C414.259 424.513 413.946 425.287 413.946 426.093C413.946 426.898 414.259 427.673 414.817 428.252C415.376 428.832 416.138 429.171 416.942 429.2ZM428.853 413.789C429.657 413.76 430.419 413.421 430.978 412.841C431.537 412.262 431.849 411.487 431.849 410.682C431.849 409.876 431.537 409.101 430.978 408.522C430.419 407.942 429.657 407.603 428.853 407.575C428.049 407.603 427.288 407.942 426.729 408.522C426.17 409.101 425.858 409.876 425.858 410.682C425.858 411.487 426.17 412.262 426.729 412.841C427.288 413.421 428.049 413.76 428.853 413.789ZM456.647 407.326C457.451 407.298 458.213 406.958 458.772 406.379C459.33 405.799 459.643 405.025 459.643 404.219C459.643 403.413 459.33 402.639 458.772 402.059C458.213 401.48 457.451 401.14 456.647 401.112C455.843 401.14 455.081 401.48 454.523 402.059C453.964 402.639 453.651 403.413 453.651 404.219C453.651 405.025 453.964 405.799 454.523 406.379C455.081 406.958 455.843 407.298 456.647 407.326ZM483.944 402.355C484.748 402.327 485.51 401.987 486.069 401.407C486.628 400.828 486.94 400.053 486.94 399.248C486.94 398.442 486.628 397.667 486.069 397.088C485.51 396.508 484.748 396.169 483.944 396.141C483.14 396.169 482.379 396.508 481.82 397.088C481.261 397.667 480.949 398.442 480.949 399.248C480.949 400.053 481.261 400.828 481.82 401.407C482.379 401.987 483.14 402.327 483.944 402.355ZM491.885 413.291C492.689 413.263 493.451 412.924 494.01 412.344C494.569 411.764 494.881 410.99 494.881 410.184C494.881 409.379 494.569 408.604 494.01 408.025C493.451 407.445 492.689 407.105 491.885 407.077C491.081 407.105 490.32 407.445 489.761 408.025C489.202 408.604 488.89 409.379 488.89 410.184C488.89 410.99 489.202 411.764 489.761 412.344C490.32 412.924 491.081 413.263 491.885 413.291ZM500.323 423.731C501.127 423.703 501.888 423.363 502.447 422.784C503.006 422.204 503.318 421.43 503.318 420.624C503.318 419.818 503.006 419.044 502.447 418.464C501.888 417.885 501.127 417.545 500.323 417.517C499.519 417.545 498.757 417.885 498.198 418.464C497.639 419.044 497.327 419.818 497.327 420.624C497.327 421.43 497.639 422.204 498.198 422.784C498.757 423.363 499.519 423.703 500.323 423.731ZM439.276 397.383C440.08 397.355 440.842 397.016 441.4 396.436C441.959 395.856 442.272 395.082 442.272 394.276C442.272 393.47 441.959 392.696 441.4 392.117C440.842 391.537 440.08 391.197 439.276 391.169C438.472 391.197 437.71 391.537 437.152 392.117C436.593 392.696 436.28 393.47 436.28 394.276C436.28 395.082 436.593 395.856 437.152 396.436C437.71 397.016 438.472 397.355 439.276 397.383ZM408.505 401.36C409.308 401.332 410.07 400.993 410.629 400.413C411.188 399.833 411.5 399.059 411.5 398.253C411.5 397.448 411.188 396.673 410.629 396.094C410.07 395.514 409.308 395.174 408.505 395.146C407.701 395.174 406.939 395.514 406.38 396.094C405.821 396.673 405.509 397.448 405.509 398.253C405.509 399.059 405.821 399.833 406.38 400.413C406.939 400.993 407.701 401.332 408.505 401.36ZM467.566 391.418C468.37 391.39 469.132 391.05 469.69 390.47C470.249 389.891 470.562 389.116 470.562 388.311C470.562 387.505 470.249 386.731 469.69 386.151C469.132 385.571 468.37 385.232 467.566 385.204C466.762 385.232 466 385.571 465.442 386.151C464.883 386.731 464.57 387.505 464.57 388.311C464.57 389.116 464.883 389.891 465.442 390.47C466 391.05 466.762 391.39 467.566 391.418ZM489.404 387.938C490.208 387.91 490.97 387.57 491.528 386.99C492.087 386.411 492.4 385.637 492.4 384.831C492.4 384.025 492.087 383.251 491.528 382.671C490.97 382.092 490.208 381.752 489.404 381.724C488.6 381.752 487.838 382.092 487.279 382.671C486.721 383.251 486.408 384.025 486.408 384.831C486.408 385.637 486.721 386.411 487.279 386.99C487.838 387.57 488.6 387.91 489.404 387.938ZM378.229 412.794C379.033 412.766 379.795 412.427 380.354 411.847C380.913 411.267 381.225 410.493 381.225 409.687C381.225 408.882 380.913 408.107 380.354 407.528C379.795 406.948 379.033 406.608 378.229 406.58C377.425 406.608 376.664 406.948 376.105 407.528C375.546 408.107 375.234 408.882 375.234 409.687C375.234 410.493 375.546 411.267 376.105 411.847C376.664 412.427 377.425 412.766 378.229 412.794ZM393.615 423.731C394.419 423.703 395.181 423.363 395.74 422.784C396.298 422.204 396.611 421.43 396.611 420.624C396.611 419.818 396.298 419.044 395.74 418.464C395.181 417.885 394.419 417.545 393.615 417.517C392.811 417.545 392.049 417.885 391.491 418.464C390.932 419.044 390.619 419.818 390.619 420.624C390.619 421.43 390.932 422.204 391.491 422.784C392.049 423.363 392.811 423.703 393.615 423.731ZM386.17 440.136C386.974 440.108 387.736 439.769 388.295 439.189C388.854 438.609 389.166 437.835 389.166 437.029C389.166 436.224 388.854 435.449 388.295 434.87C387.736 434.29 386.974 433.95 386.17 433.922C385.366 433.95 384.605 434.29 384.046 434.87C383.487 435.449 383.175 436.224 383.175 437.029C383.175 437.835 383.487 438.609 384.046 439.189C384.605 439.769 385.366 440.108 386.17 440.136ZM395.6 458.033C396.404 458.005 397.166 457.665 397.725 457.086C398.284 456.506 398.596 455.732 398.596 454.926C398.596 454.12 398.284 453.346 397.725 452.766C397.166 452.187 396.404 451.847 395.6 451.819C394.796 451.847 394.035 452.187 393.476 452.766C392.917 453.346 392.605 454.12 392.605 454.926C392.605 455.732 392.917 456.506 393.476 457.086C394.035 457.665 394.796 458.005 395.6 458.033ZM389.148 472.45C389.952 472.422 390.714 472.082 391.273 471.503C391.832 470.923 392.144 470.149 392.144 469.343C392.144 468.537 391.832 467.763 391.273 467.183C390.714 466.604 389.952 466.264 389.148 466.236C388.344 466.264 387.583 466.604 387.024 467.183C386.465 467.763 386.153 468.537 386.153 469.343C386.153 470.149 386.465 470.923 387.024 471.503C387.583 472.082 388.344 472.422 389.148 472.45ZM361.851 440.634C362.655 440.605 363.417 440.266 363.975 439.686C364.534 439.107 364.847 438.332 364.847 437.527C364.847 436.721 364.534 435.946 363.975 435.367C363.417 434.787 362.655 434.448 361.851 434.419C361.047 434.448 360.285 434.787 359.726 435.367C359.168 435.946 358.855 436.721 358.855 437.527C358.855 438.332 359.168 439.107 359.726 439.686C360.285 440.266 361.047 440.605 361.851 440.634ZM366.814 465.49C367.618 465.462 368.38 465.122 368.939 464.543C369.497 463.963 369.81 463.189 369.81 462.383C369.81 461.577 369.497 460.803 368.939 460.223C368.38 459.644 367.618 459.304 366.814 459.276C366.01 459.304 365.248 459.644 364.69 460.223C364.131 460.803 363.818 461.577 363.818 462.383C363.818 463.189 364.131 463.963 364.69 464.543C365.248 465.122 366.01 465.462 366.814 465.49ZM408.008 477.918C408.812 477.89 409.574 477.551 410.133 476.971C410.691 476.391 411.004 475.617 411.004 474.811C411.004 474.006 410.691 473.231 410.133 472.652C409.574 472.072 408.812 471.732 408.008 471.704C407.204 471.732 406.443 472.072 405.884 472.652C405.325 473.231 405.013 474.006 405.013 474.811C405.013 475.617 405.325 476.391 405.884 476.971C406.443 477.551 407.204 477.89 408.008 477.918ZM393.119 491.838C393.923 491.81 394.684 491.47 395.243 490.891C395.802 490.311 396.114 489.537 396.114 488.731C396.114 487.925 395.802 487.151 395.243 486.571C394.684 485.992 393.923 485.652 393.119 485.624C392.315 485.652 391.553 485.992 390.994 486.571C390.435 487.151 390.123 487.925 390.123 488.731C390.123 489.537 390.435 490.311 390.994 490.891C391.553 491.47 392.315 491.81 393.119 491.838ZM413.964 496.809C414.768 496.781 415.53 496.441 416.088 495.862C416.647 495.282 416.96 494.508 416.96 493.702C416.96 492.896 416.647 492.122 416.088 491.542C415.53 490.963 414.768 490.623 413.964 490.595C413.16 490.623 412.398 490.963 411.84 491.542C411.281 492.122 410.968 492.896 410.968 493.702C410.968 494.508 411.281 495.282 411.84 495.862C412.398 496.441 413.16 496.781 413.964 496.809ZM401.556 506.255C402.36 506.227 403.122 505.887 403.681 505.307C404.239 504.728 404.552 503.953 404.552 503.148C404.552 502.342 404.239 501.568 403.681 500.988C403.122 500.408 402.36 500.069 401.556 500.041C400.752 500.069 399.99 500.408 399.432 500.988C398.873 501.568 398.56 502.342 398.56 503.148C398.56 503.953 398.873 504.728 399.432 505.307C399.99 505.887 400.752 506.227 401.556 506.255ZM292.315 149.263C292.287 150.415 291.809 151.51 290.983 152.312C290.172 153.124 289.236 153.799 288.211 154.313C286.199 155.345 284.029 156.033 281.791 156.35C280.637 156.519 279.461 156.459 278.33 156.172C277.2 155.886 276.137 155.378 275.203 154.678C274.262 153.983 273.503 153.072 272.989 152.02C272.475 150.969 272.222 149.81 272.25 148.639C272.354 147.977 272.669 147.366 273.149 146.898C273.595 146.478 274.105 146.13 274.659 145.868C275.703 145.342 276.741 144.961 277.743 144.556C278.727 144.17 279.679 143.705 280.589 143.168C281.034 142.902 281.451 142.609 281.869 142.315C282.36 141.962 282.875 141.643 283.41 141.361C284.557 140.756 285.876 140.561 287.148 140.808C288.383 141.104 289.469 141.837 290.206 142.872C291.518 144.75 292.251 146.972 292.315 149.263ZM292.145 149.263C292.001 147.095 291.009 145.072 289.385 143.633C288.714 142.972 287.845 142.55 286.911 142.433C285.977 142.316 285.031 142.511 284.219 142.986C283.785 143.189 283.388 143.507 282.955 143.767C282.482 144.117 281.984 144.432 281.465 144.71C280.45 145.242 279.393 145.692 278.306 146.055C277.252 146.434 276.185 146.718 275.221 147.097C274.257 147.484 273.403 147.94 273.164 148.818C273.009 149.852 273.149 150.909 273.567 151.867C273.985 152.825 274.665 153.645 275.528 154.233C276.424 154.773 277.424 155.116 278.462 155.241C279.5 155.365 280.552 155.267 281.55 154.953C283.596 154.433 285.75 153.899 287.8 153.326C288.83 153.042 289.805 152.587 290.686 151.981C291.127 151.677 291.489 151.271 291.743 150.799C291.997 150.326 292.134 149.8 292.145 149.263ZM276.86 114.456C276.837 115.411 276.622 116.351 276.226 117.22C275.83 118.089 275.263 118.868 274.557 119.511C273.159 120.816 271.557 121.885 269.816 122.676C266.373 124.267 262.73 125.381 258.988 125.988C257.084 126.326 255.132 126.278 253.247 125.848C251.362 125.418 249.583 124.615 248.013 123.485C246.443 122.346 245.182 120.832 244.343 119.082C243.505 117.332 243.115 115.4 243.21 113.461C243.396 112.421 243.913 111.47 244.683 110.749C245.427 110.085 246.266 109.538 247.173 109.127C248.916 108.285 250.686 107.673 252.404 106.996C254.108 106.347 255.758 105.565 257.339 104.657C258.12 104.206 258.852 103.693 259.582 103.178C260.386 102.604 261.226 102.084 262.099 101.621C263.921 100.643 266.021 100.311 268.055 100.679C270.043 101.134 271.812 102.266 273.057 103.883C274.263 105.384 275.187 107.092 275.786 108.923C276.427 110.701 276.789 112.567 276.86 114.456ZM276.689 114.456C276.606 112.599 276.15 110.777 275.348 109.1C274.6 107.432 273.543 105.92 272.235 104.643C271.019 103.42 269.458 102.6 267.762 102.293C266.084 102.074 264.38 102.409 262.908 103.246C262.137 103.666 261.39 104.129 260.669 104.631C259.886 105.207 259.066 105.73 258.215 106.198C256.528 107.102 254.773 107.869 252.966 108.495C251.196 109.146 249.397 109.661 247.734 110.355C246.923 110.678 246.155 111.104 245.45 111.621C244.802 112.132 244.336 112.841 244.123 113.639C243.91 115.441 244.19 117.268 244.932 118.923C245.674 120.579 246.852 122.001 248.338 123.039C249.869 124.01 251.586 124.649 253.378 124.916C255.171 125.184 256.999 125.073 258.746 124.591C262.292 123.767 265.934 122.835 269.405 121.69C271.151 121.128 272.791 120.28 274.26 119.181C274.997 118.631 275.6 117.919 276.021 117.1C276.442 116.282 276.671 115.377 276.689 114.456ZM269.283 67.5248C269.829 68.8531 270.101 70.2784 270.083 71.7149C270.029 73.1638 269.58 74.5703 268.785 75.7819C267.118 78.1222 264.942 80.0528 262.422 81.4281C257.447 84.1978 252.234 86.5146 246.845 88.3506C241.524 90.3366 236.134 92.0885 230.826 94.0371C228.176 95.02 225.522 95.9868 222.904 97.0347C220.261 98.0725 217.587 99.1075 214.847 99.9217C209.381 101.674 203.671 102.545 197.932 102.503C192.12 102.57 186.482 100.521 182.064 96.7379C177.988 92.6322 175.418 87.2651 174.774 81.5104C173.97 75.8351 174.041 70.0697 174.986 64.4162C176.312 58.8221 178.538 53.4813 181.576 48.603C184.537 43.6782 188.144 39.1728 192.3 35.2067C196.465 31.199 201.283 27.9343 206.547 25.5538C211.86 23.1832 217.638 22.0418 223.452 22.2145C229.268 22.3105 234.982 23.7587 240.144 26.445C245.222 29.2057 249.689 32.9673 253.276 37.5032C256.824 41.9755 259.878 46.8185 262.387 51.9481C264.949 57.0252 267.214 62.2382 269.283 67.5248ZM269.125 67.5883C264.843 57.1295 259.877 46.7051 252.425 38.2293C248.783 33.9817 244.364 30.4712 239.405 27.8872C234.427 25.4038 228.958 24.0652 223.397 23.9694C212.257 23.604 201.523 28.7602 193.391 36.3776C189.299 40.2185 185.702 44.557 182.685 49.2921C179.608 53.9975 177.315 59.1722 175.895 64.614C174.814 70.1512 174.636 75.827 175.365 81.4214C175.734 84.214 176.489 86.9415 177.609 89.5252C178.742 92.0961 180.394 94.4038 182.461 96.3028C186.778 99.9454 192.309 101.821 197.947 101.555C203.562 101.424 209.122 100.419 214.429 98.5751C219.781 96.9325 224.911 94.4091 230.333 92.6476C235.703 90.7897 241.107 89.0706 246.495 87.3411C251.909 85.7225 257.165 83.6147 262.198 81.0436C264.718 79.7775 266.896 77.9214 268.548 75.6328C269.335 74.4678 269.788 73.109 269.858 71.7041C269.893 70.2967 269.644 68.8968 269.125 67.5883Z" fill="white"/>
</svg>
