<svg width="549" height="618" viewBox="0 0 549 618" fill="none" xmlns="http://www.w3.org/2000/svg">
<path d="M66.6964 267.281C67.2471 271.733 68.426 276.083 70.1978 280.203C68.527 276.049 67.3517 271.711 66.6964 267.281ZM204.388 329.2C207.195 326.867 209.287 323.786 210.422 320.313C211.391 317.215 211.595 313.827 208.909 312.09C203.181 308.379 188.003 319.19 184.621 325.268C181.255 331.345 168.1 347.57 173.148 371.881C178.213 396.21 197.096 416.146 197.096 416.146C197.096 416.146 198.763 417.865 201.278 420.674L208.689 400.109C203.658 394.439 199.561 389.774 198.457 388.446C195.193 384.514 175.749 353.273 204.388 329.2ZM152.922 394.865C152.922 394.865 134.021 379.321 114.135 369.855C100.027 363.148 93.0416 352.541 94.367 344.165C94.7588 341.975 95.7496 339.937 97.229 338.278C98.7085 336.619 100.619 335.404 102.747 334.767C108.441 332.945 121.936 326.629 120.543 307.698L120.287 301.705C117.329 301.623 114.428 300.873 111.8 299.511C109.172 298.149 106.885 296.21 105.11 293.839C99.0411 285.736 88.418 281.684 71.9656 283.965L63.365 279.147C63.365 279.147 62.7359 263.655 66.2034 262.157C66.1528 260.999 66.1359 259.824 66.1528 258.632C66.1528 258.632 58.5548 260.318 59.8295 275.946C59.8295 275.946 56.7871 274.244 54.0848 256.691C54.0848 256.691 40.9288 260.403 44.651 286.077C45.8032 291.225 45.5747 296.588 43.9887 301.62C43.9887 301.62 38.5834 324.927 34.1981 338.444C29.8128 351.962 20.8728 384.82 42.119 447.148L53.0823 482.372C53.0823 482.372 58.4702 520.542 50.0398 527.981C50.0398 527.981 37.2242 529.48 41.9488 539.541C42.1801 540.042 42.49 540.501 42.8667 540.903C42.5104 540.278 42.3012 539.579 42.255 538.86C42.1959 538.15 42.2651 537.435 42.4592 536.749C42.6551 536.006 43.0554 535.334 43.6145 534.808C43.8837 534.527 44.2198 534.318 44.5913 534.202C44.9629 534.086 45.3578 534.066 45.7391 534.144C45.2789 534.558 44.9085 535.062 44.651 535.625C44.421 536.143 44.2336 536.678 44.0908 537.226C43.7675 538.478 43.3585 539.707 42.8667 540.903C44.0568 542.231 46.6064 543.934 51.3991 542.844L51.9087 542.793C51.1444 541.465 50.8452 539.919 51.0589 538.401C51.1656 537.617 51.4317 536.864 51.8407 536.187C52.0321 535.818 52.3161 535.504 52.6648 535.277C53.0135 535.05 53.415 534.918 53.8301 534.894C53.4317 535.438 53.1639 536.067 53.0474 536.732C52.9287 537.345 52.8267 537.975 52.742 538.639C52.6043 540.048 52.3251 541.44 51.9087 542.793L54.7645 542.538C54.6062 541.497 54.6348 540.436 54.8492 539.405C55.0973 538.36 55.5929 537.391 56.2941 536.579C56.9952 535.75 57.8569 535.073 58.827 534.587C59.7726 534.213 60.6643 533.715 61.4787 533.106C63.1118 531.924 64.4497 530.38 65.3876 528.594C66.1765 526.709 66.7412 524.738 67.0699 522.721C68.8579 514.612 70.0117 506.375 70.5207 498.086C71.2004 489.795 71.3191 481.47 71.2344 473.145C71.2178 468.974 71.0817 464.819 70.8941 460.649C70.7589 456.477 70.4866 452.323 70.1978 448.152C71.4383 456.422 72.2212 464.754 72.5431 473.111C72.8857 481.475 72.778 489.852 72.2203 498.205C71.6448 506.576 70.348 514.881 68.3445 523.028C67.9161 525.12 67.2431 527.154 66.3394 529.088C65.2677 530.973 63.7718 532.582 61.9707 533.787C61.0753 534.371 60.1103 534.84 59.0983 535.183C58.1714 535.572 57.333 536.145 56.6343 536.869C55.9347 537.624 55.4057 538.521 55.083 539.499C54.7604 540.478 54.6518 541.514 54.7645 542.538C54.7645 542.538 55.3421 544.496 58.6734 545.602C58.1116 544.108 58.0461 542.472 58.4866 540.938C58.7153 540.126 59.1219 539.376 59.6768 538.741C59.9533 538.379 60.3429 538.121 60.7833 538.007C61.2238 537.893 61.6898 537.929 62.1068 538.112C61.7949 538.232 61.5132 538.42 61.2812 538.661C61.0493 538.902 60.8728 539.191 60.764 539.507C60.5066 540.12 60.2966 540.752 60.1358 541.397C59.7749 542.84 59.2854 544.247 58.6734 545.602C61.2842 546.35 64.0207 546.553 66.713 546.198C66.1533 545.599 65.8017 544.835 65.7104 544.019C65.6133 543.201 65.6885 542.371 65.9311 541.584C66.1781 540.817 66.5846 540.111 67.1237 539.512C67.6629 538.914 68.3225 538.436 69.0591 538.112C68.8209 538.895 68.5147 539.559 68.2599 540.206C68.0051 540.869 67.7503 541.483 67.5462 542.112C67.1212 543.439 66.8475 544.81 66.7303 546.198C69.0047 545.994 71.2604 545.618 73.4784 545.075C73.4784 545.075 81.0756 544.189 81.8408 527.726C83.2202 520.13 85.5085 512.727 88.6562 505.679L93.976 487.565C94.7072 482.236 95.8458 477.044 96.9845 471.851L98.7522 464.087C99.2966 461.483 99.9763 458.929 100.299 456.273C100.56 458.957 100.48 461.663 100.061 464.326C99.7215 466.982 99.1945 469.604 98.6335 472.225C97.4956 477.456 95.9382 482.586 93.976 487.565C93.976 487.565 94.7411 501.882 109.018 517.205C107.089 508.897 105.996 500.416 105.755 491.889C105.473 483.282 106.745 474.694 109.511 466.539C112.442 458.325 117.93 451.271 125.166 446.416C132.45 441.777 141.007 439.549 149.624 440.049C145.396 440.138 141.202 440.826 137.165 442.092C133.151 443.299 129.349 445.125 125.897 447.505C122.477 449.888 119.458 452.801 116.956 456.137C114.497 459.507 112.528 463.21 111.109 467.135C108.344 475.091 106.975 483.466 107.064 491.889C107.022 496.117 107.192 500.345 107.574 504.556C107.795 506.667 107.914 508.795 108.203 510.889L109.018 517.205C109.018 517.205 105.619 523.674 94.4865 524.168C94.4865 524.168 87.6537 524.815 86.8885 533.43C86.8885 533.43 86.5151 538.316 97.6477 539.542C97.6477 539.542 109.409 541.823 116.497 537.771L123.228 538.112H125.727C123.862 533.631 122.781 528.863 122.531 524.015C122.01 515.266 123.465 506.511 126.787 498.403C130.109 490.294 135.214 483.04 141.721 477.18C160.111 460.411 179.556 460.717 185.08 461.194C182.173 438.159 173.793 412.435 152.922 394.865ZM54.3902 275.351C54.3902 275.351 53.5072 276.866 54.7645 280.424C54.7645 280.424 43.8867 277.632 53.2515 260.148C53.2515 260.148 54.7645 273.069 59.32 279.147C57.4649 278.185 55.7956 276.899 54.3902 275.351ZM98.5315 302.71C88.418 305.246 86.6337 296.376 86.6337 296.376C97.2568 295.627 98.5315 302.71 98.5315 302.71ZM60.5773 314.372C66.6237 312.91 72.7807 311.953 78.9851 311.511C82.0889 311.264 85.2034 311.179 88.316 311.256C91.4532 311.221 94.5701 311.763 97.5115 312.857C96.0011 312.557 94.4622 312.425 92.9229 312.465C91.3925 312.447 89.8629 312.533 88.316 312.584C85.2568 312.737 82.1803 312.975 79.1038 313.197C72.9515 313.657 66.7985 314.184 60.5773 314.372ZM66.1528 325.778C68.2388 323.883 70.5508 322.253 73.0362 320.926C75.5207 319.576 78.1272 318.465 80.8209 317.607C83.5136 316.742 86.2871 316.155 89.0986 315.852C91.8945 315.532 94.7183 315.543 97.5115 315.887C94.7247 316.261 91.9876 316.585 89.3019 317.163C86.6052 317.693 83.9431 318.387 81.3305 319.241C78.7078 320.058 76.1317 321.019 73.6139 322.118C71.0983 323.224 68.6002 324.399 66.1528 325.778ZM86.5151 325.642C82.6053 328.281 78.781 331.039 74.7533 333.627C77.9558 330.06 81.5867 326.903 85.5631 324.229C89.4761 321.425 93.8728 319.371 98.5316 318.168C94.3329 320.467 90.4074 322.986 86.5151 325.642Z" fill="#121214"/>
<path d="M66.2123 262.146C66.2123 262.146 66.2123 262.202 66.219 262.299C66.2123 262.25 66.2123 262.202 66.2051 262.153L66.2123 262.146Z" fill="white"/>
<path d="M92.5842 296.926C93.0649 297.321 93.4403 297.829 93.6767 298.405C93.8843 298.87 93.9908 299.374 93.9892 299.884C93.9937 300.393 93.8885 300.898 93.6809 301.363C93.4443 301.94 93.0673 302.448 92.5842 302.842C92.1012 302.448 91.7242 301.94 91.4874 301.363C91.2799 300.898 91.1749 300.393 91.1795 299.884C91.1779 299.374 91.2844 298.87 91.492 298.405C91.7283 297.829 92.1036 297.321 92.5842 296.926ZM66.2049 262.153C66.3846 264.011 66.6362 265.853 66.9597 267.677C67.2817 269.502 67.6423 271.321 68.1324 273.106C68.5686 274.905 69.1001 276.679 69.7247 278.422C70.3052 280.184 71.0521 281.88 71.7708 283.606C69.8109 280.406 68.3543 276.923 67.4523 273.279C66.5007 269.651 66.0805 265.903 66.2049 262.153ZM264.973 294.309C266.307 291.101 268.175 288.142 270.497 285.558C272.81 282.888 275.642 280.717 278.82 279.178C280.429 278.416 282.125 277.854 283.87 277.504C285.617 277.188 287.397 277.096 289.167 277.23C292.644 277.548 296.038 278.481 299.19 279.985C302.359 281.355 305.342 283.123 308.066 285.247C310.841 287.373 313.229 289.962 315.127 292.9C317.102 295.886 318.323 299.309 318.686 302.872C319.031 306.585 317.912 310.286 315.567 313.183L315.546 313.21C315.488 313.285 315.418 313.35 315.338 313.402C313.114 314.939 310.471 315.753 307.769 315.732C306.365 315.639 305.012 315.166 303.855 314.363C302.754 313.566 301.842 312.535 301.185 311.345C300.627 310.31 299.978 309.328 299.245 308.409C298.468 307.519 297.62 306.603 296.79 305.721C295.947 304.842 295.108 303.958 294.239 303.109C293.801 302.688 293.357 302.273 292.89 301.893C292.661 301.703 292.421 301.525 292.173 301.361C291.943 301.212 291.623 301.045 291.468 301.138L291.431 301.16C291.409 301.174 291.382 301.178 291.357 301.172C291.331 301.166 291.309 301.15 291.295 301.128C291.281 301.106 291.276 301.079 291.281 301.053C291.286 301.028 291.301 301.005 291.323 300.99C291.716 300.724 292.049 300.965 292.334 301.057C292.621 301.187 292.898 301.339 293.163 301.51C293.692 301.844 294.193 302.21 294.687 302.583C295.675 303.329 296.623 304.122 297.541 304.943C298.467 305.769 299.361 306.576 300.276 307.455C301.167 308.371 301.948 309.388 302.604 310.484C303.135 311.421 303.896 312.206 304.815 312.764C305.734 313.323 306.781 313.636 307.855 313.675C310.078 313.59 312.231 312.869 314.057 311.595L313.829 311.813C315.835 309.329 316.85 306.189 316.68 302.998C316.412 299.722 315.417 296.547 313.768 293.705C310.51 287.73 305.251 283.099 298.918 280.629C295.806 279.366 292.478 278.719 289.12 278.726C285.832 278.777 282.589 279.494 279.585 280.835C273.572 283.868 268.562 288.578 265.16 294.397C265.154 294.409 265.145 294.42 265.135 294.429C265.124 294.437 265.112 294.444 265.099 294.448C265.086 294.452 265.072 294.453 265.059 294.452C265.045 294.45 265.032 294.446 265.02 294.44C264.999 294.427 264.982 294.407 264.974 294.383C264.965 294.359 264.965 294.333 264.973 294.309Z" fill="#121214"/>
<path d="M366.692 290.977C362.946 291.631 359.334 292.903 356.003 294.741C352.606 296.458 349.325 298.4 346.086 300.403C339.591 304.388 333.307 308.719 327.113 313.168C320.921 317.621 314.795 322.168 308.735 326.807C302.676 331.443 296.708 336.21 290.77 340.986L290.762 340.993C290.627 341.101 290.465 341.169 290.293 341.189C290.121 341.209 289.948 341.179 289.792 341.104C289.636 341.029 289.505 340.911 289.414 340.765C289.322 340.618 289.274 340.448 289.275 340.275L289.359 319.303L289.583 298.33L290.026 298.916L284.572 297.461C282.755 296.966 280.899 296.657 279.063 296.245C277.228 295.815 275.353 295.648 273.498 295.336C271.636 295.077 269.756 295.005 267.884 294.862C264.139 294.701 260.39 295.037 256.733 295.863C255.825 296.073 254.933 296.351 254.066 296.694C253.193 297.011 252.345 297.396 251.53 297.844C249.903 298.691 248.513 299.933 247.488 301.456L247.52 301.35C246.75 308.643 246.131 315.953 245.663 323.281C245.18 330.609 244.916 337.923 244.931 345.262C244.895 359.933 245.266 374.614 245.665 389.281L245.658 389.187C245.95 390.6 246.46 391.958 247.17 393.214C247.539 393.846 247.955 394.45 248.416 395.02L249.111 395.869C249.366 396.132 249.645 396.371 249.909 396.623C252.132 398.588 254.808 399.968 257.695 400.639C263.705 401.722 269.879 401.466 275.779 399.89C278.759 399.213 281.801 398.406 284.833 397.601L293.956 395.363L312.244 391.174C324.432 388.41 336.651 385.819 348.696 382.569C351.721 381.803 354.691 380.865 357.692 380.017C360.644 379.034 363.645 378.17 366.543 377.039C372.438 375.084 378.036 372.323 383.177 368.834L383.191 368.823C383.282 368.757 383.394 368.73 383.505 368.748C383.615 368.765 383.714 368.826 383.78 368.916C383.834 368.99 383.863 369.08 383.861 369.171L383.539 388.932C383.539 388.959 383.528 388.985 383.508 389.004C383.489 389.023 383.463 389.034 383.436 389.034C383.409 389.034 383.383 389.023 383.363 389.004C383.344 388.985 383.333 388.959 383.333 388.932L383.011 369.171L383.695 369.508C378.563 373.184 372.931 376.104 366.971 378.179C364.063 379.373 361.066 380.293 358.106 381.335C355.108 382.24 352.131 383.237 349.11 384.059C337.061 387.487 324.894 390.448 312.706 393.216L294.454 397.453L285.374 399.709C282.367 400.511 279.375 401.336 276.256 402.029C270.028 403.634 263.522 403.838 257.205 402.626C253.99 401.849 251.019 400.281 248.562 398.064C246.077 395.777 244.398 392.746 243.774 389.424L243.767 389.362L243.767 389.328C243.613 381.98 243.587 374.636 243.559 367.29C243.547 359.943 243.579 352.596 243.723 345.248C243.827 337.901 244.231 330.54 244.843 323.223C245.419 315.898 246.043 308.581 246.875 301.276L246.879 301.246C246.882 301.219 246.892 301.192 246.907 301.169C249.154 297.782 252.924 296.203 256.562 295.201C260.278 294.326 264.094 293.948 267.909 294.08C271.706 294.244 275.489 294.649 279.235 295.293C281.095 295.667 282.98 295.94 284.822 296.398L290.355 297.744C290.48 297.774 290.592 297.846 290.672 297.947C290.753 298.048 290.797 298.173 290.799 298.303V298.33L291.023 319.303L291.107 340.275L289.611 339.565C295.537 334.712 301.607 330.067 307.703 325.447C313.815 320.852 319.967 316.303 326.271 311.967C332.574 307.633 338.966 303.418 345.575 299.548C348.892 297.635 352.262 295.808 355.74 294.195C359.172 292.455 362.868 291.297 366.679 290.77C366.706 290.768 366.732 290.776 366.753 290.793C366.774 290.81 366.787 290.835 366.79 290.862C366.793 290.889 366.785 290.916 366.769 290.937C366.752 290.958 366.728 290.972 366.701 290.976L366.692 290.977Z" fill="#121214"/>
<path d="M307.97 265.482L313.258 278.017L318.399 290.61L317.807 290.152C322.486 290.478 327.187 290.082 331.746 288.98C336.278 287.934 340.502 285.838 344.079 282.861C347.559 279.792 350.086 275.786 351.361 271.321C352.634 266.784 353.105 262.059 352.751 257.359L352.749 257.318L352.752 257.272C352.984 256.266 353.485 255.342 354.202 254.6C354.919 253.857 355.824 253.325 356.821 253.059C358.662 252.532 360.582 252.329 362.493 252.46C366.239 252.494 369.977 252.817 373.674 253.427C384.847 255.231 395.39 259.809 404.342 266.744L408.636 270.422C409.358 271.027 410.034 271.687 410.656 272.395L412.597 274.453C415.177 277.207 417.552 280.146 419.704 283.247C420.825 284.765 421.688 286.45 422.693 288.045C423.631 289.679 424.71 291.241 425.531 292.935L427.959 298.038C428.821 299.713 429.583 301.438 430.242 303.203C431.491 306.748 432.837 310.283 434.003 313.835L440.822 335.148C443.119 342.244 445.558 349.29 448.066 356.309C449.339 359.81 450.666 363.294 452.084 366.735C452.793 368.457 453.521 370.172 454.333 371.844C455.048 373.538 456.007 375.118 457.181 376.533L457.232 376.585C457.249 376.603 457.258 376.627 457.258 376.652C457.259 376.677 457.249 376.701 457.232 376.718C457.215 376.736 457.191 376.747 457.167 376.748C457.142 376.749 457.118 376.74 457.099 376.723C455.789 375.354 454.703 373.786 453.881 372.078C452.973 370.438 452.148 368.756 451.344 367.065C449.718 363.69 448.309 360.224 446.885 356.765C444.064 349.837 441.508 342.808 439.035 335.755C436.529 328.712 434.243 321.597 431.964 314.481C430.784 310.946 429.451 307.509 428.205 304.018C427.568 302.282 426.838 300.583 426.017 298.926L423.7 293.888C422.915 292.214 421.878 290.678 420.98 289.066C420.017 287.493 419.192 285.825 418.116 284.329L414.858 279.856C413.8 278.344 412.628 276.916 411.352 275.585L409.509 273.519C408.92 272.808 408.277 272.144 407.586 271.533L403.482 267.815C400.62 265.477 397.573 263.376 394.372 261.532C387.94 257.815 380.896 255.283 373.572 254.056C369.908 253.465 366.2 253.186 362.489 253.223C360.672 253.109 358.849 253.331 357.112 253.878C356.306 254.117 355.577 254.565 354.999 255.177C354.421 255.788 354.015 256.542 353.821 257.362V257.275C354.361 262.12 354.044 267.023 352.885 271.758C351.651 276.587 349.002 280.935 345.278 284.241C341.494 287.426 336.983 289.625 332.146 290.641C327.395 291.749 322.495 292.071 317.64 291.595C317.509 291.581 317.384 291.531 317.279 291.45C317.175 291.369 317.095 291.26 317.048 291.136L312.339 278.376L307.777 265.557C307.768 265.532 307.769 265.504 307.78 265.479C307.791 265.455 307.811 265.435 307.837 265.426C307.862 265.416 307.89 265.416 307.915 265.427C307.939 265.437 307.959 265.457 307.97 265.482ZM286.656 261.045C279.27 263.444 272.188 266.694 265.55 270.73C258.901 274.677 252.748 279.41 247.225 284.827C241.698 290.203 236.969 296.343 233.18 303.062C229.405 309.839 225.579 316.678 221.617 323.37C217.658 330.068 213.563 336.694 210.152 343.616C208.406 347.023 207.033 350.61 206.058 354.313C205.054 357.927 205.134 361.757 206.288 365.326C207.728 368.83 210.036 371.908 212.994 374.271C215.903 376.782 219.116 378.917 222.558 380.623C229.53 384.039 236.992 386.342 244.674 387.447C240.792 387.1 236.945 386.422 233.178 385.419C229.385 384.449 225.685 383.15 222.117 381.538C218.539 379.88 215.187 377.771 212.142 375.263C210.624 373.982 209.206 372.587 207.901 371.09C206.593 369.534 205.546 367.776 204.799 365.885C203.417 362.035 203.249 357.853 204.316 353.904C205.292 350.062 206.681 346.337 208.458 342.794C211.88 335.716 215.927 329.043 219.839 322.316C223.863 315.643 227.694 308.921 231.549 302.131C235.439 295.273 240.355 289.052 246.126 283.686C257.59 272.94 271.504 265.167 286.656 261.045Z" fill="#121214"/>
<path d="M216.674 348.292C218.479 346.553 220.494 345.048 222.672 343.812C224.845 342.543 227.14 341.497 229.523 340.689C231.935 339.904 234.436 339.428 236.968 339.271C239.501 339.155 242.03 339.558 244.402 340.458C241.971 340.374 239.537 340.515 237.132 340.879C234.774 341.316 232.448 341.91 230.169 342.656C227.879 343.396 225.64 344.308 223.396 345.25C221.161 346.216 218.936 347.233 216.674 348.292ZM383.436 369.171C386.162 367.018 388.711 364.722 391.229 362.397C393.726 360.049 396.164 357.645 398.542 355.183C400.928 352.726 403.241 350.197 405.546 347.647C407.854 345.098 410.095 342.484 412.471 339.936C410.792 342.984 408.894 345.905 406.792 348.676C404.698 351.458 402.439 354.112 400.027 356.623C397.6 359.127 395.009 361.465 392.271 363.623C389.554 365.814 386.589 367.677 383.436 369.171ZM374.503 287.518C378.239 286.705 382.09 286.569 385.874 287.115C389.716 287.634 393.427 288.865 396.817 290.746C398.507 291.711 400.106 292.826 401.595 294.079C403.027 295.39 404.322 296.844 405.459 298.418C406.062 299.171 406.599 299.974 407.065 300.818L408.379 303.381C408.788 304.245 409.125 305.141 409.385 306.06C409.693 306.961 409.975 307.866 410.237 308.77C408.62 305.415 406.591 302.276 404.198 299.425C403.013 298.039 401.719 296.751 400.328 295.574C398.907 294.443 397.394 293.433 395.807 292.552C392.61 290.77 389.168 289.472 385.592 288.701C381.949 287.904 378.231 287.507 374.503 287.518ZM258.245 467.939L247.669 484.084C244.145 489.467 240.588 494.826 236.996 500.161C236.913 500.285 236.799 500.385 236.667 500.452C236.534 500.519 236.386 500.55 236.237 500.543C236.088 500.535 235.944 500.49 235.818 500.41C235.693 500.331 235.589 500.22 235.519 500.089L235.488 500.032C232.931 495.449 229.776 491.228 226.106 487.479C222.442 483.692 218.471 480.215 214.235 477.084C212.053 475.607 209.937 474.033 207.643 472.727C206.507 472.059 205.408 471.33 204.243 470.712L200.743 468.871C199.591 468.231 198.394 467.677 197.185 467.149L193.58 465.523C191.144 464.515 188.654 463.632 186.196 462.679L186.167 462.667C185.834 462.538 185.564 462.284 185.414 461.959C185.264 461.634 185.246 461.263 185.364 460.925C187.8 453.943 190.388 447.016 192.903 440.063C195.429 433.113 197.953 426.163 200.569 419.245L216.107 377.686C216.164 377.534 216.279 377.411 216.426 377.344C216.574 377.277 216.742 377.271 216.893 377.328C216.927 377.341 216.96 377.357 216.992 377.375C221.242 379.892 225.706 382.027 230.333 383.754C234.927 385.551 239.768 386.633 244.689 386.962C244.811 386.968 244.926 387.019 245.012 387.107C245.097 387.194 245.145 387.311 245.147 387.434L245.148 387.469C245.235 389.154 245.706 390.796 246.524 392.27C247.347 393.778 248.397 395.151 249.637 396.339C250.881 397.54 252.248 398.607 253.715 399.522L255.978 400.809L258.338 401.924L258.349 401.929C258.446 401.975 258.528 402.048 258.586 402.138C258.644 402.228 258.676 402.333 258.677 402.441L259.48 482.874L259.679 523.091C259.773 536.497 259.763 549.902 259.723 563.308V563.317C259.721 563.584 259.653 563.847 259.525 564.082C258.693 565.528 257.51 566.74 256.084 567.606C254.779 568.419 253.366 569.045 251.888 569.465C249.088 570.257 246.205 570.715 243.297 570.828C237.65 571.055 231.994 570.813 226.387 570.103C215.302 568.65 204.307 566.577 193.453 563.895C182.599 561.329 171.869 558.31 161.206 555.103C150.537 551.911 139.958 548.441 129.471 544.695L129.461 544.692C129.412 544.674 129.368 544.643 129.336 544.602C127.789 542.647 126.526 540.483 125.583 538.173C125.568 538.136 125.567 538.093 125.583 538.056C125.598 538.018 125.627 537.988 125.664 537.971C125.702 537.955 125.744 537.954 125.782 537.969C125.82 537.983 125.85 538.012 125.867 538.049C126.881 540.28 128.204 542.357 129.798 544.218L129.663 544.126C140.276 547.434 150.976 550.466 161.687 553.415C172.41 556.329 183.187 558.999 194.018 561.427C204.808 563.904 215.727 565.776 226.725 567.035C232.162 567.687 237.642 567.9 243.112 567.671C245.767 567.561 248.4 567.139 250.956 566.412C253.292 565.893 255.345 564.508 256.703 562.535L256.506 563.308C256.466 549.902 256.456 536.497 256.549 523.091L256.749 482.874L257.552 402.441L257.89 402.957L255.469 401.789L253.138 400.439C251.613 399.472 250.194 398.346 248.904 397.081C247.6 395.809 246.498 394.344 245.639 392.736C244.747 391.101 244.251 389.277 244.191 387.414L244.65 387.921C242.139 387.758 239.643 387.405 237.185 386.865C234.744 386.294 232.336 385.586 229.974 384.743C225.258 383.039 220.702 380.919 216.36 378.407L217.244 378.096L202.756 420.034C200.367 427.034 197.886 433.999 195.407 440.966C192.916 447.928 190.499 454.917 187.931 461.852L187.099 460.099C189.605 461.097 192.14 462.026 194.62 463.084L198.294 464.785C199.525 465.338 200.743 465.917 201.919 466.585L205.484 468.507C206.67 469.152 207.792 469.911 208.948 470.607C211.283 471.97 213.443 473.605 215.662 475.144C219.999 478.383 224.019 482.026 227.671 486.023C231.385 490.007 234.546 494.474 237.069 499.303L235.562 499.174C239.26 493.911 242.982 488.665 246.727 483.435L257.989 467.763C258.013 467.73 258.048 467.708 258.088 467.701C258.128 467.694 258.169 467.703 258.203 467.726C258.236 467.749 258.259 467.784 258.267 467.824C258.275 467.864 258.267 467.906 258.245 467.939Z" fill="#121214"/>
<path d="M219.901 507.622C222.999 506.321 226.232 505.37 229.54 504.786C232.859 504.144 236.236 503.857 239.614 503.929C243.028 503.972 246.414 504.54 249.655 505.614C252.895 506.693 255.808 508.582 258.118 511.102C255.39 509.287 252.371 507.955 249.194 507.163C248.399 507.003 247.61 506.835 246.826 506.648L244.419 506.327C243.622 506.191 242.806 506.165 241.998 506.104C241.189 506.044 240.381 505.98 239.564 505.999C236.292 505.921 233.019 506.048 229.763 506.381C226.488 506.696 223.208 507.109 219.901 507.622ZM190.265 462.724C185.255 474.145 179.689 485.277 173.988 496.338C168.23 507.37 162.334 518.33 155.877 528.998C160.882 517.574 166.448 506.443 172.154 495.384C177.915 484.353 183.812 473.394 190.265 462.724Z" fill="#121214"/>
<path d="M197.816 539.935C202.692 531.426 208.074 523.268 213.596 515.204C219.167 507.176 224.861 499.233 231.079 491.652C226.208 500.164 220.82 508.319 215.296 516.38C209.721 524.405 204.031 532.351 197.816 539.935ZM182.684 582.818C189.686 582.41 196.672 581.899 203.658 581.354C203.05 584.266 201.67 586.959 199.663 589.152C199.663 589.152 85.2746 600.337 68.1581 591.382C68.1581 591.382 62.1926 576.843 72.9858 571.633C76.5719 569.897 84.5774 566.713 94.4353 562.542C97.4072 563.032 100.3 563.919 103.036 565.181C105.754 566.427 108.274 568.067 110.514 570.05C111.621 571.041 112.649 572.117 113.591 573.268C114.488 574.444 115.289 575.691 115.988 576.996C117.365 579.614 118.356 582.418 118.928 585.321L118.945 585.338C118.981 585.503 119.074 585.65 119.208 585.753C119.342 585.855 119.507 585.908 119.676 585.9L140.684 585.049L161.693 584.027C168.695 583.704 175.681 583.244 182.684 582.818Z" fill="#121214"/>
<path d="M197.811 539.933C163.443 556.958 155.879 529.003 155.879 529.003C150.59 533.555 144.876 537.586 138.815 541.04C140.209 541.102 141.575 541.456 142.826 542.078C144.154 542.718 145.366 543.575 146.412 544.615C147.449 545.648 148.31 546.844 148.961 548.156C149.614 549.455 150.023 550.863 150.168 552.31C149.336 551.118 148.655 549.927 147.823 548.854C147.038 547.771 146.162 546.758 145.205 545.824C144.27 544.872 143.252 544.005 142.163 543.236C141.068 542.444 139.921 541.728 138.729 541.091C135.976 542.726 133.126 544.326 130.18 545.892C131.499 545.974 132.789 546.321 133.971 546.914C136.635 548.192 138.791 550.333 140.09 552.991C140.749 554.288 141.158 555.697 141.296 557.145C140.481 555.936 139.783 554.762 138.968 553.689C138.177 552.606 137.302 551.587 136.35 550.642C135.405 549.694 134.382 548.829 133.291 548.054C132.232 547.282 131.119 546.587 129.959 545.977C126.951 547.577 123.875 549.144 120.781 550.659C122.233 550.696 123.66 551.051 124.962 551.698C127.632 552.982 129.794 555.128 131.098 557.792C131.75 559.086 132.159 560.488 132.305 561.929C131.489 560.737 130.792 559.546 129.959 558.474C129.18 557.391 128.31 556.377 127.359 555.443C126.418 554.491 125.394 553.625 124.3 552.855C123.181 552.039 122.005 551.305 120.781 550.659C111.687 555.103 102.441 559.155 94.4355 562.542C97.4645 562.824 100.436 563.547 103.257 564.688C106.106 565.813 108.757 567.388 111.11 569.352C112.295 570.338 113.398 571.42 114.407 572.587C115.385 573.787 116.266 575.062 117.042 576.4C118.485 578.901 119.544 581.604 120.186 584.419L140.617 583.381L161.625 582.513C168.627 582.189 175.63 582.002 182.633 581.798C189.636 581.576 196.655 581.457 203.658 581.355C207.498 565.691 197.811 539.933 197.811 539.933ZM181.935 570.901C175.358 570.901 175.374 560.686 181.935 560.686C188.513 560.686 188.496 570.901 181.935 570.901Z" fill="#121214"/>
<path d="M130.145 545.892C130.077 545.926 130.025 545.943 129.957 545.977C129.89 545.943 129.839 545.909 129.771 545.875C129.896 545.872 130.021 545.878 130.145 545.892ZM138.814 541.039C138.78 541.057 138.763 541.073 138.729 541.091C138.695 541.074 138.678 541.057 138.644 541.039H138.814Z" fill="white"/>
<path d="M258.118 402.443C258.118 402.443 244.717 408.693 301.297 414.659L490.89 384.334L461.111 372.9L258.118 402.443Z" fill="#121214"/>
<path d="M258.273 402.443C258.581 417.049 258.85 431.655 258.983 446.262C259.141 460.868 259.325 475.474 259.35 490.08C259.391 504.686 259.531 519.292 259.491 533.898C259.442 548.504 259.416 563.11 259.207 577.716L258.49 576.692L289.133 588.231C299.335 592.113 309.602 595.811 319.834 599.611L319.556 599.592C328.008 597.871 336.433 596.018 344.865 594.206L370.147 588.696L420.675 577.504C437.516 573.767 454.359 570.038 471.226 566.422C488.092 562.802 504.934 559.066 521.82 555.541L520.535 557.301C519.057 542.72 517.406 528.146 515.582 513.58C513.773 499.023 511.957 484.465 509.827 469.954C507.681 455.447 505.451 440.947 502.661 426.557C501.251 419.366 499.741 412.193 497.962 405.088C496.343 397.947 493.926 391.011 490.756 384.412L490.751 384.403C490.733 384.367 490.729 384.325 490.741 384.286C490.752 384.247 490.779 384.214 490.815 384.195C490.851 384.175 490.893 384.171 490.932 384.182C490.971 384.193 491.004 384.219 491.024 384.255C494.442 390.784 497.113 397.679 498.987 404.808C501.045 411.874 502.745 419.033 504.314 426.215C507.456 440.58 510.063 455.052 512.368 469.565C514.676 484.077 516.823 498.615 518.682 513.189C520.534 527.766 522.234 542.362 523.78 556.976C523.822 557.373 523.716 557.772 523.483 558.096C523.249 558.42 522.905 558.646 522.515 558.732L522.496 558.736C505.632 562.369 488.724 565.792 471.841 569.33C454.958 572.871 438.052 576.302 421.144 579.723L370.424 590.005L345.082 595.232C336.64 596.998 328.189 598.725 319.766 600.584C319.674 600.602 319.578 600.596 319.488 600.564C309.206 596.907 298.959 593.148 288.646 589.574L257.747 578.741C257.54 578.669 257.361 578.535 257.233 578.357C257.104 578.179 257.034 577.966 257.03 577.747L257.03 577.716C256.821 563.11 256.795 548.504 256.745 533.898C256.705 519.292 256.845 504.686 256.886 490.08C256.911 475.474 257.095 460.868 257.253 446.262C257.387 431.655 257.655 417.049 257.963 402.443C257.964 402.403 257.981 402.364 258.01 402.336C258.039 402.307 258.078 402.291 258.118 402.291C258.159 402.291 258.198 402.307 258.227 402.336C258.256 402.364 258.272 402.403 258.273 402.443Z" fill="#121214"/>
<path d="M301.296 414.659C302.164 422.141 302.9 429.633 303.706 437.119L305.901 459.593C307.333 474.584 308.618 489.56 309.946 504.587C311.017 519.618 311.882 534.656 312.539 549.7L313.374 572.273C313.554 579.801 313.786 587.327 313.855 594.858L310.951 549.784C309.978 534.764 309.117 519.737 307.886 504.746L304.323 459.731L302.702 437.202C302.236 429.687 301.7 422.177 301.296 414.659ZM264.086 573.754C266.151 573.816 268.192 573.297 269.978 572.258C271.717 571.208 273.147 569.716 274.122 567.933C275.964 564.258 276.85 560.177 276.701 556.068C277.036 547.669 277.26 539.265 277.746 530.87L279.399 505.698C279.892 497.306 280.252 488.908 280.478 480.504C280.481 480.383 280.531 480.269 280.616 480.184C280.701 480.099 280.815 480.05 280.935 480.047C281.056 480.044 281.172 480.087 281.261 480.168C281.35 480.249 281.405 480.361 281.414 480.481L281.416 480.504L283.389 508.288L285.255 536.069L286.187 549.95C286.341 552.261 286.509 554.572 286.715 556.872C286.818 558.02 286.927 559.172 287.076 560.296C287.141 560.852 287.238 561.44 287.339 561.889L287.405 562.149L287.604 562.571C287.744 562.856 287.852 563.127 287.967 563.402C288.785 565.548 289.715 567.65 290.755 569.697C291.822 571.719 293.07 573.64 294.483 575.436C297.354 579.051 300.663 582.294 304.334 585.09C304.345 585.098 304.354 585.108 304.361 585.12C304.368 585.132 304.372 585.144 304.374 585.158C304.376 585.171 304.375 585.185 304.372 585.198C304.369 585.211 304.363 585.224 304.354 585.235C304.338 585.256 304.315 585.27 304.289 585.274C304.263 585.278 304.236 585.273 304.214 585.258C300.297 582.702 296.743 579.628 293.649 576.119C290.597 572.529 288.164 568.454 286.45 564.062C286.333 563.805 286.219 563.54 286.095 563.308L285.913 562.948L285.708 562.381C285.552 561.779 285.43 561.169 285.342 560.553C285.153 559.381 285.01 558.225 284.873 557.064C284.6 554.746 284.366 552.432 284.145 550.117C283.734 545.484 283.369 540.851 283.048 536.218C282.406 526.949 281.981 517.67 281.51 508.395C281.065 499.119 280.775 489.835 280.478 480.552L281.416 480.553C280.873 488.939 280.463 497.332 280.186 505.732L279.529 530.932C279.245 539.329 278.699 547.716 278.264 556.108C278.263 560.443 277.147 564.704 275.025 568.482C273.912 570.351 272.287 571.86 270.344 572.831C268.4 573.802 266.218 574.194 264.059 573.96C264.033 573.956 264.009 573.942 263.992 573.922C263.976 573.901 263.968 573.875 263.97 573.849C263.972 573.822 263.984 573.798 264.004 573.78C264.024 573.763 264.049 573.753 264.076 573.754L264.086 573.754ZM355.808 405.94C355.808 405.94 387.335 398.714 387.977 468.933C388.048 476.698 388.331 487.269 390.136 494.821C393.845 510.331 401.662 528.131 411.596 513.049C414.93 507.87 416.638 501.809 416.501 495.648C416.4 487.37 414.413 475.013 405.026 465.366C389.477 449.387 393.487 444.486 394.975 435.538C396.464 426.59 400.117 420.561 390.136 411.303L380.156 402.045L397.953 399.199C407.756 402.132 415.945 414.162 415.449 425.098C415.368 426.869 415.236 428.678 415.07 430.467C414.033 441.578 416.857 452.707 423.064 461.973C429.618 471.738 436.79 485.629 436.79 499.668C436.79 525.519 408.5 560.815 383.436 532.851C358.372 504.888 367.802 499.668 368.795 458.903C369.788 418.139 328.61 410.29 328.61 410.29L355.808 405.94ZM288.047 182.24C284.274 190.052 281.486 198.304 279.75 206.807C279.425 208.939 279.265 211.093 279.271 213.25C279.179 215.455 279.015 217.659 278.727 219.852C278.526 222.089 277.885 224.264 276.84 226.252C276.198 227.163 275.462 228.003 274.643 228.758C273.979 229.482 273.589 230.416 273.54 231.398C273.543 231.833 273.677 232.257 273.924 232.614C274.171 232.972 274.519 233.247 274.924 233.403C275.302 233.592 275.91 233.792 276.412 234.024C277.047 234.27 277.61 234.673 278.049 235.195C278.426 235.768 278.66 236.423 278.73 237.106C278.823 237.686 278.881 238.227 278.949 238.773C279.084 239.857 279.192 240.935 279.351 242.003C279.881 246.246 280.98 250.398 282.619 254.347C284.206 258.196 287.069 261.603 291.294 261.766C295.631 262.165 299.973 262.601 304.336 263.179L304.347 263.181C304.373 263.184 304.396 263.197 304.413 263.217C304.429 263.237 304.438 263.263 304.436 263.289C304.435 263.315 304.424 263.339 304.405 263.357C304.387 263.376 304.362 263.386 304.336 263.387C299.967 263.492 295.579 263.455 291.184 263.382C290.605 263.377 290.027 263.318 289.459 263.206L288.566 263.062C288.276 262.978 287.992 262.876 287.715 262.756C286.581 262.341 285.534 261.72 284.626 260.923C282.894 259.35 281.525 257.418 280.611 255.262C278.867 251.119 277.791 246.725 277.421 242.244C277.299 241.139 277.203 240.038 277.132 238.941C277.156 237.995 277.015 237.052 276.716 236.154C276.451 235.832 276.112 235.579 275.728 235.417C275.256 235.151 274.829 234.983 274.248 234.644C273.67 234.318 273.185 233.85 272.838 233.284C272.504 232.701 272.354 232.03 272.408 231.359C272.54 230.139 273.099 229.004 273.986 228.156C274.401 227.717 274.874 227.406 275.233 227.057C275.606 226.695 275.94 226.293 276.227 225.859C277.298 223.999 277.925 221.915 278.06 219.772C278.249 217.605 278.269 215.427 278.119 213.258C277.908 211.04 277.882 208.809 278.043 206.587C278.614 202.165 279.818 197.848 281.618 193.769C283.332 189.704 285.424 185.809 287.868 182.137C287.875 182.125 287.885 182.116 287.897 182.108C287.908 182.101 287.921 182.096 287.934 182.093C287.947 182.091 287.961 182.091 287.975 182.093C287.988 182.096 288.001 182.102 288.012 182.109C288.032 182.124 288.046 182.145 288.053 182.168C288.059 182.192 288.057 182.218 288.047 182.24Z" fill="#121214"/>
<path d="M273.16 211.76C274.431 214.808 275.491 217.93 276.664 221.012C277.698 224.144 278.843 227.236 279.778 230.402C279.788 230.437 279.788 230.473 279.777 230.507C279.767 230.542 279.746 230.572 279.719 230.594C279.691 230.617 279.657 230.631 279.622 230.634C279.586 230.637 279.55 230.63 279.519 230.613L279.388 230.541C277.72 229.613 276.269 228.341 275.129 226.808C274.12 225.469 273.323 223.982 272.768 222.4C272.208 220.818 271.892 219.161 271.829 217.484C271.749 215.577 272.07 213.674 272.771 211.899L272.826 211.762C272.84 211.729 272.863 211.7 272.892 211.68C272.922 211.66 272.957 211.649 272.993 211.649C273.029 211.649 273.064 211.659 273.093 211.679C273.123 211.699 273.147 211.727 273.16 211.76Z" fill="#121214"/>
<path d="M322.206 223.255C322.184 223.255 322.163 223.253 322.142 223.25C322.075 223.241 322.009 223.22 321.95 223.187C321.891 223.153 321.839 223.108 321.797 223.055C321.756 223.001 321.725 222.94 321.707 222.874C321.689 222.809 321.684 222.74 321.692 222.673C321.72 222.362 321.681 222.049 321.576 221.755C321.472 221.461 321.305 221.193 321.088 220.97C315.151 213.987 273.369 212.363 272.947 212.346C272.81 212.341 272.681 212.282 272.587 212.181C272.494 212.081 272.444 211.947 272.449 211.809C272.445 211.74 272.456 211.67 272.482 211.605C272.508 211.539 272.548 211.481 272.599 211.433C272.651 211.386 272.712 211.35 272.779 211.329C272.845 211.308 272.916 211.303 272.985 211.312C274.724 211.376 315.646 212.973 321.875 220.299C322.187 220.63 322.423 221.026 322.568 221.457C322.714 221.888 322.765 222.346 322.718 222.799C322.703 222.924 322.642 223.04 322.548 223.124C322.454 223.208 322.332 223.254 322.206 223.255Z" fill="#121214"/>
<path d="M318.995 239.253C329.79 251.743 353.287 257.317 353.287 257.317C363.896 252.47 364.082 209.779 360.545 185.358C357.009 160.936 327.23 166.902 319.512 169.698C311.793 172.494 288.652 175.104 288.652 175.104C288.652 175.104 294.101 221.71 305.641 224.134C305.641 224.134 315.728 213.638 319.129 221.869C319.672 223.247 319.895 224.731 319.782 226.209L318.995 239.253Z" fill="#121214"/>
<path d="M313.918 245.285C312.158 245.19 310.452 244.64 308.965 243.691C308.847 243.623 308.76 243.51 308.724 243.377C308.688 243.245 308.706 243.104 308.775 242.984C308.843 242.865 308.955 242.778 309.088 242.743C309.22 242.707 309.361 242.725 309.48 242.793C312.079 244.283 314.186 244.629 315.746 243.827C318.165 242.574 318.543 238.909 318.546 238.873C318.551 238.805 318.57 238.738 318.601 238.678C318.633 238.617 318.676 238.563 318.729 238.52C318.781 238.476 318.842 238.444 318.908 238.425C318.973 238.405 319.042 238.399 319.11 238.407C319.177 238.414 319.243 238.434 319.303 238.465C319.363 238.497 319.416 238.541 319.459 238.593C319.503 238.646 319.535 238.706 319.555 238.771C319.575 238.837 319.582 238.905 319.575 238.973C319.559 239.146 319.135 243.237 316.221 244.747C315.508 245.11 314.718 245.295 313.918 245.285ZM278.766 244.767C279.141 245.79 279.827 246.67 280.729 247.281C281.169 247.526 281.654 247.68 282.155 247.734C282.657 247.787 283.163 247.738 283.645 247.589C285.747 246.893 287.758 245.945 289.633 244.767C288.136 246.59 286.129 247.925 283.87 248.6C283.259 248.775 282.616 248.807 281.99 248.692C281.365 248.578 280.775 248.32 280.266 247.938C279.804 247.548 279.43 247.063 279.172 246.516C278.913 245.969 278.774 245.372 278.766 244.767ZM281.941 223.637C282.744 223.608 283.506 223.269 284.065 222.689C284.624 222.11 284.936 221.335 284.936 220.53C284.936 219.724 284.624 218.949 284.065 218.37C283.506 217.79 282.744 217.451 281.941 217.423C281.137 217.451 280.375 217.79 279.816 218.37C279.257 218.949 278.945 219.724 278.945 220.53C278.945 221.335 279.257 222.11 279.816 222.689C280.375 223.269 281.137 223.608 281.941 223.637ZM166.795 531.857C167.599 531.829 168.361 531.489 168.92 530.909C169.479 530.33 169.791 529.556 169.791 528.75C169.791 527.944 169.479 527.17 168.92 526.59C168.361 526.01 167.599 525.671 166.795 525.643C165.991 525.671 165.23 526.01 164.671 526.59C164.112 527.17 163.8 527.944 163.8 528.75C163.8 529.556 164.112 530.33 164.671 530.909C165.23 531.489 165.991 531.829 166.795 531.857ZM196.202 519.18C197.006 519.152 197.768 518.812 198.327 518.233C198.885 517.653 199.198 516.879 199.198 516.073C199.198 515.267 198.885 514.493 198.327 513.913C197.768 513.334 197.006 512.994 196.202 512.966C195.398 512.994 194.636 513.334 194.078 513.913C193.519 514.493 193.207 515.267 193.207 516.073C193.207 516.879 193.519 517.653 194.078 518.233C194.636 518.812 195.398 519.152 196.202 519.18ZM184.663 542.297C185.467 542.268 186.228 541.929 186.787 541.349C187.346 540.77 187.658 539.995 187.658 539.19C187.658 538.384 187.346 537.609 186.787 537.03C186.228 536.45 185.467 536.111 184.663 536.082C183.859 536.111 183.097 536.45 182.538 537.03C181.979 537.609 181.667 538.384 181.667 539.19C181.667 539.995 181.979 540.77 182.538 541.349C183.097 541.929 183.859 542.268 184.663 542.297ZM179.079 502.402C179.883 502.374 180.645 502.034 181.204 501.455C181.763 500.875 182.075 500.101 182.075 499.295C182.075 498.489 181.763 497.715 181.204 497.135C180.645 496.556 179.883 496.216 179.079 496.188C178.275 496.216 177.514 496.556 176.955 497.135C176.396 497.715 176.084 498.489 176.084 499.295C176.084 500.101 176.396 500.875 176.955 501.455C177.514 502.034 178.275 502.374 179.079 502.402ZM212.208 495.318C213.012 495.29 213.774 494.95 214.333 494.37C214.892 493.791 215.204 493.017 215.204 492.211C215.204 491.405 214.892 490.631 214.333 490.051C213.774 489.472 213.012 489.132 212.208 489.104C211.404 489.132 210.643 489.472 210.084 490.051C209.525 490.631 209.213 491.405 209.213 492.211C209.213 493.017 209.525 493.791 210.084 494.37C210.643 494.95 211.404 495.29 212.208 495.318ZM192.852 478.54C193.656 478.512 194.418 478.172 194.976 477.592C195.535 477.013 195.848 476.238 195.848 475.433C195.848 474.627 195.535 473.853 194.976 473.273C194.418 472.693 193.656 472.354 192.852 472.326C192.048 472.354 191.286 472.693 190.728 473.273C190.169 473.853 189.856 474.627 189.856 475.433C189.856 476.238 190.169 477.013 190.728 477.592C191.286 478.172 192.048 478.512 192.852 478.54ZM194.341 499.792C195.145 499.764 195.907 499.424 196.465 498.845C197.024 498.265 197.337 497.491 197.337 496.685C197.337 495.879 197.024 495.105 196.465 494.525C195.907 493.946 195.145 493.606 194.341 493.578C193.537 493.606 192.775 493.946 192.216 494.525C191.658 495.105 191.345 495.879 191.345 496.685C191.345 497.491 191.658 498.265 192.216 498.845C192.775 499.424 193.537 499.764 194.341 499.792ZM179.824 521.044C180.628 521.016 181.389 520.677 181.948 520.097C182.507 519.517 182.819 518.743 182.819 517.937C182.819 517.131 182.507 516.357 181.948 515.778C181.389 515.198 180.628 514.858 179.824 514.83C179.02 514.858 178.258 515.198 177.699 515.778C177.14 516.357 176.828 517.131 176.828 517.937C176.828 518.743 177.14 519.517 177.699 520.097C178.258 520.677 179.02 521.016 179.824 521.044ZM207.441 525.953L204.029 530.914C203.376 530.635 202.837 530.14 202.501 529.513C202.165 528.886 202.052 528.163 202.181 527.463C202.31 526.763 202.672 526.127 203.209 525.661C203.746 525.195 204.426 524.925 205.136 524.897C205.576 524.879 206.014 524.965 206.415 525.148C206.816 525.332 207.167 525.608 207.441 525.953ZM218.764 509.527L215.279 514.582C214.855 514.145 214.566 513.594 214.448 512.996C214.33 512.398 214.388 511.778 214.615 511.212C214.841 510.647 215.227 510.159 215.725 509.808C216.223 509.458 216.812 509.259 217.42 509.237C217.884 509.23 218.344 509.329 218.764 509.527ZM265.562 426.217C266.366 426.189 267.128 425.849 267.687 425.269C268.245 424.69 268.558 423.916 268.558 423.11C268.558 422.304 268.245 421.53 267.687 420.95C267.128 420.371 266.366 420.031 265.562 420.003C264.758 420.031 263.996 420.371 263.438 420.95C262.879 421.53 262.567 422.304 262.567 423.11C262.567 423.916 262.879 424.69 263.438 425.269C263.996 425.849 264.758 426.189 265.562 426.217ZM279.955 436.159C280.759 436.131 281.521 435.792 282.08 435.212C282.639 434.632 282.951 433.858 282.951 433.052C282.951 432.247 282.639 431.472 282.08 430.893C281.521 430.313 280.759 429.973 279.955 429.945C279.151 429.973 278.39 430.313 277.831 430.893C277.272 431.472 276.96 432.247 276.96 433.052C276.96 433.858 277.272 434.632 277.831 435.212C278.39 435.792 279.151 436.131 279.955 436.159ZM294.845 425.223C295.649 425.194 296.41 424.855 296.969 424.275C297.528 423.696 297.84 422.921 297.84 422.116C297.84 421.31 297.528 420.535 296.969 419.956C296.41 419.376 295.649 419.037 294.845 419.008C294.041 419.037 293.279 419.376 292.72 419.956C292.161 420.535 291.849 421.31 291.849 422.116C291.849 422.921 292.161 423.696 292.72 424.275C293.279 424.855 294.041 425.194 294.845 425.223ZM267.051 454.553C267.855 454.525 268.617 454.185 269.176 453.606C269.734 453.026 270.047 452.252 270.047 451.446C270.047 450.64 269.734 449.866 269.176 449.286C268.617 448.707 267.855 448.367 267.051 448.339C266.247 448.367 265.485 448.707 264.927 449.286C264.368 449.866 264.055 450.64 264.055 451.446C264.055 452.252 264.368 453.026 264.927 453.606C265.485 454.185 266.247 454.525 267.051 454.553ZM294.845 452.565C295.649 452.537 296.41 452.197 296.969 451.617C297.528 451.038 297.84 450.263 297.84 449.458C297.84 448.652 297.528 447.878 296.969 447.298C296.41 446.718 295.649 446.379 294.845 446.351C294.041 446.379 293.279 446.718 292.72 447.298C292.161 447.878 291.849 448.652 291.849 449.458C291.849 450.263 292.161 451.038 292.72 451.617C293.279 452.197 294.041 452.537 294.845 452.565ZM280.948 466.981C281.752 466.953 282.514 466.614 283.072 466.034C283.631 465.454 283.944 464.68 283.944 463.874C283.944 463.069 283.631 462.294 283.072 461.715C282.514 461.135 281.752 460.795 280.948 460.767C280.144 460.795 279.382 461.135 278.823 461.715C278.265 462.294 277.952 463.069 277.952 463.874C277.952 464.68 278.265 465.454 278.823 466.034C279.382 466.614 280.144 466.953 280.948 466.981ZM268.044 481.895C268.848 481.867 269.609 481.528 270.168 480.948C270.727 480.368 271.039 479.594 271.039 478.788C271.039 477.983 270.727 477.208 270.168 476.629C269.609 476.049 268.848 475.709 268.044 475.681C267.24 475.709 266.478 476.049 265.919 476.629C265.36 477.208 265.048 477.983 265.048 478.788C265.048 479.594 265.36 480.368 265.919 480.948C266.478 481.528 267.24 481.867 268.044 481.895ZM296.334 482.89C297.138 482.861 297.899 482.522 298.458 481.942C299.017 481.363 299.329 480.588 299.329 479.783C299.329 478.977 299.017 478.202 298.458 477.623C297.899 477.043 297.138 476.704 296.334 476.676C295.53 476.704 294.768 477.043 294.209 477.623C293.65 478.202 293.338 478.977 293.338 479.783C293.338 480.588 293.65 481.363 294.209 481.942C294.768 482.522 295.53 482.861 296.334 482.89ZM269.533 507.746C270.337 507.718 271.098 507.378 271.657 506.799C272.216 506.219 272.528 505.445 272.528 504.639C272.528 503.833 272.216 503.059 271.657 502.479C271.098 501.9 270.337 501.56 269.533 501.532C268.729 501.56 267.967 501.9 267.408 502.479C266.849 503.059 266.537 503.833 266.537 504.639C266.537 505.445 266.849 506.219 267.408 506.799C267.967 507.378 268.729 507.718 269.533 507.746ZM296.334 508.74C297.138 508.712 297.899 508.373 298.458 507.793C299.017 507.213 299.329 506.439 299.329 505.633C299.329 504.827 299.017 504.053 298.458 503.474C297.899 502.894 297.138 502.554 296.334 502.526C295.53 502.554 294.768 502.894 294.209 503.474C293.65 504.053 293.338 504.827 293.338 505.633C293.338 506.439 293.65 507.213 294.209 507.793C294.768 508.373 295.53 508.712 296.334 508.74ZM268.54 530.614C269.344 530.586 270.106 530.246 270.664 529.667C271.223 529.087 271.536 528.313 271.536 527.507C271.536 526.701 271.223 525.927 270.664 525.347C270.106 524.768 269.344 524.428 268.54 524.4C267.736 524.428 266.974 524.768 266.416 525.347C265.857 525.927 265.544 526.701 265.544 527.507C265.544 528.313 265.857 529.087 266.416 529.667C266.974 530.246 267.736 530.586 268.54 530.614ZM296.334 533.1C297.138 533.072 297.899 532.732 298.458 532.152C299.017 531.573 299.329 530.798 299.329 529.993C299.329 529.187 299.017 528.413 298.458 527.833C297.899 527.253 297.138 526.914 296.334 526.886C295.53 526.914 294.768 527.253 294.209 527.833C293.65 528.413 293.338 529.187 293.338 529.993C293.338 530.798 293.65 531.573 294.209 532.152C294.768 532.732 295.53 533.072 296.334 533.1ZM269.036 555.968C269.84 555.94 270.602 555.6 271.161 555.02C271.72 554.441 272.032 553.666 272.032 552.861C272.032 552.055 271.72 551.281 271.161 550.701C270.602 550.121 269.84 549.782 269.036 549.754C268.232 549.782 267.471 550.121 266.912 550.701C266.353 551.281 266.041 552.055 266.041 552.861C266.041 553.666 266.353 554.441 266.912 555.02C267.471 555.6 268.232 555.94 269.036 555.968ZM296.83 556.962C297.634 556.934 298.396 556.594 298.954 556.015C299.513 555.435 299.826 554.661 299.826 553.855C299.826 553.049 299.513 552.275 298.954 551.695C298.396 551.116 297.634 550.776 296.83 550.748C296.026 550.776 295.264 551.116 294.705 551.695C294.147 552.275 293.834 553.049 293.834 553.855C293.834 554.661 294.147 555.435 294.705 556.015C295.264 556.594 296.026 556.934 296.83 556.962ZM282.437 574.859C283.241 574.83 284.002 574.491 284.561 573.911C285.12 573.332 285.432 572.557 285.432 571.751C285.432 570.946 285.12 570.171 284.561 569.592C284.002 569.012 283.241 568.673 282.437 568.644C281.633 568.673 280.871 569.012 280.312 569.592C279.754 570.171 279.441 570.946 279.441 571.751C279.441 572.557 279.754 573.332 280.312 573.911C280.871 574.491 281.633 574.83 282.437 574.859ZM303.282 578.836C304.086 578.807 304.848 578.468 305.407 577.888C305.965 577.309 306.278 576.534 306.278 575.729C306.278 574.923 305.965 574.148 305.407 573.569C304.848 572.989 304.086 572.65 303.282 572.621C302.478 572.65 301.716 572.989 301.158 573.569C300.599 574.148 300.286 574.923 300.286 575.729C300.286 576.534 300.599 577.309 301.158 577.888C301.716 578.468 302.478 578.807 303.282 578.836ZM311.223 434.668C312.027 434.64 312.789 434.3 313.348 433.721C313.906 433.141 314.219 432.367 314.219 431.561C314.219 430.755 313.906 429.981 313.348 429.401C312.789 428.822 312.027 428.482 311.223 428.454C310.419 428.482 309.657 428.822 309.099 429.401C308.54 429.981 308.227 430.755 308.227 431.561C308.227 432.367 308.54 433.141 309.099 433.721C309.657 434.3 310.419 434.64 311.223 434.668ZM324.127 423.234C324.931 423.206 325.693 422.866 326.252 422.287C326.811 421.707 327.123 420.933 327.123 420.127C327.123 419.321 326.811 418.547 326.252 417.967C325.693 417.388 324.931 417.048 324.127 417.02C323.323 417.048 322.562 417.388 322.003 417.967C321.444 418.547 321.132 419.321 321.132 420.127C321.132 420.933 321.444 421.707 322.003 422.287C322.562 422.866 323.323 423.206 324.127 423.234ZM340.009 431.188C340.813 431.16 341.575 430.82 342.134 430.241C342.693 429.661 343.005 428.887 343.005 428.081C343.005 427.275 342.693 426.501 342.134 425.921C341.575 425.342 340.813 425.002 340.009 424.974C339.205 425.002 338.444 425.342 337.885 425.921C337.326 426.501 337.014 427.275 337.014 428.081C337.014 428.887 337.326 429.661 337.885 430.241C338.444 430.82 339.205 431.16 340.009 431.188ZM329.091 444.113C329.895 444.085 330.656 443.746 331.215 443.166C331.774 442.586 332.086 441.812 332.086 441.006C332.086 440.201 331.774 439.426 331.215 438.847C330.656 438.267 329.895 437.928 329.091 437.899C328.287 437.928 327.525 438.267 326.966 438.847C326.407 439.426 326.095 440.201 326.095 441.006C326.095 441.812 326.407 442.586 326.966 443.166C327.525 443.746 328.287 444.085 329.091 444.113ZM319.66 463.999C320.464 463.971 321.226 463.631 321.785 463.051C322.344 462.472 322.656 461.697 322.656 460.892C322.656 460.086 322.344 459.312 321.785 458.732C321.226 458.152 320.464 457.813 319.66 457.785C318.856 457.813 318.095 458.152 317.536 458.732C316.977 459.312 316.665 460.086 316.665 460.892C316.665 461.697 316.977 462.472 317.536 463.051C318.095 463.631 318.856 463.971 319.66 463.999ZM347.95 458.033C348.754 458.005 349.516 457.665 350.075 457.086C350.634 456.506 350.946 455.732 350.946 454.926C350.946 454.12 350.634 453.346 350.075 452.766C349.516 452.187 348.754 451.847 347.95 451.819C347.146 451.847 346.385 452.187 345.826 452.766C345.267 453.346 344.955 454.12 344.955 454.926C344.955 455.732 345.267 456.506 345.826 457.086C346.385 457.665 347.146 458.005 347.95 458.033ZM337.031 473.444C337.835 473.416 338.597 473.076 339.156 472.497C339.715 471.917 340.027 471.143 340.027 470.337C340.027 469.531 339.715 468.757 339.156 468.178C338.597 467.598 337.835 467.258 337.031 467.23C336.228 467.258 335.466 467.598 334.907 468.178C334.348 468.757 334.036 469.531 334.036 470.337C334.036 471.143 334.348 471.917 334.907 472.497C335.466 473.076 336.228 473.416 337.031 473.444ZM323.135 488.855C323.939 488.827 324.7 488.487 325.259 487.908C325.818 487.328 326.13 486.554 326.13 485.748C326.13 484.942 325.818 484.168 325.259 483.588C324.7 483.009 323.939 482.669 323.135 482.641C322.331 482.669 321.569 483.009 321.01 483.588C320.451 484.168 320.139 484.942 320.139 485.748C320.139 486.554 320.451 487.328 321.01 487.908C321.569 488.487 322.331 488.827 323.135 488.855ZM352.417 482.392C353.221 482.364 353.983 482.025 354.542 481.445C355.101 480.865 355.413 480.091 355.413 479.285C355.413 478.48 355.101 477.705 354.542 477.126C353.983 476.546 353.221 476.206 352.417 476.178C351.613 476.206 350.852 476.546 350.293 477.126C349.734 477.705 349.422 478.48 349.422 479.285C349.422 480.091 349.734 480.865 350.293 481.445C350.852 482.025 351.613 482.364 352.417 482.392ZM341.002 500.289C341.806 500.261 342.568 499.921 343.126 499.342C343.685 498.762 343.998 497.988 343.998 497.182C343.998 496.376 343.685 495.602 343.126 495.022C342.568 494.443 341.806 494.103 341.002 494.075C340.198 494.103 339.436 494.443 338.878 495.022C338.319 495.602 338.006 496.376 338.006 497.182C338.006 497.988 338.319 498.762 338.878 499.342C339.436 499.921 340.198 500.261 341.002 500.289ZM325.12 514.706C325.924 514.678 326.686 514.338 327.244 513.758C327.803 513.179 328.116 512.405 328.116 511.599C328.116 510.793 327.803 510.019 327.244 509.439C326.686 508.86 325.924 508.52 325.12 508.492C324.316 508.52 323.554 508.86 322.995 509.439C322.437 510.019 322.124 510.793 322.124 511.599C322.124 512.405 322.437 513.179 322.995 513.758C323.554 514.338 324.316 514.678 325.12 514.706ZM346.958 528.128C347.762 528.1 348.523 527.761 349.082 527.181C349.641 526.601 349.953 525.827 349.953 525.021C349.953 524.216 349.641 523.441 349.082 522.862C348.523 522.282 347.762 521.942 346.958 521.914C346.154 521.942 345.392 522.282 344.833 522.862C344.274 523.441 343.962 524.216 343.962 525.021C343.962 525.827 344.274 526.601 344.833 527.181C345.392 527.761 346.154 528.1 346.958 528.128ZM357.38 508.74C358.184 508.712 358.946 508.373 359.505 507.793C360.064 507.213 360.376 506.439 360.376 505.633C360.376 504.827 360.064 504.053 359.505 503.474C358.946 502.894 358.184 502.554 357.38 502.526C356.576 502.554 355.815 502.894 355.256 503.474C354.697 504.053 354.385 504.827 354.385 505.633C354.385 506.439 354.697 507.213 355.256 507.793C355.815 508.373 356.576 508.712 357.38 508.74ZM329.091 539.562C329.895 539.534 330.656 539.195 331.215 538.615C331.774 538.035 332.086 537.261 332.086 536.455C332.086 535.649 331.774 534.875 331.215 534.296C330.656 533.716 329.895 533.376 329.091 533.348C328.287 533.376 327.525 533.716 326.966 534.296C326.407 534.875 326.095 535.649 326.095 536.455C326.095 537.261 326.407 538.035 326.966 538.615C327.525 539.195 328.287 539.534 329.091 539.562ZM351.921 555.47C352.725 555.442 353.487 555.103 354.045 554.523C354.604 553.944 354.917 553.169 354.917 552.363C354.917 551.558 354.604 550.783 354.045 550.204C353.487 549.624 352.725 549.284 351.921 549.256C351.117 549.284 350.355 549.624 349.796 550.204C349.238 550.783 348.925 551.558 348.925 552.363C348.925 553.169 349.238 553.944 349.796 554.523C350.355 555.103 351.117 555.442 351.921 555.47ZM366.81 532.603C367.614 532.574 368.376 532.235 368.935 531.655C369.494 531.076 369.806 530.301 369.806 529.496C369.806 528.69 369.494 527.915 368.935 527.336C368.376 526.756 367.614 526.417 366.81 526.388C366.006 526.417 365.245 526.756 364.686 527.336C364.127 527.915 363.815 528.69 363.815 529.496C363.815 530.301 364.127 531.076 364.686 531.655C365.245 532.235 366.006 532.574 366.81 532.603ZM331.572 570.881C332.376 570.853 333.138 570.514 333.697 569.934C334.255 569.355 334.568 568.58 334.568 567.774C334.568 566.969 334.255 566.194 333.697 565.615C333.138 565.035 332.376 564.696 331.572 564.667C330.768 564.696 330.006 565.035 329.448 565.615C328.889 566.194 328.576 566.969 328.576 567.774C328.576 568.58 328.889 569.355 329.448 569.934C330.006 570.514 330.768 570.853 331.572 570.881ZM355.891 585.795C356.695 585.767 357.457 585.428 358.016 584.848C358.575 584.268 358.887 583.494 358.887 582.688C358.887 581.883 358.575 581.108 358.016 580.529C357.457 579.949 356.695 579.609 355.891 579.581C355.087 579.609 354.326 579.949 353.767 580.529C353.208 581.108 352.896 581.883 352.896 582.688C352.896 583.494 353.208 584.268 353.767 584.848C354.326 585.428 355.087 585.767 355.891 585.795ZM335.046 595.738C335.85 595.71 336.612 595.37 337.171 594.791C337.73 594.211 338.042 593.437 338.042 592.631C338.042 591.825 337.73 591.051 337.171 590.471C336.612 589.892 335.85 589.552 335.046 589.524C334.242 589.552 333.481 589.892 332.922 590.471C332.363 591.051 332.051 591.825 332.051 592.631C332.051 593.437 332.363 594.211 332.922 594.791C333.481 595.37 334.242 595.71 335.046 595.738ZM374.751 569.39C375.555 569.362 376.317 569.022 376.876 568.443C377.435 567.863 377.747 567.089 377.747 566.283C377.747 565.477 377.435 564.703 376.876 564.123C376.317 563.544 375.555 563.204 374.751 563.176C373.947 563.204 373.186 563.544 372.627 564.123C372.068 564.703 371.756 565.477 371.756 566.283C371.756 567.089 372.068 567.863 372.627 568.443C373.186 569.022 373.947 569.362 374.751 569.39ZM390.137 554.476C390.941 554.448 391.703 554.108 392.262 553.529C392.82 552.949 393.133 552.175 393.133 551.369C393.133 550.563 392.82 549.789 392.262 549.21C391.703 548.63 390.941 548.29 390.137 548.262C389.333 548.29 388.572 548.63 388.013 549.21C387.454 549.789 387.142 550.563 387.142 551.369C387.142 552.175 387.454 552.949 388.013 553.529C388.572 554.108 389.333 554.448 390.137 554.476ZM398.575 580.327C399.378 580.299 400.14 579.959 400.699 579.38C401.258 578.8 401.57 578.026 401.57 577.22C401.57 576.414 401.258 575.64 400.699 575.06C400.14 574.481 399.378 574.141 398.575 574.113C397.771 574.141 397.009 574.481 396.45 575.06C395.891 575.64 395.579 576.414 395.579 577.22C395.579 578.026 395.891 578.8 396.45 579.38C397.009 579.959 397.771 580.299 398.575 580.327ZM411.479 562.43C412.283 562.402 413.044 562.063 413.603 561.483C414.162 560.903 414.474 560.129 414.474 559.323C414.474 558.517 414.162 557.743 413.603 557.164C413.044 556.584 412.283 556.244 411.479 556.216C410.675 556.244 409.913 556.584 409.354 557.164C408.795 557.743 408.483 558.517 408.483 559.323C408.483 560.129 408.795 560.903 409.354 561.483C409.913 562.063 410.675 562.402 411.479 562.43ZM428.353 544.036C429.157 544.008 429.919 543.669 430.478 543.089C431.037 542.51 431.349 541.735 431.349 540.929C431.349 540.124 431.037 539.349 430.478 538.77C429.919 538.19 429.157 537.851 428.353 537.822C427.549 537.851 426.788 538.19 426.229 538.77C425.67 539.349 425.358 540.124 425.358 540.929C425.358 541.735 425.67 542.51 426.229 543.089C426.788 543.669 427.549 544.008 428.353 544.036ZM435.302 569.887C436.106 569.859 436.867 569.519 437.426 568.94C437.985 568.36 438.297 567.586 438.297 566.78C438.297 565.974 437.985 565.2 437.426 564.621C436.867 564.041 436.106 563.701 435.302 563.673C434.498 563.701 433.736 564.041 433.177 564.621C432.619 565.2 432.306 565.974 432.306 566.78C432.306 567.586 432.619 568.36 433.177 568.94C433.736 569.519 434.498 569.859 435.302 569.887ZM448.206 551.493C449.01 551.465 449.772 551.126 450.33 550.546C450.889 549.966 451.202 549.192 451.202 548.386C451.202 547.581 450.889 546.806 450.33 546.227C449.772 545.647 449.01 545.307 448.206 545.279C447.402 545.307 446.64 545.647 446.082 546.227C445.523 546.806 445.21 547.581 445.21 548.386C445.21 549.192 445.523 549.966 446.082 550.546C446.64 551.126 447.402 551.465 448.206 551.493ZM461.607 533.597C462.41 533.569 463.172 533.229 463.731 532.649C464.29 532.07 464.602 531.296 464.602 530.49C464.602 529.684 464.29 528.91 463.731 528.33C463.172 527.75 462.41 527.411 461.607 527.383C460.803 527.411 460.041 527.75 459.482 528.33C458.923 528.91 458.611 529.684 458.611 530.49C458.611 531.296 458.923 532.07 459.482 532.649C460.041 533.229 460.803 533.569 461.607 533.597ZM470.044 559.448C470.848 559.419 471.61 559.08 472.168 558.5C472.727 557.921 473.039 557.146 473.039 556.34C473.039 555.535 472.727 554.76 472.168 554.181C471.61 553.601 470.848 553.262 470.044 553.233C469.24 553.262 468.478 553.601 467.919 554.181C467.361 554.76 467.048 555.535 467.048 556.34C467.048 557.146 467.361 557.921 467.919 558.5C468.478 559.08 469.24 559.419 470.044 559.448ZM478.481 542.545C479.285 542.517 480.047 542.177 480.606 541.598C481.165 541.018 481.477 540.244 481.477 539.438C481.477 538.632 481.165 537.858 480.606 537.278C480.047 536.699 479.285 536.359 478.481 536.331C477.677 536.359 476.916 536.699 476.357 537.278C475.798 537.858 475.486 538.632 475.486 539.438C475.486 540.244 475.798 541.018 476.357 541.598C476.916 542.177 477.677 542.517 478.481 542.545ZM494.363 526.637C495.167 526.609 495.929 526.269 496.488 525.69C497.047 525.11 497.359 524.336 497.359 523.53C497.359 522.724 497.047 521.95 496.488 521.37C495.929 520.791 495.167 520.451 494.363 520.423C493.559 520.451 492.798 520.791 492.239 521.37C491.68 521.95 491.368 522.724 491.368 523.53C491.368 524.336 491.68 525.11 492.239 525.69C492.798 526.269 493.559 526.609 494.363 526.637ZM503.297 555.47C504.101 555.442 504.863 555.103 505.421 554.523C505.98 553.944 506.293 553.169 506.293 552.363C506.293 551.558 505.98 550.783 505.421 550.204C504.863 549.624 504.101 549.284 503.297 549.256C502.493 549.284 501.731 549.624 501.173 550.204C500.614 550.783 500.301 551.558 500.301 552.363C500.301 553.169 500.614 553.944 501.173 554.523C501.731 555.103 502.493 555.442 503.297 555.47ZM511.734 537.077C512.538 537.049 513.3 536.709 513.859 536.129C514.418 535.55 514.73 534.775 514.73 533.97C514.73 533.164 514.418 532.39 513.859 531.81C513.3 531.23 512.538 530.891 511.734 530.863C510.93 530.891 510.169 531.23 509.61 531.81C509.051 532.39 508.739 533.164 508.739 533.97C508.739 534.775 509.051 535.55 509.61 536.129C510.169 536.709 510.93 537.049 511.734 537.077ZM472.029 517.192C472.833 517.163 473.595 516.824 474.154 516.244C474.712 515.665 475.025 514.89 475.025 514.084C475.025 513.279 474.712 512.504 474.154 511.925C473.595 511.345 472.833 511.006 472.029 510.977C471.225 511.006 470.464 511.345 469.905 511.925C469.346 512.504 469.034 513.279 469.034 514.084C469.034 514.89 469.346 515.665 469.905 516.244C470.464 516.824 471.225 517.163 472.029 517.192ZM440.265 520.671C441.069 520.643 441.831 520.304 442.389 519.724C442.948 519.144 443.261 518.37 443.261 517.564C443.261 516.759 442.948 515.984 442.389 515.405C441.831 514.825 441.069 514.485 440.265 514.457C439.461 514.485 438.699 514.825 438.141 515.405C437.582 515.984 437.269 516.759 437.269 517.564C437.269 518.37 437.582 519.144 438.141 519.724C438.699 520.304 439.461 520.643 440.265 520.671ZM452.673 501.78C453.477 501.752 454.239 501.413 454.797 500.833C455.356 500.254 455.669 499.479 455.669 498.673C455.669 497.868 455.356 497.093 454.797 496.514C454.239 495.934 453.477 495.595 452.673 495.566C451.869 495.595 451.107 495.934 450.548 496.514C449.99 497.093 449.677 497.868 449.677 498.673C449.677 499.479 449.99 500.254 450.548 500.833C451.107 501.413 451.869 501.752 452.673 501.78ZM486.919 498.301C487.723 498.272 488.484 497.933 489.043 497.353C489.602 496.774 489.914 495.999 489.914 495.194C489.914 494.388 489.602 493.613 489.043 493.034C488.484 492.454 487.723 492.115 486.919 492.087C486.115 492.115 485.353 492.454 484.794 493.034C484.235 493.613 483.923 494.388 483.923 495.194C483.923 495.999 484.235 496.774 484.794 497.353C485.353 497.933 486.115 498.272 486.919 498.301ZM507.268 507.746C508.071 507.718 508.833 507.378 509.392 506.799C509.951 506.219 510.263 505.445 510.263 504.639C510.263 503.833 509.951 503.059 509.392 502.479C508.833 501.9 508.071 501.56 507.268 501.532C506.464 501.56 505.702 501.9 505.143 502.479C504.584 503.059 504.272 503.833 504.272 504.639C504.272 505.445 504.584 506.219 505.143 506.799C505.702 507.378 506.464 507.718 507.268 507.746ZM496.349 476.427C497.153 476.399 497.914 476.059 498.473 475.48C499.032 474.9 499.344 474.126 499.344 473.32C499.344 472.514 499.032 471.74 498.473 471.16C497.914 470.581 497.153 470.241 496.349 470.213C495.545 470.241 494.783 470.581 494.224 471.16C493.665 471.74 493.353 472.514 493.353 473.32C493.353 474.126 493.665 474.9 494.224 475.48C494.783 476.059 495.545 476.399 496.349 476.427ZM466.57 479.907C467.374 479.879 468.135 479.539 468.694 478.959C469.253 478.38 469.565 477.606 469.565 476.8C469.565 475.994 469.253 475.22 468.694 474.64C468.135 474.06 467.374 473.721 466.57 473.693C465.766 473.721 465.004 474.06 464.445 474.64C463.886 475.22 463.574 475.994 463.574 476.8C463.574 477.606 463.886 478.38 464.445 478.959C465.004 479.539 465.766 479.879 466.57 479.907ZM441.258 480.404C442.062 480.376 442.823 480.036 443.382 479.457C443.941 478.877 444.253 478.103 444.253 477.297C444.253 476.491 443.941 475.717 443.382 475.137C442.823 474.558 442.062 474.218 441.258 474.19C440.454 474.218 439.692 474.558 439.133 475.137C438.574 475.717 438.262 476.491 438.262 477.297C438.262 478.103 438.574 478.877 439.133 479.457C439.692 480.036 440.454 480.376 441.258 480.404ZM448.702 460.519C449.506 460.491 450.268 460.151 450.827 459.571C451.386 458.992 451.698 458.217 451.698 457.412C451.698 456.606 451.386 455.832 450.827 455.252C450.268 454.672 449.506 454.333 448.702 454.305C447.898 454.333 447.137 454.672 446.578 455.252C446.019 455.832 445.707 456.606 445.707 457.412C445.707 458.217 446.019 458.992 446.578 459.571C447.137 460.151 447.898 460.491 448.702 460.519ZM476.992 457.039C477.796 457.011 478.558 456.671 479.117 456.091C479.676 455.512 479.988 454.738 479.988 453.932C479.988 453.126 479.676 452.352 479.117 451.772C478.558 451.193 477.796 450.853 476.992 450.825C476.188 450.853 475.427 451.193 474.868 451.772C474.309 452.352 473.997 453.126 473.997 453.932C473.997 454.738 474.309 455.512 474.868 456.091C475.427 456.671 476.188 457.011 476.992 457.039ZM421.405 461.016C422.209 460.988 422.971 460.648 423.529 460.068C424.088 459.489 424.401 458.715 424.401 457.909C424.401 457.103 424.088 456.329 423.529 455.749C422.971 455.17 422.209 454.83 421.405 454.802C420.601 454.83 419.839 455.17 419.281 455.749C418.722 456.329 418.409 457.103 418.409 457.909C418.409 458.715 418.722 459.489 419.281 460.068C419.839 460.648 420.601 460.988 421.405 461.016ZM435.302 443.119C436.106 443.091 436.867 442.751 437.426 442.172C437.985 441.592 438.297 440.818 438.297 440.012C438.297 439.206 437.985 438.432 437.426 437.853C436.867 437.273 436.106 436.933 435.302 436.905C434.498 436.933 433.736 437.273 433.177 437.853C432.619 438.432 432.306 439.206 432.306 440.012C432.306 440.818 432.619 441.592 433.177 442.172C433.736 442.751 434.498 443.091 435.302 443.119ZM461.11 443.616C461.914 443.588 462.676 443.249 463.235 442.669C463.794 442.089 464.106 441.315 464.106 440.509C464.106 439.704 463.794 438.929 463.235 438.35C462.676 437.77 461.914 437.43 461.11 437.402C460.306 437.43 459.545 437.77 458.986 438.35C458.427 438.929 458.115 439.704 458.115 440.509C458.115 441.315 458.427 442.089 458.986 442.669C459.545 443.249 460.306 443.588 461.11 443.616ZM487.911 438.645C488.715 438.617 489.477 438.277 490.036 437.698C490.595 437.118 490.907 436.344 490.907 435.538C490.907 434.732 490.595 433.958 490.036 433.378C489.477 432.799 488.715 432.459 487.911 432.431C487.107 432.459 486.346 432.799 485.787 433.378C485.228 433.958 484.916 434.732 484.916 435.538C484.916 436.344 485.228 437.118 485.787 437.698C486.346 438.277 487.107 438.617 487.911 438.645ZM504.786 452.068C505.59 452.039 506.352 451.7 506.91 451.12C507.469 450.541 507.782 449.766 507.782 448.961C507.782 448.155 507.469 447.38 506.91 446.801C506.352 446.221 505.59 445.882 504.786 445.853C503.982 445.882 503.22 446.221 502.661 446.801C502.103 447.38 501.79 448.155 501.79 448.961C501.79 449.766 502.103 450.541 502.661 451.12C503.22 451.7 503.982 452.039 504.786 452.068ZM511.238 488.358C512.042 488.33 512.804 487.99 513.362 487.411C513.921 486.831 514.234 486.057 514.234 485.251C514.234 484.445 513.921 483.671 513.362 483.091C512.804 482.512 512.042 482.172 511.238 482.144C510.434 482.172 509.672 482.512 509.114 483.091C508.555 483.671 508.242 484.445 508.242 485.251C508.242 486.057 508.555 486.831 509.114 487.411C509.672 487.99 510.434 488.33 511.238 488.358ZM471.533 424.228C472.337 424.2 473.098 423.861 473.657 423.281C474.216 422.701 474.528 421.927 474.528 421.121C474.528 420.315 474.216 419.541 473.657 418.962C473.098 418.382 472.337 418.042 471.533 418.014C470.729 418.042 469.967 418.382 469.408 418.962C468.85 419.541 468.537 420.315 468.537 421.121C468.537 421.927 468.85 422.701 469.408 423.281C469.967 423.861 470.729 424.2 471.533 424.228ZM445.724 423.731C446.528 423.703 447.29 423.363 447.849 422.784C448.408 422.204 448.72 421.43 448.72 420.624C448.72 419.818 448.408 419.044 447.849 418.464C447.29 417.885 446.528 417.545 445.724 417.517C444.92 417.545 444.159 417.885 443.6 418.464C443.041 419.044 442.729 419.818 442.729 420.624C442.729 421.43 443.041 422.204 443.6 422.784C444.159 423.363 444.92 423.703 445.724 423.731ZM416.442 429.2C417.246 429.171 418.007 428.832 418.566 428.252C419.125 427.673 419.437 426.898 419.437 426.093C419.437 425.287 419.125 424.513 418.566 423.933C418.007 423.353 417.246 423.014 416.442 422.986C415.638 423.014 414.876 423.353 414.317 423.933C413.759 424.513 413.446 425.287 413.446 426.093C413.446 426.898 413.759 427.673 414.317 428.252C414.876 428.832 415.638 429.171 416.442 429.2ZM428.353 413.789C429.157 413.76 429.919 413.421 430.478 412.841C431.037 412.262 431.349 411.487 431.349 410.682C431.349 409.876 431.037 409.101 430.478 408.522C429.919 407.942 429.157 407.603 428.353 407.575C427.549 407.603 426.788 407.942 426.229 408.522C425.67 409.101 425.358 409.876 425.358 410.682C425.358 411.487 425.67 412.262 426.229 412.841C426.788 413.421 427.549 413.76 428.353 413.789ZM456.147 407.326C456.951 407.298 457.713 406.958 458.272 406.379C458.83 405.799 459.143 405.025 459.143 404.219C459.143 403.413 458.83 402.639 458.272 402.059C457.713 401.48 456.951 401.14 456.147 401.112C455.343 401.14 454.581 401.48 454.023 402.059C453.464 402.639 453.151 403.413 453.151 404.219C453.151 405.025 453.464 405.799 454.023 406.379C454.581 406.958 455.343 407.298 456.147 407.326ZM483.444 402.355C484.248 402.327 485.01 401.987 485.569 401.407C486.128 400.828 486.44 400.053 486.44 399.248C486.44 398.442 486.128 397.667 485.569 397.088C485.01 396.508 484.248 396.169 483.444 396.141C482.64 396.169 481.879 396.508 481.32 397.088C480.761 397.667 480.449 398.442 480.449 399.248C480.449 400.053 480.761 400.828 481.32 401.407C481.879 401.987 482.64 402.327 483.444 402.355ZM491.385 413.291C492.189 413.263 492.951 412.924 493.51 412.344C494.069 411.764 494.381 410.99 494.381 410.184C494.381 409.379 494.069 408.604 493.51 408.025C492.951 407.445 492.189 407.105 491.385 407.077C490.581 407.105 489.82 407.445 489.261 408.025C488.702 408.604 488.39 409.379 488.39 410.184C488.39 410.99 488.702 411.764 489.261 412.344C489.82 412.924 490.581 413.263 491.385 413.291ZM499.823 423.731C500.627 423.703 501.388 423.363 501.947 422.784C502.506 422.204 502.818 421.43 502.818 420.624C502.818 419.818 502.506 419.044 501.947 418.464C501.388 417.885 500.627 417.545 499.823 417.517C499.019 417.545 498.257 417.885 497.698 418.464C497.139 419.044 496.827 419.818 496.827 420.624C496.827 421.43 497.139 422.204 497.698 422.784C498.257 423.363 499.019 423.703 499.823 423.731ZM438.776 397.383C439.58 397.355 440.342 397.016 440.9 396.436C441.459 395.856 441.772 395.082 441.772 394.276C441.772 393.47 441.459 392.696 440.9 392.117C440.342 391.537 439.58 391.197 438.776 391.169C437.972 391.197 437.21 391.537 436.652 392.117C436.093 392.696 435.78 393.47 435.78 394.276C435.78 395.082 436.093 395.856 436.652 396.436C437.21 397.016 437.972 397.355 438.776 397.383ZM408.005 401.36C408.808 401.332 409.57 400.993 410.129 400.413C410.688 399.833 411 399.059 411 398.253C411 397.448 410.688 396.673 410.129 396.094C409.57 395.514 408.808 395.174 408.005 395.146C407.201 395.174 406.439 395.514 405.88 396.094C405.321 396.673 405.009 397.448 405.009 398.253C405.009 399.059 405.321 399.833 405.88 400.413C406.439 400.993 407.201 401.332 408.005 401.36ZM467.066 391.418C467.87 391.39 468.632 391.05 469.19 390.47C469.749 389.891 470.062 389.116 470.062 388.311C470.062 387.505 469.749 386.731 469.19 386.151C468.632 385.571 467.87 385.232 467.066 385.204C466.262 385.232 465.5 385.571 464.942 386.151C464.383 386.731 464.07 387.505 464.07 388.311C464.07 389.116 464.383 389.891 464.942 390.47C465.5 391.05 466.262 391.39 467.066 391.418ZM488.904 387.938C489.708 387.91 490.47 387.57 491.028 386.99C491.587 386.411 491.9 385.637 491.9 384.831C491.9 384.025 491.587 383.251 491.028 382.671C490.47 382.092 489.708 381.752 488.904 381.724C488.1 381.752 487.338 382.092 486.779 382.671C486.221 383.251 485.908 384.025 485.908 384.831C485.908 385.637 486.221 386.411 486.779 386.99C487.338 387.57 488.1 387.91 488.904 387.938ZM377.729 412.794C378.533 412.766 379.295 412.427 379.854 411.847C380.413 411.267 380.725 410.493 380.725 409.687C380.725 408.882 380.413 408.107 379.854 407.528C379.295 406.948 378.533 406.608 377.729 406.58C376.925 406.608 376.164 406.948 375.605 407.528C375.046 408.107 374.734 408.882 374.734 409.687C374.734 410.493 375.046 411.267 375.605 411.847C376.164 412.427 376.925 412.766 377.729 412.794ZM393.115 423.731C393.919 423.703 394.681 423.363 395.24 422.784C395.798 422.204 396.111 421.43 396.111 420.624C396.111 419.818 395.798 419.044 395.24 418.464C394.681 417.885 393.919 417.545 393.115 417.517C392.311 417.545 391.549 417.885 390.991 418.464C390.432 419.044 390.119 419.818 390.119 420.624C390.119 421.43 390.432 422.204 390.991 422.784C391.549 423.363 392.311 423.703 393.115 423.731ZM385.67 440.136C386.474 440.108 387.236 439.769 387.795 439.189C388.354 438.609 388.666 437.835 388.666 437.029C388.666 436.224 388.354 435.449 387.795 434.87C387.236 434.29 386.474 433.95 385.67 433.922C384.866 433.95 384.105 434.29 383.546 434.87C382.987 435.449 382.675 436.224 382.675 437.029C382.675 437.835 382.987 438.609 383.546 439.189C384.105 439.769 384.866 440.108 385.67 440.136ZM395.1 458.033C395.904 458.005 396.666 457.665 397.225 457.086C397.784 456.506 398.096 455.732 398.096 454.926C398.096 454.12 397.784 453.346 397.225 452.766C396.666 452.187 395.904 451.847 395.1 451.819C394.296 451.847 393.535 452.187 392.976 452.766C392.417 453.346 392.105 454.12 392.105 454.926C392.105 455.732 392.417 456.506 392.976 457.086C393.535 457.665 394.296 458.005 395.1 458.033ZM388.648 472.45C389.452 472.422 390.214 472.082 390.773 471.503C391.332 470.923 391.644 470.149 391.644 469.343C391.644 468.537 391.332 467.763 390.773 467.183C390.214 466.604 389.452 466.264 388.648 466.236C387.844 466.264 387.083 466.604 386.524 467.183C385.965 467.763 385.653 468.537 385.653 469.343C385.653 470.149 385.965 470.923 386.524 471.503C387.083 472.082 387.844 472.422 388.648 472.45ZM361.351 440.634C362.155 440.605 362.917 440.266 363.475 439.686C364.034 439.107 364.347 438.332 364.347 437.527C364.347 436.721 364.034 435.946 363.475 435.367C362.917 434.787 362.155 434.448 361.351 434.419C360.547 434.448 359.785 434.787 359.226 435.367C358.668 435.946 358.355 436.721 358.355 437.527C358.355 438.332 358.668 439.107 359.226 439.686C359.785 440.266 360.547 440.605 361.351 440.634ZM366.314 465.49C367.118 465.462 367.88 465.122 368.439 464.543C368.997 463.963 369.31 463.189 369.31 462.383C369.31 461.577 368.997 460.803 368.439 460.223C367.88 459.644 367.118 459.304 366.314 459.276C365.51 459.304 364.748 459.644 364.19 460.223C363.631 460.803 363.318 461.577 363.318 462.383C363.318 463.189 363.631 463.963 364.19 464.543C364.748 465.122 365.51 465.462 366.314 465.49ZM407.508 477.918C408.312 477.89 409.074 477.551 409.633 476.971C410.191 476.391 410.504 475.617 410.504 474.811C410.504 474.006 410.191 473.231 409.633 472.652C409.074 472.072 408.312 471.732 407.508 471.704C406.704 471.732 405.943 472.072 405.384 472.652C404.825 473.231 404.513 474.006 404.513 474.811C404.513 475.617 404.825 476.391 405.384 476.971C405.943 477.551 406.704 477.89 407.508 477.918ZM392.619 491.838C393.423 491.81 394.184 491.47 394.743 490.891C395.302 490.311 395.614 489.537 395.614 488.731C395.614 487.925 395.302 487.151 394.743 486.571C394.184 485.992 393.423 485.652 392.619 485.624C391.815 485.652 391.053 485.992 390.494 486.571C389.935 487.151 389.623 487.925 389.623 488.731C389.623 489.537 389.935 490.311 390.494 490.891C391.053 491.47 391.815 491.81 392.619 491.838ZM413.464 496.809C414.268 496.781 415.03 496.441 415.588 495.862C416.147 495.282 416.46 494.508 416.46 493.702C416.46 492.896 416.147 492.122 415.588 491.542C415.03 490.963 414.268 490.623 413.464 490.595C412.66 490.623 411.898 490.963 411.34 491.542C410.781 492.122 410.468 492.896 410.468 493.702C410.468 494.508 410.781 495.282 411.34 495.862C411.898 496.441 412.66 496.781 413.464 496.809ZM401.056 506.255C401.86 506.227 402.622 505.887 403.181 505.307C403.739 504.728 404.052 503.953 404.052 503.148C404.052 502.342 403.739 501.568 403.181 500.988C402.622 500.408 401.86 500.069 401.056 500.041C400.252 500.069 399.49 500.408 398.932 500.988C398.373 501.568 398.06 502.342 398.06 503.148C398.06 503.953 398.373 504.728 398.932 505.307C399.49 505.887 400.252 506.227 401.056 506.255ZM291.815 149.263C291.787 150.415 291.309 151.51 290.483 152.312C289.672 153.124 288.736 153.799 287.711 154.313C285.699 155.345 283.529 156.033 281.291 156.35C280.137 156.519 278.961 156.459 277.83 156.172C276.7 155.886 275.637 155.378 274.703 154.678C273.762 153.983 273.003 153.072 272.489 152.02C271.975 150.969 271.722 149.81 271.75 148.639C271.854 147.977 272.169 147.366 272.649 146.898C273.095 146.478 273.605 146.13 274.159 145.868C275.203 145.342 276.241 144.961 277.243 144.556C278.227 144.17 279.179 143.705 280.089 143.168C280.534 142.902 280.951 142.609 281.369 142.315C281.86 141.962 282.375 141.643 282.91 141.361C284.057 140.756 285.376 140.561 286.648 140.808C287.883 141.104 288.969 141.837 289.706 142.872C291.018 144.75 291.751 146.972 291.815 149.263ZM291.645 149.263C291.501 147.095 290.509 145.072 288.885 143.633C288.214 142.972 287.345 142.55 286.411 142.433C285.477 142.316 284.531 142.511 283.719 142.986C283.285 143.189 282.888 143.507 282.455 143.767C281.982 144.117 281.484 144.432 280.965 144.71C279.95 145.242 278.893 145.692 277.806 146.055C276.752 146.434 275.685 146.718 274.721 147.097C273.757 147.484 272.903 147.94 272.664 148.818C272.509 149.852 272.649 150.909 273.067 151.867C273.485 152.825 274.165 153.645 275.028 154.233C275.924 154.773 276.924 155.116 277.962 155.241C279 155.365 280.052 155.267 281.05 154.953C283.096 154.433 285.25 153.899 287.3 153.326C288.33 153.042 289.305 152.587 290.186 151.981C290.627 151.677 290.989 151.271 291.243 150.799C291.497 150.326 291.634 149.8 291.645 149.263ZM276.36 114.456C276.337 115.411 276.122 116.351 275.726 117.22C275.33 118.089 274.763 118.868 274.057 119.511C272.659 120.816 271.057 121.885 269.316 122.676C265.873 124.267 262.23 125.381 258.488 125.988C256.584 126.326 254.632 126.278 252.747 125.848C250.862 125.418 249.083 124.615 247.513 123.485C245.943 122.346 244.682 120.832 243.843 119.082C243.005 117.332 242.615 115.4 242.71 113.461C242.896 112.421 243.413 111.47 244.183 110.749C244.927 110.085 245.766 109.538 246.673 109.127C248.416 108.285 250.186 107.673 251.904 106.996C253.608 106.347 255.258 105.565 256.839 104.657C257.62 104.206 258.352 103.693 259.082 103.178C259.886 102.604 260.726 102.084 261.599 101.621C263.421 100.643 265.521 100.311 267.555 100.679C269.543 101.134 271.312 102.266 272.557 103.883C273.763 105.384 274.687 107.092 275.286 108.923C275.927 110.701 276.289 112.567 276.36 114.456ZM276.189 114.456C276.106 112.599 275.65 110.777 274.848 109.1C274.1 107.432 273.043 105.92 271.735 104.643C270.519 103.42 268.958 102.6 267.262 102.293C265.584 102.074 263.88 102.409 262.408 103.246C261.637 103.666 260.89 104.129 260.169 104.631C259.386 105.207 258.566 105.73 257.715 106.198C256.028 107.102 254.273 107.869 252.466 108.495C250.696 109.146 248.897 109.661 247.234 110.355C246.423 110.678 245.655 111.104 244.95 111.621C244.302 112.132 243.836 112.841 243.623 113.639C243.41 115.441 243.69 117.268 244.432 118.923C245.174 120.579 246.352 122.001 247.838 123.039C249.369 124.01 251.086 124.649 252.878 124.916C254.671 125.184 256.499 125.073 258.246 124.591C261.792 123.767 265.434 122.835 268.905 121.69C270.651 121.128 272.291 120.28 273.76 119.181C274.497 118.631 275.1 117.919 275.521 117.1C275.942 116.282 276.171 115.377 276.189 114.456ZM268.783 67.5248C269.329 68.8531 269.601 70.2784 269.583 71.7149C269.529 73.1638 269.08 74.5703 268.285 75.7819C266.618 78.1222 264.442 80.0528 261.922 81.4281C256.947 84.1978 251.734 86.5146 246.345 88.3506C241.024 90.3366 235.634 92.0885 230.326 94.0371C227.676 95.02 225.022 95.9868 222.404 97.0347C219.761 98.0725 217.087 99.1075 214.347 99.9217C208.881 101.674 203.171 102.545 197.432 102.503C191.62 102.57 185.982 100.521 181.564 96.7379C177.488 92.6322 174.918 87.2651 174.274 81.5104C173.47 75.8351 173.541 70.0697 174.486 64.4162C175.812 58.8221 178.038 53.4813 181.076 48.603C184.037 43.6782 187.644 39.1728 191.8 35.2067C195.965 31.199 200.783 27.9343 206.047 25.5538C211.36 23.1832 217.138 22.0418 222.952 22.2145C228.768 22.3105 234.482 23.7587 239.644 26.445C244.722 29.2057 249.189 32.9673 252.776 37.5032C256.324 41.9755 259.378 46.8185 261.887 51.9481C264.449 57.0252 266.714 62.2382 268.783 67.5248ZM268.625 67.5883C264.343 57.1295 259.377 46.7051 251.925 38.2293C248.283 33.9817 243.864 30.4712 238.905 27.8872C233.927 25.4038 228.458 24.0652 222.897 23.9694C211.757 23.604 201.023 28.7602 192.891 36.3776C188.799 40.2185 185.202 44.557 182.185 49.2921C179.108 53.9975 176.815 59.1722 175.395 64.614C174.314 70.1512 174.136 75.827 174.865 81.4214C175.234 84.214 175.989 86.9415 177.109 89.5252C178.242 92.0961 179.894 94.4038 181.961 96.3028C186.278 99.9454 191.809 101.821 197.447 101.555C203.062 101.424 208.622 100.419 213.929 98.5751C219.281 96.9325 224.411 94.4091 229.833 92.6476C235.203 90.7897 240.607 89.0706 245.995 87.3411C251.409 85.7225 256.665 83.6147 261.698 81.0436C264.218 79.7775 266.396 77.9214 268.048 75.6328C268.835 74.4678 269.288 73.109 269.358 71.7041C269.393 70.2967 269.144 68.8968 268.625 67.5883Z" fill="#121214"/>
</svg>
