<svg width="680" height="492" viewBox="0 0 680 492" fill="none" xmlns="http://www.w3.org/2000/svg">
<path d="M515.576 326.293C515.299 326.293 515.023 326.277 514.747 326.261C515.559 321.495 516.404 316.713 517.525 311.916C518.597 316.535 519.426 321.122 520.206 325.726C518.688 326.085 517.135 326.275 515.576 326.293ZM520.807 329.243C520.775 331.999 520.775 334.754 520.775 337.51C520.775 340.525 520.791 343.556 520.775 346.571V433.176C519.783 438.963 518.825 444.733 517.525 450.504C516.226 444.733 515.267 438.963 514.276 433.176V337.915C514.276 335.03 514.276 332.128 514.244 329.243C514.357 328.595 514.455 327.963 514.568 327.314C516.525 327.544 518.504 327.506 520.45 327.201C520.58 327.881 520.693 328.562 520.807 329.243ZM410.54 182.777C410.54 182.777 410.881 183.377 411.547 184.317L411.515 184.35L406.738 189.455C404.789 190.833 402.839 192.211 400.743 193.443C401.848 191.287 403.099 189.261 404.334 187.219L407.957 183.377C409.533 183.053 410.54 182.777 410.54 182.777ZM439.086 152.628C437.965 154.768 436.714 156.81 435.479 158.836L430.686 163.942L429.809 164.866C428.64 164.477 427.446 164.168 426.234 163.942L428.314 161.722L433.107 156.616C435.057 155.254 437.006 153.892 439.086 152.628Z" fill="#121214"/>
<path d="M492.193 191.897C492.445 191.335 492.833 190.845 493.322 190.469C493.688 190.194 494.117 190.015 494.571 189.949C495.024 189.887 495.486 189.943 495.911 190.112C496.48 190.34 496.983 190.708 497.371 191.183H497.375L497.395 191.213L497.375 191.243L497.379 191.243C497.128 191.802 496.739 192.288 496.248 192.655C495.882 192.929 495.451 193.103 494.997 193.161C494.542 193.215 494.08 193.153 493.655 192.983C493.085 192.747 492.583 192.374 492.193 191.897ZM426.013 200.668L390.463 205.052C378.612 206.503 366.757 207.916 354.898 209.289C331.176 212.008 307.472 214.887 283.733 217.45L212.538 225.328L141.302 232.833L141.293 232.834C141.096 232.854 140.897 232.833 140.709 232.773C130.553 229.49 120.385 226.24 110.257 222.868L79.8458 212.838C69.7018 209.515 59.5746 206.141 49.464 202.715L19.1309 192.44L49.8058 201.65C60.0303 204.72 70.239 207.841 80.432 211.011L111.028 220.465C121.236 223.588 131.405 226.833 141.585 230.044L140.993 229.984L212.19 222.119L283.427 214.626C307.166 212.066 330.939 209.822 354.695 207.418C366.572 206.212 378.456 205.062 390.346 203.97L426.013 200.668Z" fill="#121214"/>
<path d="M19.127 207.544C29.1931 211.04 39.1959 214.702 49.2287 218.285L79.2258 229.3L94.218 234.824L109.162 240.472L139.05 251.77L138.287 251.678C152.53 249.758 166.802 248.062 181.063 246.278L223.856 241.01L266.687 236.031C280.976 234.467 295.257 232.841 309.563 231.403C295.355 233.604 281.124 235.617 266.9 237.692L224.192 243.629L181.448 249.277C167.196 251.133 152.955 253.076 138.686 254.794L138.668 254.797C138.416 254.826 138.16 254.794 137.922 254.703L108.131 243.154L93.2347 237.38L78.3869 231.481L48.7044 219.649C38.844 215.616 28.9536 211.663 19.127 207.544Z" fill="#121214"/>
<path d="M137.275 398.398C136.97 384.467 136.872 370.541 136.98 356.621C137.044 342.698 137.297 328.78 137.588 314.863C137.938 300.947 138.33 287.033 138.911 273.123C139.446 259.211 140.191 245.305 141.146 231.403C141.455 245.334 141.555 259.26 141.446 273.181C141.381 287.103 141.128 301.021 140.834 314.938C140.479 328.854 140.087 342.768 139.505 356.679C138.969 370.59 138.226 384.496 137.275 398.398Z" fill="#121214"/>
<path d="M573.06 81.3663C571.061 80.4749 569.226 79.2543 567.633 77.7557C566.054 76.2123 564.688 74.4662 563.571 72.5633C562.475 70.6501 561.568 68.6351 560.863 66.5466C560.152 64.436 559.639 62.2641 559.332 60.059C559.318 59.958 559.321 59.8556 559.339 59.7555L559.374 59.5734C559.875 57.3076 560.133 54.9949 560.142 52.6746C560.159 50.3642 559.915 48.0594 559.414 45.8035C558.418 41.3076 556.545 37.0511 553.902 33.2763L554.08 33.4635C551.269 30.7824 548.138 28.4561 544.759 26.537C541.328 24.6586 537.604 23.374 533.743 22.7379C525.821 21.7399 517.788 23.3141 510.833 27.2275C509.085 28.1608 507.4 29.2062 505.787 30.357C504.983 30.93 504.194 31.5232 503.435 32.1409C503.079 32.4346 502.631 32.7994 502.393 33.0468C502.091 33.3717 501.781 33.7508 501.483 34.1184C499.157 37.2091 497.406 40.6908 496.312 44.3983C495.212 48.0871 494.634 51.9113 494.596 55.7597C494.636 59.621 495.1 63.4662 495.981 67.2264C496.038 67.4951 496.043 67.7723 495.995 68.0428C495.627 70.0698 495.23 72.0524 494.781 74.0556C494.351 76.0961 493.807 78.111 493.152 80.0909C492.846 81.0177 492.116 82.6358 492.28 82.299C492.212 82.1831 492.317 82.4871 492.89 82.8859C494.193 83.6767 495.68 84.1145 497.204 84.1558L497.359 84.1499C497.7 84.1381 498.038 84.2097 498.345 84.3585C498.652 84.5073 498.917 84.7287 499.118 85.0035C501.396 88.148 503.803 91.2489 506.192 94.3202C508.52 97.3699 511.046 100.264 513.754 102.984C514.088 103.287 514.422 103.573 514.749 103.822C514.904 103.931 515.068 104.048 515.203 104.128L515.383 104.228C515.437 104.257 515.425 104.237 515.445 104.261C515.51 104.296 515.304 104.226 515.248 104.283C515.198 104.313 515.409 104.25 515.477 104.238C515.689 104.194 515.899 104.138 516.105 104.072C516.533 103.953 516.976 103.797 517.414 103.65C519.193 102.996 520.917 102.201 522.568 101.272C525.949 99.5362 528.859 97.0102 531.049 93.9094L531.102 93.8279C531.146 93.7595 531.203 93.7004 531.27 93.654C531.337 93.6076 531.412 93.5748 531.492 93.5575C531.572 93.5403 531.654 93.5388 531.734 93.5533C531.815 93.5678 531.891 93.5979 531.96 93.6419L532.027 93.6918C533 94.5124 533.904 95.4098 534.733 96.3752C535.152 96.858 535.528 97.3773 535.855 97.9269C536.209 98.4785 536.452 99.0934 536.571 99.7374C536.578 99.7873 536.566 99.8381 536.538 99.8798C536.509 99.9214 536.466 99.9509 536.417 99.9623C536.367 99.9736 536.316 99.9662 536.272 99.9413C536.228 99.9164 536.195 99.876 536.179 99.828L536.176 99.8161C535.713 98.721 534.992 97.7535 534.074 96.9954C533.19 96.1751 532.242 95.4265 531.238 94.7567L532.216 94.539C530.256 98.1627 527.381 101.213 523.877 103.388C522.173 104.524 520.381 105.521 518.517 106.37C518.035 106.572 517.565 106.788 517.051 106.961C516.805 107.055 516.544 107.142 516.266 107.22C516.107 107.274 515.944 107.315 515.778 107.343C515.47 107.392 515.155 107.388 514.848 107.331C514.154 107.17 513.498 106.877 512.915 106.467C512.437 106.148 512.004 105.817 511.589 105.483C508.562 102.809 505.751 99.9012 503.182 96.7868C500.576 93.7773 498.143 90.672 495.712 87.512L497.626 88.3589C496.351 88.4388 495.073 88.3005 493.846 87.9501C492.638 87.6405 491.491 87.1289 490.454 86.4372C489.818 86.0171 489.263 85.4848 488.818 84.8666C488.24 84.081 487.944 83.1236 487.979 82.1495C487.991 81.6736 488.087 81.2036 488.264 80.7617L488.492 80.1895L488.616 79.9144C488.783 79.5622 488.944 79.1135 489.096 78.6853C490.29 74.9449 491.28 71.1425 492.06 67.2949L492.074 68.1106C491.235 64.0192 490.853 59.8476 490.935 55.6723C491.103 51.4781 491.927 47.3359 493.377 43.3955C493.732 42.4121 494.185 41.4627 494.603 40.5074C495.106 39.5878 495.528 38.632 496.1 37.7523C497.155 35.9448 498.393 34.2494 499.794 32.6925C500.156 32.3035 500.506 31.9244 500.916 31.5394C501.331 31.1853 501.764 30.8532 502.213 30.5441C503.055 29.9462 503.914 29.3846 504.785 28.8464C506.526 27.7657 508.344 26.8274 510.174 25.9299C517.524 22.2407 525.726 20.5678 533.937 21.0826C538.083 21.43 542.141 22.4676 545.943 24.1523C549.752 25.8655 553.282 28.1392 556.414 30.8975C556.474 30.9493 556.529 31.0061 556.579 31.0673L556.593 31.0851C558.197 33.1343 559.532 35.3802 560.565 37.7678C561.609 40.1135 562.376 42.572 562.853 45.094C563.377 47.6106 563.575 50.1837 563.445 52.7506C563.331 55.3078 562.93 57.8442 562.251 60.3126L562.294 59.8279C562.449 61.8535 562.788 63.8609 563.307 65.8253C563.81 67.8183 564.493 69.762 565.345 71.633C566.21 73.5014 567.302 75.2567 568.597 76.8594C569.933 78.4641 571.5 79.8626 573.247 81.0095L573.259 81.0182C573.301 81.0468 573.33 81.0899 573.341 81.139C573.353 81.1882 573.345 81.2397 573.32 81.2835C573.295 81.3273 573.254 81.3601 573.206 81.3754C573.158 81.3908 573.106 81.3875 573.06 81.3663Z" fill="#121214"/>
<path d="M499.595 79.0961C499.244 79.0966 498.899 79.0056 498.594 78.8321C498.289 78.6586 498.035 78.4085 497.857 78.1068L492.291 68.6915C492.156 68.464 492.067 68.212 492.029 67.9501C491.992 67.6881 492.006 67.4213 492.072 67.165C492.138 66.9086 492.254 66.6678 492.413 66.4562C492.572 66.2446 492.772 66.0665 493 65.932C493.229 65.7975 493.482 65.7092 493.744 65.6724C494.007 65.6355 494.274 65.6506 494.531 65.717C494.788 65.7834 495.029 65.8996 495.24 66.0591C495.452 66.2186 495.63 66.4181 495.764 66.6464L501.33 76.0616C501.511 76.367 501.608 76.7147 501.61 77.0694C501.613 77.4241 501.522 77.7731 501.345 78.0812C501.169 78.3893 500.915 78.6454 500.607 78.8237C500.3 79.0019 499.951 79.0959 499.595 79.0961Z" fill="#121214"/>
<path d="M495.251 70.7415C495.037 70.7412 494.828 70.6728 494.655 70.5461C494.482 70.4194 494.354 70.241 494.29 70.0369C494.225 69.8327 494.228 69.6134 494.297 69.4108C494.366 69.2082 494.498 69.0328 494.674 68.91C497.599 66.8744 523.426 49.0617 528.919 49.2818C529.051 49.2878 529.181 49.3197 529.301 49.3758C529.421 49.4319 529.528 49.511 529.618 49.6086C529.707 49.7062 529.776 49.8204 529.821 49.9447C529.866 50.0689 529.886 50.2008 529.88 50.3328C529.864 50.5981 529.745 50.8467 529.549 51.0258C529.352 51.205 529.093 51.3005 528.827 51.2921C528.802 51.2904 528.776 51.2905 528.75 51.2905C524.944 51.2905 506.586 63.0738 495.827 70.5594C495.658 70.6775 495.457 70.741 495.251 70.7415Z" fill="#121214"/>
<path d="M525.969 55.1152C525.933 53.6131 526.417 52.1446 527.34 50.9569C527.618 50.634 527.959 50.3701 528.341 50.1808C528.724 49.9914 529.14 49.8804 529.566 49.8543L530.215 49.8441C530.423 49.8678 530.617 49.9276 530.819 49.9707C531.215 50.0469 531.598 50.1806 531.955 50.3676C532.656 50.6874 533.318 51.0851 533.929 51.5532C534.487 52.0444 535.075 52.4911 535.609 53.0281C536.677 54.1149 537.558 55.369 538.218 56.7405C539.481 59.5006 539.839 62.5877 539.241 65.5625C538.97 67.0422 538.395 68.4499 537.552 69.6971C537.12 70.3446 536.525 70.868 535.827 71.2151C535.479 71.3908 535.083 71.446 534.7 71.3722C534.317 71.2983 533.969 71.0995 533.712 70.8071C533.989 70.9869 534.316 71.0759 534.647 71.0617C534.977 71.0475 535.295 70.9308 535.556 70.728C536.058 70.3155 536.452 69.7867 536.703 69.1878C537.249 67.967 537.581 66.6618 537.685 65.329C537.944 62.6814 537.498 60.0125 536.393 57.5917C535.843 56.4016 535.113 55.3032 534.228 54.3353C533.797 53.8382 533.281 53.3915 532.81 52.9114C532.32 52.49 531.798 52.1064 531.249 51.7642C530.797 51.3946 530.236 51.1846 529.652 51.1669C529.068 51.1493 528.494 51.3249 528.021 51.6664C527.03 52.6041 526.319 53.7981 525.969 55.1152ZM501.474 92.2791C503.019 92.1082 504.548 91.8206 506.049 91.4188C506.737 91.2277 507.404 90.9674 508.04 90.642C508.725 90.3317 509.363 89.8953 510.199 89.4726C510.063 90.3827 509.643 91.2271 508.999 91.8862C508.356 92.5788 507.536 93.0833 506.626 93.3452C505.733 93.6063 504.791 93.6509 503.877 93.475C502.975 93.3225 502.139 92.9063 501.474 92.2791ZM495.25 63.7485C495.177 62.3699 495.629 61.0147 496.514 59.9538C497.394 58.8608 498.554 58.0256 499.871 57.5367C501.147 57.0684 502.502 56.8521 503.861 56.8999C504.519 56.949 505.174 57.0331 505.824 57.152C506.462 57.3157 507.088 57.5223 507.698 57.7706C507.073 57.9309 506.438 58.0542 505.797 58.1398C505.179 58.2526 504.576 58.3867 503.977 58.4655C502.826 58.6908 501.695 59.0076 500.595 59.4128C498.365 60.1993 496.476 61.7311 495.25 63.7485ZM503.707 72.3461C504.295 72.3258 504.852 72.0784 505.261 71.6562C505.67 71.234 505.898 70.6699 505.898 70.0828C505.898 69.4957 505.67 68.9316 505.261 68.5094C504.852 68.0872 504.295 67.8398 503.707 67.8195C503.119 67.8398 502.562 68.0872 502.153 68.5094C501.744 68.9316 501.515 69.4957 501.515 70.0828C501.515 70.6699 501.744 71.234 502.153 71.6562C502.562 72.0784 503.119 72.3258 503.707 72.3461ZM549.44 129.712C547.134 127.795 544.516 126.284 541.7 125.244C538.923 124.205 536.041 123.469 533.104 123.05C530.15 122.607 527.17 122.362 524.183 122.318L519.655 122.339C518.143 122.407 516.625 122.483 515.08 122.47C516.551 122.042 518.048 121.702 519.551 121.356C521.068 121.127 522.595 120.895 524.132 120.748C527.228 120.501 530.343 120.606 533.415 121.063C536.514 121.516 539.524 122.444 542.338 123.815C545.174 125.138 547.621 127.17 549.44 129.712ZM436.282 212.244C437.144 209.394 438.289 206.636 439.7 204.012C441.076 201.357 442.688 198.831 444.515 196.462C446.331 194.052 448.454 191.888 450.83 190.024C453.181 188.11 455.966 186.798 458.941 186.203C456.334 187.503 453.943 189.194 451.851 191.219C449.764 193.216 447.844 195.381 446.11 197.691C442.531 202.262 439.47 207.236 436.282 212.244ZM507.698 243.178C508.606 243.407 509.551 243.455 510.477 243.318C511.397 243.216 512.302 243.011 513.176 242.707L514.464 242.199C514.887 242.019 515.282 241.769 515.691 241.559C516.503 241.123 517.281 240.624 518.015 240.066C520.966 237.83 523.593 235.198 525.821 232.245C526.901 230.736 527.998 229.239 529.031 227.698C529.999 226.11 531.039 224.57 531.948 222.946L534.651 218.058L537.114 213.035C540.369 206.285 543.553 199.46 546.918 192.746L551.956 182.666C553.702 179.339 555.385 175.982 557.183 172.684C555.793 176.186 554.287 179.628 552.844 183.101L548.315 193.418C545.279 200.292 542.161 207.102 538.933 213.901C535.786 220.808 531.785 227.296 527.023 233.212C524.577 236.152 521.729 238.733 518.562 240.88C517.754 241.397 516.907 241.85 516.027 242.235C515.584 242.42 515.16 242.642 514.705 242.796L513.328 243.215C511.491 243.77 509.528 243.757 507.698 243.178ZM505.836 197.833C505.715 197.833 505.595 197.811 505.482 197.768L496.456 194.387C496.207 194.292 496.005 194.103 495.895 193.861C495.786 193.618 495.777 193.342 495.871 193.093C495.964 192.844 496.153 192.642 496.396 192.531C496.639 192.421 496.915 192.411 497.165 192.503L506.191 195.885C506.412 195.968 506.597 196.125 506.713 196.33C506.829 196.535 506.87 196.775 506.828 197.006C506.786 197.238 506.663 197.448 506.482 197.599C506.301 197.75 506.072 197.833 505.836 197.833ZM431.712 195.327C429.542 196.003 427.242 196.154 425.001 195.769C422.728 195.357 420.551 194.529 418.58 193.326C416.625 192.136 414.825 190.71 413.222 189.078C411.616 187.43 410.19 185.617 408.968 183.668L411.019 184.517C406.855 185.583 402.559 186.046 398.263 185.892C396.065 185.857 393.886 185.489 391.8 184.798C390.686 184.421 389.7 183.743 388.951 182.838C388.561 182.373 388.264 181.839 388.076 181.263C387.939 180.655 387.939 180.025 388.076 179.417C388.378 178.306 388.967 177.293 389.783 176.48C390.509 175.675 391.305 174.936 392.163 174.274C393.824 172.941 395.572 171.72 397.395 170.618C400.985 168.401 404.726 166.438 408.591 164.744C410.537 163.948 412.36 163.019 414.596 162.335C416.774 161.673 419.035 161.32 421.312 161.288C423.562 161.279 425.803 161.579 427.971 162.18C430.114 162.714 432.198 163.464 434.189 164.419C438.068 166.31 441.664 168.734 444.871 171.618C448.064 174.405 450.899 177.576 453.31 181.059C453.338 181.099 453.35 181.148 453.344 181.197C453.339 181.246 453.315 181.29 453.279 181.323C453.242 181.356 453.195 181.375 453.146 181.375C453.097 181.376 453.049 181.359 453.012 181.327L453.002 181.319C446.945 175.844 440.045 171.377 432.567 168.086C430.765 167.32 428.891 166.736 426.972 166.343C425.119 165.845 423.209 165.583 421.289 165.565C419.395 165.506 417.502 165.705 415.662 166.156C413.88 166.585 411.915 167.43 409.974 168.114C406.117 169.583 402.233 170.977 398.465 172.622C396.601 173.453 394.796 174.411 393.065 175.491C392.233 176.042 391.454 176.669 390.737 177.363C390.051 177.996 389.544 178.798 389.268 179.689C389.158 180.102 389.163 180.538 389.282 180.949C389.402 181.36 389.631 181.731 389.946 182.022C390.556 182.708 391.372 183.18 392.272 183.367C394.216 183.761 396.214 183.814 398.177 183.522C402.179 182.899 406.146 182.07 410.062 181.037C410.45 180.948 410.857 180.981 411.224 181.134C411.592 181.286 411.903 181.549 412.113 181.887C413.173 183.613 414.383 185.243 415.728 186.758C417.061 188.307 418.549 189.717 420.169 190.964C421.778 192.21 423.569 193.204 425.48 193.909C427.456 194.619 429.544 194.965 431.644 194.93C431.698 194.929 431.75 194.949 431.789 194.986C431.828 195.024 431.851 195.075 431.852 195.129C431.852 195.172 431.839 195.215 431.814 195.25C431.789 195.286 431.753 195.313 431.712 195.327ZM465.811 336.81L470.339 347.847C470.36 347.898 470.365 347.954 470.355 348.008C470.345 348.061 470.32 348.111 470.282 348.151C470.244 348.191 470.195 348.218 470.141 348.231C470.088 348.244 470.032 348.24 469.98 348.222L469.963 348.215C467.69 347.331 465.309 346.752 462.883 346.493C460.471 346.291 458.041 346.472 455.685 347.029C451.001 348.345 446.746 350.867 443.347 354.342C439.906 357.798 436.935 361.691 434.51 365.92C432.022 370.116 429.929 374.534 428.258 379.116L428.255 379.126C428.198 379.283 428.095 379.418 427.959 379.515C427.823 379.611 427.661 379.664 427.494 379.666C427.327 379.668 427.164 379.619 427.026 379.526C426.888 379.433 426.781 379.299 426.721 379.144L417.929 356.482L409.285 333.764L410.89 333.377L413.984 364.793C414.984 375.268 416.072 385.734 417.166 396.199C417.174 396.268 417.159 396.338 417.125 396.398C414.748 400.128 411.154 402.924 406.949 404.313C402.83 405.728 398.524 406.531 394.171 406.696C389.84 406.902 385.499 406.802 381.182 406.395C376.861 406.007 372.566 405.365 368.321 404.472C368.22 404.451 368.127 404.399 368.056 404.324C367.985 404.25 367.938 404.155 367.922 404.053L367.92 404.039C365.451 388.15 363.377 372.21 361.699 356.219C360.068 340.224 358.825 324.178 358.408 308.078C358.374 304.05 358.336 300.022 358.395 295.993L358.597 289.946L358.709 286.923L358.957 283.901L359.469 277.859L360.385 271.841C360.704 269.83 361.146 267.841 361.709 265.884C361.966 264.898 362.192 263.903 362.477 262.925L363.554 260.051L364.647 257.185C365.098 256.266 365.596 255.366 366.069 254.457C366.56 253.556 367.002 252.629 367.535 251.753L369.309 249.23C370.502 247.554 371.835 245.981 373.292 244.528C374.023 243.803 374.796 243.12 375.606 242.484C376.367 241.791 377.186 241.163 378.053 240.607L380.648 238.931L383.413 237.56C384.342 237.12 385.297 236.737 386.272 236.413C387.229 236.04 388.211 235.735 389.211 235.5C393.186 234.414 397.319 234.02 401.428 234.337L400.767 234.711C401.627 232.863 402.692 231.116 403.942 229.504C405.223 227.924 406.671 226.487 408.262 225.218C411.487 222.773 415.116 220.911 418.986 219.718C422.821 218.538 426.774 217.785 430.775 217.471C434.756 217.123 438.761 217.135 442.74 217.507C442.766 217.51 442.791 217.523 442.808 217.544C442.825 217.564 442.833 217.591 442.83 217.617C442.827 217.643 442.813 217.668 442.792 217.684C442.771 217.701 442.745 217.709 442.718 217.707C438.754 217.453 434.775 217.556 430.83 218.016C426.894 218.44 423.017 219.296 419.27 220.568C415.533 221.79 412.039 223.651 408.943 226.069C407.441 227.306 406.078 228.701 404.876 230.23C403.713 231.781 402.727 233.457 401.935 235.226C401.881 235.345 401.793 235.444 401.681 235.511C401.57 235.578 401.441 235.611 401.31 235.604L401.274 235.601C393.345 235.156 385.497 237.396 379.003 241.958C372.667 246.699 367.936 253.259 365.444 260.76L364.411 263.53C364.139 264.478 363.923 265.446 363.676 266.402C363.133 268.307 362.708 270.243 362.404 272.199L361.522 278.093L361.034 284.056L360.796 287.038L360.693 290.034L360.509 296.029C360.455 300.028 360.525 304.033 360.539 308.035C360.835 324.056 361.99 340.07 363.471 356.046C364.924 372.026 366.755 387.971 368.965 403.88L368.565 403.447C372.753 404.396 376.994 405.098 381.265 405.55C385.536 406.033 389.839 406.178 394.133 405.985C398.42 405.848 402.664 405.083 406.728 403.715C410.808 402.412 414.29 399.702 416.55 396.071L416.509 396.27C415.347 385.812 414.179 375.355 412.923 364.907L409.235 333.556C409.211 333.355 409.262 333.153 409.377 332.987C409.492 332.821 409.664 332.703 409.86 332.654C410.057 332.605 410.264 332.63 410.444 332.723C410.623 332.816 410.763 332.971 410.836 333.159L410.84 333.169L419.622 355.835L428.248 378.561L426.711 378.589C428.452 373.915 430.625 369.413 433.202 365.14C435.746 360.835 438.863 356.893 442.466 353.422C446.072 349.873 450.551 347.333 455.453 346.056C457.92 345.519 460.461 345.398 462.969 345.697C465.451 346.037 467.877 346.707 470.182 347.687L469.806 348.056L465.623 336.883C465.614 336.858 465.615 336.831 465.625 336.807C465.636 336.783 465.656 336.764 465.681 336.754C465.705 336.744 465.733 336.745 465.757 336.755C465.781 336.766 465.801 336.785 465.811 336.81Z" fill="#121214"/>
<path d="M410.063 333.466L411.858 350.044L400.747 287.175L412.885 340.809L410.063 333.466Z" fill="#121214"/>
<path d="M492.369 244.927C469.949 244.927 404.346 236.377 401.221 235.967C401.089 235.95 400.962 235.908 400.847 235.842C400.732 235.776 400.631 235.688 400.55 235.583C400.469 235.479 400.41 235.359 400.376 235.231C400.341 235.103 400.332 234.97 400.349 234.839C400.367 234.708 400.41 234.581 400.476 234.467C400.542 234.352 400.631 234.252 400.736 234.171C400.841 234.091 400.961 234.032 401.089 233.998C401.218 233.964 401.351 233.955 401.483 233.973C402.341 234.084 487.514 245.178 498.119 242.527C498.247 242.494 498.381 242.487 498.512 242.506C498.643 242.525 498.77 242.569 498.884 242.637C498.998 242.705 499.097 242.794 499.176 242.9C499.256 243.007 499.313 243.127 499.345 243.256C499.378 243.384 499.384 243.517 499.365 243.648C499.345 243.779 499.3 243.905 499.232 244.019C499.164 244.132 499.074 244.231 498.967 244.31C498.86 244.388 498.739 244.445 498.61 244.477C496.552 244.847 494.459 244.998 492.369 244.927Z" fill="#121214"/>
<path d="M645.258 134.539C645.258 134.539 572.667 117.649 554.763 204.076C536.859 290.487 532.294 284.214 532.294 284.214C499.622 331.464 435.902 302.482 421.442 295.042C419.8 294.154 417.926 293.786 416.069 293.986C414.212 294.185 412.459 294.944 411.044 296.161C407.162 299.71 407.762 305.448 407.762 305.448L408.039 311.948C408.088 312.996 408.363 314.02 408.845 314.951C409.327 315.883 410.006 316.699 410.833 317.346C434.391 336.019 476.324 339.893 514.277 337.915C516.453 337.802 518.631 337.672 520.775 337.51C553.578 335.225 582.351 328.806 592.034 324.299C613.804 314.153 620.092 318.497 653.967 229.168C687.857 139.855 645.258 134.539 645.258 134.539ZM659.702 158.35L659.685 158.334C650.166 153.159 639.207 151.245 628.492 152.888C617.964 154.654 608.752 160.798 601.7 168.691C598.145 172.683 594.979 177.004 592.245 181.594C589.448 186.2 586.962 190.987 584.804 195.923C580.547 205.892 576.991 216.145 574.162 226.607C572.781 231.859 571.335 237.127 570.1 242.443C569.451 245.102 568.687 247.727 568.005 250.37C567.322 253.012 566.591 255.638 565.844 258.263C563.085 268.868 559.661 279.289 555.592 289.466C554.569 292.011 553.334 294.475 552.148 296.955C550.816 299.386 549.597 301.85 548.086 304.168C545.235 308.95 541.826 313.379 537.932 317.362C534.026 321.435 529.211 324.529 523.878 326.391C522.759 326.752 521.613 327.023 520.451 327.201C518.504 327.506 516.526 327.544 514.569 327.315C512.107 327.013 509.738 326.196 507.615 324.916C507.597 324.904 507.581 324.89 507.568 324.872C507.555 324.854 507.546 324.834 507.542 324.813C507.537 324.792 507.537 324.77 507.541 324.748C507.546 324.727 507.554 324.707 507.567 324.689C507.586 324.656 507.616 324.632 507.652 324.62C507.688 324.608 507.727 324.609 507.762 324.624L507.778 324.64C509.968 325.644 512.339 326.195 514.748 326.261C515.024 326.277 515.3 326.293 515.577 326.293C517.136 326.276 518.689 326.085 520.207 325.726C521.265 325.477 522.307 325.163 523.326 324.786C528.229 322.724 532.605 319.589 536.129 315.612C539.738 311.651 542.919 307.32 545.616 302.693C547.046 300.407 548.265 297.992 549.565 295.642C550.718 293.194 552.051 290.844 553.123 288.364C557.76 278.531 561.67 268.374 564.82 257.972C566.445 252.769 567.696 247.468 568.98 242.184C570.214 236.867 571.238 231.534 572.44 226.186C574.676 215.435 577.873 204.905 581.993 194.723C586.06 184.375 591.856 174.789 599.134 166.374C602.905 162.189 607.313 158.623 612.196 155.805C617.108 153.001 622.513 151.158 628.118 150.375C639.278 149.115 650.524 151.836 659.864 158.058C659.882 158.07 659.898 158.085 659.911 158.103C659.923 158.12 659.932 158.14 659.936 158.162C659.941 158.183 659.941 158.205 659.937 158.226C659.933 158.247 659.925 158.267 659.913 158.285C659.89 158.318 659.857 158.343 659.819 158.354C659.78 158.366 659.739 158.365 659.702 158.35ZM588.358 449.43C588.324 451.095 587.796 452.712 586.841 454.077C585.903 455.422 584.77 456.62 583.479 457.633C580.911 459.645 578.109 461.342 575.135 462.687C569.198 465.387 563.007 467.491 556.652 468.969C543.958 471.973 530.927 473.324 517.884 472.989C504.887 472.651 491.949 471.105 479.239 468.371C472.863 467.084 466.615 465.23 460.571 462.831C457.505 461.609 454.6 460.018 451.921 458.094C450.534 457.09 449.313 455.876 448.301 454.497C447.213 453.023 446.588 451.259 446.508 449.43C446.509 447.576 447.059 445.764 448.09 444.222C449.055 442.765 450.24 441.465 451.604 440.369C454.22 438.259 457.115 436.517 460.206 435.192C466.239 432.561 472.536 430.577 478.989 429.275C491.781 426.615 504.818 425.316 517.884 425.4C530.941 425.34 543.959 426.827 556.665 429.831C563.018 431.328 569.209 433.442 575.149 436.143C578.124 437.491 580.926 439.193 583.493 441.21C584.784 442.225 585.916 443.427 586.851 444.776C587.804 446.145 588.328 447.764 588.358 449.43ZM587.955 449.43C587.898 446.22 585.613 443.554 583.12 441.676C580.538 439.791 577.705 438.273 574.703 437.169C568.693 434.954 562.469 433.364 556.132 432.425C543.473 430.524 530.685 429.609 517.884 429.691C505.1 429.633 492.336 430.735 479.751 432.982C473.512 434.117 467.395 435.837 461.48 438.12C458.592 439.251 455.852 440.728 453.32 442.516C450.9 444.286 448.816 446.68 448.716 449.43C448.632 452.189 450.63 454.807 453.003 456.741C455.47 458.72 458.2 460.348 461.116 461.578C467.019 464.094 473.186 465.944 479.502 467.093C485.822 468.277 492.215 469.032 498.637 469.352C505.049 469.744 511.475 469.781 517.884 469.64C530.694 469.448 543.476 468.397 556.144 466.495C562.481 465.537 568.703 463.937 574.716 461.722C577.719 460.614 580.553 459.093 583.134 457.203C585.626 455.319 587.906 452.64 587.955 449.43ZM413.174 400.509C414.235 402.443 415.019 404.515 415.503 406.667C416.064 408.791 416.494 410.942 416.862 413.101C417.582 417.421 418.168 421.761 418.575 426.116C418.766 428.316 418.981 430.425 419.086 432.699C419.14 434.997 418.749 437.284 417.933 439.434C417.521 440.518 416.982 441.548 416.326 442.505C415.663 443.429 414.937 444.307 414.154 445.134C412.593 446.781 410.792 448.183 408.811 449.293C404.871 451.444 400.514 452.726 396.035 453.053C393.819 453.246 391.589 453.193 389.385 452.896C388.277 452.762 387.182 452.535 386.112 452.218C385.05 451.891 384.028 451.52 382.994 451.146C374.715 448.145 367.185 443.579 359.042 440.461C350.954 437.246 342.606 434.536 334.59 430.892C330.498 429.142 326.61 426.949 322.998 424.353C321.174 422.992 319.529 421.408 318.102 419.638C317.284 418.641 316.755 417.44 316.573 416.164C316.48 415.508 316.496 414.842 316.619 414.191C316.763 413.562 316.986 412.954 317.285 412.382C318.529 410.314 320.366 408.665 322.558 407.648C324.618 406.625 326.834 405.952 329.116 405.655C330.245 405.505 331.384 405.432 332.523 405.435C333.654 405.481 334.823 405.567 335.858 405.651C337.988 405.83 340.161 405.83 342.329 405.799C351.019 405.625 359.737 404.785 368.428 403.86C368.454 403.857 368.481 403.865 368.502 403.881C368.523 403.897 368.537 403.921 368.54 403.948C368.543 403.973 368.536 403.999 368.521 404.019C368.506 404.04 368.483 404.054 368.458 404.059C359.843 405.707 351.133 406.813 342.38 407.371C340.179 407.463 337.974 407.527 335.74 407.403C334.595 407.341 333.579 407.3 332.526 407.282C331.48 407.309 330.436 407.406 329.402 407.572C327.35 407.901 325.362 408.545 323.508 409.48C321.718 410.326 320.218 411.679 319.194 413.37C318.775 414.157 318.609 415.053 318.716 415.937C318.824 416.822 319.2 417.653 319.796 418.317C321.119 419.943 322.625 421.412 324.285 422.695C327.737 425.253 331.46 427.425 335.387 429.174C343.246 432.877 351.468 435.849 359.477 439.449C363.49 441.218 367.388 443.234 371.286 445.208C375.124 447.274 379.117 449.04 383.229 450.491C385.237 451.283 387.338 451.816 389.481 452.075C391.626 452.267 393.786 452.221 395.92 451.939C400.177 451.436 404.279 450.043 407.959 447.851C409.764 446.769 411.409 445.441 412.847 443.905C414.307 442.429 415.474 440.692 416.287 438.783C417.055 436.853 417.442 434.793 417.427 432.716C417.367 430.632 417.185 428.394 417.034 426.246C416.696 421.909 416.377 417.567 415.816 413.256C415.465 408.932 414.518 404.677 413.001 400.612L412.996 400.601C412.986 400.578 412.985 400.552 412.993 400.527C413.001 400.503 413.019 400.483 413.042 400.472C413.064 400.46 413.091 400.457 413.115 400.464C413.14 400.471 413.161 400.487 413.174 400.509Z" fill="#121214"/>
<path d="M376.381 405.388C376.581 407.712 376.921 410.023 377.402 412.306C377.84 414.557 378.503 416.758 379.38 418.877C380.155 420.912 381.493 422.686 383.239 423.992C384.085 424.557 385.056 424.908 386.068 425.014C387.117 425.093 388.172 424.983 389.182 424.69C391.324 424.055 393.346 423.072 395.166 421.779C397.054 420.545 398.741 419.029 400.167 417.284C403.084 413.696 404.754 409.26 404.927 404.643C405.529 409.453 404.275 414.311 401.42 418.233C398.504 422.201 394.399 425.143 389.698 426.633C388.447 426.975 387.144 427.087 385.853 426.965C384.524 426.816 383.255 426.333 382.165 425.56C380.164 424 378.685 421.871 377.923 419.454C376.455 414.919 375.93 410.132 376.381 405.388ZM341.584 418.082C341.034 416.809 340.847 415.408 341.044 414.035C341.212 412.622 341.72 411.271 342.525 410.096C343.326 408.922 344.397 407.956 345.649 407.278C346.252 406.943 346.891 406.674 347.554 406.478C348.215 406.311 348.89 406.205 349.571 406.16C349.048 406.626 348.498 406.964 347.995 407.363C347.513 407.79 346.982 408.118 346.554 408.563C346.334 408.778 346.109 408.979 345.88 409.173L345.279 409.838C344.875 410.267 344.512 410.731 344.193 411.225C342.846 413.301 341.957 415.638 341.584 418.082ZM352.473 418.082C351.912 416.832 351.737 415.443 351.97 414.093C352.173 412.735 352.633 411.428 353.327 410.243C354.026 409.082 354.912 408.043 355.947 407.167C356.463 406.744 357.006 406.355 357.573 406.004C358.159 405.682 358.768 405.403 359.394 405.169C359.033 405.715 358.643 406.241 358.226 406.746L357.09 408.247C356.363 409.216 355.687 410.222 355.064 411.261C353.796 413.361 352.919 415.672 352.473 418.082Z" fill="#121214"/>
<path d="M371.448 455.945C367.672 454.719 364.031 453.114 360.579 451.156C354.691 447.797 344.407 442.023 341.503 440.897C332.348 437.315 321.482 433.614 317.568 427.618C310.896 417.4 317.565 412.121 317.565 412.121C319.676 423.364 332.873 429.671 351.747 436.913C370.621 444.155 372.96 447.575 385.865 451.76C392.721 453.993 408.268 452.665 415.588 441.982C416.11 441.223 416.556 440.415 416.919 439.568L418.259 429.07C428.165 468.264 385.966 460.632 371.448 455.945ZM430.826 425.846C428.81 425.189 427.052 423.916 425.801 422.208C424.549 420.5 423.868 418.442 423.852 416.326C423.671 413.294 424.466 410.283 426.121 407.733C427.775 405.182 430.203 403.226 433.051 402.149C443.27 397.856 448.11 385.387 449.931 379.215C451.455 373.969 453.814 369 456.916 364.499C462.004 357.182 469.988 349.864 479.73 355.091C483.107 357.011 485.67 360.089 486.942 363.753C489.381 370.282 493.293 376.729 482.707 391.092C480.99 393.39 479.135 395.58 477.152 397.653C474.084 400.958 471.681 404.82 470.073 409.029C468.602 413.133 454.206 433.265 430.826 425.846Z" fill="#121214"/>
<path d="M432.757 367.425C433.778 372.632 433.77 377.988 432.735 383.193C431.759 388.433 429.946 393.483 427.365 398.15C426.078 400.446 424.662 402.669 423.125 404.807C422.444 405.848 421.904 406.975 421.52 408.157C421.185 409.36 421.046 410.61 421.111 411.857C421.106 414.425 421.566 416.973 422.468 419.378C422.864 420.606 423.574 421.71 424.529 422.58C425.483 423.451 426.649 424.058 427.91 424.341C426.575 424.233 425.307 423.706 424.29 422.835C423.287 421.939 422.477 420.848 421.909 419.629C420.785 417.198 420.138 414.573 420.004 411.899C419.884 410.533 419.962 409.157 420.237 407.813C420.552 406.472 421.055 405.182 421.731 403.982C423.113 401.633 424.481 399.569 425.644 397.236C428.038 392.678 429.854 387.841 431.05 382.836C432.308 377.799 432.882 372.615 432.757 367.425ZM465.757 346.566C466.717 346.628 467.657 346.861 468.535 347.252C469.402 347.617 470.221 348.085 470.974 348.646C471.742 349.216 472.421 349.897 472.99 350.664C473.607 351.441 473.986 352.379 474.084 353.365C473.29 352.762 472.58 352.283 471.874 351.771L469.761 350.252C468.281 349.19 466.937 347.952 465.757 346.566ZM439.72 214.969C439.723 214.999 439.72 215.031 439.711 215.06C439.703 215.09 439.688 215.118 439.668 215.142C439.649 215.166 439.624 215.186 439.597 215.201C439.57 215.215 439.54 215.225 439.509 215.228L374.668 224.305L311.306 232.896L311.728 302.433L311.923 337.948L312.02 373.462C312.023 374.051 311.812 374.621 311.427 375.068C311.042 375.514 310.509 375.807 309.924 375.893H309.908L223.784 388.471L137.611 400.742H137.595C137.127 400.809 136.65 400.729 136.23 400.515L76.9778 371.03L17.8071 341.384H17.7909C17.5145 341.245 17.2827 341.032 17.1219 340.768C16.961 340.505 16.8775 340.201 16.881 339.893L17.7909 266.173C18.1321 241.584 18.1646 217.011 18.3756 192.438C18.3772 192.252 18.4477 192.072 18.5737 191.935C18.6997 191.797 18.8722 191.71 19.0582 191.692L67.2623 186.602L69.2606 186.392L69.6993 186.343C69.4395 186.959 69.1793 187.575 68.9357 188.207L67.5221 188.353L19.8867 193.119C19.903 217.481 19.7404 241.827 19.8867 266.173L20.2117 338.872L78.8465 367.27L137.644 395.96L223.053 383.398L307.098 371.338L307.195 337.948L307.406 302.433L307.845 231.405V231.389C307.845 230.974 307.998 230.574 308.273 230.264C308.548 229.953 308.927 229.754 309.34 229.703L374.375 222.101L439.46 214.758C439.491 214.755 439.522 214.758 439.552 214.767C439.582 214.776 439.61 214.79 439.634 214.81C439.658 214.829 439.678 214.853 439.693 214.881C439.707 214.908 439.717 214.938 439.72 214.969Z" fill="#121214"/>
<path d="M71.5016 186.149C71.7289 186.732 71.9728 187.316 72.2001 187.883C71.3228 187.964 70.4458 188.062 69.5684 188.142C69.9095 187.51 70.2506 186.878 70.5755 186.246L71.5016 186.149ZM72.7364 186.019C74.1822 185.873 75.6283 185.727 77.0742 185.565C76.8144 186.197 76.5542 186.846 76.2943 187.478C75.3844 187.559 74.4749 187.656 73.565 187.753C73.2889 187.17 73.0125 186.603 72.7364 186.019ZM78.5691 186.181L78.9912 187.202C78.6989 187.234 78.4065 187.267 78.1304 187.299C78.2764 186.927 78.4227 186.554 78.5691 186.181ZM84.1417 184.803H84.3039L83.5728 186.765C82.5657 186.862 81.5582 186.959 80.5674 187.056L79.901 185.257C81.3148 185.111 82.728 184.949 84.1417 184.803ZM85.1813 185.614L85.5225 186.57C85.2952 186.602 85.0513 186.619 84.824 186.635L85.1813 185.614ZM91.3226 184.528L90.6567 186.084L86.5625 186.473L85.9937 184.771C87.7647 184.722 89.5516 184.641 91.3226 184.528ZM91.8101 184.69L92.3139 185.922C91.9727 185.954 91.6315 185.987 91.2901 186.019L91.8101 184.69ZM503.146 169.729C503.132 169.788 503.095 169.84 503.044 169.873C502.993 169.906 502.93 169.918 502.87 169.907L461.701 161.235C448.054 158.35 434.422 155.427 420.808 152.466L370.816 158.058L320.63 163.423L270.427 168.772L220.209 173.846C203.458 175.548 186.708 177.104 169.957 178.676L119.689 183.361C111.956 184.074 104.228 184.798 96.5052 185.533C95.2542 185.646 94.0036 185.76 92.7525 185.889L92.2325 184.463C93.7271 184.35 95.2221 184.22 96.7329 184.025C95.8393 183.912 94.9293 183.815 94.0357 183.717C94.9781 183.62 95.9043 183.507 96.8301 183.409C104.369 182.567 111.902 181.718 119.43 180.864L169.6 175.24C186.317 173.344 203.036 171.463 219.77 169.745L269.989 164.477L320.224 159.501L370.459 154.541L420.71 149.824H420.743C420.873 149.818 421.004 149.829 421.133 149.856C434.796 153.033 448.443 156.27 462.074 159.566L502.967 169.437C502.999 169.443 503.029 169.456 503.055 169.475C503.081 169.493 503.103 169.517 503.12 169.544C503.137 169.572 503.148 169.602 503.152 169.634C503.157 169.666 503.155 169.698 503.146 169.729ZM161.72 325.726V382.555L289.485 366.135V311.089L161.72 325.726ZM234.311 350.007C224.887 350.007 224.904 335.419 234.311 335.419C243.734 335.419 243.718 350.007 234.311 350.007ZM161.72 258.701V315.53L289.485 299.11V244.064L161.72 258.701ZM234.311 282.982C224.887 282.982 224.904 268.394 234.311 268.394C243.734 268.394 243.718 282.982 234.311 282.982Z" fill="#121214"/>
<path d="M444.464 173.067L444.483 173.065C447.165 172.381 449.867 171.819 452.558 171.194C455.258 170.612 457.958 170.041 460.665 169.509C460.809 169.48 460.958 169.497 461.091 169.556L461.129 169.573C466.805 172.067 472.426 174.676 478.024 177.334C483.614 180.009 489.18 182.733 494.693 185.57L494.737 185.593C494.901 185.677 495.025 185.823 495.081 185.998C495.137 186.173 495.121 186.363 495.036 186.527C494.982 186.63 494.903 186.718 494.806 186.783C494.709 186.848 494.598 186.888 494.481 186.899C492.168 187.108 489.858 187.346 487.538 187.508C485.219 187.677 482.904 187.88 480.578 187.994C482.856 187.511 485.146 187.118 487.431 186.689C489.716 186.255 492.01 185.895 494.3 185.508L494.089 186.837C488.404 184.363 482.772 181.776 477.164 179.139C471.564 176.486 465.987 173.784 460.465 170.968L460.928 171.031C458.198 171.432 455.461 171.792 452.722 172.143C449.976 172.449 447.24 172.82 444.484 173.068L444.464 173.067ZM432.687 194.231L419.143 196.397C414.63 197.131 410.102 197.744 405.582 198.423C401.058 199.072 396.541 199.781 392.011 200.382L378.425 202.223C378.28 202.241 378.133 202.226 377.995 202.179C372.535 200.303 367.052 198.492 361.618 196.543L345.286 190.781C345.176 190.743 345.074 190.683 344.987 190.606C344.9 190.529 344.829 190.435 344.779 190.331C344.728 190.226 344.698 190.113 344.691 189.997C344.685 189.881 344.701 189.765 344.739 189.655C344.792 189.506 344.883 189.374 345.004 189.272C345.125 189.17 345.271 189.101 345.427 189.074C352.74 187.829 360.085 186.769 367.416 185.624C374.748 184.485 382.098 183.456 389.454 182.462C382.185 183.962 374.909 185.427 367.615 186.783C360.319 188.133 353.038 189.568 345.726 190.817L345.867 189.11L362.262 194.694C367.736 196.527 373.163 198.499 378.612 200.405L378.182 200.361L391.788 198.668C396.321 198.091 400.868 197.621 405.408 197.093C409.952 196.594 414.487 196.029 419.038 195.585C423.586 195.123 428.131 194.632 432.687 194.231ZM379.937 165.466C375.047 166.883 370.131 168.176 365.227 169.522C363.998 169.846 362.779 170.214 361.539 170.49L357.811 171.268L350.365 172.874L346.642 173.678C345.29 174.044 343.876 174.128 342.49 173.926C341.019 173.701 339.652 173.038 338.566 172.023C338.017 171.47 337.595 170.805 337.329 170.073C337.063 169.342 336.96 168.561 337.027 167.786C337.336 164.999 338.609 162.407 340.627 160.456C341.594 159.496 342.689 158.672 343.881 158.01C344.467 157.684 345.071 157.392 345.69 157.134C346.257 156.893 346.817 156.635 347.368 156.361C351.828 154.3 355.584 150.978 358.17 146.808C359.385 144.717 360.189 142.414 360.542 140.023C360.859 137.674 360.862 135.066 360.99 132.551L362.233 102.174L362.255 102.43C362.133 102.095 361.962 101.78 361.747 101.495C361.499 101.155 361.216 100.841 360.903 100.56C360.216 99.9963 359.477 99.4989 358.696 99.0743C357.026 98.1956 355.239 97.5587 353.388 97.183C351.479 96.8131 349.546 96.5798 347.603 96.485C345.647 96.3761 343.68 96.3884 341.705 96.4213C343.657 96.1541 345.618 95.8597 347.603 95.7707C349.6 95.6576 351.602 95.6876 353.595 95.8605C355.646 96.0575 357.658 96.5475 359.569 97.3156C360.568 97.7348 361.483 98.3285 362.273 99.0687C363.176 99.8532 363.85 100.866 364.225 102C364.245 102.062 364.253 102.128 364.251 102.193L364.248 102.256L363.005 132.635C362.871 135.178 362.889 137.652 362.535 140.328C362.144 142.967 361.256 145.507 359.916 147.814C357.132 152.329 353.08 155.928 348.263 158.164C347.678 158.455 347.085 158.728 346.483 158.984C345.93 159.213 345.391 159.474 344.867 159.764C343.837 160.337 342.891 161.047 342.055 161.876C340.391 163.483 339.326 165.609 339.04 167.902C338.987 168.392 339.045 168.888 339.208 169.353C339.371 169.819 339.637 170.242 339.984 170.592C340.774 171.312 341.761 171.782 342.819 171.942C343.955 172.103 345.112 172.025 346.215 171.711L349.939 170.908L357.385 169.302L361.102 168.473C362.346 168.214 363.608 168.047 364.861 167.835C369.885 167.04 374.897 166.191 379.937 165.466Z" fill="#121214"/>
<path d="M349.095 74.7107C351.256 77.1583 353.255 79.752 355.903 82.2645L327.585 117.26C327.097 83.9503 303.881 82.2645 303.881 82.2645L342.045 67.7735C343.37 68.8243 344.634 69.9498 345.83 71.1447C346.967 72.2956 348.023 73.4951 349.095 74.7107Z" fill="#121214"/>
<path d="M368.006 82.2643H355.901C355.732 80.4686 355.242 78.7176 354.456 77.0936C353.702 75.4635 352.723 73.9466 351.547 72.587C350.358 71.1971 348.941 70.0188 347.356 69.1022C345.749 68.1611 343.905 67.6999 342.043 67.7733L347.437 57.626L368.006 82.2643ZM327.588 117.264C323.972 116.151 320.599 114.368 317.647 112.006C314.626 109.675 311.992 106.883 309.842 103.734C309.284 102.959 308.779 102.147 308.331 101.304C307.881 100.462 307.359 99.6582 306.974 98.7852C306.173 97.0567 305.517 95.2649 305.012 93.4282C303.965 89.8031 303.579 86.0195 303.874 82.2583C304.834 85.7724 306.014 89.2234 307.405 92.5908C308.77 95.8688 310.485 98.9906 312.521 101.902C314.517 104.852 316.793 107.603 319.318 110.117C321.897 112.696 324.661 115.085 327.588 117.264Z" fill="#121214"/>
<path d="M317.67 106.038C329.347 106.038 329.366 87.9315 317.67 87.9315C305.992 87.9315 305.973 106.038 317.67 106.038ZM232.919 179.925L262.775 174.766C272.944 173.039 283.242 171.266 293.516 169.94L293.549 169.936C293.701 169.916 293.855 169.944 293.99 170.017L305.935 176.442C309.906 178.606 313.917 180.691 317.924 182.783C321.917 184.903 325.973 186.901 330.003 188.949C334.03 191.002 338.108 192.957 342.158 194.966C342.261 195.017 342.345 195.099 342.398 195.2C342.451 195.301 342.472 195.416 342.456 195.529C342.44 195.643 342.389 195.748 342.31 195.83C342.231 195.913 342.127 195.969 342.015 195.989L341.994 195.993C331.803 197.832 321.605 199.626 311.389 201.313C301.179 203.03 290.969 204.754 280.734 206.315L280.724 206.317C280.5 206.351 280.27 206.312 280.071 206.205C272.004 201.885 264.014 197.373 256.107 192.945C248.256 188.479 240.529 184.11 232.919 179.925ZM233.118 179.959C241.358 184.22 249.48 188.297 257.478 192.276C265.42 196.294 273.28 200.227 281.062 204.353L280.4 204.242C290.611 202.529 300.848 200.977 311.085 199.418C321.316 197.831 331.565 196.349 341.82 194.913L341.657 195.939C337.661 193.825 333.693 191.656 329.675 189.585C325.659 187.509 321.669 185.383 317.617 183.379C313.579 181.348 309.544 179.309 305.469 177.348L293.277 171.401L293.751 171.479C283.819 173.23 273.913 174.535 263.877 175.886L248.663 177.87L233.118 179.959Z" fill="#121214"/>
<path d="M268.588 186.28C270.779 185.794 272.993 185.419 275.222 185.157C277.334 185.492 279.456 185.76 281.572 186.064L294.276 187.841L306.979 189.618L313.331 190.506C315.363 191.407 317.398 192.291 319.403 193.386C317.173 193.889 314.974 194.181 312.771 194.49L306.419 193.602L293.716 191.826L281.012 190.049C278.894 189.762 276.78 189.437 274.657 189.181C272.586 188.317 270.561 187.349 268.588 186.28ZM103.542 191.175L133.398 186.015C143.567 184.288 153.865 182.516 164.139 181.189L164.172 181.185C164.324 181.165 164.478 181.193 164.613 181.266L176.558 187.692C180.529 189.855 184.54 191.94 188.547 194.032C192.54 196.152 196.596 198.15 200.626 200.198C204.653 202.251 208.731 204.207 212.781 206.216C212.884 206.267 212.968 206.348 213.021 206.449C213.074 206.55 213.095 206.666 213.079 206.779C213.063 206.892 213.012 206.997 212.933 207.08C212.854 207.162 212.75 207.218 212.638 207.239L212.617 207.243C202.426 209.081 192.228 210.875 182.012 212.563C171.802 214.28 161.592 216.003 151.357 217.565L151.347 217.566C151.123 217.601 150.893 217.561 150.694 217.454C142.627 213.135 134.637 208.622 126.73 204.195C118.879 199.728 111.152 195.359 103.542 191.175ZM103.741 191.209C111.981 195.47 120.103 199.547 128.101 203.525C136.043 207.543 143.903 211.476 151.685 215.602L151.023 215.492C161.234 213.778 171.471 212.226 181.707 210.668C191.939 209.08 202.188 207.599 212.443 206.162L212.28 207.189C208.284 205.074 204.316 202.906 200.298 200.835C196.282 198.759 192.292 196.633 188.24 194.629C184.202 192.597 180.167 190.558 176.092 188.597L163.9 182.651L164.374 182.728C154.442 184.479 144.536 185.784 134.5 187.135L119.286 189.119L103.741 191.209Z" fill="#121214"/>
<path d="M177.387 188.599C181.048 187.852 184.714 187.148 188.388 186.487C192.064 185.849 195.731 185.148 199.416 184.562C206.783 183.373 214.138 182.105 221.539 181.141L221.578 181.137C221.738 181.115 221.901 181.146 222.043 181.223L233.949 187.724C237.916 189.895 241.928 191.978 245.944 194.052C249.981 196.088 254.018 198.123 258.096 200.077L270.303 205.994C270.453 206.067 270.577 206.186 270.656 206.333C270.735 206.481 270.765 206.649 270.742 206.814C270.719 206.98 270.644 207.134 270.528 207.254C270.412 207.375 270.261 207.455 270.096 207.485L270.065 207.49L254.759 210.133C249.657 211.005 244.552 211.867 239.438 212.675C234.323 213.469 229.208 214.266 224.08 214.983C218.953 215.709 213.833 216.475 208.696 217.131L208.66 217.135C208.538 217.151 208.413 217.127 208.306 217.066C203.942 214.602 199.6 212.096 195.282 209.548C195.259 209.535 195.243 209.514 195.236 209.489C195.229 209.464 195.232 209.437 195.244 209.415C195.256 209.392 195.277 209.374 195.302 209.366C195.326 209.358 195.353 209.36 195.377 209.371C199.907 211.522 204.411 213.724 208.889 215.976L208.499 215.911C213.585 214.931 218.688 214.06 223.785 213.15C228.881 212.231 233.989 211.392 239.097 210.549C244.207 209.722 249.326 208.947 254.446 208.183L269.812 205.917L269.573 207.412L257.643 200.957C253.676 198.787 249.666 196.698 245.657 194.609C241.628 192.56 237.594 190.519 233.516 188.565L221.286 182.693L221.789 182.775C214.436 184.058 207.037 185.037 199.65 186.095C195.958 186.632 192.249 187.054 188.548 187.539C184.845 188.005 181.135 188.424 177.418 188.798C177.392 188.8 177.366 188.793 177.346 188.777C177.325 188.761 177.312 188.738 177.308 188.713C177.304 188.687 177.31 188.661 177.325 188.64C177.339 188.618 177.362 188.604 177.387 188.599ZM426.592 91.2601C425.747 93.6432 424.789 95.9772 423.83 98.3112L420.012 104.73L412.685 117.082H409.858L410.297 116.352L417.916 103.498L421.734 97.0631C423.326 95.1181 424.903 93.1568 426.592 91.2601ZM408.753 99.3322L407.843 107.275L406.722 117.081H404.269L405.423 106.999L406.316 99.0567C406.982 96.4473 407.632 93.8374 408.444 91.26C408.639 93.9673 408.704 96.6416 408.753 99.3322ZM398.696 117.081H400.24L399.379 111.068L398.68 106.238L397.608 98.6517C396.877 96.1879 396.162 93.7079 395.301 91.2603C395.187 93.3837 395.154 95.4909 395.171 97.5981V99.0083L395.479 101.099L396.276 106.578L397.786 117.081H398.696ZM393.546 117.082H391.093L389.566 106.578L388.477 99.0081C388.461 96.4311 388.461 93.8537 388.607 91.2601C389.468 93.7081 390.183 96.1877 390.914 98.6516L391.987 106.238L393.026 113.467L393.546 117.082Z" fill="#121214"/>
<path d="M395.481 99.6729V101.099L395.464 107.129V117.082H393.027V99.673C393.385 97.193 393.742 94.7129 394.246 92.2166C394.603 94.016 394.912 95.815 395.172 97.5982C395.286 98.295 395.383 98.976 395.481 99.6729ZM402.987 100.921L402.142 108.328L401.151 117.082H398.697L399.38 111.068L399.721 108.053L400.55 100.645C401.183 98.2138 401.817 95.7824 402.597 93.3835C402.824 95.8961 402.905 98.4086 402.987 100.921ZM386.025 127.001V135.755C386.448 135.706 386.87 135.674 387.292 135.625L390.948 127.439C389.307 127.325 387.666 127.196 386.025 127.001ZM391.403 127.585L387.487 135.609C389.843 135.365 392.215 135.203 394.571 135.106L391.403 127.585ZM391.923 127.504L395.269 134.701L397.934 127.747C395.936 127.715 393.921 127.618 391.923 127.504ZM398.779 128.444L396.033 135.057C397.771 134.993 399.493 134.96 401.232 134.944L398.779 128.444ZM402.239 127.812C401.394 127.796 400.533 127.78 399.689 127.78L402.174 133.89L404.286 127.78C403.604 127.796 402.922 127.796 402.239 127.812ZM405.375 129.352L403.247 134.944C404.611 134.96 405.976 134.977 407.341 135.025C406.659 133.128 406.008 131.249 405.375 129.352ZM406.512 127.747C407.211 129.676 407.877 131.605 408.527 133.534C409.404 131.54 410.265 129.563 411.159 127.585C409.615 127.666 408.072 127.715 406.512 127.747ZM412.069 128.493C411.256 130.697 410.412 132.886 409.567 135.09C411.435 135.155 413.303 135.268 415.156 135.43C414.083 133.128 413.076 130.827 412.069 128.493ZM386.025 117.082L386.025 127.001C391.409 126.416 396.823 126.146 402.239 126.191C403.23 126.191 404.222 126.207 405.213 126.224C405.356 126.183 405.508 126.183 405.651 126.224C407.731 126.256 409.794 126.337 411.858 126.45C411.91 126.432 411.965 126.421 412.02 126.418C412.104 126.419 412.186 126.435 412.264 126.467C414.327 126.596 416.39 126.759 418.453 127.002V117.082L386.025 117.082ZM389.811 124.327C389.178 124.306 388.579 124.041 388.139 123.587C387.699 123.134 387.453 122.527 387.453 121.896C387.453 121.265 387.699 120.658 388.139 120.204C388.579 119.751 389.178 119.485 389.811 119.465C390.442 119.487 391.04 119.752 391.479 120.206C391.918 120.66 392.164 121.265 392.164 121.896C392.164 122.526 391.918 123.132 391.479 123.586C391.04 124.039 390.442 124.305 389.811 124.327ZM398.584 124.327C397.951 124.306 397.352 124.041 396.912 123.587C396.472 123.134 396.226 122.527 396.226 121.896C396.226 121.265 396.472 120.658 396.912 120.204C397.352 119.751 397.951 119.485 398.584 119.465C399.215 119.487 399.813 119.752 400.252 120.206C400.691 120.66 400.937 121.265 400.937 121.896C400.937 122.526 400.691 123.132 400.252 123.586C399.813 124.039 399.215 124.305 398.584 124.327ZM407.065 124.036C406.432 124.015 405.833 123.75 405.393 123.296C404.953 122.842 404.707 122.236 404.707 121.604C404.707 120.973 404.953 120.366 405.393 119.913C405.833 119.459 406.432 119.194 407.065 119.173C407.696 119.195 408.295 119.461 408.734 119.914C409.173 120.368 409.418 120.974 409.418 121.604C409.418 122.235 409.172 122.84 408.733 123.294C408.295 123.748 407.696 124.014 407.065 124.036ZM415.399 124.327C414.767 124.306 414.167 124.041 413.727 123.587C413.287 123.134 413.041 122.527 413.041 121.896C413.041 121.265 413.287 120.658 413.727 120.204C414.167 119.751 414.767 119.485 415.399 119.465C416.031 119.487 416.629 119.752 417.068 120.206C417.507 120.66 417.752 121.265 417.752 121.896C417.752 122.526 417.507 123.132 417.068 123.586C416.629 124.039 416.031 124.305 415.399 124.327ZM412.784 127.488C413.693 130.13 414.571 132.772 415.383 135.447C416.407 135.544 417.43 135.625 418.453 135.755V127.002C416.569 127.212 414.685 127.375 412.784 127.488ZM391.403 127.585L387.487 135.609C389.843 135.365 392.215 135.203 394.571 135.106L391.403 127.585ZM391.923 127.504L395.269 134.701L397.934 127.747C395.936 127.715 393.921 127.618 391.923 127.504ZM398.779 128.444L396.033 135.057C397.771 134.993 399.493 134.96 401.232 134.944L398.779 128.444ZM402.239 127.812C401.394 127.796 400.533 127.78 399.689 127.78L402.174 133.89L404.286 127.78C403.604 127.796 402.922 127.796 402.239 127.812ZM405.375 129.352L403.247 134.944C404.611 134.96 405.976 134.977 407.341 135.025C406.659 133.128 406.008 131.249 405.375 129.352ZM406.512 127.747C407.211 129.676 407.877 131.605 408.527 133.534C409.404 131.54 410.265 129.563 411.159 127.585C409.615 127.666 408.072 127.715 406.512 127.747ZM412.069 128.493C411.256 130.697 410.412 132.886 409.567 135.09C411.435 135.155 413.303 135.268 415.156 135.43C414.083 133.128 413.076 130.827 412.069 128.493ZM391.403 127.585L387.487 135.609C389.843 135.365 392.215 135.203 394.571 135.106L391.403 127.585ZM391.923 127.504L395.269 134.701L397.934 127.747C395.936 127.715 393.921 127.618 391.923 127.504ZM398.779 128.444L396.033 135.057C397.771 134.993 399.493 134.96 401.232 134.944L398.779 128.444ZM402.239 127.812C401.394 127.796 400.533 127.78 399.689 127.78L402.174 133.89L404.286 127.78C403.604 127.796 402.922 127.796 402.239 127.812ZM405.375 129.352L403.247 134.944C404.611 134.96 405.976 134.977 407.341 135.025C406.659 133.128 406.008 131.249 405.375 129.352ZM406.512 127.747C407.211 129.676 407.877 131.605 408.527 133.534C409.404 131.54 410.265 129.563 411.159 127.585C409.615 127.666 408.072 127.715 406.512 127.747ZM412.069 128.493C411.256 130.697 410.412 132.886 409.567 135.09C411.435 135.155 413.303 135.268 415.156 135.43C414.083 133.128 413.076 130.827 412.069 128.493ZM386.025 145.238V147.247C386.025 151.538 387.733 155.652 390.774 158.686C393.815 161.72 397.939 163.424 402.24 163.424C406.54 163.424 410.664 161.72 413.705 158.686C416.746 155.652 418.454 151.538 418.454 147.247V145.238C407.671 146.318 396.808 146.318 386.025 145.238ZM408.868 136.436C408.764 136.506 408.645 136.549 408.521 136.563C408.396 136.577 408.27 136.562 408.153 136.517C408.12 136.497 408.087 136.476 408.056 136.452C406.123 136.517 404.173 136.55 402.239 136.566C396.824 136.595 391.41 136.324 386.025 135.755L386.025 145.238C396.808 144.157 407.671 144.157 418.454 145.238L418.453 135.755C415.253 136.128 412.069 136.322 408.868 136.436ZM390.542 143.001C389.909 142.98 389.31 142.715 388.87 142.261C388.43 141.807 388.184 141.201 388.184 140.569C388.184 139.938 388.43 139.332 388.87 138.878C389.31 138.424 389.909 138.159 390.542 138.138C391.172 138.162 391.769 138.428 392.207 138.881C392.644 139.335 392.889 139.94 392.889 140.569C392.889 141.199 392.644 141.804 392.206 142.257C391.769 142.71 391.172 142.977 390.542 143.001ZM397.999 142.855C397.367 142.834 396.767 142.569 396.327 142.115C395.887 141.661 395.641 141.055 395.641 140.423C395.641 139.792 395.887 139.186 396.327 138.732C396.767 138.278 397.367 138.013 397.999 137.992C398.63 138.016 399.226 138.282 399.664 138.735C400.102 139.189 400.346 139.794 400.346 140.423C400.346 141.053 400.102 141.657 399.664 142.111C399.226 142.564 398.63 142.831 397.999 142.855ZM406.188 142.855C405.555 142.834 404.956 142.569 404.516 142.115C404.076 141.661 403.83 141.055 403.83 140.423C403.83 139.792 404.076 139.186 404.516 138.732C404.956 138.278 405.555 138.013 406.188 137.992C406.818 138.016 407.415 138.282 407.853 138.735C408.29 139.189 408.535 139.794 408.535 140.423C408.535 141.053 408.29 141.657 407.852 142.111C407.415 142.564 406.818 142.831 406.188 142.855ZM414.376 142.563C413.744 142.542 413.144 142.277 412.704 141.823C412.264 141.37 412.018 140.763 412.018 140.132C412.018 139.5 412.264 138.894 412.704 138.44C413.144 137.986 413.744 137.721 414.376 137.7C415.006 137.724 415.603 137.99 416.041 138.444C416.479 138.897 416.723 139.502 416.723 140.131C416.723 140.761 416.478 141.366 416.041 141.819C415.603 142.272 415.006 142.54 414.376 142.563ZM415.156 135.43C414.083 133.128 413.076 130.827 412.069 128.493C411.256 130.697 410.412 132.886 409.567 135.09C411.435 135.155 413.303 135.268 415.156 135.43ZM411.159 127.585C409.615 127.666 408.072 127.715 406.512 127.747C407.211 129.676 407.877 131.605 408.527 133.534C409.404 131.54 410.265 129.563 411.159 127.585ZM407.341 135.025C406.659 133.128 406.008 131.249 405.375 129.352L403.247 134.944C404.611 134.96 405.976 134.977 407.341 135.025ZM404.286 127.78C403.604 127.796 402.922 127.796 402.239 127.812C401.394 127.796 400.533 127.78 399.689 127.78L402.174 133.89L404.286 127.78ZM401.232 134.944L398.779 128.444L396.033 135.057C397.771 134.993 399.493 134.96 401.232 134.944ZM397.934 127.747C395.936 127.715 393.921 127.618 391.923 127.504L395.269 134.701L397.934 127.747ZM391.403 127.585L387.487 135.609C389.843 135.365 392.215 135.203 394.571 135.106L391.403 127.585ZM412.069 128.493C411.256 130.697 410.412 132.886 409.567 135.09C411.435 135.155 413.303 135.268 415.156 135.43C414.083 133.128 413.076 130.827 412.069 128.493ZM406.512 127.747C407.211 129.676 407.877 131.605 408.527 133.534C409.404 131.54 410.265 129.563 411.159 127.585C409.615 127.666 408.072 127.715 406.512 127.747ZM405.375 129.352L403.247 134.944C404.611 134.96 405.976 134.977 407.341 135.025C406.659 133.128 406.008 131.249 405.375 129.352ZM402.239 127.812C401.394 127.796 400.533 127.78 399.689 127.78L402.174 133.89L404.286 127.78C403.604 127.796 402.922 127.796 402.239 127.812ZM398.779 128.444L396.033 135.057C397.771 134.993 399.493 134.96 401.232 134.944L398.779 128.444ZM391.923 127.504L395.269 134.701L397.934 127.747C395.936 127.715 393.921 127.618 391.923 127.504ZM391.403 127.585L387.487 135.609C389.843 135.365 392.215 135.203 394.571 135.106L391.403 127.585ZM412.069 128.493C411.256 130.697 410.412 132.886 409.567 135.09C411.435 135.155 413.303 135.268 415.156 135.43C414.083 133.128 413.076 130.827 412.069 128.493ZM406.512 127.747C407.211 129.676 407.877 131.605 408.527 133.534C409.404 131.54 410.265 129.563 411.159 127.585C409.615 127.666 408.072 127.715 406.512 127.747ZM405.375 129.352L403.247 134.944C404.611 134.96 405.976 134.977 407.341 135.025C406.659 133.128 406.008 131.249 405.375 129.352ZM402.239 127.812C401.394 127.796 400.533 127.78 399.689 127.78L402.174 133.89L404.286 127.78C403.604 127.796 402.922 127.796 402.239 127.812ZM398.779 128.444L396.033 135.057C397.771 134.993 399.493 134.96 401.232 134.944L398.779 128.444ZM391.923 127.504L395.269 134.701L397.934 127.747C395.936 127.715 393.921 127.618 391.923 127.504ZM391.403 127.585L387.487 135.609C389.843 135.365 392.215 135.203 394.571 135.106L391.403 127.585ZM122.11 393.509C122.411 397.512 122.566 401.514 122.778 405.517C122.999 409.519 123.099 413.522 123.244 417.525C123.335 421.527 123.483 425.529 123.527 429.532C123.579 433.535 123.682 437.538 123.682 441.54L122.526 440.028L133.831 443.071L133.023 443.059L144.29 440.395L143.101 441.902C143.199 434.474 143.335 427.045 143.571 419.616C143.713 415.902 143.817 412.188 144.029 408.473C144.223 404.759 144.376 401.045 144.656 397.331C144.937 401.045 145.09 404.759 145.284 408.473C145.495 412.188 145.6 415.902 145.742 419.616C145.978 427.045 146.114 434.474 146.212 441.902C146.216 442.246 146.104 442.582 145.894 442.854C145.683 443.127 145.386 443.32 145.052 443.404L145.023 443.41L133.786 446.193C133.52 446.258 133.241 446.254 132.977 446.181L121.695 443.053C121.364 442.961 121.071 442.763 120.862 442.49C120.654 442.217 120.54 441.884 120.538 441.54C120.539 437.538 120.642 433.535 120.693 429.532C120.737 425.53 120.885 421.527 120.976 417.525C121.121 413.522 121.221 409.519 121.442 405.517C121.655 401.514 121.809 397.512 122.11 393.509Z" fill="#121214"/>
<path d="M133.384 397.144C134.18 405.057 134.366 412.97 134.402 420.884C134.377 428.798 134.199 436.712 133.405 444.626C132.604 436.713 132.419 428.799 132.387 420.885C132.416 412.971 132.594 405.058 133.384 397.144ZM18.8727 340.052C19.1912 344.055 19.3463 348.058 19.5736 352.06C19.7786 356.062 19.9191 360.065 20.0412 364.068C20.2741 372.073 20.4335 380.078 20.4585 388.083L19.2916 386.558C23.0629 387.563 26.8351 388.565 30.5893 389.631L29.7901 389.619C33.5476 388.739 37.2959 387.823 41.0665 386.997L39.9249 388.445C39.9896 385.234 40.0074 382.022 40.1109 378.811C40.2105 375.6 40.2644 372.388 40.4049 369.177C40.5179 365.966 40.652 362.754 40.8408 359.543C41.013 356.332 41.1644 353.12 41.4192 349.909C41.6734 353.12 41.8249 356.332 41.9976 359.543C42.186 362.754 42.32 365.966 42.4331 369.177C42.5735 372.388 42.6274 375.6 42.727 378.811C42.8305 382.022 42.8484 385.234 42.9134 388.445C42.9199 388.77 42.817 389.088 42.6212 389.348C42.4253 389.607 42.1478 389.794 41.833 389.878L41.7711 389.894C38.0406 390.884 34.2883 391.784 30.5444 392.719C30.2929 392.783 30.0295 392.782 29.7784 392.717L29.7447 392.708C25.9698 391.717 22.2127 390.661 18.4541 389.609L18.4402 389.605C18.1077 389.512 17.815 389.313 17.6068 389.038C17.3986 388.763 17.2863 388.428 17.2871 388.083C17.3121 380.078 17.4715 372.073 17.7044 364.068C17.8265 360.065 17.967 356.062 18.172 352.06C18.3991 348.057 18.5542 344.055 18.8727 340.052Z" fill="#121214"/>
<path d="M30.1446 343.687C30.9411 351.6 31.1267 359.513 31.1628 367.427C31.1379 375.341 30.9598 383.255 30.1657 391.169C29.3644 383.256 29.1796 375.342 29.1475 367.428C29.1764 359.515 29.3553 351.601 30.1446 343.687ZM287.462 376.368C287.733 379.926 287.886 383.484 288.073 387.043C288.277 390.601 288.391 394.159 288.523 397.718C288.761 404.834 288.903 411.951 288.997 419.067L288.151 417.698L298.346 422.723L297.199 422.61C301.181 421.48 305.191 420.454 309.186 419.371L308.028 420.885C308.03 416.958 308.126 413.031 308.181 409.105C308.224 405.178 308.371 401.251 308.464 397.324C308.606 393.398 308.711 389.471 308.93 385.545C309.144 381.618 309.299 377.691 309.602 373.764C309.906 377.691 310.06 381.618 310.274 385.545C310.493 389.471 310.599 393.398 310.741 397.324C310.833 401.251 310.98 405.178 311.023 409.105C311.078 413.031 311.175 416.958 311.176 420.885C311.175 421.229 311.061 421.563 310.852 421.836C310.643 422.11 310.35 422.307 310.018 422.399C306.028 423.498 302.053 424.654 298.05 425.706L298.024 425.713C297.648 425.812 297.249 425.769 296.902 425.593L286.773 420.437L286.746 420.423C286.496 420.296 286.287 420.101 286.142 419.862C285.997 419.622 285.922 419.347 285.926 419.067C286.02 411.951 286.162 404.834 286.399 397.718C286.532 394.159 286.646 390.601 286.85 387.043C287.037 383.484 287.19 379.926 287.462 376.368Z" fill="#121214"/>
<path d="M298.531 375.057C299.173 383.255 299.204 391.442 299.085 399.626C298.905 407.809 298.572 415.99 297.624 424.158C296.977 415.96 296.947 407.773 297.07 399.589C297.254 391.407 297.587 383.227 298.531 375.057ZM418.471 293.454C416.861 293.362 415.279 292.987 413.799 292.348C409.369 290.559 405.411 287.778 402.233 284.218C403.71 284.784 405.146 285.452 406.529 286.219C407.913 286.939 409.239 287.737 410.574 288.512C411.886 289.328 413.21 290.111 414.506 290.952C415.82 291.77 417.095 292.63 418.471 293.454ZM86.3349 103.093C87.6497 105.246 89.2209 107.233 91.0142 109.01C89.1976 109.072 87.394 108.682 85.7665 107.875C84.5908 107.27 83.5981 106.364 82.8908 105.249C82.2012 104.118 81.8203 102.827 81.7861 101.504C81.7529 99.6942 82.1774 97.9047 83.0205 96.3014C83.8404 98.6929 84.9536 100.974 86.3349 103.093ZM92.2652 103.806C92.2976 105.619 91.867 107.409 91.0142 109.01C90.1944 106.618 89.0812 104.337 87.6999 102.218C86.381 100.067 84.8101 98.0813 83.0205 96.3014C84.834 96.2368 86.6343 96.6329 88.2524 97.4522C89.4282 98.0553 90.4252 98.9551 91.144 100.062C91.8484 101.187 92.2358 102.48 92.2652 103.806ZM81.9971 118.557C83.3125 120.714 84.8896 122.701 86.6927 124.473C84.8758 124.538 83.0716 124.147 81.4446 123.338C80.2646 122.734 79.2666 121.828 78.5527 120.713C77.8632 119.582 77.4824 118.291 77.448 116.968C77.4149 115.158 77.8395 113.368 78.6827 111.765C79.5094 114.154 80.6223 116.434 81.9971 118.557ZM87.9271 119.27C87.9587 121.08 87.5343 122.869 86.6927 124.473C85.859 122.087 84.7465 119.808 83.3784 117.681C82.0536 115.531 80.4773 113.544 78.6827 111.765C80.4963 111.698 82.297 112.095 83.9143 112.916C85.1016 113.508 86.1035 114.413 86.811 115.533C87.5185 116.653 87.9044 117.946 87.9271 119.27ZM77.1068 135.576C78.4263 137.731 80.0029 139.717 81.802 141.493C79.9831 141.561 78.1768 141.165 76.5543 140.342C75.3719 139.748 74.3726 138.847 73.6627 137.732C72.973 136.602 72.592 135.311 72.5576 133.988C72.5228 132.177 72.9476 130.387 73.7924 128.785C74.619 131.173 75.7319 133.454 77.1068 135.576Z" fill="#121214"/>
<path d="M83.038 136.273C83.0712 138.089 82.6465 139.884 81.8028 141.493C80.9708 139.103 79.8526 136.823 78.4725 134.701C77.1536 132.55 75.5828 130.564 73.7932 128.785C75.6068 128.718 77.4074 129.114 79.0247 129.935C80.2008 130.538 81.1979 131.438 81.9166 132.545C82.6188 133.665 83.0061 134.953 83.038 136.273ZM74.7194 153.698C76.0396 155.857 77.6161 157.849 79.4146 159.631C77.5957 159.699 75.7894 159.303 74.1668 158.48C72.9879 157.879 71.9939 156.971 71.2903 155.853C70.5867 154.734 70.1996 153.446 70.1701 152.126C70.1433 150.316 70.5676 148.528 71.4049 146.922C72.2384 149.303 73.351 151.578 74.7194 153.698Z" fill="#121214"/>
<path d="M80.6496 154.411C80.6913 156.227 80.2662 158.024 79.4148 159.631C77.7001 154.865 74.9671 150.529 71.4053 146.923C73.2188 146.856 75.0194 147.252 76.6367 148.073C77.8193 148.667 78.8187 149.569 79.5287 150.683C80.24 151.799 80.628 153.089 80.6496 154.411ZM74.0065 164.774C75.8205 164.712 77.6207 165.107 79.2415 165.922C80.421 166.524 81.4194 167.427 82.1347 168.539C82.8372 169.659 83.224 170.948 83.2544 172.268C83.2888 174.082 82.8608 175.875 82.0105 177.479C80.1931 177.548 78.388 177.155 76.7644 176.338C75.5847 175.737 74.5891 174.831 73.8824 173.714C73.1879 172.588 72.8055 171.299 72.7741 169.977C72.7406 168.167 73.1644 166.378 74.0065 164.774ZM97.2051 107.859C95.0311 108.882 92.9352 110.063 90.934 111.392C91.2124 109.67 91.8488 108.024 92.8022 106.562C93.4589 105.573 94.3598 104.769 95.4181 104.227C96.4462 103.725 97.5921 103.512 98.7325 103.612C100.41 103.779 102.059 104.16 103.639 104.746L97.2051 107.859Z" fill="#121214"/>
<path d="M102.729 110.128C102.046 111.33 101.02 112.302 99.7818 112.919C98.5434 113.537 97.1486 113.773 95.7753 113.596C93.9811 113.347 92.2987 112.581 90.9337 111.392C92.1592 111.282 93.3688 111.038 94.5405 110.663C95.7021 110.293 96.8367 109.843 97.9362 109.317C99.0373 108.776 100.087 108.135 101.072 107.404C102.081 106.68 102.951 105.78 103.639 104.746C104.027 106.59 103.702 108.513 102.729 110.128ZM94.6705 122.447C91.9896 123.419 89.2602 124.278 86.5146 125.429C87.3022 123.689 88.4162 122.116 89.7965 120.794C90.8069 119.844 92.001 119.11 93.3057 118.638C94.5425 118.191 95.861 118.014 97.1722 118.119C98.9815 118.3 100.774 118.62 102.534 119.075C100.02 120.432 97.3878 121.561 94.6705 122.447Z" fill="#121214"/>
<path d="M100.698 124.911C99.6348 126.204 98.2432 127.188 96.6685 127.761C95.0938 128.334 93.3938 128.475 91.746 128.168C89.7671 127.797 87.945 126.843 86.5145 125.429C87.9958 125.487 89.4788 125.373 90.9337 125.089C92.3869 124.836 93.8161 124.462 95.2064 123.97C96.6153 123.488 97.9665 122.852 99.2356 122.074C100.532 121.314 101.655 120.293 102.534 119.075C102.648 120.122 102.544 121.18 102.228 122.185C101.912 123.189 101.391 124.117 100.698 124.911ZM91.6159 135.057C88.9353 136.03 86.2056 136.889 83.46 138.04C84.247 136.296 85.3672 134.721 86.7581 133.404C87.7603 132.452 88.9499 131.718 90.2514 131.248C91.4882 130.802 92.8067 130.625 94.1179 130.73C95.927 130.911 97.7194 131.231 99.4793 131.686C96.965 133.043 94.3332 134.172 91.6159 135.057Z" fill="#121214"/>
<path d="M97.6445 137.521C96.5814 138.814 95.1899 139.798 93.6153 140.371C92.0407 140.945 90.3407 141.085 88.6929 140.779C86.7139 140.408 84.8916 139.454 83.4611 138.04C84.9425 138.098 86.4256 137.984 87.8806 137.699C89.3338 137.447 90.7631 137.073 92.1533 136.581C93.5622 136.099 94.9135 135.463 96.1825 134.684C97.4788 133.925 98.6022 132.903 99.4806 131.686C99.5945 132.732 99.4902 133.791 99.1742 134.795C98.8582 135.799 98.3374 136.727 97.6445 137.521ZM89.0499 150.505C86.3368 151.736 83.4936 152.742 80.6504 154.006C81.4455 152.218 82.5635 150.592 83.9485 149.208C84.9469 148.201 86.1193 147.383 87.4093 146.793C88.5947 146.27 89.8676 145.974 91.1624 145.918C92.5594 145.788 93.9889 146.063 96.5072 145.723C95.5056 146.839 94.3252 147.781 93.0143 148.511C91.7385 149.262 90.4141 149.928 89.0499 150.505Z" fill="#121214"/>
<path d="M96.9771 147.49C96.9959 148.065 96.9578 148.64 96.8633 149.208C96.6346 150.256 96.2102 151.251 95.6122 152.142C94.564 153.708 93.0865 154.94 91.3558 155.692C89.7495 156.401 87.9842 156.675 86.2378 156.486C84.165 156.247 82.2149 155.382 80.649 154.006C82.2098 154.005 83.7648 153.815 85.2795 153.439C86.8013 153.095 88.2865 152.606 89.7149 151.98C91.1728 151.359 92.5349 150.535 93.7603 149.532C95.0387 148.567 95.9956 147.24 96.5059 145.723C96.6284 146.008 96.7316 146.3 96.8149 146.598C96.886 146.892 96.9401 147.19 96.9771 147.49ZM80.584 172.469C80.6725 170.685 81.0639 168.929 81.7418 167.275C82.1863 166.185 82.8535 165.2 83.7008 164.381C84.4628 163.687 85.3804 163.186 86.3767 162.919C87.9493 162.625 89.4699 162.102 90.8894 161.365C91.1252 161.54 91.3498 161.73 91.5617 161.933C91.752 162.148 91.9294 162.374 92.0932 162.609C92.3686 163.081 92.5835 163.584 92.7326 164.109C92.973 165.092 92.9928 166.115 92.7905 167.106C92.4649 168.813 91.5912 170.368 90.3015 171.536C89.1387 172.608 87.6771 173.302 86.1101 173.527C84.2015 173.789 82.2597 173.417 80.584 172.469ZM96.2949 93.1245C95.3496 95.7168 94.7064 98.409 94.3778 101.148C93.1987 99.6595 92.4162 97.8975 92.1031 96.0261C91.8742 94.609 91.9912 93.1577 92.4442 91.7953C92.9154 90.436 93.7198 89.2158 94.7841 88.2456C96.1906 86.9719 97.8938 86.0692 99.739 85.6195C98.3097 87.9829 97.1543 90.5007 96.2949 93.1245Z" fill="#121214"/>
<path d="M101.672 94.972C101.192 96.3263 100.383 97.5406 99.3166 98.5059C97.9198 99.7876 96.221 100.696 94.3779 101.148C95.7944 98.7778 96.9492 96.2615 97.822 93.6432C98.7655 91.0502 99.4087 88.3581 99.7391 85.6193C100.922 87.1076 101.71 88.8693 102.03 90.7416C102.261 92.1597 102.139 93.6127 101.672 94.972Z" fill="#121214"/>
<path d="M74.0078 164.774C75.8043 166.552 77.3788 168.54 78.697 170.696C80.0749 172.814 81.188 175.092 82.0114 177.48C80.2122 175.704 78.6374 173.715 77.3222 171.558C75.9472 169.438 74.8343 167.16 74.0078 164.774ZM80.5855 172.469C82.564 170.65 84.598 169.09 86.4532 167.362C87.3926 166.536 88.2627 165.635 89.0548 164.667C89.8784 163.697 90.5023 162.575 90.8909 161.365C91.1181 162.746 90.8433 164.163 90.1159 165.359C89.4486 166.561 88.5819 167.641 87.5528 168.554C86.5554 169.46 85.4608 170.253 84.2888 170.918C83.1306 171.6 81.8848 172.122 80.5855 172.469Z" fill="white"/>
<path d="M71.9908 184.495C72.251 184.998 72.4944 185.517 72.7385 186.019C73.0145 186.603 73.291 187.17 73.567 187.753C74.0541 188.775 74.5416 189.78 75.0128 190.801C75.4352 189.683 75.8739 188.58 76.2963 187.478C76.5561 186.846 76.8163 186.198 77.0762 185.565C77.1738 185.29 77.2876 185.03 77.4011 184.755C75.5979 184.706 73.7943 184.625 71.9908 184.495ZM78.9931 187.203L78.5711 186.181C78.4248 186.554 78.2785 186.927 78.1325 187.299C77.4986 188.905 76.8648 190.509 76.1988 192.097C77.791 192.033 79.3835 191.984 80.9757 191.968L78.9931 187.203ZM84.1437 184.803C83.3635 184.803 82.5836 184.82 81.7879 184.836C81.1052 184.82 80.423 184.82 79.7245 184.803L79.903 185.257L80.5694 187.056L82.0152 190.898L83.5749 186.765L84.306 184.803L84.1437 184.803ZM85.5244 186.57L85.1832 185.614L84.8258 186.635L82.9897 191.984C84.5009 192 86.0118 192.033 87.5388 192.097L85.5244 186.57ZM85.9956 184.771L86.5644 186.473L88.2699 191.611L90.6586 186.084L91.3245 184.528C89.5537 184.641 87.7666 184.722 85.9956 184.771ZM92.3158 185.922L91.812 184.69L91.292 186.019L88.9037 192.162C90.9508 192.276 93.0142 192.454 95.0775 192.746L92.3158 185.922ZM71.9908 184.495C72.251 184.998 72.4944 185.517 72.7385 186.019C73.0145 186.603 73.291 187.17 73.567 187.753C74.0541 188.775 74.5416 189.78 75.0128 190.801C75.4352 189.683 75.8739 188.58 76.2963 187.478C76.5561 186.846 76.8163 186.198 77.0762 185.565C77.1738 185.29 77.2876 185.03 77.4011 184.755C75.5979 184.706 73.7943 184.625 71.9908 184.495ZM78.9931 187.203L78.5711 186.181C78.4248 186.554 78.2785 186.927 78.1325 187.299C77.4986 188.905 76.8648 190.509 76.1988 192.097C77.791 192.033 79.3835 191.984 80.9757 191.968L78.9931 187.203ZM84.1437 184.803C83.3635 184.803 82.5836 184.82 81.7879 184.836C81.1052 184.82 80.423 184.82 79.7245 184.803L79.903 185.257L80.5694 187.056L82.0152 190.898L83.5749 186.765L84.306 184.803L84.1437 184.803ZM85.5244 186.57L85.1832 185.614L84.8258 186.635L82.9897 191.984C84.5009 192 86.0118 192.033 87.5388 192.097L85.5244 186.57ZM85.9956 184.771L86.5644 186.473L88.2699 191.611L90.6586 186.084L91.3245 184.528C89.5537 184.641 87.7666 184.722 85.9956 184.771ZM92.3158 185.922L91.812 184.69L91.292 186.019L88.9037 192.162C90.9508 192.276 93.0142 192.454 95.0775 192.746L92.3158 185.922ZM71.1298 185.209C70.9509 185.549 70.7562 185.906 70.5773 186.246L71.5035 186.149C71.3736 185.841 71.2599 185.517 71.1298 185.209ZM71.9908 184.495C72.251 184.998 72.4944 185.517 72.7385 186.019C73.0145 186.603 73.291 187.17 73.567 187.753C74.477 187.656 75.3864 187.559 76.2963 187.478C76.5561 186.846 76.8163 186.198 77.0762 185.565C77.1738 185.29 77.2876 185.03 77.4011 184.755C75.5979 184.706 73.7943 184.625 71.9908 184.495ZM78.5711 186.181C78.4248 186.554 78.2785 186.927 78.1325 187.299C78.4085 187.267 78.7008 187.235 78.9931 187.203L78.5711 186.181ZM81.7879 184.836C81.1052 184.82 80.423 184.82 79.7245 184.803L79.903 185.257C81.3167 185.111 82.73 184.949 84.1437 184.803C83.3635 184.803 82.5836 184.82 81.7879 184.836ZM63.25 160.944L66.8568 184.025C68.2217 183.847 69.5861 183.717 70.9347 183.604C70.9972 183.559 71.0697 183.529 71.1461 183.518C71.2225 183.507 71.3004 183.514 71.3734 183.539L71.4059 183.572C73.7128 183.41 76.0039 183.296 78.2945 183.247C78.4645 183.199 78.6446 183.199 78.8145 183.247C79.8054 183.231 80.7967 183.215 81.7878 183.215C85.882 183.231 89.9596 183.328 94.0376 183.717C94.9311 183.815 95.8411 183.912 96.7348 184.025L96.832 183.41L100.325 160.944L63.25 160.944ZM68.9851 182.68C68.3542 182.657 67.7568 182.391 67.3185 181.938C66.8803 181.484 66.6355 180.879 66.6355 180.249C66.6355 179.619 66.8803 179.014 67.3185 178.56C67.7568 178.107 68.3542 177.84 68.9851 177.817C69.6159 177.841 70.2131 178.107 70.6511 178.56C71.0892 179.014 71.334 179.619 71.334 180.249C71.334 180.878 71.0893 181.484 70.6513 181.937C70.2133 182.391 69.6159 182.657 68.9851 182.68ZM77.7586 182.68C77.1277 182.657 76.5303 182.391 76.0921 181.938C75.6539 181.484 75.409 180.879 75.409 180.249C75.409 179.619 75.6539 179.014 76.0921 178.56C76.5303 178.107 77.1277 177.84 77.7586 177.817C78.3898 177.84 78.9875 178.106 79.426 178.56C79.8645 179.013 80.1096 179.619 80.1097 180.249C80.1097 180.879 79.8647 181.484 79.4262 181.938C78.9877 182.391 78.3898 182.657 77.7586 182.68ZM86.239 182.389C85.6081 182.366 85.0107 182.099 84.5724 181.646C84.1342 181.192 83.8894 180.587 83.8894 179.957C83.8894 179.327 84.1342 178.722 84.5724 178.268C85.0107 177.815 85.6081 177.549 86.239 177.526C86.8698 177.549 87.467 177.815 87.9051 178.269C88.3431 178.722 88.5879 179.327 88.5879 179.957C88.588 180.587 88.3432 181.192 87.9053 181.645C87.4673 182.099 86.8698 182.365 86.239 182.389ZM94.5738 182.68C93.9429 182.657 93.3454 182.391 92.9072 181.938C92.469 181.484 92.2242 180.879 92.2242 180.249C92.2242 179.619 92.469 179.014 92.9072 178.56C93.3454 178.107 93.9429 177.84 94.5738 177.817C95.2046 177.841 95.8018 178.107 96.2398 178.56C96.6779 179.014 96.9227 179.619 96.9227 180.249C96.9227 180.878 96.678 181.484 96.24 181.937C95.802 182.391 95.2046 182.657 94.5738 182.68ZM92.3158 185.922L91.812 184.69L91.292 186.019L88.9037 192.162C90.9508 192.276 93.0142 192.454 95.0775 192.746L92.3158 185.922ZM85.9956 184.771L86.5644 186.473L88.2699 191.611L90.6586 186.084L91.3245 184.528C89.5537 184.641 87.7666 184.722 85.9956 184.771ZM85.5244 186.57L85.1832 185.614L84.8258 186.635L82.9897 191.984C84.5009 192 86.0118 192.033 87.5388 192.097L85.5244 186.57ZM84.1437 184.803C83.3635 184.803 82.5836 184.82 81.7879 184.836C81.1052 184.82 80.423 184.82 79.7245 184.803L79.903 185.257L80.5694 187.056L82.0152 190.898L83.5749 186.765L84.306 184.803L84.1437 184.803ZM78.9931 187.203L78.5711 186.181C78.4248 186.554 78.2785 186.927 78.1325 187.299C77.4986 188.905 76.8648 190.509 76.1988 192.097C77.791 192.033 79.3835 191.984 80.9757 191.968L78.9931 187.203ZM71.9908 184.495C72.251 184.998 72.4944 185.517 72.7385 186.019C73.0145 186.603 73.291 187.17 73.567 187.753C74.0541 188.775 74.5416 189.78 75.0128 190.801C75.4352 189.683 75.8739 188.58 76.2963 187.478C76.5561 186.846 76.8163 186.198 77.0762 185.565C77.1738 185.29 77.2876 185.03 77.4011 184.755C75.5979 184.706 73.7943 184.625 71.9908 184.495ZM92.3158 185.922L91.812 184.69L91.292 186.019L88.9037 192.162C90.9508 192.276 93.0142 192.454 95.0775 192.746L92.3158 185.922ZM85.9956 184.771L86.5644 186.473L88.2699 191.611L90.6586 186.084L91.3245 184.528C89.5537 184.641 87.7666 184.722 85.9956 184.771ZM85.5244 186.57L85.1832 185.614L84.8258 186.635L82.9897 191.984C84.5009 192 86.0118 192.033 87.5388 192.097L85.5244 186.57ZM84.1437 184.803C83.3635 184.803 82.5836 184.82 81.7879 184.836C81.1052 184.82 80.423 184.82 79.7245 184.803L79.903 185.257L80.5694 187.056L82.0152 190.898L83.5749 186.765L84.306 184.803L84.1437 184.803ZM78.9931 187.203L78.5711 186.181C78.4248 186.554 78.2785 186.927 78.1325 187.299C77.4986 188.905 76.8648 190.509 76.1988 192.097C77.791 192.033 79.3835 191.984 80.9757 191.968L78.9931 187.203ZM71.9908 184.495C72.251 184.998 72.4944 185.517 72.7385 186.019C73.0145 186.603 73.291 187.17 73.567 187.753C74.0541 188.775 74.5416 189.78 75.0128 190.801C75.4352 189.683 75.8739 188.58 76.2963 187.478C76.5561 186.846 76.8163 186.198 77.0762 185.565C77.1738 185.29 77.2876 185.03 77.4011 184.755C75.5979 184.706 73.7943 184.625 71.9908 184.495ZM84.1437 184.803C82.73 184.949 81.3167 185.111 79.903 185.257L80.5694 187.056C81.5602 186.959 82.5678 186.862 83.5749 186.765L84.306 184.803L84.1437 184.803ZM85.1832 185.614L84.8258 186.635C85.0531 186.619 85.297 186.603 85.5244 186.57L85.1832 185.614ZM85.9956 184.771L86.5644 186.473L90.6586 186.084L91.3245 184.528C89.5537 184.641 87.7666 184.722 85.9956 184.771ZM91.812 184.69L91.292 186.019C91.6331 185.987 91.9744 185.955 92.3158 185.922L91.812 184.69ZM92.2346 184.463L92.7546 185.889L95.2401 192.746V192.762C95.2841 192.76 95.3282 192.765 95.3702 192.778L96.5074 185.533L96.7348 184.025C95.2238 184.22 93.7292 184.35 92.2346 184.463ZM95.2242 192.795C95.2242 192.811 95.2242 192.843 95.1917 192.843C95.1743 192.851 95.1548 192.851 95.1368 192.845C95.1189 192.839 95.1037 192.827 95.0941 192.811C90.6799 193.352 86.2355 193.612 81.7881 193.589C79.6923 193.573 77.5963 193.524 75.5004 193.427C75.3965 193.503 75.2742 193.551 75.1458 193.565C75.0174 193.58 74.8875 193.56 74.7693 193.508C74.7006 193.47 74.6353 193.427 74.5741 193.378C72.4621 193.248 70.334 193.07 68.2218 192.778L69.3102 199.748H94.2817L95.3702 192.778C95.3209 192.776 95.2716 192.781 95.2242 192.795ZM74.5254 199.132C73.893 199.111 73.2935 198.846 72.8535 198.392C72.4136 197.939 72.1676 197.332 72.1676 196.701C72.1676 196.07 72.4136 195.463 72.8535 195.009C73.2935 194.556 73.893 194.29 74.5254 194.269C75.1578 194.29 75.7573 194.556 76.1972 195.009C76.6372 195.463 76.8831 196.07 76.8831 196.701C76.8831 197.332 76.6372 197.939 76.1972 198.392C75.7573 198.846 75.1578 199.111 74.5254 199.132ZM82.7138 199.132C82.0814 199.111 81.4819 198.846 81.0419 198.392C80.602 197.939 80.356 197.332 80.356 196.701C80.356 196.07 80.602 195.463 81.0419 195.009C81.4819 194.556 82.0814 194.29 82.7138 194.269C83.3462 194.29 83.9456 194.556 84.3856 195.009C84.8256 195.463 85.0715 196.07 85.0715 196.701C85.0715 197.332 84.8256 197.939 84.3856 198.392C83.9456 198.846 83.3462 199.111 82.7138 199.132ZM90.9021 198.841C90.2698 198.82 89.6703 198.554 89.2303 198.101C88.7904 197.647 88.5444 197.04 88.5444 196.409C88.5444 195.778 88.7904 195.171 89.2303 194.718C89.6703 194.264 90.2698 193.999 90.9021 193.978C91.5345 193.999 92.134 194.264 92.574 194.718C93.014 195.171 93.2599 195.778 93.26 196.409C93.26 197.04 93.014 197.647 92.5741 198.101C92.1342 198.554 91.5345 198.82 90.9021 198.841ZM92.3158 185.922L91.812 184.69L91.292 186.019L88.9037 192.162C90.9508 192.276 93.0142 192.454 95.0775 192.746L92.3158 185.922ZM85.9956 184.771L86.5644 186.473L88.2699 191.611L90.6586 186.084L91.3245 184.528C89.5537 184.641 87.7666 184.722 85.9956 184.771ZM85.5244 186.57L85.1832 185.614L84.8258 186.635L82.9897 191.984C84.5009 192 86.0118 192.033 87.5388 192.097L85.5244 186.57ZM84.1437 184.803C83.3635 184.803 82.5836 184.82 81.7879 184.836C81.1052 184.82 80.423 184.82 79.7245 184.803L79.903 185.257L80.5694 187.056L82.0152 190.898L83.5749 186.765L84.306 184.803L84.1437 184.803ZM78.9931 187.203L78.5711 186.181C78.4248 186.554 78.2785 186.927 78.1325 187.299C77.4986 188.905 76.8648 190.509 76.1988 192.097C77.791 192.033 79.3835 191.984 80.9757 191.968L78.9931 187.203ZM71.9908 184.495C72.251 184.998 72.4944 185.517 72.7385 186.019C73.0145 186.603 73.291 187.17 73.567 187.753C74.0541 188.775 74.5416 189.78 75.0128 190.801C75.4352 189.683 75.8739 188.58 76.2963 187.478C76.5561 186.846 76.8163 186.198 77.0762 185.565C77.1738 185.29 77.2876 185.03 77.4011 184.755C75.5979 184.706 73.7943 184.625 71.9908 184.495ZM72.2022 187.883C71.9749 187.316 71.7308 186.732 71.5035 186.149C71.3736 185.841 71.2599 185.517 71.1298 185.209C70.9509 185.549 70.7562 185.906 70.5773 186.246C70.2524 186.879 69.9115 187.51 69.5704 188.142C69.0667 189.099 68.5468 190.055 68.0107 191.011C68.0042 191.017 67.9965 191.022 67.988 191.025C67.9795 191.028 67.9704 191.029 67.9616 191.028L68.2218 192.778C70.1388 192.502 72.0724 192.341 73.9894 192.211C73.4044 190.768 72.8032 189.326 72.2022 187.883ZM73.567 187.753C74.0541 188.775 74.5416 189.78 75.0128 190.801C75.4352 189.683 75.8739 188.58 76.2963 187.478C75.3864 187.559 74.477 187.656 73.567 187.753ZM78.9931 187.203C78.7008 187.235 78.4085 187.267 78.1325 187.299C77.4986 188.905 76.8648 190.509 76.1988 192.097C77.791 192.033 79.3835 191.984 80.9757 191.968L78.9931 187.203ZM80.5694 187.056L82.0152 190.898L83.5749 186.765C82.5678 186.862 81.5602 186.959 80.5694 187.056ZM85.5244 186.57C85.297 186.603 85.0531 186.619 84.8258 186.635L82.9897 191.984C84.5009 192 86.0118 192.033 87.5388 192.097L85.5244 186.57ZM86.5644 186.473L88.2699 191.611L90.6586 186.084L86.5644 186.473ZM92.3158 185.922C91.9744 185.955 91.6331 185.987 91.292 186.019L88.9037 192.162C90.9508 192.276 93.0142 192.454 95.0775 192.746L92.3158 185.922ZM66.8568 184.025L67.2631 186.603L67.5229 188.353L67.9132 190.801C68.2544 189.926 68.5954 189.066 68.9365 188.207C69.1801 187.575 69.4403 186.959 69.7001 186.343C69.9599 185.695 70.2201 185.047 70.4962 184.398C69.2777 184.301 68.0753 184.171 66.8568 184.025Z" fill="#121214"/>
<path d="M84.0411 180.339C82.685 179.123 81.6808 177.565 81.1333 175.83C80.8778 174.964 80.5466 174.107 80.3518 173.223L79.802 170.555C79.3535 166.964 79.2166 163.341 79.3927 159.726C79.4566 156.104 79.9992 152.536 80.4196 148.954C81.0776 145.417 81.5845 141.839 82.4453 138.348C83.2529 134.842 84.0605 131.337 85.0811 127.892C86.0644 124.435 87.0088 120.97 88.2205 117.587C89.3922 114.193 90.4438 110.762 91.7468 107.418C93.0652 104.079 94.3167 100.719 95.6903 97.4069C93.7792 104.327 91.5663 111.13 89.7056 118.035L88.2582 123.195L86.9259 128.382C86.4955 130.113 85.9759 131.824 85.5892 133.564L84.4135 138.781C83.5203 142.238 83.0173 145.762 82.2998 149.252C81.773 152.766 81.2189 156.282 80.9342 159.82C80.5837 163.349 80.5315 166.901 80.7779 170.439L81.0936 173.072C81.2106 173.95 81.4609 174.796 81.639 175.666C82.0444 177.397 82.8692 179.001 84.0411 180.339Z" fill="#121214"/>
<path d="M67.945 190.979L67.9125 190.801L67.8638 190.947C67.8475 190.979 67.8638 191.012 67.8963 191.044C67.9284 191.06 67.945 191.044 67.9609 191.028L67.945 190.979Z" fill="white"/>
<path d="M125.438 194.102C130.767 192.639 136.172 191.471 141.629 190.604C147.075 189.665 152.569 189.03 158.086 188.704C152.759 190.171 147.353 191.339 141.895 192.202C136.449 193.138 130.955 193.772 125.438 194.102ZM189.925 193.392C195.253 191.928 200.658 190.76 206.116 189.894C211.561 188.954 217.055 188.32 222.572 187.994C217.245 189.461 211.84 190.629 206.381 191.492C200.935 192.428 195.441 193.062 189.925 193.392ZM256.05 181.958C261.378 180.495 266.783 179.327 272.241 178.461C277.686 177.521 283.18 176.887 288.697 176.561C283.37 178.028 277.964 179.195 272.506 180.059C267.06 180.994 261.566 181.629 256.05 181.958ZM532.186 284.384C528.793 282.088 525.805 279.247 523.342 275.977C520.816 272.771 518.539 269.376 516.532 265.824C514.512 262.284 512.687 258.641 511.005 254.936C509.321 251.223 507.75 247.494 506.348 243.621L507.892 244.583C499.748 245.635 491.472 244.92 483.631 242.488C479.735 241.35 475.927 239.933 472.235 238.25C468.542 236.613 464.947 234.766 461.467 232.717C454.529 228.646 447.933 224.023 441.743 218.891C435.554 213.788 429.701 208.294 424.22 202.441L424.193 202.412C424 202.203 423.894 201.927 423.897 201.642C423.9 201.357 424.012 201.083 424.21 200.878C426.576 198.436 429.025 196.168 431.565 193.96C434.09 191.747 436.756 189.694 439.479 187.721C442.2 185.724 445.098 183.977 448.136 182.502C451.175 180.887 454.534 179.963 457.974 179.795C458.041 179.795 458.107 179.806 458.17 179.827C461.398 180.942 464.652 181.975 467.891 183.053L477.62 186.254C484.096 188.417 490.615 190.452 497.121 192.526L495.869 193.204L504.402 157.562C507.28 145.69 510.211 133.832 513.195 121.987L513.156 122.174C513.365 121.157 513.685 120.165 514.112 119.218C514.483 118.334 514.923 117.508 515.361 116.681C516.275 115.084 517.299 113.552 518.425 112.096C520.637 109.238 523.101 106.584 525.79 104.166C531.095 99.4025 536.865 95.1802 543.012 91.5623C546.087 89.7195 549.273 88.0686 552.553 86.6193C555.845 85.1993 559.222 83.9814 562.664 82.9726C569.552 80.9372 576.693 79.8777 583.876 79.8253C591.05 79.7506 598.196 80.7055 605.097 82.6607C608.553 83.6456 611.916 84.9297 615.149 86.4985C615.948 86.9152 616.725 87.3771 617.512 87.8143L618.688 88.4796L619.808 89.2441C620.549 89.7605 621.307 90.2509 622.031 90.7891L624.113 92.5275C629.557 97.3138 633.423 103.631 635.204 110.649C636.752 117.552 636.949 124.689 635.784 131.667C635.781 131.693 635.772 131.718 635.758 131.741C635.744 131.764 635.726 131.783 635.705 131.799C635.684 131.815 635.659 131.826 635.634 131.833C635.608 131.839 635.581 131.84 635.555 131.836C635.505 131.828 635.459 131.801 635.427 131.761C635.396 131.721 635.38 131.671 635.384 131.62C636.06 124.728 635.457 117.77 633.604 111.096C631.624 104.576 627.742 98.7918 622.455 94.4808L620.45 92.9395C619.753 92.465 619.021 92.036 618.311 91.5821L617.239 90.9098L616.107 90.3324C615.351 89.9529 614.608 89.5492 613.843 89.1887C610.742 87.7935 607.528 86.6627 604.235 85.8084C597.615 84.1105 590.785 83.3714 583.955 83.6137C580.548 83.7178 577.153 84.0622 573.795 84.6441C570.433 85.1913 567.111 85.9639 563.852 86.9568C560.595 87.9531 557.401 89.1466 554.289 90.5306C551.188 91.9395 548.165 93.5135 545.234 95.2458C539.334 98.7353 533.768 102.757 528.604 107.259C526.063 109.478 523.726 111.921 521.623 114.558C520.594 115.85 519.655 117.211 518.812 118.631C518.426 119.341 518.033 120.05 517.719 120.772C517.422 121.414 517.183 122.081 517.004 122.765L516.965 122.953C513.857 134.766 510.698 146.566 507.489 158.353L497.753 193.687L497.745 193.717C497.711 193.838 497.654 193.952 497.577 194.051C497.5 194.15 497.404 194.233 497.294 194.295C497.185 194.357 497.064 194.397 496.939 194.413C496.814 194.428 496.688 194.419 496.566 194.386L496.501 194.366C490.061 192.094 483.635 189.783 477.165 187.601L467.476 184.284C464.242 183.189 461.024 182.05 457.778 180.991L457.974 181.023C454.729 181.221 451.567 182.128 448.713 183.68C445.781 185.179 442.996 186.948 440.394 188.965C437.76 190.96 435.239 193.099 432.844 195.374C430.444 197.635 428.095 199.997 425.921 202.43L425.911 200.867C431.528 206.403 437.493 211.578 443.769 216.359C449.981 221.189 456.501 225.611 463.287 229.599C466.681 231.566 470.139 233.415 473.698 235.033C477.23 236.687 480.878 238.086 484.612 239.218C491.983 241.643 499.779 242.513 507.506 241.772L507.562 241.766C507.884 241.732 508.207 241.809 508.478 241.986C508.749 242.162 508.951 242.426 509.05 242.733C510.257 246.506 511.681 250.286 513.196 253.99C514.716 257.7 516.378 261.354 518.231 264.906C520.001 268.499 522.038 271.954 524.325 275.244C526.564 278.567 529.291 281.536 532.413 284.051C532.456 284.083 532.485 284.13 532.494 284.183C532.502 284.235 532.489 284.289 532.458 284.333C532.427 284.373 532.382 284.401 532.332 284.41C532.282 284.42 532.23 284.41 532.186 284.384Z" fill="#121214"/>
</svg>
