<svg width="580" height="475" viewBox="0 0 580 475" fill="none" xmlns="http://www.w3.org/2000/svg">
<path d="M187.649 368.775C187.59 368.775 187.531 368.764 187.477 368.741C187.422 368.719 187.372 368.686 187.33 368.644C187.288 368.603 187.255 368.554 187.233 368.499C187.21 368.445 187.198 368.387 187.198 368.328V325.939C187.2 325.821 187.248 325.709 187.333 325.627C187.417 325.544 187.531 325.498 187.649 325.498C187.767 325.498 187.881 325.544 187.965 325.627C188.05 325.709 188.098 325.821 188.1 325.939V368.328C188.1 368.387 188.088 368.445 188.066 368.499C188.043 368.554 188.01 368.603 187.968 368.644C187.926 368.686 187.876 368.719 187.822 368.741C187.767 368.764 187.708 368.775 187.649 368.775Z" fill="#121214"/>
<path d="M232.571 292.324C231.601 293.963 230.459 295.494 229.164 296.893C227.92 298.335 226.557 299.659 225.218 301.01C222.456 303.62 219.62 306.161 216.637 308.523C210.687 313.279 204.381 317.58 197.775 321.386C191.176 325.246 184.2 328.432 176.956 330.898C173.321 332.127 169.599 333.09 165.822 333.779C163.909 334.007 162.002 334.379 160.082 334.485C158.159 334.54 156.234 334.627 154.311 334.652C146.645 334.395 139.028 333.323 131.591 331.454C124.167 329.669 116.859 327.438 109.708 324.773C102.55 322.158 95.5212 319.22 88.5277 316.252C86.7787 315.519 85.0252 314.772 83.2636 314.133C82.4013 313.832 81.4722 313.518 80.5493 313.139C80.122 312.891 79.6741 312.674 79.2668 312.398C78.8661 312.111 78.4833 311.8 78.1203 311.467C76.7317 310.086 75.689 308.4 75.0763 306.546C74.4532 304.718 74.1087 302.809 74.0542 300.88L74.0591 300.936C69.4767 275.978 63.5932 251.274 56.4325 226.922C52.9475 214.724 49.0549 202.646 45.0553 190.61C41.0484 178.575 36.777 166.633 32.2411 154.783C29.9523 148.869 27.6594 142.956 25.2556 137.089C24.0923 134.146 22.7282 131.286 21.7216 128.171C20.7239 125.084 20.072 121.897 19.7777 118.668C19.6129 117.032 19.5663 115.386 19.6382 113.743C19.8207 111.965 20.5597 110.288 21.7512 108.948C22.9426 107.609 24.5266 106.674 26.2805 106.276C27.8729 105.879 29.4955 105.613 31.1318 105.481C34.4383 105.261 37.7554 105.713 40.8806 106.808L49.9805 109.775L86.3816 121.644C87.9396 122.087 89.4598 122.653 90.9279 123.335C92.3966 124.07 93.743 125.025 94.9201 126.166C97.2994 128.446 98.8523 131.444 99.3364 134.692L102.037 153.539C102.04 153.562 102.034 153.585 102.02 153.604C102.006 153.623 101.985 153.635 101.962 153.639C101.939 153.642 101.915 153.637 101.896 153.623C101.876 153.609 101.863 153.589 101.859 153.566L98.6796 134.8C98.1328 131.732 96.6038 128.921 94.3201 126.786C93.1936 125.723 91.9093 124.838 90.5123 124.162C89.0782 123.521 87.5954 122.994 86.0777 122.585L49.5182 111.208L40.3783 108.364C37.4498 107.376 34.3486 106.993 31.2656 107.239C29.7207 107.39 28.1891 107.653 26.6832 108.028C25.302 108.345 24.0554 109.084 23.1186 110.142C22.1818 111.199 21.6018 112.521 21.4601 113.923C21.4065 115.45 21.4572 116.979 21.6119 118.5C21.901 121.594 22.5329 124.648 23.4961 127.605C24.4453 130.534 25.8231 133.424 27.0018 136.381C29.422 142.261 31.7534 148.176 33.9961 154.124C42.9646 177.915 50.8214 202.075 57.5664 226.605C60.9358 238.852 64.0791 251.16 66.8659 263.548C69.808 275.902 72.2236 288.368 74.6789 300.824L74.6827 300.856L74.6838 300.88C74.6717 304.609 76.0718 308.206 78.6058 310.956C78.9437 311.261 79.2995 311.546 79.6714 311.809C80.0475 312.064 80.4673 312.251 80.8617 312.476C81.7004 312.801 82.5795 313.087 83.5174 313.393C85.3392 314.019 87.097 314.735 88.8649 315.44C95.9156 318.29 102.968 321.097 110.137 323.585C117.29 326.086 124.568 328.217 131.943 329.968C139.287 331.743 146.79 332.787 154.342 333.082C156.221 333.069 158.099 332.995 159.979 332.956C161.854 332.865 163.699 332.512 165.563 332.306C169.273 331.653 172.931 330.731 176.507 329.548C183.674 327.134 190.598 324.058 197.188 320.362C203.805 316.675 210.14 312.511 216.143 307.902C219.174 305.632 222.062 303.182 224.882 300.658C226.248 299.352 227.643 298.069 228.915 296.671C230.234 295.322 231.406 293.837 232.411 292.242L232.417 292.233C232.429 292.213 232.449 292.198 232.472 292.192C232.495 292.186 232.519 292.19 232.54 292.202C232.56 292.214 232.575 292.234 232.581 292.257C232.587 292.28 232.583 292.304 232.571 292.324Z" fill="#121214"/>
<path d="M27.0285 114.46L40.8357 119.275L54.6086 124.18L68.3649 129.131L82.0967 134.146C82.2133 134.189 82.3175 134.259 82.4 134.351C82.4826 134.443 82.5409 134.554 82.5699 134.674L82.5727 134.687C85.3189 146.359 87.9578 158.055 90.4895 169.776C93.0442 181.491 95.4939 193.23 98.1486 204.922C103.376 228.326 109.086 251.621 114.603 274.959C115.919 280.719 118.324 286.179 121.688 291.049C125.047 295.894 129.44 299.943 134.555 302.907C139.685 305.807 145.47 307.371 151.372 307.455C154.351 307.435 157.328 307.262 160.289 306.936C163.271 306.617 166.252 306.285 169.205 305.798C175.119 304.901 180.936 303.459 186.581 301.491C192.212 299.442 197.682 296.977 202.944 294.119C208.251 291.314 213.434 288.255 218.568 285.117C223.728 282.019 228.839 278.835 233.956 275.659C233.976 275.647 234 275.643 234.023 275.648C234.046 275.653 234.066 275.666 234.079 275.686C234.092 275.706 234.097 275.73 234.092 275.753C234.087 275.776 234.074 275.796 234.054 275.809C224.051 282.509 214.096 289.303 203.552 295.222C198.288 298.226 192.793 300.813 187.118 302.959C181.409 305.061 175.507 306.607 169.496 307.574C166.499 308.079 163.485 308.424 160.471 308.756C157.438 309.099 154.389 309.285 151.337 309.312C145.114 309.263 139.009 307.614 133.617 304.526C128.353 301.325 123.814 297.075 120.286 292.043C116.758 287.012 114.318 281.309 113.119 275.294C107.959 251.875 102.993 228.412 97.5435 205.059C94.8601 193.372 91.9717 181.733 89.188 170.069C86.3938 158.408 83.6944 146.725 81.0897 135.021L81.5657 135.562L67.8804 130.422L54.2194 125.218L40.5755 119.968L26.9653 114.628C26.9433 114.619 26.9256 114.603 26.916 114.581C26.9064 114.56 26.9056 114.535 26.9139 114.513C26.9222 114.491 26.9388 114.473 26.9602 114.463C26.9816 114.453 27.0062 114.452 27.0285 114.46ZM186.506 45.343C182.724 43.0612 181.77 36.1863 184.686 31.5847C188.364 25.7818 192.474 36.3129 192.474 36.3129C199.179 46.1993 212.807 19.764 212.807 19.764C212.807 19.764 201.991 6.22404 177.332 15.2507C152.673 24.2774 169.545 55.011 169.545 55.011C169.545 55.011 143.804 67.0466 152.456 99.0697C152.456 99.0697 175.458 93.7516 174.087 55.6088C174.087 55.6088 183.713 51.8409 186.506 45.343Z" fill="#121214"/>
<path d="M189.202 46.0246C187.827 46.3622 186.374 46.1553 185.149 45.4476C185.098 45.4168 185.054 45.3763 185.018 45.3285C184.983 45.2806 184.958 45.2264 184.944 45.1688C184.929 45.1112 184.927 45.0514 184.936 44.9928C184.945 44.9342 184.966 44.8779 184.997 44.8273C185.028 44.7766 185.069 44.7325 185.117 44.6975C185.165 44.6625 185.219 44.6372 185.277 44.6232C185.335 44.6091 185.396 44.6066 185.455 44.6157C185.514 44.6247 185.57 44.6453 185.621 44.6761C185.654 44.6967 185.684 44.7208 185.712 44.748C186.667 45.6025 187.917 46.0596 189.202 46.0246ZM212.105 21.1466C213.574 23.4822 214.724 26.0019 215.523 28.6392C216.378 31.3115 216.701 34.1239 216.473 36.919L216.3 36.4112C217.123 37.2701 217.925 38.1484 218.717 39.0363L221.091 41.7491C221.299 42.0231 221.448 42.3364 221.53 42.6698C221.612 43.0032 221.624 43.3497 221.567 43.6881C221.509 44.0265 221.383 44.3497 221.195 44.6378C221.008 44.926 220.763 45.1731 220.476 45.3641C219.988 45.7351 219.467 46.0603 218.919 46.3355C218.636 46.5111 218.318 46.6217 217.986 46.6591C217.655 46.6965 217.32 46.6598 217.005 46.5516L217.318 46.3637C217.283 50.2311 216.874 54.0861 216.097 57.8759C215.691 59.8537 214.847 61.7168 213.625 63.3299C212.91 64.2121 211.901 64.8115 210.781 65.0199C210.217 65.0846 209.646 65.0618 209.09 64.9522L207.702 64.7148C205.894 64.3927 204.044 64.3933 202.237 64.7166C200.46 65.0829 198.816 65.9197 197.478 67.1383C194.872 69.8858 192.861 73.1356 191.569 76.6864C191.562 76.7041 191.548 76.7183 191.531 76.726C191.513 76.7336 191.493 76.7341 191.475 76.7273C191.459 76.7205 191.446 76.7082 191.438 76.6925C191.43 76.6768 191.428 76.6588 191.432 76.6418C191.898 74.7631 192.541 72.9318 193.351 71.1722C194.145 69.356 195.255 67.6926 196.629 66.2582C198.064 64.7794 199.899 63.7443 201.913 63.2775C203.899 62.8599 205.95 62.8402 207.945 63.2196L209.399 63.5134C209.787 63.602 210.186 63.6331 210.584 63.6057C211.378 63.4696 212.099 63.0569 212.615 62.4413C213.751 61.0045 214.58 59.3528 215.051 57.5871C216.16 53.9408 216.777 50.1646 216.887 46.3571C216.889 46.2994 216.914 46.245 216.956 46.2057C216.999 46.1664 217.055 46.1455 217.114 46.1476C217.144 46.1492 217.173 46.1565 217.201 46.169C217.456 46.2377 217.722 46.2512 217.983 46.2088C218.244 46.1663 218.492 46.0688 218.711 45.9228C219.221 45.646 219.698 45.3158 220.137 44.9376C220.341 44.7886 220.512 44.5991 220.639 44.381C220.766 44.1629 220.846 43.921 220.875 43.6706C220.903 43.4202 220.878 43.1667 220.803 42.9261C220.727 42.6856 220.602 42.4633 220.436 42.2732L217.889 39.8186C217.036 38.9882 216.193 38.1483 215.371 37.289C215.309 37.225 215.262 37.1489 215.232 37.0656C215.202 36.9824 215.19 36.8938 215.196 36.8055L215.198 36.781C215.312 35.4704 215.309 34.1522 215.188 32.8422C215.05 31.5163 214.829 30.2001 214.529 28.9009C213.899 26.2722 213.046 23.7012 211.98 21.2154C211.976 21.207 211.973 21.1978 211.973 21.1884C211.972 21.179 211.974 21.1696 211.977 21.1607C211.98 21.1519 211.985 21.1437 211.991 21.1367C211.998 21.1297 212.005 21.1241 212.014 21.12C212.03 21.1133 212.048 21.1123 212.064 21.1172C212.081 21.122 212.096 21.1324 212.105 21.1466Z" fill="#121214"/>
<path d="M208.211 31.6921C209.024 30.8767 210.113 30.3903 211.267 30.3268C212.407 30.2173 213.552 30.4696 214.538 31.0473C213.399 31.1339 212.376 31.1264 211.345 31.2185C210.291 31.3106 209.244 31.4688 208.211 31.6921ZM210.969 37.2263C211.319 37.2142 211.651 37.0674 211.895 36.8168C212.138 36.5663 212.274 36.2315 212.274 35.883C212.274 35.5346 212.138 35.1998 211.895 34.9492C211.651 34.6986 211.319 34.5518 210.969 34.5398C210.618 34.5518 210.286 34.6986 210.042 34.9492C209.799 35.1998 209.663 35.5346 209.663 35.883C209.663 36.2315 209.799 36.5663 210.042 36.8168C210.286 37.0674 210.618 37.2142 210.969 37.2263ZM193.447 52.6469C194.708 54.1693 195.856 55.7089 197.082 57.1858C198.286 58.6882 199.622 60.082 201.072 61.351C199.22 60.5808 197.603 59.3402 196.386 57.7536C195.117 56.2328 194.123 54.505 193.447 52.6469ZM100.903 147.725C101.799 143.593 102.886 139.582 104.06 135.553C105.249 131.54 106.49 127.535 107.927 123.596C110.721 115.671 114.06 107.945 117.921 100.475C119.889 96.7392 122.065 93.1144 124.437 89.6177C126.793 86.0753 129.459 82.7471 132.405 79.6721C135.354 76.5199 138.756 73.8197 142.502 71.6596C146.323 69.4678 150.602 68.1836 155.006 67.907L155.018 67.9065C155.092 67.9031 155.167 67.9065 155.242 67.9168C159.501 68.5339 163.722 69.2624 167.936 70.0881C172.149 70.9046 176.351 71.7879 180.528 72.8133C184.76 73.7485 188.895 75.0767 192.877 76.7806C194.85 77.7531 196.64 78.7816 198.584 79.7022L204.377 82.4562C206.332 83.3752 208.224 84.4202 210.042 85.5847C211.91 86.7493 213.526 88.2721 214.796 90.064C217.289 93.4506 220.217 96.5979 223.018 99.7923C228.686 106.155 234.464 112.422 240.352 118.595C240.451 118.699 240.514 118.832 240.532 118.975C240.549 119.117 240.52 119.261 240.449 119.386L240.443 119.396C238.26 123.217 235.904 126.898 233.429 130.523C230.95 134.14 228.318 137.662 225.495 141.045C222.664 144.453 219.559 147.625 216.21 150.532C212.821 153.583 208.84 155.914 204.511 157.38L205.088 157.04C201.959 160.2 198.759 163.235 195.384 166.145C193.694 167.594 191.963 169.007 190.113 170.323C189.175 171.001 188.196 171.623 187.183 172.183C186.013 172.91 184.671 173.318 183.293 173.368L184.808 171.618C185.525 174.744 186.271 177.876 187.052 180.986L188.259 185.631C188.462 186.4 188.678 187.165 188.902 187.913C189.098 188.606 189.334 189.287 189.608 189.954L189.641 190.026C189.722 190.205 189.766 190.398 189.771 190.594C189.776 190.79 189.743 190.985 189.672 191.168C189.602 191.351 189.496 191.519 189.36 191.661C189.224 191.803 189.062 191.918 188.882 191.997C188.732 192.063 188.573 192.104 188.41 192.12C178.361 193.058 168.328 193.698 158.253 194.047C148.161 194.456 138.052 194.226 127.989 193.357C125.467 193.096 122.945 192.78 120.434 192.3C117.882 191.866 115.385 191.161 112.985 190.196C111.726 189.685 110.551 188.991 109.497 188.138C108.939 187.663 108.463 187.101 108.087 186.474C107.727 185.842 107.529 185.291 107.243 184.695C106.229 182.364 105.401 179.957 104.765 177.497C103.513 172.632 102.605 167.686 102.049 162.695C101.462 157.715 101.074 152.76 100.903 147.725ZM101.189 147.752C101.935 157.664 103.638 167.483 106.277 177.071C106.967 179.424 107.841 181.721 108.89 183.939C109.16 184.46 109.422 185.078 109.698 185.519C109.982 185.955 110.336 186.343 110.744 186.667C111.667 187.357 112.686 187.909 113.77 188.306C118.442 189.83 123.297 190.733 128.208 190.99C138.177 191.612 148.174 191.672 158.15 191.171C168.145 190.783 178.16 190.101 188.102 189.131L186.903 191.298C186.544 190.481 186.241 189.642 185.997 188.785C185.755 187.99 185.53 187.204 185.319 186.417C184.882 184.845 184.506 183.27 184.125 181.696C183.371 178.547 182.659 175.401 181.971 172.238C181.93 172.052 181.927 171.86 181.961 171.673C181.995 171.486 182.066 171.308 182.169 171.148C182.273 170.988 182.407 170.851 182.565 170.742C182.722 170.634 182.899 170.558 183.086 170.518C183.217 170.49 183.352 170.48 183.486 170.488C184.314 170.386 185.111 170.108 185.823 169.674C186.741 169.177 187.629 168.626 188.481 168.023C190.231 166.808 191.928 165.455 193.592 164.061C196.911 161.262 200.131 158.276 203.221 155.223L203.232 155.213C203.39 155.057 203.585 154.943 203.799 154.882C207.802 153.565 211.502 151.469 214.682 148.718C217.987 145.952 221.065 142.928 223.887 139.677C226.755 136.439 229.455 133.04 232.013 129.533C234.568 126.03 237.011 122.416 239.248 118.719L239.339 119.52C233.655 113.154 227.949 106.816 222.309 100.412C219.509 97.1815 216.692 94.0078 214.052 90.5873C211.654 87.1699 207.704 85.2467 203.911 83.4158C200.069 81.6296 196.086 79.8756 192.29 78.0062C188.353 76.4748 184.281 75.3108 180.127 74.5293C171.804 72.7414 163.329 71.5386 154.905 70.3032L155.14 70.3129C151.119 70.6084 147.221 71.8241 143.752 73.8651C140.238 75.9349 137.021 78.4642 134.185 81.3852C131.296 84.3287 128.676 87.521 126.355 90.9246C123.987 94.3264 121.811 97.8562 119.836 101.498C115.836 108.799 112.318 116.352 109.306 124.107C106.242 131.848 103.509 139.774 101.189 147.752Z" fill="#121214"/>
<path d="M204.155 156.131C203.13 153.813 202.167 151.476 201.193 149.145C200.216 146.816 199.295 144.465 198.282 142.154C197.34 139.814 196.33 137.503 195.28 135.215C194.772 134.062 194.219 132.933 193.62 131.827C193.341 131.265 193.027 130.72 192.68 130.197C192.516 129.93 192.337 129.671 192.144 129.423L191.501 128.729C193.362 130.483 194.858 132.584 195.904 134.912C197.092 137.16 198.102 139.487 199.113 141.81C200.061 144.16 200.997 146.513 201.838 148.9C202.679 151.287 203.48 153.689 204.155 156.131ZM189.878 200.747C189.793 200.746 189.709 200.722 189.637 200.676C189.565 200.631 189.507 200.566 189.47 200.489L185.011 191.083C184.985 191.03 184.97 190.972 184.967 190.913C184.964 190.854 184.973 190.796 184.993 190.74C185.013 190.684 185.044 190.633 185.084 190.59C185.124 190.546 185.172 190.51 185.226 190.485C185.279 190.46 185.338 190.446 185.397 190.443C185.456 190.44 185.516 190.449 185.571 190.469C185.627 190.49 185.679 190.52 185.722 190.56C185.766 190.6 185.802 190.648 185.827 190.702L190.286 200.107C190.319 200.176 190.333 200.251 190.328 200.326C190.323 200.401 190.299 200.474 190.259 200.538C190.218 200.602 190.162 200.654 190.095 200.691C190.029 200.727 189.954 200.746 189.878 200.747ZM108.934 186.435L114.377 206.342C111.529 196.357 109.51 188.647 108.934 186.435Z" fill="#121214"/>
<path d="M301.168 311.525C298.125 316.845 299.532 327.786 298.9 331.509C298.042 336.773 296.028 341.784 292.999 346.187C292.181 339.925 291.219 333.677 290.229 327.429C289.238 321.196 288.118 314.976 287.085 308.743C285.922 302.538 284.831 296.305 283.61 290.114L281.759 280.814C281.084 277.718 280.466 274.623 279.748 271.542C280.15 274.68 280.624 277.804 281.069 280.942L282.519 290.299C283.51 296.547 284.615 302.766 285.663 308.985C286.826 315.205 287.917 321.424 289.138 327.629C290.358 333.819 291.592 340.025 292.999 346.187C286.194 356.1 274.738 362.362 261.961 367.141C252.387 370.7 242.527 373.449 232.487 375.357C225.137 311.196 236.608 266.064 236.608 266.064C236.608 266.064 235.301 264.452 230.764 264.452C226.213 264.452 213.565 271.87 213.565 271.87C165.543 300.883 150.612 284.765 139.257 272.512C131.805 264.467 120.966 229.519 114.42 206.525C158.552 222.644 183.058 200.292 187.652 200.292C189.102 200.292 196.209 199.55 206.114 198.609C207.281 199.793 208.189 201.203 208.782 202.752C209.375 204.301 209.64 205.954 209.56 207.609C213.666 213.401 218.648 203.729 216.48 200.292C215.994 199.504 215.617 198.655 215.36 197.767C217.327 197.596 219.365 197.411 221.447 197.239C224.907 201.946 228.913 208.908 232.487 212.331C238.761 218.35 239.852 208.679 239.852 208.679C247.633 214.271 247.633 204.386 247.633 204.386C254.553 208.465 252.17 198.609 252.17 198.609C252.645 198.198 252.995 197.665 253.183 197.068C253.371 196.471 253.388 195.834 253.232 195.228C262.07 194.792 270.927 194.915 279.749 195.599C306.681 198.309 332.322 276.377 332.322 276.377C333.298 290.242 312.194 292.182 301.168 311.525ZM147.109 333.399C148.113 339.622 148.732 345.874 149.385 352.124C149.992 358.377 150.281 364.655 150.673 370.925L151.871 389.733L152.979 408.548C152.981 408.572 152.973 408.595 152.957 408.612C152.942 408.63 152.92 408.641 152.896 408.643C152.873 408.645 152.849 408.637 152.831 408.622C152.813 408.607 152.802 408.585 152.799 408.562L150.973 389.803L149.235 371.036C148.649 364.781 147.96 358.534 147.588 352.262C147.263 345.987 146.903 339.715 146.929 333.413C146.929 333.39 146.938 333.368 146.953 333.352C146.969 333.335 146.99 333.325 147.013 333.323C147.035 333.321 147.058 333.328 147.076 333.342C147.094 333.356 147.105 333.377 147.109 333.399ZM166.823 332.902C167.457 339.197 167.704 345.498 167.986 351.8C168.221 358.102 168.137 364.41 168.157 370.716L168.238 389.634L168.229 408.554C168.229 408.577 168.22 408.6 168.203 408.617C168.187 408.634 168.164 408.643 168.14 408.644C168.117 408.644 168.094 408.635 168.077 408.619C168.06 408.603 168.05 408.58 168.049 408.557L167.337 389.65L166.715 370.743C166.501 364.44 166.182 358.139 166.183 351.833C166.23 345.525 166.243 339.219 166.643 332.905C166.645 332.882 166.655 332.861 166.671 332.846C166.687 332.83 166.709 332.822 166.732 332.821C166.754 332.821 166.776 332.829 166.793 332.844C166.81 332.859 166.821 332.879 166.823 332.902Z" fill="#121214"/>
<path d="M160.288 423.644C184.838 423.644 204.74 415.634 204.74 405.753C204.74 395.871 184.838 387.861 160.288 387.861C135.738 387.861 115.836 395.871 115.836 405.753C115.836 415.634 135.738 423.644 160.288 423.644Z" fill="#121214"/>
<path d="M183.389 171.928C182.447 172.593 181.355 173.015 180.208 173.157C179.619 173.239 179.02 173.217 178.438 173.092C178.127 173.049 177.835 172.916 177.6 172.708C177.365 172.501 177.197 172.23 177.116 171.928C177.307 172.099 177.532 172.23 177.776 172.311C178.02 172.392 178.279 172.422 178.535 172.4C179.057 172.387 179.578 172.344 180.094 172.27C181.186 172.098 182.285 171.984 183.389 171.928ZM203.18 157.079C207.925 160.135 212.656 163.215 217.442 166.175C218.641 166.907 219.846 167.637 221.067 168.31C221.673 168.663 222.294 168.961 222.899 169.279C223.188 169.398 223.527 169.574 223.771 169.65C223.88 169.675 223.987 169.706 224.092 169.745C224.332 169.789 224.576 169.845 224.813 169.911C226.162 170.475 227.466 171.138 228.716 171.893C229.948 172.608 231.162 173.348 232.357 174.111C237.181 177.118 241.747 180.515 246.009 184.267C248.196 186.145 250.126 188.3 251.748 190.678L252.297 191.647L252.737 192.598C253.065 193.25 253.346 193.925 253.578 194.617C253.809 195.367 253.842 196.163 253.673 196.929C253.482 197.7 253.05 198.391 252.44 198.903L252.558 198.523C252.74 199.434 252.854 200.357 252.9 201.285C252.971 202.236 252.857 203.191 252.563 204.099C252.486 204.341 252.366 204.568 252.209 204.769L251.974 205.081L251.644 205.318C251.427 205.476 251.174 205.577 250.907 205.611C250.658 205.672 250.398 205.679 250.145 205.634C249.661 205.578 249.188 205.455 248.739 205.267L247.489 204.622L247.915 204.381C247.883 205.431 247.72 206.473 247.428 207.483C247.167 208.547 246.548 209.491 245.674 210.159C245.194 210.446 244.653 210.62 244.094 210.668C243.536 210.715 242.973 210.635 242.45 210.433C241.95 210.247 241.46 210.033 240.985 209.791L239.648 208.952L240.183 208.717C240.044 210.406 239.477 212.033 238.536 213.447C238.261 213.828 237.904 214.143 237.49 214.368C237.076 214.593 236.617 214.722 236.146 214.747L235.435 214.692C235.213 214.638 235.003 214.552 234.787 214.48C234.372 214.33 233.977 214.128 233.613 213.878C232.246 212.905 231.021 211.749 229.973 210.442C228.916 209.183 227.926 207.881 226.983 206.555C225.093 203.905 223.321 201.192 221.435 198.597C220.528 197.304 219.537 196.071 218.468 194.906C217.982 194.369 217.42 193.904 216.801 193.526C216.58 193.383 216.326 193.3 216.062 193.286C215.877 193.289 215.7 193.362 215.568 193.492L215.842 192.985C215.656 194.703 215.856 196.441 216.429 198.073C216.576 198.473 216.75 198.862 216.95 199.238C217.05 199.424 217.157 199.607 217.27 199.785C217.401 200.037 217.536 200.329 217.656 200.605C217.975 201.657 218.038 202.769 217.84 203.85C217.504 205.934 216.487 207.851 214.945 209.303C214.489 209.727 213.935 210.034 213.333 210.197C212.73 210.361 212.097 210.376 211.487 210.241C210.375 209.866 209.423 209.128 208.788 208.146C208.667 208.003 208.605 207.821 208.613 207.634L208.618 207.525C208.71 205.39 208.208 203.271 207.169 201.399C206.903 200.941 206.602 200.503 206.271 200.089C205.926 199.656 205.598 199.35 205.143 198.852C204.293 197.94 203.588 196.904 203.052 195.781C202.065 193.579 201.478 191.22 201.32 188.814C201.136 186.47 201.156 184.115 201.38 181.775L201.42 182.035C200.701 180.673 199.631 179.525 198.32 178.708C196.97 177.823 195.491 177.15 193.935 176.713C192.366 176.238 190.756 175.908 189.126 175.725C188.306 175.663 187.484 175.579 186.659 175.534L184.177 175.474C184.153 175.475 184.13 175.466 184.112 175.45C184.095 175.434 184.084 175.411 184.083 175.388C184.084 175.364 184.093 175.342 184.109 175.325C184.125 175.308 184.146 175.297 184.169 175.295L186.665 175.177C187.498 175.17 188.333 175.209 189.17 175.224C190.849 175.314 192.516 175.558 194.15 175.951C195.814 176.34 197.406 176.984 198.869 177.86C199.613 178.308 200.304 178.836 200.931 179.436C201.603 180.05 202.156 180.781 202.563 181.593C202.593 181.655 202.608 181.724 202.606 181.792L202.604 181.854C202.49 184.127 202.546 186.406 202.77 188.671C202.971 190.887 203.564 193.049 204.523 195.06C205.01 196.017 205.641 196.896 206.395 197.664C206.726 198.017 207.256 198.499 207.641 198.966C208.049 199.444 208.416 199.957 208.736 200.497C209.994 202.68 210.607 205.171 210.507 207.684L210.338 207.063C210.846 207.659 211.399 208.303 211.975 208.387C212.285 208.443 212.605 208.422 212.906 208.327C213.206 208.232 213.479 208.066 213.701 207.842C214.893 206.679 215.681 205.168 215.95 203.529C216.092 202.765 216.065 201.979 215.874 201.225L215.674 200.769C215.538 200.549 215.412 200.325 215.294 200.097C215.06 199.642 214.857 199.172 214.689 198.69C214.037 196.767 213.835 194.721 214.099 192.709C214.122 192.522 214.211 192.35 214.349 192.223L214.373 192.201C214.841 191.776 215.455 191.543 216.089 191.55C216.642 191.572 217.179 191.737 217.648 192.028C218.414 192.499 219.106 193.08 219.701 193.752C220.807 194.989 221.829 196.297 222.761 197.668C224.614 200.359 226.312 203.112 228.114 205.78C229.018 207.11 229.923 208.437 230.905 209.693C231.836 210.952 232.935 212.079 234.173 213.043C234.468 213.266 234.792 213.448 235.135 213.586C235.302 213.646 235.468 213.726 235.636 213.775L236.138 213.828C236.478 213.818 236.811 213.731 237.113 213.575C237.414 213.418 237.676 213.195 237.878 212.924C238.769 211.652 239.329 210.181 239.509 208.642C239.524 208.551 239.574 208.47 239.649 208.416C239.724 208.362 239.818 208.34 239.909 208.354C239.957 208.363 240.003 208.38 240.044 208.406L241.305 209.222C241.742 209.449 242.19 209.652 242.649 209.831C243.081 210.01 243.548 210.088 244.015 210.059C244.482 210.029 244.936 209.894 245.342 209.663C246.11 209.077 246.656 208.251 246.892 207.317C247.189 206.366 247.343 205.377 247.351 204.381C247.351 204.333 247.364 204.287 247.388 204.245C247.411 204.204 247.445 204.169 247.486 204.144C247.527 204.119 247.573 204.105 247.621 204.102C247.669 204.1 247.717 204.11 247.76 204.131L247.777 204.14L248.964 204.728C249.358 204.884 249.771 204.986 250.193 205.029C250.579 205.087 250.972 205 251.297 204.786C251.621 204.571 251.854 204.245 251.949 203.869C252.195 203.043 252.28 202.178 252.2 201.32C252.145 200.438 252.009 199.563 251.793 198.705C251.776 198.637 251.778 198.566 251.799 198.498C251.82 198.431 251.859 198.371 251.911 198.324C252.368 197.894 252.684 197.336 252.817 196.724C252.95 196.113 252.893 195.475 252.655 194.896C252.411 194.266 252.123 193.654 251.793 193.063L251.307 192.12L250.778 191.275C249.126 189.069 247.193 187.085 245.027 185.373C240.721 181.79 236.214 178.454 231.527 175.38C229.251 173.817 226.86 172.426 224.373 171.22C224.269 171.195 224.168 171.161 224.071 171.116C223.871 171.072 223.594 171.018 223.364 170.951C222.94 170.808 222.655 170.64 222.295 170.484C221.653 170.142 221.022 169.788 220.42 169.411C219.197 168.673 218.017 167.893 216.837 167.11C212.128 163.971 207.564 160.65 203.075 157.225C203.057 157.211 203.044 157.19 203.041 157.167C203.037 157.144 203.043 157.121 203.057 157.102C203.07 157.083 203.091 157.07 203.114 157.066C203.137 157.062 203.16 157.066 203.18 157.079Z" fill="#121214"/>
<path d="M223.407 189.121C226.548 192.022 229.527 195.092 232.33 198.317C235.156 201.534 237.792 204.912 240.224 208.434C240.289 208.532 240.313 208.652 240.29 208.767C240.268 208.883 240.201 208.985 240.103 209.051C240.005 209.118 239.885 209.143 239.769 209.123C239.652 209.102 239.549 209.037 239.48 208.941L239.469 208.924C237.178 205.343 234.679 201.897 231.985 198.604C229.302 195.29 226.439 192.124 223.407 189.121ZM232.492 187.187C237.941 192.565 243.113 198.212 247.99 204.107C248.064 204.199 248.098 204.317 248.086 204.434C248.073 204.551 248.014 204.659 247.922 204.733C247.83 204.808 247.711 204.843 247.593 204.832C247.475 204.82 247.366 204.763 247.29 204.672L247.277 204.655C242.647 198.589 237.713 192.759 232.492 187.187ZM238.981 185.79C241.297 187.805 243.594 189.843 245.873 191.903L249.26 195.03C250.374 196.096 251.485 197.145 252.529 198.335C252.607 198.425 252.647 198.542 252.639 198.66C252.63 198.779 252.575 198.889 252.485 198.967C252.395 199.045 252.277 199.084 252.158 199.076C252.038 199.068 251.927 199.013 251.849 198.924L251.836 198.908L251.823 198.892C250.9 197.729 249.832 196.611 248.782 195.505L245.561 192.226C243.39 190.06 241.197 187.915 238.981 185.79ZM212.231 152.106C213.393 153.54 214.685 154.866 216.091 156.065C217.473 157.311 218.874 158.536 220.294 159.742L228.886 166.897C234.626 171.653 240.494 176.268 246.294 180.945L246.375 181.017L246.394 181.036C248.923 183.66 251.795 185.935 254.932 187.801C258.071 189.621 261.479 190.938 265.03 191.705C272.177 193.255 279.628 192.631 286.414 189.917C289.738 188.567 293.095 186.639 296.519 185.099C299.92 183.465 303.404 182.003 306.903 180.589C310.423 179.224 313.988 177.971 317.606 176.881C321.229 175.734 324.954 174.936 328.731 174.497C328.776 174.493 328.822 174.498 328.866 174.512L328.882 174.517C332.186 175.608 335.639 176.188 339.12 176.237C342.575 176.307 345.997 175.559 349.103 174.055C350.64 173.235 352.118 172.309 353.525 171.283C355.245 170.456 357.179 170.175 359.065 170.479C360.861 170.668 362.635 171.018 364.367 171.523C364.744 171.652 365.131 171.747 365.524 171.808C365.863 171.849 366.207 171.828 366.538 171.745C367.169 171.568 367.72 171.18 368.097 170.647L368.457 170.312C368.39 170.345 368.327 170.388 368.272 170.44C368.135 170.564 368.043 170.73 368.012 170.911C367.988 171.046 367.996 171.185 368.037 171.317C368.077 171.448 368.148 171.568 368.244 171.666L368.116 170.617C368.34 170.176 368.428 169.679 368.369 169.189C368.341 168.914 368.288 168.643 368.211 168.377C368.137 168.117 368.04 167.863 367.922 167.619C367.865 167.508 367.832 167.387 367.824 167.263C367.816 167.138 367.833 167.014 367.874 166.896L367.895 166.839C368.14 165.723 368.065 164.562 367.68 163.487C367.323 162.266 366.855 161.081 366.283 159.944C366.218 159.814 366.181 159.672 366.173 159.526C366.164 159.381 366.186 159.235 366.235 159.098L366.26 159.031C366.431 158.584 366.509 158.107 366.489 157.63C366.437 157.117 366.304 156.617 366.093 156.146C365.859 155.637 365.568 155.156 365.226 154.711C364.887 154.26 364.508 153.841 364.092 153.459C363.912 153.298 363.786 153.086 363.73 152.852C363.675 152.618 363.694 152.372 363.784 152.149L363.812 152.081C364.182 151.202 364.201 150.217 363.866 149.325C363.405 148.467 362.632 147.817 361.704 147.507C359.45 146.804 357.059 146.651 354.734 147.062C349.73 147.754 344.803 148.905 340.013 150.5L340.002 150.504C339.841 150.554 339.673 150.577 339.505 150.57C335.037 150.384 330.518 152.347 325.855 153.794C323.499 154.523 321.274 155.342 318.678 155.884C316.189 156.401 313.746 156.663 311.291 156.945C301.491 157.851 291.728 158.165 281.955 158.279L278.291 158.314L276.459 158.325L275.544 158.329C275.224 158.33 274.853 158.319 274.511 158.288C272.407 158.092 270.43 157.197 268.902 155.747C268.388 155.242 268.038 154.849 267.598 154.394L257.607 143.775C250.951 136.691 244.345 129.559 237.787 122.38C237.762 122.353 237.749 122.317 237.75 122.28C237.751 122.243 237.767 122.208 237.794 122.182C237.82 122.156 237.856 122.142 237.894 122.142C237.931 122.142 237.967 122.156 237.994 122.182C245.009 128.921 251.967 135.714 258.868 142.562L269.224 152.831C269.639 153.24 270.116 153.737 270.479 154.074C271.647 155.129 273.138 155.762 274.712 155.872C275.197 155.908 275.794 155.87 276.418 155.857L278.243 155.803L281.892 155.68C291.612 155.281 301.358 154.902 310.971 153.904C313.358 153.635 315.771 153.376 318.058 152.903C320.242 152.463 322.616 151.621 324.911 150.909C327.227 150.172 329.535 149.403 331.954 148.736C334.438 147.985 337.029 147.643 339.624 147.722L339.117 147.792C341.638 147.012 344.133 146.348 346.685 145.767C349.244 145.167 351.838 144.722 354.452 144.433C355.796 144.29 357.148 144.241 358.498 144.287C359.942 144.334 361.365 144.64 362.698 145.19C364.21 145.776 365.435 146.919 366.117 148.38C366.426 149.143 366.557 149.966 366.501 150.786C366.456 151.582 366.264 152.362 365.934 153.089L365.655 151.712C366.185 152.214 366.665 152.766 367.089 153.36C367.521 153.952 367.884 154.59 368.171 155.264C368.472 155.981 368.651 156.743 368.7 157.519C368.722 158.334 368.567 159.144 368.246 159.894L368.222 158.981C368.83 160.264 369.308 161.604 369.649 162.981C369.832 163.692 369.945 164.42 369.986 165.153C370.053 165.971 369.934 166.794 369.638 167.56L369.611 166.78C369.938 167.502 370.131 168.277 370.181 169.067C370.242 169.916 370.045 170.764 369.616 171.501L369.488 170.452C369.586 170.553 369.659 170.676 369.701 170.81C369.742 170.944 369.751 171.086 369.727 171.225C369.693 171.412 369.598 171.583 369.456 171.711C369.391 171.771 369.318 171.821 369.238 171.86L369.599 171.525C369.302 172.01 368.889 172.414 368.395 172.699C367.938 172.986 367.44 173.201 366.918 173.338C366.389 173.451 365.844 173.467 365.31 173.384C364.836 173.296 364.37 173.169 363.918 173.003C362.288 172.471 360.613 172.086 358.914 171.852C357.315 171.536 355.657 171.702 354.154 172.329C352.689 173.323 351.159 174.219 349.573 175.01C346.308 176.547 342.721 177.29 339.11 177.179C335.543 177.067 332.011 176.453 328.617 175.356L328.768 175.376C325.072 175.824 321.434 176.661 317.916 177.872C314.356 179.012 310.879 180.401 307.449 181.888C304.038 183.42 300.65 185.003 297.342 186.746C293.973 188.413 290.876 190.375 287.297 191.998C280.122 195.14 272.121 195.911 264.472 194.197C260.671 193.338 257.029 191.89 253.681 189.906C250.379 187.895 247.377 185.433 244.764 182.593L244.863 182.683C239.104 177.916 233.487 172.997 227.883 168.054C225.077 165.59 222.323 163.064 219.622 160.478C218.265 159.193 216.929 157.885 215.614 156.552C214.971 155.869 214.308 155.213 213.699 154.494L212.786 153.421C212.5 153.041 212.245 152.63 211.978 152.24C211.957 152.209 211.95 152.172 211.957 152.135C211.964 152.099 211.985 152.066 212.016 152.045C212.046 152.024 212.084 152.016 212.121 152.022C212.158 152.029 212.191 152.049 212.213 152.079L212.231 152.106Z" fill="#121214"/>
<path d="M346.486 152.8C349.497 151.844 352.593 151.178 355.732 150.812C357.316 150.62 358.915 150.591 360.505 150.725C362.162 150.803 363.767 151.324 365.15 152.232C365.247 152.303 365.311 152.408 365.329 152.525C365.348 152.643 365.318 152.763 365.248 152.858C365.177 152.954 365.071 153.018 364.953 153.037C364.835 153.055 364.714 153.025 364.617 152.955L364.595 152.938C363.368 152.063 361.928 151.529 360.424 151.392C358.881 151.188 357.321 151.144 355.769 151.258C352.632 151.475 349.524 151.991 346.486 152.8ZM350.596 158.057C353.419 157.448 356.29 157.085 359.176 156.972C360.635 156.923 362.096 157.012 363.538 157.237C365.079 157.404 366.515 158.092 367.606 159.185C367.685 159.274 367.726 159.391 367.718 159.509C367.711 159.628 367.657 159.739 367.567 159.818C367.523 159.857 367.471 159.887 367.415 159.906C367.359 159.925 367.3 159.933 367.241 159.93C367.121 159.922 367.01 159.868 366.93 159.779L366.914 159.76L366.898 159.74C365.974 158.752 364.743 158.102 363.401 157.895C362.011 157.605 360.597 157.446 359.177 157.42C356.303 157.384 353.432 157.597 350.596 158.057ZM352.11 163.761C355.038 163.234 358.022 163.09 360.988 163.331C362.493 163.44 363.974 163.762 365.387 164.288C366.863 164.807 368.162 165.727 369.137 166.945C369.173 166.992 369.199 167.045 369.214 167.103C369.229 167.16 369.232 167.219 369.224 167.278C369.216 167.336 369.196 167.392 369.166 167.443C369.135 167.494 369.095 167.539 369.048 167.574C369 167.609 368.946 167.635 368.888 167.65C368.831 167.664 368.771 167.667 368.712 167.659C368.653 167.65 368.597 167.63 368.546 167.6C368.495 167.57 368.45 167.53 368.415 167.482L368.403 167.465L368.396 167.455C367.566 166.32 366.435 165.438 365.128 164.908C363.791 164.334 362.379 163.952 360.934 163.776C358.006 163.389 355.04 163.384 352.11 163.761ZM305.534 20.3604V106.758L426.235 117.397V20.3604H305.534ZM412.932 104.502L317.864 96.7644V31.966L412.932 30.9988V104.502Z" fill="#121214"/>
<path d="M325.034 38.9531C325.16 41.5972 325.271 44.1353 325.329 46.632C325.393 49.132 325.433 51.5905 325.337 54.0732L325.002 53.7397C327.147 53.8113 329.292 53.9173 331.437 53.9271C333.582 53.9483 335.727 53.8991 337.872 53.8282L337.626 54.0732C337.532 51.5478 337.464 49.0225 337.441 46.4974C337.391 43.9721 337.388 41.4468 337.414 38.9217L337.872 39.3773C335.785 39.3864 333.688 39.2833 331.567 39.2321L325.034 38.9531ZM324.97 38.8897L331.307 38.6106C333.476 38.5596 335.669 38.4565 337.872 38.4655C337.994 38.4667 338.11 38.5152 338.195 38.6004C338.281 38.6857 338.33 38.801 338.331 38.9216C338.356 41.4467 338.353 43.972 338.304 46.4973C338.28 49.0225 338.213 51.5478 338.119 54.0731L338.118 54.0902C338.117 54.1212 338.11 54.1518 338.097 54.1801C338.084 54.2084 338.066 54.2338 338.043 54.255C338.02 54.2762 337.993 54.2927 337.964 54.3036C337.935 54.3144 337.903 54.3194 337.872 54.3183C335.727 54.2474 333.582 54.1981 331.437 54.2196C329.292 54.2291 327.147 54.3352 325.002 54.4067C324.959 54.4081 324.917 54.4012 324.877 54.3863C324.837 54.3714 324.801 54.3489 324.77 54.32C324.739 54.2911 324.714 54.2564 324.696 54.2178C324.678 54.1793 324.669 54.1377 324.667 54.0954L324.666 54.0731C324.571 51.505 324.61 48.9129 324.675 46.3625C324.732 43.8085 324.844 41.2963 324.97 38.8897ZM386.764 37.6167C386.986 42.7615 387.137 47.7709 387.269 52.7408C387.424 57.7228 387.492 62.6176 387.549 67.5093C387.606 72.3975 387.529 77.2312 387.368 82.0907C387.232 86.951 387.031 91.8489 387.017 96.7686L386.691 96.4442C389.622 96.4847 392.553 96.4088 395.484 96.3968C398.415 96.3758 401.346 96.2642 404.277 96.2021L403.707 96.7686C403.545 91.833 403.426 86.8976 403.35 81.9623L403.182 67.1561C403.145 62.2206 403.158 57.2851 403.221 52.3498L403.496 37.5435L404.277 38.3192L395.675 38.002L386.764 37.6167ZM386.617 37.4703L395.292 37.0851L404.277 36.7677C404.376 36.7642 404.474 36.7801 404.567 36.8145C404.66 36.8489 404.745 36.9011 404.817 36.9681C404.89 37.0351 404.948 37.1156 404.989 37.2051C405.03 37.2946 405.053 37.3912 405.057 37.4895L405.057 37.4982L405.058 37.5436L405.333 52.3499C405.392 57.2853 405.405 62.2207 405.372 67.1562L405.204 81.9624C405.123 86.8977 405.004 91.8332 404.847 96.7687L404.846 96.7993C404.841 96.9451 404.779 97.0831 404.672 97.1834C404.566 97.2837 404.424 97.3383 404.277 97.3353C401.346 97.2733 398.415 97.1617 395.484 97.1406C392.553 97.1286 389.622 97.0527 386.691 97.0931C386.648 97.0937 386.606 97.086 386.567 97.0704C386.528 97.0549 386.492 97.0318 386.461 97.0025C386.431 96.9732 386.407 96.9383 386.39 96.8997C386.373 96.8611 386.365 96.8196 386.364 96.7775L386.364 96.7687C386.35 91.8174 386.148 86.8444 386.013 81.834C385.852 76.8225 385.775 71.7853 385.832 66.8029C385.889 61.8236 385.957 56.8475 386.111 51.9588C386.244 47.0578 386.395 42.1963 386.617 37.4703ZM373.975 121.245V112.791L360.673 111.618V119.919C352.594 120.135 346.576 122.337 346.259 125.585C345.861 129.661 354.586 133.838 365.747 134.914C376.909 135.99 386.279 133.558 386.677 129.482C386.99 126.282 381.676 123.02 373.975 121.245ZM249.517 134.198C256.119 130.018 262.797 125.964 269.498 121.947C269.576 121.901 269.668 121.884 269.758 121.898C275.958 122.844 282.136 123.93 288.31 125.031C294.483 126.148 300.676 127.134 306.879 128.06L325.488 130.849C331.683 131.822 337.887 132.747 344.073 133.779C344.196 133.798 344.305 133.866 344.377 133.966C344.45 134.066 344.479 134.19 344.459 134.312C344.439 134.43 344.374 134.536 344.278 134.608C339.685 138.035 335.059 141.419 330.401 144.759L323.439 149.803L316.432 154.787C316.422 154.794 316.41 154.797 316.399 154.795C316.387 154.793 316.377 154.787 316.37 154.777C316.363 154.768 316.36 154.756 316.361 154.745C316.363 154.733 316.369 154.722 316.378 154.715L323.168 149.443L330.002 144.229C334.55 140.743 339.123 137.288 343.718 133.865L343.924 134.695C337.726 133.733 331.546 132.665 325.358 131.645L306.815 128.454C300.635 127.386 294.445 126.379 288.233 125.503C282.025 124.611 275.818 123.703 269.635 122.656L269.894 122.607C263.157 126.563 256.398 130.483 249.563 134.275C249.553 134.281 249.541 134.282 249.529 134.279C249.518 134.276 249.508 134.269 249.502 134.259C249.496 134.249 249.495 134.237 249.497 134.226C249.5 134.214 249.507 134.205 249.517 134.198ZM257.519 142.43C261.316 143.395 265.084 144.454 268.847 145.527L280.104 148.853L291.3 152.377C295.021 153.587 298.738 154.811 302.425 156.131C298.627 155.167 294.86 154.108 291.097 153.035L279.84 149.708L268.644 146.183C264.923 144.973 261.207 143.748 257.519 142.43Z" fill="#121214"/>
<path d="M385.271 126.361C387.548 126.053 389.851 125.987 392.141 126.162C394.496 126.274 396.803 126.863 398.92 127.893C400.027 128.465 400.98 129.29 401.702 130.3C402.421 131.355 402.82 132.594 402.849 133.868C402.872 135.09 402.687 136.308 402.303 137.47C401.963 138.666 401.38 139.78 400.591 140.744C399.801 141.707 398.832 142.511 397.738 143.113C396.709 143.702 395.63 144.201 394.514 144.603C392.292 145.425 389.948 145.878 387.578 145.944C385.24 145.992 382.907 145.69 380.659 145.049C378.502 144.388 376.205 144.319 374.012 144.848C375.037 144.294 376.18 143.99 377.347 143.96C378.51 143.884 379.678 143.925 380.834 144.08C383.03 144.473 385.268 144.586 387.494 144.416C389.685 144.238 391.839 143.75 393.89 142.964C394.91 142.572 395.899 142.104 396.849 141.566C397.765 141.085 398.579 140.432 399.244 139.644C399.911 138.855 400.421 137.948 400.748 136.97C401.108 135.987 401.299 134.95 401.314 133.904C401.334 132.9 401.068 131.91 400.545 131.05C399.977 130.182 399.213 129.458 398.314 128.936C396.376 127.862 394.254 127.156 392.056 126.854C389.813 126.499 387.543 126.334 385.271 126.361Z" fill="#121214"/>
<path d="M375.985 150.919C375.985 150.919 375.598 163.501 368.865 171.059C369.135 170.448 369.266 169.785 369.249 169.118C369.232 168.451 369.067 167.796 368.766 167.199C369.847 164.62 367.252 159.462 367.252 159.462C368.766 156.024 364.872 152.585 364.872 152.585C364.872 152.585 367.252 147.642 360.979 145.922C360.979 145.922 378.121 137.97 375.985 150.919Z" fill="#121214"/>
<path d="M412.785 245.033C412.724 245.033 412.663 245.024 412.605 245.005L296.589 206.888C296.518 206.865 296.452 206.827 296.394 206.779C296.337 206.73 296.29 206.67 296.257 206.603C296.223 206.536 296.202 206.463 296.197 206.388C296.191 206.314 296.201 206.239 296.224 206.167C296.248 206.096 296.285 206.03 296.335 205.974C296.384 205.917 296.444 205.87 296.511 205.837C296.579 205.803 296.652 205.783 296.727 205.777C296.803 205.772 296.878 205.781 296.95 205.805L412.722 243.842L561.789 159.131V152.336L285.327 102.24L240.052 119.589C239.911 119.643 239.753 119.639 239.614 119.578C239.475 119.516 239.367 119.403 239.312 119.262C239.257 119.121 239.261 118.965 239.322 118.826C239.383 118.688 239.497 118.58 239.639 118.525L285.064 101.117C285.163 101.081 285.27 101.071 285.374 101.088L562.466 151.298C562.598 151.322 562.718 151.391 562.804 151.494C562.89 151.597 562.937 151.726 562.937 151.859V159.462C562.937 159.563 562.911 159.662 562.86 159.748C562.809 159.835 562.736 159.907 562.648 159.957L413.071 244.957C412.984 245.007 412.885 245.033 412.785 245.033Z" fill="#121214"/>
<path d="M412.461 237.818C412.415 237.818 412.369 237.811 412.325 237.797L289.029 199.04C288.973 199.022 288.92 198.994 288.875 198.956C288.83 198.918 288.793 198.872 288.765 198.82C288.71 198.714 288.7 198.592 288.736 198.479C288.772 198.366 288.852 198.271 288.958 198.217C289.064 198.162 289.187 198.152 289.301 198.188L412.409 236.885L562.139 151.471C562.19 151.441 562.247 151.423 562.306 151.415C562.365 151.408 562.424 151.412 562.481 151.427C562.539 151.442 562.592 151.469 562.639 151.505C562.686 151.541 562.725 151.585 562.755 151.637C562.784 151.688 562.803 151.744 562.811 151.802C562.818 151.861 562.814 151.92 562.799 151.977C562.783 152.033 562.757 152.087 562.72 152.133C562.684 152.18 562.639 152.219 562.588 152.248L412.686 237.76C412.617 237.798 412.54 237.818 412.461 237.818Z" fill="#121214"/>
<path d="M412.784 244.91C412.668 244.91 412.557 244.866 412.473 244.786C412.39 244.707 412.34 244.599 412.335 244.484L412.01 237.392C412.007 237.333 412.016 237.274 412.037 237.219C412.057 237.164 412.088 237.113 412.127 237.069C412.167 237.026 412.215 236.991 412.269 236.966C412.323 236.941 412.381 236.927 412.44 236.924C412.558 236.923 412.672 236.966 412.76 237.045C412.847 237.124 412.901 237.233 412.91 237.35L413.235 244.442C413.238 244.501 413.229 244.559 413.209 244.615C413.189 244.67 413.158 244.721 413.118 244.765C413.078 244.808 413.03 244.843 412.976 244.868C412.922 244.893 412.864 244.907 412.805 244.91H412.784Z" fill="#121214"/>
<path d="M412.827 242.379L413.728 297.141L414.404 351.902C414.647 370.156 415.15 388.41 414.855 406.664C414.692 415.791 414.529 424.918 414.172 434.045L413.63 447.735C413.359 452.299 413.172 456.862 412.827 461.426C412.822 461.482 412.797 461.535 412.755 461.574C412.713 461.612 412.658 461.633 412.601 461.633C412.544 461.633 412.489 461.612 412.448 461.574C412.406 461.535 412.38 461.482 412.376 461.426C412.03 456.862 411.844 452.299 411.573 447.735L411.031 434.045C410.673 424.918 410.511 415.791 410.348 406.664C410.053 388.41 410.555 370.156 410.799 351.902L411.475 297.141L412.376 242.379C412.377 242.32 412.401 242.264 412.443 242.223C412.485 242.182 412.542 242.159 412.601 242.159C412.661 242.159 412.717 242.182 412.759 242.223C412.802 242.264 412.826 242.32 412.827 242.379ZM550.908 167.2L551.809 221.961L552.485 276.723C552.728 294.977 553.231 313.231 552.936 331.485C552.773 340.612 552.611 349.738 552.253 358.866L551.711 372.556C551.44 377.12 551.254 381.683 550.908 386.246C550.903 386.303 550.878 386.356 550.836 386.394C550.794 386.432 550.739 386.454 550.682 386.454C550.625 386.454 550.571 386.432 550.529 386.394C550.487 386.356 550.461 386.303 550.457 386.246C550.111 381.683 549.925 377.12 549.654 372.556L549.112 358.866C548.754 349.738 548.592 340.612 548.429 331.485C548.134 313.231 548.636 294.977 548.88 276.723L549.556 221.961L550.457 167.2C550.458 167.141 550.482 167.085 550.524 167.043C550.566 167.002 550.623 166.979 550.682 166.979C550.742 166.979 550.799 167.002 550.841 167.043C550.883 167.085 550.907 167.141 550.908 167.2ZM321.286 317.644C321.286 317.644 331.594 318.497 367.004 342.654C372.798 346.681 379.887 348.435 386.904 347.577C388.774 347.371 390.605 346.904 392.344 346.19C392.344 346.19 419.275 353.106 395.264 357.619C395.264 357.619 360.871 358.586 335.238 339.888L335.563 350.204H322.584C322.584 350.204 316.744 323.447 321.286 317.644Z" fill="#121214"/>
<path d="M332.303 278.346C334.294 281.678 336.183 285.063 338.126 288.419L343.782 298.58C345.69 301.953 347.482 305.397 349.332 308.791C351.16 312.143 353.346 315.289 355.851 318.177C357.083 319.635 358.391 321.029 359.768 322.352C361.142 323.666 362.627 324.911 364.096 326.181C367.029 328.717 370.037 331.16 373.013 333.641C376.007 336.1 379.054 338.497 382.206 340.742C383.768 341.885 385.368 342.975 387.027 343.968L388.285 344.69L389.585 345.327C390.455 345.752 391.385 346.043 392.344 346.19C390.387 345.984 388.497 345.368 386.797 344.384C385.051 343.497 383.361 342.509 381.709 341.468C378.427 339.35 375.268 337.061 372.153 334.721C369.023 332.397 366.032 329.902 363.032 327.423C361.547 326.173 360.034 324.943 358.582 323.593C354.225 319.566 350.606 314.816 347.887 309.557C346.099 306.107 344.278 302.695 342.56 299.218L337.348 288.826C335.668 285.331 333.934 281.865 332.303 278.346ZM308.483 302.026C311.086 304.2 313.465 306.626 315.583 309.27C317.763 311.863 319.674 314.669 321.286 317.644C318.68 315.473 316.301 313.046 314.186 310.4C312.009 307.805 310.098 304.999 308.483 302.026ZM247.273 396.094C247.273 396.094 257.604 395.576 295.936 414.834C302.217 418.059 309.478 418.859 316.318 417.08C318.143 416.629 319.896 415.924 321.523 414.986C321.523 414.986 349.141 418.278 325.949 425.927C325.949 425.927 291.992 431.436 264.082 416.295L265.786 426.476L252.923 428.193C252.923 428.193 243.549 402.446 247.273 396.094Z" fill="#121214"/>
<path d="M269.021 364.266C269.872 367.418 270.611 370.593 271.409 373.756L272.513 378.519C272.819 380.076 273.307 381.592 273.967 383.037C274.633 384.452 275.481 385.776 276.491 386.973C277.528 388.173 278.661 389.343 279.819 390.451C282.135 392.685 284.643 394.713 287.317 396.509C292.748 400.085 298.285 403.587 303.866 406.953C306.662 408.634 309.494 410.257 312.399 411.727C313.834 412.495 315.309 413.189 316.816 413.805C318.297 414.487 319.894 414.888 321.523 414.986C319.867 415.082 318.209 414.832 316.656 414.252C315.082 413.755 313.535 413.177 312.021 412.521C309.005 411.195 306.076 409.696 303.177 408.149C297.382 405.034 291.825 401.577 286.303 397.989C283.554 396.116 280.984 393.996 278.625 391.656C277.453 390.473 276.34 389.265 275.273 387.967C274.201 386.64 273.334 385.163 272.701 383.582C272.081 382.025 271.645 380.401 271.402 378.743L270.548 373.93C270.041 370.708 269.475 367.498 269.021 364.266ZM246.398 372.139C247.181 376.076 247.628 380.072 247.736 384.084C247.925 388.093 247.77 392.111 247.273 396.094C246.487 392.157 246.04 388.161 245.936 384.149C245.751 380.14 245.905 376.122 246.398 372.139ZM216.549 53.3484C214.711 53.5271 212.859 53.2131 211.185 52.439C210.311 52.0557 209.546 51.4657 208.955 50.7207C208.367 49.9721 208.099 49.0233 208.21 48.0799C208.458 48.8891 208.891 49.6306 209.474 50.2467C210.058 50.8627 210.776 51.3368 211.574 51.6321C213.185 52.3316 214.848 52.9054 216.549 53.3484ZM390.839 44.8184C391.397 44.7992 391.926 44.5653 392.314 44.1661C392.702 43.767 392.919 43.2337 392.919 42.6787C392.919 42.1238 392.702 41.5905 392.314 41.1913C391.926 40.7922 391.397 40.5583 390.839 40.5391C390.281 40.5583 389.752 40.7922 389.364 41.1913C388.976 41.5905 388.759 42.1238 388.759 42.6787C388.759 43.2337 388.976 43.767 389.364 44.1661C389.752 44.5653 390.281 44.7992 390.839 44.8184ZM391.184 56.6292C391.742 56.61 392.271 56.3761 392.659 55.977C393.047 55.5778 393.264 55.0445 393.264 54.4895C393.264 53.9346 393.047 53.4013 392.659 53.0021C392.271 52.603 391.742 52.3691 391.184 52.3499C390.626 52.3691 390.097 52.603 389.709 53.0021C389.321 53.4013 389.104 53.9346 389.104 54.4895C389.104 55.0445 389.321 55.5778 389.709 55.977C390.097 56.3761 390.626 56.61 391.184 56.6292ZM391.356 69.2959C391.914 69.2766 392.443 69.0428 392.831 68.6436C393.219 68.2445 393.436 67.7112 393.436 67.1562C393.436 66.6012 393.219 66.068 392.831 65.6688C392.443 65.2696 391.914 65.0358 391.356 65.0166C390.798 65.0358 390.269 65.2696 389.881 65.6688C389.493 66.068 389.276 66.6012 389.276 67.1562C389.276 67.7112 389.493 68.2445 389.881 68.6436C390.269 69.0428 390.798 69.2766 391.356 69.2959ZM391.356 83.3319C391.914 83.3127 392.443 83.0788 392.831 82.6797C393.219 82.2805 393.436 81.7472 393.436 81.1922C393.436 80.6373 393.219 80.104 392.831 79.7048C392.443 79.3057 391.914 79.0718 391.356 79.0526C390.798 79.0718 390.269 79.3057 389.881 79.7048C389.493 80.104 389.276 80.6373 389.276 81.1922C389.276 81.7472 389.493 82.2805 389.881 82.6797C390.269 83.0788 390.798 83.3127 391.356 83.3319ZM391.701 94.6292C392.259 94.61 392.788 94.3761 393.176 93.977C393.564 93.5778 393.781 93.0445 393.781 92.4895C393.781 91.9346 393.564 91.4013 393.176 91.0021C392.788 90.603 392.259 90.3691 391.701 90.3499C391.142 90.3691 390.613 90.603 390.225 91.0021C389.837 91.4013 389.62 91.9346 389.62 92.4895C389.62 93.0445 389.837 93.5778 390.225 93.977C390.613 94.3761 391.142 94.61 391.701 94.6292ZM331.383 47.3709C331.695 47.3692 332 47.2802 332.264 47.1141C332.527 46.9481 332.738 46.7116 332.873 46.4319C333.092 45.9438 333.242 45.4276 333.317 44.8983C333.385 44.6153 333.393 44.3214 333.341 44.0351C333.289 43.7487 333.178 43.4761 333.015 43.2346C332.816 43.0092 332.559 42.8416 332.272 42.7494C331.984 42.6572 331.677 42.6439 331.383 42.711C330.858 42.8164 330.385 43.095 330.04 43.5015C329.75 43.9109 329.596 44.3996 329.599 44.8999C329.586 45.4229 329.692 45.9421 329.907 46.4195C330.038 46.7 330.246 46.9381 330.507 47.1064C330.768 47.2747 331.072 47.3664 331.383 47.3709ZM331.383 47.4977C330.65 47.5427 329.921 47.365 329.293 46.988C328.963 46.7481 328.695 46.4335 328.511 46.0703C328.328 45.7071 328.234 45.3057 328.238 44.8994C328.232 44.4879 328.311 44.0795 328.469 43.6994C328.628 43.3193 328.863 42.9756 329.161 42.6894C329.452 42.4109 329.805 42.2048 330.191 42.0879C330.577 41.971 330.986 41.9467 331.383 42.0169C332.108 42.1286 332.783 42.4554 333.318 42.9544C333.892 43.4573 334.268 44.1464 334.379 44.8989C334.425 45.2947 334.363 45.6954 334.202 46.0601C334.04 46.4247 333.784 46.74 333.459 46.9737C332.836 47.3522 332.113 47.5348 331.383 47.4977Z" fill="#121214"/>
<path d="M335.511 54.1177C334.179 54.3397 332.835 54.4885 331.486 54.5635C330.763 54.595 330.033 54.6322 329.294 54.6132C328.554 54.5964 327.815 54.5001 327.098 54.4334L327.025 54.4264C326.983 54.4225 326.942 54.4105 326.904 54.3909C326.867 54.3713 326.834 54.3446 326.807 54.3124C326.78 54.2801 326.76 54.2429 326.748 54.2029C326.735 54.1628 326.731 54.1208 326.735 54.0791L326.735 54.0733C326.838 53.3011 326.895 52.5235 326.906 51.7446C326.855 50.9315 326.971 50.1166 327.247 49.3494C327.572 48.5228 328.137 47.8112 328.871 47.3053C329.605 46.7995 330.474 46.5224 331.367 46.5095C332.26 46.4965 333.136 46.7483 333.885 47.2326C334.633 47.717 335.219 48.4119 335.568 49.2287C335.905 50.039 336.004 50.9276 335.854 51.7916C335.767 52.6444 335.623 53.4385 335.511 54.1177ZM335.422 54.0291L335.079 51.6979C335.042 51.0096 334.852 50.338 334.524 49.7312C334.187 49.163 333.716 48.6853 333.151 48.3397C332.586 47.9941 331.944 47.7913 331.282 47.7488C330.587 47.7313 329.9 47.8937 329.288 48.2201C328.675 48.5464 328.159 49.0255 327.789 49.6102C327.402 50.2521 327.227 50.9987 327.29 51.7446C327.301 52.5234 327.357 53.301 327.46 54.0733L327.098 53.7136C327.775 53.6467 328.431 53.5504 329.086 53.5335C329.742 53.5145 330.406 53.5518 331.078 53.5833C332.427 53.6643 333.834 53.8263 335.422 54.0291ZM343.485 38.9532C343.611 41.5973 343.722 44.1354 343.78 46.6321C343.844 49.1322 343.884 51.5906 343.788 54.0733L343.453 53.7399C345.598 53.8114 347.743 53.9175 349.888 53.9272C352.033 53.9485 354.178 53.8992 356.323 53.8283L356.077 54.0733C355.983 51.548 355.915 49.0227 355.892 46.4975C355.842 43.9722 355.839 41.4469 355.865 38.9218L356.323 39.3775C354.236 39.3865 352.139 39.2834 350.018 39.2323L343.485 38.9532ZM343.421 38.8898L349.759 38.6107C351.927 38.5597 354.12 38.4567 356.323 38.4657C356.445 38.4669 356.561 38.5153 356.646 38.6006C356.732 38.6858 356.781 38.8011 356.782 38.9217C356.807 41.4469 356.804 43.9722 356.755 46.4974C356.731 49.0226 356.664 51.5479 356.57 54.0732L356.569 54.0903C356.568 54.1214 356.561 54.1519 356.548 54.1802C356.535 54.2085 356.517 54.234 356.494 54.2552C356.471 54.2764 356.444 54.2928 356.415 54.3037C356.386 54.3146 356.354 54.3196 356.323 54.3184C354.178 54.2475 352.033 54.1983 349.888 54.2197C347.743 54.2293 345.598 54.3353 343.453 54.4069C343.41 54.4083 343.368 54.4013 343.328 54.3864C343.288 54.3716 343.252 54.349 343.221 54.3201C343.19 54.2912 343.165 54.2565 343.147 54.218C343.129 54.1794 343.12 54.1378 343.118 54.0955L343.117 54.0732C343.022 51.5051 343.061 48.9131 343.126 46.3627C343.184 43.8087 343.295 41.2964 343.421 38.8898Z" fill="#121214"/>
<path d="M349.834 47.3709C350.146 47.3692 350.451 47.2802 350.715 47.1141C350.978 46.9481 351.189 46.7116 351.324 46.4319C351.543 45.9439 351.693 45.4276 351.768 44.8983C351.836 44.6153 351.844 44.3214 351.792 44.0351C351.74 43.7487 351.629 43.4762 351.466 43.2346C351.267 43.0092 351.01 42.8416 350.722 42.7494C350.435 42.6572 350.128 42.6439 349.834 42.711C349.309 42.8164 348.836 43.095 348.49 43.5015C348.201 43.9109 348.047 44.3996 348.049 44.8999C348.037 45.4229 348.142 45.9421 348.358 46.4195C348.489 46.7 348.697 46.9381 348.958 47.1064C349.219 47.2747 349.523 47.3664 349.834 47.3709ZM349.834 47.4977C349.101 47.5427 348.372 47.365 347.743 46.988C347.413 46.7481 347.145 46.4335 346.962 46.0703C346.779 45.7071 346.685 45.3057 346.689 44.8994C346.683 44.4879 346.761 44.0795 346.92 43.6994C347.079 43.3193 347.314 42.9756 347.612 42.6894C347.902 42.4109 348.255 42.2048 348.641 42.0879C349.028 41.9711 349.436 41.9467 349.834 42.0169C350.559 42.1286 351.233 42.4554 351.769 42.9544C352.343 43.4573 352.719 44.1464 352.829 44.8989C352.875 45.2947 352.814 45.6954 352.653 46.0601C352.491 46.4247 352.235 46.74 351.91 46.9737C351.287 47.3522 350.563 47.5348 349.834 47.4977Z" fill="#121214"/>
<path d="M353.961 54.1177C352.629 54.3397 351.285 54.4885 349.937 54.5635C349.213 54.595 348.483 54.6322 347.744 54.6132C347.004 54.5964 346.265 54.5001 345.548 54.4334L345.475 54.4264C345.433 54.4225 345.392 54.4105 345.355 54.3909C345.317 54.3713 345.284 54.3446 345.257 54.3124C345.23 54.2801 345.21 54.2429 345.198 54.2029C345.185 54.1628 345.181 54.1208 345.185 54.0791L345.186 54.0733C345.288 53.3011 345.345 52.5235 345.356 51.7446C345.305 50.9315 345.422 50.1166 345.697 49.3494C346.022 48.5228 346.588 47.8112 347.321 47.3053C348.055 46.7995 348.924 46.5224 349.817 46.5095C350.71 46.4965 351.587 46.7483 352.335 47.2326C353.083 47.717 353.669 48.4119 354.018 49.2287C354.356 50.039 354.455 50.9276 354.304 51.7916C354.217 52.6444 354.073 53.4385 353.961 54.1177ZM353.872 54.0291L353.529 51.6979C353.492 51.0096 353.303 50.338 352.974 49.7312C352.637 49.163 352.166 48.6853 351.601 48.3397C351.036 47.9941 350.394 47.7913 349.732 47.7488C349.038 47.7313 348.35 47.8937 347.738 48.2201C347.126 48.5464 346.609 49.0255 346.239 49.6102C345.852 50.2521 345.677 50.9987 345.74 51.7446C345.751 52.5234 345.808 53.301 345.91 54.0733L345.548 53.7136C346.226 53.6467 346.881 53.5504 347.536 53.5335C348.192 53.5145 348.857 53.5518 349.528 53.5833C350.877 53.6643 352.284 53.8263 353.872 54.0291ZM362.278 38.9532C362.404 41.5973 362.516 44.1354 362.574 46.6321C362.638 49.1322 362.678 51.5906 362.582 54.0733L362.246 53.7399C364.391 53.8114 366.537 53.9175 368.682 53.9272C370.826 53.9485 372.972 53.8992 375.117 53.8283L374.87 54.0733C374.776 51.548 374.709 49.0227 374.685 46.4975C374.636 43.9722 374.633 41.4469 374.658 38.9218L375.117 39.3775C373.029 39.3865 370.932 39.2834 368.811 39.2323L362.278 38.9532ZM362.215 38.8898L368.552 38.6107C370.721 38.5597 372.914 38.4567 375.117 38.4657C375.238 38.4668 375.354 38.5153 375.44 38.6005C375.526 38.6858 375.574 38.8011 375.576 38.9217C375.601 41.4469 375.598 43.9722 375.548 46.4974C375.525 49.0226 375.457 51.5479 375.363 54.0732L375.363 54.0903C375.362 54.1214 375.355 54.1519 375.342 54.1802C375.329 54.2085 375.31 54.234 375.287 54.2552C375.264 54.2764 375.238 54.2928 375.208 54.3037C375.179 54.3146 375.148 54.3195 375.117 54.3184C372.972 54.2475 370.826 54.1983 368.682 54.2197C366.537 54.2293 364.391 54.3353 362.246 54.4069C362.204 54.4083 362.161 54.4013 362.122 54.3864C362.082 54.3716 362.045 54.349 362.014 54.3201C361.983 54.2912 361.958 54.2565 361.94 54.218C361.923 54.1794 361.913 54.1378 361.912 54.0955L361.911 54.0732C361.815 51.5051 361.855 48.9131 361.919 46.3627C361.977 43.8087 362.088 41.2964 362.215 38.8898Z" fill="#121214"/>
<path d="M368.628 47.3709C368.94 47.3692 369.245 47.2802 369.509 47.1142C369.772 46.9481 369.983 46.7116 370.118 46.4319C370.337 45.9439 370.487 45.4277 370.561 44.8983C370.63 44.6153 370.638 44.3214 370.586 44.0351C370.534 43.7487 370.423 43.4762 370.26 43.2346C370.061 43.0092 369.804 42.8416 369.516 42.7494C369.229 42.6572 368.922 42.644 368.628 42.711C368.103 42.8165 367.63 43.0951 367.284 43.5015C366.995 43.9109 366.841 44.3996 366.844 44.8999C366.831 45.4229 366.936 45.9421 367.152 46.4195C367.283 46.7 367.491 46.9381 367.752 47.1064C368.013 47.2747 368.317 47.3664 368.628 47.3709ZM368.628 47.4977C367.895 47.5427 367.166 47.365 366.537 46.988C366.207 46.7481 365.939 46.4335 365.756 46.0703C365.573 45.7071 365.479 45.3057 365.483 44.8994C365.477 44.4879 365.555 44.0795 365.714 43.6995C365.873 43.3194 366.108 42.9756 366.406 42.6894C366.696 42.4109 367.049 42.2048 367.435 42.0879C367.822 41.9711 368.23 41.9467 368.628 42.0169C369.353 42.1286 370.027 42.4554 370.563 42.9544C371.137 43.4573 371.513 44.1464 371.623 44.8989C371.669 45.2947 371.608 45.6955 371.447 46.0601C371.285 46.4247 371.029 46.74 370.704 46.9737C370.081 47.3522 369.357 47.5348 368.628 47.4977Z" fill="#121214"/>
<path d="M372.754 54.1177C371.422 54.3397 370.078 54.4885 368.729 54.5635C368.006 54.595 367.276 54.6322 366.537 54.6133C365.797 54.5964 365.058 54.5001 364.341 54.4334L364.267 54.4264C364.226 54.4225 364.185 54.4104 364.147 54.3909C364.11 54.3713 364.077 54.3446 364.05 54.3124C364.023 54.2801 364.003 54.2429 363.991 54.2029C363.978 54.1628 363.974 54.1208 363.978 54.0791L363.978 54.0733C364.081 53.3011 364.138 52.5235 364.149 51.7446C364.098 50.9315 364.214 50.1166 364.49 49.3494C364.815 48.5228 365.381 47.8112 366.114 47.3053C366.848 46.7995 367.717 46.5224 368.61 46.5094C369.503 46.4965 370.38 46.7483 371.128 47.2326C371.876 47.717 372.462 48.4119 372.811 49.2287C373.148 50.039 373.247 50.9276 373.097 51.7916C373.01 52.6444 372.866 53.4385 372.754 54.1177ZM372.665 54.0291L372.322 51.6979C372.285 51.0097 372.095 50.338 371.767 49.7312C371.43 49.163 370.959 48.6853 370.394 48.3397C369.829 47.9942 369.187 47.7913 368.525 47.7488C367.83 47.7313 367.143 47.8937 366.531 48.2201C365.918 48.5464 365.402 49.0255 365.032 49.6102C364.645 50.2522 364.47 50.9987 364.533 51.7446C364.544 52.5235 364.6 53.301 364.703 54.0733L364.341 53.7136C365.019 53.6467 365.674 53.5504 366.329 53.5335C366.985 53.5145 367.649 53.5518 368.321 53.5833C369.67 53.6643 371.077 53.8263 372.665 54.0291ZM353.948 57.7688C354.074 60.4128 354.186 62.9511 354.243 65.4476C354.308 67.9477 354.347 70.4062 354.252 72.8888L353.916 72.5554C356.061 72.627 358.206 72.733 360.351 72.7428C362.496 72.764 364.641 72.7147 366.786 72.6438L366.54 72.8888C366.446 70.3635 366.378 67.8382 366.355 65.3131C366.306 62.7878 366.303 60.2624 366.328 57.7373L366.786 58.193C364.699 58.2021 362.602 58.099 360.481 58.048L353.948 57.7688ZM353.884 57.7054L360.222 57.4263C362.391 57.3752 364.584 57.2722 366.786 57.2812C366.908 57.2824 367.024 57.3308 367.11 57.4161C367.195 57.5014 367.244 57.6167 367.245 57.7372C367.27 60.2624 367.267 62.7877 367.218 65.313C367.195 67.8382 367.127 70.3635 367.033 72.8887L367.033 72.906C367.032 72.937 367.024 72.9676 367.011 72.9958C366.998 73.0241 366.98 73.0495 366.957 73.0707C366.934 73.0919 366.907 73.1084 366.878 73.1192C366.849 73.1301 366.818 73.1351 366.786 73.1339C364.641 73.063 362.496 73.0138 360.351 73.0352C358.206 73.0447 356.061 73.1508 353.916 73.2224C353.83 73.2252 353.747 73.194 353.684 73.1357C353.621 73.0773 353.584 72.9966 353.581 72.9112L353.581 72.8887C353.485 70.3207 353.525 67.7286 353.589 65.1782C353.647 62.6242 353.758 60.1119 353.884 57.7054Z" fill="#121214"/>
<path d="M360.298 66.1864C360.61 66.1847 360.915 66.0957 361.178 65.9297C361.442 65.7636 361.653 65.5271 361.788 65.2474C362.007 64.7594 362.156 64.2432 362.231 63.7139C362.3 63.4309 362.308 63.1369 362.256 62.8506C362.204 62.5642 362.093 62.2917 361.93 62.0501C361.73 61.8248 361.474 61.6571 361.186 61.565C360.899 61.4728 360.592 61.4595 360.298 61.5265C359.773 61.6319 359.299 61.9105 358.954 62.317C358.665 62.7264 358.511 63.2151 358.513 63.7154C358.501 64.2385 358.606 64.7576 358.822 65.235C358.953 65.5155 359.161 65.7537 359.422 65.922C359.683 66.0903 359.986 66.1819 360.298 66.1864ZM360.298 66.3132C359.565 66.3582 358.836 66.1805 358.207 65.8035C357.877 65.5636 357.609 65.249 357.426 64.8858C357.242 64.5226 357.149 64.1212 357.153 63.7149C357.146 63.3034 357.225 62.8951 357.384 62.515C357.542 62.1349 357.778 61.7911 358.076 61.5049C358.366 61.2264 358.719 61.0203 359.105 60.9035C359.492 60.7866 359.9 60.7622 360.298 60.8325C361.023 60.9441 361.697 61.2709 362.232 61.7699C362.807 62.2728 363.183 62.9618 363.293 63.7144C363.339 64.1102 363.278 64.511 363.116 64.8756C362.955 65.2402 362.698 65.5555 362.374 65.7892C361.751 66.1677 361.027 66.3503 360.298 66.3132Z" fill="#121214"/>
<path d="M364.425 72.9333C363.092 73.1552 361.749 73.304 360.4 73.379C359.677 73.4107 358.947 73.4478 358.207 73.4288C357.468 73.4119 356.728 73.3156 356.011 73.2489L355.938 73.242C355.896 73.2381 355.855 73.226 355.818 73.2065C355.781 73.1869 355.748 73.1602 355.721 73.128C355.694 73.0957 355.674 73.0585 355.661 73.0184C355.649 72.9784 355.645 72.9363 355.648 72.8946L355.649 72.8889C355.751 72.1166 355.808 71.339 355.819 70.5602C355.769 69.7471 355.885 68.9323 356.161 68.1651C356.486 67.3385 357.051 66.6268 357.785 66.121C358.519 65.6151 359.387 65.338 360.28 65.325C361.173 65.3121 362.05 65.5638 362.798 66.0482C363.547 66.5325 364.133 67.2274 364.482 68.0443C364.819 68.8546 364.918 69.7432 364.768 70.6072C364.681 71.46 364.537 72.254 364.425 72.9333ZM364.336 72.8446L363.993 70.5134C363.956 69.8252 363.766 69.1536 363.437 68.5467C363.101 67.9785 362.629 67.5008 362.064 67.1553C361.499 66.8097 360.858 66.6068 360.196 66.5643C359.501 66.5468 358.814 66.7092 358.201 67.0356C357.589 67.3619 357.072 67.841 356.703 68.4257C356.316 69.0676 356.141 69.8142 356.203 70.5601C356.214 71.339 356.271 72.1165 356.373 72.8888L356.011 72.5291C356.689 72.4622 357.344 72.3659 358 72.349C358.655 72.33 359.32 72.3673 359.991 72.399C361.34 72.4798 362.748 72.6418 364.336 72.8446ZM333.88 57.7688C334.006 60.4128 334.118 62.9511 334.175 65.4476C334.24 67.9477 334.28 70.4062 334.184 72.8889L333.848 72.5554C335.994 72.627 338.138 72.733 340.283 72.7428C342.429 72.764 344.574 72.7147 346.719 72.6438L346.472 72.8889C346.378 70.3635 346.311 67.8382 346.287 65.3131C346.238 62.7878 346.235 60.2624 346.26 57.7373L346.719 58.193C344.631 58.2021 342.534 58.099 340.413 58.048L333.88 57.7688ZM333.816 57.7054L340.154 57.4263C342.323 57.3752 344.516 57.2722 346.719 57.2812C346.84 57.2824 346.956 57.3308 347.042 57.4161C347.128 57.5014 347.176 57.6167 347.177 57.7372C347.202 60.2624 347.199 62.7877 347.15 65.313C347.127 67.8382 347.059 70.3635 346.965 72.8887L346.965 72.906C346.964 72.937 346.957 72.9676 346.944 72.9958C346.931 73.0241 346.912 73.0495 346.889 73.0707C346.866 73.0919 346.84 73.1084 346.81 73.1192C346.781 73.1301 346.75 73.1351 346.719 73.1339C344.574 73.063 342.429 73.0138 340.283 73.0352C338.138 73.0448 335.994 73.1508 333.848 73.2224C333.806 73.2238 333.763 73.2169 333.724 73.202C333.684 73.1871 333.647 73.1646 333.616 73.1357C333.585 73.1068 333.56 73.0721 333.542 73.0336C333.525 72.9951 333.515 72.9535 333.514 72.9112L333.513 72.8887C333.417 70.3207 333.457 67.7286 333.521 65.1782C333.579 62.6242 333.69 60.1119 333.816 57.7054ZM325.034 77.3695C325.16 80.0135 325.271 82.5518 325.329 85.0483C325.394 87.5484 325.433 90.0069 325.338 92.4895L325.002 92.1561C327.147 92.2277 329.292 92.3337 331.437 92.3433C333.582 92.3647 335.727 92.3154 337.872 92.2445L337.626 92.4895C337.532 89.9642 337.464 87.4389 337.441 84.9138C337.392 82.3885 337.389 79.8632 337.414 77.3381L337.872 77.7937C335.785 77.8028 333.688 77.6997 331.567 77.6485L325.034 77.3695ZM324.97 77.3061L331.308 77.027C333.476 76.9758 335.67 76.8729 337.872 76.8819C337.994 76.8831 338.11 76.9315 338.196 77.0168C338.281 77.1021 338.33 77.2174 338.331 77.3379C338.356 79.8631 338.353 82.3884 338.304 84.9137C338.281 87.4388 338.213 89.9642 338.119 92.4894L338.119 92.5066C338.118 92.5376 338.11 92.5682 338.097 92.5964C338.084 92.6247 338.066 92.6502 338.043 92.6714C338.02 92.6926 337.993 92.7091 337.964 92.7199C337.935 92.7308 337.904 92.7358 337.872 92.7347C335.727 92.6638 333.582 92.6145 331.437 92.6358C329.292 92.6455 327.147 92.7516 325.002 92.8231C324.96 92.8245 324.917 92.8176 324.877 92.8027C324.838 92.7878 324.801 92.7653 324.77 92.7364C324.739 92.7075 324.714 92.6728 324.696 92.6342C324.679 92.5957 324.669 92.5541 324.667 92.5118L324.666 92.4895C324.571 89.9213 324.611 87.3293 324.675 84.7789C324.733 82.2249 324.844 79.7125 324.97 77.3061Z" fill="#121214"/>
<path d="M331.384 85.787C331.696 85.7853 332.001 85.6963 332.264 85.5302C332.528 85.364 332.739 85.1275 332.873 84.8478C333.093 84.3598 333.242 83.8436 333.317 83.3144C333.385 83.0314 333.394 82.7374 333.342 82.4511C333.29 82.1647 333.179 81.8922 333.016 81.6506C332.816 81.4252 332.559 81.2576 332.272 81.1654C331.985 81.0732 331.678 81.0599 331.384 81.127C330.859 81.2324 330.385 81.511 330.04 81.9175C329.751 82.3269 329.597 82.8156 329.599 83.3159C329.587 83.8389 329.692 84.3581 329.908 84.8355C330.039 85.116 330.247 85.3542 330.508 85.5225C330.769 85.6908 331.072 85.7825 331.384 85.787ZM331.384 85.9137C330.651 85.9588 329.922 85.781 329.293 85.4041C328.963 85.1642 328.695 84.8496 328.512 84.4864C328.328 84.1232 328.235 83.7218 328.239 83.3155C328.232 82.904 328.311 82.4956 328.47 82.1155C328.628 81.7354 328.864 81.3917 329.161 81.1055C329.452 80.827 329.805 80.6209 330.191 80.504C330.578 80.3871 330.986 80.3628 331.384 80.433C332.109 80.5446 332.783 80.8714 333.318 81.3705C333.893 81.8733 334.268 82.5623 334.379 83.3147C334.425 83.7105 334.364 84.1113 334.202 84.476C334.041 84.8406 333.784 85.156 333.46 85.3897C332.837 85.7682 332.113 85.9509 331.384 85.9137Z" fill="#121214"/>
<path d="M335.511 92.5338C334.179 92.7557 332.835 92.9045 331.486 92.9796C330.763 93.0111 330.033 93.0484 329.294 93.0294C328.554 93.0125 327.815 92.9162 327.098 92.8494L327.025 92.8426C326.983 92.8387 326.942 92.8266 326.904 92.807C326.867 92.7875 326.834 92.7608 326.807 92.7285C326.78 92.6963 326.76 92.659 326.748 92.619C326.735 92.579 326.731 92.5369 326.735 92.4952L326.735 92.4895C326.838 91.7172 326.895 90.9396 326.906 90.1607C326.855 89.3476 326.971 88.5327 327.247 87.7655C327.572 86.9389 328.137 86.2273 328.871 85.7215C329.605 85.2156 330.474 84.9386 331.367 84.9256C332.26 84.9127 333.136 85.1644 333.885 85.6488C334.633 86.1331 335.219 86.828 335.568 87.6448C335.905 88.4551 336.004 89.3438 335.854 90.2077C335.767 91.0604 335.623 91.8546 335.511 92.5338ZM335.422 92.4452L335.079 90.1139C335.042 89.4257 334.852 88.7541 334.524 88.1473C334.187 87.5791 333.716 87.1014 333.151 86.7558C332.586 86.4103 331.944 86.2074 331.282 86.1649C330.587 86.1474 329.9 86.3099 329.288 86.6362C328.675 86.9626 328.159 87.4416 327.789 88.0263C327.402 88.6683 327.227 89.4148 327.29 90.1607C327.301 90.9396 327.357 91.7172 327.46 92.4895L327.098 92.1295C327.775 92.0628 328.431 91.9666 329.086 91.9497C329.742 91.9307 330.406 91.968 331.078 91.9995C332.427 92.0804 333.834 92.2422 335.422 92.4452ZM343.485 77.3694C343.611 80.0135 343.722 82.5517 343.78 85.0483C343.844 87.5484 343.884 90.0068 343.788 92.4895L343.453 92.156C345.598 92.2276 347.743 92.3336 349.888 92.3432C352.033 92.3646 354.178 92.3154 356.323 92.2445L356.077 92.4895C355.983 89.9642 355.915 87.4388 355.892 84.9137C355.842 82.3884 355.839 79.8631 355.865 77.338L356.323 77.7937C354.236 77.8027 352.139 77.6996 350.018 77.6484L343.485 77.3694ZM343.421 77.306L349.759 77.0269C351.927 76.9757 354.12 76.8728 356.323 76.8818C356.445 76.883 356.561 76.9315 356.646 77.0167C356.732 77.102 356.781 77.2173 356.782 77.3379C356.807 79.863 356.804 82.3884 356.755 84.9137C356.731 87.4388 356.664 89.9641 356.57 92.4894L356.569 92.5065C356.568 92.5376 356.561 92.5681 356.548 92.5964C356.535 92.6247 356.517 92.6501 356.494 92.6713C356.471 92.6925 356.444 92.709 356.415 92.7199C356.386 92.7307 356.354 92.7357 356.323 92.7346C354.178 92.6638 352.033 92.6145 349.888 92.6357C347.743 92.6455 345.598 92.7515 343.453 92.8231C343.41 92.8245 343.368 92.8175 343.328 92.8027C343.288 92.7878 343.252 92.7652 343.221 92.7363C343.19 92.7074 343.165 92.6727 343.147 92.6342C343.129 92.5956 343.12 92.554 343.118 92.5117L343.117 92.4895C343.022 89.9213 343.061 87.3293 343.126 84.7789C343.184 82.2248 343.295 79.7124 343.421 77.306ZM362.122 77.3694C362.249 80.0135 362.36 82.5517 362.418 85.0483C362.482 87.5484 362.522 90.0068 362.426 92.4895L362.091 92.156C364.236 92.2276 366.381 92.3336 368.526 92.3432C370.671 92.3646 372.816 92.3154 374.961 92.2445L374.714 92.4895C374.621 89.9642 374.553 87.4388 374.529 84.9137C374.48 82.3884 374.477 79.8631 374.502 77.338L374.961 77.7937C372.873 77.8027 370.777 77.6996 368.655 77.6484L362.122 77.3694ZM362.059 77.306L368.396 77.0269C370.565 76.9757 372.758 76.8728 374.961 76.8818C375.082 76.883 375.198 76.9314 375.284 77.0167C375.37 77.102 375.419 77.2173 375.42 77.3379C375.445 79.863 375.442 82.3884 375.393 84.9137C375.369 87.4388 375.301 89.9641 375.208 92.4894L375.207 92.5065C375.206 92.5376 375.199 92.5681 375.186 92.5964C375.173 92.6247 375.154 92.6502 375.132 92.6713C375.109 92.6925 375.082 92.709 375.052 92.7199C375.023 92.7307 374.992 92.7358 374.961 92.7346C372.816 92.6638 370.671 92.6145 368.526 92.6357C366.381 92.6455 364.236 92.7515 362.091 92.8231C362.048 92.8245 362.006 92.8175 361.966 92.8027C361.926 92.7878 361.889 92.7652 361.858 92.7363C361.827 92.7074 361.802 92.6727 361.785 92.6342C361.767 92.5956 361.757 92.554 361.756 92.5117L361.755 92.4895C361.659 89.9213 361.699 87.3293 361.763 84.7789C361.821 82.2248 361.933 79.7124 362.059 77.306Z" fill="#121214"/>
<path d="M368.471 85.7871C368.783 85.7854 369.089 85.6964 369.352 85.5303C369.616 85.3642 369.827 85.1277 369.961 84.8478C370.181 84.3599 370.33 83.8437 370.405 83.3144C370.473 83.0315 370.482 82.7375 370.43 82.4512C370.378 82.1648 370.267 81.8922 370.103 81.6507C369.904 81.4253 369.647 81.2576 369.36 81.1655C369.073 81.0733 368.766 81.06 368.471 81.1271C367.947 81.2325 367.473 81.5111 367.128 81.9176C366.838 82.3269 366.684 82.8157 366.687 83.316C366.675 83.839 366.78 84.3582 366.995 84.8356C367.126 85.1161 367.334 85.3542 367.595 85.5225C367.857 85.6909 368.16 85.7825 368.471 85.7871ZM368.471 85.9138C367.739 85.9589 367.009 85.7811 366.381 85.4042C366.051 85.1643 365.783 84.8497 365.6 84.4865C365.416 84.1232 365.323 83.7219 365.327 83.3156C365.32 82.9041 365.399 82.4957 365.558 82.1156C365.716 81.7355 365.952 81.3918 366.249 81.1055C366.54 80.8271 366.893 80.621 367.279 80.5041C367.665 80.3872 368.074 80.3629 368.471 80.4331C369.197 80.5446 369.871 80.8714 370.406 81.3706C370.98 81.8734 371.356 82.5624 371.467 83.3148C371.513 83.7106 371.452 84.1114 371.29 84.476C371.129 84.8407 370.872 85.1561 370.548 85.3898C369.924 85.7683 369.201 85.951 368.471 85.9138Z" fill="#121214"/>
<path d="M372.598 92.5338C371.266 92.7557 369.922 92.9045 368.573 92.9796C367.85 93.0111 367.12 93.0484 366.38 93.0294C365.641 93.0125 364.902 92.9162 364.185 92.8494L364.112 92.8425C364.07 92.8387 364.029 92.8266 363.991 92.807C363.954 92.7875 363.921 92.7608 363.894 92.7285C363.867 92.6963 363.847 92.6591 363.835 92.619C363.822 92.579 363.818 92.5369 363.822 92.4952L363.822 92.4895C363.925 91.7172 363.982 90.9396 363.993 90.1607C363.942 89.3476 364.058 88.5327 364.334 87.7655C364.659 86.9389 365.225 86.2273 365.958 85.7215C366.692 85.2156 367.561 84.9386 368.454 84.9256C369.347 84.9127 370.224 85.1644 370.972 85.6488C371.72 86.1331 372.306 86.828 372.655 87.6448C372.992 88.4551 373.091 89.3438 372.941 90.2077C372.854 91.0604 372.71 91.8546 372.598 92.5338ZM372.509 92.4452L372.166 90.1139C372.129 89.4257 371.94 88.7541 371.611 88.1473C371.274 87.5791 370.803 87.1014 370.238 86.7558C369.673 86.4103 369.031 86.2074 368.369 86.1649C367.674 86.1474 366.987 86.3099 366.375 86.6362C365.762 86.9626 365.246 87.4416 364.876 88.0263C364.489 88.6683 364.314 89.4148 364.377 90.1607C364.388 90.9396 364.444 91.7172 364.547 92.4894L364.185 92.1295C364.862 92.0628 365.518 91.9665 366.173 91.9497C366.829 91.9307 367.493 91.9679 368.165 91.9995C369.514 92.0804 370.921 92.2422 372.509 92.4452Z" fill="#121214"/>
<path d="M270.286 128.023L270.038 129.427L271.452 129.674L271.7 128.269L270.286 128.023Z" fill="#121214"/>
<path d="M322.126 138.481L319.31 137.992L319.557 136.588L322.372 137.077L322.126 138.481ZM316.494 137.503L313.679 137.014L313.926 135.61L316.741 136.099L316.494 137.503ZM310.864 136.525L308.049 136.036L308.296 134.632L311.111 135.121L310.864 136.525ZM305.233 135.547L302.418 135.057L302.666 133.653L305.481 134.143L305.233 135.547ZM299.603 134.568L296.788 134.079L297.035 132.675L299.85 133.164L299.603 134.568ZM293.973 133.59L291.158 133.101L291.404 131.697L294.219 132.186L293.973 133.59ZM288.342 132.612L285.526 132.123L285.773 130.719L288.588 131.208L288.342 132.612ZM282.711 131.633L279.896 131.144L280.143 129.74L282.958 130.229L282.711 131.633ZM277.081 130.655L274.266 130.166L274.512 128.762L277.328 129.251L277.081 130.655Z" fill="#121214"/>
<path d="M325.19 137.561L324.941 138.966L326.355 139.213L326.604 137.808L325.19 137.561Z" fill="#121214"/>
<path d="M265.658 132.921L265.357 134.319L266.761 134.617L267.062 133.219L265.658 132.921Z" fill="#121214"/>
<path d="M316.002 145.039L313.267 144.46L313.567 143.064L316.302 143.644L316.002 145.039ZM310.532 143.882L307.796 143.302L308.095 141.906L310.831 142.486L310.532 143.882ZM305.061 142.723L302.326 142.145L302.624 140.749L305.36 141.327L305.061 142.723ZM299.589 141.565L296.854 140.986L297.154 139.59L299.889 140.169L299.589 141.565ZM294.118 140.406L291.383 139.828L291.682 138.432L294.417 139.01L294.118 140.406ZM288.648 139.249L285.912 138.669L286.21 137.273L288.946 137.853L288.648 139.249ZM283.176 138.091L280.441 137.512L280.741 136.116L283.476 136.695L283.176 138.091ZM277.705 136.932L274.969 136.353L275.269 134.957L278.005 135.536L277.705 136.932ZM272.233 135.775L269.498 135.195L269.798 133.799L272.533 134.379L272.233 135.775Z" fill="#121214"/>
<path d="M319.04 144.219L318.739 145.616L320.143 145.914L320.444 144.517L319.04 144.219Z" fill="#121214"/>
<path d="M270.08 141.145C272.532 141.283 274.962 141.69 277.325 142.358C279.704 142.965 282.008 143.833 284.194 144.947C281.741 144.811 279.311 144.404 276.949 143.734C274.571 143.124 272.267 142.256 270.08 141.145Z" fill="#121214"/>
</svg>
