<svg width="700" height="660" viewBox="0 0 700 660" fill="none" xmlns="http://www.w3.org/2000/svg">
<path d="M167.682 160.521L134.516 149.005C144.492 146.768 158.051 146.094 176.454 148.116C171.001 156.769 167.794 166.648 167.123 176.855L167.682 160.521ZM135.864 236.227C135.864 229.96 117.059 197.836 110.538 186.88L167.094 177.601C166.837 188.314 170.334 200.36 182.645 210.757L164.758 221.771C164.758 221.771 165.819 245.505 167.496 279.422C156.631 278.945 145.987 276.195 136.251 271.348C136.036 251.328 135.864 237.934 135.864 236.227ZM196.404 538.42C196.051 540.277 196.23 542.196 196.921 543.955C184.068 545.336 171.149 546.016 158.223 545.992C105.608 545.992 62.9395 535.365 62.9395 522.243C62.9395 511.086 93.7976 501.736 135.376 499.183C137.727 467.418 137.139 362.241 136.494 294.867C146.786 298.617 157.621 300.656 168.571 300.905C169.416 317.411 170.362 335.366 171.38 353.608C157.492 358.555 147.788 366.902 149.695 372.265C149.765 372.47 149.856 372.667 149.967 372.853L149.91 372.867C149.246 378.865 150.216 384.931 152.719 390.421C153.507 392.013 154.826 395.512 156.517 400.13L156.503 401.091C156.503 401.091 146.699 421.828 150.999 421.698C154.228 421.451 157.41 420.771 160.459 419.677C160.459 419.677 160.63 427.765 164.586 427.765C164.586 427.765 164.242 436.197 169.402 436.369C169.402 436.369 167.567 444.96 172.498 446.695H175.078L175.536 446.136C176.167 447.297 176.798 448.402 177.428 449.434V449.448C178.99 470.458 180.553 488.04 182.029 499.24C215.524 501.391 241.896 507.959 250.51 516.32C233.985 520.493 197.996 530.475 196.404 538.42Z" fill="#121214"/>
<path d="M136.445 295.002C122.418 290.004 109.541 282.229 98.5822 272.142C87.7031 261.915 78.7388 249.824 72.1122 236.44C65.4743 223.044 61.1568 208.619 59.3435 193.777C58.8279 190.082 58.5095 186.362 58.3894 182.633L58.2029 177.041C58.1576 175.177 58.2718 173.312 58.2985 171.448C58.5774 163.992 59.4408 156.569 60.881 149.248C63.812 134.603 69.2192 120.566 76.8697 107.741C84.4887 94.9387 94.348 83.6124 105.976 74.3037C117.626 65.0201 131.057 58.2311 145.438 54.3579C159.873 50.5598 174.961 49.9484 189.656 52.566C204.376 55.2755 218.346 61.104 230.629 69.6604C242.929 78.2131 253.486 89.0351 261.733 101.546C273.939 120.464 281.335 142.082 283.276 164.515C285.216 186.949 281.643 209.517 272.867 230.252C266.956 244.007 258.664 256.608 248.371 267.476C238.082 278.33 225.706 286.991 211.987 292.938C198.284 298.797 183.46 301.565 168.568 301.048L168.573 300.761C183.344 300.851 197.958 297.729 211.403 291.61C224.768 285.484 236.781 276.757 246.74 265.937C266.77 244.465 278.35 215.802 280.445 186.664C281.53 172.047 280.297 157.35 276.792 143.118C273.352 128.866 267.497 115.308 259.483 103.033C251.477 90.7405 241.266 80.0374 229.366 71.4642C217.422 62.8909 203.784 56.9735 189.366 54.1094C174.898 51.2612 159.978 51.6797 145.692 55.3342C131.395 59.0342 118.061 65.7685 106.595 75.08C100.859 79.6944 95.5796 84.8493 90.829 90.4739C86.1059 96.1117 81.8953 102.16 78.2473 108.547C70.959 121.323 65.8758 135.237 63.2115 149.705C61.8383 156.906 61.0321 164.204 60.8002 171.532C60.7849 173.364 60.6822 175.196 60.7377 177.027L60.9537 182.518C60.9872 186.186 61.4607 189.821 61.8405 193.465C63.5172 208.06 67.6584 222.265 74.0876 235.473C80.4644 248.726 89.1023 260.764 99.613 271.047C110.285 281.247 122.824 289.289 136.543 294.732L136.445 295.002Z" fill="#121214"/>
<path d="M136.315 271.22C137.695 271.347 139.057 271.62 140.379 272.037C141.027 272.221 141.667 272.417 142.289 272.657C142.924 272.865 143.539 273.133 144.124 273.456C145.271 274.193 146.461 274.862 147.686 275.459C148.957 275.933 150.294 276.204 151.649 276.263C152.998 276.31 154.343 276.427 155.681 276.611C157.007 276.77 158.332 276.885 159.637 277.131C162.317 277.614 164.949 278.332 167.502 279.279L167.49 279.565C164.786 280.299 161.965 280.502 159.184 280.161C157.815 279.968 156.463 279.669 155.139 279.268C153.8 278.899 152.499 278.401 151.255 277.783C150.029 277.164 148.739 276.681 147.408 276.342C146.086 276.01 144.645 276 143.287 275.697C141.952 275.342 140.676 274.796 139.496 274.077C138.269 273.381 137.154 272.504 136.188 271.476L136.315 271.22Z" fill="#121214"/>
<path d="M259.84 176.253C259.897 186.897 258.529 197.501 255.774 207.782C253.096 218.118 248.949 228.015 243.462 237.172L243.572 236.786L243.572 236.801L243.575 237.001L243.461 237.188C238.261 245.859 231.748 253.669 224.153 260.34C216.506 267.032 207.722 272.297 198.218 275.887C178.954 283.002 157.656 282.171 139.004 273.577C134.436 271.44 130.047 268.939 125.879 266.098C121.769 263.196 117.887 259.983 114.267 256.487C110.647 253.003 107.294 249.251 104.238 245.262C102.781 243.219 101.273 241.208 99.9196 239.096C98.6113 236.955 97.2097 234.87 96.0473 232.645C86.2534 214.982 81.1765 195.09 81.3071 174.891C81.3179 164.804 82.6119 154.76 85.1578 145C86.4142 140.11 88.0298 135.32 89.9913 130.668L91.4547 127.174C91.929 126.002 92.5549 124.9 93.0976 123.76L94.7871 120.365C95.3889 119.255 96.0454 118.173 96.6807 117.08C101.798 108.318 108.199 100.373 115.672 93.5116C123.189 86.6347 131.865 81.1457 141.297 77.2993C160.4 69.5336 181.789 69.5987 200.845 77.4805C210.202 81.455 218.799 87.0243 226.253 93.9405C233.629 100.853 239.907 108.852 244.867 117.663L244.97 117.843L244.967 118.029L244.967 118.043L244.867 117.677C249.895 126.574 253.689 136.113 256.145 146.034C258.659 155.908 259.901 166.063 259.84 176.253ZM259.554 176.253C259.502 166.103 258.152 156.001 255.539 146.193C252.872 136.425 248.862 127.074 243.626 118.409L243.529 118.25L243.526 118.043L243.526 118.029L243.625 118.395C238.489 109.911 232.106 102.248 224.692 95.6635C217.341 89.084 208.905 83.8301 199.76 80.1354C181.394 72.5975 160.801 72.5941 142.432 80.1259C133.292 83.7778 124.87 89.0193 117.556 95.608C110.235 102.23 103.949 109.913 98.9053 118.4C98.2811 119.465 97.6119 120.504 97.009 121.58L95.3046 124.869C94.7556 125.974 94.1238 127.041 93.6416 128.179L92.153 131.576C90.1526 136.104 88.4898 140.774 87.1782 145.548C84.5125 155.113 83.0747 164.98 82.8993 174.909C82.6886 184.86 83.7309 194.798 86.0017 204.488C88.3641 214.169 91.9979 223.493 96.8082 232.219C99.2404 236.56 101.982 240.72 105.011 244.668C108.069 248.587 111.419 252.27 115.031 255.685C118.636 259.098 122.524 262.199 126.653 264.954C130.806 267.651 135.168 270.011 139.697 272.011C158.017 279.843 178.637 280.369 197.332 273.483C215.876 266.73 231.472 253.033 242.222 236.414L242.111 236.801L242.112 236.787L242.115 236.568L242.222 236.4C247.911 227.484 252.281 217.791 255.197 207.623C258.041 197.408 259.507 186.858 259.554 176.253Z" fill="#121214"/>
<path d="M204.323 218.042C226.645 218.042 244.741 199.936 244.741 177.601C244.741 155.265 226.645 137.159 204.323 137.159C182 137.159 163.904 155.265 163.904 177.601C163.904 199.936 182 218.042 204.323 218.042Z" fill="#121214"/>
<path d="M406.236 116.742C403.87 118.744 401.933 121.203 400.539 123.972C399.124 126.725 398.079 129.654 397.432 132.682L396.976 134.955L396.694 137.258C396.45 138.787 396.496 140.345 396.391 141.885C396.37 143.43 396.461 144.979 396.489 146.523L396.942 151.143L396.951 151.236L396.935 151.329C395.711 158.328 394.489 165.362 393.795 172.401C393.605 174.13 393.537 175.871 393.59 177.61C393.733 179.343 394.001 181.065 394.39 182.76C395.159 186.182 396.258 189.521 397.671 192.73C400.357 199.182 404.644 204.841 410.127 209.171C415.704 213.319 422.455 215.584 429.404 215.64L430.014 215.649L430.343 216.178C435.647 224.708 440.901 233.253 445.948 241.958C447.2 244.145 448.449 246.324 449.618 248.594C449.91 249.162 450.21 249.717 450.477 250.334L450.888 251.239C451.025 251.618 451.147 252.065 451.251 252.479L451.27 252.559L451.268 252.781C451.265 252.927 451.24 253.072 451.194 253.21C451.12 253.45 450.996 253.671 450.831 253.86C450.624 254.092 450.377 254.285 450.102 254.429C449.742 254.616 449.364 254.763 448.972 254.869C448.318 255.049 447.654 255.19 446.984 255.292C441.873 256.033 436.918 256.237 431.943 256.756C427.002 257.182 422.095 257.934 417.254 259.009C414.876 259.55 412.547 260.289 410.293 261.219C408.083 262.182 406.008 263.429 404.118 264.926C396.432 270.942 390.784 279.404 385.608 287.875C380.438 296.415 375.822 305.314 371.419 314.31C369.184 318.793 367.056 323.329 364.946 327.876C362.795 332.402 360.78 336.994 358.728 341.567C350.691 359.939 342.995 378.46 335.64 397.131L335.493 397.506L335.103 397.412C328.084 395.716 321.142 393.79 314.227 391.749C307.316 389.699 300.44 387.535 293.599 385.258C286.76 382.977 279.968 380.558 273.223 377.999C266.466 375.474 259.804 372.7 253.164 369.874L253.493 369.948L210.145 369.167L210.961 367.259C212.317 368.767 213.442 370.466 214.301 372.303C215.165 374.082 215.845 375.944 216.33 377.86C217.282 381.674 217.631 385.613 217.363 389.534C217.094 393.421 216.391 397.266 215.266 400.996C214.08 404.743 212.652 408.183 211.849 411.757C210.899 415.185 210.9 418.807 211.851 422.235C212.379 423.767 213.385 425.089 214.721 426.006C216.045 426.886 217.631 427.286 219.214 427.139C219.98 427.08 220.623 426.736 220.503 426.671C220.739 426.178 221.014 425.706 221.328 425.259C221.571 424.907 221.796 424.543 222.001 424.167C222.744 422.568 223.269 420.876 223.562 419.136C224.281 415.513 224.696 411.754 225.064 408.005L225.137 407.263L225.784 406.887L237.976 399.798L238.849 399.291L239.659 399.93C257.029 413.638 274.744 427.06 293.368 438.961C298.046 441.89 302.762 444.771 307.629 447.305L311.283 449.197L315.018 450.839C315.643 451.104 316.261 451.403 316.89 451.64L318.796 452.248C320.055 452.705 321.348 453.065 322.662 453.324C327.877 454.57 333.3 454.666 338.556 453.605C341.119 452.953 343.584 451.96 345.884 450.652C348.165 449.26 350.28 447.612 352.19 445.742C354.121 443.821 355.927 441.777 357.597 439.624C359.333 437.515 360.918 435.285 362.342 432.953C365.283 428.292 368.072 423.485 370.873 418.704C376.438 409.109 381.964 399.486 387.451 389.834L420.149 331.803L420.302 331.532L420.508 331.758L425.265 336.975L425.056 337.171L420.182 332.062L420.54 332.017C410.144 351.639 399.623 371.196 388.979 390.686C383.632 400.419 378.302 410.162 372.798 419.814C370.033 424.638 367.296 429.463 364.358 434.22C362.91 436.64 361.295 438.956 359.526 441.152C357.814 443.403 355.958 445.541 353.972 447.553C351.932 449.589 349.668 451.385 347.221 452.906C344.707 454.372 342.006 455.49 339.191 456.229C333.546 457.44 327.705 457.404 322.076 456.123C320.666 455.854 319.28 455.475 317.93 454.989L315.871 454.333C315.204 454.083 314.569 453.778 313.916 453.504L310.029 451.803L306.287 449.876C301.304 447.294 296.534 444.392 291.801 441.442C282.375 435.484 273.259 429.096 264.272 422.543C255.294 415.973 246.456 409.244 237.785 402.251L239.468 402.383L227.238 409.406L227.957 408.288C227.563 412.091 227.128 415.889 226.35 419.712C225.996 421.718 225.367 423.666 224.482 425.5C223.953 426.49 223.307 427.247 223.037 427.864L222.969 427.998C222.903 428.124 222.83 428.247 222.751 428.365C222.614 428.57 222.447 428.753 222.255 428.907C221.964 429.146 221.638 429.338 221.289 429.478C220.723 429.71 220.127 429.855 219.518 429.91C217.287 430.121 215.052 429.552 213.194 428.3C211.377 427.05 210.009 425.251 209.29 423.166C208.171 419.245 208.157 415.091 209.252 411.163C209.703 409.266 210.266 407.396 210.936 405.564C211.608 403.722 212.156 402.021 212.774 400.243C213.86 396.704 214.563 393.058 214.871 389.368C215.164 385.706 214.883 382.022 214.038 378.447C213.612 376.676 213.006 374.954 212.231 373.306C211.497 371.69 210.537 370.186 209.381 368.84L207.617 366.855L210.198 366.932L253.533 368.216L253.707 368.221L253.862 368.289C260.442 371.18 267.05 374.018 273.755 376.621C280.44 379.271 287.185 381.768 293.989 384.112C300.778 386.493 307.621 388.711 314.519 390.766C321.408 392.834 328.341 394.791 335.315 396.509L334.778 396.79C342.291 378.182 349.689 359.525 357.687 341.113C361.657 331.894 365.671 322.691 369.993 313.621C374.269 304.533 378.768 295.533 383.861 286.832C386.393 282.455 389.149 278.212 392.118 274.121C395.118 269.961 398.665 266.227 402.665 263.018C404.705 261.391 406.946 260.034 409.334 258.982C411.711 257.986 414.168 257.192 416.678 256.607C421.623 255.483 426.638 254.688 431.689 254.228C436.683 253.68 441.761 253.433 446.583 252.78C447.153 252.697 447.717 252.581 448.273 252.434C448.488 252.379 448.697 252.303 448.897 252.207C448.959 252.176 448.981 252.144 448.916 252.215C448.857 252.288 448.813 252.371 448.786 252.461C448.768 252.526 448.756 252.593 448.749 252.66C448.748 252.696 448.751 252.731 448.757 252.766L448.742 252.733C448.667 252.552 448.604 252.365 448.553 252.176L448.189 251.367C447.963 250.83 447.67 250.279 447.392 249.73C446.277 247.534 445.045 245.352 443.817 243.18C438.852 234.499 433.646 225.92 428.406 217.383L429.344 217.921C421.932 217.811 414.745 215.348 408.822 210.888C403.109 206.284 398.678 200.286 395.955 193.471C394.541 190.134 393.455 186.668 392.711 183.12C391.858 179.56 391.698 175.868 392.238 172.247C393.052 165.111 394.34 158.099 395.769 151.099L395.762 151.285L395.414 146.577C395.422 145.002 395.369 143.428 395.429 141.857C395.572 140.287 395.565 138.708 395.849 137.155L396.193 134.819L396.714 132.514C397.446 129.449 398.581 126.494 400.089 123.727C401.576 120.94 403.612 118.483 406.075 116.505L406.236 116.742Z" fill="#121214"/>
<path d="M238.011 399.845C239.323 399.153 240.535 398.284 241.614 397.265C242.733 396.219 243.692 395.014 244.46 393.689C245.259 392.348 245.812 390.875 246.093 389.34C246.392 387.768 246.458 386.161 246.29 384.57C246.698 386.155 246.871 387.79 246.805 389.425C246.746 391.103 246.389 392.757 245.752 394.31C245.122 395.894 244.264 397.378 243.204 398.713C242.123 400.092 240.854 401.312 239.433 402.336L238.011 399.845ZM334.973 396.283C338.058 395.319 341.363 395.315 344.45 396.271C345.983 396.807 347.358 397.72 348.447 398.926C349.498 400.127 350.29 401.533 350.771 403.056C351.646 406.049 351.935 409.183 351.623 412.287C351.372 415.356 350.887 418.402 350.172 421.398C350.768 418.387 351.134 415.335 351.266 412.269C351.455 409.23 351.057 406.184 350.095 403.296C349.64 401.894 348.861 400.62 347.82 399.576C346.78 398.533 345.508 397.75 344.109 397.291C341.251 396.537 338.233 396.657 335.445 397.638L334.973 396.283ZM399.362 310.226C400.401 312.582 401.67 314.83 403.15 316.937C404.593 319.037 406.222 321.001 408.018 322.807C409.807 324.622 411.747 326.28 413.819 327.764C415.918 329.262 418.097 330.646 420.345 331.91C419.115 331.495 417.878 331.057 416.676 330.539C415.479 329.999 414.318 329.384 413.2 328.696C410.938 327.333 408.855 325.692 406.998 323.813C405.138 321.935 403.528 319.823 402.208 317.532C400.855 315.274 399.893 312.804 399.362 310.226Z" fill="#121214"/>
<path d="M582.876 329.329C575.652 291.64 534.375 226.59 504.448 238.98C474.521 251.371 485.357 296.287 485.357 296.287C485.357 296.287 485.873 345.849 458.01 346.366C430.148 346.882 442.489 254.54 442.489 254.54C442.489 254.54 439.951 244.659 429.632 250.339C419.312 256.018 422.666 276.41 426.02 298.61C429.374 320.81 426.02 331.91 426.02 331.91C411.429 389.833 445.111 406.253 447.691 408.792C449.052 410.125 458.096 427.593 466.309 443.726C484.411 434.032 493.885 426.833 494.129 425.872C494.644 423.807 497.225 331.91 497.225 331.91C497.225 331.91 472.988 267.748 506.598 253.264C512.335 250.902 518.669 250.401 524.707 251.831C530.745 253.262 536.181 256.552 540.251 261.238C555.472 278.404 581.758 314.127 572.04 347.398C572.04 347.398 563.785 360.821 549.338 351.528C549.338 351.528 542.802 437.574 541.426 454.095C540.05 470.616 514.567 480.353 514.567 480.353L519.412 481.629C555.013 473.885 603.515 481.629 603.515 481.629C601.967 477.499 590.1 367.017 582.876 329.329Z" fill="#121214"/>
<path d="M466.376 443.853C458.866 448.095 451.169 452.006 443.375 455.714C435.577 459.414 427.634 462.806 419.63 466.042C411.622 469.269 403.534 472.307 395.345 475.049C387.165 477.817 378.926 480.404 370.629 482.807L371.051 482.591L357.799 493.139L344.472 503.592L331.129 514.026L327.777 516.615C326.642 517.53 325.448 518.371 324.204 519.133C321.679 520.672 318.868 521.519 316.669 522.913C314.475 524.423 312.836 526.61 312.003 529.141L308.893 537C306.841 542.231 304.697 547.504 302.716 552.709C302.544 554.063 302.455 555.427 302.449 556.792L302.384 561.018L302.389 569.484C302.43 575.129 302.506 580.775 302.619 586.423L302.465 586.102C303.627 587.061 305.097 587.565 306.602 587.52C307.332 587.416 308.026 587.142 308.631 586.72C309.235 586.299 309.733 585.741 310.083 585.093C310.893 583.744 311.546 582.307 312.03 580.81C312.548 579.304 312.99 577.772 313.352 576.221C314.773 569.973 315.669 563.617 316.031 557.22L316.035 557.158L316.055 557.09L318.306 549.325L318.939 547.142L319.605 549.332C321.447 555.385 323.362 561.439 325.545 567.354C326.1 568.826 326.67 570.298 327.319 571.694C327.602 572.354 327.947 572.986 328.348 573.582C328.548 573.991 329.24 574.229 329.925 574.441C332.927 575.118 336.001 575.427 339.078 575.359L339.367 575.362L339.611 575.512L343.761 578.058L344.004 578.207L344.161 578.518C345.417 581.03 347.247 583.21 349.502 584.883C351.711 586.481 354.448 587.171 357.15 586.811C359.953 586.395 362.65 585.442 365.092 584.004C367.543 582.601 369.737 580.79 371.58 578.649L371.371 579.895C371.001 579.087 370.422 578.392 369.693 577.883C368.919 577.355 368.022 577.034 367.088 576.95C366.08 576.859 365.065 576.926 364.077 577.147C363.566 577.294 363.053 577.414 362.544 577.576L361.024 578.149L359.38 578.768L359.132 577.077L356.481 559.017L356.36 558.196L357.041 557.659C360.762 554.681 364.285 551.463 367.587 548.025C370.904 544.596 374.008 540.966 376.88 537.157C379.688 533.332 382.159 529.271 384.264 525.019C386.246 520.76 387.654 516.256 388.45 511.627L388.541 511.075L388.925 510.738C398.281 502.526 407.867 494.637 417.857 487.222C422.836 483.499 427.916 479.901 433.159 476.527C438.365 473.036 443.869 470.012 449.607 467.49L449.753 467.429L449.868 467.418C455.446 466.962 461.059 467.113 466.605 467.869C469.365 468.205 472.103 468.693 474.819 469.27C477.545 469.821 480.233 470.548 482.866 471.447C488.093 473.172 493.325 474.893 498.592 476.496C501.225 477.298 503.864 478.076 506.521 478.789C507.849 479.143 509.181 479.484 510.522 479.778C511.192 479.922 511.864 480.059 512.539 480.161C513.187 480.298 513.855 480.318 514.51 480.222L514.623 480.485C513.921 480.632 513.198 480.641 512.492 480.513C511.802 480.432 511.119 480.316 510.438 480.194C509.078 479.942 507.73 479.644 506.385 479.333C503.696 478.706 501.025 478.014 498.362 477.298C493.037 475.857 487.735 474.338 482.456 472.74C479.853 471.916 477.199 471.263 474.512 470.785C471.827 470.278 469.124 469.86 466.407 469.593C461.009 468.982 455.562 468.955 450.158 469.511L450.419 469.44C444.85 472.004 439.512 475.044 434.464 478.525C429.333 481.93 424.344 485.569 419.452 489.335C414.548 493.087 409.74 496.97 404.975 500.905C400.211 504.835 395.483 508.838 390.877 512.925L391.352 512.037C390.529 516.963 389.05 521.756 386.955 526.288C384.779 530.723 382.221 534.96 379.309 538.95C376.38 542.891 373.181 546.624 369.736 550.123C366.304 553.641 362.645 556.929 358.781 559.966L359.341 558.609L361.85 576.688L359.959 575.616L361.695 574.978C362.289 574.792 362.905 574.649 363.509 574.486C364.787 574.212 366.1 574.141 367.4 574.275C368.78 574.42 370.1 574.914 371.236 575.71C372.415 576.539 373.328 577.693 373.862 579.032L374.139 579.714L373.653 580.279C371.592 582.679 369.12 584.692 366.354 586.225C363.607 587.778 360.586 588.786 357.457 589.193C355.819 589.383 354.16 589.264 352.565 588.842C350.992 588.399 349.51 587.678 348.192 586.711C345.653 584.778 343.615 582.263 342.249 579.377L342.65 579.837L338.544 577.22L339.077 577.373C335.808 577.392 332.549 577.002 329.377 576.211C328.949 576.079 328.532 575.914 328.13 575.718C327.918 575.606 327.699 575.456 327.489 575.32C327.287 575.135 327.102 574.933 326.935 574.716C326.447 573.999 326.036 573.233 325.707 572.43C325.045 570.938 324.497 569.439 323.957 567.934C321.847 561.909 320.045 555.825 318.304 549.708L319.603 549.715L317.212 557.438L317.236 557.308C316.746 563.756 315.77 570.158 314.317 576.459C313.937 578.038 313.476 579.597 312.937 581.13C312.42 582.693 311.724 584.192 310.865 585.596C310.435 586.359 309.833 587.012 309.106 587.501C308.38 587.991 307.549 588.304 306.68 588.416C304.94 588.474 303.24 587.886 301.907 586.765L301.758 586.65L301.753 586.444L301.386 569.495L301.306 561.015L301.334 556.768C301.327 555.309 301.413 553.851 301.59 552.403C303.494 547.016 305.499 541.769 307.451 536.44L310.399 528.473C311.315 525.584 313.143 523.07 315.609 521.31C318.169 519.639 320.845 518.803 323.114 517.331C325.348 515.913 327.478 513.971 329.7 512.238L342.944 501.671L356.204 491.122L369.537 480.668L369.731 480.517L369.961 480.452C386.52 475.803 402.858 470.439 418.973 464.358C427.024 461.324 434.978 458.037 442.874 454.611C450.771 451.185 458.543 447.474 466.24 443.6L466.376 443.853ZM548.621 351.523C548.832 342.937 549.136 334.362 549.595 325.79C549.825 321.504 550.091 317.22 550.468 312.944C550.646 310.806 550.871 308.671 551.143 306.541C551.302 305.479 551.407 304.41 551.638 303.36C551.745 302.834 551.829 302.303 551.956 301.782L552.433 300.245L551.999 301.793C551.888 302.315 551.818 302.848 551.726 303.375C551.526 304.427 551.45 305.499 551.321 306.562C551.107 308.693 550.942 310.83 550.826 312.971C550.568 317.248 550.421 321.533 550.311 325.818C550.091 334.388 550.026 342.966 550.054 351.534L548.621 351.523ZM501.418 466.987C504.063 465.871 506.635 464.586 509.117 463.142C511.578 461.732 513.902 460.094 516.057 458.25C518.177 456.402 520.023 454.261 521.54 451.892C522.966 449.425 523.955 446.731 524.465 443.927C524.497 446.878 523.829 449.794 522.517 452.436C521.101 455.044 519.232 457.379 516.998 459.331C512.504 463.112 507.156 465.74 501.418 466.987ZM519.551 481.598C519.622 481.517 519.488 481.44 519.549 481.459L519.709 481.431L520.028 481.375L520.668 481.271L521.951 481.078L524.523 480.746C526.241 480.541 527.966 480.402 529.693 480.291C533.147 480.073 536.615 479.997 540.086 480.114C547.079 480.257 554.006 481.503 560.611 483.808C563.948 485.015 567.093 486.7 569.947 488.811C572.831 490.97 575.246 493.695 577.041 496.82C577.925 498.377 578.668 500.01 579.26 501.7C579.856 503.328 580.426 504.967 580.982 506.612C582.094 509.901 583.099 513.228 583.997 516.594C585.893 523.331 587.018 530.262 587.348 537.253C587.797 544.334 586.713 551.429 584.171 558.054C581.481 564.676 576.846 570.326 570.879 574.257C567.968 576.222 564.833 577.831 561.54 579.05C558.28 580.283 554.933 581.268 551.525 581.996L551.466 582.01H551.401L534.374 581.915C528.698 581.863 523.023 581.879 517.347 581.912L517.539 581.014C524.839 584.068 532.44 586.348 540.215 587.819C547.922 589.426 555.85 589.685 563.645 588.583C565.56 588.274 567.452 587.833 569.307 587.263C571.166 586.654 573.045 586.011 574.88 585.303C578.584 583.948 582.193 582.366 585.741 580.676C589.267 578.958 592.681 577.019 595.962 574.87C599.24 572.754 602.334 570.366 605.211 567.73C608.051 565.094 610.613 562.173 612.854 559.011C615.04 555.839 616.792 552.389 618.063 548.752C618.711 546.944 619.231 545.093 619.622 543.213C619.817 542.278 619.954 541.333 620.033 540.381C620.119 539.431 620.32 538.497 620.316 537.535C620.438 533.669 620.166 529.8 619.504 525.989C616.821 510.606 610.081 495.956 602.37 482.337L603.168 482.929C596.353 481.228 589.443 479.93 582.475 479.041C575.491 478.147 568.473 477.593 561.419 477.381C554.371 477.172 547.317 477.416 540.3 478.111L535.038 478.688C533.292 478.935 531.557 479.257 529.813 479.539L527.199 479.975L524.713 480.52C523.068 480.857 521.312 481.173 519.551 481.598ZM519.271 481.661C522.688 480.54 526.16 479.593 529.673 478.825C531.411 478.469 533.145 478.073 534.893 477.751L540.163 476.95C547.216 476.003 554.326 475.54 561.442 475.564C568.563 475.546 575.679 475.939 582.755 476.74C589.855 477.518 596.903 478.717 603.861 480.329L604.37 480.45L604.659 480.922C608.813 487.793 612.442 494.968 615.516 502.386C618.669 509.812 621.002 517.561 622.471 525.494C623.196 529.515 623.486 533.603 623.338 537.687C623.33 538.712 623.111 539.74 623.005 540.765C622.906 541.793 622.747 542.814 622.526 543.822C622.09 545.83 621.514 547.804 620.802 549.732C619.41 553.593 617.507 557.251 615.145 560.608C612.757 563.913 610.033 566.962 607.017 569.706C600.943 575.044 594.113 579.452 586.748 582.788C583.094 584.452 579.393 586.004 575.606 587.308C573.717 587.98 571.816 588.576 569.887 589.152C567.929 589.7 565.936 590.112 563.922 590.383C555.921 591.307 547.821 590.854 539.973 589.045C532.156 587.385 524.516 584.983 517.156 581.871L515.024 580.959L517.347 580.973C523.023 581.007 528.698 581.023 534.374 580.97L551.401 580.875L551.277 580.889C554.601 580.099 557.857 579.047 561.015 577.743C564.164 576.477 567.151 574.838 569.91 572.861C575.453 569 579.692 563.545 582.068 557.218C584.361 550.863 585.306 544.098 584.843 537.357C584.44 530.551 583.363 523.803 581.627 517.211C580.786 513.896 579.831 510.608 578.762 507.345C577.827 504.1 576.603 500.945 575.103 497.92C571.632 492.159 566.283 487.772 559.957 485.496C553.56 483.106 546.838 481.7 540.02 481.327C536.601 481.071 533.164 481.005 529.727 481.08C528.008 481.115 526.291 481.201 524.574 481.31L522 481.502L520.714 481.624L520.073 481.694L519.753 481.731L519.593 481.751C519.536 481.76 519.478 481.757 519.422 481.742C519.367 481.726 519.315 481.699 519.271 481.661ZM230.646 435.265C233.018 433.085 235.517 431.047 238.13 429.161C239.41 428.189 240.735 427.302 242.054 426.375C243.44 425.457 244.89 424.638 246.393 423.926C252.433 421.178 259.186 420.409 265.689 421.727C262.479 422.257 259.358 422.749 256.328 423.503C254.818 423.897 253.32 424.288 251.87 424.819C250.408 425.298 248.979 425.87 247.59 426.53C246.187 427.16 244.823 427.871 243.504 428.661C242.121 429.446 240.754 430.289 239.336 431.036C236.525 432.615 233.623 434.027 230.646 435.265Z" fill="#121214"/>
<path d="M301.903 562.639C294.926 566.317 287.439 568.931 279.69 570.393C271.925 571.944 263.988 572.456 256.088 571.916C248.202 571.309 240.416 569.761 232.897 567.305C225.353 565.014 218.072 561.936 211.171 558.122C207.698 556.23 204.472 553.915 201.567 551.23C200.116 549.86 198.838 548.318 197.76 546.638C196.632 544.937 195.94 542.984 195.745 540.952C195.645 539.91 195.744 538.858 196.039 537.853C196.421 536.856 197.031 535.963 197.819 535.243C199.286 533.87 200.919 532.685 202.679 531.716C206.125 529.792 209.691 528.09 213.353 526.62C228.01 520.998 243.037 516.395 258.327 512.842L258.271 515.798C254.973 514.804 251.758 513.551 248.658 512.05C245.568 510.587 242.589 508.899 239.745 507.001C234.001 503.258 228.89 498.623 224.603 493.271C222.466 490.598 220.584 487.732 218.979 484.709C218.154 483.213 217.435 481.662 216.826 480.067L215.845 477.709L215.011 475.32C213.881 472.131 212.978 468.866 212.309 465.549C211.571 462.228 211.457 458.799 211.972 455.436L212.256 455.478C212.035 458.795 212.397 462.126 213.324 465.319C214.211 468.525 215.282 471.677 216.532 474.76C218.915 480.914 222.28 486.641 226.497 491.716C230.793 496.692 235.8 501.005 241.357 504.515C244.124 506.286 247.002 507.877 249.973 509.279C252.905 510.705 255.944 511.901 259.061 512.855L259.098 512.866C259.42 512.963 259.702 513.163 259.898 513.436C260.095 513.709 260.196 514.039 260.185 514.375C260.174 514.711 260.053 515.034 259.84 515.294C259.626 515.554 259.333 515.736 259.005 515.812C251.428 517.566 243.842 519.401 236.338 521.495C228.823 523.554 221.357 525.787 214.028 528.374C210.368 529.642 206.798 531.158 203.344 532.912C201.64 533.761 200.048 534.819 198.604 536.06C197.911 536.625 197.372 537.356 197.037 538.185C196.772 539.058 196.675 539.974 196.751 540.883C196.907 542.763 197.525 544.576 198.549 546.16C199.542 547.8 200.766 549.289 202.181 550.582C205.077 553.15 208.278 555.351 211.713 557.135C218.676 560.574 225.987 563.259 233.52 565.145C240.969 567.223 248.58 568.669 256.272 569.469C271.783 570.702 287.366 568.276 301.769 562.386L301.903 562.639ZM355.813 443.726C362.636 443.793 369.452 444.215 376.232 444.993C379.632 445.305 382.998 445.848 386.382 446.284C389.75 446.816 393.118 447.357 396.473 447.967C403.176 449.223 409.85 450.639 416.451 452.355C423.072 454.006 429.603 455.999 436.018 458.325C422.599 455.87 409.307 453.207 395.955 450.787C389.29 449.52 382.607 448.367 375.921 447.201C369.236 446.006 362.527 444.98 355.813 443.726Z" fill="#121214"/>
<path d="M258.671 514.327C263.109 515.407 267.453 516.703 271.776 518.053C276.104 519.384 280.385 520.834 284.67 522.262L297.471 526.67C301.755 528.09 305.973 529.629 310.403 530.698C305.822 530.647 301.266 530.016 296.844 528.819C292.412 527.751 288.065 526.403 283.751 524.977C279.459 523.486 275.198 521.914 271.013 520.148C266.801 518.422 262.682 516.479 258.671 514.327ZM266.927 455.773C274.99 458.444 283.156 460.791 291.375 462.904C299.597 465.003 307.877 466.87 316.219 468.362C318.308 468.706 320.393 469.087 322.485 469.399L328.798 470.329C333.04 471.046 337.219 472.096 341.296 473.471C345.409 474.832 349.371 476.612 353.12 478.782C356.955 480.971 360.382 483.809 363.248 487.17L361.009 488.962C358.431 485.772 355.32 483.053 351.814 480.925C348.265 478.737 344.501 476.919 340.581 475.499C336.644 474.048 332.599 472.909 328.483 472.093L322.219 470.991C320.12 470.617 318.037 470.175 315.947 469.77C307.609 468.035 299.362 465.93 291.187 463.596C283.016 461.248 274.912 458.67 266.927 455.773ZM452.677 548.745C454.435 550.3 455.69 551.591 457.105 552.704C457.802 553.28 458.535 553.812 459.3 554.295C460.08 554.855 460.961 555.278 461.965 555.973C460.869 556.443 459.663 556.595 458.485 556.411C457.307 556.228 456.204 555.715 455.304 554.933C454.383 554.192 453.651 553.243 453.166 552.164C452.666 551.098 452.496 549.908 452.677 548.745Z" fill="#121214"/>
<path d="M417.491 555.872C420.164 553.003 422.825 550.12 425.423 547.193C426.715 545.725 427.996 544.242 429.189 542.716C429.764 541.874 430.43 541.097 431.175 540.4C431.96 539.718 432.833 539.146 433.771 538.699C437.502 537.07 441.579 536.395 445.636 536.734C449.609 537.057 453.537 537.802 457.352 538.956C464.947 540.974 472.473 543.189 480.005 545.4C487.525 547.672 495.055 549.812 502.502 552.498L508.032 554.625C509.963 555.37 511.788 556.368 513.457 557.592C515.134 558.889 516.521 560.523 517.529 562.388C518.537 564.254 519.144 566.31 519.31 568.424C519.684 572.449 519.394 576.508 518.453 580.439C518.138 582.499 517.359 584.461 516.176 586.176C514.986 587.848 513.527 589.312 511.86 590.508C508.564 592.77 504.945 594.523 501.127 595.705C497.376 596.94 493.538 597.895 489.646 598.563C485.766 599.244 481.854 599.722 477.924 599.996C476.941 600.067 475.958 600.124 474.963 600.145C474.527 600.151 474.097 600.247 473.7 600.427C473.303 600.608 472.948 600.869 472.657 601.194C471.339 602.577 470.246 604.159 469.419 605.882C467.674 609.366 466.214 612.985 465.054 616.705C463.846 620.407 462.871 624.181 462.133 628.004C461.937 628.863 461.918 629.752 462.077 630.618C462.32 631.424 462.806 632.135 463.467 632.654C465.224 633.774 466.691 635.293 467.75 637.088C467.977 637.604 468.143 638.145 468.245 638.699C468.282 638.972 468.297 639.245 468.322 639.519C468.363 639.822 468.359 640.131 468.31 640.433C468.263 640.778 468.16 641.114 468.006 641.426C467.839 641.718 467.632 641.985 467.393 642.221C466.961 642.64 466.454 642.974 465.898 643.206C463.947 643.931 461.89 644.328 459.809 644.381C451.828 644.788 443.977 643.743 436.278 643.892C435.323 643.902 434.433 644.019 433.263 643.997C432.126 643.973 431.003 643.737 429.953 643.3C427.887 642.375 426.184 640.794 425.107 638.803C424.116 636.992 423.332 635.076 422.769 633.091C422.529 632.233 422.229 631.392 421.871 630.576C421.829 630.473 421.68 630.37 421.939 630.569C422.027 630.611 422.12 630.644 422.216 630.666C422.262 630.674 422.309 630.675 422.356 630.669L422.252 630.668L421.838 630.659C421.291 630.636 420.747 630.581 420.207 630.494C419.078 630.33 417.986 629.975 416.976 629.443C415.845 628.851 414.924 627.924 414.34 626.788C413.799 625.658 413.59 624.396 413.738 623.152C413.849 622.112 414.026 621.081 414.27 620.065C415.2 616.112 416.476 612.446 417.32 608.697C417.765 606.846 418.108 604.972 418.347 603.083L418.491 601.675L418.724 600.075C418.919 599.054 419.174 598.045 419.486 597.053C420.753 593.259 422.285 589.559 424.071 585.981C427.478 578.866 431.435 571.993 434.725 565.048C435.027 564.476 435.1 563.81 434.927 563.186C434.662 562.521 434.211 561.946 433.629 561.529C432.157 560.488 430.518 559.708 428.782 559.221C425.109 558.144 421.334 557.452 417.518 557.155L418.325 556.903C414.117 560.022 409.463 562.489 404.521 564.22C399.593 565.83 394.505 566.897 389.346 567.405C384.218 567.866 379.059 567.884 373.927 567.459C368.812 567.067 363.736 566.264 358.749 565.059L358.818 564.781C363.82 565.753 368.891 566.322 373.984 566.483C379.056 566.655 384.133 566.447 389.174 565.862C394.175 565.212 399.091 564.021 403.835 562.31C408.5 560.521 412.886 558.074 416.86 555.043L417.233 554.76L417.666 554.791C421.68 555.025 425.659 555.678 429.538 556.741C431.595 557.282 433.541 558.18 435.288 559.394C436.31 560.125 437.095 561.14 437.545 562.314C437.952 563.588 437.865 564.969 437.301 566.182C435.68 569.869 433.803 573.307 432.009 576.798C430.202 580.276 428.408 583.748 426.732 587.259C425.027 590.708 423.564 594.273 422.356 597.927C422.082 598.806 421.859 599.701 421.688 600.606L421.499 601.919L421.35 603.438C421.109 605.443 420.751 607.433 420.278 609.397C419.352 613.296 418.009 617.048 417.108 620.726C416.884 621.615 416.717 622.517 416.608 623.427C416.501 624.138 416.601 624.866 416.896 625.522C417.307 626.161 417.862 626.695 418.517 627.08C419.172 627.466 419.908 627.692 420.666 627.741C421.093 627.815 421.525 627.863 421.958 627.886L422.278 627.896L422.359 627.899C422.466 627.904 422.573 627.917 422.679 627.936C422.897 627.968 423.106 628.043 423.295 628.157C423.728 628.422 424.075 628.805 424.296 629.262C424.737 630.237 425.097 631.247 425.372 632.282C425.858 634.08 426.541 635.819 427.411 637.466C428.184 638.972 429.433 640.18 430.964 640.902C431.727 641.226 432.543 641.407 433.371 641.435C434.16 641.474 435.227 641.379 436.232 641.382C444.221 641.404 451.999 642.532 459.711 642.349C461.557 642.356 463.392 642.068 465.148 641.495C465.915 641.162 466.506 640.729 466.547 640.162L466.581 639.935L466.562 639.612L466.523 638.967C466.457 638.554 466.345 638.151 466.189 637.763C465.589 636.187 463.996 635.177 462.431 633.793C461.567 633.056 460.947 632.073 460.654 630.975C460.466 629.906 460.503 628.809 460.761 627.755C461.603 623.891 462.686 620.084 464.004 616.355C465.239 612.6 466.76 608.945 468.554 605.424C469.446 603.612 470.619 601.955 472.031 600.513C472.423 600.149 472.861 599.838 473.334 599.59C473.591 599.473 473.859 599.38 474.134 599.314C474.404 599.27 474.678 599.247 474.952 599.246C475.917 599.234 476.893 599.186 477.865 599.125C481.759 598.838 485.633 598.327 489.468 597.593C493.3 596.888 497.074 595.9 500.76 594.637C504.42 593.411 507.867 591.624 510.978 589.34C512.507 588.269 513.801 586.896 514.779 585.306C515.757 583.716 516.4 581.942 516.667 580.093C517.451 576.354 517.619 572.512 517.164 568.718C517.043 567.794 516.773 566.909 516.565 566.015C516.28 565.157 515.918 564.325 515.483 563.532C514.655 561.938 513.463 560.562 512.004 559.514C509.131 557.333 505.276 556.304 501.645 554.867C486.882 549.885 471.819 545.323 456.803 540.945C453.14 539.719 449.358 538.886 445.519 538.459C441.736 538.031 437.906 538.546 434.37 539.959C433.525 540.333 432.73 540.81 432.002 541.379C431.288 541.993 430.644 542.685 430.082 543.442C428.79 544.951 427.44 546.379 426.077 547.797C423.35 550.63 420.548 553.377 417.694 556.074L417.491 555.872Z" fill="#121214"/>
<path d="M426.536 607.6C428.44 608.352 430.224 609.382 431.828 610.655C433.553 611.95 434.921 613.662 435.805 615.63C436.232 616.712 436.42 617.873 436.357 619.034C436.294 620.195 435.981 621.329 435.44 622.358C434.375 624.283 432.915 625.962 431.157 627.284L430.447 624.812C431.626 624.936 432.794 625.148 433.942 625.446C435.107 625.732 436.238 626.142 437.317 626.667C438.476 627.209 439.523 627.963 440.406 628.89C441.368 629.909 441.995 631.199 442.201 632.585L440.246 631.552C441.15 631.163 442.097 630.884 443.067 630.72C444.014 630.555 444.977 630.5 445.936 630.555C446.904 630.61 447.859 630.806 448.77 631.136C449.677 631.459 450.537 631.901 451.327 632.45L450.033 632.636C450.889 631.831 451.921 631.235 453.045 630.894C454.097 630.557 455.202 630.415 456.305 630.476C457.369 630.536 458.42 630.747 459.424 631.103C459.919 631.274 460.394 631.491 460.867 631.698L462.219 632.446L460.747 632.031C460.244 631.948 459.761 631.811 459.266 631.746C458.295 631.604 457.312 631.577 456.335 631.664C455.401 631.771 454.489 632.021 453.631 632.406C452.835 632.765 452.123 633.285 451.54 633.934L451.042 634.535L450.245 634.12C449.576 633.741 448.86 633.451 448.116 633.26C447.377 633.069 446.617 632.98 445.855 632.994C444.335 632.993 442.834 633.332 441.462 633.986L439.884 634.781L439.507 632.953C439.343 632.143 438.949 631.399 438.372 630.808C437.707 630.144 436.924 629.61 436.063 629.233C435.147 628.794 434.193 628.439 433.214 628.171C432.223 627.895 431.213 627.691 430.193 627.561L426.72 627.141L429.483 625.089C430.986 624.047 432.272 622.72 433.267 621.185C433.723 620.462 434.019 619.65 434.136 618.804C434.253 617.957 434.189 617.095 433.948 616.276C433.354 614.485 432.356 612.855 431.033 611.512C429.671 610.058 428.164 608.748 426.536 607.6ZM457.881 589.789C458.395 592.587 458.551 595.438 458.345 598.275C458.18 601.133 457.696 603.964 456.902 606.715C456.112 609.543 454.792 612.196 453.012 614.531C452.144 615.737 451.02 616.737 449.721 617.458C448.422 618.179 446.98 618.603 445.498 618.701C447.913 617.525 449.899 615.619 451.175 613.254C451.829 612.11 452.392 610.917 452.861 609.685C453.367 608.448 453.8 607.182 454.157 605.894C454.957 603.324 455.533 600.657 456.137 597.974C456.711 595.282 457.247 592.563 457.881 589.789ZM474.693 599.699C474.668 597.426 474.801 595.154 475.094 592.899C475.341 590.666 475.719 588.466 476.097 586.27C476.531 584.084 476.957 581.902 477.483 579.735C477.984 577.559 478.557 575.414 479.165 573.182C479.68 575.429 479.86 577.739 479.7 580.038C479.594 582.305 479.331 584.561 478.914 586.792C478.496 589.014 477.948 591.209 477.273 593.367C476.617 595.555 475.753 597.675 474.693 599.699ZM405.897 509.853C405.593 511.318 405.555 512.827 405.785 514.306C406.018 515.546 406.613 516.689 407.495 517.591C407.952 518.075 408.45 518.518 408.984 518.916C409.559 519.309 410.159 519.709 410.782 520.105C411.444 520.439 412.069 520.895 412.76 521.253C413.48 521.627 414.175 522.048 414.84 522.512C414.017 522.606 413.187 522.637 412.359 522.603C411.53 522.522 410.708 522.381 409.9 522.18C409.078 521.932 408.282 521.606 407.521 521.209C406.733 520.762 406.017 520.2 405.395 519.541C404.737 518.859 404.231 518.044 403.912 517.151C403.592 516.258 403.465 515.308 403.539 514.362C403.613 513.492 403.859 512.644 404.264 511.87C404.669 511.096 405.224 510.41 405.897 509.853ZM249.729 452.202C251.006 451.142 252.485 450.351 254.076 449.878C257.284 448.855 260.734 448.877 263.929 449.939C265.503 450.446 266.981 451.211 268.304 452.202C266.713 451.771 265.206 451.288 263.649 451.022C262.118 450.719 260.562 450.564 259.001 450.56C257.44 450.54 255.882 450.674 254.347 450.959C252.775 451.241 251.23 451.656 249.729 452.202Z" fill="#121214"/>
<path d="M207.468 554.663L224.274 548.745L208.634 557.283L207.468 554.663Z" fill="#121214"/>
<path d="M197.804 545.504L214.61 539.585L198.97 548.123L197.804 545.504Z" fill="#121214"/>
<path d="M224.104 562.892L235.135 558.793L225.421 565.44L224.104 562.892Z" fill="#121214"/>
<path d="M236.479 566.066L248.167 564.708L237.154 568.854L236.479 566.066Z" fill="#121214"/>
<path d="M318.241 549.583C318.086 546.082 318.333 542.575 318.977 539.131C319.295 537.406 319.853 535.734 320.633 534.163C320.991 533.363 321.506 532.643 322.149 532.048C322.792 531.453 323.548 530.993 324.373 530.698C323.588 531.039 322.881 531.535 322.293 532.158C321.705 532.78 321.25 533.515 320.955 534.319C320.304 535.896 319.876 537.555 319.684 539.25C319.291 542.641 319.285 546.065 319.669 549.457L318.241 549.583ZM337.741 576.882C336.72 573.827 335.843 570.793 335.044 567.708C334.253 564.63 333.556 561.525 333.036 558.385C332.468 555.248 332.189 552.065 332.201 548.877C332.212 547.277 332.412 545.685 332.797 544.133C333.141 542.565 333.988 541.152 335.208 540.109C334.091 541.215 333.366 542.657 333.145 544.214C332.886 545.75 332.81 547.311 332.918 548.865C333.142 551.982 333.652 555.072 334.439 558.096C335.182 561.134 336.099 564.13 337.105 567.094C338.113 570.049 339.217 573.003 340.415 575.849L337.741 576.882Z" fill="#121214"/>
<path d="M341.772 578.948L343.206 555.973L344.64 578.948H341.772Z" fill="#121214"/>
<path d="M149.967 372.854C151.401 374.203 153.16 375.157 155.073 375.625C156.963 376.077 158.913 376.229 160.851 376.073C162.796 375.985 164.73 375.724 166.63 375.295C168.528 374.906 170.398 374.389 172.227 373.748L172.313 373.722C174.912 372.773 177.588 372.104 180.122 370.995C182.659 369.941 185.136 368.748 187.542 367.421C189.914 366.098 192.163 364.565 194.262 362.841C196.291 361.299 197.883 359.254 198.882 356.909C199.066 356.437 199.134 355.929 199.08 355.426C199.026 354.923 198.851 354.44 198.571 354.019C197.844 353.112 196.856 352.45 195.74 352.125C193.194 351.295 190.52 350.931 187.845 351.048C182.271 351.209 176.74 352.069 171.38 353.608C176.566 351.262 182.097 349.771 187.759 349.193C190.695 348.863 193.667 349.094 196.517 349.873C198.132 350.295 199.57 351.219 200.624 352.514C201.156 353.243 201.51 354.086 201.658 354.977C201.806 355.867 201.743 356.78 201.475 357.642C201.019 359.168 200.248 360.582 199.214 361.793C198.272 362.949 197.229 364.02 196.098 364.992C193.882 366.871 191.472 368.508 188.908 369.875C186.39 371.252 183.776 372.448 181.088 373.453C179.746 373.949 178.397 374.419 177.011 374.784L172.884 375.943L172.969 375.917C170.999 376.487 168.992 376.917 166.962 377.204C164.939 377.49 162.894 377.598 160.852 377.525C158.798 377.466 156.767 377.077 154.836 376.375C152.907 375.697 151.215 374.474 149.967 372.854Z" fill="#121214"/>
<path d="M200.532 355.314C201.909 355.655 203.177 356.338 204.219 357.3C205.29 358.213 206.265 359.233 207.129 360.344C207.996 361.437 208.786 362.588 209.495 363.789C210.233 364.968 210.827 366.219 211.449 367.453L211.165 367.047L211.18 367.061L211.39 367.264L211.516 367.596C212.057 369.02 212.492 370.481 212.985 371.922C213.436 373.377 213.879 374.835 214.281 376.308C214.685 377.779 215.053 379.264 215.385 380.761C215.698 382.264 216.014 383.767 216.198 385.316C215.378 383.989 214.692 382.616 214 381.244C213.329 379.866 212.694 378.475 212.095 377.071C211.493 375.669 210.933 374.251 210.381 372.831C209.871 371.397 209.303 369.982 208.84 368.531L209.176 369.066L209.163 369.051L208.973 368.856L208.879 368.645C208.336 367.434 207.742 366.252 207.183 365.053C206.599 363.868 205.983 362.704 205.35 361.549C204.707 360.402 204.006 359.287 203.25 358.211C202.518 357.096 201.598 356.116 200.532 355.314ZM174.947 365.456C174.445 365.456 173.958 365.28 173.572 364.958C173.186 364.636 172.924 364.189 172.833 363.694C172.742 363.199 172.828 362.688 173.074 362.25C173.32 361.812 173.713 361.473 174.182 361.294L191.518 354.681C192.051 354.479 192.641 354.498 193.161 354.731C193.68 354.965 194.085 355.395 194.288 355.927C194.49 356.46 194.474 357.051 194.241 357.571C194.009 358.091 193.58 358.497 193.049 358.701L175.713 365.315C175.468 365.408 175.209 365.456 174.947 365.456ZM488.108 207.66L490.536 216.72C491.4 219.683 492.262 222.627 493.395 225.435C494.428 228.245 495.808 230.915 497.503 233.383C499.235 235.875 501.645 237.817 504.447 238.981C502.798 238.905 501.182 238.498 499.695 237.784C498.207 237.069 496.879 236.062 495.79 234.822C493.588 232.388 491.869 229.556 490.727 226.477C489.586 223.477 488.79 220.357 488.355 217.177C487.878 214.027 487.795 210.83 488.108 207.66Z" fill="#121214"/>
<path d="M406.929 106.814C406.929 106.814 398.33 121.614 408.993 116.623C419.657 111.633 422.409 130.563 465.406 120.237C465.406 120.237 469.534 181.502 484.669 164.637C499.805 147.772 509.092 161.883 505.996 170.488C502.9 179.093 486.733 181.846 484.669 184.255C482.605 186.665 478.134 213.511 491.549 209.037C504.964 204.562 513.22 185.632 517.348 166.358C517.348 166.358 525.603 156.377 544.866 171.176C564.129 185.976 626.734 197.678 643.245 168.079C659.756 138.479 679.707 127.465 682.803 129.874C682.803 129.874 636.366 120.581 620.198 138.135C604.031 155.688 556.562 132.972 554.842 130.563C553.122 128.153 539.363 124.367 521.132 136.414C521.132 136.414 511.156 90.6375 467.126 89.605C423.096 88.5724 406.929 106.814 406.929 106.814ZM429.439 215.348C431.168 215.497 432.905 215.526 434.639 215.436C436.404 215.349 438.162 215.153 439.903 214.85C441.657 214.552 443.385 214.121 445.073 213.561C446.778 212.999 448.431 212.291 450.015 211.446C448.54 212.504 446.977 213.434 445.344 214.226C443.697 215.026 441.992 215.701 440.244 216.243C438.487 216.796 436.698 217.24 434.887 217.573C433.045 217.917 431.181 218.131 429.31 218.213L429.439 215.348ZM396.289 136.842C397.068 135.868 398.021 135.046 399.099 134.418C400.141 133.794 401.261 133.312 402.43 132.984C403.629 132.634 404.879 132.492 406.126 132.565C407.452 132.57 408.725 133.086 409.681 134.005C408.545 134.161 407.427 134.431 406.345 134.81L403.197 135.747C402.13 136.046 401.037 136.306 399.902 136.517C398.712 136.748 397.501 136.857 396.289 136.842Z" fill="#121214"/>
<path d="M426.535 133.616C429.137 132.614 431.849 131.925 434.614 131.564C437.377 131.155 440.172 131.012 442.962 131.137C445.786 131.236 448.584 131.712 451.283 132.552C454.027 133.331 456.523 134.809 458.526 136.842C456.032 135.825 453.425 135.115 450.76 134.728C448.133 134.329 445.484 134.086 442.827 134C437.483 133.702 432.104 133.866 426.535 133.616ZM407.444 182.19C408.542 184.422 410.015 186.449 411.798 188.182C412.557 188.87 413.505 189.313 414.519 189.453C415.527 189.502 416.527 189.264 417.405 188.767C419.634 187.657 421.802 186.405 423.966 185.099C426.127 183.78 428.268 182.403 430.491 180.986C429.075 183.22 427.318 185.218 425.283 186.908C423.27 188.637 421.058 190.121 418.694 191.327C417.289 192.056 415.694 192.337 414.125 192.132C412.584 191.811 411.202 190.969 410.21 189.746C408.501 187.59 407.532 184.941 407.444 182.19ZM414.668 136.842C416.005 139.729 416.707 142.87 416.724 146.053C416.769 147.812 416.338 149.551 415.478 151.087C415.221 151.473 414.937 151.841 414.629 152.187L413.878 153.021C413.386 153.578 412.914 154.141 412.477 154.72C410.616 156.841 409.373 159.433 408.884 162.212C408.632 165.148 409.269 168.092 410.712 170.66C408.884 169.053 407.57 166.942 406.935 164.591C406.751 163.768 406.656 162.928 406.651 162.085C406.655 160.388 407.002 158.709 407.671 157.149C408.35 155.65 409.208 154.238 410.227 152.946C410.733 152.315 411.266 151.716 411.806 151.139L412.621 150.286C412.935 149.979 412.989 149.819 413.217 149.598C413.924 148.473 414.364 147.201 414.502 145.879C414.83 142.878 414.886 139.853 414.668 136.842ZM394.998 158.603C396.904 157.573 398.987 156.915 401.138 156.661C402.155 156.516 403.167 156.432 404.191 156.389C405.228 156.351 406.239 156.374 407.444 156.377C406.777 157.357 405.839 158.121 404.744 158.575C403.73 159.04 402.651 159.352 401.545 159.5C400.459 159.656 399.358 159.673 398.267 159.55C397.129 159.437 396.021 159.116 394.998 158.603ZM430.491 150.87C432.779 151.202 434.977 151.397 437.181 151.619C439.384 151.812 441.577 152.018 443.781 152.174C445.978 152.401 448.19 152.522 450.411 152.787C452.673 152.981 454.923 153.303 457.15 153.751C454.952 154.424 452.686 154.852 450.393 155.026C448.113 155.214 445.82 155.216 443.539 155.03C441.246 154.844 438.976 154.435 436.762 153.808C434.506 153.23 432.379 152.233 430.491 150.87ZM82.4153 192.211L82.3224 191.472C81.6912 186.424 81.3736 181.341 81.3714 176.253C81.3159 161.56 84.026 146.988 89.3601 133.299L89.612 132.658L134.751 148.328L134.282 149.683L90.4448 134.465C85.3419 147.803 82.7513 161.971 82.8041 176.253C82.8065 181.032 83.0904 185.808 83.6543 190.554L110.423 186.173L110.653 187.587L82.4153 192.211ZM208.289 169.687L191.033 163.956L201.601 78.5687L202.481 78.9531C219.745 86.4958 234.401 99.8815 244.865 117.666L244.964 117.834V118.274L244.83 118.459L208.289 169.687ZM192.602 162.966L207.738 167.992L243.397 118.001C233.283 100.976 219.264 88.0885 202.787 80.6576L192.602 162.966ZM202.354 273.63L197.045 196.54L214.008 189.987L243.56 236.579V237.006L243.451 237.181C233.925 252.903 219.948 265.441 203.292 273.206L202.354 273.63ZM198.547 197.498L203.641 271.468C219.492 263.84 232.81 251.802 242.001 236.796L213.428 191.748L198.547 197.498ZM17.9062 149.551C19.1827 128.041 24.4494 106.957 33.4372 87.3761C42.2898 67.5247 56.0993 50.2868 73.5371 37.3211L76.8941 35.0301C77.9921 34.237 79.1314 33.5026 80.3071 32.8302L87.387 28.8441C89.8273 27.6759 92.3098 26.5921 94.7691 25.4642L96.6174 24.6265C97.2444 24.3752 97.89 24.1696 98.5253 23.9389L102.351 22.5915L106.177 21.2458C107.464 20.835 108.788 20.5514 110.091 20.1982C112.713 19.5527 115.31 18.7882 117.951 18.244C123.242 17.1902 128.592 16.4602 133.971 16.0582L137.999 15.745C139.337 15.6063 140.682 15.5353 142.028 15.5323L150.097 15.5296C151.441 15.5426 152.786 15.4993 154.127 15.5587L158.146 15.8505L166.179 16.4401C171.509 17.0482 176.8 17.9753 182.101 18.7263C187.347 19.8216 192.577 20.9803 197.795 22.1452L181.98 19.4766C176.663 18.9414 171.37 18.2313 166.056 17.841L158.071 17.4629L154.082 17.2711C152.752 17.2447 151.421 17.3211 150.091 17.3412L142.115 17.5393C140.787 17.5746 139.461 17.6774 138.143 17.8473L134.18 18.2545C128.872 18.6157 123.691 19.8078 118.463 20.6704C115.875 21.226 113.336 21.9984 110.772 22.6505C109.498 23.0066 108.202 23.2937 106.946 23.7064L103.214 25.0553L99.4822 26.4022C98.863 26.6326 98.2332 26.8378 97.6224 27.0883L95.8236 27.9229C93.4312 29.0461 91.0157 30.122 88.643 31.2799L81.7706 35.2238C79.4928 36.5577 77.4031 38.1902 75.2052 39.6497C66.604 45.8188 58.8913 53.142 52.2839 61.4135C45.6959 69.7376 40.0407 78.7599 35.4198 88.3184C30.7717 97.905 26.9874 107.887 24.1118 118.147C21.1391 128.415 19.0628 138.923 17.9062 149.551Z" fill="#121214"/>
<path d="M68.366 73.1836C80.4161 59.3634 95.0739 48.0589 111.499 39.9182C119.729 35.8021 128.425 32.6921 137.398 30.6552C146.402 28.6424 155.632 27.8278 164.85 28.2324C174.068 28.634 183.188 30.2916 191.959 33.1593C200.714 35.9642 209.109 39.7905 216.971 44.5593C224.822 49.2595 232.269 54.6049 239.235 60.54C242.659 63.5579 245.933 66.7433 249.28 69.8298C252.435 73.1215 255.558 76.4359 258.649 79.773C255.326 76.6573 252.029 73.527 248.758 70.3819C245.275 67.464 241.876 64.4554 238.341 61.6246C231.279 55.9663 223.764 50.8984 215.872 46.4721L212.916 44.8267L211.439 44.0039L209.908 43.2888L203.792 40.4185C202.782 39.9222 201.742 39.4883 200.679 39.1192L197.523 37.9275L194.369 36.7353C193.323 36.3222 192.219 36.0847 191.147 35.7507C182.587 33.0199 173.698 31.4541 164.719 31.0956C146.677 30.3991 128.735 34.1074 112.445 41.9001C96.0364 49.668 81.1172 60.2563 68.366 73.1836ZM17.9069 170.66C18.3162 177.092 18.8713 183.479 19.5722 189.823C19.93 192.997 20.3196 196.164 20.7951 199.315L21.5091 204.039L22.3841 208.73C22.6231 210.305 23.0281 211.841 23.3453 213.398C23.6669 214.955 24.0231 216.503 24.4514 218.03C24.8603 219.561 25.2098 221.115 25.6679 222.632C26.1631 224.136 26.6346 225.65 27.0975 227.17C29.1298 233.217 31.8153 239.024 35.1063 244.487C30.8311 239.586 27.4151 233.997 25.0028 227.955C22.591 221.918 20.7717 215.661 19.5706 209.271C18.3674 202.908 17.6255 196.467 17.3507 189.997C17.0073 183.547 17.1934 177.08 17.9069 170.66ZM204.173 315.269C210.098 312.741 215.933 310.091 221.678 307.319C224.55 305.924 227.406 304.503 230.217 303.005L234.431 300.759L238.561 298.372C239.966 297.622 241.278 296.729 242.64 295.911C244.001 295.09 245.341 294.238 246.637 293.326C247.944 292.43 249.292 291.583 250.569 290.646C251.822 289.678 253.091 288.729 254.37 287.787C259.392 283.856 263.97 279.39 268.024 274.466C264.828 280.131 260.698 285.215 255.807 289.501C250.921 293.787 245.629 297.586 240.007 300.846C234.411 304.099 228.587 306.944 222.582 309.357C216.617 311.827 210.46 313.805 204.173 315.269ZM295.845 132.488C297.493 128.968 300.424 126.212 304.038 124.784C307.685 123.445 311.609 123.035 315.454 123.594C323.043 124.578 330.391 126.649 337.795 128.098C339.627 128.484 341.478 128.778 343.34 128.979C345.147 129.228 346.984 129.165 348.769 128.793C349.184 128.672 349.592 128.528 349.991 128.362C350.378 128.184 350.698 127.911 351.062 127.699C351.474 127.419 351.892 127.086 352.333 126.83C352.788 126.593 353.26 126.39 353.745 126.221C355.66 125.674 357.673 125.561 359.638 125.89C363.408 126.544 367.116 127.517 370.722 128.798L381.496 132.487C377.809 131.575 374.173 130.471 370.516 129.471C366.923 128.338 363.243 127.507 359.512 126.986C357.713 126.759 355.885 126.898 354.141 127.396C353.733 127.545 353.335 127.721 352.95 127.923C352.578 128.15 352.254 128.42 351.882 128.671C351.458 128.983 351.013 129.268 350.552 129.523C350.08 129.73 349.595 129.907 349.101 130.055C347.171 130.49 345.18 130.588 343.216 130.344C341.303 130.162 339.401 129.881 337.516 129.503C330.055 127.918 322.746 125.882 315.305 124.682C311.627 124.019 307.842 124.278 304.288 125.437C300.698 126.659 297.689 129.172 295.845 132.488ZM268.385 160.703C270.034 157.183 272.965 154.427 276.579 153C280.226 151.66 284.149 151.251 287.994 151.81C295.583 152.793 302.931 154.865 310.335 156.314C312.168 156.7 314.019 156.994 315.881 157.195C317.688 157.444 319.524 157.381 321.31 157.009C321.725 156.887 322.133 156.744 322.532 156.578C322.919 156.4 323.238 156.127 323.602 155.914C324.014 155.634 324.433 155.302 324.873 155.045C325.328 154.809 325.8 154.606 326.285 154.437C328.201 153.89 330.214 153.777 332.178 154.106C335.948 154.76 339.656 155.733 343.262 157.014L354.037 160.703C350.35 159.791 346.713 158.687 343.056 157.686C339.463 156.554 335.783 155.723 332.053 155.202C330.253 154.974 328.426 155.114 326.682 155.612C326.273 155.76 325.875 155.936 325.491 156.139C325.119 156.365 324.795 156.635 324.423 156.887C323.998 157.199 323.553 157.484 323.092 157.739C322.62 157.945 322.136 158.123 321.642 158.271C319.711 158.706 317.72 158.803 315.757 158.56C313.843 158.378 311.941 158.097 310.057 157.719C302.595 156.134 295.287 154.097 287.846 152.898C284.168 152.235 280.382 152.494 276.829 153.653C273.238 154.875 270.23 157.388 268.385 160.703ZM303.467 188.919C305.116 185.399 308.047 182.643 311.66 181.216C315.308 179.876 319.231 179.467 323.076 180.026C330.665 181.009 338.013 183.081 345.417 184.529C347.25 184.916 349.1 185.21 350.962 185.41C352.769 185.659 354.606 185.596 356.392 185.224C356.806 185.103 357.214 184.959 357.614 184.794C358 184.616 358.32 184.343 358.684 184.13C359.096 183.85 359.515 183.518 359.955 183.261C360.41 183.024 360.882 182.821 361.367 182.653C363.282 182.106 365.296 181.993 367.26 182.322C371.03 182.976 374.738 183.949 378.344 185.23L389.119 188.919C385.432 188.006 381.795 186.903 378.138 185.902C374.545 184.77 370.865 183.939 367.135 183.418C365.335 183.19 363.508 183.329 361.763 183.828C361.355 183.976 360.957 184.152 360.572 184.355C360.2 184.581 359.876 184.851 359.505 185.102C359.08 185.415 358.635 185.699 358.174 185.954C357.702 186.161 357.217 186.339 356.724 186.486C354.793 186.921 352.802 187.019 350.838 186.775C348.925 186.593 347.023 186.313 345.139 185.935C337.677 184.349 330.369 182.313 322.928 181.114C319.249 180.451 315.464 180.71 311.91 181.868C308.32 183.091 305.312 185.603 303.467 188.919ZM274.615 209.538C276.263 206.018 279.195 203.263 282.808 201.835C286.455 200.495 290.379 200.086 294.224 200.645C301.814 201.629 309.161 203.7 316.565 205.149C318.397 205.535 320.248 205.829 322.111 206.03C323.917 206.279 325.754 206.216 327.539 205.844C327.954 205.723 328.362 205.579 328.761 205.413C329.148 205.235 329.468 204.962 329.832 204.75C330.244 204.47 330.663 204.137 331.103 203.88C331.558 203.644 332.03 203.441 332.515 203.272C334.43 202.725 336.444 202.612 338.408 202.941C342.178 203.595 345.886 204.568 349.492 205.849L360.266 209.538C356.58 208.625 352.943 207.522 349.286 206.522C345.693 205.389 342.013 204.558 338.283 204.037C336.483 203.809 334.656 203.949 332.911 204.447C332.503 204.595 332.105 204.771 331.72 204.974C331.348 205.201 331.024 205.47 330.652 205.722C330.228 206.034 329.783 206.319 329.322 206.574C328.85 206.78 328.365 206.958 327.871 207.106C325.941 207.541 323.95 207.639 321.986 207.395C320.073 207.213 318.171 206.932 316.286 206.554C308.825 204.969 301.516 202.932 294.076 201.733C290.397 201.07 286.612 201.329 283.058 202.488C279.468 203.71 276.459 206.223 274.615 209.538ZM317.441 231.973C319.089 228.454 322.02 225.698 325.634 224.27C329.281 222.931 333.205 222.522 337.05 223.08C344.639 224.064 351.987 226.135 359.391 227.584C361.223 227.97 363.074 228.264 364.936 228.465C366.743 228.714 368.579 228.651 370.365 228.279C370.78 228.158 371.188 228.014 371.587 227.848C371.974 227.671 372.294 227.397 372.658 227.185C373.07 226.905 373.488 226.572 373.929 226.315C374.384 226.079 374.856 225.876 375.34 225.708C377.256 225.161 379.269 225.047 381.234 225.376C385.004 226.031 388.712 227.003 392.317 228.285L403.092 231.973C399.405 231.061 395.769 229.957 392.111 228.956C388.519 227.825 384.838 226.994 381.108 226.472C379.309 226.244 377.481 226.384 375.737 226.882C375.328 227.03 374.93 227.207 374.546 227.409C374.174 227.636 373.85 227.906 373.478 228.157C373.054 228.47 372.609 228.754 372.147 229.009C371.675 229.216 371.191 229.393 370.697 229.541C368.767 229.976 366.776 230.074 364.812 229.83C362.899 229.648 360.996 229.367 359.112 228.989C351.65 227.404 344.342 225.367 336.901 224.168C333.223 223.505 329.438 223.765 325.884 224.923C322.294 226.145 319.285 228.658 317.441 231.973ZM244.247 250.488C245.896 246.969 248.827 244.213 252.441 242.785C256.088 241.446 260.011 241.037 263.856 241.595C271.446 242.579 278.793 244.651 286.198 246.099C288.03 246.485 289.881 246.779 291.743 246.98C293.55 247.229 295.386 247.166 297.172 246.794C297.587 246.673 297.995 246.529 298.394 246.363C298.781 246.186 299.1 245.912 299.464 245.7C299.877 245.42 300.295 245.087 300.735 244.831C301.191 244.594 301.663 244.391 302.147 244.223C304.063 243.676 306.076 243.562 308.041 243.891C311.811 244.546 315.519 245.519 319.124 246.8L329.899 250.488C326.212 249.576 322.575 248.472 318.918 247.472C315.326 246.34 311.645 245.509 307.915 244.987C306.115 244.76 304.288 244.899 302.544 245.397C302.135 245.545 301.737 245.722 301.353 245.925C300.981 246.151 300.657 246.421 300.285 246.672C299.86 246.985 299.416 247.269 298.954 247.524C298.482 247.731 297.998 247.908 297.504 248.056C295.574 248.491 293.583 248.589 291.619 248.345C289.706 248.163 287.803 247.882 285.919 247.504C278.457 245.919 271.149 243.883 263.708 242.683C260.03 242.02 256.245 242.279 252.691 243.438C249.101 244.661 246.092 247.173 244.247 250.488ZM282.35 274.621C283.998 271.101 286.929 268.345 290.543 266.918C294.19 265.578 298.114 265.169 301.959 265.727C309.548 266.711 316.896 268.782 324.299 270.231C326.132 270.618 327.983 270.912 329.845 271.112C331.652 271.361 333.488 271.298 335.274 270.926C335.689 270.805 336.097 270.661 336.496 270.496C336.883 270.318 337.203 270.045 337.567 269.832C337.979 269.552 338.397 269.22 338.838 268.963C339.293 268.726 339.765 268.523 340.25 268.355C342.165 267.808 344.178 267.694 346.143 268.024C349.913 268.678 353.621 269.651 357.227 270.932L368.002 274.621C364.315 273.708 360.678 272.605 357.021 271.604C353.428 270.472 349.748 269.641 346.018 269.119C344.218 268.892 342.391 269.031 340.646 269.53C340.238 269.678 339.84 269.854 339.455 270.057C339.083 270.283 338.759 270.553 338.387 270.804C337.963 271.117 337.518 271.401 337.057 271.656C336.585 271.863 336.1 272.041 335.607 272.188C333.676 272.623 331.685 272.721 329.721 272.478C327.808 272.295 325.906 272.015 324.021 271.637C316.56 270.051 309.252 268.015 301.81 266.815C298.132 266.153 294.347 266.412 290.793 267.57C287.203 268.793 284.194 271.305 282.35 274.621ZM159.367 407.944C159.367 407.944 175.451 406.77 198.67 394.895L205.549 410.211C205.549 410.211 180.918 427.084 165.5 424.072L159.367 407.944Z" fill="#121214"/>
<path d="M156.519 400.13C157.903 404.048 159.5 407.873 161.151 411.678L166.21 423.041C167.919 426.819 169.657 430.584 171.424 434.336L176.718 445.587L176.667 445.487L178.595 448.765L178.77 449.061L178.774 449.434L178.774 449.448L178.576 448.746C179.91 450.952 181.454 453.023 183.187 454.931C183.977 455.802 184.91 456.532 185.945 457.091C186.369 457.32 186.837 457.454 187.318 457.484C187.827 457.51 188.609 457.486 189.241 457.49C194.49 457.619 199.739 457.19 204.898 456.211C209.978 455.148 214.808 453.122 219.127 450.242C223.449 447.279 227.262 443.633 230.416 439.447L230.242 440.049C229.959 435.562 229.369 431.037 228.702 426.55C228.021 422.055 227.059 417.607 225.945 413.18C226.706 415.329 227.469 417.489 228.067 419.695C228.697 421.894 229.264 424.11 229.77 426.345C230.808 430.818 231.571 435.351 232.054 439.918L232.088 440.229L231.881 440.52C228.788 445.05 224.951 449.022 220.533 452.27C216.011 455.465 210.897 457.726 205.491 458.919C200.147 460.001 194.697 460.476 189.246 460.335C188.542 460.324 187.985 460.35 187.16 460.31C186.302 460.254 185.465 460.018 184.704 459.618C183.378 458.909 182.185 457.975 181.178 456.859C179.311 454.805 177.67 452.556 176.283 450.151L176.081 449.815L176.086 449.448V449.434L176.264 450.103L174.409 446.784L174.375 446.723L174.357 446.684C170.923 439.104 167.749 431.424 164.643 423.709C163.073 419.86 161.601 415.971 160.225 412.042C158.784 408.138 157.547 404.162 156.519 400.13Z" fill="#121214"/>
</svg>
