<svg width="720" height="1024" viewBox="0 0 720 1024" fill="none" xmlns="http://www.w3.org/2000/svg">
<g clip-path="url(#clip0_513_26)">
<path fill-rule="evenodd" clip-rule="evenodd" d="M389.381 958.338C408.49 910.337 440.188 868.05 483.654 840.122C520.223 816.625 570.415 837.728 608.81 817.35C673.59 782.969 705.698 668.144 777.232 684.309C842.694 699.101 813.775 808.784 841.455 869.922C864.859 921.617 928.52 956.183 925.986 1012.87C923.436 1069.91 868.912 1108.11 828.983 1148.91C790.988 1187.74 755.136 1243.53 700.813 1242.99C646.179 1242.44 626.119 1160.77 573.416 1146.36C503.175 1127.15 411.273 1201.94 360.337 1149.91C314.026 1102.59 364.895 1019.85 389.381 958.338Z" fill="#EE628B"/>
<path fill-rule="evenodd" clip-rule="evenodd" d="M111.699 -163.143C142.116 -121.38 160.984 -72.0157 161.43 -20.3522C161.805 23.1136 117.188 54.3199 113.951 97.6667C108.49 170.801 188.503 259.196 136.681 311.089C89.2581 358.577 11.8951 275.623 -54.5852 266.435C-110.798 258.666 -173.987 294.086 -220.592 261.711C-267.48 229.139 -270.719 162.643 -283.945 107.105C-296.531 54.2569 -324.606 -5.82261 -295.178 -51.4868C-265.58 -97.4126 -185.788 -70.8264 -145.494 -107.726C-91.7922 -156.905 -106.051 -274.533 -34.8668 -289.871C29.8535 -303.816 72.7219 -216.659 111.699 -163.143Z" fill="#EE628B"/>
<path fill-rule="evenodd" clip-rule="evenodd" d="M41.2354 -110.504C72.3432 -151.755 114.084 -184.168 163.383 -199.624C204.859 -212.628 247.696 -179.019 290.11 -188.533C361.669 -204.584 422.964 -306.852 487.689 -272.368C546.919 -240.812 490.059 -142.662 500.608 -76.3837C509.528 -20.3425 561.8 29.8094 544.383 83.8172C526.861 138.153 464.183 160.597 414.895 189.408C367.994 216.824 318.681 261.163 266.43 246.292C213.88 231.335 216.104 147.26 169.078 119.444C106.403 82.3712 -1.98939 130.234 -37.3728 66.5901C-69.5431 8.72599 1.3731 -57.6438 41.2354 -110.504Z" stroke="#EE628B" stroke-width="5" stroke-linecap="round" stroke-linejoin="round" stroke-dasharray="32 32"/>
<path fill-rule="evenodd" clip-rule="evenodd" d="M596.972 1257.51C545.315 1258.45 494.062 1245.56 451.5 1216.28C415.692 1191.63 415.748 1137.19 382.111 1109.66C325.358 1063.21 207.048 1077.99 194.3 1005.77C182.634 939.676 294.968 923.941 340.65 874.777C379.277 833.206 386.543 761.131 439.804 741.551C493.389 721.852 549.7 757.367 602.77 778.415C653.269 798.443 718.581 809.938 739.082 860.247C759.7 910.844 692.13 960.923 699.218 1015.1C708.665 1087.3 813.171 1143.14 784.871 1210.24C759.142 1271.24 663.166 1256.31 596.972 1257.51Z" stroke="#EE628B" stroke-width="5" stroke-linecap="round" stroke-linejoin="round" stroke-dasharray="32 32"/>
<path d="M695.324 578.646L692.709 576.031L684.678 584.063L676.646 576.031L674.031 578.646L682.063 586.678L674.031 594.709L676.646 597.324L684.678 589.293L692.709 597.324L695.324 594.709L687.293 586.678L695.324 578.646Z" fill="#EE628B"/>
<path d="M695.324 538.646L692.709 536.031L684.678 544.063L676.646 536.031L674.031 538.646L682.063 546.678L674.031 554.709L676.646 557.324L684.678 549.293L692.709 557.324L695.324 554.709L687.293 546.678L695.324 538.646Z" fill="#EE628B"/>
<path d="M695.324 498.646L692.709 496.031L684.678 504.063L676.646 496.031L674.031 498.646L682.063 506.678L674.031 514.709L676.646 517.324L684.678 509.293L692.709 517.324L695.324 514.709L687.293 506.678L695.324 498.646Z" fill="#EE628B"/>
<path d="M50.324 427.646L47.7092 425.031L39.6777 433.063L31.6463 425.031L29.0314 427.646L37.0629 435.678L29.0314 443.709L31.6463 446.324L39.6777 438.293L47.7092 446.324L50.324 443.709L42.2926 435.678L50.324 427.646Z" fill="#EE628B"/>
<path d="M50.324 387.646L47.7092 385.031L39.6777 393.063L31.6463 385.031L29.0314 387.646L37.0629 395.678L29.0314 403.709L31.6463 406.324L39.6777 398.293L47.7092 406.324L50.324 403.709L42.2926 395.678L50.324 387.646Z" fill="#EE628B"/>
<path d="M50.324 347.646L47.7092 345.031L39.6777 353.063L31.6463 345.031L29.0314 347.646L37.0629 355.678L29.0314 363.709L31.6463 366.324L39.6777 358.293L47.7092 366.324L50.324 363.709L42.2926 355.678L50.324 347.646Z" fill="#EE628B"/>
<line x1="26.5" y1="817.5" x2="26.5" y2="997.5" stroke="#EE628B" stroke-width="5" stroke-linecap="round" stroke-dasharray="16 16"/>
<line x1="92.5" y1="997.5" x2="26.5" y2="997.5" stroke="#EE628B" stroke-width="5" stroke-linecap="round" stroke-dasharray="16 16"/>
<path d="M557 229L591.5 209.081L591.5 248.919L557 229Z" fill="#EE628B"/>
<path d="M649 229L683.5 209.081L683.5 248.919L649 229Z" fill="#EE628B"/>
<path d="M636 246.321L606 229L636 211.679L636 246.321Z" stroke="#EE628B" stroke-width="3"/>
<path d="M399 826L364.5 806.081L364.5 845.919L399 826Z" fill="#EE628B"/>
<path d="M307 826L272.5 806.081L272.5 845.919L307 826Z" fill="#EE628B"/>
<path d="M320 843.321L350 826L320 808.679L320 843.321Z" stroke="#EE628B" stroke-width="3"/>
</g>
<defs>
<clipPath id="clip0_513_26">
<rect width="720" height="1024" fill="white"/>
</clipPath>
</defs>
</svg>
