<svg width="701" height="660" viewBox="0 0 701 660" fill="none" xmlns="http://www.w3.org/2000/svg">
<path d="M168.182 160.521L135.016 149.005C144.992 146.768 158.551 146.094 176.954 148.116C171.501 156.769 168.294 166.648 167.623 176.855L168.182 160.521ZM136.364 236.227C136.364 229.96 117.559 197.836 111.038 186.88L167.594 177.601C167.337 188.314 170.834 200.36 183.145 210.757L165.258 221.771C165.258 221.771 166.319 245.505 167.996 279.422C157.131 278.945 146.487 276.195 136.751 271.348C136.536 251.328 136.364 237.934 136.364 236.227ZM196.904 538.42C196.551 540.277 196.73 542.196 197.421 543.955C184.568 545.336 171.649 546.016 158.723 545.992C106.108 545.992 63.4395 535.365 63.4395 522.243C63.4395 511.086 94.2976 501.736 135.876 499.183C138.227 467.418 137.639 362.241 136.994 294.867C147.286 298.617 158.121 300.656 169.071 300.905C169.916 317.411 170.862 335.366 171.88 353.608C157.992 358.555 148.288 366.902 150.195 372.265C150.265 372.47 150.356 372.667 150.467 372.853L150.41 372.867C149.746 378.865 150.716 384.931 153.219 390.421C154.007 392.013 155.326 395.512 157.017 400.13L157.003 401.091C157.003 401.091 147.199 421.828 151.499 421.698C154.728 421.451 157.91 420.771 160.959 419.677C160.959 419.677 161.13 427.765 165.086 427.765C165.086 427.765 164.742 436.197 169.902 436.369C169.902 436.369 168.067 444.96 172.998 446.695H175.578L176.036 446.136C176.667 447.297 177.298 448.402 177.928 449.434V449.448C179.49 470.458 181.053 488.04 182.529 499.24C216.024 501.391 242.396 507.959 251.01 516.32C234.485 520.493 198.496 530.475 196.904 538.42Z" fill="white"/>
<path d="M136.945 295.002C122.918 290.004 110.041 282.229 99.0822 272.142C88.2031 261.915 79.2388 249.824 72.6122 236.44C65.9743 223.044 61.6568 208.619 59.8435 193.777C59.3279 190.082 59.0095 186.362 58.8894 182.633L58.7029 177.041C58.6576 175.177 58.7718 173.312 58.7985 171.448C59.0774 163.992 59.9408 156.569 61.381 149.248C64.312 134.603 69.7192 120.566 77.3697 107.741C84.9887 94.9387 94.848 83.6124 106.476 74.3037C118.126 65.0201 131.557 58.2311 145.938 54.3579C160.373 50.5598 175.461 49.9484 190.156 52.566C204.876 55.2755 218.846 61.104 231.129 69.6604C243.429 78.2131 253.986 89.0351 262.233 101.546C274.439 120.464 281.835 142.082 283.776 164.515C285.716 186.949 282.143 209.517 273.367 230.252C267.456 244.007 259.164 256.608 248.871 267.476C238.582 278.33 226.206 286.991 212.487 292.938C198.784 298.797 183.96 301.565 169.068 301.048L169.073 300.761C183.844 300.851 198.458 297.729 211.903 291.61C225.268 285.484 237.281 276.757 247.24 265.937C267.27 244.465 278.85 215.802 280.945 186.664C282.03 172.047 280.797 157.35 277.292 143.118C273.852 128.866 267.997 115.308 259.983 103.033C251.977 90.7405 241.766 80.0374 229.866 71.4642C217.922 62.8909 204.284 56.9735 189.866 54.1094C175.398 51.2612 160.478 51.6797 146.192 55.3342C131.895 59.0342 118.561 65.7685 107.095 75.08C101.359 79.6944 96.0796 84.8493 91.329 90.4739C86.6059 96.1117 82.3953 102.16 78.7473 108.547C71.459 121.323 66.3758 135.237 63.7115 149.705C62.3383 156.906 61.5321 164.204 61.3002 171.532C61.2849 173.364 61.1822 175.196 61.2377 177.027L61.4537 182.518C61.4872 186.186 61.9607 189.821 62.3405 193.465C64.0172 208.06 68.1584 222.265 74.5876 235.473C80.9644 248.726 89.6023 260.764 100.113 271.047C110.785 281.247 123.324 289.289 137.043 294.732L136.945 295.002Z" fill="white"/>
<path d="M136.815 271.22C138.195 271.347 139.557 271.62 140.879 272.037C141.527 272.221 142.167 272.417 142.789 272.657C143.424 272.865 144.039 273.133 144.624 273.456C145.771 274.193 146.961 274.862 148.186 275.459C149.457 275.933 150.794 276.204 152.149 276.263C153.498 276.31 154.843 276.427 156.181 276.611C157.507 276.77 158.832 276.885 160.137 277.131C162.817 277.614 165.449 278.332 168.002 279.279L167.99 279.565C165.286 280.299 162.465 280.502 159.684 280.161C158.315 279.968 156.963 279.669 155.639 279.268C154.3 278.899 152.999 278.401 151.755 277.783C150.529 277.164 149.239 276.681 147.908 276.342C146.586 276.01 145.145 276 143.787 275.697C142.452 275.342 141.176 274.796 139.996 274.077C138.769 273.381 137.654 272.504 136.688 271.476L136.815 271.22Z" fill="white"/>
<path d="M260.34 176.253C260.397 186.897 259.029 197.501 256.274 207.782C253.596 218.118 249.449 228.015 243.962 237.172L244.072 236.786V236.801L244.075 237.001L243.961 237.188C238.761 245.859 232.248 253.669 224.653 260.34C217.006 267.032 208.222 272.297 198.718 275.887C179.454 283.002 158.156 282.171 139.504 273.577C134.936 271.44 130.547 268.939 126.379 266.098C122.269 263.196 118.387 259.983 114.767 256.487C111.147 253.003 107.794 249.251 104.738 245.262C103.281 243.219 101.773 241.208 100.42 239.096C99.1113 236.955 97.7097 234.87 96.5473 232.645C86.7534 214.982 81.6765 195.09 81.8071 174.891C81.8179 164.804 83.1119 154.76 85.6578 145C86.9142 140.11 88.5298 135.32 90.4913 130.668L91.9547 127.174C92.429 126.002 93.0549 124.9 93.5976 123.76L95.2871 120.365C95.8889 119.255 96.5454 118.173 97.1807 117.08C102.298 108.318 108.699 100.373 116.172 93.5116C123.689 86.6347 132.365 81.1457 141.797 77.2993C160.9 69.5336 182.289 69.5987 201.345 77.4805C210.702 81.455 219.299 87.0243 226.753 93.9405C234.129 100.853 240.407 108.852 245.367 117.663L245.47 117.843L245.467 118.029V118.043L245.367 117.677C250.395 126.574 254.189 136.113 256.645 146.034C259.159 155.908 260.401 166.063 260.34 176.253ZM260.054 176.253C260.002 166.103 258.652 156.001 256.039 146.193C253.372 136.425 249.362 127.074 244.126 118.409L244.029 118.25L244.026 118.043V118.029L244.125 118.395C238.989 109.911 232.606 102.248 225.192 95.6635C217.841 89.084 209.405 83.8301 200.26 80.1354C181.894 72.5975 161.301 72.5941 142.932 80.1259C133.792 83.7778 125.37 89.0193 118.056 95.608C110.735 102.23 104.449 109.913 99.4053 118.4C98.7811 119.465 98.1119 120.504 97.509 121.58L95.8047 124.869C95.2557 125.974 94.6238 127.041 94.1416 128.179L92.653 131.576C90.6526 136.104 88.9898 140.774 87.6782 145.548C85.0125 155.113 83.5747 164.98 83.3993 174.909C83.1886 184.86 84.2309 194.798 86.5017 204.488C88.8641 214.169 92.4979 223.493 97.3082 232.219C99.7404 236.56 102.482 240.72 105.511 244.668C108.569 248.587 111.919 252.27 115.531 255.685C119.136 259.098 123.024 262.199 127.153 264.954C131.306 267.651 135.668 270.011 140.197 272.011C158.517 279.843 179.137 280.369 197.832 273.483C216.376 266.73 231.972 253.033 242.722 236.414L242.611 236.801L242.612 236.787L242.615 236.568L242.722 236.4C248.411 227.484 252.781 217.791 255.697 207.623C258.541 197.408 260.007 186.858 260.054 176.253Z" fill="white"/>
<path d="M204.823 218.042C227.145 218.042 245.241 199.936 245.241 177.601C245.241 155.265 227.145 137.159 204.823 137.159C182.5 137.159 164.404 155.265 164.404 177.601C164.404 199.936 182.5 218.042 204.823 218.042Z" fill="white"/>
<path d="M406.736 116.742C404.37 118.744 402.433 121.203 401.039 123.972C399.624 126.725 398.579 129.654 397.932 132.682L397.476 134.955L397.194 137.258C396.95 138.787 396.996 140.345 396.891 141.885C396.87 143.43 396.961 144.979 396.989 146.523L397.442 151.143L397.451 151.236L397.435 151.329C396.211 158.328 394.989 165.362 394.295 172.401C394.105 174.13 394.037 175.871 394.09 177.61C394.233 179.343 394.501 181.065 394.89 182.76C395.659 186.182 396.758 189.521 398.171 192.73C400.857 199.182 405.144 204.841 410.627 209.171C416.204 213.319 422.955 215.584 429.904 215.64L430.514 215.649L430.843 216.178C436.147 224.708 441.401 233.253 446.448 241.958C447.7 244.145 448.949 246.324 450.118 248.594C450.41 249.162 450.71 249.717 450.977 250.334L451.388 251.239C451.525 251.618 451.647 252.065 451.751 252.479L451.77 252.559L451.768 252.781C451.765 252.927 451.74 253.072 451.694 253.21C451.62 253.45 451.496 253.671 451.331 253.86C451.124 254.092 450.877 254.285 450.602 254.429C450.242 254.616 449.864 254.763 449.472 254.869C448.818 255.049 448.154 255.19 447.484 255.292C442.373 256.033 437.418 256.237 432.443 256.756C427.502 257.182 422.595 257.934 417.754 259.009C415.376 259.55 413.047 260.289 410.793 261.219C408.583 262.182 406.508 263.429 404.618 264.926C396.932 270.942 391.284 279.404 386.108 287.875C380.938 296.415 376.322 305.314 371.919 314.31C369.684 318.793 367.556 323.329 365.446 327.876C363.295 332.402 361.28 336.994 359.228 341.567C351.191 359.939 343.495 378.46 336.14 397.131L335.993 397.506L335.603 397.412C328.584 395.716 321.642 393.79 314.727 391.749C307.816 389.699 300.94 387.535 294.099 385.258C287.26 382.977 280.468 380.558 273.723 377.999C266.966 375.474 260.304 372.7 253.664 369.874L253.993 369.948L210.645 369.167L211.461 367.259C212.817 368.767 213.942 370.466 214.801 372.303C215.665 374.082 216.345 375.944 216.83 377.86C217.782 381.674 218.131 385.613 217.863 389.534C217.594 393.421 216.891 397.266 215.766 400.996C214.58 404.743 213.152 408.183 212.349 411.757C211.399 415.185 211.4 418.807 212.351 422.235C212.879 423.767 213.885 425.089 215.221 426.006C216.545 426.886 218.131 427.286 219.714 427.139C220.48 427.08 221.123 426.736 221.003 426.671C221.239 426.178 221.514 425.706 221.828 425.259C222.071 424.907 222.296 424.543 222.501 424.167C223.244 422.568 223.769 420.876 224.062 419.136C224.781 415.513 225.196 411.754 225.564 408.005L225.637 407.263L226.284 406.887L238.476 399.798L239.349 399.291L240.159 399.93C257.529 413.638 275.244 427.06 293.868 438.961C298.546 441.89 303.262 444.771 308.129 447.305L311.783 449.197L315.518 450.839C316.143 451.104 316.761 451.403 317.39 451.64L319.296 452.248C320.555 452.705 321.848 453.065 323.162 453.324C328.377 454.57 333.8 454.666 339.056 453.605C341.619 452.953 344.084 451.96 346.384 450.652C348.665 449.26 350.78 447.612 352.69 445.742C354.621 443.821 356.427 441.777 358.097 439.624C359.833 437.515 361.418 435.285 362.842 432.953C365.783 428.292 368.572 423.485 371.373 418.704C376.938 409.109 382.464 399.486 387.951 389.834L420.649 331.803L420.802 331.532L421.008 331.758L425.765 336.975L425.556 337.171L420.682 332.062L421.04 332.017C410.644 351.639 400.123 371.196 389.479 390.686C384.132 400.419 378.802 410.162 373.298 419.814C370.533 424.638 367.796 429.463 364.858 434.22C363.41 436.64 361.795 438.956 360.026 441.152C358.314 443.403 356.458 445.541 354.472 447.553C352.432 449.589 350.168 451.385 347.721 452.906C345.207 454.372 342.506 455.49 339.691 456.229C334.046 457.44 328.205 457.404 322.576 456.123C321.166 455.854 319.78 455.475 318.43 454.989L316.371 454.333C315.704 454.083 315.069 453.778 314.416 453.504L310.529 451.803L306.787 449.876C301.804 447.294 297.034 444.392 292.301 441.442C282.875 435.484 273.759 429.096 264.772 422.543C255.794 415.973 246.956 409.244 238.285 402.251L239.968 402.383L227.738 409.406L228.457 408.288C228.063 412.091 227.628 415.889 226.85 419.712C226.496 421.718 225.867 423.666 224.982 425.5C224.453 426.49 223.807 427.247 223.537 427.864L223.469 427.998C223.403 428.124 223.33 428.247 223.251 428.365C223.114 428.57 222.947 428.753 222.755 428.907C222.464 429.146 222.138 429.338 221.789 429.478C221.223 429.71 220.627 429.855 220.018 429.91C217.787 430.121 215.552 429.552 213.694 428.3C211.877 427.05 210.509 425.251 209.79 423.166C208.671 419.245 208.657 415.091 209.752 411.163C210.203 409.266 210.766 407.396 211.436 405.564C212.108 403.722 212.656 402.021 213.274 400.243C214.36 396.704 215.063 393.058 215.371 389.368C215.664 385.706 215.383 382.022 214.538 378.447C214.112 376.676 213.506 374.954 212.731 373.306C211.997 371.69 211.037 370.186 209.881 368.84L208.117 366.855L210.698 366.932L254.033 368.216L254.207 368.221L254.362 368.289C260.942 371.18 267.55 374.018 274.255 376.621C280.94 379.271 287.685 381.768 294.489 384.112C301.278 386.493 308.121 388.711 315.019 390.766C321.908 392.834 328.841 394.791 335.815 396.509L335.278 396.79C342.791 378.182 350.189 359.525 358.187 341.113C362.157 331.894 366.171 322.691 370.493 313.621C374.769 304.533 379.268 295.533 384.361 286.832C386.893 282.455 389.649 278.212 392.618 274.121C395.618 269.961 399.165 266.227 403.165 263.018C405.205 261.391 407.446 260.034 409.834 258.982C412.211 257.986 414.668 257.192 417.178 256.607C422.123 255.483 427.138 254.688 432.189 254.228C437.183 253.68 442.261 253.433 447.083 252.78C447.653 252.697 448.217 252.581 448.773 252.434C448.988 252.379 449.197 252.303 449.397 252.207C449.459 252.176 449.481 252.144 449.416 252.215C449.357 252.288 449.313 252.371 449.286 252.461C449.268 252.526 449.256 252.593 449.249 252.66C449.248 252.696 449.251 252.731 449.257 252.766L449.242 252.733C449.167 252.552 449.104 252.365 449.053 252.176L448.689 251.367C448.463 250.83 448.17 250.279 447.892 249.73C446.777 247.534 445.545 245.352 444.317 243.18C439.352 234.499 434.146 225.92 428.906 217.383L429.844 217.921C422.432 217.811 415.245 215.348 409.322 210.888C403.609 206.284 399.178 200.286 396.455 193.471C395.041 190.134 393.955 186.668 393.211 183.12C392.358 179.56 392.198 175.868 392.738 172.247C393.552 165.111 394.84 158.099 396.269 151.099L396.262 151.285L395.914 146.577C395.922 145.002 395.869 143.428 395.929 141.857C396.072 140.287 396.065 138.708 396.349 137.155L396.693 134.819L397.214 132.514C397.946 129.449 399.081 126.494 400.589 123.727C402.076 120.94 404.112 118.483 406.575 116.505L406.736 116.742Z" fill="white"/>
<path d="M238.511 399.845C239.823 399.153 241.035 398.284 242.114 397.265C243.233 396.219 244.192 395.014 244.96 393.689C245.759 392.348 246.312 390.875 246.593 389.34C246.892 387.768 246.958 386.161 246.79 384.57C247.198 386.155 247.371 387.79 247.305 389.425C247.246 391.103 246.889 392.757 246.252 394.31C245.622 395.894 244.764 397.378 243.704 398.713C242.623 400.092 241.354 401.312 239.933 402.336L238.511 399.845ZM335.473 396.283C338.558 395.319 341.863 395.315 344.95 396.271C346.483 396.807 347.858 397.72 348.947 398.926C349.998 400.127 350.79 401.533 351.271 403.056C352.146 406.049 352.435 409.183 352.123 412.287C351.872 415.356 351.387 418.402 350.672 421.398C351.268 418.387 351.634 415.335 351.766 412.269C351.955 409.23 351.557 406.184 350.595 403.296C350.14 401.894 349.361 400.62 348.32 399.576C347.28 398.533 346.008 397.75 344.609 397.291C341.751 396.537 338.733 396.657 335.945 397.638L335.473 396.283ZM399.862 310.226C400.901 312.582 402.17 314.83 403.65 316.937C405.093 319.037 406.722 321.001 408.518 322.807C410.307 324.622 412.247 326.28 414.319 327.764C416.418 329.262 418.597 330.646 420.845 331.91C419.615 331.495 418.378 331.057 417.176 330.539C415.979 329.999 414.818 329.384 413.7 328.696C411.438 327.333 409.355 325.692 407.498 323.813C405.638 321.935 404.028 319.823 402.708 317.532C401.355 315.274 400.393 312.804 399.862 310.226Z" fill="white"/>
<path d="M583.376 329.329C576.152 291.64 534.875 226.59 504.948 238.98C475.021 251.371 485.857 296.287 485.857 296.287C485.857 296.287 486.373 345.849 458.51 346.366C430.648 346.882 442.989 254.54 442.989 254.54C442.989 254.54 440.451 244.659 430.132 250.339C419.812 256.018 423.166 276.41 426.52 298.61C429.874 320.81 426.52 331.91 426.52 331.91C411.929 389.833 445.611 406.253 448.191 408.792C449.552 410.125 458.596 427.593 466.809 443.726C484.911 434.032 494.385 426.833 494.629 425.872C495.144 423.807 497.725 331.91 497.725 331.91C497.725 331.91 473.488 267.748 507.098 253.264C512.835 250.902 519.169 250.401 525.207 251.831C531.245 253.262 536.681 256.552 540.751 261.238C555.972 278.404 582.258 314.127 572.54 347.398C572.54 347.398 564.285 360.821 549.838 351.528C549.838 351.528 543.302 437.574 541.926 454.095C540.55 470.616 515.067 480.353 515.067 480.353L519.912 481.629C555.513 473.885 604.015 481.629 604.015 481.629C602.467 477.499 590.6 367.017 583.376 329.329Z" fill="white"/>
<path d="M466.876 443.853C459.366 448.095 451.669 452.006 443.875 455.714C436.077 459.414 428.134 462.806 420.13 466.042C412.122 469.269 404.034 472.307 395.845 475.049C387.665 477.817 379.426 480.404 371.129 482.807L371.551 482.591L358.299 493.139L344.972 503.592L331.629 514.026L328.277 516.615C327.142 517.53 325.948 518.371 324.704 519.133C322.179 520.672 319.368 521.519 317.169 522.913C314.975 524.423 313.336 526.61 312.503 529.141L309.393 537C307.341 542.231 305.197 547.504 303.216 552.709C303.044 554.063 302.955 555.427 302.949 556.792L302.884 561.018L302.889 569.484C302.93 575.129 303.006 580.775 303.119 586.423L302.965 586.102C304.127 587.061 305.597 587.565 307.102 587.52C307.832 587.416 308.527 587.142 309.132 586.72C309.736 586.299 310.233 585.741 310.583 585.093C311.393 583.744 312.046 582.307 312.53 580.81C313.048 579.304 313.49 577.772 313.852 576.221C315.273 569.973 316.169 563.617 316.531 557.22L316.535 557.158L316.555 557.09L318.806 549.325L319.439 547.142L320.105 549.332C321.947 555.385 323.863 561.439 326.046 567.354C326.601 568.826 327.17 570.298 327.819 571.694C328.102 572.354 328.447 572.986 328.848 573.582C329.048 573.991 329.74 574.229 330.425 574.441C333.427 575.118 336.501 575.427 339.578 575.359L339.867 575.362L340.111 575.512L344.261 578.058L344.504 578.207L344.661 578.518C345.917 581.03 347.748 583.21 350.003 584.883C352.212 586.481 354.948 587.171 357.65 586.811C360.453 586.395 363.15 585.442 365.592 584.004C368.043 582.601 370.237 580.79 372.08 578.649L371.871 579.895C371.501 579.087 370.922 578.392 370.193 577.883C369.419 577.355 368.523 577.034 367.589 576.95C366.581 576.859 365.565 576.926 364.577 577.147C364.066 577.294 363.553 577.414 363.044 577.576L361.524 578.149L359.88 578.768L359.632 577.077L356.981 559.017L356.86 558.196L357.541 557.659C361.262 554.681 364.785 551.463 368.087 548.025C371.404 544.596 374.508 540.966 377.38 537.157C380.188 533.332 382.659 529.271 384.764 525.019C386.746 520.76 388.155 516.256 388.951 511.627L389.041 511.075L389.425 510.738C398.781 502.526 408.367 494.637 418.357 487.222C423.336 483.499 428.416 479.901 433.659 476.527C438.865 473.036 444.369 470.012 450.107 467.49L450.253 467.429L450.368 467.418C455.946 466.962 461.559 467.113 467.105 467.869C469.865 468.205 472.603 468.693 475.319 469.27C478.045 469.821 480.733 470.548 483.366 471.447C488.593 473.172 493.825 474.893 499.092 476.496C501.725 477.298 504.364 478.076 507.021 478.789C508.349 479.143 509.681 479.484 511.022 479.778C511.692 479.922 512.364 480.059 513.039 480.161C513.687 480.298 514.355 480.318 515.01 480.222L515.123 480.485C514.421 480.632 513.698 480.641 512.992 480.513C512.302 480.432 511.619 480.316 510.938 480.194C509.578 479.942 508.23 479.644 506.885 479.333C504.196 478.706 501.525 478.014 498.862 477.298C493.537 475.857 488.235 474.338 482.956 472.74C480.353 471.916 477.699 471.263 475.012 470.785C472.327 470.278 469.625 469.86 466.908 469.593C461.51 468.982 456.062 468.955 450.658 469.511L450.919 469.44C445.35 472.004 440.012 475.044 434.964 478.525C429.833 481.93 424.844 485.569 419.952 489.335C415.048 493.087 410.24 496.97 405.475 500.905C400.711 504.835 395.984 508.838 391.378 512.925L391.852 512.037C391.029 516.963 389.55 521.756 387.455 526.288C385.279 530.723 382.721 534.96 379.809 538.95C376.88 542.891 373.681 546.624 370.236 550.123C366.804 553.641 363.145 556.929 359.281 559.966L359.841 558.609L362.35 576.688L360.46 575.616L362.195 574.978C362.789 574.792 363.405 574.649 364.009 574.486C365.287 574.212 366.6 574.141 367.9 574.275C369.28 574.42 370.6 574.914 371.736 575.71C372.915 576.539 373.828 577.693 374.362 579.032L374.639 579.714L374.154 580.279C372.093 582.679 369.62 584.692 366.854 586.225C364.107 587.778 361.086 588.786 357.957 589.193C356.319 589.383 354.66 589.264 353.065 588.842C351.492 588.399 350.01 587.678 348.692 586.711C346.153 584.778 344.115 582.263 342.749 579.377L343.15 579.837L339.044 577.22L339.577 577.373C336.308 577.392 333.05 577.002 329.878 576.211C329.45 576.079 329.032 575.914 328.63 575.718C328.418 575.606 328.2 575.456 327.99 575.32C327.788 575.135 327.602 574.933 327.435 574.716C326.947 573.999 326.536 573.233 326.207 572.43C325.545 570.938 324.997 569.439 324.457 567.934C322.347 561.909 320.545 555.825 318.804 549.708L320.103 549.715L317.712 557.438L317.736 557.308C317.246 563.756 316.27 570.158 314.817 576.459C314.437 578.038 313.976 579.597 313.438 581.13C312.92 582.693 312.224 584.192 311.365 585.596C310.935 586.359 310.333 587.012 309.606 587.501C308.88 587.991 308.049 588.304 307.18 588.416C305.44 588.474 303.741 587.886 302.408 586.765L302.258 586.65L302.253 586.444L301.886 569.495L301.806 561.015L301.835 556.768C301.828 555.309 301.913 553.851 302.09 552.403C303.994 547.016 305.999 541.769 307.951 536.44L310.899 528.473C311.815 525.584 313.643 523.07 316.109 521.31C318.669 519.639 321.346 518.803 323.615 517.331C325.849 515.913 327.979 513.971 330.201 512.238L343.444 501.671L356.704 491.122L370.037 480.668L370.231 480.517L370.461 480.452C387.02 475.803 403.358 470.439 419.473 464.358C427.524 461.324 435.478 458.037 443.374 454.611C451.271 451.185 459.043 447.474 466.74 443.6L466.876 443.853ZM549.121 351.523C549.332 342.937 549.636 334.362 550.095 325.79C550.325 321.504 550.592 317.22 550.969 312.944C551.147 310.806 551.371 308.671 551.643 306.541C551.802 305.479 551.907 304.41 552.138 303.36C552.245 302.834 552.329 302.303 552.456 301.782L552.933 300.245L552.5 301.793C552.389 302.315 552.319 302.848 552.227 303.375C552.027 304.427 551.95 305.499 551.821 306.562C551.607 308.693 551.442 310.83 551.326 312.971C551.068 317.248 550.921 321.533 550.811 325.818C550.591 334.388 550.527 342.966 550.555 351.534L549.121 351.523ZM501.918 466.987C504.563 465.871 507.135 464.586 509.617 463.142C512.078 461.732 514.402 460.094 516.557 458.25C518.677 456.402 520.523 454.261 522.04 451.892C523.466 449.425 524.456 446.731 524.966 443.927C524.998 446.878 524.33 449.794 523.018 452.436C521.602 455.044 519.732 457.379 517.498 459.331C513.004 463.112 507.656 465.74 501.918 466.987ZM520.052 481.598C520.123 481.517 519.988 481.44 520.049 481.459L520.209 481.431L520.529 481.375L521.169 481.271L522.451 481.078L525.023 480.746C526.741 480.541 528.466 480.402 530.193 480.291C533.647 480.073 537.115 479.997 540.586 480.114C547.579 480.257 554.507 481.503 561.112 483.808C564.449 485.015 567.594 486.7 570.448 488.811C573.332 490.97 575.747 493.695 577.542 496.82C578.426 498.377 579.168 500.01 579.76 501.7C580.356 503.328 580.926 504.967 581.482 506.612C582.594 509.901 583.599 513.228 584.497 516.594C586.393 523.331 587.519 530.262 587.849 537.253C588.298 544.334 587.214 551.429 584.672 558.054C581.982 564.676 577.347 570.326 571.38 574.257C568.469 576.222 565.333 577.831 562.04 579.05C558.78 580.283 555.434 581.268 552.026 581.996L551.966 582.01H551.901L534.875 581.915C529.199 581.863 523.523 581.879 517.847 581.912L518.039 581.014C525.339 584.068 532.941 586.348 540.716 587.819C548.423 589.426 556.351 589.685 564.146 588.583C566.061 588.274 567.952 587.833 569.807 587.263C571.666 586.654 573.545 586.011 575.38 585.303C579.084 583.948 582.694 582.366 586.242 580.676C589.768 578.958 593.181 577.019 596.462 574.87C599.74 572.754 602.834 570.366 605.711 567.73C608.551 565.094 611.113 562.173 613.354 559.011C615.54 555.839 617.292 552.389 618.563 548.752C619.211 546.944 619.731 545.093 620.122 543.213C620.317 542.278 620.455 541.333 620.534 540.381C620.62 539.431 620.82 538.497 620.816 537.535C620.938 533.669 620.667 529.8 620.005 525.989C617.322 510.606 610.581 495.956 602.87 482.337L603.669 482.929C596.854 481.228 589.943 479.93 582.975 479.041C575.991 478.147 568.973 477.593 561.919 477.381C554.871 477.172 547.817 477.416 540.8 478.111L535.539 478.688C533.793 478.935 532.057 479.257 530.313 479.539L527.699 479.975L525.214 480.52C523.569 480.857 521.813 481.173 520.052 481.598ZM519.771 481.661C523.188 480.54 526.66 479.593 530.173 478.825C531.911 478.469 533.645 478.073 535.393 477.751L540.664 476.95C547.717 476.003 554.827 475.54 561.943 475.564C569.064 475.546 576.179 475.939 583.255 476.74C590.355 477.518 597.404 478.717 604.362 480.329L604.87 480.45L605.159 480.922C609.313 487.793 612.942 494.968 616.016 502.386C619.169 509.812 621.502 517.561 622.971 525.494C623.696 529.515 623.987 533.603 623.839 537.687C623.831 538.712 623.611 539.74 623.505 540.765C623.406 541.793 623.247 542.814 623.026 543.822C622.59 545.83 622.014 547.804 621.302 549.732C619.91 553.593 618.008 557.251 615.646 560.608C613.258 563.913 610.534 566.962 607.518 569.706C601.444 575.044 594.613 579.452 587.248 582.788C583.594 584.452 579.894 586.004 576.107 587.308C574.218 587.98 572.317 588.576 570.388 589.152C568.43 589.7 566.436 590.112 564.422 590.383C556.421 591.307 548.322 590.854 540.474 589.045C532.657 587.385 525.016 584.983 517.656 581.871L515.524 580.959L517.847 580.973C523.523 581.007 529.199 581.023 534.875 580.97L551.901 580.875L551.777 580.889C555.101 580.099 558.358 579.047 561.516 577.743C564.665 576.477 567.651 574.838 570.41 572.861C575.953 569 580.192 563.545 582.568 557.218C584.861 550.863 585.807 544.098 585.344 537.357C584.941 530.551 583.864 523.803 582.128 517.211C581.287 513.896 580.332 510.608 579.263 507.345C578.328 504.1 577.104 500.945 575.604 497.92C572.133 492.159 566.783 487.772 560.457 485.496C554.06 483.106 547.339 481.7 540.521 481.327C537.102 481.071 533.664 481.005 530.227 481.08C528.508 481.115 526.791 481.201 525.074 481.31L522.5 481.502L521.214 481.624L520.573 481.694L520.253 481.731L520.094 481.751C520.037 481.76 519.978 481.757 519.922 481.742C519.867 481.726 519.815 481.699 519.771 481.661ZM231.146 435.265C233.518 433.085 236.017 431.047 238.63 429.161C239.91 428.189 241.235 427.302 242.554 426.375C243.94 425.457 245.39 424.638 246.893 423.926C252.933 421.178 259.686 420.409 266.189 421.727C262.979 422.257 259.858 422.749 256.828 423.503C255.318 423.897 253.82 424.288 252.37 424.819C250.908 425.298 249.479 425.87 248.09 426.53C246.687 427.16 245.323 427.871 244.004 428.661C242.621 429.446 241.254 430.289 239.836 431.036C237.025 432.615 234.123 434.027 231.146 435.265Z" fill="white"/>
<path d="M302.403 562.639C295.426 566.317 287.939 568.931 280.19 570.393C272.425 571.944 264.488 572.456 256.588 571.916C248.702 571.309 240.916 569.761 233.397 567.305C225.853 565.014 218.572 561.936 211.671 558.122C208.198 556.23 204.972 553.915 202.067 551.23C200.616 549.86 199.338 548.318 198.26 546.638C197.132 544.937 196.44 542.984 196.245 540.952C196.145 539.91 196.244 538.858 196.539 537.853C196.921 536.856 197.531 535.963 198.319 535.243C199.786 533.87 201.419 532.685 203.179 531.716C206.625 529.792 210.191 528.09 213.853 526.62C228.51 520.998 243.537 516.395 258.827 512.842L258.771 515.798C255.473 514.804 252.258 513.551 249.158 512.05C246.068 510.587 243.089 508.899 240.245 507.001C234.501 503.258 229.39 498.623 225.103 493.271C222.966 490.598 221.084 487.732 219.479 484.709C218.654 483.213 217.935 481.662 217.326 480.067L216.345 477.709L215.511 475.32C214.381 472.131 213.478 468.866 212.809 465.549C212.071 462.228 211.957 458.799 212.472 455.436L212.756 455.478C212.535 458.795 212.897 462.126 213.824 465.319C214.711 468.525 215.782 471.677 217.032 474.76C219.415 480.914 222.78 486.641 226.997 491.716C231.293 496.692 236.3 501.005 241.857 504.515C244.624 506.286 247.502 507.877 250.473 509.279C253.405 510.705 256.444 511.901 259.561 512.855L259.598 512.866C259.92 512.963 260.202 513.163 260.398 513.436C260.595 513.709 260.696 514.039 260.685 514.375C260.674 514.711 260.553 515.034 260.34 515.294C260.126 515.554 259.833 515.736 259.505 515.812C251.928 517.566 244.342 519.401 236.838 521.495C229.323 523.554 221.857 525.787 214.528 528.374C210.868 529.642 207.298 531.158 203.844 532.912C202.14 533.761 200.548 534.819 199.104 536.06C198.411 536.625 197.872 537.356 197.537 538.185C197.272 539.058 197.175 539.974 197.251 540.883C197.407 542.763 198.025 544.576 199.049 546.16C200.042 547.8 201.266 549.289 202.681 550.582C205.577 553.15 208.778 555.351 212.213 557.135C219.176 560.574 226.487 563.259 234.02 565.145C241.469 567.223 249.08 568.669 256.772 569.469C272.283 570.702 287.866 568.276 302.269 562.386L302.403 562.639ZM356.313 443.726C363.136 443.793 369.952 444.215 376.732 444.993C380.132 445.305 383.498 445.848 386.882 446.284C390.25 446.816 393.618 447.357 396.973 447.967C403.676 449.223 410.35 450.639 416.951 452.355C423.572 454.006 430.103 455.999 436.518 458.325C423.099 455.87 409.807 453.207 396.455 450.787C389.79 449.52 383.107 448.367 376.421 447.201C369.736 446.006 363.027 444.98 356.313 443.726Z" fill="white"/>
<path d="M259.171 514.327C263.609 515.407 267.953 516.703 272.276 518.053C276.604 519.384 280.885 520.834 285.17 522.262L297.971 526.67C302.255 528.09 306.473 529.629 310.903 530.698C306.322 530.647 301.766 530.016 297.344 528.819C292.912 527.751 288.565 526.403 284.251 524.977C279.959 523.486 275.698 521.914 271.513 520.148C267.301 518.422 263.182 516.479 259.171 514.327ZM267.427 455.773C275.49 458.444 283.656 460.791 291.875 462.904C300.097 465.003 308.377 466.87 316.719 468.362C318.808 468.706 320.893 469.087 322.985 469.399L329.298 470.329C333.54 471.046 337.719 472.096 341.796 473.471C345.909 474.832 349.871 476.612 353.62 478.782C357.455 480.971 360.882 483.809 363.748 487.17L361.509 488.962C358.931 485.772 355.82 483.053 352.314 480.925C348.765 478.737 345.001 476.919 341.081 475.499C337.144 474.048 333.099 472.909 328.983 472.093L322.719 470.991C320.62 470.617 318.537 470.175 316.447 469.77C308.109 468.035 299.862 465.93 291.687 463.596C283.516 461.248 275.412 458.67 267.427 455.773ZM453.177 548.745C454.935 550.3 456.19 551.591 457.605 552.704C458.302 553.28 459.035 553.812 459.8 554.295C460.58 554.855 461.461 555.278 462.465 555.973C461.369 556.443 460.163 556.595 458.985 556.411C457.807 556.228 456.704 555.715 455.804 554.933C454.883 554.192 454.151 553.243 453.666 552.164C453.166 551.098 452.996 549.908 453.177 548.745Z" fill="white"/>
<path d="M417.991 555.872C420.664 553.003 423.325 550.12 425.923 547.193C427.215 545.725 428.496 544.242 429.689 542.716C430.264 541.874 430.93 541.097 431.675 540.4C432.46 539.718 433.333 539.146 434.271 538.699C438.002 537.07 442.079 536.395 446.136 536.734C450.109 537.057 454.037 537.802 457.852 538.956C465.447 540.974 472.973 543.189 480.505 545.4C488.025 547.672 495.555 549.812 503.002 552.498L508.532 554.625C510.463 555.37 512.288 556.368 513.957 557.592C515.634 558.889 517.021 560.523 518.029 562.388C519.037 564.254 519.644 566.31 519.81 568.424C520.184 572.449 519.894 576.508 518.953 580.439C518.638 582.499 517.859 584.461 516.676 586.176C515.486 587.848 514.027 589.312 512.36 590.508C509.064 592.77 505.445 594.523 501.627 595.705C497.876 596.94 494.038 597.895 490.146 598.563C486.266 599.244 482.354 599.722 478.424 599.996C477.441 600.067 476.458 600.124 475.463 600.145C475.027 600.151 474.597 600.247 474.2 600.427C473.803 600.608 473.448 600.869 473.157 601.194C471.839 602.577 470.746 604.159 469.919 605.882C468.174 609.366 466.714 612.985 465.554 616.705C464.346 620.407 463.371 624.181 462.633 628.004C462.437 628.863 462.418 629.752 462.577 630.618C462.82 631.424 463.306 632.135 463.967 632.654C465.724 633.774 467.191 635.293 468.25 637.088C468.477 637.604 468.643 638.145 468.745 638.699C468.782 638.972 468.797 639.245 468.822 639.519C468.863 639.822 468.859 640.131 468.81 640.433C468.763 640.778 468.66 641.114 468.506 641.426C468.339 641.718 468.132 641.985 467.893 642.221C467.461 642.64 466.954 642.974 466.398 643.206C464.447 643.931 462.39 644.328 460.309 644.381C452.328 644.788 444.477 643.743 436.778 643.892C435.823 643.902 434.933 644.019 433.763 643.997C432.626 643.973 431.503 643.737 430.453 643.3C428.387 642.375 426.684 640.794 425.607 638.803C424.616 636.992 423.832 635.076 423.269 633.091C423.029 632.233 422.729 631.392 422.371 630.576C422.329 630.473 422.18 630.37 422.439 630.569C422.527 630.611 422.62 630.644 422.716 630.666C422.762 630.674 422.809 630.675 422.856 630.669L422.752 630.668L422.338 630.659C421.791 630.636 421.247 630.581 420.707 630.494C419.578 630.33 418.486 629.975 417.476 629.443C416.345 628.851 415.424 627.924 414.84 626.788C414.299 625.658 414.09 624.396 414.238 623.152C414.349 622.112 414.526 621.081 414.77 620.065C415.7 616.112 416.976 612.446 417.82 608.697C418.265 606.846 418.608 604.972 418.847 603.083L418.991 601.675L419.224 600.075C419.419 599.054 419.674 598.045 419.986 597.053C421.253 593.259 422.785 589.559 424.571 585.981C427.978 578.866 431.935 571.993 435.225 565.048C435.527 564.476 435.6 563.81 435.427 563.186C435.162 562.521 434.711 561.946 434.129 561.529C432.657 560.488 431.018 559.708 429.282 559.221C425.609 558.144 421.834 557.452 418.018 557.155L418.825 556.903C414.617 560.022 409.963 562.489 405.021 564.22C400.093 565.83 395.005 566.897 389.846 567.405C384.718 567.866 379.559 567.884 374.427 567.459C369.312 567.067 364.236 566.264 359.249 565.059L359.318 564.781C364.32 565.753 369.391 566.322 374.484 566.483C379.556 566.655 384.633 566.447 389.674 565.862C394.675 565.212 399.591 564.021 404.335 562.31C409 560.521 413.386 558.074 417.36 555.043L417.733 554.76L418.166 554.791C422.18 555.025 426.159 555.678 430.038 556.741C432.095 557.282 434.041 558.18 435.788 559.394C436.81 560.125 437.595 561.14 438.045 562.314C438.452 563.588 438.365 564.969 437.801 566.182C436.18 569.869 434.303 573.307 432.509 576.798C430.702 580.276 428.908 583.748 427.232 587.259C425.527 590.708 424.064 594.273 422.856 597.927C422.582 598.806 422.359 599.701 422.188 600.606L421.999 601.919L421.85 603.438C421.609 605.443 421.251 607.433 420.778 609.397C419.852 613.296 418.509 617.048 417.608 620.726C417.384 621.615 417.217 622.517 417.108 623.427C417.001 624.138 417.101 624.866 417.396 625.522C417.807 626.161 418.362 626.695 419.017 627.08C419.672 627.466 420.408 627.692 421.166 627.741C421.593 627.815 422.025 627.863 422.458 627.886L422.778 627.896L422.859 627.899C422.966 627.904 423.073 627.917 423.179 627.936C423.397 627.968 423.606 628.043 423.795 628.157C424.228 628.422 424.575 628.805 424.796 629.262C425.237 630.237 425.597 631.247 425.872 632.282C426.358 634.08 427.041 635.819 427.911 637.466C428.684 638.972 429.933 640.18 431.464 640.902C432.227 641.226 433.043 641.407 433.871 641.435C434.66 641.474 435.727 641.379 436.732 641.382C444.721 641.404 452.499 642.532 460.211 642.349C462.057 642.356 463.892 642.068 465.648 641.495C466.415 641.162 467.006 640.729 467.047 640.162L467.081 639.935L467.062 639.612L467.023 638.967C466.957 638.554 466.845 638.151 466.689 637.763C466.089 636.187 464.496 635.177 462.931 633.793C462.067 633.056 461.447 632.073 461.154 630.975C460.966 629.906 461.003 628.809 461.261 627.755C462.103 623.891 463.186 620.084 464.504 616.355C465.739 612.6 467.26 608.945 469.054 605.424C469.946 603.612 471.119 601.955 472.531 600.513C472.923 600.149 473.361 599.838 473.834 599.59C474.091 599.473 474.359 599.38 474.634 599.314C474.904 599.27 475.178 599.247 475.452 599.246C476.417 599.234 477.393 599.186 478.365 599.125C482.259 598.838 486.133 598.327 489.968 597.593C493.8 596.888 497.574 595.9 501.26 594.637C504.92 593.411 508.367 591.624 511.478 589.34C513.007 588.269 514.301 586.896 515.279 585.306C516.257 583.716 516.9 581.942 517.167 580.093C517.951 576.354 518.119 572.512 517.664 568.718C517.543 567.794 517.273 566.909 517.065 566.015C516.78 565.157 516.418 564.325 515.983 563.532C515.155 561.938 513.963 560.562 512.504 559.514C509.631 557.333 505.776 556.304 502.145 554.867C487.382 549.885 472.319 545.323 457.303 540.945C453.64 539.719 449.858 538.886 446.019 538.459C442.236 538.031 438.406 538.546 434.87 539.959C434.025 540.333 433.23 540.81 432.502 541.379C431.788 541.993 431.144 542.685 430.582 543.442C429.29 544.951 427.94 546.379 426.577 547.797C423.85 550.63 421.048 553.377 418.194 556.074L417.991 555.872Z" fill="white"/>
<path d="M427.036 607.6C428.94 608.352 430.724 609.382 432.328 610.655C434.053 611.95 435.421 613.662 436.305 615.63C436.732 616.712 436.92 617.873 436.857 619.034C436.794 620.195 436.481 621.329 435.94 622.358C434.875 624.283 433.415 625.962 431.657 627.284L430.947 624.812C432.126 624.936 433.293 625.148 434.441 625.446C435.606 625.732 436.737 626.142 437.816 626.667C438.975 627.209 440.023 627.963 440.906 628.89C441.868 629.909 442.495 631.199 442.701 632.585L440.746 631.552C441.65 631.163 442.596 630.884 443.566 630.72C444.513 630.555 445.477 630.5 446.436 630.555C447.404 630.61 448.359 630.806 449.27 631.136C450.177 631.459 451.037 631.901 451.827 632.45L450.533 632.636C451.389 631.831 452.421 631.235 453.545 630.894C454.597 630.557 455.702 630.415 456.805 630.476C457.869 630.536 458.92 630.747 459.924 631.103C460.419 631.274 460.894 631.491 461.367 631.698L462.719 632.446L461.247 632.031C460.744 631.948 460.261 631.811 459.766 631.746C458.795 631.604 457.812 631.577 456.835 631.664C455.901 631.771 454.989 632.021 454.131 632.406C453.335 632.765 452.623 633.285 452.04 633.934L451.542 634.535L450.745 634.12C450.076 633.741 449.36 633.451 448.616 633.26C447.877 633.069 447.117 632.98 446.355 632.994C444.835 632.993 443.334 633.332 441.962 633.986L440.384 634.781L440.007 632.953C439.843 632.143 439.449 631.399 438.872 630.808C438.207 630.144 437.424 629.61 436.562 629.233C435.646 628.794 434.693 628.439 433.714 628.171C432.723 627.895 431.713 627.691 430.693 627.561L427.22 627.141L429.983 625.089C431.486 624.047 432.772 622.72 433.767 621.185C434.223 620.462 434.518 619.65 434.635 618.804C434.752 617.957 434.689 617.095 434.448 616.276C433.854 614.485 432.856 612.855 431.533 611.512C430.171 610.058 428.664 608.748 427.036 607.6ZM458.381 589.789C458.895 592.587 459.051 595.438 458.845 598.275C458.68 601.133 458.196 603.964 457.402 606.715C456.612 609.543 455.292 612.196 453.512 614.531C452.644 615.737 451.52 616.737 450.221 617.458C448.922 618.179 447.479 618.603 445.997 618.701C448.412 617.525 450.398 615.619 451.674 613.254C452.328 612.11 452.892 610.917 453.361 609.685C453.867 608.448 454.3 607.182 454.657 605.894C455.457 603.324 456.033 600.657 456.637 597.974C457.211 595.282 457.747 592.563 458.381 589.789ZM475.193 599.699C475.168 597.426 475.301 595.154 475.594 592.899C475.841 590.666 476.218 588.466 476.596 586.27C477.03 584.084 477.457 581.902 477.983 579.735C478.484 577.559 479.057 575.414 479.665 573.182C480.18 575.429 480.36 577.739 480.2 580.038C480.094 582.305 479.831 584.561 479.414 586.792C478.996 589.014 478.448 591.209 477.773 593.367C477.117 595.555 476.253 597.675 475.193 599.699ZM406.397 509.853C406.093 511.318 406.055 512.827 406.285 514.306C406.518 515.546 407.113 516.689 407.995 517.591C408.452 518.075 408.95 518.518 409.484 518.916C410.059 519.309 410.659 519.709 411.282 520.105C411.944 520.439 412.569 520.895 413.26 521.253C413.98 521.627 414.675 522.048 415.34 522.512C414.517 522.606 413.687 522.637 412.859 522.603C412.03 522.522 411.208 522.381 410.4 522.18C409.578 521.932 408.782 521.606 408.021 521.209C407.233 520.762 406.517 520.2 405.895 519.541C405.237 518.859 404.73 518.044 404.411 517.151C404.091 516.258 403.965 515.308 404.039 514.362C404.113 513.492 404.359 512.644 404.764 511.87C405.169 511.096 405.724 510.41 406.397 509.853ZM250.229 452.202C251.506 451.142 252.985 450.351 254.576 449.878C257.784 448.855 261.233 448.877 264.428 449.939C266.002 450.446 267.48 451.211 268.803 452.202C267.212 451.771 265.705 451.288 264.148 451.022C262.617 450.719 261.062 450.564 259.501 450.56C257.94 450.54 256.382 450.674 254.847 450.959C253.275 451.241 251.73 451.656 250.229 452.202Z" fill="white"/>
<path d="M207.968 554.663L224.774 548.745L209.134 557.283L207.968 554.663Z" fill="white"/>
<path d="M198.304 545.504L215.11 539.585L199.47 548.123L198.304 545.504Z" fill="white"/>
<path d="M224.604 562.892L235.635 558.793L225.921 565.44L224.604 562.892Z" fill="white"/>
<path d="M236.979 566.066L248.667 564.708L237.654 568.854L236.979 566.066Z" fill="white"/>
<path d="M318.741 549.583C318.586 546.082 318.833 542.575 319.477 539.131C319.795 537.406 320.353 535.734 321.133 534.163C321.491 533.363 322.006 532.643 322.649 532.048C323.292 531.453 324.048 530.993 324.873 530.698C324.088 531.039 323.381 531.535 322.793 532.158C322.205 532.78 321.75 533.515 321.455 534.319C320.804 535.896 320.376 537.555 320.184 539.25C319.791 542.641 319.785 546.065 320.169 549.457L318.741 549.583ZM338.241 576.882C337.22 573.827 336.343 570.793 335.544 567.708C334.753 564.63 334.056 561.525 333.536 558.385C332.968 555.248 332.689 552.065 332.701 548.877C332.712 547.277 332.912 545.685 333.297 544.133C333.641 542.565 334.488 541.152 335.708 540.109C334.591 541.215 333.866 542.657 333.645 544.214C333.386 545.75 333.31 547.311 333.418 548.865C333.642 551.982 334.152 555.072 334.939 558.096C335.682 561.134 336.599 564.13 337.605 567.094C338.613 570.049 339.717 573.003 340.915 575.849L338.241 576.882Z" fill="white"/>
<path d="M342.272 578.948L343.706 555.973L345.14 578.948H342.272Z" fill="white"/>
<path d="M150.467 372.854C151.901 374.203 153.66 375.157 155.573 375.625C157.463 376.077 159.413 376.229 161.351 376.073C163.296 375.985 165.23 375.724 167.13 375.295C169.028 374.906 170.898 374.389 172.727 373.748L172.813 373.722C175.412 372.773 178.088 372.104 180.622 370.995C183.159 369.941 185.636 368.748 188.042 367.421C190.414 366.098 192.663 364.565 194.762 362.841C196.791 361.299 198.383 359.254 199.382 356.909C199.566 356.437 199.634 355.929 199.58 355.426C199.526 354.923 199.351 354.44 199.071 354.019C198.344 353.112 197.356 352.45 196.24 352.125C193.694 351.295 191.02 350.931 188.345 351.048C182.771 351.209 177.24 352.069 171.88 353.608C177.066 351.262 182.597 349.771 188.259 349.193C191.195 348.863 194.167 349.094 197.017 349.873C198.632 350.295 200.07 351.219 201.124 352.514C201.656 353.243 202.01 354.086 202.158 354.977C202.306 355.867 202.243 356.78 201.975 357.642C201.519 359.168 200.748 360.582 199.714 361.793C198.772 362.949 197.729 364.02 196.598 364.992C194.382 366.871 191.972 368.508 189.408 369.875C186.89 371.252 184.276 372.448 181.588 373.453C180.246 373.949 178.897 374.419 177.511 374.784L173.384 375.943L173.469 375.917C171.499 376.487 169.492 376.917 167.462 377.204C165.439 377.49 163.394 377.598 161.352 377.525C159.298 377.466 157.267 377.077 155.336 376.375C153.407 375.697 151.715 374.474 150.467 372.854Z" fill="white"/>
<path d="M201.032 355.314C202.409 355.655 203.677 356.338 204.719 357.3C205.79 358.213 206.765 359.233 207.629 360.344C208.496 361.437 209.286 362.588 209.995 363.789C210.733 364.968 211.327 366.219 211.949 367.453L211.665 367.047L211.68 367.061L211.89 367.264L212.016 367.596C212.557 369.02 212.992 370.481 213.485 371.922C213.936 373.377 214.379 374.835 214.781 376.308C215.185 377.779 215.553 379.264 215.885 380.761C216.198 382.264 216.514 383.767 216.698 385.316C215.878 383.989 215.192 382.616 214.5 381.244C213.829 379.866 213.194 378.475 212.595 377.071C211.993 375.669 211.433 374.251 210.881 372.831C210.371 371.397 209.803 369.982 209.34 368.531L209.676 369.066L209.663 369.051L209.473 368.856L209.379 368.645C208.836 367.434 208.242 366.252 207.683 365.053C207.099 363.868 206.483 362.704 205.85 361.549C205.207 360.402 204.506 359.287 203.75 358.211C203.018 357.096 202.098 356.116 201.032 355.314ZM175.447 365.456C174.945 365.456 174.458 365.28 174.072 364.958C173.686 364.636 173.424 364.189 173.333 363.694C173.242 363.199 173.328 362.688 173.574 362.25C173.82 361.812 174.213 361.473 174.682 361.294L192.018 354.681C192.551 354.479 193.141 354.498 193.661 354.731C194.18 354.965 194.585 355.395 194.788 355.927C194.99 356.46 194.974 357.051 194.741 357.571C194.509 358.091 194.08 358.497 193.549 358.701L176.213 365.315C175.968 365.408 175.709 365.456 175.447 365.456ZM488.608 207.66L491.036 216.72C491.9 219.683 492.762 222.627 493.895 225.435C494.928 228.245 496.308 230.915 498.003 233.383C499.735 235.875 502.145 237.817 504.947 238.981C503.298 238.905 501.682 238.498 500.195 237.784C498.707 237.069 497.379 236.062 496.29 234.822C494.088 232.388 492.369 229.556 491.227 226.477C490.086 223.477 489.29 220.357 488.855 217.177C488.378 214.027 488.295 210.83 488.608 207.66Z" fill="white"/>
<path d="M407.429 106.814C407.429 106.814 398.83 121.614 409.493 116.623C420.157 111.633 422.909 130.563 465.906 120.237C465.906 120.237 470.034 181.502 485.169 164.637C500.305 147.772 509.592 161.883 506.496 170.488C503.4 179.093 487.233 181.846 485.169 184.255C483.105 186.665 478.634 213.511 492.049 209.037C505.464 204.562 513.72 185.632 517.848 166.358C517.848 166.358 526.103 156.377 545.366 171.176C564.629 185.976 627.234 197.678 643.745 168.079C660.256 138.479 680.207 127.465 683.303 129.874C683.303 129.874 636.866 120.581 620.698 138.135C604.531 155.688 557.062 132.972 555.342 130.563C553.622 128.153 539.863 124.367 521.632 136.414C521.632 136.414 511.656 90.6375 467.626 89.605C423.596 88.5724 407.429 106.814 407.429 106.814ZM429.939 215.348C431.668 215.497 433.405 215.526 435.139 215.436C436.904 215.349 438.662 215.153 440.403 214.85C442.157 214.552 443.885 214.121 445.573 213.561C447.278 212.999 448.931 212.291 450.515 211.446C449.04 212.504 447.477 213.434 445.844 214.226C444.197 215.026 442.492 215.701 440.744 216.243C438.987 216.796 437.198 217.24 435.387 217.573C433.545 217.917 431.681 218.131 429.81 218.213L429.939 215.348ZM396.789 136.842C397.568 135.868 398.521 135.046 399.599 134.418C400.641 133.794 401.761 133.312 402.93 132.984C404.129 132.634 405.379 132.492 406.626 132.565C407.952 132.57 409.225 133.086 410.181 134.005C409.045 134.161 407.927 134.431 406.845 134.81L403.697 135.747C402.63 136.046 401.537 136.306 400.402 136.517C399.212 136.748 398.001 136.857 396.789 136.842Z" fill="white"/>
<path d="M427.035 133.616C429.637 132.614 432.349 131.925 435.114 131.564C437.877 131.155 440.672 131.012 443.462 131.137C446.286 131.236 449.084 131.712 451.783 132.552C454.527 133.331 457.023 134.809 459.026 136.842C456.532 135.825 453.925 135.115 451.26 134.728C448.633 134.329 445.984 134.086 443.327 134C437.983 133.702 432.604 133.866 427.035 133.616ZM407.944 182.19C409.042 184.422 410.515 186.449 412.298 188.182C413.057 188.87 414.005 189.313 415.019 189.453C416.027 189.502 417.027 189.264 417.905 188.767C420.134 187.657 422.302 186.405 424.466 185.099C426.627 183.78 428.768 182.403 430.991 180.986C429.575 183.22 427.818 185.218 425.783 186.908C423.77 188.637 421.558 190.121 419.194 191.327C417.789 192.056 416.194 192.337 414.625 192.132C413.084 191.811 411.702 190.969 410.71 189.746C409.001 187.59 408.032 184.941 407.944 182.19ZM415.168 136.842C416.505 139.729 417.207 142.87 417.224 146.053C417.269 147.812 416.838 149.551 415.978 151.087C415.721 151.473 415.437 151.841 415.129 152.187L414.378 153.021C413.886 153.578 413.414 154.141 412.977 154.72C411.116 156.841 409.873 159.433 409.384 162.212C409.132 165.148 409.769 168.092 411.212 170.66C409.384 169.053 408.07 166.942 407.435 164.591C407.251 163.768 407.156 162.928 407.151 162.085C407.155 160.388 407.502 158.709 408.171 157.149C408.85 155.65 409.708 154.238 410.727 152.946C411.233 152.315 411.766 151.716 412.306 151.139L413.121 150.286C413.435 149.979 413.489 149.819 413.717 149.598C414.424 148.473 414.864 147.201 415.002 145.879C415.33 142.878 415.386 139.853 415.168 136.842ZM395.498 158.603C397.404 157.573 399.487 156.915 401.638 156.661C402.655 156.516 403.667 156.432 404.691 156.389C405.728 156.351 406.739 156.374 407.944 156.377C407.277 157.357 406.339 158.121 405.244 158.575C404.23 159.04 403.151 159.352 402.045 159.5C400.959 159.656 399.858 159.673 398.767 159.55C397.629 159.437 396.521 159.116 395.498 158.603ZM430.991 150.87C433.279 151.202 435.477 151.397 437.681 151.619C439.884 151.812 442.077 152.018 444.281 152.174C446.478 152.401 448.69 152.522 450.911 152.787C453.173 152.981 455.423 153.303 457.65 153.751C455.452 154.424 453.186 154.852 450.893 155.026C448.613 155.214 446.32 155.216 444.039 155.03C441.746 154.844 439.476 154.435 437.262 153.808C435.006 153.23 432.879 152.233 430.991 150.87ZM82.9153 192.211L82.8224 191.472C82.1912 186.424 81.8736 181.341 81.8714 176.253C81.8159 161.56 84.5261 146.988 89.8602 133.299L90.112 132.658L135.251 148.328L134.782 149.683L90.9449 134.465C85.842 147.803 83.2514 161.971 83.3042 176.253C83.3066 181.032 83.5904 185.808 84.1543 190.554L110.923 186.173L111.153 187.587L82.9153 192.211ZM208.789 169.687L191.533 163.956L202.101 78.5687L202.981 78.9531C220.245 86.4958 234.901 99.8815 245.365 117.666L245.464 117.834V118.274L245.33 118.459L208.789 169.687ZM193.102 162.966L208.238 167.992L243.897 118.001C233.783 100.976 219.764 88.0885 203.287 80.6576L193.102 162.966ZM202.854 273.63L197.545 196.54L214.508 189.987L244.06 236.579V237.006L243.951 237.181C234.425 252.903 220.448 265.441 203.792 273.206L202.854 273.63ZM199.047 197.498L204.141 271.468C219.992 263.84 233.31 251.802 242.501 236.796L213.928 191.748L199.047 197.498ZM18.4062 149.551C19.6827 128.041 24.9494 106.957 33.9372 87.3761C42.7898 67.5247 56.5994 50.2868 74.0372 37.3211L77.3941 35.0301C78.4921 34.237 79.6314 33.5026 80.8071 32.8302L87.8871 28.8441C90.3274 27.6759 92.8098 26.5921 95.2691 25.4642L97.1174 24.6265C97.7444 24.3752 98.39 24.1696 99.0253 23.9389L102.851 22.5915L106.677 21.2458C107.964 20.835 109.288 20.5514 110.591 20.1982C113.213 19.5527 115.81 18.7882 118.451 18.244C123.742 17.1902 129.092 16.4602 134.471 16.0582L138.499 15.745C139.837 15.6063 141.182 15.5353 142.528 15.5323L150.597 15.5296C151.941 15.5426 153.286 15.4993 154.627 15.5587L158.646 15.8505L166.679 16.4401C172.009 17.0482 177.3 17.9753 182.601 18.7263C187.847 19.8216 193.077 20.9803 198.295 22.1452L182.48 19.4766C177.163 18.9414 171.87 18.2313 166.556 17.841L158.571 17.4629L154.582 17.2711C153.252 17.2447 151.921 17.3211 150.591 17.3412L142.615 17.5393C141.287 17.5746 139.961 17.6774 138.643 17.8473L134.68 18.2545C129.372 18.6157 124.191 19.8078 118.963 20.6704C116.375 21.226 113.836 21.9984 111.272 22.6505C109.998 23.0066 108.702 23.2937 107.446 23.7064L103.714 25.0553L99.9823 26.4022C99.3631 26.6326 98.7333 26.8378 98.1225 27.0883L96.3237 27.9229C93.9313 29.0461 91.5158 30.122 89.1431 31.2799L82.2706 35.2238C79.9928 36.5577 77.9031 38.1902 75.7052 39.6497C67.104 45.8188 59.3914 53.142 52.784 61.4135C46.196 69.7376 40.5407 78.7599 35.9198 88.3184C31.2717 97.905 27.4874 107.887 24.6118 118.147C21.6391 128.415 19.5628 138.923 18.4062 149.551Z" fill="white"/>
<path d="M68.866 73.1836C80.9161 59.3634 95.5739 48.0589 111.999 39.9182C120.229 35.8021 128.925 32.6921 137.898 30.6552C146.902 28.6424 156.132 27.8278 165.35 28.2324C174.568 28.634 183.688 30.2916 192.459 33.1593C201.214 35.9642 209.609 39.7905 217.471 44.5593C225.322 49.2595 232.769 54.6049 239.735 60.54C243.159 63.5579 246.433 66.7433 249.78 69.8298C252.935 73.1215 256.058 76.4359 259.149 79.773C255.826 76.6573 252.529 73.527 249.258 70.3819C245.775 67.464 242.376 64.4554 238.841 61.6246C231.779 55.9663 224.264 50.8984 216.372 46.4721L213.416 44.8267L211.939 44.0039L210.408 43.2888L204.292 40.4185C203.282 39.9222 202.242 39.4883 201.179 39.1192L198.023 37.9275L194.869 36.7353C193.823 36.3222 192.719 36.0847 191.647 35.7507C183.087 33.0199 174.198 31.4541 165.219 31.0956C147.177 30.3991 129.235 34.1074 112.945 41.9001C96.5364 49.668 81.6172 60.2563 68.866 73.1836ZM18.4069 170.66C18.8162 177.092 19.3713 183.479 20.0722 189.823C20.43 192.997 20.8196 196.164 21.2951 199.315L22.0091 204.039L22.8841 208.73C23.1231 210.305 23.5281 211.841 23.8453 213.398C24.1669 214.955 24.5231 216.503 24.9514 218.03C25.3603 219.561 25.7098 221.115 26.1679 222.632C26.6631 224.136 27.1346 225.65 27.5975 227.17C29.6298 233.217 32.3153 239.024 35.6063 244.487C31.3311 239.586 27.9151 233.997 25.5028 227.955C23.091 221.918 21.2717 215.661 20.0706 209.271C18.8674 202.908 18.1255 196.467 17.8507 189.997C17.5073 183.547 17.6934 177.08 18.4069 170.66ZM204.673 315.269C210.598 312.741 216.433 310.091 222.178 307.319C225.05 305.924 227.906 304.503 230.717 303.005L234.931 300.759L239.061 298.372C240.466 297.622 241.778 296.729 243.14 295.911C244.501 295.09 245.841 294.238 247.137 293.326C248.444 292.43 249.792 291.583 251.069 290.646C252.322 289.678 253.591 288.729 254.87 287.787C259.892 283.856 264.47 279.39 268.524 274.466C265.328 280.131 261.198 285.215 256.307 289.501C251.421 293.787 246.129 297.586 240.507 300.846C234.911 304.099 229.087 306.944 223.082 309.357C217.117 311.827 210.96 313.805 204.673 315.269ZM296.345 132.488C297.993 128.968 300.924 126.212 304.538 124.784C308.185 123.445 312.109 123.035 315.954 123.594C323.543 124.578 330.891 126.649 338.295 128.098C340.127 128.484 341.978 128.778 343.84 128.979C345.647 129.228 347.484 129.165 349.269 128.793C349.684 128.672 350.092 128.528 350.491 128.362C350.878 128.184 351.198 127.911 351.562 127.699C351.974 127.419 352.392 127.086 352.833 126.83C353.288 126.593 353.76 126.39 354.245 126.221C356.16 125.674 358.173 125.561 360.138 125.89C363.908 126.544 367.616 127.517 371.222 128.798L381.996 132.487C378.309 131.575 374.673 130.471 371.016 129.471C367.423 128.338 363.743 127.507 360.012 126.986C358.213 126.759 356.385 126.898 354.641 127.396C354.233 127.545 353.835 127.721 353.45 127.923C353.078 128.15 352.754 128.42 352.382 128.671C351.958 128.983 351.513 129.268 351.052 129.523C350.58 129.73 350.095 129.907 349.601 130.055C347.671 130.49 345.68 130.588 343.716 130.344C341.803 130.162 339.901 129.881 338.016 129.503C330.555 127.918 323.246 125.882 315.805 124.682C312.127 124.019 308.342 124.278 304.788 125.437C301.198 126.659 298.189 129.172 296.345 132.488ZM268.885 160.703C270.534 157.183 273.465 154.427 277.079 153C280.726 151.66 284.649 151.251 288.494 151.81C296.083 152.793 303.431 154.865 310.835 156.314C312.668 156.7 314.519 156.994 316.381 157.195C318.188 157.444 320.024 157.381 321.81 157.009C322.225 156.887 322.633 156.744 323.032 156.578C323.419 156.4 323.738 156.127 324.102 155.914C324.514 155.634 324.933 155.302 325.373 155.045C325.828 154.809 326.3 154.606 326.785 154.437C328.701 153.89 330.714 153.777 332.678 154.106C336.448 154.76 340.156 155.733 343.762 157.014L354.537 160.703C350.85 159.791 347.213 158.687 343.556 157.686C339.963 156.554 336.283 155.723 332.553 155.202C330.753 154.974 328.926 155.114 327.182 155.612C326.773 155.76 326.375 155.936 325.991 156.139C325.619 156.365 325.295 156.635 324.923 156.887C324.498 157.199 324.053 157.484 323.592 157.739C323.12 157.945 322.636 158.123 322.142 158.271C320.211 158.706 318.22 158.803 316.257 158.56C314.343 158.378 312.441 158.097 310.557 157.719C303.095 156.134 295.787 154.097 288.346 152.898C284.668 152.235 280.882 152.494 277.329 153.653C273.738 154.875 270.73 157.388 268.885 160.703ZM303.967 188.919C305.616 185.399 308.547 182.643 312.16 181.216C315.808 179.876 319.731 179.467 323.576 180.026C331.165 181.009 338.513 183.081 345.917 184.529C347.75 184.916 349.6 185.21 351.462 185.41C353.269 185.659 355.106 185.596 356.892 185.224C357.306 185.103 357.714 184.959 358.114 184.794C358.5 184.616 358.82 184.343 359.184 184.13C359.596 183.85 360.015 183.518 360.455 183.261C360.91 183.024 361.382 182.821 361.867 182.653C363.782 182.106 365.796 181.993 367.76 182.322C371.53 182.976 375.238 183.949 378.844 185.23L389.619 188.919C385.932 188.006 382.295 186.903 378.638 185.902C375.045 184.77 371.365 183.939 367.635 183.418C365.835 183.19 364.008 183.329 362.263 183.828C361.855 183.976 361.457 184.152 361.072 184.355C360.7 184.581 360.376 184.851 360.005 185.102C359.58 185.415 359.135 185.699 358.674 185.954C358.202 186.161 357.717 186.339 357.224 186.486C355.293 186.921 353.302 187.019 351.338 186.775C349.425 186.593 347.523 186.313 345.639 185.935C338.177 184.349 330.869 182.313 323.428 181.114C319.749 180.451 315.964 180.71 312.41 181.868C308.82 183.091 305.812 185.603 303.967 188.919ZM275.115 209.538C276.763 206.018 279.695 203.263 283.308 201.835C286.955 200.495 290.879 200.086 294.724 200.645C302.314 201.629 309.661 203.7 317.065 205.149C318.897 205.535 320.748 205.829 322.611 206.03C324.417 206.279 326.254 206.216 328.039 205.844C328.454 205.723 328.862 205.579 329.261 205.413C329.648 205.235 329.968 204.962 330.332 204.75C330.744 204.47 331.163 204.137 331.603 203.88C332.058 203.644 332.53 203.441 333.015 203.272C334.93 202.725 336.944 202.612 338.908 202.941C342.678 203.595 346.386 204.568 349.992 205.849L360.766 209.538C357.08 208.625 353.443 207.522 349.786 206.522C346.193 205.389 342.513 204.558 338.783 204.037C336.983 203.809 335.156 203.949 333.411 204.447C333.003 204.595 332.605 204.771 332.22 204.974C331.848 205.201 331.524 205.47 331.152 205.722C330.728 206.034 330.283 206.319 329.822 206.574C329.35 206.78 328.865 206.958 328.371 207.106C326.441 207.541 324.45 207.639 322.486 207.395C320.573 207.213 318.671 206.932 316.786 206.554C309.325 204.969 302.016 202.932 294.576 201.733C290.897 201.07 287.112 201.329 283.558 202.488C279.968 203.71 276.959 206.223 275.115 209.538ZM317.941 231.973C319.589 228.454 322.52 225.698 326.134 224.27C329.781 222.931 333.705 222.522 337.55 223.08C345.139 224.064 352.487 226.135 359.891 227.584C361.723 227.97 363.574 228.264 365.436 228.465C367.243 228.714 369.079 228.651 370.865 228.279C371.28 228.158 371.688 228.014 372.087 227.848C372.474 227.671 372.794 227.397 373.158 227.185C373.57 226.905 373.988 226.572 374.429 226.315C374.884 226.079 375.356 225.876 375.84 225.708C377.756 225.161 379.769 225.047 381.734 225.376C385.504 226.031 389.212 227.003 392.817 228.285L403.592 231.973C399.905 231.061 396.269 229.957 392.611 228.956C389.019 227.825 385.338 226.994 381.608 226.472C379.809 226.244 377.981 226.384 376.237 226.882C375.828 227.03 375.43 227.207 375.046 227.409C374.674 227.636 374.35 227.906 373.978 228.157C373.554 228.47 373.109 228.754 372.647 229.009C372.175 229.216 371.691 229.393 371.197 229.541C369.267 229.976 367.276 230.074 365.312 229.83C363.399 229.648 361.496 229.367 359.612 228.989C352.15 227.404 344.842 225.367 337.401 224.168C333.723 223.505 329.938 223.765 326.384 224.923C322.794 226.145 319.785 228.658 317.941 231.973ZM244.747 250.488C246.396 246.969 249.327 244.213 252.941 242.785C256.588 241.446 260.511 241.037 264.356 241.595C271.946 242.579 279.293 244.651 286.698 246.099C288.53 246.485 290.381 246.779 292.243 246.98C294.05 247.229 295.886 247.166 297.672 246.794C298.087 246.673 298.495 246.529 298.894 246.363C299.281 246.186 299.6 245.912 299.964 245.7C300.377 245.42 300.795 245.087 301.235 244.831C301.691 244.594 302.163 244.391 302.647 244.223C304.563 243.676 306.576 243.562 308.541 243.891C312.311 244.546 316.019 245.519 319.624 246.8L330.399 250.488C326.712 249.576 323.075 248.472 319.418 247.472C315.826 246.34 312.145 245.509 308.415 244.987C306.615 244.76 304.788 244.899 303.044 245.397C302.635 245.545 302.237 245.722 301.853 245.925C301.481 246.151 301.157 246.421 300.785 246.672C300.36 246.985 299.916 247.269 299.454 247.524C298.982 247.731 298.498 247.908 298.004 248.056C296.074 248.491 294.083 248.589 292.119 248.345C290.206 248.163 288.303 247.882 286.419 247.504C278.957 245.919 271.649 243.883 264.208 242.683C260.53 242.02 256.745 242.279 253.191 243.438C249.601 244.661 246.592 247.173 244.747 250.488ZM282.85 274.621C284.498 271.101 287.429 268.345 291.043 266.918C294.69 265.578 298.614 265.169 302.459 265.727C310.048 266.711 317.396 268.782 324.799 270.231C326.632 270.618 328.483 270.912 330.345 271.112C332.152 271.361 333.988 271.298 335.774 270.926C336.189 270.805 336.597 270.661 336.996 270.496C337.383 270.318 337.703 270.045 338.067 269.832C338.479 269.552 338.897 269.22 339.338 268.963C339.793 268.726 340.265 268.523 340.75 268.355C342.665 267.808 344.678 267.694 346.643 268.024C350.413 268.678 354.121 269.651 357.727 270.932L368.502 274.621C364.815 273.708 361.178 272.605 357.521 271.604C353.928 270.472 350.248 269.641 346.518 269.119C344.718 268.892 342.891 269.031 341.146 269.53C340.738 269.678 340.34 269.854 339.955 270.057C339.583 270.283 339.259 270.553 338.887 270.804C338.463 271.117 338.018 271.401 337.557 271.656C337.085 271.863 336.6 272.041 336.107 272.188C334.176 272.623 332.185 272.721 330.221 272.478C328.308 272.295 326.406 272.015 324.521 271.637C317.06 270.051 309.752 268.015 302.31 266.815C298.632 266.153 294.847 266.412 291.293 267.57C287.703 268.793 284.694 271.305 282.85 274.621ZM159.867 407.944C159.867 407.944 175.951 406.77 199.17 394.895L206.049 410.211C206.049 410.211 181.418 427.084 166 424.072L159.867 407.944Z" fill="white"/>
<path d="M157.019 400.13C158.403 404.048 160 407.873 161.651 411.678L166.71 423.041C168.419 426.819 170.157 430.584 171.924 434.336L177.218 445.587L177.167 445.487L179.095 448.765L179.27 449.061L179.274 449.434V449.448L179.076 448.746C180.41 450.952 181.954 453.023 183.687 454.931C184.477 455.802 185.41 456.532 186.445 457.091C186.869 457.32 187.337 457.454 187.818 457.484C188.327 457.51 189.109 457.486 189.741 457.49C194.99 457.619 200.239 457.19 205.398 456.211C210.478 455.148 215.308 453.122 219.627 450.242C223.949 447.279 227.762 443.633 230.916 439.447L230.742 440.049C230.459 435.562 229.869 431.037 229.202 426.55C228.521 422.055 227.559 417.607 226.445 413.18C227.206 415.329 227.969 417.489 228.567 419.695C229.197 421.894 229.764 424.11 230.27 426.345C231.308 430.818 232.071 435.351 232.554 439.918L232.588 440.229L232.381 440.52C229.288 445.05 225.451 449.022 221.033 452.27C216.511 455.465 211.397 457.726 205.991 458.919C200.647 460.001 195.197 460.476 189.746 460.335C189.042 460.324 188.485 460.35 187.66 460.31C186.802 460.254 185.965 460.018 185.204 459.618C183.878 458.909 182.685 457.975 181.678 456.859C179.811 454.805 178.17 452.556 176.783 450.151L176.581 449.815L176.586 449.448V449.434L176.764 450.103L174.909 446.784L174.875 446.723L174.857 446.684C171.423 439.104 168.249 431.424 165.143 423.709C163.573 419.86 162.101 415.971 160.725 412.042C159.284 408.138 158.047 404.162 157.019 400.13Z" fill="white"/>
</svg>
