<svg width="704" height="427" viewBox="0 0 704 427" fill="none" xmlns="http://www.w3.org/2000/svg">
<path d="M250.424 90.9812C251.365 93.8627 252.227 96.7691 253.009 99.7002C253.404 101.165 253.771 102.64 254.099 104.13C254.265 104.875 254.412 105.627 254.54 106.388C254.592 106.775 254.672 107.147 254.699 107.548L254.75 108.142L254.82 108.629C255.145 109.947 255.949 111.099 257.075 111.859C258.259 112.733 259.518 113.502 260.837 114.157C261.214 114.351 261.576 114.572 261.92 114.821L262.07 114.936C262.152 115.019 262.227 115.108 262.296 115.202C262.389 115.326 262.463 115.464 262.514 115.61C262.594 115.814 262.664 116.022 262.724 116.234C262.996 117.118 263.012 118.062 262.77 118.956C262.625 119.433 262.386 119.875 262.068 120.259C261.749 120.642 261.357 120.958 260.915 121.188C260.124 121.575 259.271 121.822 258.396 121.918L259.269 120.913C259.384 123.023 259.383 125.101 259.343 127.199C259.294 129.293 259.184 131.39 258.954 133.492C258.756 135.636 258.333 137.753 257.692 139.808C257.342 140.933 256.799 141.988 256.087 142.927C255.653 143.479 255.093 143.918 254.453 144.208C253.759 144.511 252.989 144.6 252.244 144.464L252.504 144.484L242.226 144.848L242.306 142.467C245.722 143.005 249.014 144.149 252.027 145.844C255.02 147.469 257.752 149.534 260.132 151.969C260.739 152.559 261.262 153.229 261.83 153.855L262.663 154.809L263.405 155.835C263.894 156.522 264.405 157.194 264.873 157.893L266.149 160.069L266.784 161.157L267.315 162.297L268.373 164.576C269.01 166.121 269.516 167.716 270.091 169.279L269.796 168.926C274.272 171.688 278.364 175.027 281.967 178.857C285.593 182.653 288.636 186.964 290.999 191.649C292.149 194.011 293.096 196.467 293.828 198.99C294.529 201.527 295.021 204.117 295.299 206.734C295.748 211.998 295.347 217.3 294.113 222.438L293.998 221.763C297.869 227.341 301.709 232.939 305.518 238.558L316.937 255.419L316.951 255.439C317.076 255.624 317.149 255.84 317.161 256.063C317.173 256.286 317.125 256.509 317.02 256.707C312.634 264.91 307.39 272.626 301.374 279.724C295.454 286.866 288.861 293.423 281.686 299.306L279.019 301.531L276.225 303.599C274.347 304.954 272.532 306.397 270.604 307.678C266.697 310.168 262.885 312.802 258.757 314.912C250.647 319.347 242.137 323.008 233.338 325.845L233.315 325.853C233.248 325.876 233.176 325.879 233.107 325.862C233.038 325.846 232.976 325.81 232.927 325.759L226.257 318.799C226.245 318.786 226.236 318.771 226.229 318.755C226.223 318.739 226.22 318.721 226.22 318.703C226.221 318.686 226.225 318.669 226.232 318.653C226.239 318.637 226.249 318.622 226.262 318.61C226.287 318.587 226.321 318.574 226.356 318.575C226.39 318.575 226.424 318.588 226.449 318.612L233.484 325.156L233.073 325.069L239.422 322.431C241.561 321.618 243.656 320.695 245.699 319.666L251.835 316.605C252.863 316.106 253.863 315.552 254.831 314.946L257.778 313.199C261.787 311.006 265.495 308.332 269.279 305.79C271.148 304.486 272.902 303.021 274.718 301.646L277.418 299.55L279.99 297.299C281.676 295.767 283.486 294.374 285.099 292.763L290.016 288.021L294.688 283.038C296.238 281.371 297.68 279.606 299.182 277.895C305.075 270.978 310.272 263.497 314.7 255.563L314.783 256.85L303.638 239.806C299.935 234.117 296.254 228.413 292.594 222.695L292.579 222.672C292.518 222.576 292.478 222.469 292.461 222.356C292.444 222.244 292.45 222.13 292.479 222.02C293.852 217.08 294.404 211.949 294.114 206.831C293.932 204.272 293.519 201.735 292.88 199.251C292.19 196.776 291.29 194.363 290.191 192.04C287.946 187.392 284.959 183.139 281.347 179.449C277.78 175.733 273.69 172.555 269.206 170.018C269.08 169.949 268.982 169.839 268.927 169.706L268.91 169.664C268.29 168.16 267.741 166.626 267.068 165.152L265.962 162.988L265.411 161.907L264.76 160.884L263.461 158.842C262.989 158.19 262.476 157.567 261.988 156.928L261.248 155.977L260.422 155.099C259.861 154.526 259.346 153.908 258.751 153.372C256.423 151.179 253.803 149.32 250.963 147.848C248.179 146.372 245.174 145.357 242.065 144.843L242.008 144.834C241.713 144.79 241.445 144.638 241.257 144.407C241.069 144.176 240.974 143.883 240.991 143.585C241.009 143.288 241.137 143.008 241.35 142.8C241.564 142.592 241.847 142.471 242.145 142.462L252.424 142.131C252.481 142.129 252.538 142.132 252.595 142.139L252.684 142.151C252.992 142.201 253.309 142.161 253.594 142.035C253.88 141.909 254.124 141.704 254.295 141.443C254.832 140.724 255.245 139.92 255.517 139.064C256.116 137.164 256.531 135.21 256.756 133.23C257.23 129.169 257.421 125.081 257.329 120.994L257.329 120.98C257.327 120.737 257.415 120.501 257.576 120.318C257.737 120.135 257.96 120.017 258.203 119.988C258.837 119.941 259.46 119.79 260.046 119.542C260.284 119.436 260.498 119.282 260.674 119.089C260.85 118.896 260.984 118.67 261.069 118.423C261.235 117.85 261.238 117.243 261.076 116.669C261.038 116.514 260.992 116.359 260.941 116.212C260.92 116.151 260.869 116.026 260.898 116.123C260.907 116.144 260.924 116.16 260.944 116.168L260.87 116.112C260.603 115.912 260.323 115.73 260.032 115.567C258.663 114.825 257.362 113.963 256.144 112.992C255.509 112.471 254.949 111.866 254.478 111.193C253.968 110.494 253.641 109.68 253.525 108.823C253.318 105.816 252.873 102.83 252.196 99.8934C251.567 96.9413 250.88 93.9945 250.167 91.0552C250.159 91.0215 250.164 90.9859 250.181 90.9558C250.198 90.9257 250.227 90.9035 250.26 90.8939C250.293 90.8842 250.329 90.8879 250.36 90.9042C250.39 90.9205 250.414 90.9481 250.424 90.9812ZM170.278 139.965C161.395 143.058 153.208 147.868 146.185 154.12C139.242 160.36 133.729 168.024 130.023 176.588C129.095 178.71 128.283 180.88 127.592 183.09C126.962 185.271 126.277 187.624 125.547 189.857C124.082 194.357 122.506 198.799 120.914 203.237C117.719 212.109 114.437 220.943 111.068 229.742L110.607 228.184C114.615 230.869 119.081 232.797 123.784 233.875C128.556 235.034 133.418 235.789 138.317 236.134C143.245 236.498 148.187 236.612 153.126 236.474C158.063 236.326 163.034 236.068 167.921 235.534L167.959 235.53C168.172 235.507 168.386 235.553 168.57 235.661C168.754 235.769 168.899 235.934 168.982 236.13C172.621 244.621 176.814 252.865 181.532 260.809C186.157 268.824 191.298 276.541 196.629 284.131C190.834 276.87 185.429 269.307 180.437 261.474C175.455 253.604 171.009 245.407 167.13 236.94L168.191 237.535C163.217 238.208 158.211 238.623 153.194 238.778C148.175 238.961 143.15 238.888 138.139 238.56C133.094 238.247 128.084 237.511 123.163 236.358C118.121 235.254 113.331 233.212 109.044 230.339C108.805 230.169 108.63 229.925 108.546 229.645C108.461 229.364 108.473 229.063 108.58 228.791L108.584 228.781C112.006 220.021 115.357 211.23 118.636 202.41C120.261 197.999 121.871 193.579 123.359 189.137C124.121 186.905 124.731 184.729 125.483 182.41C129.37 171.062 136.224 160.959 145.335 153.147C150.829 148.615 156.987 144.953 163.594 142.287C164.682 141.83 165.794 141.428 166.923 141.084L170.278 139.965Z" fill="#121214"/>
<path d="M135.78 196.653C139.43 199.022 142.998 201.523 146.443 204.2C148.169 205.536 149.849 206.935 151.459 208.431C153.14 209.903 154.597 211.612 155.785 213.504L169.217 235.875C169.399 236.179 169.452 236.542 169.366 236.885C169.28 237.229 169.061 237.524 168.757 237.706C168.454 237.889 168.09 237.944 167.746 237.859C167.402 237.774 167.106 237.556 166.922 237.253L166.888 237.192L154.62 214.161C153.581 212.311 152.28 210.621 150.755 209.146C149.256 207.602 147.663 206.13 146.018 204.717C142.734 201.883 139.302 199.205 135.78 196.653ZM203.45 194.893C203.199 198.913 202.89 202.927 202.523 206.933C202.161 210.94 201.761 214.942 201.324 218.939C200.905 222.939 200.415 226.93 199.944 230.923C199.447 234.913 198.913 238.898 198.277 242.87L197.493 241.719C202.27 243.052 207.159 244.184 212.056 245.168C216.964 246.122 221.927 246.774 226.916 247.12C231.889 247.471 236.883 247.4 241.844 246.909C244.294 246.648 246.724 246.22 249.115 245.627C251.467 245.089 253.736 244.237 255.86 243.095L255.267 243.901C256.335 237.661 257.489 231.439 258.626 225.212C259.788 218.99 261.055 212.786 262.428 206.602C263.11 203.508 263.841 200.424 264.595 197.338C264.979 195.801 265.403 194.248 265.834 192.718C266.25 191.229 266.63 189.72 266.952 188.191C267.604 185.134 268.089 182.023 268.449 178.894C268.86 175.769 269.135 172.62 269.363 169.467C269.364 169.45 269.368 169.432 269.376 169.416C269.383 169.401 269.394 169.386 269.407 169.374C269.42 169.362 269.435 169.353 269.451 169.347C269.468 169.341 269.486 169.339 269.503 169.34C269.536 169.342 269.568 169.356 269.591 169.38C269.614 169.403 269.629 169.434 269.631 169.467C269.943 175.83 269.662 182.208 268.792 188.519C268.581 190.107 268.267 191.687 267.906 193.263C267.554 194.798 267.221 196.316 266.912 197.867L265.069 207.152C263.859 213.352 262.657 219.559 261.378 225.751L257.544 244.331L257.534 244.38C257.5 244.542 257.43 244.694 257.329 244.825C257.228 244.956 257.099 245.063 256.951 245.137C252.237 247.262 247.133 248.388 241.962 248.443C236.92 248.612 231.873 248.453 226.851 247.967C221.843 247.537 216.856 246.941 211.877 246.257C206.886 245.603 201.933 244.802 196.973 243.756C196.732 243.706 196.518 243.568 196.372 243.37C196.226 243.172 196.158 242.927 196.181 242.682L196.189 242.605C196.567 238.6 197.047 234.608 197.565 230.621C198.108 226.637 198.632 222.651 199.227 218.673C199.798 214.693 200.412 210.718 201.07 206.749C201.724 202.779 202.429 198.816 203.185 194.859C203.191 194.825 203.21 194.796 203.238 194.776C203.265 194.756 203.3 194.747 203.333 194.751C203.367 194.756 203.398 194.773 203.42 194.799C203.441 194.825 203.452 194.859 203.45 194.893ZM250.829 88.3151C250.829 88.3151 209.081 65.1957 193.086 85.4311C193.086 85.4311 185.639 95.5343 185.89 105.068C186.142 114.602 188.499 120.411 162.468 150.084C136.437 179.756 196.092 171.582 200.786 168.523C205.48 165.464 220.355 144.524 229.502 143.183C238.65 141.841 229.488 128.689 229.488 128.689C229.488 128.689 219.061 130.248 219.307 118.683C219.553 107.118 229.603 112.174 229.603 112.174C229.603 112.174 245.382 118.547 250.829 88.3151Z" fill="#121214"/>
<path d="M235.013 136.249C236.117 136.989 236.962 137.778 237.863 138.478C238.302 138.835 238.751 139.16 239.218 139.476C239.731 139.791 240.264 140.072 240.813 140.316C240.18 140.58 239.476 140.623 238.815 140.438C238.164 140.255 237.557 139.944 237.029 139.523C236.519 139.11 236.08 138.618 235.729 138.064C235.363 137.517 235.118 136.898 235.013 136.249ZM231.688 142.47C233.45 142.195 235.242 142.17 237.012 142.395C238.788 142.565 240.53 142.987 242.187 143.648C240.425 143.926 238.632 143.952 236.863 143.723C235.087 143.551 233.345 143.129 231.688 142.47ZM253.254 117.606C253.55 118.187 253.876 118.752 254.231 119.299C254.374 119.52 254.543 119.724 254.732 119.907C254.939 120.129 255.212 120.335 255.538 120.665C255.349 120.777 255.139 120.85 254.92 120.88C254.702 120.911 254.48 120.897 254.267 120.841C253.806 120.731 253.402 120.454 253.134 120.064C252.875 119.687 252.747 119.236 252.768 118.779C252.777 118.341 252.95 117.922 253.254 117.606ZM246.318 105.313C247.1 104.636 248.097 104.258 249.131 104.247C250.172 104.172 251.202 104.5 252.008 105.163C251.086 105.417 250.137 105.558 249.181 105.582C248.219 105.633 247.254 105.542 246.318 105.313ZM248.11 112.114C248.507 112.101 248.883 111.934 249.158 111.649C249.434 111.363 249.588 110.983 249.588 110.586C249.588 110.19 249.434 109.809 249.158 109.524C248.883 109.239 248.507 109.071 248.11 109.058C247.714 109.071 247.338 109.239 247.062 109.524C246.787 109.809 246.633 110.19 246.633 110.586C246.633 110.983 246.787 111.363 247.062 111.649C247.338 111.934 247.714 112.101 248.11 112.114ZM251.844 126.817C252.982 126.951 254.096 127.243 255.154 127.685C256.188 128.096 257.102 128.527 258.219 129.054C257.653 129.316 257.025 129.415 256.406 129.341C255.809 129.288 255.223 129.149 254.666 128.929C254.119 128.711 253.6 128.428 253.121 128.085C252.622 127.743 252.189 127.313 251.844 126.817ZM305.876 271.74C307.776 273.317 309.61 274.949 311.31 276.66L309.61 278.946C308.165 280.871 306.826 282.877 305.234 284.682L300.657 290.23C299.184 292.142 297.458 293.813 295.852 295.578L293.416 298.225C292.627 299.132 291.792 299.998 290.914 300.819L288.933 302.718C287.822 301.153 286.751 299.536 285.734 297.891C286.711 299.576 287.728 301.234 288.786 302.851L285.734 305.793C278.692 312.287 271.063 318.114 262.943 323.2C260.882 324.417 258.861 325.7 256.719 326.783L253.548 328.494L250.282 330.019C245.943 332.112 241.418 333.795 236.765 335.046C235.407 331.916 234.219 328.716 233.205 325.459C270.424 312.758 293.831 287.971 305.876 271.74ZM315.86 256.137L322.003 261.138C319.219 265.108 316.676 269.2 313.919 273.144L312.139 275.55C310.181 274.08 308.083 272.803 305.876 271.74C309.617 266.815 312.956 261.597 315.86 256.137ZM470.222 362.427C428.332 360.114 393.603 358.176 393.603 358.176C401.878 349.515 409.048 339.865 414.949 329.444C420.892 319.026 425.818 308.062 429.657 296.701C433.508 285.361 436.453 273.732 438.463 261.926C438.624 260.977 438.771 260.028 438.932 259.079C439.106 264.052 439.32 269.039 439.507 274.026C439.775 280.617 440.123 287.222 440.444 293.813L441.528 313.587L442.719 333.361C442.74 333.658 442.861 333.939 443.063 334.158C443.265 334.377 443.535 334.52 443.83 334.564H443.843C449.96 335.393 456.116 336.035 462.299 336.343C464.065 336.436 465.845 336.503 467.612 336.556C469.084 339.511 471.56 346.972 470.222 362.427Z" fill="#121214"/>
<path d="M479.001 334.016C473.473 334.11 467.951 333.999 462.432 333.682C456.691 333.361 450.95 332.853 445.235 332.118L443.87 313.44L442.331 293.68C441.782 287.102 441.247 280.524 440.631 273.946C440.122 268.598 439.641 263.25 439.119 257.902C440.787 247.446 441.597 236.871 441.541 226.283C441.086 232.219 440.43 238.128 439.507 244.011C438.65 249.88 437.607 255.736 436.415 261.539C435.197 267.355 433.873 273.13 432.307 278.839C430.781 284.575 429.081 290.244 427.127 295.832C425.227 301.447 423.126 306.983 420.77 312.411C419.66 315.152 418.361 317.825 417.13 320.513C415.805 323.16 414.547 325.834 413.129 328.441C407.575 338.947 401.037 348.903 393.602 358.176C356.544 387.188 327.249 395.718 304.417 393.485C304.658 390.316 304.752 387.148 304.859 383.992C304.86 383.835 304.803 383.682 304.698 383.565L304.644 383.498C301.981 380.744 299.282 378.016 296.547 375.315C293.804 372.628 291.038 369.972 288.25 367.347C285.48 364.687 282.629 362.133 279.805 359.526C276.955 356.959 274.09 354.405 271.186 351.905L271.119 351.852C270.959 351.712 270.755 351.632 270.542 351.627C270.329 351.622 270.122 351.692 269.955 351.825C265.927 355.047 261.912 358.296 258.03 361.732C262.246 359.232 266.342 356.544 270.41 353.83C272.926 356.384 275.496 358.884 278.065 361.384C280.862 364.018 283.606 366.692 286.443 369.272C289.254 371.88 292.1 374.451 294.982 376.987C297.792 379.474 300.634 381.929 303.507 384.353C303.774 387.388 304.029 390.437 304.417 393.485C264.508 389.595 244.286 352.855 236.765 335.046C246.365 333.322 255.584 329.919 263.999 324.992C272.471 320.145 280.368 314.36 287.54 307.745L290.284 305.084C293.271 309.425 296.596 313.525 300.228 317.344C305.835 323.173 312.232 328.495 319.848 331.69C323.654 333.316 327.718 334.257 331.852 334.471C336.014 334.556 340.154 333.839 344.044 332.359L346.908 331.155C347.818 330.687 348.715 330.152 349.612 329.645L350.963 328.882L352.222 327.987L354.737 326.182C356.317 324.858 357.869 323.508 359.368 322.104C360.76 320.607 362.246 319.176 363.557 317.612C364.842 316.021 366.18 314.456 367.411 312.825L370.945 307.825C373.18 304.442 375.361 301.047 377.542 297.624C381.892 290.805 386.179 283.942 390.404 277.034C398.889 263.25 407.119 249.319 415.644 235.615C419.887 228.743 424.21 221.924 428.921 215.44C431.24 212.198 433.775 209.116 436.509 206.215C437.855 204.808 439.325 203.524 440.899 202.377C442.349 201.234 444.043 200.438 445.85 200.051C446.693 199.901 447.558 199.919 448.393 200.105C448.816 200.179 449.227 200.314 449.611 200.506C449.994 200.646 450.354 200.839 450.682 201.081C452.049 202.335 453.166 203.837 453.974 205.506C455.754 209.058 457.223 212.757 458.364 216.563C460.759 224.21 462.606 232.072 464.333 239.946C467.705 255.723 470.328 271.686 472.711 287.663C475.079 303.079 477.1 318.534 479.001 334.016Z" fill="#121214"/>
<path d="M517.478 304.616C517.438 307.584 517.357 310.552 517.264 313.52C517.05 319.216 516.836 324.912 516.581 330.594C510.773 331.583 504.925 332.372 499.063 332.92C492.987 333.522 486.871 333.883 480.768 333.99C480.192 334.003 479.617 334.003 479.055 334.016C476.415 302.328 472.172 270.792 466.341 239.532C464.828 231.55 462.903 223.651 460.573 215.868C459.402 211.923 457.898 208.086 456.076 204.396C455.124 202.418 453.792 200.646 452.155 199.182C451.674 198.812 451.142 198.515 450.575 198.3C450.055 198.039 449.501 197.85 448.929 197.738C447.786 197.485 446.604 197.457 445.45 197.658C443.277 198.083 441.233 199.007 439.481 200.359C437.777 201.587 436.187 202.965 434.73 204.476C431.892 207.443 429.263 210.601 426.86 213.929C422.029 220.494 417.653 227.325 413.37 234.198C404.885 248.009 396.735 261.967 388.33 275.778C384.141 282.676 379.894 289.548 375.589 296.394L369.072 306.608L365.686 311.555C364.508 313.173 363.223 314.71 362.005 316.288C360.734 317.825 359.315 319.229 357.99 320.714C356.558 322.104 355.073 323.427 353.574 324.725L351.178 326.489L349.987 327.372L348.702 328.121C347.846 328.615 347.003 329.136 346.133 329.604L343.429 330.794C339.758 332.25 335.843 332.989 331.893 332.974C327.928 332.822 324.019 331.981 320.343 330.487C312.889 327.586 306.425 322.492 300.737 316.85C297.882 313.999 295.205 310.976 292.721 307.798C291.958 306.836 291.221 305.86 290.485 304.884L292.774 302.651C293.657 301.811 294.497 300.928 295.29 300.003L297.726 297.276C300.976 293.658 304.035 289.873 306.893 285.939C308.419 284.053 309.704 281.981 311.042 279.963L312.421 277.837C313.475 278.941 314.459 280.111 315.365 281.339C316.679 283.081 317.751 284.992 318.55 287.022C319.377 289.001 319.848 291.11 319.942 293.252C320.055 297.61 319.031 301.923 316.971 305.766C314.889 309.777 312.298 313.502 309.262 316.85C313.105 314.187 316.35 310.754 318.791 306.769C321.413 302.703 322.743 297.94 322.605 293.105C322.271 288.242 320.294 283.636 316.998 280.043C315.875 278.75 314.644 277.555 313.317 276.473L315.017 273.866C316.261 271.794 317.372 269.628 318.55 267.515C319.728 265.403 320.879 263.277 322.003 261.138L332 269.28C328.789 272.077 326.208 275.522 324.425 279.387C326.049 278.017 327.501 276.455 328.748 274.735C330.044 273.051 331.136 271.22 332 269.28C412.38 177.336 441.582 153.377 471.748 164.153C501.699 174.849 517.13 294.121 517.331 295.712V295.725C517.572 298.693 517.478 301.648 517.478 304.616Z" fill="#121214"/>
<path d="M613.811 369.994C610.974 370.061 567.01 367.735 519.098 365.114C503.199 351.09 503.855 338.241 504.47 334.484C508.86 333.869 513.232 333.111 517.586 332.211L517.626 332.198C517.816 332.155 517.986 332.051 518.109 331.901C518.233 331.75 518.303 331.563 518.308 331.369C518.362 325.42 518.389 319.483 518.268 313.534C518.215 310.552 518.148 307.584 518.041 304.603C517.958 301.633 517.722 298.67 517.331 295.725L612.446 318.173C617.13 328.802 613.811 369.994 613.811 369.994Z" fill="#121214"/>
<path d="M519.141 365.062C521.636 367.073 524.244 368.919 526.912 370.67C529.587 372.411 532.362 373.989 535.159 375.519C537.961 377.043 540.844 378.414 543.739 379.755C546.632 381.104 549.572 382.35 552.513 383.605L552.566 383.628C552.638 383.658 552.699 383.709 552.743 383.774C552.786 383.839 552.809 383.915 552.81 383.993C552.755 385.009 552.41 385.987 551.814 386.812C551.219 387.637 550.399 388.273 549.453 388.646C547.707 389.393 545.841 389.82 543.944 389.906C542.08 390.026 540.208 389.996 538.349 389.816C536.489 389.693 534.642 389.443 532.804 389.152C525.46 387.917 518.223 386.116 511.157 383.766C504.083 381.462 497.114 378.848 490.26 375.975C488.53 375.275 486.841 374.515 485.134 373.933C483.413 373.337 481.644 372.891 479.845 372.599C478.043 372.308 476.219 372.166 474.392 372.175C472.575 372.183 470.712 372.355 468.861 372.456L468.843 372.456C468.796 372.459 468.749 372.452 468.704 372.437C468.659 372.421 468.618 372.396 468.583 372.365C468.547 372.333 468.519 372.295 468.498 372.252C468.478 372.209 468.466 372.163 468.463 372.116C468.462 372.083 468.464 372.05 468.471 372.018C469.196 368.849 469.758 365.645 470.155 362.419C470.157 362.402 470.166 362.386 470.179 362.375C470.193 362.364 470.21 362.359 470.227 362.36C470.245 362.362 470.261 362.37 470.272 362.383C470.284 362.396 470.289 362.413 470.288 362.43C470.13 365.695 469.763 368.946 469.189 372.163L468.799 371.726C470.648 371.541 472.476 371.284 474.37 371.187C476.256 371.118 478.144 371.209 480.015 371.46C481.89 371.71 483.74 372.121 485.545 372.689C487.37 373.255 489.062 374.042 490.779 374.713C497.654 377.476 504.546 380.197 511.543 382.616C518.497 385.162 525.63 387.189 532.884 388.68C536.509 389.408 540.214 389.654 543.903 389.411C545.722 389.301 547.501 388.831 549.136 388.029C549.912 387.626 550.59 387.06 551.123 386.369C551.625 385.718 551.889 384.915 551.872 384.094L552.169 384.482C546.117 382.292 540.255 379.605 534.646 376.449C531.834 374.881 529.112 373.157 526.492 371.285C523.868 369.426 521.382 367.38 519.053 365.162C519.041 365.15 519.033 365.134 519.032 365.117C519.032 365.099 519.038 365.083 519.049 365.07C519.061 365.057 519.077 365.049 519.094 365.047C519.111 365.046 519.128 365.051 519.141 365.062ZM502.382 414.195L463.838 412.497L470.998 400.905C473.487 401.748 476.03 402.456 478.586 403.044C481.142 403.646 483.712 404.168 486.322 404.569C488.931 404.983 491.564 405.238 494.204 405.331C496.791 405.474 499.386 405.29 501.927 404.783C501.61 406.244 501.484 407.741 501.552 409.235C501.578 410.92 501.858 412.592 502.382 414.195ZM512.285 400.424L511.924 405.17L502.382 414.195C502.795 412.557 502.966 410.868 502.89 409.181C502.849 407.674 502.615 406.178 502.194 404.729L502.234 404.716L507.28 402.643C508.953 401.895 510.639 401.2 512.285 400.424Z" fill="#121214"/>
<path d="M598.192 413.5C587.097 421.107 550.588 414.596 538.221 405.558C534.514 402.906 530.282 401.076 525.809 400.19C521.336 399.305 516.725 399.384 512.285 400.424C510.532 400.905 508.792 401.48 507.052 402.015L501.926 403.713C499.388 404.084 496.817 404.187 494.258 404.02C491.661 403.9 489.074 403.664 486.495 403.312C483.912 402.991 481.329 402.626 478.747 402.216L470.998 400.905C463.971 389.514 468.829 372.093 468.829 372.093L472.43 371.786C477.63 371.342 482.86 372.163 487.673 374.179C554.281 402.042 552.341 384.046 552.341 384.046C596.157 397.763 609.273 405.892 598.192 413.5ZM614.244 329.798C616.859 330.389 619.569 330.423 622.198 329.897C622.854 329.8 623.503 329.656 624.138 329.465C624.775 329.28 625.428 329.166 626.047 328.926L627.895 328.199L628.818 327.844L629.699 327.381C634.422 324.933 638.657 321.644 642.197 317.676C643.127 316.719 644 315.708 644.81 314.648C645.649 313.608 646.545 312.614 647.339 311.537L649.671 308.257C650.432 307.152 651.301 306.116 651.968 304.943L654.107 301.509C654.803 300.353 655.585 299.243 656.181 298.027C657.447 295.639 658.738 293.254 659.964 290.836L659.995 290.775C660.03 290.706 660.084 290.649 660.151 290.61C660.218 290.571 660.294 290.552 660.371 290.555C661.268 290.655 662.119 291.003 662.829 291.56C663.538 292.117 664.078 292.86 664.388 293.707C664.705 294.486 664.931 295.3 665.061 296.131C665.232 296.942 665.318 297.769 665.32 298.598C665.347 301.874 665.027 305.143 664.364 308.352C663.689 311.538 662.951 314.722 661.989 317.831C661.152 320.989 659.996 324.027 658.918 327.099C656.675 333.207 654.074 339.166 651.395 345.081L650.402 347.306C650.077 348.031 649.758 348.709 649.489 349.435C648.937 350.869 648.51 352.348 648.214 353.856C647.916 355.364 647.735 356.893 647.673 358.429C647.628 359.932 647.716 361.584 647.745 363.197C647.752 363.559 647.615 363.91 647.363 364.171C647.112 364.433 646.767 364.584 646.404 364.591C646.288 364.593 646.173 364.581 646.06 364.555L641.561 363.488C640.045 363.232 638.536 362.891 637.008 362.702C633.958 362.257 630.88 362.028 627.798 362.014C624.709 362.003 621.625 362.28 618.587 362.841C615.523 363.352 612.547 364.293 609.747 365.635L609.734 365.641C609.704 365.657 609.669 365.66 609.636 365.65C609.604 365.64 609.576 365.619 609.559 365.589C609.542 365.56 609.537 365.525 609.544 365.492C609.552 365.459 609.572 365.431 609.6 365.412C612.291 363.714 615.231 362.446 618.313 361.652C621.399 360.854 624.554 360.346 627.735 360.135C629.327 360.026 630.924 359.998 632.519 360.05C634.118 360.044 635.704 360.21 637.296 360.334C638.887 360.473 640.455 360.766 642.039 360.976C643.604 361.271 645.164 361.6 646.724 361.934L645.04 363.292C644.981 361.671 644.858 360.091 644.872 358.359C644.894 356.66 645.073 354.966 645.405 353.299C645.737 351.631 646.214 349.995 646.83 348.41C647.13 347.622 647.488 346.829 647.845 346.087L648.883 343.904C650.249 340.986 651.694 338.098 652.996 335.152L654.929 330.725C655.57 329.248 656.268 327.791 656.84 326.289C659.382 320.38 661.519 314.305 663.236 308.106C664.07 305.016 664.491 301.83 664.488 298.63C664.497 297.841 664.423 297.053 664.269 296.279C664.148 295.513 663.933 294.764 663.629 294.05C663.314 293.374 662.869 292.766 662.318 292.263C661.794 291.8 661.126 291.533 660.426 291.507L660.834 291.226C659.675 293.694 658.58 296.195 657.461 298.692C656.943 299.961 656.236 301.136 655.607 302.353L653.669 305.983C653.025 307.198 652.31 308.374 651.527 309.505L649.245 312.951C648.436 314.065 647.517 315.106 646.656 316.187C645.808 317.282 644.888 318.318 643.902 319.29L640.938 322.213C639.88 323.117 638.755 323.947 637.668 324.813C635.43 326.488 632.999 327.889 630.428 328.986L629.475 329.418L628.474 329.741L626.47 330.359C625.803 330.561 625.098 330.635 624.416 330.778C623.735 330.932 623.041 331.023 622.343 331.05C619.57 331.351 616.765 331.007 614.147 330.047C614.115 330.035 614.09 330.011 614.075 329.981C614.061 329.95 614.059 329.916 614.069 329.884C614.079 329.851 614.1 329.824 614.13 329.808C614.159 329.791 614.193 329.786 614.226 329.794L614.244 329.798ZM680.204 336.436C681.681 336.479 683.156 336.276 684.567 335.835L681.435 369.326L671.638 362.587H671.625C672.484 360.462 673.23 358.293 673.86 356.09C674.516 353.897 675.091 351.678 675.546 349.418C676.027 347.164 676.367 344.883 676.563 342.586C676.795 340.352 676.746 338.097 676.416 335.875C677.648 336.232 678.922 336.421 680.204 336.436ZM677.099 327.144L684.567 335.835C681.915 334.958 679.068 334.861 676.363 335.554V335.54L674.73 331.048C674.141 329.578 673.606 328.08 672.977 326.623L677.099 327.144Z" fill="#121214"/>
<path d="M673.057 355.889L671.625 362.588C661.374 368.23 646.398 363.243 646.398 363.243L646.278 360.101C646.115 355.55 647.056 351.027 649.021 346.918C676.176 290.123 660.397 291.032 660.397 291.032C674.248 253.463 681.89 242.393 688.06 252.367C694.216 262.354 686.989 293.867 678.558 304.255C676.084 307.37 674.306 310.978 673.343 314.836C672.381 318.694 672.256 322.713 672.977 326.623C673.298 328.174 673.726 329.711 674.088 331.262L675.332 335.794C675.54 338.015 675.513 340.251 675.252 342.466C675.038 344.712 674.717 346.958 674.315 349.191C673.927 351.424 673.512 353.657 673.057 355.889ZM114.653 232.036C112.564 242.803 110.352 253.545 107.826 264.228C107.195 266.899 106.553 269.568 105.858 272.231C105.21 274.95 104.399 277.629 103.429 280.251C101.02 285.223 98.6722 290.112 96.4475 295.124C91.9561 305.1 87.9145 315.268 84.0788 325.5C83.133 328.063 82.2193 330.637 81.3376 333.222C80.4129 335.793 79.6982 338.456 78.691 341.01L72.8347 356.404L72.8233 356.434C72.7716 356.57 72.6848 356.689 72.5718 356.78C72.4587 356.871 72.3235 356.931 72.1799 356.952C69.6732 357.337 67.1471 357.584 64.6132 357.692C62.0277 357.916 59.4232 357.63 56.9482 356.85C54.6434 355.947 52.2806 355.198 49.8756 354.61C48.782 354.306 47.6191 354.367 46.563 354.782C46.353 354.907 46.1703 355.073 46.0257 355.269C45.881 355.466 45.7774 355.689 45.721 355.927C45.6163 356.474 45.6181 357.036 45.7264 357.582C45.9741 358.76 46.3891 359.895 46.9588 360.955C47.101 361.224 47.2454 361.492 47.3988 361.754L47.6328 362.136L47.7282 362.281C47.7331 362.289 47.7233 362.281 47.7391 362.302C48.1218 362.454 47.5285 363.326 47.5856 363.068L47.542 363.083L47.4627 363.106L47.319 363.132L45.435 363.357C42.9514 363.638 40.4757 363.951 38.0138 364.348C35.5555 364.728 33.1227 365.258 30.729 365.934C29.5463 366.263 28.3925 366.689 27.2791 367.206C26.235 367.714 25.0702 368.44 24.8967 369.364C24.88 369.453 24.8381 369.535 24.776 369.6C24.7139 369.666 24.6343 369.712 24.5466 369.734C23.4781 369.997 22.4317 370.343 21.4166 370.768C20.4125 371.164 19.4729 371.708 18.6287 372.38C18.2294 372.648 17.9097 373.018 17.7033 373.452C17.4968 373.886 17.4113 374.367 17.4557 374.845C17.7401 375.823 18.3325 376.684 19.145 377.299C19.2305 377.376 19.2888 377.478 19.3113 377.591C19.3337 377.703 19.319 377.82 19.2694 377.924L19.2585 377.947C18.7287 378.957 18.5055 380.099 18.6164 381.234C18.7234 381.742 18.9828 382.205 19.3601 382.562C19.7374 382.918 20.2146 383.151 20.728 383.23C23.1418 383.503 25.5844 383.372 27.9548 382.841C32.9077 382.116 37.7844 380.934 42.908 380.474C44.2024 380.357 45.5036 380.334 46.8014 380.406C48.1374 380.484 49.3888 380.707 50.6175 380.872C53.0944 381.226 55.5696 381.537 58.0518 381.78C63.0017 382.285 67.9806 382.449 72.953 382.269C77.8793 382.126 82.7712 381.399 87.5261 380.104C88.6867 379.761 89.8481 379.327 90.958 378.93C91.9756 378.503 92.9077 377.896 93.7097 377.139C94.5129 376.375 95.181 375.481 95.6859 374.495C96.1824 373.449 96.548 372.346 96.7745 371.21C99.2832 361.427 102.408 351.812 106.131 342.423C109.806 333.022 113.979 323.823 118.633 314.866C123.346 305.94 128.576 297.297 134.297 288.979C139.949 280.698 145.553 272.379 150.706 263.784C153.258 259.476 155.769 255.137 158.012 250.663C159.145 248.431 160.185 246.158 161.132 243.842C161.576 242.675 162.017 241.506 162.371 240.31C162.761 239.14 162.982 237.919 163.027 236.687L163.026 236.65C163.025 236.615 163.038 236.582 163.062 236.557C163.085 236.532 163.118 236.517 163.152 236.515C163.187 236.514 163.22 236.526 163.246 236.548C163.272 236.571 163.288 236.603 163.29 236.638C163.307 237.917 163.135 239.192 162.779 240.421C162.47 241.648 162.074 242.846 161.674 244.044C160.814 246.415 159.861 248.748 158.815 251.044C157.787 253.346 156.66 255.598 155.532 257.852C154.347 260.073 153.182 262.308 151.933 264.493C146.988 273.265 141.664 281.815 136.096 290.195C130.579 298.535 125.543 307.184 121.013 316.098C116.438 324.986 112.339 334.111 108.735 343.435C106.915 348.088 105.252 352.801 103.685 357.543C102.102 362.28 100.646 367.061 99.3692 371.88C99.0812 373.205 98.6332 374.489 98.0351 375.706C97.3814 376.954 96.5205 378.082 95.4892 379.042C94.4509 380.003 93.2475 380.769 91.9369 381.303C90.6818 381.745 89.4785 382.177 88.2292 382.535C83.2671 383.848 78.1636 384.553 73.031 384.635C67.9525 384.732 62.8732 384.48 57.8295 383.878C55.3149 383.585 52.8065 383.239 50.317 382.823C49.0615 382.619 47.8385 382.374 46.6667 382.277C45.4564 382.179 44.2406 382.17 43.0289 382.249C38.1208 382.561 33.158 383.602 28.1533 384.226C26.8938 384.383 25.6647 384.557 24.3718 384.649C23.0465 384.789 21.7072 384.71 20.4072 384.417C20.0746 384.303 19.7434 384.165 19.4152 384.034C19.0941 383.85 18.7903 383.637 18.5077 383.398C17.9645 382.865 17.6064 382.173 17.486 381.422C17.358 380.041 17.6504 378.654 18.3249 377.442L18.4383 378.09C17.4673 377.302 16.7781 376.221 16.4739 375.009C16.3646 374.343 16.479 373.66 16.7992 373.067C17.1046 372.518 17.5139 372.034 18.0042 371.642C18.9285 370.913 19.9568 370.326 21.0549 369.901C22.1231 369.464 23.2238 369.111 24.347 368.845L23.9974 369.215C24.1681 368.492 24.5978 367.857 25.2053 367.429C25.7291 367.027 26.2969 366.686 26.8978 366.412C28.0593 365.884 29.262 365.451 30.4939 365.118C32.9289 364.427 35.4059 363.979 37.878 363.536C40.3532 363.109 42.8409 362.766 45.3275 362.457L47.1683 362.217L47.2554 362.201C47.2476 362.203 47.24 362.205 47.2326 362.208L47.2171 362.215C47.284 361.955 46.6943 362.814 47.0837 362.961L47.0239 362.888C46.9628 362.811 46.9057 362.731 46.8529 362.647L46.5925 362.233C46.4265 361.957 46.2711 361.676 46.1184 361.394C45.4904 360.255 45.0303 359.03 44.7523 357.759C44.6112 357.077 44.6063 356.374 44.7381 355.691C44.8241 355.32 44.9835 354.97 45.2068 354.662C45.4302 354.353 45.713 354.092 46.0387 353.895C46.6662 353.547 47.3747 353.37 48.0924 353.384C48.7533 353.375 49.4136 353.43 50.0641 353.547C52.539 354.075 54.9752 354.77 57.3561 355.628C59.6889 356.287 62.129 356.48 64.5366 356.195C67.0011 356.021 69.4542 355.712 71.8853 355.272L71.2309 355.82L76.6542 340.318C78.3734 335.134 79.9857 329.868 81.8912 324.705C85.5704 314.337 89.9085 304.224 94.4804 294.233C96.7648 289.252 99.1892 284.264 101.652 279.419C102.638 276.92 103.48 274.366 104.172 271.77C104.93 269.147 105.639 266.503 106.337 263.857C109.094 253.259 111.752 242.621 114.392 231.979C114.4 231.945 114.422 231.916 114.451 231.897C114.481 231.879 114.517 231.872 114.551 231.88C114.585 231.887 114.615 231.908 114.634 231.937C114.653 231.966 114.66 232.002 114.653 232.036Z" fill="#121214"/>
<path d="M59.7143 362.552L47.4159 363.299C47.328 363.305 47.2399 363.293 47.1566 363.264C47.0734 363.236 46.9965 363.191 46.9306 363.133C46.8646 363.074 46.8108 363.004 46.7722 362.925C46.7336 362.846 46.7109 362.76 46.7056 362.672C46.7003 362.584 46.7123 362.496 46.741 362.413C46.7697 362.33 46.8146 362.253 46.873 362.187C46.9314 362.121 47.0023 362.068 47.0814 362.029C47.1606 361.991 47.2467 361.968 47.3346 361.963C47.3588 361.962 47.3831 361.961 47.4074 361.962L59.7143 362.552ZM18.5971 377.055C22.6455 376.003 26.751 375.184 30.8934 374.602C35.0195 373.982 39.1968 373.772 43.3644 373.975C39.2114 373.995 35.0706 374.426 31.0027 375.261C26.9418 376.055 22.9298 377.081 18.9864 378.334L18.9707 378.339C18.8017 378.393 18.6183 378.377 18.4608 378.296C18.3033 378.214 18.1845 378.074 18.1305 377.905C18.0765 377.737 18.0916 377.553 18.1726 377.396C18.2536 377.238 18.3939 377.119 18.5626 377.065L18.5971 377.055ZM24.3621 368.626L38.2967 367.519L24.532 369.953C24.4452 369.968 24.3562 369.967 24.2701 369.948C24.1839 369.929 24.1023 369.893 24.03 369.843C23.9576 369.793 23.896 369.729 23.8485 369.654C23.801 369.58 23.7686 369.497 23.7533 369.411C23.7379 369.324 23.7398 369.235 23.7589 369.149C23.778 369.063 23.814 368.982 23.8646 368.909C23.9153 368.837 23.9797 368.776 24.0541 368.729C24.1286 368.682 24.2117 368.65 24.2985 368.635C24.3195 368.631 24.3414 368.628 24.3621 368.626ZM72.6483 356.375L69.4958 362.05L71.4175 355.85C71.4435 355.765 71.486 355.687 71.5424 355.619C71.5988 355.551 71.6681 355.495 71.7463 355.453C71.8245 355.412 71.91 355.387 71.9981 355.378C72.0861 355.37 72.1749 355.379 72.2594 355.406C72.3439 355.432 72.4224 355.474 72.4904 355.531C72.5584 355.587 72.6146 355.656 72.6557 355.735C72.6969 355.813 72.7223 355.898 72.7303 355.986C72.7384 356.074 72.729 356.163 72.7027 356.247C72.6888 356.291 72.6706 356.334 72.6483 356.375ZM202.411 243.898C201.744 259.77 199.554 275.542 195.872 290.996C193.956 298.694 191.707 306.299 189.789 313.942C187.832 321.557 186.519 329.321 185.863 337.155C185.56 341.077 185.353 344.987 185.201 348.951C184.999 352.917 184.987 356.842 184.384 360.936C184.225 362.018 183.921 363.073 183.481 364.074C182.981 365.139 182.218 366.06 181.264 366.751C179.536 367.863 177.708 368.813 175.803 369.587C173.995 370.4 172.298 371.282 170.458 372.164C168.64 373.018 166.798 373.794 164.947 374.535C157.535 377.47 149.983 379.907 142.449 382.365C138.691 383.601 134.888 384.776 131.249 386.23C130.808 386.407 130.376 386.607 129.955 386.827C129.771 386.916 129.603 387.035 129.457 387.178C129.287 387.343 129.123 387.515 128.962 387.691C128.317 388.387 127.765 389.163 127.319 390C126.862 390.769 126.664 391.664 126.755 392.554C126.851 392.969 127.046 393.354 127.323 393.678C127.6 394.002 127.951 394.253 128.347 394.413C128.399 394.438 128.447 394.474 128.486 394.517C128.525 394.561 128.555 394.612 128.574 394.668C128.593 394.723 128.601 394.782 128.598 394.84C128.595 394.899 128.58 394.956 128.554 395.009L128.543 395.03L128.537 395.042C128.092 395.833 127.753 396.679 127.529 397.558C127.281 398.392 127.285 399.28 127.538 400.111C127.695 400.496 127.939 400.839 128.25 401.114C128.562 401.389 128.934 401.588 129.335 401.695C130.201 401.958 131.108 402.066 132.011 402.011C132.082 402.01 132.152 402.026 132.214 402.059C132.276 402.092 132.329 402.141 132.366 402.2C132.404 402.259 132.426 402.327 132.43 402.398C132.433 402.468 132.419 402.538 132.388 402.601L132.381 402.614C131.803 403.716 131.414 404.906 131.23 406.137C131.089 406.688 131.115 407.269 131.304 407.806C131.494 408.342 131.838 408.811 132.294 409.152C133.379 409.673 134.6 409.845 135.787 409.643C137.045 409.493 138.288 409.231 139.5 408.86C141.943 408.183 144.309 407.049 146.713 406.115L153.884 403.153C153.995 403.107 154.118 403.098 154.234 403.128C154.351 403.157 154.455 403.223 154.531 403.316C154.607 403.409 154.651 403.524 154.657 403.644C154.662 403.764 154.629 403.883 154.561 403.983L154.548 404.001C153.779 405.122 153.091 406.296 152.49 407.516C151.875 408.683 151.457 409.943 151.255 411.247C151.171 411.801 151.258 412.367 151.502 412.872C151.645 413.086 151.83 413.267 152.047 413.406C152.264 413.544 152.507 413.637 152.761 413.677C154.021 413.878 155.312 413.772 156.522 413.368C159.115 412.519 161.618 411.414 163.992 410.07C166.416 408.758 168.792 407.339 171.147 405.879C175.871 402.965 180.457 399.859 185.341 397.029C186.595 396.282 187.921 395.66 189.298 395.174C190.76 394.633 192.324 394.424 193.877 394.563C196.807 395.098 199.57 396.315 201.943 398.113C206.55 401.167 211.205 404.242 216.276 405.751C218.596 406.614 221.161 406.547 223.432 405.563C223.934 405.291 224.395 404.95 224.801 404.549C225.213 404.15 225.571 403.699 225.866 403.207C226.117 402.849 226.234 402.414 226.196 401.979C226.158 401.543 225.968 401.135 225.658 400.826C224.822 399.917 223.847 399.146 222.769 398.544C221.63 397.846 220.414 397.188 219.189 396.488C217.911 395.786 216.684 394.993 215.519 394.117C214.239 393.157 213.195 391.918 212.468 390.494C211.303 387.784 210.614 384.894 210.43 381.95C210.093 379.255 209.752 376.451 208.315 374.927L208.307 374.918C208.139 374.739 208.021 374.52 207.965 374.281C207.91 374.042 207.919 373.792 207.991 373.558L217.842 341.693L227.942 309.906C231.299 299.306 234.779 288.746 238.244 278.18C241.708 267.615 245.303 257.091 249.029 246.608C249.041 246.575 249.065 246.548 249.097 246.533C249.129 246.517 249.166 246.516 249.2 246.528C249.232 246.54 249.259 246.564 249.274 246.596C249.29 246.627 249.292 246.663 249.282 246.696C245.891 257.28 242.83 267.97 239.588 278.602L230.005 310.545L220.4 342.48L210.658 374.373L210.334 373.004C211.418 374.234 212.166 375.722 212.506 377.325C212.83 378.735 213.07 380.163 213.225 381.601C213.388 384.216 213.988 386.786 214.999 389.204C215.527 390.273 216.3 391.203 217.256 391.918C218.31 392.72 219.418 393.447 220.574 394.093C221.758 394.784 222.984 395.46 224.211 396.226C225.555 397 226.761 397.992 227.778 399.162C228.391 399.905 228.768 400.812 228.863 401.769C228.918 402.734 228.679 403.693 228.178 404.52C227.758 405.222 227.245 405.864 226.654 406.43C226.064 407.002 225.396 407.487 224.671 407.873C223.236 408.614 221.635 408.977 220.02 408.926C218.509 408.892 217.01 408.647 215.567 408.198C209.937 406.454 205.213 403.207 200.608 400.108C198.564 398.492 196.175 397.368 193.625 396.823C192.397 396.699 191.157 396.853 189.996 397.273C188.742 397.696 187.533 398.243 186.387 398.906C181.603 401.586 176.921 404.652 172.1 407.455C169.693 408.87 167.259 410.249 164.759 411.529C162.256 412.869 159.626 413.955 156.907 414.773C155.456 415.218 153.918 415.298 152.428 415.008C151.998 414.917 151.591 414.739 151.233 414.485C150.875 414.232 150.573 413.907 150.345 413.531C149.972 412.78 149.842 411.931 149.973 411.103C150.217 409.657 150.704 408.262 151.411 406.977C152.065 405.714 152.809 404.5 153.639 403.345L154.303 404.193L147.07 407.036C144.644 407.957 142.315 409.06 139.756 409.754C138.488 410.131 137.189 410.394 135.874 410.54C134.489 410.758 133.07 410.529 131.824 409.887C131.182 409.485 130.712 408.859 130.507 408.131C130.325 407.446 130.286 406.732 130.392 406.033C130.597 404.7 131.027 403.412 131.664 402.224L132.033 402.826C131.034 402.871 130.035 402.749 129.077 402.465C128.558 402.323 128.079 402.064 127.676 401.708C127.273 401.352 126.957 400.908 126.752 400.412C126.426 399.422 126.402 398.359 126.683 397.356C126.918 396.39 127.28 395.46 127.761 394.589L127.951 395.218C127.426 395 126.961 394.66 126.594 394.226C126.227 393.792 125.97 393.277 125.843 392.723C125.702 391.631 125.921 390.523 126.465 389.566C126.942 388.649 127.534 387.797 128.229 387.031C128.4 386.84 128.576 386.652 128.76 386.47C128.968 386.266 129.204 386.093 129.462 385.957C129.915 385.712 130.38 385.49 130.857 385.294C134.571 383.791 138.321 382.544 142.053 381.2C149.52 378.558 156.996 375.929 164.252 372.855C166.061 372.079 167.854 371.272 169.6 370.4C171.313 369.528 173.111 368.541 174.898 367.687C176.643 366.917 178.325 366.012 179.929 364.982C180.588 364.506 181.113 363.867 181.45 363.127C181.796 362.308 182.032 361.448 182.151 360.567C182.678 356.819 182.684 352.8 182.848 348.863C182.963 344.915 183.136 340.915 183.509 336.948C184.25 329.001 185.657 321.13 187.716 313.418C189.721 305.719 192.019 298.151 194.149 290.539C196.198 282.919 197.844 275.196 199.079 267.402C200.392 259.61 201.386 251.756 202.144 243.881C202.146 243.846 202.163 243.813 202.189 243.79C202.216 243.766 202.251 243.755 202.286 243.757C202.321 243.76 202.353 243.777 202.376 243.803C202.399 243.829 202.412 243.863 202.411 243.898Z" fill="#121214"/>
<path d="M127.93 394.355L150.157 384.39L128.367 395.276C128.307 395.306 128.242 395.324 128.175 395.329C128.108 395.334 128.041 395.325 127.977 395.304C127.914 395.283 127.855 395.25 127.804 395.206C127.753 395.162 127.712 395.108 127.682 395.048C127.652 394.988 127.634 394.923 127.629 394.856C127.624 394.789 127.633 394.722 127.654 394.659C127.675 394.595 127.709 394.536 127.753 394.486C127.797 394.435 127.851 394.394 127.911 394.364L127.93 394.355ZM131.767 401.978L159.037 386.847L132.277 402.86C132.161 402.929 132.022 402.95 131.891 402.917C131.76 402.884 131.648 402.8 131.579 402.684C131.509 402.568 131.489 402.43 131.521 402.299C131.554 402.168 131.637 402.056 131.753 401.986L131.767 401.978ZM153.748 403.298L168.915 390.012L154.439 404.048C154.342 404.142 154.212 404.193 154.076 404.191C153.941 404.189 153.812 404.134 153.718 404.037C153.624 403.94 153.572 403.809 153.574 403.674C153.576 403.539 153.632 403.41 153.729 403.316L153.748 403.298ZM497.332 132.642C498.7 129.725 501.133 127.441 504.133 126.258C507.161 125.147 510.418 124.808 513.609 125.272C519.91 126.087 526.009 127.803 532.155 129.004C533.676 129.324 535.213 129.568 536.758 129.734C538.258 129.941 539.783 129.889 541.265 129.58C541.609 129.48 541.948 129.361 542.279 129.223C542.601 129.076 542.866 128.85 543.168 128.673C543.51 128.441 543.858 128.166 544.223 127.953C544.601 127.757 544.993 127.588 545.395 127.449C546.985 126.996 548.656 126.902 550.287 127.174C553.417 127.716 556.495 128.523 559.488 129.585L568.432 132.642C565.372 131.885 562.353 130.971 559.317 130.142C556.335 129.204 553.28 128.515 550.183 128.082C548.689 127.894 547.172 128.01 545.724 128.423C545.385 128.545 545.055 128.691 544.735 128.859C544.427 129.047 544.158 129.271 543.849 129.479C543.497 129.738 543.128 129.974 542.745 130.185C542.353 130.356 541.951 130.504 541.541 130.626C539.938 130.987 538.285 131.068 536.655 130.865C535.067 130.715 533.488 130.482 531.924 130.169C525.73 128.855 519.663 127.167 513.486 126.173C510.433 125.623 507.291 125.838 504.341 126.799C501.36 127.812 498.863 129.894 497.332 132.642ZM74.2751 33.2501C75.6432 30.3327 78.0765 28.0486 81.0763 26.8658C84.1039 25.7553 87.3609 25.4163 90.5527 25.8794C96.8529 26.6945 102.952 28.4114 109.098 29.6122C110.619 29.9322 112.156 30.1759 113.702 30.3424C115.202 30.5488 116.726 30.4966 118.208 30.188C118.553 30.0876 118.891 29.9685 119.223 29.8312C119.544 29.6837 119.809 29.4575 120.111 29.2812C120.454 29.0491 120.801 28.7736 121.166 28.5608C121.544 28.3648 121.936 28.1964 122.338 28.0569C123.928 27.6034 125.6 27.5096 127.231 27.7823C130.36 28.3246 133.438 29.1309 136.431 30.1926L145.376 33.25C142.315 32.4937 139.296 31.5791 136.26 30.7497C133.278 29.8116 130.223 29.1228 127.126 28.6904C125.632 28.502 124.116 28.6177 122.668 29.0305C122.328 29.1534 121.998 29.2993 121.679 29.4673C121.37 29.655 121.101 29.8786 120.792 30.0872C120.44 30.346 120.071 30.5819 119.688 30.7933C119.296 30.9644 118.894 31.1117 118.484 31.2342C116.882 31.5947 115.229 31.6756 113.599 31.4735C112.011 31.3227 110.431 31.0902 108.867 30.7769C102.673 29.4631 96.6063 27.7752 90.4295 26.781C87.3761 26.2315 84.2339 26.4465 81.2839 27.4067C78.3038 28.42 75.8062 30.5022 74.2751 33.2501ZM18.0127 229.866C19.3809 226.949 21.8142 224.664 24.8139 223.482C27.8416 222.371 31.0985 222.032 34.2903 222.495C40.5905 223.31 46.6895 225.027 52.8358 226.228C54.3571 226.548 55.8935 226.792 57.4392 226.958C58.9392 227.164 60.4634 227.112 61.9457 226.804C62.2902 226.703 62.629 226.584 62.9605 226.447C63.2815 226.3 63.5468 226.073 63.849 225.897C64.1912 225.665 64.5384 225.389 64.9039 225.177C65.2819 224.981 65.6736 224.812 66.0761 224.673C67.6661 224.219 69.3372 224.125 70.9681 224.398C74.0977 224.94 77.1757 225.747 80.1689 226.808L89.1132 229.866C86.0527 229.109 83.0339 228.195 79.9979 227.366C77.0157 226.427 73.9605 225.738 70.8639 225.306C69.37 225.118 67.8533 225.234 66.4053 225.646C66.066 225.769 65.7356 225.915 65.4164 226.083C65.1077 226.271 64.8389 226.494 64.5301 226.703C64.1776 226.962 63.8087 227.198 63.4256 227.409C63.0337 227.58 62.6317 227.727 62.2217 227.85C60.6193 228.21 58.9664 228.291 57.3363 228.089C55.7481 227.939 54.1688 227.706 52.6046 227.392C46.4107 226.079 40.344 224.391 34.1671 223.397C31.1137 222.847 27.9715 223.062 25.0216 224.022C22.0413 225.036 19.5437 227.118 18.0127 229.866ZM311.353 84.9405C312.721 82.0231 315.155 79.739 318.154 78.5562C321.182 77.4457 324.439 77.1067 327.631 77.5698C333.931 78.3849 340.03 80.1018 346.176 81.3026C347.698 81.6226 349.234 81.8663 350.78 82.0328C352.28 82.239 353.804 82.1868 355.286 81.8784C355.631 81.7779 355.969 81.6587 356.301 81.5213C356.622 81.3741 356.887 81.1479 357.189 80.9716C357.532 80.7395 357.879 80.4641 358.244 80.2512C358.622 80.0552 359.014 79.8868 359.417 79.7473C361.007 79.2939 362.678 79.1999 364.309 79.4724C367.438 80.0148 370.516 80.8212 373.509 81.8829L382.454 84.9404C379.393 84.1838 376.374 83.2692 373.338 82.4401C370.356 81.5018 367.301 80.813 364.204 80.3808C362.71 80.1924 361.194 80.3081 359.746 80.7209C359.406 80.8437 359.076 80.9897 358.757 81.1577C358.448 81.3453 358.179 81.5689 357.871 81.7775C357.518 82.0363 357.149 82.2721 356.766 82.4832C356.374 82.6547 355.972 82.8019 355.562 82.9242C353.96 83.2849 352.307 83.366 350.677 83.1637C349.089 83.013 347.509 82.7805 345.945 82.4672C339.751 81.1534 333.684 79.4655 327.508 78.4713C324.454 77.9218 321.312 78.1368 318.362 79.097C315.382 80.1102 312.884 82.1926 311.353 84.9405ZM574.031 33.9584C560.115 33.9584 548.503 22.7169 548.351 22.568L547.627 21.8551L548.571 21.4739C572.513 11.7782 587.094 29.0649 587.24 29.2398L587.726 29.8326L587.072 30.2334C583.162 32.6751 578.642 33.9661 574.031 33.9584ZM550.066 22.3238C553.755 25.5671 569.989 38.4577 585.674 29.5075C582.962 26.6768 570.014 14.7994 550.066 22.3238Z" fill="#121214"/>
<path d="M567.772 26.2424C572.81 27.0405 577.838 27.9068 582.852 28.872C585.359 29.3606 587.863 29.8623 590.356 30.4469C591.604 30.7377 592.849 31.0377 594.089 31.3958C595.375 31.7243 596.625 32.1761 597.824 32.7449C597.902 32.784 597.972 32.8381 598.03 32.9043C598.088 32.9704 598.132 33.0473 598.159 33.1304C598.187 33.2135 598.199 33.3013 598.192 33.3888C598.186 33.4763 598.163 33.5617 598.124 33.6401C598.085 33.7186 598.03 33.7886 597.964 33.8461C597.898 33.9036 597.821 33.9476 597.738 33.9754C597.655 34.0032 597.567 34.0144 597.479 34.0083C597.392 34.0022 597.306 33.979 597.228 33.9398L597.218 33.935L597.141 33.8945C594.881 32.8467 592.525 32.0176 590.107 31.4183C587.662 30.7309 585.188 30.1215 582.711 29.5255C577.754 28.3445 572.774 27.2502 567.772 26.2424ZM80.1167 145.456C74.956 145.425 69.8339 144.566 64.9456 142.913L63.9941 142.553L64.7012 141.823C82.6757 123.274 103.007 133.193 103.209 133.297L103.895 133.642L103.459 134.274C97.3162 143.172 88.0303 145.456 80.1167 145.456ZM66.4133 141.996C71.1027 143.471 91.1683 148.7 101.887 134.173C98.2612 132.681 81.608 127.056 66.4133 141.996Z" fill="#121214"/>
<path d="M84.1931 138.424C89.1241 137.117 94.0763 135.887 99.0496 134.733C101.539 134.167 104.033 133.614 106.55 133.141C107.808 132.903 109.068 132.674 110.348 132.5C111.656 132.281 112.983 132.189 114.309 132.224C114.486 132.233 114.651 132.312 114.77 132.442C114.889 132.573 114.951 132.745 114.943 132.922C114.935 133.098 114.857 133.264 114.727 133.383C114.597 133.502 114.425 133.565 114.248 133.558L114.237 133.558L114.15 133.552C111.659 133.507 109.169 133.701 106.715 134.13C104.2 134.49 101.691 134.932 99.1849 135.388C94.1733 136.312 89.1761 137.334 84.1931 138.424ZM611.467 38.1597C617.259 38.6602 623.005 39.594 628.657 40.9535C634.358 42.2589 639.863 44.3041 645.032 47.0368C647.654 48.4289 650.017 50.2597 652.02 52.4497C654.071 54.7015 655.358 57.5422 655.699 60.5675C655.759 61.3215 655.725 62.0833 655.722 62.8392C655.609 63.5835 655.524 64.3394 655.382 65.0738C655.063 66.5345 654.599 67.96 653.999 69.3296C653.37 70.7359 652.468 72.0039 651.347 73.0605C650.178 74.1249 648.73 74.8345 647.172 75.1064C644.129 75.4969 641.042 74.9079 638.357 73.4251C635.666 72.0303 633.423 69.9044 631.889 67.2922C630.368 64.6937 629.544 61.7475 629.496 58.738C629.447 55.7285 630.176 52.7574 631.613 50.1116C633.117 47.5328 635.212 45.347 637.725 43.7335C640.174 42.1375 642.757 40.7551 645.443 39.6015C650.816 37.3661 656.402 35.6815 662.115 34.5737C656.482 35.9286 650.99 37.8121 645.712 40.1991C640.592 42.6766 635.178 45.5425 632.518 50.6008C631.223 53.0966 630.582 55.8795 630.655 58.6897C630.728 61.4999 631.513 64.2458 632.936 66.671C634.367 69.0709 636.448 71.0178 638.939 72.2876C641.379 73.6164 644.175 74.1431 646.932 73.793C648.252 73.5751 649.481 72.9836 650.475 72.0885C651.473 71.1552 652.278 70.0345 652.843 68.7904C654.048 66.26 654.613 63.4725 654.488 60.6729C654.189 57.8959 653.021 55.2838 651.15 53.2082C649.237 51.1041 646.999 49.32 644.521 47.924C639.475 45.1269 634.088 42.9958 628.493 41.5841C622.902 40.0582 617.214 38.9141 611.467 38.1597ZM105.404 349.392C107.014 349.65 108.6 350.038 110.147 350.552C111.77 351.039 113.311 351.766 114.717 352.71C115.126 352.998 115.492 353.344 115.803 353.735C116.006 353.995 116.159 354.29 116.255 354.606C116.387 355.009 116.387 355.445 116.254 355.848C116.008 356.499 115.523 357.031 114.897 357.335C114.466 357.567 114.01 357.75 113.539 357.879C111.889 358.301 110.186 358.476 108.485 358.397C105.24 358.172 102.01 357.775 98.8076 357.207C95.62 356.752 92.42 356.432 89.2074 356.064C85.9833 355.741 82.7849 355.199 79.6346 354.441C76.4419 353.737 73.3124 352.773 70.2778 351.557C68.706 350.908 67.2078 350.094 65.8085 349.128C65.427 348.849 65.0688 348.539 64.7373 348.201C64.3024 347.785 63.9746 347.269 63.7819 346.699C63.6594 346.283 63.6641 345.839 63.7955 345.426C63.9198 345.045 64.1434 344.705 64.4434 344.44C64.8678 344.084 65.3612 343.82 65.8926 343.663C66.7373 343.417 67.6093 343.278 68.4886 343.248C69.316 343.2 70.1456 343.2 70.9731 343.248C72.5993 343.337 74.2177 343.534 75.8173 343.84L75.804 344.107C74.1947 344.254 72.5973 344.395 71.0302 344.615C69.5268 344.768 68.0488 345.111 66.6316 345.635C66.3988 345.731 66.188 345.873 66.0118 346.052C65.9605 346.198 66.0763 345.961 66.0564 345.974C66.1738 346.14 66.3141 346.289 66.4733 346.417C66.7257 346.629 66.994 346.821 67.276 346.991C68.5812 347.75 69.9492 348.395 71.3649 348.92C74.2562 350.059 77.2492 351.1 80.2854 352.011C83.3324 352.887 86.3913 353.779 89.4783 354.625C92.5615 355.481 95.7158 356.057 98.9026 356.346C102.077 356.537 105.263 356.479 108.428 356.173C109.935 356.089 111.433 355.896 112.911 355.595C113.217 355.527 113.515 355.425 113.798 355.292C114.048 355.182 114.145 355.034 114.098 355.125C114.075 355.25 114.154 355.211 114.026 354.994C113.856 354.743 113.652 354.518 113.418 354.325C112.227 353.375 110.942 352.549 109.583 351.86L105.32 349.645L105.404 349.392Z" fill="#121214"/>
<path d="M108.414 340.381C110.039 340.634 111.641 341.012 113.207 341.513C114.832 341.994 116.388 342.682 117.836 343.561C118.233 343.82 118.606 344.113 118.95 344.437C119.424 344.877 119.746 345.454 119.872 346.087C119.926 346.528 119.842 346.975 119.63 347.365C119.453 347.682 119.21 347.958 118.919 348.175C118.491 348.493 118.013 348.738 117.506 348.9C115.843 349.399 114.108 349.617 112.373 349.545C109.096 349.342 105.832 348.958 102.597 348.394C99.3787 347.944 96.1495 347.622 92.9071 347.254C89.6533 346.93 86.4253 346.385 83.2458 345.622C80.0235 344.914 76.865 343.942 73.8024 342.716C72.2151 342.061 70.7029 341.238 69.292 340.261C68.9063 339.975 68.545 339.658 68.2118 339.313C67.7656 338.878 67.4415 338.333 67.2719 337.733C67.1621 337.304 67.1945 336.85 67.3642 336.441C67.4326 336.244 67.5383 336.061 67.6757 335.903C67.7807 335.757 67.9075 335.627 68.0516 335.519C68.4832 335.182 68.9772 334.934 69.5053 334.788C71.1798 334.387 72.9077 334.256 74.6236 334.4C76.2641 334.493 77.8965 334.695 79.51 335.005L79.4961 335.272C77.8718 335.415 76.2591 335.552 74.6761 335.766C73.1545 335.917 71.6573 336.254 70.2182 336.77C69.9709 336.864 69.7453 337.008 69.5551 337.192C69.4648 337.355 69.6009 337.157 69.5826 337.132C69.694 337.285 69.823 337.424 69.9668 337.547C70.218 337.761 70.4855 337.956 70.7667 338.128C72.0816 338.897 73.461 339.549 74.8893 340.078C77.8074 341.228 80.8296 342.275 83.8946 343.191C86.9705 344.072 90.0592 344.967 93.1763 345.815C96.2892 346.673 99.4736 347.247 102.69 347.531C105.893 347.72 109.106 347.649 112.297 347.32C113.8 347.231 115.293 347.008 116.756 346.654C117.024 346.584 117.281 346.473 117.516 346.326C117.682 346.182 117.594 346.28 117.615 346.363C117.564 346.203 117.479 346.056 117.367 345.931C117.14 345.682 116.893 345.453 116.628 345.246C113.989 343.492 111.215 341.95 108.332 340.636L108.414 340.381ZM214.907 355.787C216.489 356.044 218.047 356.43 219.565 356.943C221.165 357.427 222.679 358.162 224.049 359.119C224.456 359.422 224.813 359.787 225.105 360.201L225.336 360.61C225.403 360.784 225.458 360.962 225.5 361.143C225.573 361.565 225.518 362 225.342 362.391C225.035 362.963 224.549 363.419 223.958 363.69C223.535 363.9 223.091 364.068 222.634 364.191C221.013 364.596 219.341 364.763 217.672 364.687C214.485 364.461 211.311 364.07 208.164 363.516C205.032 363.073 201.888 362.764 198.73 362.416C195.561 362.111 192.417 361.593 189.318 360.863C186.183 360.185 183.105 359.264 180.113 358.107C178.58 357.492 177.104 356.743 175.702 355.869C174.915 355.385 174.208 354.781 173.606 354.079C173.157 353.562 172.917 352.896 172.933 352.212C172.971 351.845 173.096 351.493 173.299 351.186C173.502 350.879 173.776 350.624 174.098 350.445C174.916 350.007 175.817 349.746 176.743 349.682C177.561 349.596 178.383 349.564 179.205 349.588C180.807 349.638 182.403 349.805 183.981 350.086L183.972 350.353C182.393 350.526 180.827 350.696 179.3 350.952C178.539 351.085 177.787 351.234 177.071 351.423C176.432 351.569 175.825 351.829 175.278 352.19C175.084 352.351 175.145 352.417 175.182 352.303C175.188 352.212 175.241 352.364 175.432 352.543C175.914 352.986 176.456 353.359 177.042 353.65C178.372 354.345 179.749 354.948 181.162 355.455C184.026 356.538 186.971 357.547 189.958 358.431L198.997 360.976C202.027 361.815 205.127 362.376 208.258 362.654C211.378 362.833 214.506 362.768 217.616 362.462C219.098 362.376 220.571 362.189 222.027 361.902C222.335 361.834 222.635 361.737 222.924 361.613C223.054 361.549 223.18 361.476 223.299 361.395C223.245 361.48 223.369 361.571 223.253 361.346C223.108 361.105 222.925 360.888 222.712 360.704C221.565 359.752 220.318 358.929 218.993 358.247L214.822 356.041L214.907 355.787Z" fill="#121214"/>
<path d="M217.703 346.709C219.234 346.973 220.74 347.372 222.201 347.901C222.951 348.162 223.681 348.477 224.386 348.843C225.169 349.219 225.884 349.722 226.502 350.332C226.945 350.777 227.222 351.361 227.286 351.985C227.295 352.354 227.212 352.72 227.047 353.05C226.881 353.38 226.637 353.665 226.336 353.879C225.561 354.4 224.685 354.754 223.766 354.918C222.196 355.235 220.593 355.354 218.994 355.272C215.865 355.141 212.834 354.487 209.802 354.073C206.771 353.638 203.727 353.344 200.669 353.018C197.601 352.736 194.555 352.247 191.553 351.553C188.518 350.912 185.535 350.046 182.629 348.962C181.153 348.387 179.72 347.706 178.341 346.926C177.614 346.51 176.925 346.032 176.282 345.497C175.919 345.186 175.593 344.835 175.313 344.448C175.107 344.179 174.957 343.872 174.871 343.544C174.785 343.216 174.766 342.874 174.814 342.539C174.889 342.211 175.036 341.904 175.246 341.641C175.455 341.378 175.721 341.166 176.024 341.02C176.435 340.806 176.873 340.649 177.327 340.551C178.123 340.377 178.935 340.285 179.75 340.279C181.308 340.26 182.863 340.377 184.4 340.628L184.397 340.896C182.876 341.11 181.362 341.307 179.913 341.637C179.212 341.785 178.524 341.987 177.854 342.242C177.572 342.349 177.305 342.494 177.062 342.673C176.844 342.834 176.838 342.967 176.892 342.888C176.921 342.811 176.935 342.908 177.101 343.084C177.306 343.285 177.528 343.467 177.765 343.628C178.335 344.016 178.937 344.355 179.565 344.641C180.894 345.263 182.254 345.815 183.64 346.295C186.432 347.311 189.289 348.271 192.183 349.118L200.935 351.578C203.866 352.395 206.866 352.941 209.897 353.212C212.919 353.381 215.949 353.325 218.962 353.046C220.443 352.94 221.924 352.831 223.292 352.598C223.882 352.521 224.452 352.338 224.977 352.058C225.144 351.931 225.092 351.979 225.109 352.055C225.144 352.099 225.089 351.893 224.932 351.687C223.955 350.688 222.829 349.845 221.595 349.189C220.304 348.431 218.959 347.716 217.613 346.961L217.703 346.709Z" fill="#121214"/>
</svg>
