<svg width="681" height="492" viewBox="0 0 681 492" fill="none" xmlns="http://www.w3.org/2000/svg">
<path d="M516.076 326.293C515.799 326.293 515.523 326.277 515.247 326.261C516.059 321.495 516.904 316.713 518.025 311.916C519.097 316.535 519.926 321.122 520.706 325.726C519.188 326.085 517.635 326.275 516.076 326.293ZM521.307 329.243C521.275 331.999 521.275 334.754 521.275 337.51C521.275 340.525 521.291 343.556 521.275 346.571V433.176C520.283 438.963 519.325 444.733 518.025 450.504C516.726 444.733 515.767 438.963 514.776 433.176V337.915C514.776 335.03 514.776 332.128 514.744 329.243C514.857 328.595 514.955 327.963 515.068 327.314C517.025 327.544 519.004 327.506 520.95 327.201C521.08 327.881 521.193 328.562 521.307 329.243ZM411.04 182.777C411.04 182.777 411.381 183.377 412.047 184.317L412.015 184.35L407.238 189.455C405.289 190.833 403.339 192.211 401.243 193.443C402.348 191.287 403.599 189.261 404.834 187.219L408.457 183.377C410.033 183.053 411.04 182.777 411.04 182.777ZM439.586 152.628C438.465 154.768 437.214 156.81 435.979 158.836L431.186 163.942L430.309 164.866C429.14 164.477 427.946 164.168 426.734 163.942L428.814 161.722L433.607 156.616C435.557 155.254 437.506 153.892 439.586 152.628Z" fill="white"/>
<path d="M492.693 191.897C492.945 191.335 493.333 190.845 493.822 190.469C494.188 190.194 494.617 190.015 495.071 189.949C495.524 189.887 495.986 189.943 496.411 190.112C496.98 190.34 497.483 190.708 497.871 191.183H497.875L497.895 191.213L497.875 191.243H497.879C497.628 191.802 497.239 192.288 496.748 192.655C496.382 192.929 495.951 193.103 495.497 193.161C495.042 193.215 494.58 193.153 494.155 192.983C493.585 192.747 493.083 192.374 492.693 191.897ZM426.513 200.668L390.963 205.052C379.112 206.503 367.257 207.916 355.398 209.289C331.676 212.008 307.972 214.887 284.233 217.45L213.038 225.328L141.802 232.833L141.793 232.834C141.596 232.854 141.397 232.833 141.209 232.773C131.053 229.49 120.885 226.24 110.757 222.868L80.3458 212.838C70.2018 209.515 60.0746 206.141 49.964 202.715L19.6309 192.44L50.3058 201.65C60.5303 204.72 70.739 207.841 80.932 211.011L111.528 220.465C121.736 223.588 131.905 226.833 142.085 230.044L141.493 229.984L212.69 222.119L283.927 214.626C307.666 212.066 331.439 209.822 355.195 207.418C367.072 206.212 378.956 205.062 390.846 203.97L426.513 200.668Z" fill="white"/>
<path d="M19.627 207.544C29.6931 211.04 39.6959 214.702 49.7287 218.285L79.7258 229.3L94.718 234.824L109.662 240.472L139.55 251.77L138.787 251.678C153.03 249.758 167.302 248.062 181.563 246.278L224.356 241.01L267.187 236.031C281.476 234.467 295.757 232.841 310.063 231.403C295.855 233.604 281.624 235.617 267.4 237.692L224.692 243.629L181.948 249.277C167.696 251.133 153.455 253.076 139.186 254.794L139.168 254.797C138.916 254.826 138.66 254.794 138.422 254.703L108.631 243.154L93.7347 237.38L78.8869 231.481L49.2044 219.649C39.344 215.616 29.4536 211.663 19.627 207.544Z" fill="white"/>
<path d="M137.775 398.398C137.47 384.467 137.372 370.541 137.48 356.621C137.544 342.698 137.797 328.78 138.088 314.863C138.438 300.947 138.83 287.033 139.411 273.123C139.946 259.211 140.691 245.305 141.646 231.403C141.955 245.334 142.055 259.26 141.946 273.181C141.881 287.103 141.628 301.021 141.334 314.938C140.979 328.854 140.587 342.768 140.005 356.679C139.469 370.59 138.726 384.496 137.775 398.398Z" fill="white"/>
<path d="M573.56 81.3663C571.561 80.4749 569.726 79.2543 568.133 77.7557C566.554 76.2123 565.188 74.4662 564.071 72.5633C562.975 70.6501 562.068 68.6351 561.363 66.5466C560.652 64.436 560.139 62.2641 559.832 60.059C559.818 59.958 559.821 59.8556 559.839 59.7555L559.874 59.5734C560.375 57.3076 560.633 54.9949 560.642 52.6746C560.659 50.3642 560.415 48.0594 559.914 45.8035C558.918 41.3076 557.045 37.0511 554.402 33.2763L554.58 33.4635C551.769 30.7824 548.638 28.4561 545.259 26.537C541.828 24.6586 538.104 23.374 534.243 22.7379C526.321 21.7399 518.288 23.3141 511.333 27.2275C509.585 28.1608 507.9 29.2062 506.287 30.357C505.483 30.93 504.694 31.5232 503.935 32.1409C503.579 32.4346 503.131 32.7994 502.893 33.0468C502.591 33.3717 502.281 33.7508 501.983 34.1184C499.657 37.2091 497.906 40.6908 496.812 44.3983C495.712 48.0871 495.134 51.9113 495.096 55.7597C495.136 59.621 495.6 63.4662 496.481 67.2264C496.538 67.4951 496.543 67.7723 496.495 68.0428C496.127 70.0698 495.73 72.0524 495.281 74.0556C494.851 76.0961 494.307 78.111 493.652 80.0909C493.346 81.0177 492.616 82.6358 492.78 82.299C492.712 82.1831 492.817 82.4871 493.39 82.8859C494.693 83.6767 496.18 84.1145 497.704 84.1558L497.859 84.1499C498.2 84.1381 498.538 84.2097 498.845 84.3585C499.152 84.5073 499.417 84.7287 499.618 85.0035C501.896 88.148 504.303 91.2489 506.692 94.3202C509.02 97.3699 511.546 100.264 514.254 102.984C514.588 103.287 514.922 103.573 515.249 103.822C515.404 103.931 515.568 104.048 515.703 104.128L515.883 104.228C515.937 104.257 515.925 104.237 515.945 104.261C516.01 104.296 515.804 104.226 515.748 104.283C515.698 104.313 515.909 104.25 515.977 104.238C516.189 104.194 516.399 104.138 516.605 104.072C517.033 103.953 517.476 103.797 517.914 103.65C519.693 102.996 521.417 102.201 523.068 101.272C526.449 99.5362 529.359 97.0102 531.549 93.9094L531.602 93.8279C531.646 93.7595 531.703 93.7004 531.77 93.654C531.837 93.6076 531.912 93.5748 531.992 93.5575C532.072 93.5403 532.154 93.5388 532.234 93.5533C532.315 93.5678 532.391 93.5979 532.46 93.6419L532.527 93.6918C533.5 94.5124 534.404 95.4098 535.233 96.3752C535.652 96.858 536.028 97.3773 536.355 97.9269C536.709 98.4785 536.952 99.0934 537.071 99.7374C537.078 99.7873 537.066 99.8381 537.038 99.8798C537.009 99.9214 536.966 99.9509 536.917 99.9623C536.867 99.9736 536.816 99.9662 536.772 99.9413C536.728 99.9164 536.695 99.876 536.679 99.828L536.676 99.8161C536.213 98.721 535.492 97.7535 534.574 96.9954C533.69 96.1751 532.742 95.4265 531.738 94.7567L532.716 94.539C530.756 98.1627 527.881 101.213 524.377 103.388C522.673 104.524 520.881 105.521 519.017 106.37C518.535 106.572 518.065 106.788 517.551 106.961C517.305 107.055 517.044 107.142 516.766 107.22C516.607 107.274 516.444 107.315 516.278 107.343C515.97 107.392 515.655 107.388 515.348 107.331C514.654 107.17 513.998 106.877 513.415 106.467C512.937 106.148 512.504 105.817 512.089 105.483C509.062 102.809 506.251 99.9012 503.682 96.7868C501.076 93.7773 498.643 90.672 496.212 87.512L498.126 88.3589C496.851 88.4388 495.573 88.3005 494.346 87.9501C493.138 87.6405 491.991 87.1289 490.954 86.4372C490.318 86.0171 489.763 85.4848 489.318 84.8666C488.74 84.081 488.444 83.1236 488.479 82.1495C488.491 81.6736 488.587 81.2036 488.764 80.7617L488.992 80.1895L489.116 79.9144C489.283 79.5622 489.444 79.1135 489.596 78.6853C490.79 74.9449 491.78 71.1425 492.56 67.2949L492.574 68.1106C491.735 64.0192 491.353 59.8476 491.435 55.6723C491.603 51.4781 492.427 47.3359 493.877 43.3955C494.232 42.4121 494.685 41.4627 495.103 40.5074C495.606 39.5878 496.028 38.632 496.6 37.7523C497.655 35.9448 498.893 34.2494 500.294 32.6925C500.656 32.3035 501.006 31.9244 501.416 31.5394C501.831 31.1853 502.264 30.8532 502.713 30.5441C503.555 29.9462 504.414 29.3846 505.285 28.8464C507.026 27.7657 508.844 26.8274 510.674 25.9299C518.024 22.2407 526.226 20.5678 534.437 21.0826C538.583 21.43 542.641 22.4676 546.443 24.1523C550.252 25.8655 553.782 28.1392 556.914 30.8975C556.974 30.9493 557.029 31.0061 557.079 31.0673L557.093 31.0851C558.697 33.1343 560.032 35.3802 561.065 37.7678C562.109 40.1135 562.876 42.572 563.353 45.094C563.877 47.6106 564.075 50.1837 563.945 52.7506C563.831 55.3078 563.43 57.8442 562.751 60.3126L562.794 59.8279C562.949 61.8535 563.288 63.8609 563.807 65.8253C564.31 67.8183 564.993 69.762 565.845 71.633C566.71 73.5014 567.802 75.2567 569.097 76.8594C570.433 78.4641 572 79.8626 573.747 81.0095L573.759 81.0182C573.801 81.0468 573.83 81.0899 573.841 81.139C573.853 81.1882 573.845 81.2397 573.82 81.2835C573.795 81.3273 573.754 81.3601 573.706 81.3754C573.658 81.3908 573.606 81.3875 573.56 81.3663Z" fill="white"/>
<path d="M500.095 79.0961C499.744 79.0966 499.399 79.0056 499.094 78.8321C498.789 78.6586 498.535 78.4085 498.357 78.1068L492.791 68.6915C492.656 68.464 492.567 68.212 492.529 67.9501C492.492 67.6881 492.506 67.4213 492.572 67.165C492.638 66.9086 492.754 66.6678 492.913 66.4562C493.072 66.2446 493.272 66.0665 493.5 65.932C493.729 65.7975 493.982 65.7092 494.244 65.6724C494.507 65.6355 494.774 65.6506 495.031 65.717C495.288 65.7834 495.529 65.8996 495.74 66.0591C495.952 66.2186 496.13 66.4181 496.264 66.6464L501.83 76.0616C502.011 76.367 502.108 76.7147 502.11 77.0694C502.113 77.4241 502.022 77.7731 501.845 78.0812C501.669 78.3893 501.415 78.6454 501.107 78.8237C500.8 79.0019 500.451 79.0959 500.095 79.0961Z" fill="white"/>
<path d="M495.751 70.7415C495.537 70.7412 495.328 70.6728 495.155 70.5461C494.982 70.4194 494.854 70.241 494.79 70.0369C494.725 69.8327 494.728 69.6134 494.797 69.4108C494.866 69.2082 494.998 69.0328 495.174 68.91C498.099 66.8744 523.926 49.0617 529.419 49.2818C529.551 49.2878 529.681 49.3197 529.801 49.3758C529.921 49.4319 530.028 49.511 530.118 49.6086C530.207 49.7062 530.276 49.8204 530.321 49.9447C530.366 50.0689 530.386 50.2008 530.38 50.3328C530.364 50.5981 530.245 50.8467 530.049 51.0258C529.852 51.205 529.593 51.3005 529.327 51.2921C529.302 51.2904 529.276 51.2905 529.25 51.2905C525.444 51.2905 507.086 63.0738 496.327 70.5594C496.158 70.6775 495.957 70.741 495.751 70.7415Z" fill="white"/>
<path d="M526.469 55.1152C526.433 53.6131 526.917 52.1446 527.84 50.9569C528.118 50.634 528.459 50.3701 528.841 50.1808C529.224 49.9914 529.64 49.8804 530.066 49.8543L530.715 49.8441C530.923 49.8678 531.117 49.9276 531.319 49.9707C531.715 50.0469 532.098 50.1806 532.455 50.3676C533.156 50.6874 533.818 51.0851 534.429 51.5532C534.987 52.0444 535.575 52.4911 536.109 53.0281C537.177 54.1149 538.058 55.369 538.718 56.7405C539.981 59.5006 540.339 62.5877 539.741 65.5625C539.47 67.0422 538.895 68.4499 538.052 69.6971C537.62 70.3446 537.025 70.868 536.327 71.2151C535.979 71.3908 535.583 71.446 535.2 71.3722C534.817 71.2983 534.469 71.0995 534.212 70.8071C534.489 70.9869 534.816 71.0759 535.147 71.0617C535.477 71.0475 535.795 70.9308 536.056 70.728C536.558 70.3155 536.952 69.7867 537.203 69.1878C537.749 67.967 538.081 66.6618 538.185 65.329C538.444 62.6814 537.998 60.0125 536.893 57.5917C536.343 56.4016 535.613 55.3032 534.728 54.3353C534.297 53.8382 533.781 53.3915 533.31 52.9114C532.82 52.49 532.298 52.1064 531.749 51.7642C531.297 51.3946 530.736 51.1846 530.152 51.1669C529.568 51.1493 528.994 51.3249 528.521 51.6664C527.53 52.6041 526.819 53.7981 526.469 55.1152ZM501.974 92.2791C503.519 92.1082 505.048 91.8206 506.549 91.4188C507.237 91.2277 507.904 90.9674 508.54 90.642C509.225 90.3317 509.863 89.8953 510.699 89.4726C510.563 90.3827 510.143 91.2271 509.499 91.8862C508.856 92.5788 508.036 93.0833 507.126 93.3452C506.233 93.6063 505.291 93.6509 504.377 93.475C503.475 93.3225 502.639 92.9063 501.974 92.2791ZM495.75 63.7485C495.677 62.3699 496.129 61.0147 497.014 59.9538C497.894 58.8608 499.054 58.0256 500.371 57.5367C501.647 57.0684 503.002 56.8521 504.361 56.8999C505.019 56.949 505.674 57.0331 506.324 57.152C506.962 57.3157 507.588 57.5223 508.198 57.7706C507.573 57.9309 506.938 58.0542 506.297 58.1398C505.679 58.2526 505.076 58.3867 504.477 58.4655C503.326 58.6908 502.195 59.0076 501.095 59.4128C498.865 60.1993 496.976 61.7311 495.75 63.7485ZM504.207 72.3461C504.795 72.3258 505.352 72.0784 505.761 71.6562C506.17 71.234 506.398 70.6699 506.398 70.0828C506.398 69.4957 506.17 68.9316 505.761 68.5094C505.352 68.0872 504.795 67.8398 504.207 67.8195C503.619 67.8398 503.062 68.0872 502.653 68.5094C502.244 68.9316 502.015 69.4957 502.015 70.0828C502.015 70.6699 502.244 71.234 502.653 71.6562C503.062 72.0784 503.619 72.3258 504.207 72.3461ZM549.94 129.712C547.634 127.795 545.016 126.284 542.2 125.244C539.423 124.205 536.541 123.469 533.604 123.05C530.65 122.607 527.67 122.362 524.683 122.318L520.155 122.339C518.643 122.407 517.125 122.483 515.58 122.47C517.051 122.042 518.548 121.702 520.051 121.356C521.568 121.127 523.095 120.895 524.632 120.748C527.728 120.501 530.843 120.606 533.915 121.063C537.014 121.516 540.024 122.444 542.838 123.815C545.674 125.138 548.121 127.17 549.94 129.712ZM436.782 212.244C437.644 209.394 438.789 206.636 440.2 204.012C441.576 201.357 443.188 198.831 445.015 196.462C446.831 194.052 448.954 191.888 451.33 190.024C453.681 188.11 456.466 186.798 459.441 186.203C456.834 187.503 454.443 189.194 452.351 191.219C450.264 193.216 448.344 195.381 446.61 197.691C443.031 202.262 439.97 207.236 436.782 212.244ZM508.198 243.178C509.106 243.407 510.051 243.455 510.977 243.318C511.897 243.216 512.802 243.011 513.676 242.707L514.964 242.199C515.387 242.019 515.782 241.769 516.191 241.559C517.003 241.123 517.781 240.624 518.515 240.066C521.466 237.83 524.093 235.198 526.321 232.245C527.401 230.736 528.498 229.239 529.531 227.698C530.499 226.11 531.539 224.57 532.448 222.946L535.151 218.058L537.614 213.035C540.869 206.285 544.053 199.46 547.418 192.746L552.456 182.666C554.202 179.339 555.885 175.982 557.683 172.684C556.293 176.186 554.787 179.628 553.344 183.101L548.815 193.418C545.779 200.292 542.661 207.102 539.433 213.901C536.286 220.808 532.285 227.296 527.523 233.212C525.077 236.152 522.229 238.733 519.062 240.88C518.254 241.397 517.407 241.85 516.527 242.235C516.084 242.42 515.66 242.642 515.205 242.796L513.828 243.215C511.991 243.77 510.028 243.757 508.198 243.178ZM506.336 197.833C506.215 197.833 506.095 197.811 505.982 197.768L496.956 194.387C496.707 194.292 496.505 194.103 496.395 193.861C496.286 193.618 496.277 193.342 496.371 193.093C496.464 192.844 496.653 192.642 496.896 192.531C497.139 192.421 497.415 192.411 497.665 192.503L506.691 195.885C506.912 195.968 507.097 196.125 507.213 196.33C507.329 196.535 507.37 196.775 507.328 197.006C507.286 197.238 507.163 197.448 506.982 197.599C506.801 197.75 506.572 197.833 506.336 197.833ZM432.212 195.327C430.042 196.003 427.742 196.154 425.501 195.769C423.228 195.357 421.051 194.529 419.08 193.326C417.125 192.136 415.325 190.71 413.722 189.078C412.116 187.43 410.69 185.617 409.468 183.668L411.519 184.517C407.355 185.583 403.059 186.046 398.763 185.892C396.565 185.857 394.386 185.489 392.3 184.798C391.186 184.421 390.2 183.743 389.451 182.838C389.061 182.373 388.764 181.839 388.576 181.263C388.439 180.655 388.439 180.025 388.576 179.417C388.878 178.306 389.467 177.293 390.283 176.48C391.009 175.675 391.805 174.936 392.663 174.274C394.324 172.941 396.072 171.72 397.895 170.618C401.485 168.401 405.226 166.438 409.091 164.744C411.037 163.948 412.86 163.019 415.096 162.335C417.274 161.673 419.535 161.32 421.812 161.288C424.062 161.279 426.303 161.579 428.471 162.18C430.614 162.714 432.698 163.464 434.689 164.419C438.568 166.31 442.164 168.734 445.371 171.618C448.564 174.405 451.399 177.576 453.81 181.059C453.838 181.099 453.85 181.148 453.844 181.197C453.839 181.246 453.815 181.29 453.779 181.323C453.742 181.356 453.695 181.375 453.646 181.375C453.597 181.376 453.549 181.359 453.512 181.327L453.502 181.319C447.445 175.844 440.545 171.377 433.067 168.086C431.265 167.32 429.391 166.736 427.472 166.343C425.619 165.845 423.709 165.583 421.789 165.565C419.895 165.506 418.002 165.705 416.162 166.156C414.38 166.585 412.415 167.43 410.474 168.114C406.617 169.583 402.733 170.977 398.965 172.622C397.101 173.453 395.296 174.411 393.565 175.491C392.733 176.042 391.954 176.669 391.237 177.363C390.551 177.996 390.044 178.798 389.768 179.689C389.658 180.102 389.663 180.538 389.782 180.949C389.902 181.36 390.131 181.731 390.446 182.022C391.056 182.708 391.872 183.18 392.772 183.367C394.716 183.761 396.714 183.814 398.677 183.522C402.679 182.899 406.646 182.07 410.562 181.037C410.95 180.948 411.357 180.981 411.724 181.134C412.092 181.286 412.403 181.549 412.613 181.887C413.673 183.613 414.883 185.243 416.228 186.758C417.561 188.307 419.049 189.717 420.669 190.964C422.278 192.21 424.069 193.204 425.98 193.909C427.956 194.619 430.044 194.965 432.144 194.93C432.198 194.929 432.25 194.949 432.289 194.986C432.328 195.024 432.351 195.075 432.352 195.129C432.352 195.172 432.339 195.215 432.314 195.25C432.289 195.286 432.253 195.313 432.212 195.327ZM466.311 336.81L470.839 347.847C470.86 347.898 470.865 347.954 470.855 348.008C470.845 348.061 470.82 348.111 470.782 348.151C470.744 348.191 470.695 348.218 470.641 348.231C470.588 348.244 470.532 348.24 470.48 348.222L470.463 348.215C468.19 347.331 465.809 346.752 463.383 346.493C460.971 346.291 458.541 346.472 456.185 347.029C451.501 348.345 447.246 350.867 443.847 354.342C440.406 357.798 437.435 361.691 435.01 365.92C432.522 370.116 430.429 374.534 428.758 379.116L428.755 379.126C428.698 379.283 428.595 379.418 428.459 379.515C428.323 379.611 428.161 379.664 427.994 379.666C427.827 379.668 427.664 379.619 427.526 379.526C427.388 379.433 427.281 379.299 427.221 379.144L418.429 356.482L409.785 333.764L411.39 333.377L414.484 364.793C415.484 375.268 416.572 385.734 417.666 396.199C417.674 396.268 417.659 396.338 417.625 396.398C415.248 400.128 411.654 402.924 407.449 404.313C403.33 405.728 399.024 406.531 394.671 406.696C390.34 406.902 385.999 406.802 381.682 406.395C377.361 406.007 373.066 405.365 368.821 404.472C368.72 404.451 368.627 404.399 368.556 404.324C368.485 404.25 368.438 404.155 368.422 404.053L368.42 404.039C365.951 388.15 363.877 372.21 362.199 356.219C360.568 340.224 359.325 324.178 358.908 308.078C358.874 304.05 358.836 300.022 358.895 295.993L359.097 289.946L359.209 286.923L359.457 283.901L359.969 277.859L360.885 271.841C361.204 269.83 361.646 267.841 362.209 265.884C362.466 264.898 362.692 263.903 362.977 262.925L364.054 260.051L365.147 257.185C365.598 256.266 366.096 255.366 366.569 254.457C367.06 253.556 367.502 252.629 368.035 251.753L369.809 249.23C371.002 247.554 372.335 245.981 373.792 244.528C374.523 243.803 375.296 243.12 376.106 242.484C376.867 241.791 377.686 241.163 378.553 240.607L381.148 238.931L383.913 237.56C384.842 237.12 385.797 236.737 386.772 236.413C387.729 236.04 388.711 235.735 389.711 235.5C393.686 234.414 397.819 234.02 401.928 234.337L401.267 234.711C402.127 232.863 403.192 231.116 404.442 229.504C405.723 227.924 407.171 226.487 408.762 225.218C411.987 222.773 415.616 220.911 419.486 219.718C423.321 218.538 427.274 217.785 431.275 217.471C435.256 217.123 439.261 217.135 443.24 217.507C443.266 217.51 443.291 217.523 443.308 217.544C443.325 217.564 443.333 217.591 443.33 217.617C443.327 217.643 443.313 217.668 443.292 217.684C443.271 217.701 443.245 217.709 443.218 217.707C439.254 217.453 435.275 217.556 431.33 218.016C427.394 218.44 423.517 219.296 419.77 220.568C416.033 221.79 412.539 223.651 409.443 226.069C407.941 227.306 406.578 228.701 405.376 230.23C404.213 231.781 403.227 233.457 402.435 235.226C402.381 235.345 402.293 235.444 402.181 235.511C402.07 235.578 401.941 235.611 401.81 235.604L401.774 235.601C393.845 235.156 385.997 237.396 379.503 241.958C373.167 246.699 368.436 253.259 365.944 260.76L364.911 263.53C364.639 264.478 364.423 265.446 364.176 266.402C363.633 268.307 363.208 270.243 362.904 272.199L362.022 278.093L361.534 284.056L361.296 287.038L361.193 290.034L361.009 296.029C360.955 300.028 361.025 304.033 361.039 308.035C361.335 324.056 362.49 340.07 363.971 356.046C365.424 372.026 367.255 387.971 369.465 403.88L369.065 403.447C373.253 404.396 377.494 405.098 381.765 405.55C386.036 406.033 390.339 406.178 394.633 405.985C398.92 405.848 403.164 405.083 407.228 403.715C411.308 402.412 414.79 399.702 417.05 396.071L417.009 396.27C415.847 385.812 414.679 375.355 413.423 364.907L409.735 333.556C409.711 333.355 409.762 333.153 409.877 332.987C409.992 332.821 410.164 332.703 410.36 332.654C410.557 332.605 410.764 332.63 410.944 332.723C411.123 332.816 411.263 332.971 411.336 333.159L411.34 333.169L420.122 355.835L428.748 378.561L427.211 378.589C428.952 373.915 431.125 369.413 433.702 365.14C436.246 360.835 439.363 356.893 442.966 353.422C446.572 349.873 451.051 347.333 455.953 346.056C458.42 345.519 460.961 345.398 463.469 345.697C465.951 346.037 468.377 346.707 470.682 347.687L470.306 348.056L466.123 336.883C466.114 336.858 466.115 336.831 466.125 336.807C466.136 336.783 466.156 336.764 466.181 336.754C466.205 336.744 466.233 336.745 466.257 336.755C466.281 336.766 466.301 336.785 466.311 336.81Z" fill="white"/>
<path d="M410.563 333.466L412.358 350.044L401.247 287.175L413.385 340.809L410.563 333.466Z" fill="white"/>
<path d="M492.869 244.927C470.449 244.927 404.846 236.377 401.721 235.967C401.589 235.95 401.462 235.908 401.347 235.842C401.232 235.776 401.131 235.688 401.05 235.583C400.969 235.479 400.91 235.359 400.876 235.231C400.841 235.103 400.832 234.97 400.849 234.839C400.867 234.708 400.91 234.581 400.976 234.467C401.042 234.352 401.131 234.252 401.236 234.171C401.341 234.091 401.461 234.032 401.589 233.998C401.718 233.964 401.851 233.955 401.983 233.973C402.841 234.084 488.014 245.178 498.619 242.527C498.747 242.494 498.881 242.487 499.012 242.506C499.143 242.525 499.27 242.569 499.384 242.637C499.498 242.705 499.597 242.794 499.676 242.9C499.756 243.007 499.813 243.127 499.845 243.256C499.878 243.384 499.884 243.517 499.865 243.648C499.845 243.779 499.8 243.905 499.732 244.019C499.664 244.132 499.574 244.231 499.467 244.31C499.36 244.388 499.239 244.445 499.11 244.477C497.052 244.847 494.959 244.998 492.869 244.927Z" fill="white"/>
<path d="M645.758 134.539C645.758 134.539 573.167 117.649 555.263 204.076C537.359 290.487 532.794 284.214 532.794 284.214C500.122 331.464 436.402 302.482 421.942 295.042C420.3 294.154 418.426 293.786 416.569 293.986C414.712 294.185 412.959 294.944 411.544 296.161C407.662 299.71 408.262 305.448 408.262 305.448L408.539 311.948C408.588 312.996 408.863 314.02 409.345 314.951C409.827 315.883 410.506 316.699 411.333 317.346C434.891 336.019 476.824 339.893 514.777 337.915C516.953 337.802 519.131 337.672 521.275 337.51C554.078 335.225 582.851 328.806 592.534 324.299C614.304 314.153 620.592 318.497 654.467 229.168C688.357 139.855 645.758 134.539 645.758 134.539ZM660.202 158.35L660.185 158.334C650.666 153.159 639.707 151.245 628.992 152.888C618.464 154.654 609.252 160.798 602.2 168.691C598.645 172.683 595.479 177.004 592.745 181.594C589.948 186.2 587.462 190.987 585.304 195.923C581.047 205.892 577.491 216.145 574.662 226.607C573.281 231.859 571.835 237.127 570.6 242.443C569.951 245.102 569.187 247.727 568.505 250.37C567.822 253.012 567.091 255.638 566.344 258.263C563.585 268.868 560.161 279.289 556.092 289.466C555.069 292.011 553.834 294.475 552.648 296.955C551.316 299.386 550.097 301.85 548.586 304.168C545.735 308.95 542.326 313.379 538.432 317.362C534.526 321.435 529.711 324.529 524.378 326.391C523.259 326.752 522.113 327.023 520.951 327.201C519.004 327.506 517.026 327.544 515.069 327.315C512.607 327.013 510.238 326.196 508.115 324.916C508.097 324.904 508.081 324.89 508.068 324.872C508.055 324.854 508.046 324.834 508.042 324.813C508.037 324.792 508.037 324.77 508.041 324.748C508.046 324.727 508.054 324.707 508.067 324.689C508.086 324.656 508.116 324.632 508.152 324.62C508.188 324.608 508.227 324.609 508.262 324.624L508.278 324.64C510.468 325.644 512.839 326.195 515.248 326.261C515.524 326.277 515.8 326.293 516.077 326.293C517.636 326.276 519.189 326.085 520.707 325.726C521.765 325.477 522.807 325.163 523.826 324.786C528.729 322.724 533.105 319.589 536.629 315.612C540.238 311.651 543.419 307.32 546.116 302.693C547.546 300.407 548.765 297.992 550.065 295.642C551.218 293.194 552.551 290.844 553.623 288.364C558.26 278.531 562.17 268.374 565.32 257.972C566.945 252.769 568.196 247.468 569.48 242.184C570.714 236.867 571.738 231.534 572.94 226.186C575.176 215.435 578.373 204.905 582.493 194.723C586.56 184.375 592.356 174.789 599.634 166.374C603.405 162.189 607.813 158.623 612.696 155.805C617.608 153.001 623.013 151.158 628.618 150.375C639.778 149.115 651.024 151.836 660.364 158.058C660.382 158.07 660.398 158.085 660.411 158.103C660.423 158.12 660.432 158.14 660.436 158.162C660.441 158.183 660.441 158.205 660.437 158.226C660.433 158.247 660.425 158.267 660.413 158.285C660.39 158.318 660.357 158.343 660.319 158.354C660.28 158.366 660.239 158.365 660.202 158.35ZM588.858 449.43C588.824 451.095 588.296 452.712 587.341 454.077C586.403 455.422 585.27 456.62 583.979 457.633C581.411 459.645 578.609 461.342 575.635 462.687C569.698 465.387 563.507 467.491 557.152 468.969C544.458 471.973 531.427 473.324 518.384 472.989C505.387 472.651 492.449 471.105 479.739 468.371C473.363 467.084 467.115 465.23 461.071 462.831C458.005 461.609 455.1 460.018 452.421 458.094C451.034 457.09 449.813 455.876 448.801 454.497C447.713 453.023 447.088 451.259 447.008 449.43C447.009 447.576 447.559 445.764 448.59 444.222C449.555 442.765 450.74 441.465 452.104 440.369C454.72 438.259 457.615 436.517 460.706 435.192C466.739 432.561 473.036 430.577 479.489 429.275C492.281 426.615 505.318 425.316 518.384 425.4C531.441 425.34 544.459 426.827 557.165 429.831C563.518 431.328 569.709 433.442 575.649 436.143C578.624 437.491 581.426 439.193 583.993 441.21C585.284 442.225 586.416 443.427 587.351 444.776C588.304 446.145 588.828 447.764 588.858 449.43ZM588.455 449.43C588.398 446.22 586.113 443.554 583.62 441.676C581.038 439.791 578.205 438.273 575.203 437.169C569.193 434.954 562.969 433.364 556.632 432.425C543.973 430.524 531.185 429.609 518.384 429.691C505.6 429.633 492.836 430.735 480.251 432.982C474.012 434.117 467.895 435.837 461.98 438.12C459.092 439.251 456.352 440.728 453.82 442.516C451.4 444.286 449.316 446.68 449.216 449.43C449.132 452.189 451.13 454.807 453.503 456.741C455.97 458.72 458.7 460.348 461.616 461.578C467.519 464.094 473.686 465.944 480.002 467.093C486.322 468.277 492.715 469.032 499.137 469.352C505.549 469.744 511.975 469.781 518.384 469.64C531.194 469.448 543.976 468.397 556.644 466.495C562.981 465.537 569.203 463.937 575.216 461.722C578.219 460.614 581.053 459.093 583.634 457.203C586.126 455.319 588.406 452.64 588.455 449.43ZM413.674 400.509C414.735 402.443 415.519 404.515 416.003 406.667C416.564 408.791 416.994 410.942 417.362 413.101C418.082 417.421 418.668 421.761 419.075 426.116C419.266 428.316 419.481 430.425 419.586 432.699C419.64 434.997 419.249 437.284 418.433 439.434C418.021 440.518 417.482 441.548 416.826 442.505C416.163 443.429 415.437 444.307 414.654 445.134C413.093 446.781 411.292 448.183 409.311 449.293C405.371 451.444 401.014 452.726 396.535 453.053C394.319 453.246 392.089 453.193 389.885 452.896C388.777 452.762 387.682 452.535 386.612 452.218C385.55 451.891 384.528 451.52 383.494 451.146C375.215 448.145 367.685 443.579 359.542 440.461C351.454 437.246 343.106 434.536 335.09 430.892C330.998 429.142 327.11 426.949 323.498 424.353C321.674 422.992 320.029 421.408 318.602 419.638C317.784 418.641 317.255 417.44 317.073 416.164C316.98 415.508 316.996 414.842 317.119 414.191C317.263 413.562 317.486 412.954 317.785 412.382C319.029 410.314 320.866 408.665 323.058 407.648C325.118 406.625 327.334 405.952 329.616 405.655C330.745 405.505 331.884 405.432 333.023 405.435C334.154 405.481 335.323 405.567 336.358 405.651C338.488 405.83 340.661 405.83 342.829 405.799C351.519 405.625 360.237 404.785 368.928 403.86C368.954 403.857 368.981 403.865 369.002 403.881C369.023 403.897 369.037 403.921 369.04 403.948C369.043 403.973 369.036 403.999 369.021 404.019C369.006 404.04 368.983 404.054 368.958 404.059C360.343 405.707 351.633 406.813 342.88 407.371C340.679 407.463 338.474 407.527 336.24 407.403C335.095 407.341 334.079 407.3 333.026 407.282C331.98 407.309 330.936 407.406 329.902 407.572C327.85 407.901 325.862 408.545 324.008 409.48C322.218 410.326 320.718 411.679 319.694 413.37C319.275 414.157 319.109 415.053 319.216 415.937C319.324 416.822 319.7 417.653 320.296 418.317C321.619 419.943 323.125 421.412 324.785 422.695C328.237 425.253 331.96 427.425 335.887 429.174C343.746 432.877 351.968 435.849 359.977 439.449C363.99 441.218 367.888 443.234 371.786 445.208C375.624 447.274 379.617 449.04 383.729 450.491C385.737 451.283 387.838 451.816 389.981 452.075C392.126 452.267 394.286 452.221 396.42 451.939C400.677 451.436 404.779 450.043 408.459 447.851C410.264 446.769 411.909 445.441 413.347 443.905C414.807 442.429 415.974 440.692 416.787 438.783C417.555 436.853 417.942 434.793 417.927 432.716C417.867 430.632 417.685 428.394 417.534 426.246C417.196 421.909 416.877 417.567 416.316 413.256C415.965 408.932 415.018 404.677 413.501 400.612L413.496 400.601C413.486 400.578 413.485 400.552 413.493 400.527C413.501 400.503 413.519 400.483 413.542 400.472C413.564 400.46 413.591 400.457 413.615 400.464C413.64 400.471 413.661 400.487 413.674 400.509Z" fill="white"/>
<path d="M376.881 405.388C377.081 407.712 377.421 410.023 377.902 412.306C378.34 414.557 379.003 416.758 379.88 418.877C380.655 420.912 381.993 422.686 383.739 423.992C384.585 424.557 385.556 424.908 386.568 425.014C387.617 425.093 388.672 424.983 389.682 424.69C391.824 424.055 393.846 423.072 395.666 421.779C397.554 420.545 399.241 419.029 400.667 417.284C403.584 413.696 405.254 409.26 405.427 404.643C406.029 409.453 404.775 414.311 401.92 418.233C399.004 422.201 394.899 425.143 390.198 426.633C388.947 426.975 387.644 427.087 386.353 426.965C385.024 426.816 383.755 426.333 382.665 425.56C380.664 424 379.185 421.871 378.423 419.454C376.955 414.919 376.43 410.132 376.881 405.388ZM342.084 418.082C341.534 416.809 341.347 415.408 341.544 414.035C341.712 412.622 342.22 411.271 343.025 410.096C343.826 408.922 344.897 407.956 346.149 407.278C346.752 406.943 347.391 406.674 348.054 406.478C348.715 406.311 349.39 406.205 350.071 406.16C349.548 406.626 348.998 406.964 348.495 407.363C348.013 407.79 347.482 408.118 347.054 408.563C346.834 408.778 346.609 408.979 346.38 409.173L345.779 409.838C345.375 410.267 345.012 410.731 344.693 411.225C343.346 413.301 342.457 415.638 342.084 418.082ZM352.973 418.082C352.412 416.832 352.237 415.443 352.47 414.093C352.673 412.735 353.133 411.428 353.827 410.243C354.526 409.082 355.412 408.043 356.447 407.167C356.963 406.744 357.506 406.355 358.073 406.004C358.659 405.682 359.268 405.403 359.894 405.169C359.533 405.715 359.143 406.241 358.726 406.746L357.59 408.247C356.863 409.216 356.187 410.222 355.564 411.261C354.296 413.361 353.419 415.672 352.973 418.082Z" fill="white"/>
<path d="M371.948 455.945C368.172 454.719 364.531 453.114 361.079 451.156C355.191 447.797 344.907 442.023 342.003 440.897C332.848 437.315 321.982 433.614 318.068 427.618C311.396 417.4 318.065 412.121 318.065 412.121C320.176 423.364 333.373 429.671 352.247 436.913C371.121 444.155 373.46 447.575 386.365 451.76C393.221 453.993 408.768 452.665 416.088 441.982C416.61 441.223 417.056 440.415 417.419 439.568L418.759 429.07C428.665 468.264 386.466 460.632 371.948 455.945ZM431.326 425.846C429.31 425.189 427.552 423.916 426.301 422.208C425.049 420.5 424.368 418.442 424.352 416.326C424.171 413.294 424.966 410.283 426.621 407.733C428.275 405.182 430.703 403.226 433.551 402.149C443.77 397.856 448.61 385.387 450.431 379.215C451.955 373.969 454.314 369 457.416 364.499C462.504 357.182 470.488 349.864 480.23 355.091C483.607 357.011 486.17 360.089 487.442 363.753C489.881 370.282 493.793 376.729 483.207 391.092C481.49 393.39 479.635 395.58 477.652 397.653C474.584 400.958 472.181 404.82 470.573 409.029C469.102 413.133 454.706 433.265 431.326 425.846Z" fill="white"/>
<path d="M433.257 367.425C434.278 372.632 434.27 377.988 433.235 383.193C432.259 388.433 430.446 393.483 427.865 398.15C426.578 400.446 425.162 402.669 423.625 404.807C422.944 405.848 422.404 406.975 422.02 408.157C421.685 409.36 421.546 410.61 421.611 411.857C421.606 414.425 422.066 416.973 422.968 419.378C423.364 420.606 424.074 421.71 425.029 422.58C425.983 423.451 427.149 424.058 428.41 424.341C427.075 424.233 425.807 423.706 424.79 422.835C423.787 421.939 422.977 420.848 422.409 419.629C421.285 417.198 420.638 414.573 420.504 411.899C420.384 410.533 420.462 409.157 420.737 407.813C421.052 406.472 421.555 405.182 422.231 403.982C423.613 401.633 424.981 399.569 426.144 397.236C428.538 392.678 430.354 387.841 431.55 382.836C432.808 377.799 433.382 372.615 433.257 367.425ZM466.257 346.566C467.217 346.628 468.157 346.861 469.035 347.252C469.902 347.617 470.721 348.085 471.474 348.646C472.242 349.216 472.921 349.897 473.49 350.664C474.107 351.441 474.486 352.379 474.584 353.365C473.79 352.762 473.08 352.283 472.374 351.771L470.261 350.252C468.781 349.19 467.437 347.952 466.257 346.566ZM440.22 214.969C440.223 214.999 440.22 215.031 440.211 215.06C440.203 215.09 440.188 215.118 440.168 215.142C440.149 215.166 440.124 215.186 440.097 215.201C440.07 215.215 440.04 215.225 440.009 215.228L375.168 224.305L311.806 232.896L312.228 302.433L312.423 337.948L312.52 373.462C312.523 374.051 312.312 374.621 311.927 375.068C311.542 375.514 311.009 375.807 310.424 375.893H310.408L224.284 388.471L138.111 400.742H138.095C137.627 400.809 137.15 400.729 136.73 400.515L77.4778 371.03L18.3071 341.384H18.2909C18.0145 341.245 17.7827 341.032 17.6219 340.768C17.461 340.505 17.3775 340.201 17.381 339.893L18.2909 266.173C18.6321 241.584 18.6646 217.011 18.8756 192.438C18.8772 192.252 18.9477 192.072 19.0737 191.935C19.1997 191.797 19.3722 191.71 19.5582 191.692L67.7623 186.602L69.7606 186.392L70.1993 186.343C69.9395 186.959 69.6793 187.575 69.4357 188.207L68.0221 188.353L20.3867 193.119C20.403 217.481 20.2404 241.827 20.3867 266.173L20.7117 338.872L79.3465 367.27L138.144 395.96L223.553 383.398L307.598 371.338L307.695 337.948L307.906 302.433L308.345 231.405V231.389C308.345 230.974 308.498 230.574 308.773 230.264C309.048 229.953 309.427 229.754 309.84 229.703L374.875 222.101L439.96 214.758C439.991 214.755 440.022 214.758 440.052 214.767C440.082 214.776 440.11 214.79 440.134 214.81C440.158 214.829 440.178 214.853 440.193 214.881C440.207 214.908 440.217 214.938 440.22 214.969Z" fill="white"/>
<path d="M72.0016 186.149C72.2289 186.732 72.4728 187.316 72.7001 187.883C71.8228 187.964 70.9458 188.062 70.0684 188.142C70.4095 187.51 70.7506 186.878 71.0755 186.246L72.0016 186.149ZM73.2364 186.019C74.6822 185.873 76.1283 185.727 77.5742 185.565C77.3144 186.197 77.0542 186.846 76.7943 187.478C75.8844 187.559 74.9749 187.656 74.065 187.753C73.7889 187.17 73.5125 186.603 73.2364 186.019ZM79.0691 186.181L79.4912 187.202C79.1989 187.234 78.9065 187.267 78.6304 187.299C78.7764 186.927 78.9227 186.554 79.0691 186.181ZM84.6417 184.803H84.8039L84.0728 186.765C83.0657 186.862 82.0582 186.959 81.0674 187.056L80.401 185.257C81.8148 185.111 83.228 184.949 84.6417 184.803ZM85.6813 185.614L86.0225 186.57C85.7952 186.602 85.5513 186.619 85.324 186.635L85.6813 185.614ZM91.8226 184.528L91.1567 186.084L87.0625 186.473L86.4937 184.771C88.2647 184.722 90.0516 184.641 91.8226 184.528ZM92.3101 184.69L92.8139 185.922C92.4727 185.954 92.1315 185.987 91.7901 186.019L92.3101 184.69ZM503.646 169.729C503.632 169.788 503.595 169.84 503.544 169.873C503.493 169.906 503.43 169.918 503.37 169.907L462.201 161.235C448.554 158.35 434.922 155.427 421.308 152.466L371.316 158.058L321.13 163.423L270.927 168.772L220.709 173.846C203.958 175.548 187.208 177.104 170.457 178.676L120.189 183.361C112.456 184.074 104.728 184.798 97.0052 185.533C95.7542 185.646 94.5036 185.76 93.2525 185.889L92.7325 184.463C94.2271 184.35 95.7221 184.22 97.2329 184.025C96.3393 183.912 95.4293 183.815 94.5357 183.717C95.4781 183.62 96.4043 183.507 97.3301 183.409C104.869 182.567 112.402 181.718 119.93 180.864L170.1 175.24C186.817 173.344 203.536 171.463 220.27 169.745L270.489 164.477L320.724 159.501L370.959 154.541L421.21 149.824H421.243C421.373 149.818 421.504 149.829 421.633 149.856C435.296 153.033 448.943 156.27 462.574 159.566L503.467 169.437C503.499 169.443 503.529 169.456 503.555 169.475C503.581 169.493 503.603 169.517 503.62 169.544C503.637 169.572 503.648 169.602 503.652 169.634C503.657 169.666 503.655 169.698 503.646 169.729ZM162.22 325.726V382.555L289.985 366.135V311.089L162.22 325.726ZM234.811 350.007C225.387 350.007 225.404 335.419 234.811 335.419C244.234 335.419 244.218 350.007 234.811 350.007ZM162.22 258.701V315.53L289.985 299.11V244.064L162.22 258.701ZM234.811 282.982C225.387 282.982 225.404 268.394 234.811 268.394C244.234 268.394 244.218 282.982 234.811 282.982Z" fill="white"/>
<path d="M444.964 173.067L444.983 173.065C447.665 172.381 450.367 171.819 453.058 171.194C455.758 170.612 458.458 170.041 461.165 169.509C461.309 169.48 461.458 169.497 461.591 169.556L461.629 169.573C467.305 172.067 472.926 174.676 478.524 177.334C484.114 180.009 489.68 182.733 495.193 185.57L495.237 185.593C495.401 185.677 495.525 185.823 495.581 185.998C495.637 186.173 495.621 186.363 495.536 186.527C495.482 186.63 495.403 186.718 495.306 186.783C495.209 186.848 495.098 186.888 494.981 186.899C492.668 187.108 490.358 187.346 488.038 187.508C485.719 187.677 483.404 187.88 481.078 187.994C483.356 187.511 485.646 187.118 487.931 186.689C490.216 186.255 492.51 185.895 494.8 185.508L494.589 186.837C488.904 184.363 483.272 181.776 477.664 179.139C472.064 176.486 466.487 173.784 460.965 170.968L461.428 171.031C458.698 171.432 455.961 171.792 453.222 172.143C450.476 172.449 447.74 172.82 444.984 173.068L444.964 173.067ZM433.187 194.231L419.643 196.397C415.13 197.131 410.602 197.744 406.082 198.423C401.558 199.072 397.041 199.781 392.511 200.382L378.925 202.223C378.78 202.241 378.633 202.226 378.495 202.179C373.035 200.303 367.552 198.492 362.118 196.543L345.786 190.781C345.676 190.743 345.574 190.683 345.487 190.606C345.4 190.529 345.329 190.435 345.279 190.331C345.228 190.226 345.198 190.113 345.191 189.997C345.185 189.881 345.201 189.765 345.239 189.655C345.292 189.506 345.383 189.374 345.504 189.272C345.625 189.17 345.771 189.101 345.927 189.074C353.24 187.829 360.585 186.769 367.916 185.624C375.248 184.485 382.598 183.456 389.954 182.462C382.685 183.962 375.409 185.427 368.115 186.783C360.819 188.133 353.538 189.568 346.226 190.817L346.367 189.11L362.762 194.694C368.236 196.527 373.663 198.499 379.112 200.405L378.682 200.361L392.288 198.668C396.821 198.091 401.368 197.621 405.908 197.093C410.452 196.594 414.987 196.029 419.538 195.585C424.086 195.123 428.631 194.632 433.187 194.231ZM380.437 165.466C375.547 166.883 370.631 168.176 365.727 169.522C364.498 169.846 363.279 170.214 362.039 170.49L358.311 171.268L350.865 172.874L347.142 173.678C345.79 174.044 344.376 174.128 342.99 173.926C341.519 173.701 340.152 173.038 339.066 172.023C338.517 171.47 338.095 170.805 337.829 170.073C337.563 169.342 337.46 168.561 337.527 167.786C337.836 164.999 339.109 162.407 341.127 160.456C342.094 159.496 343.189 158.672 344.381 158.01C344.967 157.684 345.571 157.392 346.19 157.134C346.757 156.893 347.317 156.635 347.868 156.361C352.328 154.3 356.084 150.978 358.67 146.808C359.885 144.717 360.689 142.414 361.042 140.023C361.359 137.674 361.362 135.066 361.49 132.551L362.733 102.174L362.755 102.43C362.633 102.095 362.462 101.78 362.247 101.495C361.999 101.155 361.716 100.841 361.403 100.56C360.716 99.9963 359.977 99.4989 359.196 99.0743C357.526 98.1956 355.739 97.5587 353.888 97.183C351.979 96.8131 350.046 96.5798 348.103 96.485C346.147 96.3761 344.18 96.3884 342.205 96.4213C344.157 96.1541 346.118 95.8597 348.103 95.7707C350.1 95.6576 352.102 95.6876 354.095 95.8605C356.146 96.0575 358.158 96.5475 360.069 97.3156C361.068 97.7348 361.983 98.3285 362.773 99.0687C363.676 99.8532 364.35 100.866 364.725 102C364.745 102.062 364.753 102.128 364.751 102.193L364.748 102.256L363.505 132.635C363.371 135.178 363.389 137.652 363.035 140.328C362.644 142.967 361.756 145.507 360.416 147.814C357.632 152.329 353.58 155.928 348.763 158.164C348.178 158.455 347.585 158.728 346.983 158.984C346.43 159.213 345.891 159.474 345.367 159.764C344.337 160.337 343.391 161.047 342.555 161.876C340.891 163.483 339.826 165.609 339.54 167.902C339.487 168.392 339.545 168.888 339.708 169.353C339.871 169.819 340.137 170.242 340.484 170.592C341.274 171.312 342.261 171.782 343.319 171.942C344.455 172.103 345.612 172.025 346.715 171.711L350.439 170.908L357.885 169.302L361.602 168.473C362.846 168.214 364.108 168.047 365.361 167.835C370.385 167.04 375.397 166.191 380.437 165.466Z" fill="white"/>
<path d="M349.595 74.7107C351.756 77.1583 353.755 79.752 356.403 82.2645L328.085 117.26C327.597 83.9503 304.381 82.2645 304.381 82.2645L342.545 67.7735C343.87 68.8243 345.134 69.9498 346.33 71.1447C347.467 72.2956 348.523 73.4951 349.595 74.7107Z" fill="white"/>
<path d="M368.506 82.2643H356.401C356.232 80.4686 355.742 78.7176 354.956 77.0936C354.202 75.4635 353.223 73.9466 352.047 72.587C350.858 71.1971 349.441 70.0188 347.856 69.1022C346.249 68.1611 344.405 67.6999 342.543 67.7733L347.937 57.626L368.506 82.2643ZM328.088 117.264C324.472 116.151 321.099 114.368 318.147 112.006C315.126 109.675 312.492 106.883 310.342 103.734C309.784 102.959 309.279 102.147 308.831 101.304C308.381 100.462 307.859 99.6582 307.474 98.7852C306.673 97.0567 306.017 95.2649 305.512 93.4282C304.465 89.8031 304.079 86.0195 304.374 82.2583C305.334 85.7724 306.514 89.2234 307.905 92.5908C309.27 95.8688 310.985 98.9906 313.021 101.902C315.017 104.852 317.293 107.603 319.818 110.117C322.397 112.696 325.161 115.085 328.088 117.264Z" fill="white"/>
<path d="M318.17 106.038C329.847 106.038 329.866 87.9315 318.17 87.9315C306.492 87.9315 306.473 106.038 318.17 106.038ZM233.419 179.925L263.275 174.766C273.444 173.039 283.742 171.266 294.016 169.94L294.049 169.936C294.201 169.916 294.355 169.944 294.49 170.017L306.435 176.442C310.406 178.606 314.417 180.691 318.424 182.783C322.417 184.903 326.473 186.901 330.503 188.949C334.53 191.002 338.608 192.957 342.658 194.966C342.761 195.017 342.845 195.099 342.898 195.2C342.951 195.301 342.972 195.416 342.956 195.529C342.94 195.643 342.889 195.748 342.81 195.83C342.731 195.913 342.627 195.969 342.515 195.989L342.494 195.993C332.303 197.832 322.105 199.626 311.889 201.313C301.679 203.03 291.469 204.754 281.234 206.315L281.224 206.317C281 206.351 280.77 206.312 280.571 206.205C272.504 201.885 264.514 197.373 256.607 192.945C248.756 188.479 241.029 184.11 233.419 179.925ZM233.618 179.959C241.858 184.22 249.98 188.297 257.978 192.276C265.92 196.294 273.78 200.227 281.562 204.353L280.9 204.242C291.111 202.529 301.348 200.977 311.585 199.418C321.816 197.831 332.065 196.349 342.32 194.913L342.157 195.939C338.161 193.825 334.193 191.656 330.175 189.585C326.159 187.509 322.169 185.383 318.117 183.379C314.079 181.348 310.044 179.309 305.969 177.348L293.777 171.401L294.251 171.479C284.319 173.23 274.413 174.535 264.377 175.886L249.163 177.87L233.618 179.959Z" fill="white"/>
<path d="M269.088 186.28C271.279 185.794 273.493 185.419 275.722 185.157C277.834 185.492 279.956 185.76 282.072 186.064L294.776 187.841L307.479 189.618L313.831 190.506C315.863 191.407 317.898 192.291 319.903 193.386C317.673 193.889 315.474 194.181 313.271 194.49L306.919 193.602L294.216 191.826L281.512 190.049C279.394 189.762 277.28 189.437 275.157 189.181C273.086 188.317 271.061 187.349 269.088 186.28ZM104.042 191.175L133.898 186.015C144.067 184.288 154.365 182.516 164.639 181.189L164.672 181.185C164.824 181.165 164.978 181.193 165.113 181.266L177.058 187.692C181.029 189.855 185.04 191.94 189.047 194.032C193.04 196.152 197.096 198.15 201.126 200.198C205.153 202.251 209.231 204.207 213.281 206.216C213.384 206.267 213.468 206.348 213.521 206.449C213.574 206.55 213.595 206.666 213.579 206.779C213.563 206.892 213.512 206.997 213.433 207.08C213.354 207.162 213.25 207.218 213.138 207.239L213.117 207.243C202.926 209.081 192.728 210.875 182.512 212.563C172.302 214.28 162.092 216.003 151.857 217.565L151.847 217.566C151.623 217.601 151.393 217.561 151.194 217.454C143.127 213.135 135.137 208.622 127.23 204.195C119.379 199.728 111.652 195.359 104.042 191.175ZM104.241 191.209C112.481 195.47 120.603 199.547 128.601 203.525C136.543 207.543 144.403 211.476 152.185 215.602L151.523 215.492C161.734 213.778 171.971 212.226 182.207 210.668C192.439 209.08 202.688 207.599 212.943 206.162L212.78 207.189C208.784 205.074 204.816 202.906 200.798 200.835C196.782 198.759 192.792 196.633 188.74 194.629C184.702 192.597 180.667 190.558 176.592 188.597L164.4 182.651L164.874 182.728C154.942 184.479 145.036 185.784 135 187.135L119.786 189.119L104.241 191.209Z" fill="white"/>
<path d="M177.887 188.599C181.548 187.852 185.214 187.148 188.888 186.487C192.564 185.849 196.231 185.148 199.916 184.562C207.283 183.373 214.638 182.105 222.039 181.141L222.078 181.137C222.238 181.115 222.401 181.146 222.543 181.223L234.449 187.724C238.416 189.895 242.428 191.978 246.444 194.052C250.481 196.088 254.518 198.123 258.596 200.077L270.803 205.994C270.953 206.067 271.077 206.186 271.156 206.333C271.235 206.481 271.265 206.649 271.242 206.814C271.219 206.98 271.144 207.134 271.028 207.254C270.912 207.375 270.761 207.455 270.596 207.485L270.565 207.49L255.259 210.133C250.157 211.005 245.052 211.867 239.938 212.675C234.823 213.469 229.708 214.266 224.58 214.983C219.453 215.709 214.333 216.475 209.196 217.131L209.16 217.135C209.038 217.151 208.913 217.127 208.806 217.066C204.442 214.602 200.1 212.096 195.782 209.548C195.759 209.535 195.743 209.514 195.736 209.489C195.729 209.464 195.732 209.437 195.744 209.415C195.756 209.392 195.777 209.374 195.802 209.366C195.826 209.358 195.853 209.36 195.877 209.371C200.407 211.522 204.911 213.724 209.389 215.976L208.999 215.911C214.085 214.931 219.188 214.06 224.285 213.15C229.381 212.231 234.489 211.392 239.597 210.549C244.707 209.722 249.826 208.947 254.946 208.183L270.312 205.917L270.073 207.412L258.143 200.957C254.176 198.787 250.166 196.698 246.157 194.609C242.128 192.56 238.094 190.519 234.016 188.565L221.786 182.693L222.289 182.775C214.936 184.058 207.537 185.037 200.15 186.095C196.458 186.632 192.749 187.054 189.048 187.539C185.345 188.005 181.635 188.424 177.918 188.798C177.892 188.8 177.866 188.793 177.846 188.777C177.825 188.761 177.812 188.738 177.808 188.713C177.804 188.687 177.81 188.661 177.825 188.64C177.839 188.618 177.862 188.604 177.887 188.599ZM427.092 91.2601C426.247 93.6432 425.289 95.9772 424.33 98.3112L420.512 104.73L413.185 117.082H410.358L410.797 116.352L418.416 103.498L422.234 97.0631C423.826 95.1181 425.403 93.1568 427.092 91.2601ZM409.253 99.3322L408.343 107.275L407.222 117.081H404.769L405.923 106.999L406.816 99.0567C407.482 96.4473 408.132 93.8374 408.944 91.26C409.139 93.9673 409.204 96.6416 409.253 99.3322ZM399.196 117.081H400.74L399.879 111.068L399.18 106.238L398.108 98.6517C397.377 96.1879 396.662 93.7079 395.801 91.2603C395.687 93.3837 395.654 95.4909 395.671 97.5981V99.0083L395.979 101.099L396.776 106.578L398.286 117.081H399.196ZM394.046 117.082H391.593L390.066 106.578L388.977 99.0081C388.961 96.4311 388.961 93.8537 389.107 91.2601C389.968 93.7081 390.683 96.1877 391.414 98.6516L392.487 106.238L393.526 113.467L394.046 117.082Z" fill="white"/>
<path d="M395.981 99.6729V101.099L395.964 107.129V117.082H393.527V99.673C393.885 97.193 394.242 94.7129 394.746 92.2166C395.103 94.016 395.412 95.815 395.672 97.5982C395.786 98.295 395.883 98.976 395.981 99.6729ZM403.487 100.921L402.642 108.328L401.651 117.082H399.197L399.88 111.068L400.221 108.053L401.05 100.645C401.683 98.2138 402.317 95.7824 403.097 93.3835C403.324 95.8961 403.405 98.4086 403.487 100.921ZM386.525 127.001V135.755C386.948 135.706 387.37 135.674 387.792 135.625L391.448 127.439C389.807 127.325 388.166 127.196 386.525 127.001ZM391.903 127.585L387.987 135.609C390.343 135.365 392.715 135.203 395.071 135.106L391.903 127.585ZM392.423 127.504L395.769 134.701L398.434 127.747C396.436 127.715 394.421 127.618 392.423 127.504ZM399.279 128.444L396.533 135.057C398.271 134.993 399.993 134.96 401.732 134.944L399.279 128.444ZM402.739 127.812C401.894 127.796 401.033 127.78 400.189 127.78L402.674 133.89L404.786 127.78C404.104 127.796 403.422 127.796 402.739 127.812ZM405.875 129.352L403.747 134.944C405.111 134.96 406.476 134.977 407.841 135.025C407.159 133.128 406.508 131.249 405.875 129.352ZM407.012 127.747C407.711 129.676 408.377 131.605 409.027 133.534C409.904 131.54 410.765 129.563 411.659 127.585C410.115 127.666 408.572 127.715 407.012 127.747ZM412.569 128.493C411.756 130.697 410.912 132.886 410.067 135.09C411.935 135.155 413.803 135.268 415.656 135.43C414.583 133.128 413.576 130.827 412.569 128.493ZM386.525 117.082V127.001C391.909 126.416 397.323 126.146 402.739 126.191C403.73 126.191 404.722 126.207 405.713 126.224C405.856 126.183 406.008 126.183 406.151 126.224C408.231 126.256 410.294 126.337 412.358 126.45C412.41 126.432 412.465 126.421 412.52 126.418C412.604 126.419 412.686 126.435 412.764 126.467C414.827 126.596 416.89 126.759 418.953 127.002V117.082H386.525ZM390.311 124.327C389.678 124.306 389.079 124.041 388.639 123.587C388.199 123.134 387.953 122.527 387.953 121.896C387.953 121.265 388.199 120.658 388.639 120.204C389.079 119.751 389.678 119.485 390.311 119.465C390.942 119.487 391.54 119.752 391.979 120.206C392.418 120.66 392.664 121.265 392.664 121.896C392.664 122.526 392.418 123.132 391.979 123.586C391.54 124.039 390.942 124.305 390.311 124.327ZM399.084 124.327C398.451 124.306 397.852 124.041 397.412 123.587C396.972 123.134 396.726 122.527 396.726 121.896C396.726 121.265 396.972 120.658 397.412 120.204C397.852 119.751 398.451 119.485 399.084 119.465C399.715 119.487 400.313 119.752 400.752 120.206C401.191 120.66 401.437 121.265 401.437 121.896C401.437 122.526 401.191 123.132 400.752 123.586C400.313 124.039 399.715 124.305 399.084 124.327ZM407.565 124.036C406.932 124.015 406.333 123.75 405.893 123.296C405.453 122.842 405.207 122.236 405.207 121.604C405.207 120.973 405.453 120.366 405.893 119.913C406.333 119.459 406.932 119.194 407.565 119.173C408.196 119.195 408.795 119.461 409.234 119.914C409.673 120.368 409.918 120.974 409.918 121.604C409.918 122.235 409.672 122.84 409.233 123.294C408.795 123.748 408.196 124.014 407.565 124.036ZM415.899 124.327C415.267 124.306 414.667 124.041 414.227 123.587C413.787 123.134 413.541 122.527 413.541 121.896C413.541 121.265 413.787 120.658 414.227 120.204C414.667 119.751 415.267 119.485 415.899 119.465C416.531 119.487 417.129 119.752 417.568 120.206C418.007 120.66 418.252 121.265 418.252 121.896C418.252 122.526 418.007 123.132 417.568 123.586C417.129 124.039 416.531 124.305 415.899 124.327ZM413.284 127.488C414.193 130.13 415.071 132.772 415.883 135.447C416.907 135.544 417.93 135.625 418.953 135.755V127.002C417.069 127.212 415.185 127.375 413.284 127.488ZM391.903 127.585L387.987 135.609C390.343 135.365 392.715 135.203 395.071 135.106L391.903 127.585ZM392.423 127.504L395.769 134.701L398.434 127.747C396.436 127.715 394.421 127.618 392.423 127.504ZM399.279 128.444L396.533 135.057C398.271 134.993 399.993 134.96 401.732 134.944L399.279 128.444ZM402.739 127.812C401.894 127.796 401.033 127.78 400.189 127.78L402.674 133.89L404.786 127.78C404.104 127.796 403.422 127.796 402.739 127.812ZM405.875 129.352L403.747 134.944C405.111 134.96 406.476 134.977 407.841 135.025C407.159 133.128 406.508 131.249 405.875 129.352ZM407.012 127.747C407.711 129.676 408.377 131.605 409.027 133.534C409.904 131.54 410.765 129.563 411.659 127.585C410.115 127.666 408.572 127.715 407.012 127.747ZM412.569 128.493C411.756 130.697 410.912 132.886 410.067 135.09C411.935 135.155 413.803 135.268 415.656 135.43C414.583 133.128 413.576 130.827 412.569 128.493ZM391.903 127.585L387.987 135.609C390.343 135.365 392.715 135.203 395.071 135.106L391.903 127.585ZM392.423 127.504L395.769 134.701L398.434 127.747C396.436 127.715 394.421 127.618 392.423 127.504ZM399.279 128.444L396.533 135.057C398.271 134.993 399.993 134.96 401.732 134.944L399.279 128.444ZM402.739 127.812C401.894 127.796 401.033 127.78 400.189 127.78L402.674 133.89L404.786 127.78C404.104 127.796 403.422 127.796 402.739 127.812ZM405.875 129.352L403.747 134.944C405.111 134.96 406.476 134.977 407.841 135.025C407.159 133.128 406.508 131.249 405.875 129.352ZM407.012 127.747C407.711 129.676 408.377 131.605 409.027 133.534C409.904 131.54 410.765 129.563 411.659 127.585C410.115 127.666 408.572 127.715 407.012 127.747ZM412.569 128.493C411.756 130.697 410.912 132.886 410.067 135.09C411.935 135.155 413.803 135.268 415.656 135.43C414.583 133.128 413.576 130.827 412.569 128.493ZM386.525 145.238V147.247C386.525 151.538 388.233 155.652 391.274 158.686C394.315 161.72 398.439 163.424 402.74 163.424C407.04 163.424 411.164 161.72 414.205 158.686C417.246 155.652 418.954 151.538 418.954 147.247V145.238C408.171 146.318 397.308 146.318 386.525 145.238ZM409.368 136.436C409.264 136.506 409.145 136.549 409.021 136.563C408.896 136.577 408.77 136.562 408.653 136.517C408.62 136.497 408.587 136.476 408.556 136.452C406.623 136.517 404.673 136.55 402.739 136.566C397.324 136.595 391.91 136.324 386.525 135.755V145.238C397.308 144.157 408.171 144.157 418.954 145.238L418.953 135.755C415.753 136.128 412.569 136.322 409.368 136.436ZM391.042 143.001C390.409 142.98 389.81 142.715 389.37 142.261C388.93 141.807 388.684 141.201 388.684 140.569C388.684 139.938 388.93 139.332 389.37 138.878C389.81 138.424 390.409 138.159 391.042 138.138C391.672 138.162 392.269 138.428 392.707 138.881C393.144 139.335 393.389 139.94 393.389 140.569C393.389 141.199 393.144 141.804 392.706 142.257C392.269 142.71 391.672 142.977 391.042 143.001ZM398.499 142.855C397.867 142.834 397.267 142.569 396.827 142.115C396.387 141.661 396.141 141.055 396.141 140.423C396.141 139.792 396.387 139.186 396.827 138.732C397.267 138.278 397.867 138.013 398.499 137.992C399.13 138.016 399.726 138.282 400.164 138.735C400.602 139.189 400.846 139.794 400.846 140.423C400.846 141.053 400.602 141.657 400.164 142.111C399.726 142.564 399.13 142.831 398.499 142.855ZM406.688 142.855C406.055 142.834 405.456 142.569 405.016 142.115C404.576 141.661 404.33 141.055 404.33 140.423C404.33 139.792 404.576 139.186 405.016 138.732C405.456 138.278 406.055 138.013 406.688 137.992C407.318 138.016 407.915 138.282 408.353 138.735C408.79 139.189 409.035 139.794 409.035 140.423C409.035 141.053 408.79 141.657 408.352 142.111C407.915 142.564 407.318 142.831 406.688 142.855ZM414.876 142.563C414.244 142.542 413.644 142.277 413.204 141.823C412.764 141.37 412.518 140.763 412.518 140.132C412.518 139.5 412.764 138.894 413.204 138.44C413.644 137.986 414.244 137.721 414.876 137.7C415.506 137.724 416.103 137.99 416.541 138.444C416.979 138.897 417.223 139.502 417.223 140.131C417.223 140.761 416.978 141.366 416.541 141.819C416.103 142.272 415.506 142.54 414.876 142.563ZM415.656 135.43C414.583 133.128 413.576 130.827 412.569 128.493C411.756 130.697 410.912 132.886 410.067 135.09C411.935 135.155 413.803 135.268 415.656 135.43ZM411.659 127.585C410.115 127.666 408.572 127.715 407.012 127.747C407.711 129.676 408.377 131.605 409.027 133.534C409.904 131.54 410.765 129.563 411.659 127.585ZM407.841 135.025C407.159 133.128 406.508 131.249 405.875 129.352L403.747 134.944C405.111 134.96 406.476 134.977 407.841 135.025ZM404.786 127.78C404.104 127.796 403.422 127.796 402.739 127.812C401.894 127.796 401.033 127.78 400.189 127.78L402.674 133.89L404.786 127.78ZM401.732 134.944L399.279 128.444L396.533 135.057C398.271 134.993 399.993 134.96 401.732 134.944ZM398.434 127.747C396.436 127.715 394.421 127.618 392.423 127.504L395.769 134.701L398.434 127.747ZM391.903 127.585L387.987 135.609C390.343 135.365 392.715 135.203 395.071 135.106L391.903 127.585ZM412.569 128.493C411.756 130.697 410.912 132.886 410.067 135.09C411.935 135.155 413.803 135.268 415.656 135.43C414.583 133.128 413.576 130.827 412.569 128.493ZM407.012 127.747C407.711 129.676 408.377 131.605 409.027 133.534C409.904 131.54 410.765 129.563 411.659 127.585C410.115 127.666 408.572 127.715 407.012 127.747ZM405.875 129.352L403.747 134.944C405.111 134.96 406.476 134.977 407.841 135.025C407.159 133.128 406.508 131.249 405.875 129.352ZM402.739 127.812C401.894 127.796 401.033 127.78 400.189 127.78L402.674 133.89L404.786 127.78C404.104 127.796 403.422 127.796 402.739 127.812ZM399.279 128.444L396.533 135.057C398.271 134.993 399.993 134.96 401.732 134.944L399.279 128.444ZM392.423 127.504L395.769 134.701L398.434 127.747C396.436 127.715 394.421 127.618 392.423 127.504ZM391.903 127.585L387.987 135.609C390.343 135.365 392.715 135.203 395.071 135.106L391.903 127.585ZM412.569 128.493C411.756 130.697 410.912 132.886 410.067 135.09C411.935 135.155 413.803 135.268 415.656 135.43C414.583 133.128 413.576 130.827 412.569 128.493ZM407.012 127.747C407.711 129.676 408.377 131.605 409.027 133.534C409.904 131.54 410.765 129.563 411.659 127.585C410.115 127.666 408.572 127.715 407.012 127.747ZM405.875 129.352L403.747 134.944C405.111 134.96 406.476 134.977 407.841 135.025C407.159 133.128 406.508 131.249 405.875 129.352ZM402.739 127.812C401.894 127.796 401.033 127.78 400.189 127.78L402.674 133.89L404.786 127.78C404.104 127.796 403.422 127.796 402.739 127.812ZM399.279 128.444L396.533 135.057C398.271 134.993 399.993 134.96 401.732 134.944L399.279 128.444ZM392.423 127.504L395.769 134.701L398.434 127.747C396.436 127.715 394.421 127.618 392.423 127.504ZM391.903 127.585L387.987 135.609C390.343 135.365 392.715 135.203 395.071 135.106L391.903 127.585ZM122.61 393.509C122.911 397.512 123.066 401.514 123.278 405.517C123.499 409.519 123.599 413.522 123.744 417.525C123.835 421.527 123.983 425.529 124.027 429.532C124.079 433.535 124.182 437.538 124.182 441.54L123.026 440.028L134.331 443.071L133.523 443.059L144.79 440.395L143.601 441.902C143.699 434.474 143.835 427.045 144.071 419.616C144.213 415.902 144.317 412.188 144.529 408.473C144.723 404.759 144.876 401.045 145.156 397.331C145.437 401.045 145.59 404.759 145.784 408.473C145.995 412.188 146.1 415.902 146.242 419.616C146.478 427.045 146.614 434.474 146.712 441.902C146.716 442.246 146.604 442.582 146.394 442.854C146.183 443.127 145.886 443.32 145.552 443.404L145.523 443.41L134.286 446.193C134.02 446.258 133.741 446.254 133.477 446.181L122.195 443.053C121.864 442.961 121.571 442.763 121.362 442.49C121.154 442.217 121.04 441.884 121.038 441.54C121.039 437.538 121.142 433.535 121.193 429.532C121.237 425.53 121.385 421.527 121.476 417.525C121.621 413.522 121.721 409.519 121.942 405.517C122.155 401.514 122.309 397.512 122.61 393.509Z" fill="white"/>
<path d="M133.884 397.144C134.68 405.057 134.866 412.97 134.902 420.884C134.877 428.798 134.699 436.712 133.905 444.626C133.104 436.713 132.919 428.799 132.887 420.885C132.916 412.971 133.094 405.058 133.884 397.144ZM19.3727 340.052C19.6912 344.055 19.8463 348.058 20.0736 352.06C20.2786 356.062 20.4191 360.065 20.5412 364.068C20.7741 372.073 20.9335 380.078 20.9585 388.083L19.7916 386.558C23.5629 387.563 27.3351 388.565 31.0893 389.631L30.2901 389.619C34.0476 388.739 37.7959 387.823 41.5665 386.997L40.4249 388.445C40.4896 385.234 40.5074 382.022 40.6109 378.811C40.7105 375.6 40.7644 372.388 40.9049 369.177C41.0179 365.966 41.152 362.754 41.3408 359.543C41.513 356.332 41.6644 353.12 41.9192 349.909C42.1734 353.12 42.3249 356.332 42.4976 359.543C42.686 362.754 42.82 365.966 42.9331 369.177C43.0735 372.388 43.1274 375.6 43.227 378.811C43.3305 382.022 43.3484 385.234 43.4134 388.445C43.4199 388.77 43.317 389.088 43.1212 389.348C42.9253 389.607 42.6478 389.794 42.333 389.878L42.2711 389.894C38.5406 390.884 34.7883 391.784 31.0444 392.719C30.7929 392.783 30.5295 392.782 30.2784 392.717L30.2447 392.708C26.4698 391.717 22.7127 390.661 18.9541 389.609L18.9402 389.605C18.6077 389.512 18.315 389.313 18.1068 389.038C17.8986 388.763 17.7863 388.428 17.7871 388.083C17.8121 380.078 17.9715 372.073 18.2044 364.068C18.3265 360.065 18.467 356.062 18.672 352.06C18.8991 348.057 19.0542 344.055 19.3727 340.052Z" fill="white"/>
<path d="M30.6446 343.687C31.4411 351.6 31.6267 359.513 31.6628 367.427C31.6379 375.341 31.4598 383.255 30.6657 391.169C29.8644 383.256 29.6796 375.342 29.6475 367.428C29.6764 359.515 29.8553 351.601 30.6446 343.687ZM287.962 376.368C288.233 379.926 288.386 383.484 288.573 387.043C288.777 390.601 288.891 394.159 289.023 397.718C289.261 404.834 289.403 411.951 289.497 419.067L288.651 417.698L298.846 422.723L297.699 422.61C301.681 421.48 305.691 420.454 309.686 419.371L308.528 420.885C308.53 416.958 308.626 413.031 308.681 409.105C308.724 405.178 308.871 401.251 308.964 397.324C309.106 393.398 309.211 389.471 309.43 385.545C309.644 381.618 309.799 377.691 310.102 373.764C310.406 377.691 310.56 381.618 310.774 385.545C310.993 389.471 311.099 393.398 311.241 397.324C311.333 401.251 311.48 405.178 311.523 409.105C311.578 413.031 311.675 416.958 311.676 420.885C311.675 421.229 311.561 421.563 311.352 421.836C311.143 422.11 310.85 422.307 310.518 422.399C306.528 423.498 302.553 424.654 298.55 425.706L298.524 425.713C298.148 425.812 297.749 425.769 297.402 425.593L287.273 420.437L287.246 420.423C286.996 420.296 286.787 420.101 286.642 419.862C286.497 419.622 286.422 419.347 286.426 419.067C286.52 411.951 286.662 404.834 286.899 397.718C287.032 394.159 287.146 390.601 287.35 387.043C287.537 383.484 287.69 379.926 287.962 376.368Z" fill="white"/>
<path d="M299.031 375.057C299.673 383.255 299.704 391.442 299.585 399.626C299.405 407.809 299.072 415.99 298.124 424.158C297.477 415.96 297.447 407.773 297.57 399.589C297.754 391.407 298.087 383.227 299.031 375.057ZM418.971 293.454C417.361 293.362 415.779 292.987 414.299 292.348C409.869 290.559 405.911 287.778 402.733 284.218C404.21 284.784 405.646 285.452 407.029 286.219C408.413 286.939 409.739 287.737 411.074 288.512C412.386 289.328 413.71 290.111 415.006 290.952C416.32 291.77 417.595 292.63 418.971 293.454ZM86.8349 103.093C88.1497 105.246 89.7209 107.233 91.5142 109.01C89.6976 109.072 87.894 108.682 86.2665 107.875C85.0908 107.27 84.0981 106.364 83.3908 105.249C82.7012 104.118 82.3203 102.827 82.2861 101.504C82.2529 99.6942 82.6774 97.9047 83.5205 96.3014C84.3404 98.6929 85.4536 100.974 86.8349 103.093ZM92.7652 103.806C92.7976 105.619 92.367 107.409 91.5142 109.01C90.6944 106.618 89.5812 104.337 88.1999 102.218C86.881 100.067 85.3101 98.0813 83.5205 96.3014C85.334 96.2368 87.1343 96.6329 88.7524 97.4522C89.9282 98.0553 90.9252 98.9551 91.644 100.062C92.3484 101.187 92.7358 102.48 92.7652 103.806ZM82.4971 118.557C83.8125 120.714 85.3896 122.701 87.1927 124.473C85.3758 124.538 83.5716 124.147 81.9446 123.338C80.7646 122.734 79.7666 121.828 79.0527 120.713C78.3632 119.582 77.9824 118.291 77.948 116.968C77.9149 115.158 78.3395 113.368 79.1827 111.765C80.0094 114.154 81.1223 116.434 82.4971 118.557ZM88.4271 119.27C88.4587 121.08 88.0343 122.869 87.1927 124.473C86.359 122.087 85.2465 119.808 83.8784 117.681C82.5536 115.531 80.9773 113.544 79.1827 111.765C80.9963 111.698 82.797 112.095 84.4143 112.916C85.6016 113.508 86.6035 114.413 87.311 115.533C88.0185 116.653 88.4044 117.946 88.4271 119.27ZM77.6068 135.576C78.9263 137.731 80.5029 139.717 82.302 141.493C80.4831 141.561 78.6768 141.165 77.0543 140.342C75.8719 139.748 74.8726 138.847 74.1627 137.732C73.473 136.602 73.092 135.311 73.0576 133.988C73.0228 132.177 73.4476 130.387 74.2924 128.785C75.119 131.173 76.2319 133.454 77.6068 135.576Z" fill="white"/>
<path d="M83.538 136.273C83.5712 138.089 83.1465 139.884 82.3028 141.493C81.4708 139.103 80.3526 136.823 78.9725 134.701C77.6536 132.55 76.0828 130.564 74.2932 128.785C76.1068 128.718 77.9074 129.114 79.5247 129.935C80.7008 130.538 81.6979 131.438 82.4166 132.545C83.1188 133.665 83.5061 134.953 83.538 136.273ZM75.2194 153.698C76.5396 155.857 78.1161 157.849 79.9146 159.631C78.0957 159.699 76.2894 159.303 74.6668 158.48C73.4879 157.879 72.4939 156.971 71.7903 155.853C71.0867 154.734 70.6996 153.446 70.6701 152.126C70.6433 150.316 71.0676 148.528 71.9049 146.922C72.7384 149.303 73.851 151.578 75.2194 153.698Z" fill="white"/>
<path d="M81.1496 154.411C81.1913 156.227 80.7662 158.024 79.9148 159.631C78.2001 154.865 75.4671 150.529 71.9053 146.923C73.7188 146.856 75.5194 147.252 77.1367 148.073C78.3193 148.667 79.3187 149.569 80.0287 150.683C80.74 151.799 81.128 153.089 81.1496 154.411ZM74.5065 164.774C76.3205 164.712 78.1207 165.107 79.7415 165.922C80.921 166.524 81.9194 167.427 82.6347 168.539C83.3372 169.659 83.724 170.948 83.7544 172.268C83.7888 174.082 83.3608 175.875 82.5105 177.479C80.6931 177.548 78.888 177.155 77.2644 176.338C76.0847 175.737 75.0891 174.831 74.3824 173.714C73.6879 172.588 73.3055 171.299 73.2741 169.977C73.2406 168.167 73.6644 166.378 74.5065 164.774ZM97.7051 107.859C95.5311 108.882 93.4352 110.063 91.434 111.392C91.7124 109.67 92.3488 108.024 93.3022 106.562C93.9589 105.573 94.8598 104.769 95.9181 104.227C96.9462 103.725 98.0921 103.512 99.2325 103.612C100.91 103.779 102.559 104.16 104.139 104.746L97.7051 107.859Z" fill="white"/>
<path d="M103.229 110.128C102.546 111.33 101.52 112.302 100.282 112.919C99.0434 113.537 97.6486 113.773 96.2753 113.596C94.4811 113.347 92.7987 112.581 91.4337 111.392C92.6592 111.282 93.8688 111.038 95.0405 110.663C96.2021 110.293 97.3367 109.843 98.4362 109.317C99.5373 108.776 100.587 108.135 101.572 107.404C102.581 106.68 103.451 105.78 104.139 104.746C104.527 106.59 104.202 108.513 103.229 110.128ZM95.1705 122.447C92.4896 123.419 89.7602 124.278 87.0146 125.429C87.8022 123.689 88.9162 122.116 90.2965 120.794C91.3069 119.844 92.501 119.11 93.8057 118.638C95.0425 118.191 96.361 118.014 97.6722 118.119C99.4815 118.3 101.274 118.62 103.034 119.075C100.52 120.432 97.8878 121.561 95.1705 122.447Z" fill="white"/>
<path d="M101.198 124.911C100.135 126.204 98.7432 127.188 97.1685 127.761C95.5938 128.334 93.8938 128.475 92.246 128.168C90.2671 127.797 88.445 126.843 87.0145 125.429C88.4958 125.487 89.9788 125.373 91.4337 125.089C92.8869 124.836 94.3161 124.462 95.7064 123.97C97.1153 123.488 98.4665 122.852 99.7356 122.074C101.032 121.314 102.155 120.293 103.034 119.075C103.148 120.122 103.044 121.18 102.728 122.185C102.412 123.189 101.891 124.117 101.198 124.911ZM92.1159 135.057C89.4353 136.03 86.7056 136.889 83.96 138.04C84.747 136.296 85.8672 134.721 87.2581 133.404C88.2603 132.452 89.4499 131.718 90.7514 131.248C91.9882 130.802 93.3067 130.625 94.6179 130.73C96.427 130.911 98.2194 131.231 99.9793 131.686C97.465 133.043 94.8332 134.172 92.1159 135.057Z" fill="white"/>
<path d="M98.1445 137.521C97.0814 138.814 95.6899 139.798 94.1153 140.371C92.5407 140.945 90.8407 141.085 89.1929 140.779C87.2139 140.408 85.3916 139.454 83.9611 138.04C85.4425 138.098 86.9256 137.984 88.3806 137.699C89.8338 137.447 91.2631 137.073 92.6533 136.581C94.0622 136.099 95.4135 135.463 96.6825 134.684C97.9788 133.925 99.1022 132.903 99.9806 131.686C100.094 132.732 99.9902 133.791 99.6742 134.795C99.3582 135.799 98.8374 136.727 98.1445 137.521ZM89.5499 150.505C86.8368 151.736 83.9936 152.742 81.1504 154.006C81.9455 152.218 83.0635 150.592 84.4485 149.208C85.4469 148.201 86.6193 147.383 87.9093 146.793C89.0947 146.27 90.3676 145.974 91.6624 145.918C93.0594 145.788 94.4889 146.063 97.0072 145.723C96.0056 146.839 94.8252 147.781 93.5143 148.511C92.2385 149.262 90.9141 149.928 89.5499 150.505Z" fill="white"/>
<path d="M97.4771 147.49C97.4959 148.065 97.4578 148.64 97.3633 149.208C97.1346 150.256 96.7102 151.251 96.1122 152.142C95.064 153.708 93.5865 154.94 91.8558 155.692C90.2495 156.401 88.4842 156.675 86.7378 156.486C84.665 156.247 82.7149 155.382 81.149 154.006C82.7098 154.005 84.2648 153.815 85.7795 153.439C87.3013 153.095 88.7865 152.606 90.2149 151.98C91.6728 151.359 93.0349 150.535 94.2603 149.532C95.5387 148.567 96.4956 147.24 97.0059 145.723C97.1284 146.008 97.2316 146.3 97.3149 146.598C97.386 146.892 97.4401 147.19 97.4771 147.49ZM81.084 172.469C81.1725 170.685 81.5639 168.929 82.2418 167.275C82.6863 166.185 83.3535 165.2 84.2008 164.381C84.9628 163.687 85.8804 163.186 86.8767 162.919C88.4493 162.625 89.9699 162.102 91.3894 161.365C91.6252 161.54 91.8498 161.73 92.0617 161.933C92.252 162.148 92.4294 162.374 92.5932 162.609C92.8686 163.081 93.0835 163.584 93.2326 164.109C93.473 165.092 93.4928 166.115 93.2905 167.106C92.9649 168.813 92.0912 170.368 90.8015 171.536C89.6387 172.608 88.1771 173.302 86.6101 173.527C84.7015 173.789 82.7597 173.417 81.084 172.469ZM96.7949 93.1245C95.8496 95.7168 95.2064 98.409 94.8778 101.148C93.6987 99.6595 92.9162 97.8975 92.6031 96.0261C92.3742 94.609 92.4912 93.1577 92.9442 91.7953C93.4154 90.436 94.2198 89.2158 95.2841 88.2456C96.6906 86.9719 98.3938 86.0692 100.239 85.6195C98.8097 87.9829 97.6543 90.5007 96.7949 93.1245Z" fill="white"/>
<path d="M102.172 94.972C101.692 96.3263 100.883 97.5406 99.8166 98.5059C98.4198 99.7876 96.721 100.696 94.8779 101.148C96.2944 98.7778 97.4492 96.2615 98.322 93.6432C99.2655 91.0502 99.9087 88.3581 100.239 85.6193C101.422 87.1076 102.21 88.8693 102.53 90.7416C102.761 92.1597 102.639 93.6127 102.172 94.972Z" fill="white"/>
<path d="M74.5078 164.774C76.3043 166.552 77.8788 168.54 79.197 170.696C80.5749 172.814 81.688 175.092 82.5114 177.48C80.7122 175.704 79.1374 173.715 77.8222 171.558C76.4472 169.438 75.3343 167.16 74.5078 164.774ZM81.0855 172.469C83.064 170.65 85.098 169.09 86.9532 167.362C87.8926 166.536 88.7627 165.635 89.5548 164.667C90.3784 163.697 91.0023 162.575 91.3909 161.365C91.6181 162.746 91.3433 164.163 90.6159 165.359C89.9486 166.561 89.0819 167.641 88.0528 168.554C87.0554 169.46 85.9608 170.253 84.7888 170.918C83.6306 171.6 82.3848 172.122 81.0855 172.469Z" fill="white"/>
<path d="M72.4908 184.495C72.751 184.998 72.9944 185.517 73.2385 186.019C73.5145 186.603 73.791 187.17 74.067 187.753C74.5541 188.775 75.0416 189.78 75.5128 190.801C75.9352 189.683 76.3739 188.58 76.7963 187.478C77.0561 186.846 77.3163 186.198 77.5762 185.565C77.6738 185.29 77.7876 185.03 77.9011 184.755C76.0979 184.706 74.2943 184.625 72.4908 184.495ZM79.4931 187.203L79.0711 186.181C78.9248 186.554 78.7785 186.927 78.6325 187.299C77.9986 188.905 77.3648 190.509 76.6988 192.097C78.291 192.033 79.8835 191.984 81.4757 191.968L79.4931 187.203ZM84.6437 184.803C83.8635 184.803 83.0836 184.82 82.2879 184.836C81.6052 184.82 80.923 184.82 80.2245 184.803L80.403 185.257L81.0694 187.056L82.5152 190.898L84.0749 186.765L84.806 184.803H84.6437ZM86.0244 186.57L85.6832 185.614L85.3258 186.635L83.4897 191.984C85.0009 192 86.5118 192.033 88.0388 192.097L86.0244 186.57ZM86.4956 184.771L87.0644 186.473L88.7699 191.611L91.1586 186.084L91.8245 184.528C90.0537 184.641 88.2666 184.722 86.4956 184.771ZM92.8158 185.922L92.312 184.69L91.792 186.019L89.4037 192.162C91.4508 192.276 93.5142 192.454 95.5775 192.746L92.8158 185.922ZM72.4908 184.495C72.751 184.998 72.9944 185.517 73.2385 186.019C73.5145 186.603 73.791 187.17 74.067 187.753C74.5541 188.775 75.0416 189.78 75.5128 190.801C75.9352 189.683 76.3739 188.58 76.7963 187.478C77.0561 186.846 77.3163 186.198 77.5762 185.565C77.6738 185.29 77.7876 185.03 77.9011 184.755C76.0979 184.706 74.2943 184.625 72.4908 184.495ZM79.4931 187.203L79.0711 186.181C78.9248 186.554 78.7785 186.927 78.6325 187.299C77.9986 188.905 77.3648 190.509 76.6988 192.097C78.291 192.033 79.8835 191.984 81.4757 191.968L79.4931 187.203ZM84.6437 184.803C83.8635 184.803 83.0836 184.82 82.2879 184.836C81.6052 184.82 80.923 184.82 80.2245 184.803L80.403 185.257L81.0694 187.056L82.5152 190.898L84.0749 186.765L84.806 184.803H84.6437ZM86.0244 186.57L85.6832 185.614L85.3258 186.635L83.4897 191.984C85.0009 192 86.5118 192.033 88.0388 192.097L86.0244 186.57ZM86.4956 184.771L87.0644 186.473L88.7699 191.611L91.1586 186.084L91.8245 184.528C90.0537 184.641 88.2666 184.722 86.4956 184.771ZM92.8158 185.922L92.312 184.69L91.792 186.019L89.4037 192.162C91.4508 192.276 93.5142 192.454 95.5775 192.746L92.8158 185.922ZM71.6298 185.209C71.4509 185.549 71.2562 185.906 71.0773 186.246L72.0035 186.149C71.8736 185.841 71.7599 185.517 71.6298 185.209ZM72.4908 184.495C72.751 184.998 72.9944 185.517 73.2385 186.019C73.5145 186.603 73.791 187.17 74.067 187.753C74.977 187.656 75.8864 187.559 76.7963 187.478C77.0561 186.846 77.3163 186.198 77.5762 185.565C77.6738 185.29 77.7876 185.03 77.9011 184.755C76.0979 184.706 74.2943 184.625 72.4908 184.495ZM79.0711 186.181C78.9248 186.554 78.7785 186.927 78.6325 187.299C78.9085 187.267 79.2008 187.235 79.4931 187.203L79.0711 186.181ZM82.2879 184.836C81.6052 184.82 80.923 184.82 80.2245 184.803L80.403 185.257C81.8167 185.111 83.23 184.949 84.6437 184.803C83.8635 184.803 83.0836 184.82 82.2879 184.836ZM63.75 160.944L67.3568 184.025C68.7217 183.847 70.0861 183.717 71.4347 183.604C71.4972 183.559 71.5697 183.529 71.6461 183.518C71.7225 183.507 71.8004 183.514 71.8734 183.539L71.9059 183.572C74.2128 183.41 76.5039 183.296 78.7945 183.247C78.9645 183.199 79.1446 183.199 79.3145 183.247C80.3054 183.231 81.2967 183.215 82.2878 183.215C86.382 183.231 90.4596 183.328 94.5376 183.717C95.4311 183.815 96.3411 183.912 97.2348 184.025L97.332 183.41L100.825 160.944H63.75ZM69.4851 182.68C68.8542 182.657 68.2568 182.391 67.8185 181.938C67.3803 181.484 67.1355 180.879 67.1355 180.249C67.1355 179.619 67.3803 179.014 67.8185 178.56C68.2568 178.107 68.8542 177.84 69.4851 177.817C70.1159 177.841 70.7131 178.107 71.1511 178.56C71.5892 179.014 71.834 179.619 71.834 180.249C71.834 180.878 71.5893 181.484 71.1513 181.937C70.7133 182.391 70.1159 182.657 69.4851 182.68ZM78.2586 182.68C77.6277 182.657 77.0303 182.391 76.5921 181.938C76.1539 181.484 75.909 180.879 75.909 180.249C75.909 179.619 76.1539 179.014 76.5921 178.56C77.0303 178.107 77.6277 177.84 78.2586 177.817C78.8898 177.84 79.4875 178.106 79.926 178.56C80.3645 179.013 80.6096 179.619 80.6097 180.249C80.6097 180.879 80.3647 181.484 79.9262 181.938C79.4877 182.391 78.8898 182.657 78.2586 182.68ZM86.739 182.389C86.1081 182.366 85.5107 182.099 85.0724 181.646C84.6342 181.192 84.3894 180.587 84.3894 179.957C84.3894 179.327 84.6342 178.722 85.0724 178.268C85.5107 177.815 86.1081 177.549 86.739 177.526C87.3698 177.549 87.967 177.815 88.4051 178.269C88.8431 178.722 89.0879 179.327 89.0879 179.957C89.088 180.587 88.8432 181.192 88.4053 181.645C87.9673 182.099 87.3698 182.365 86.739 182.389ZM95.0738 182.68C94.4429 182.657 93.8454 182.391 93.4072 181.938C92.969 181.484 92.7242 180.879 92.7242 180.249C92.7242 179.619 92.969 179.014 93.4072 178.56C93.8454 178.107 94.4429 177.84 95.0738 177.817C95.7046 177.841 96.3018 178.107 96.7398 178.56C97.1779 179.014 97.4227 179.619 97.4227 180.249C97.4227 180.878 97.178 181.484 96.74 181.937C96.302 182.391 95.7046 182.657 95.0738 182.68ZM92.8158 185.922L92.312 184.69L91.792 186.019L89.4037 192.162C91.4508 192.276 93.5142 192.454 95.5775 192.746L92.8158 185.922ZM86.4956 184.771L87.0644 186.473L88.7699 191.611L91.1586 186.084L91.8245 184.528C90.0537 184.641 88.2666 184.722 86.4956 184.771ZM86.0244 186.57L85.6832 185.614L85.3258 186.635L83.4897 191.984C85.0009 192 86.5118 192.033 88.0388 192.097L86.0244 186.57ZM84.6437 184.803C83.8635 184.803 83.0836 184.82 82.2879 184.836C81.6052 184.82 80.923 184.82 80.2245 184.803L80.403 185.257L81.0694 187.056L82.5152 190.898L84.0749 186.765L84.806 184.803H84.6437ZM79.4931 187.203L79.0711 186.181C78.9248 186.554 78.7785 186.927 78.6325 187.299C77.9986 188.905 77.3648 190.509 76.6988 192.097C78.291 192.033 79.8835 191.984 81.4757 191.968L79.4931 187.203ZM72.4908 184.495C72.751 184.998 72.9944 185.517 73.2385 186.019C73.5145 186.603 73.791 187.17 74.067 187.753C74.5541 188.775 75.0416 189.78 75.5128 190.801C75.9352 189.683 76.3739 188.58 76.7963 187.478C77.0561 186.846 77.3163 186.198 77.5762 185.565C77.6738 185.29 77.7876 185.03 77.9011 184.755C76.0979 184.706 74.2943 184.625 72.4908 184.495ZM92.8158 185.922L92.312 184.69L91.792 186.019L89.4037 192.162C91.4508 192.276 93.5142 192.454 95.5775 192.746L92.8158 185.922ZM86.4956 184.771L87.0644 186.473L88.7699 191.611L91.1586 186.084L91.8245 184.528C90.0537 184.641 88.2666 184.722 86.4956 184.771ZM86.0244 186.57L85.6832 185.614L85.3258 186.635L83.4897 191.984C85.0009 192 86.5118 192.033 88.0388 192.097L86.0244 186.57ZM84.6437 184.803C83.8635 184.803 83.0836 184.82 82.2879 184.836C81.6052 184.82 80.923 184.82 80.2245 184.803L80.403 185.257L81.0694 187.056L82.5152 190.898L84.0749 186.765L84.806 184.803H84.6437ZM79.4931 187.203L79.0711 186.181C78.9248 186.554 78.7785 186.927 78.6325 187.299C77.9986 188.905 77.3648 190.509 76.6988 192.097C78.291 192.033 79.8835 191.984 81.4757 191.968L79.4931 187.203ZM72.4908 184.495C72.751 184.998 72.9944 185.517 73.2385 186.019C73.5145 186.603 73.791 187.17 74.067 187.753C74.5541 188.775 75.0416 189.78 75.5128 190.801C75.9352 189.683 76.3739 188.58 76.7963 187.478C77.0561 186.846 77.3163 186.198 77.5762 185.565C77.6738 185.29 77.7876 185.03 77.9011 184.755C76.0979 184.706 74.2943 184.625 72.4908 184.495ZM84.6437 184.803C83.23 184.949 81.8167 185.111 80.403 185.257L81.0694 187.056C82.0602 186.959 83.0678 186.862 84.0749 186.765L84.806 184.803H84.6437ZM85.6832 185.614L85.3258 186.635C85.5531 186.619 85.797 186.603 86.0244 186.57L85.6832 185.614ZM86.4956 184.771L87.0644 186.473L91.1586 186.084L91.8245 184.528C90.0537 184.641 88.2666 184.722 86.4956 184.771ZM92.312 184.69L91.792 186.019C92.1331 185.987 92.4744 185.955 92.8158 185.922L92.312 184.69ZM92.7346 184.463L93.2546 185.889L95.7401 192.746V192.762C95.7841 192.76 95.8282 192.765 95.8702 192.778L97.0074 185.533L97.2348 184.025C95.7238 184.22 94.2292 184.35 92.7346 184.463ZM95.7242 192.795C95.7242 192.811 95.7242 192.843 95.6917 192.843C95.6743 192.851 95.6548 192.851 95.6368 192.845C95.6189 192.839 95.6037 192.827 95.5941 192.811C91.1799 193.352 86.7355 193.612 82.2881 193.589C80.1923 193.573 78.0963 193.524 76.0004 193.427C75.8965 193.503 75.7742 193.551 75.6458 193.565C75.5174 193.58 75.3875 193.56 75.2693 193.508C75.2006 193.47 75.1353 193.427 75.0741 193.378C72.9621 193.248 70.834 193.07 68.7218 192.778L69.8102 199.748H94.7817L95.8702 192.778C95.8209 192.776 95.7716 192.781 95.7242 192.795ZM75.0254 199.132C74.393 199.111 73.7935 198.846 73.3535 198.392C72.9136 197.939 72.6676 197.332 72.6676 196.701C72.6676 196.07 72.9136 195.463 73.3535 195.009C73.7935 194.556 74.393 194.29 75.0254 194.269C75.6578 194.29 76.2573 194.556 76.6972 195.009C77.1372 195.463 77.3831 196.07 77.3831 196.701C77.3831 197.332 77.1372 197.939 76.6972 198.392C76.2573 198.846 75.6578 199.111 75.0254 199.132ZM83.2138 199.132C82.5814 199.111 81.9819 198.846 81.5419 198.392C81.102 197.939 80.856 197.332 80.856 196.701C80.856 196.07 81.102 195.463 81.5419 195.009C81.9819 194.556 82.5814 194.29 83.2138 194.269C83.8462 194.29 84.4456 194.556 84.8856 195.009C85.3256 195.463 85.5715 196.07 85.5715 196.701C85.5715 197.332 85.3256 197.939 84.8856 198.392C84.4456 198.846 83.8462 199.111 83.2138 199.132ZM91.4021 198.841C90.7698 198.82 90.1703 198.554 89.7303 198.101C89.2904 197.647 89.0444 197.04 89.0444 196.409C89.0444 195.778 89.2904 195.171 89.7303 194.718C90.1703 194.264 90.7698 193.999 91.4021 193.978C92.0345 193.999 92.634 194.264 93.074 194.718C93.514 195.171 93.7599 195.778 93.76 196.409C93.76 197.04 93.514 197.647 93.0741 198.101C92.6342 198.554 92.0345 198.82 91.4021 198.841ZM92.8158 185.922L92.312 184.69L91.792 186.019L89.4037 192.162C91.4508 192.276 93.5142 192.454 95.5775 192.746L92.8158 185.922ZM86.4956 184.771L87.0644 186.473L88.7699 191.611L91.1586 186.084L91.8245 184.528C90.0537 184.641 88.2666 184.722 86.4956 184.771ZM86.0244 186.57L85.6832 185.614L85.3258 186.635L83.4897 191.984C85.0009 192 86.5118 192.033 88.0388 192.097L86.0244 186.57ZM84.6437 184.803C83.8635 184.803 83.0836 184.82 82.2879 184.836C81.6052 184.82 80.923 184.82 80.2245 184.803L80.403 185.257L81.0694 187.056L82.5152 190.898L84.0749 186.765L84.806 184.803H84.6437ZM79.4931 187.203L79.0711 186.181C78.9248 186.554 78.7785 186.927 78.6325 187.299C77.9986 188.905 77.3648 190.509 76.6988 192.097C78.291 192.033 79.8835 191.984 81.4757 191.968L79.4931 187.203ZM72.4908 184.495C72.751 184.998 72.9944 185.517 73.2385 186.019C73.5145 186.603 73.791 187.17 74.067 187.753C74.5541 188.775 75.0416 189.78 75.5128 190.801C75.9352 189.683 76.3739 188.58 76.7963 187.478C77.0561 186.846 77.3163 186.198 77.5762 185.565C77.6738 185.29 77.7876 185.03 77.9011 184.755C76.0979 184.706 74.2943 184.625 72.4908 184.495ZM72.7022 187.883C72.4749 187.316 72.2308 186.732 72.0035 186.149C71.8736 185.841 71.7599 185.517 71.6298 185.209C71.4509 185.549 71.2562 185.906 71.0773 186.246C70.7524 186.879 70.4115 187.51 70.0704 188.142C69.5667 189.099 69.0468 190.055 68.5107 191.011C68.5042 191.017 68.4965 191.022 68.488 191.025C68.4795 191.028 68.4704 191.029 68.4616 191.028L68.7218 192.778C70.6388 192.502 72.5724 192.341 74.4894 192.211C73.9044 190.768 73.3032 189.326 72.7022 187.883ZM74.067 187.753C74.5541 188.775 75.0416 189.78 75.5128 190.801C75.9352 189.683 76.3739 188.58 76.7963 187.478C75.8864 187.559 74.977 187.656 74.067 187.753ZM79.4931 187.203C79.2008 187.235 78.9085 187.267 78.6325 187.299C77.9986 188.905 77.3648 190.509 76.6988 192.097C78.291 192.033 79.8835 191.984 81.4757 191.968L79.4931 187.203ZM81.0694 187.056L82.5152 190.898L84.0749 186.765C83.0678 186.862 82.0602 186.959 81.0694 187.056ZM86.0244 186.57C85.797 186.603 85.5531 186.619 85.3258 186.635L83.4897 191.984C85.0009 192 86.5118 192.033 88.0388 192.097L86.0244 186.57ZM87.0644 186.473L88.7699 191.611L91.1586 186.084L87.0644 186.473ZM92.8158 185.922C92.4744 185.955 92.1331 185.987 91.792 186.019L89.4037 192.162C91.4508 192.276 93.5142 192.454 95.5775 192.746L92.8158 185.922ZM67.3568 184.025L67.7631 186.603L68.0229 188.353L68.4132 190.801C68.7544 189.926 69.0954 189.066 69.4365 188.207C69.6801 187.575 69.9403 186.959 70.2001 186.343C70.4599 185.695 70.7201 185.047 70.9962 184.398C69.7777 184.301 68.5753 184.171 67.3568 184.025Z" fill="white"/>
<path d="M84.5411 180.339C83.185 179.123 82.1808 177.565 81.6333 175.83C81.3778 174.964 81.0466 174.107 80.8518 173.223L80.302 170.555C79.8535 166.964 79.7166 163.341 79.8927 159.726C79.9566 156.104 80.4992 152.536 80.9196 148.954C81.5776 145.417 82.0845 141.839 82.9453 138.348C83.7529 134.842 84.5605 131.337 85.5811 127.892C86.5644 124.435 87.5088 120.97 88.7205 117.587C89.8922 114.193 90.9438 110.762 92.2468 107.418C93.5652 104.079 94.8167 100.719 96.1903 97.4069C94.2792 104.327 92.0663 111.13 90.2056 118.035L88.7582 123.195L87.4259 128.382C86.9955 130.113 86.4759 131.824 86.0892 133.564L84.9135 138.781C84.0203 142.238 83.5173 145.762 82.7998 149.252C82.273 152.766 81.7189 156.282 81.4342 159.82C81.0837 163.349 81.0315 166.901 81.2779 170.439L81.5936 173.072C81.7106 173.95 81.9609 174.796 82.139 175.666C82.5444 177.397 83.3692 179.001 84.5411 180.339Z" fill="white"/>
<path d="M68.445 190.979L68.4125 190.801L68.3638 190.947C68.3475 190.979 68.3638 191.012 68.3963 191.044C68.4284 191.06 68.445 191.044 68.4609 191.028L68.445 190.979Z" fill="white"/>
<path d="M125.938 194.102C131.267 192.639 136.672 191.471 142.129 190.604C147.575 189.665 153.069 189.03 158.586 188.704C153.259 190.171 147.853 191.339 142.395 192.202C136.949 193.138 131.455 193.772 125.938 194.102ZM190.425 193.392C195.753 191.928 201.158 190.76 206.616 189.894C212.061 188.954 217.555 188.32 223.072 187.994C217.745 189.461 212.34 190.629 206.881 191.492C201.435 192.428 195.941 193.062 190.425 193.392ZM256.55 181.958C261.878 180.495 267.283 179.327 272.741 178.461C278.186 177.521 283.68 176.887 289.197 176.561C283.87 178.028 278.464 179.195 273.006 180.059C267.56 180.994 262.066 181.629 256.55 181.958ZM532.686 284.384C529.293 282.088 526.305 279.247 523.842 275.977C521.316 272.771 519.039 269.376 517.032 265.824C515.012 262.284 513.187 258.641 511.505 254.936C509.821 251.223 508.25 247.494 506.848 243.621L508.392 244.583C500.248 245.635 491.972 244.92 484.131 242.488C480.235 241.35 476.427 239.933 472.735 238.25C469.042 236.613 465.447 234.766 461.967 232.717C455.029 228.646 448.433 224.023 442.243 218.891C436.054 213.788 430.201 208.294 424.72 202.441L424.693 202.412C424.5 202.203 424.394 201.927 424.397 201.642C424.4 201.357 424.512 201.083 424.71 200.878C427.076 198.436 429.525 196.168 432.065 193.96C434.59 191.747 437.256 189.694 439.979 187.721C442.7 185.724 445.598 183.977 448.636 182.502C451.675 180.887 455.034 179.963 458.474 179.795C458.541 179.795 458.607 179.806 458.67 179.827C461.898 180.942 465.152 181.975 468.391 183.053L478.12 186.254C484.596 188.417 491.115 190.452 497.621 192.526L496.369 193.204L504.902 157.562C507.78 145.69 510.711 133.832 513.695 121.987L513.656 122.174C513.865 121.157 514.185 120.165 514.612 119.218C514.983 118.334 515.424 117.508 515.862 116.681C516.776 115.084 517.799 113.552 518.925 112.096C521.137 109.238 523.601 106.584 526.29 104.166C531.595 99.4025 537.366 95.1802 543.513 91.5623C546.588 89.7195 549.773 88.0686 553.053 86.6193C556.345 85.1993 559.722 83.9814 563.164 82.9726C570.052 80.9372 577.193 79.8777 584.376 79.8253C591.55 79.7506 598.696 80.7055 605.597 82.6607C609.053 83.6456 612.416 84.9297 615.649 86.4985C616.448 86.9152 617.226 87.3771 618.013 87.8143L619.188 88.4796L620.308 89.2441C621.049 89.7605 621.807 90.2509 622.531 90.7891L624.613 92.5275C630.057 97.3138 633.923 103.631 635.704 110.649C637.252 117.552 637.449 124.689 636.284 131.667C636.281 131.693 636.272 131.718 636.258 131.741C636.244 131.764 636.227 131.783 636.206 131.799C636.185 131.815 636.159 131.826 636.134 131.833C636.108 131.839 636.081 131.84 636.055 131.836C636.005 131.828 635.959 131.801 635.927 131.761C635.896 131.721 635.88 131.671 635.884 131.62C636.56 124.728 635.957 117.77 634.104 111.096C632.124 104.576 628.243 98.7918 622.956 94.4808L620.951 92.9395C620.254 92.465 619.521 92.036 618.811 91.5821L617.74 90.9098L616.607 90.3324C615.851 89.9529 615.109 89.5492 614.344 89.1887C611.243 87.7935 608.028 86.6627 604.735 85.8084C598.115 84.1105 591.286 83.3714 584.456 83.6137C581.049 83.7178 577.653 84.0622 574.295 84.6441C570.933 85.1913 567.611 85.9639 564.352 86.9568C561.095 87.9531 557.901 89.1466 554.789 90.5306C551.688 91.9395 548.665 93.5135 545.734 95.2458C539.834 98.7353 534.268 102.757 529.104 107.259C526.563 109.478 524.226 111.921 522.123 114.558C521.094 115.85 520.155 117.211 519.312 118.631C518.926 119.341 518.533 120.05 518.219 120.772C517.922 121.414 517.684 122.081 517.505 122.765L517.466 122.953C514.358 134.766 511.199 146.566 507.99 158.353L498.253 193.687L498.245 193.717C498.211 193.838 498.154 193.952 498.077 194.051C498 194.15 497.904 194.233 497.794 194.295C497.685 194.357 497.564 194.397 497.439 194.413C497.314 194.428 497.188 194.419 497.066 194.386L497.001 194.366C490.561 192.094 484.135 189.783 477.665 187.601L467.977 184.284C464.743 183.189 461.525 182.05 458.279 180.991L458.474 181.023C455.229 181.221 452.068 182.128 449.214 183.68C446.282 185.179 443.496 186.948 440.894 188.965C438.26 190.96 435.739 193.099 433.344 195.374C430.944 197.635 428.595 199.997 426.421 202.43L426.411 200.867C432.028 206.403 437.993 211.578 444.269 216.359C450.481 221.189 457.001 225.611 463.787 229.599C467.181 231.566 470.639 233.415 474.198 235.033C477.73 236.687 481.378 238.086 485.112 239.218C492.483 241.643 500.279 242.513 508.006 241.772L508.062 241.766C508.384 241.732 508.707 241.809 508.978 241.986C509.249 242.162 509.451 242.426 509.55 242.733C510.757 246.506 512.181 250.286 513.696 253.99C515.216 257.7 516.879 261.354 518.732 264.906C520.502 268.499 522.539 271.954 524.826 275.244C527.065 278.567 529.792 281.536 532.914 284.051C532.957 284.083 532.986 284.13 532.995 284.183C533.003 284.235 532.989 284.289 532.958 284.333C532.927 284.373 532.882 284.401 532.832 284.41C532.782 284.42 532.73 284.41 532.686 284.384Z" fill="white"/>
</svg>
