<svg width="705" height="427" viewBox="0 0 705 427" fill="none" xmlns="http://www.w3.org/2000/svg">
<path d="M250.924 90.9812C251.865 93.8627 252.727 96.7691 253.509 99.7002C253.904 101.165 254.271 102.64 254.599 104.13C254.765 104.875 254.912 105.627 255.04 106.388C255.092 106.775 255.172 107.147 255.199 107.548L255.25 108.142L255.32 108.629C255.645 109.947 256.449 111.099 257.575 111.859C258.759 112.733 260.018 113.502 261.337 114.157C261.714 114.351 262.076 114.572 262.42 114.821L262.57 114.936C262.652 115.019 262.727 115.108 262.796 115.202C262.889 115.326 262.963 115.464 263.014 115.61C263.094 115.814 263.164 116.022 263.224 116.234C263.496 117.118 263.512 118.062 263.27 118.956C263.125 119.433 262.886 119.875 262.568 120.259C262.249 120.642 261.857 120.958 261.415 121.188C260.624 121.575 259.771 121.822 258.896 121.918L259.769 120.913C259.884 123.023 259.883 125.101 259.843 127.199C259.794 129.293 259.684 131.39 259.454 133.492C259.256 135.636 258.833 137.753 258.192 139.808C257.842 140.933 257.299 141.988 256.587 142.927C256.153 143.479 255.593 143.918 254.953 144.208C254.259 144.511 253.489 144.6 252.744 144.464L253.004 144.484L242.726 144.848L242.806 142.467C246.222 143.005 249.514 144.149 252.527 145.844C255.52 147.469 258.252 149.534 260.632 151.969C261.239 152.559 261.762 153.229 262.33 153.855L263.163 154.809L263.905 155.835C264.394 156.522 264.905 157.194 265.373 157.893L266.649 160.069L267.284 161.157L267.815 162.297L268.873 164.576C269.51 166.121 270.016 167.716 270.591 169.279L270.296 168.926C274.772 171.688 278.864 175.027 282.467 178.857C286.093 182.653 289.136 186.964 291.499 191.649C292.649 194.011 293.596 196.467 294.328 198.99C295.029 201.527 295.521 204.117 295.799 206.734C296.248 211.998 295.847 217.3 294.613 222.438L294.498 221.763C298.369 227.341 302.209 232.939 306.018 238.558L317.437 255.419L317.451 255.439C317.576 255.624 317.649 255.84 317.661 256.063C317.673 256.286 317.625 256.509 317.52 256.707C313.134 264.91 307.89 272.626 301.874 279.724C295.954 286.866 289.361 293.423 282.186 299.306L279.519 301.531L276.725 303.599C274.847 304.954 273.032 306.397 271.104 307.678C267.197 310.168 263.385 312.802 259.257 314.912C251.147 319.347 242.637 323.008 233.838 325.845L233.815 325.853C233.748 325.876 233.676 325.879 233.607 325.862C233.538 325.846 233.476 325.81 233.427 325.759L226.757 318.799C226.745 318.786 226.736 318.771 226.729 318.755C226.723 318.739 226.72 318.721 226.72 318.703C226.721 318.686 226.725 318.669 226.732 318.653C226.739 318.637 226.749 318.622 226.762 318.61C226.787 318.587 226.821 318.574 226.856 318.575C226.89 318.575 226.924 318.588 226.949 318.612L233.984 325.156L233.573 325.069L239.922 322.431C242.061 321.618 244.156 320.695 246.199 319.666L252.335 316.605C253.363 316.106 254.363 315.552 255.331 314.946L258.278 313.199C262.287 311.006 265.995 308.332 269.779 305.79C271.648 304.486 273.402 303.021 275.218 301.646L277.918 299.55L280.49 297.299C282.176 295.767 283.986 294.374 285.599 292.763L290.516 288.021L295.188 283.038C296.738 281.371 298.18 279.606 299.682 277.895C305.575 270.978 310.772 263.497 315.2 255.563L315.283 256.85L304.138 239.806C300.435 234.117 296.754 228.413 293.094 222.695L293.079 222.672C293.018 222.576 292.978 222.469 292.961 222.356C292.944 222.244 292.95 222.13 292.979 222.02C294.352 217.08 294.904 211.949 294.614 206.831C294.432 204.272 294.019 201.735 293.38 199.251C292.69 196.776 291.79 194.363 290.691 192.04C288.446 187.392 285.459 183.139 281.847 179.449C278.28 175.733 274.19 172.555 269.706 170.018C269.58 169.949 269.482 169.839 269.427 169.706L269.41 169.664C268.79 168.16 268.241 166.626 267.568 165.152L266.462 162.988L265.911 161.907L265.26 160.884L263.961 158.842C263.489 158.19 262.976 157.567 262.488 156.928L261.748 155.977L260.922 155.099C260.361 154.526 259.846 153.908 259.251 153.372C256.923 151.179 254.303 149.32 251.463 147.848C248.679 146.372 245.674 145.357 242.565 144.843L242.508 144.834C242.213 144.79 241.945 144.638 241.757 144.407C241.569 144.176 241.474 143.883 241.491 143.585C241.509 143.288 241.637 143.008 241.85 142.8C242.064 142.592 242.347 142.471 242.645 142.462L252.924 142.131C252.981 142.129 253.038 142.132 253.095 142.139L253.184 142.151C253.492 142.201 253.809 142.161 254.094 142.035C254.38 141.909 254.624 141.704 254.795 141.443C255.332 140.724 255.745 139.92 256.017 139.064C256.616 137.164 257.031 135.21 257.256 133.23C257.73 129.169 257.921 125.081 257.829 120.994V120.98C257.827 120.737 257.915 120.501 258.076 120.318C258.237 120.135 258.46 120.017 258.703 119.988C259.337 119.941 259.96 119.79 260.546 119.542C260.784 119.436 260.998 119.282 261.174 119.089C261.35 118.896 261.484 118.67 261.569 118.423C261.735 117.85 261.738 117.243 261.576 116.669C261.538 116.514 261.492 116.359 261.441 116.212C261.42 116.151 261.369 116.026 261.398 116.123C261.407 116.144 261.424 116.16 261.444 116.168L261.37 116.112C261.103 115.912 260.823 115.73 260.532 115.567C259.163 114.825 257.862 113.963 256.644 112.992C256.009 112.471 255.449 111.866 254.978 111.193C254.468 110.494 254.141 109.68 254.025 108.823C253.818 105.816 253.373 102.83 252.696 99.8934C252.067 96.9413 251.38 93.9945 250.667 91.0552C250.659 91.0215 250.664 90.9859 250.681 90.9558C250.698 90.9257 250.727 90.9035 250.76 90.8939C250.793 90.8842 250.829 90.8879 250.86 90.9042C250.89 90.9205 250.914 90.9481 250.924 90.9812ZM170.778 139.965C161.895 143.058 153.708 147.868 146.685 154.12C139.742 160.36 134.229 168.024 130.523 176.588C129.595 178.71 128.783 180.88 128.092 183.09C127.462 185.271 126.777 187.624 126.047 189.857C124.582 194.357 123.006 198.799 121.414 203.237C118.219 212.109 114.937 220.943 111.568 229.742L111.107 228.184C115.115 230.869 119.581 232.797 124.284 233.875C129.056 235.034 133.918 235.789 138.817 236.134C143.745 236.498 148.687 236.612 153.626 236.474C158.563 236.326 163.534 236.068 168.421 235.534L168.459 235.53C168.672 235.507 168.886 235.553 169.07 235.661C169.254 235.769 169.399 235.934 169.482 236.13C173.121 244.621 177.314 252.865 182.032 260.809C186.657 268.824 191.798 276.541 197.129 284.131C191.334 276.87 185.929 269.307 180.937 261.474C175.955 253.604 171.509 245.407 167.63 236.94L168.691 237.535C163.717 238.208 158.711 238.623 153.694 238.778C148.675 238.961 143.65 238.888 138.639 238.56C133.594 238.247 128.584 237.511 123.663 236.358C118.621 235.254 113.831 233.212 109.544 230.339C109.305 230.169 109.13 229.925 109.046 229.645C108.961 229.364 108.973 229.063 109.08 228.791L109.084 228.781C112.506 220.021 115.857 211.23 119.136 202.41C120.761 197.999 122.371 193.579 123.859 189.137C124.621 186.905 125.231 184.729 125.983 182.41C129.87 171.062 136.724 160.959 145.835 153.147C151.329 148.615 157.487 144.953 164.094 142.287C165.182 141.83 166.294 141.428 167.423 141.084L170.778 139.965Z" fill="white"/>
<path d="M136.28 196.653C139.93 199.022 143.498 201.523 146.943 204.2C148.669 205.536 150.349 206.935 151.959 208.431C153.64 209.903 155.097 211.612 156.285 213.504L169.717 235.875C169.899 236.179 169.952 236.542 169.866 236.885C169.78 237.229 169.561 237.524 169.257 237.706C168.954 237.889 168.59 237.944 168.246 237.859C167.902 237.774 167.606 237.556 167.422 237.253L167.388 237.192L155.12 214.161C154.081 212.311 152.78 210.621 151.255 209.146C149.756 207.602 148.163 206.13 146.518 204.717C143.234 201.883 139.802 199.205 136.28 196.653ZM203.95 194.893C203.699 198.913 203.39 202.927 203.023 206.933C202.661 210.94 202.261 214.942 201.824 218.939C201.405 222.939 200.915 226.93 200.444 230.923C199.947 234.913 199.413 238.898 198.777 242.87L197.993 241.719C202.77 243.052 207.659 244.184 212.556 245.168C217.464 246.122 222.427 246.774 227.416 247.12C232.389 247.471 237.383 247.4 242.344 246.909C244.794 246.648 247.224 246.22 249.615 245.627C251.967 245.089 254.236 244.237 256.36 243.095L255.767 243.901C256.835 237.661 257.989 231.439 259.126 225.212C260.288 218.99 261.555 212.786 262.928 206.602C263.61 203.508 264.341 200.424 265.095 197.338C265.479 195.801 265.903 194.248 266.334 192.718C266.75 191.229 267.13 189.72 267.452 188.191C268.104 185.134 268.589 182.023 268.949 178.894C269.36 175.769 269.635 172.62 269.863 169.467C269.864 169.45 269.868 169.432 269.876 169.416C269.883 169.401 269.894 169.386 269.907 169.374C269.92 169.362 269.935 169.353 269.951 169.347C269.968 169.341 269.986 169.339 270.003 169.34C270.036 169.342 270.068 169.356 270.091 169.38C270.114 169.403 270.129 169.434 270.131 169.467C270.443 175.83 270.162 182.208 269.292 188.519C269.081 190.107 268.767 191.687 268.406 193.263C268.054 194.798 267.721 196.316 267.412 197.867L265.569 207.152C264.359 213.352 263.157 219.559 261.878 225.751L258.044 244.331L258.034 244.38C258 244.542 257.93 244.694 257.829 244.825C257.728 244.956 257.599 245.063 257.451 245.137C252.737 247.262 247.633 248.388 242.462 248.443C237.42 248.612 232.373 248.453 227.351 247.967C222.343 247.537 217.356 246.941 212.377 246.257C207.386 245.603 202.433 244.802 197.473 243.756C197.232 243.706 197.018 243.568 196.872 243.37C196.726 243.172 196.658 242.927 196.681 242.682L196.689 242.605C197.067 238.6 197.547 234.608 198.065 230.621C198.608 226.637 199.132 222.651 199.727 218.673C200.298 214.693 200.912 210.718 201.57 206.749C202.224 202.779 202.929 198.816 203.685 194.859C203.691 194.825 203.71 194.796 203.738 194.776C203.765 194.756 203.8 194.747 203.833 194.751C203.867 194.756 203.898 194.773 203.92 194.799C203.941 194.825 203.952 194.859 203.95 194.893ZM251.329 88.3151C251.329 88.3151 209.581 65.1957 193.586 85.4311C193.586 85.4311 186.139 95.5343 186.39 105.068C186.642 114.602 188.999 120.411 162.968 150.084C136.937 179.756 196.592 171.582 201.286 168.523C205.98 165.464 220.855 144.524 230.002 143.183C239.15 141.841 229.988 128.689 229.988 128.689C229.988 128.689 219.561 130.248 219.807 118.683C220.053 107.118 230.103 112.174 230.103 112.174C230.103 112.174 245.882 118.547 251.329 88.3151Z" fill="white"/>
<path d="M235.513 136.249C236.617 136.989 237.462 137.778 238.363 138.478C238.802 138.835 239.251 139.16 239.718 139.476C240.231 139.791 240.764 140.072 241.313 140.316C240.68 140.58 239.976 140.623 239.315 140.438C238.664 140.255 238.057 139.944 237.529 139.523C237.019 139.11 236.58 138.618 236.229 138.064C235.863 137.517 235.618 136.898 235.513 136.249ZM232.188 142.47C233.95 142.195 235.742 142.17 237.512 142.395C239.288 142.565 241.03 142.987 242.687 143.648C240.925 143.926 239.132 143.952 237.363 143.723C235.587 143.551 233.845 143.129 232.188 142.47ZM253.754 117.606C254.05 118.187 254.376 118.752 254.731 119.299C254.874 119.52 255.043 119.724 255.232 119.907C255.439 120.129 255.712 120.335 256.038 120.665C255.849 120.777 255.639 120.85 255.42 120.88C255.202 120.911 254.98 120.897 254.767 120.841C254.306 120.731 253.902 120.454 253.634 120.064C253.375 119.687 253.247 119.236 253.268 118.779C253.277 118.341 253.45 117.922 253.754 117.606ZM246.818 105.313C247.6 104.636 248.597 104.258 249.631 104.247C250.672 104.172 251.702 104.5 252.508 105.163C251.586 105.417 250.637 105.558 249.681 105.582C248.719 105.633 247.754 105.542 246.818 105.313ZM248.61 112.114C249.007 112.101 249.383 111.934 249.658 111.649C249.934 111.363 250.088 110.983 250.088 110.586C250.088 110.19 249.934 109.809 249.658 109.524C249.383 109.239 249.007 109.071 248.61 109.058C248.214 109.071 247.838 109.239 247.562 109.524C247.287 109.809 247.133 110.19 247.133 110.586C247.133 110.983 247.287 111.363 247.562 111.649C247.838 111.934 248.214 112.101 248.61 112.114ZM252.344 126.817C253.482 126.951 254.596 127.243 255.654 127.685C256.688 128.096 257.602 128.527 258.719 129.054C258.153 129.316 257.525 129.415 256.906 129.341C256.309 129.288 255.723 129.149 255.166 128.929C254.619 128.711 254.1 128.428 253.621 128.085C253.122 127.743 252.689 127.313 252.344 126.817ZM306.376 271.74C308.276 273.317 310.11 274.949 311.81 276.66L310.11 278.946C308.665 280.871 307.326 282.877 305.734 284.682L301.157 290.23C299.684 292.142 297.958 293.813 296.352 295.578L293.916 298.225C293.127 299.132 292.292 299.998 291.414 300.819L289.433 302.718C288.322 301.153 287.251 299.536 286.234 297.891C287.211 299.576 288.228 301.234 289.286 302.851L286.234 305.793C279.192 312.287 271.563 318.114 263.443 323.2C261.382 324.417 259.361 325.7 257.219 326.783L254.048 328.494L250.782 330.019C246.443 332.112 241.918 333.795 237.265 335.046C235.907 331.916 234.719 328.716 233.705 325.459C270.924 312.758 294.331 287.971 306.376 271.74ZM316.36 256.137L322.503 261.138C319.719 265.108 317.176 269.2 314.419 273.144L312.639 275.55C310.681 274.08 308.583 272.803 306.376 271.74C310.117 266.815 313.456 261.597 316.36 256.137ZM470.722 362.427C428.832 360.114 394.103 358.176 394.103 358.176C402.378 349.515 409.548 339.865 415.449 329.444C421.392 319.026 426.318 308.062 430.157 296.701C434.008 285.361 436.953 273.732 438.963 261.926C439.124 260.977 439.271 260.028 439.432 259.079C439.606 264.052 439.82 269.039 440.007 274.026C440.275 280.617 440.623 287.222 440.944 293.813L442.028 313.587L443.219 333.361C443.24 333.658 443.361 333.939 443.563 334.158C443.765 334.377 444.035 334.52 444.33 334.564H444.343C450.46 335.393 456.616 336.035 462.799 336.343C464.565 336.436 466.345 336.503 468.112 336.556C469.584 339.511 472.06 346.972 470.722 362.427Z" fill="white"/>
<path d="M479.501 334.016C473.973 334.11 468.451 333.999 462.932 333.682C457.191 333.361 451.45 332.853 445.735 332.118L444.37 313.44L442.831 293.68C442.282 287.102 441.747 280.524 441.131 273.946C440.622 268.598 440.141 263.25 439.619 257.902C441.287 247.446 442.097 236.871 442.041 226.283C441.586 232.219 440.93 238.128 440.007 244.011C439.15 249.88 438.107 255.736 436.915 261.539C435.697 267.355 434.373 273.13 432.807 278.839C431.281 284.575 429.581 290.244 427.627 295.832C425.727 301.447 423.626 306.983 421.27 312.411C420.16 315.152 418.861 317.825 417.63 320.513C416.305 323.16 415.047 325.834 413.629 328.441C408.075 338.947 401.537 348.903 394.102 358.176C357.044 387.188 327.749 395.718 304.917 393.485C305.158 390.316 305.252 387.148 305.359 383.992C305.36 383.835 305.303 383.682 305.198 383.565L305.144 383.498C302.481 380.744 299.782 378.016 297.047 375.315C294.304 372.628 291.538 369.972 288.75 367.347C285.98 364.687 283.129 362.133 280.305 359.526C277.455 356.959 274.59 354.405 271.686 351.905L271.619 351.852C271.459 351.712 271.255 351.632 271.042 351.627C270.829 351.622 270.622 351.692 270.455 351.825C266.427 355.047 262.412 358.296 258.53 361.732C262.746 359.232 266.842 356.544 270.91 353.83C273.426 356.384 275.996 358.884 278.565 361.384C281.362 364.018 284.106 366.692 286.943 369.272C289.754 371.88 292.6 374.451 295.482 376.987C298.292 379.474 301.134 381.929 304.007 384.353C304.274 387.388 304.529 390.437 304.917 393.485C265.008 389.595 244.786 352.855 237.265 335.046C246.865 333.322 256.084 329.919 264.499 324.992C272.971 320.145 280.868 314.36 288.04 307.745L290.784 305.084C293.771 309.425 297.096 313.525 300.728 317.344C306.335 323.173 312.732 328.495 320.348 331.69C324.154 333.316 328.218 334.257 332.352 334.471C336.514 334.556 340.654 333.839 344.544 332.359L347.408 331.155C348.318 330.687 349.215 330.152 350.112 329.645L351.463 328.882L352.722 327.987L355.237 326.182C356.817 324.858 358.369 323.508 359.868 322.104C361.26 320.607 362.746 319.176 364.057 317.612C365.342 316.021 366.68 314.456 367.911 312.825L371.445 307.825C373.68 304.442 375.861 301.047 378.042 297.624C382.392 290.805 386.679 283.942 390.904 277.034C399.389 263.25 407.619 249.319 416.144 235.615C420.387 228.743 424.71 221.924 429.421 215.44C431.74 212.198 434.275 209.116 437.009 206.215C438.355 204.808 439.825 203.524 441.399 202.377C442.849 201.234 444.543 200.438 446.35 200.051C447.193 199.901 448.058 199.919 448.893 200.105C449.316 200.179 449.727 200.314 450.111 200.506C450.494 200.646 450.854 200.839 451.182 201.081C452.549 202.335 453.666 203.837 454.474 205.506C456.254 209.058 457.723 212.757 458.864 216.563C461.259 224.21 463.106 232.072 464.833 239.946C468.205 255.723 470.828 271.686 473.211 287.663C475.579 303.079 477.6 318.534 479.501 334.016Z" fill="white"/>
<path d="M517.978 304.616C517.938 307.584 517.857 310.552 517.764 313.52C517.55 319.216 517.336 324.912 517.081 330.594C511.273 331.583 505.425 332.372 499.563 332.92C493.487 333.522 487.371 333.883 481.268 333.99C480.692 334.003 480.117 334.003 479.555 334.016C476.915 302.328 472.672 270.792 466.841 239.532C465.328 231.55 463.403 223.651 461.073 215.868C459.902 211.923 458.398 208.086 456.576 204.396C455.624 202.418 454.292 200.646 452.655 199.182C452.174 198.812 451.642 198.515 451.075 198.3C450.555 198.039 450.001 197.85 449.429 197.738C448.286 197.485 447.104 197.457 445.95 197.658C443.777 198.083 441.733 199.007 439.981 200.359C438.277 201.587 436.687 202.965 435.23 204.476C432.392 207.443 429.763 210.601 427.36 213.929C422.529 220.494 418.153 227.325 413.87 234.198C405.385 248.009 397.235 261.967 388.83 275.778C384.641 282.676 380.394 289.548 376.089 296.394L369.572 306.608L366.186 311.555C365.008 313.173 363.723 314.71 362.505 316.288C361.234 317.825 359.815 319.229 358.49 320.714C357.058 322.104 355.573 323.427 354.074 324.725L351.678 326.489L350.487 327.372L349.202 328.121C348.346 328.615 347.503 329.136 346.633 329.604L343.929 330.794C340.258 332.25 336.343 332.989 332.393 332.974C328.428 332.822 324.519 331.981 320.843 330.487C313.389 327.586 306.925 322.492 301.237 316.85C298.382 313.999 295.705 310.976 293.221 307.798C292.458 306.836 291.721 305.86 290.985 304.884L293.274 302.651C294.157 301.811 294.997 300.928 295.79 300.003L298.226 297.276C301.476 293.658 304.535 289.873 307.393 285.939C308.919 284.053 310.204 281.981 311.542 279.963L312.921 277.837C313.975 278.941 314.959 280.111 315.865 281.339C317.179 283.081 318.251 284.992 319.05 287.022C319.877 289.001 320.348 291.11 320.442 293.252C320.555 297.61 319.531 301.923 317.471 305.766C315.389 309.777 312.798 313.502 309.762 316.85C313.605 314.187 316.85 310.754 319.291 306.769C321.913 302.703 323.243 297.94 323.105 293.105C322.771 288.242 320.794 283.636 317.498 280.043C316.375 278.75 315.144 277.555 313.817 276.473L315.517 273.866C316.761 271.794 317.872 269.628 319.05 267.515C320.228 265.403 321.379 263.277 322.503 261.138L332.5 269.28C329.289 272.077 326.708 275.522 324.925 279.387C326.549 278.017 328.001 276.455 329.248 274.735C330.544 273.051 331.636 271.22 332.5 269.28C412.88 177.336 442.082 153.377 472.248 164.153C502.199 174.849 517.63 294.121 517.831 295.712V295.725C518.072 298.693 517.978 301.648 517.978 304.616Z" fill="white"/>
<path d="M614.311 369.994C611.474 370.061 567.51 367.735 519.598 365.114C503.699 351.09 504.355 338.241 504.97 334.484C509.36 333.869 513.732 333.111 518.086 332.211L518.126 332.198C518.316 332.155 518.486 332.051 518.609 331.901C518.733 331.75 518.803 331.563 518.808 331.369C518.862 325.42 518.889 319.483 518.768 313.534C518.715 310.552 518.648 307.584 518.541 304.603C518.458 301.633 518.222 298.67 517.831 295.725L612.946 318.173C617.63 328.802 614.311 369.994 614.311 369.994Z" fill="white"/>
<path d="M519.641 365.062C522.136 367.073 524.744 368.919 527.412 370.67C530.087 372.411 532.862 373.989 535.659 375.519C538.461 377.043 541.344 378.414 544.239 379.755C547.132 381.104 550.072 382.35 553.013 383.605L553.066 383.628C553.138 383.658 553.199 383.709 553.243 383.774C553.286 383.839 553.309 383.915 553.31 383.993C553.255 385.009 552.91 385.987 552.314 386.812C551.719 387.637 550.899 388.273 549.953 388.646C548.207 389.393 546.341 389.82 544.444 389.906C542.58 390.026 540.708 389.996 538.849 389.816C536.989 389.693 535.142 389.443 533.304 389.152C525.96 387.917 518.723 386.116 511.657 383.766C504.583 381.462 497.614 378.848 490.76 375.975C489.03 375.275 487.341 374.515 485.634 373.933C483.913 373.337 482.144 372.891 480.345 372.599C478.543 372.308 476.719 372.166 474.892 372.175C473.075 372.183 471.212 372.355 469.361 372.456H469.343C469.296 372.459 469.249 372.452 469.204 372.437C469.159 372.421 469.118 372.396 469.083 372.365C469.047 372.333 469.019 372.295 468.998 372.252C468.978 372.209 468.966 372.163 468.963 372.116C468.962 372.083 468.964 372.05 468.971 372.018C469.696 368.849 470.258 365.645 470.655 362.419C470.657 362.402 470.666 362.386 470.679 362.375C470.693 362.364 470.71 362.359 470.727 362.36C470.745 362.362 470.761 362.37 470.772 362.383C470.784 362.396 470.789 362.413 470.788 362.43C470.63 365.695 470.263 368.946 469.689 372.163L469.299 371.726C471.148 371.541 472.976 371.284 474.87 371.187C476.756 371.118 478.644 371.209 480.515 371.46C482.39 371.71 484.24 372.121 486.045 372.689C487.87 373.255 489.562 374.042 491.279 374.713C498.154 377.476 505.046 380.197 512.043 382.616C518.997 385.162 526.13 387.189 533.384 388.68C537.009 389.408 540.714 389.654 544.403 389.411C546.222 389.301 548.001 388.831 549.636 388.029C550.412 387.626 551.09 387.06 551.623 386.369C552.125 385.718 552.389 384.915 552.372 384.094L552.669 384.482C546.617 382.292 540.755 379.605 535.146 376.449C532.334 374.881 529.612 373.157 526.992 371.285C524.368 369.426 521.882 367.38 519.553 365.162C519.541 365.15 519.533 365.134 519.532 365.117C519.532 365.099 519.538 365.083 519.549 365.07C519.561 365.057 519.577 365.049 519.594 365.047C519.611 365.046 519.628 365.051 519.641 365.062ZM502.882 414.195L464.338 412.497L471.498 400.905C473.987 401.748 476.53 402.456 479.086 403.044C481.642 403.646 484.212 404.168 486.822 404.569C489.431 404.983 492.064 405.238 494.704 405.331C497.291 405.474 499.886 405.29 502.427 404.783C502.11 406.244 501.984 407.741 502.052 409.235C502.078 410.92 502.358 412.592 502.882 414.195ZM512.785 400.424L512.424 405.17L502.882 414.195C503.295 412.557 503.466 410.868 503.39 409.181C503.349 407.674 503.115 406.178 502.694 404.729L502.734 404.716L507.78 402.643C509.453 401.895 511.139 401.2 512.785 400.424Z" fill="white"/>
<path d="M598.692 413.5C587.597 421.107 551.088 414.596 538.721 405.558C535.014 402.906 530.782 401.076 526.309 400.19C521.836 399.305 517.225 399.384 512.785 400.424C511.032 400.905 509.292 401.48 507.552 402.015L502.426 403.713C499.888 404.084 497.317 404.187 494.758 404.02C492.161 403.9 489.574 403.664 486.995 403.312C484.412 402.991 481.829 402.626 479.247 402.216L471.498 400.905C464.471 389.514 469.329 372.093 469.329 372.093L472.93 371.786C478.13 371.342 483.36 372.163 488.173 374.179C554.781 402.042 552.841 384.046 552.841 384.046C596.657 397.763 609.773 405.892 598.692 413.5ZM614.744 329.798C617.359 330.389 620.069 330.423 622.698 329.897C623.354 329.8 624.003 329.656 624.638 329.465C625.275 329.28 625.928 329.166 626.547 328.926L628.395 328.199L629.318 327.844L630.199 327.381C634.922 324.933 639.157 321.644 642.697 317.676C643.627 316.719 644.5 315.708 645.31 314.648C646.149 313.608 647.045 312.614 647.839 311.537L650.171 308.257C650.932 307.152 651.801 306.116 652.468 304.943L654.607 301.509C655.303 300.353 656.085 299.243 656.681 298.027C657.947 295.639 659.238 293.254 660.464 290.836L660.495 290.775C660.53 290.706 660.584 290.649 660.651 290.61C660.718 290.571 660.794 290.552 660.871 290.555C661.768 290.655 662.619 291.003 663.329 291.56C664.038 292.117 664.578 292.86 664.888 293.707C665.205 294.486 665.431 295.3 665.561 296.131C665.732 296.942 665.818 297.769 665.82 298.598C665.847 301.874 665.527 305.143 664.864 308.352C664.189 311.538 663.451 314.722 662.489 317.831C661.652 320.989 660.496 324.027 659.418 327.099C657.175 333.207 654.574 339.166 651.895 345.081L650.902 347.306C650.577 348.031 650.258 348.709 649.989 349.435C649.437 350.869 649.01 352.348 648.714 353.856C648.416 355.364 648.235 356.893 648.173 358.429C648.128 359.932 648.216 361.584 648.245 363.197C648.252 363.559 648.115 363.91 647.863 364.171C647.612 364.433 647.267 364.584 646.904 364.591C646.788 364.593 646.673 364.581 646.56 364.555L642.061 363.488C640.545 363.232 639.036 362.891 637.508 362.702C634.458 362.257 631.38 362.028 628.298 362.014C625.209 362.003 622.125 362.28 619.087 362.841C616.023 363.352 613.047 364.293 610.247 365.635L610.234 365.641C610.204 365.657 610.169 365.66 610.136 365.65C610.104 365.64 610.076 365.619 610.059 365.589C610.042 365.56 610.037 365.525 610.044 365.492C610.052 365.459 610.072 365.431 610.1 365.412C612.791 363.714 615.731 362.446 618.813 361.652C621.899 360.854 625.054 360.346 628.235 360.135C629.827 360.026 631.424 359.998 633.019 360.05C634.618 360.044 636.204 360.21 637.796 360.334C639.387 360.473 640.955 360.766 642.539 360.976C644.104 361.271 645.664 361.6 647.224 361.934L645.54 363.292C645.481 361.671 645.358 360.091 645.372 358.359C645.394 356.66 645.573 354.966 645.905 353.299C646.237 351.631 646.714 349.995 647.33 348.41C647.63 347.622 647.988 346.829 648.345 346.087L649.383 343.904C650.749 340.986 652.194 338.098 653.496 335.152L655.429 330.725C656.07 329.248 656.768 327.791 657.34 326.289C659.882 320.38 662.019 314.305 663.736 308.106C664.57 305.016 664.991 301.83 664.988 298.63C664.997 297.841 664.923 297.053 664.769 296.279C664.648 295.513 664.433 294.764 664.129 294.05C663.814 293.374 663.369 292.766 662.818 292.263C662.294 291.8 661.626 291.533 660.926 291.507L661.334 291.226C660.175 293.694 659.08 296.195 657.961 298.692C657.443 299.961 656.736 301.136 656.107 302.353L654.169 305.983C653.525 307.198 652.81 308.374 652.027 309.505L649.745 312.951C648.936 314.065 648.017 315.106 647.156 316.187C646.308 317.282 645.388 318.318 644.402 319.29L641.438 322.213C640.38 323.117 639.255 323.947 638.168 324.813C635.93 326.488 633.499 327.889 630.928 328.986L629.975 329.418L628.974 329.741L626.97 330.359C626.303 330.561 625.598 330.635 624.916 330.778C624.235 330.932 623.541 331.023 622.843 331.05C620.07 331.351 617.265 331.007 614.647 330.047C614.615 330.035 614.59 330.011 614.575 329.981C614.561 329.95 614.559 329.916 614.569 329.884C614.579 329.851 614.6 329.824 614.63 329.808C614.659 329.791 614.693 329.786 614.726 329.794L614.744 329.798ZM680.704 336.436C682.181 336.479 683.656 336.276 685.067 335.835L681.935 369.326L672.138 362.587H672.125C672.984 360.462 673.73 358.293 674.36 356.09C675.016 353.897 675.591 351.678 676.046 349.418C676.527 347.164 676.867 344.883 677.063 342.586C677.295 340.352 677.246 338.097 676.916 335.875C678.148 336.232 679.422 336.421 680.704 336.436ZM677.599 327.144L685.067 335.835C682.415 334.958 679.568 334.861 676.863 335.554V335.54L675.23 331.048C674.641 329.578 674.106 328.08 673.477 326.623L677.599 327.144Z" fill="white"/>
<path d="M673.557 355.889L672.125 362.588C661.874 368.23 646.898 363.243 646.898 363.243L646.778 360.101C646.615 355.55 647.556 351.027 649.521 346.918C676.676 290.123 660.897 291.032 660.897 291.032C674.748 253.463 682.39 242.393 688.56 252.367C694.716 262.354 687.489 293.867 679.058 304.255C676.584 307.37 674.806 310.978 673.843 314.836C672.881 318.694 672.756 322.713 673.477 326.623C673.798 328.174 674.226 329.711 674.588 331.262L675.832 335.794C676.04 338.015 676.013 340.251 675.752 342.466C675.538 344.712 675.217 346.958 674.815 349.191C674.427 351.424 674.012 353.657 673.557 355.889ZM115.153 232.036C113.064 242.803 110.852 253.545 108.326 264.228C107.695 266.899 107.053 269.568 106.358 272.231C105.71 274.95 104.899 277.629 103.929 280.251C101.52 285.223 99.1722 290.112 96.9475 295.124C92.4561 305.1 88.4145 315.268 84.5788 325.5C83.633 328.063 82.7193 330.637 81.8376 333.222C80.9129 335.793 80.1982 338.456 79.191 341.01L73.3347 356.404L73.3233 356.434C73.2716 356.57 73.1848 356.689 73.0718 356.78C72.9587 356.871 72.8235 356.931 72.6799 356.952C70.1732 357.337 67.6471 357.584 65.1132 357.692C62.5277 357.916 59.9232 357.63 57.4482 356.85C55.1434 355.947 52.7806 355.198 50.3756 354.61C49.282 354.306 48.1191 354.367 47.063 354.782C46.853 354.907 46.6703 355.073 46.5257 355.269C46.381 355.466 46.2774 355.689 46.221 355.927C46.1163 356.474 46.1181 357.036 46.2264 357.582C46.4741 358.76 46.8891 359.895 47.4588 360.955C47.601 361.224 47.7454 361.492 47.8988 361.754L48.1328 362.136L48.2282 362.281C48.2331 362.289 48.2233 362.281 48.2391 362.302C48.6218 362.454 48.0285 363.326 48.0856 363.068L48.042 363.083L47.9627 363.106L47.819 363.132L45.935 363.357C43.4514 363.638 40.9757 363.951 38.5138 364.348C36.0555 364.728 33.6227 365.258 31.229 365.934C30.0463 366.263 28.8925 366.689 27.7791 367.206C26.735 367.714 25.5702 368.44 25.3967 369.364C25.38 369.453 25.3381 369.535 25.276 369.6C25.2139 369.666 25.1343 369.712 25.0466 369.734C23.9781 369.997 22.9317 370.343 21.9166 370.768C20.9125 371.164 19.9729 371.708 19.1287 372.38C18.7294 372.648 18.4097 373.018 18.2033 373.452C17.9968 373.886 17.9113 374.367 17.9557 374.845C18.2401 375.823 18.8325 376.684 19.645 377.299C19.7305 377.376 19.7888 377.478 19.8113 377.591C19.8337 377.703 19.819 377.82 19.7694 377.924L19.7585 377.947C19.2287 378.957 19.0055 380.099 19.1164 381.234C19.2234 381.742 19.4828 382.205 19.8601 382.562C20.2374 382.918 20.7146 383.151 21.228 383.23C23.6418 383.503 26.0844 383.372 28.4548 382.841C33.4077 382.116 38.2844 380.934 43.408 380.474C44.7024 380.357 46.0036 380.334 47.3014 380.406C48.6374 380.484 49.8888 380.707 51.1175 380.872C53.5944 381.226 56.0696 381.537 58.5518 381.78C63.5017 382.285 68.4806 382.449 73.453 382.269C78.3793 382.126 83.2712 381.399 88.0261 380.104C89.1867 379.761 90.3481 379.327 91.458 378.93C92.4756 378.503 93.4077 377.896 94.2097 377.139C95.0129 376.375 95.681 375.481 96.1859 374.495C96.6824 373.449 97.048 372.346 97.2745 371.21C99.7832 361.427 102.908 351.812 106.631 342.423C110.306 333.022 114.479 323.823 119.133 314.866C123.846 305.94 129.076 297.297 134.797 288.979C140.449 280.698 146.053 272.379 151.206 263.784C153.758 259.476 156.269 255.137 158.512 250.663C159.645 248.431 160.685 246.158 161.632 243.842C162.076 242.675 162.517 241.506 162.871 240.31C163.261 239.14 163.482 237.919 163.527 236.687L163.526 236.65C163.525 236.615 163.538 236.582 163.562 236.557C163.585 236.532 163.618 236.517 163.652 236.515C163.687 236.514 163.72 236.526 163.746 236.548C163.772 236.571 163.788 236.603 163.79 236.638C163.807 237.917 163.635 239.192 163.279 240.421C162.97 241.648 162.574 242.846 162.174 244.044C161.314 246.415 160.361 248.748 159.315 251.044C158.287 253.346 157.16 255.598 156.032 257.852C154.847 260.073 153.682 262.308 152.433 264.493C147.488 273.265 142.164 281.815 136.596 290.195C131.079 298.535 126.043 307.184 121.513 316.098C116.938 324.986 112.839 334.111 109.235 343.435C107.415 348.088 105.752 352.801 104.185 357.543C102.602 362.28 101.146 367.061 99.8692 371.88C99.5812 373.205 99.1332 374.489 98.5351 375.706C97.8814 376.954 97.0205 378.082 95.9892 379.042C94.9509 380.003 93.7475 380.769 92.4369 381.303C91.1818 381.745 89.9785 382.177 88.7292 382.535C83.7671 383.848 78.6636 384.553 73.531 384.635C68.4525 384.732 63.3732 384.48 58.3295 383.878C55.8149 383.585 53.3065 383.239 50.817 382.823C49.5615 382.619 48.3385 382.374 47.1667 382.277C45.9564 382.179 44.7406 382.17 43.5289 382.249C38.6208 382.561 33.658 383.602 28.6533 384.226C27.3938 384.383 26.1647 384.557 24.8718 384.649C23.5465 384.789 22.2072 384.71 20.9072 384.417C20.5746 384.303 20.2434 384.165 19.9152 384.034C19.5941 383.85 19.2903 383.637 19.0077 383.398C18.4645 382.865 18.1064 382.173 17.986 381.422C17.858 380.041 18.1504 378.654 18.8249 377.442L18.9383 378.09C17.9673 377.302 17.2781 376.221 16.9739 375.009C16.8646 374.343 16.979 373.66 17.2992 373.067C17.6046 372.518 18.0139 372.034 18.5042 371.642C19.4285 370.913 20.4568 370.326 21.5549 369.901C22.6231 369.464 23.7238 369.111 24.847 368.845L24.4974 369.215C24.6681 368.492 25.0978 367.857 25.7053 367.429C26.2291 367.027 26.7969 366.686 27.3978 366.412C28.5593 365.884 29.762 365.451 30.9939 365.118C33.4289 364.427 35.9059 363.979 38.378 363.536C40.8532 363.109 43.3409 362.766 45.8275 362.457L47.6683 362.217L47.7554 362.201C47.7476 362.203 47.74 362.205 47.7326 362.208L47.7171 362.215C47.784 361.955 47.1943 362.814 47.5837 362.961L47.5239 362.888C47.4628 362.811 47.4057 362.731 47.3529 362.647L47.0925 362.233C46.9265 361.957 46.7711 361.676 46.6184 361.394C45.9904 360.255 45.5303 359.03 45.2523 357.759C45.1112 357.077 45.1063 356.374 45.2381 355.691C45.3241 355.32 45.4835 354.97 45.7068 354.662C45.9302 354.353 46.213 354.092 46.5387 353.895C47.1662 353.547 47.8747 353.37 48.5924 353.384C49.2533 353.375 49.9136 353.43 50.5641 353.547C53.039 354.075 55.4752 354.77 57.8561 355.628C60.1889 356.287 62.629 356.48 65.0366 356.195C67.5011 356.021 69.9542 355.712 72.3853 355.272L71.7309 355.82L77.1542 340.318C78.8734 335.134 80.4857 329.868 82.3912 324.705C86.0704 314.337 90.4085 304.224 94.9804 294.233C97.2648 289.252 99.6892 284.264 102.152 279.419C103.138 276.92 103.98 274.366 104.672 271.77C105.43 269.147 106.139 266.503 106.837 263.857C109.594 253.259 112.252 242.621 114.892 231.979C114.9 231.945 114.922 231.916 114.951 231.897C114.981 231.879 115.017 231.872 115.051 231.88C115.085 231.887 115.115 231.908 115.134 231.937C115.153 231.966 115.16 232.002 115.153 232.036Z" fill="white"/>
<path d="M60.2143 362.552L47.9159 363.299C47.828 363.305 47.7399 363.293 47.6566 363.264C47.5734 363.236 47.4965 363.191 47.4306 363.133C47.3646 363.074 47.3108 363.004 47.2722 362.925C47.2336 362.846 47.2109 362.76 47.2056 362.672C47.2003 362.584 47.2123 362.496 47.241 362.413C47.2697 362.33 47.3146 362.253 47.373 362.187C47.4314 362.121 47.5023 362.068 47.5814 362.029C47.6606 361.991 47.7467 361.968 47.8346 361.963C47.8588 361.962 47.8831 361.961 47.9074 361.962L60.2143 362.552ZM19.0971 377.055C23.1455 376.003 27.251 375.184 31.3934 374.602C35.5195 373.982 39.6968 373.772 43.8644 373.975C39.7114 373.995 35.5706 374.426 31.5027 375.261C27.4418 376.055 23.4298 377.081 19.4864 378.334L19.4707 378.339C19.3017 378.393 19.1183 378.377 18.9608 378.296C18.8033 378.214 18.6845 378.074 18.6305 377.905C18.5765 377.737 18.5916 377.553 18.6726 377.396C18.7536 377.238 18.8939 377.119 19.0626 377.065L19.0971 377.055ZM24.8621 368.626L38.7967 367.519L25.032 369.953C24.9452 369.968 24.8562 369.967 24.7701 369.948C24.6839 369.929 24.6023 369.893 24.53 369.843C24.4576 369.793 24.396 369.729 24.3485 369.654C24.301 369.58 24.2686 369.497 24.2533 369.411C24.2379 369.324 24.2398 369.235 24.2589 369.149C24.278 369.063 24.314 368.982 24.3646 368.909C24.4153 368.837 24.4797 368.776 24.5541 368.729C24.6286 368.682 24.7117 368.65 24.7985 368.635C24.8195 368.631 24.8414 368.628 24.8621 368.626ZM73.1483 356.375L69.9958 362.05L71.9175 355.85C71.9435 355.765 71.986 355.687 72.0424 355.619C72.0988 355.551 72.1681 355.495 72.2463 355.453C72.3245 355.412 72.41 355.387 72.4981 355.378C72.5861 355.37 72.6749 355.379 72.7594 355.406C72.8439 355.432 72.9224 355.474 72.9904 355.531C73.0584 355.587 73.1146 355.656 73.1557 355.735C73.1969 355.813 73.2223 355.898 73.2303 355.986C73.2384 356.074 73.229 356.163 73.2027 356.247C73.1888 356.291 73.1706 356.334 73.1483 356.375ZM202.911 243.898C202.244 259.77 200.054 275.542 196.372 290.996C194.456 298.694 192.207 306.299 190.289 313.942C188.332 321.557 187.019 329.321 186.363 337.155C186.06 341.077 185.853 344.987 185.701 348.951C185.499 352.917 185.487 356.842 184.884 360.936C184.725 362.018 184.421 363.073 183.981 364.074C183.481 365.139 182.718 366.06 181.764 366.751C180.036 367.863 178.208 368.813 176.303 369.587C174.495 370.4 172.798 371.282 170.958 372.164C169.14 373.018 167.298 373.794 165.447 374.535C158.035 377.47 150.483 379.907 142.949 382.365C139.191 383.601 135.388 384.776 131.749 386.23C131.308 386.407 130.876 386.607 130.455 386.827C130.271 386.916 130.103 387.035 129.957 387.178C129.787 387.343 129.623 387.515 129.462 387.691C128.817 388.387 128.265 389.163 127.819 390C127.362 390.769 127.164 391.664 127.255 392.554C127.351 392.969 127.546 393.354 127.823 393.678C128.1 394.002 128.451 394.253 128.847 394.413C128.899 394.438 128.947 394.474 128.986 394.517C129.025 394.561 129.055 394.612 129.074 394.668C129.093 394.723 129.101 394.782 129.098 394.84C129.095 394.899 129.08 394.956 129.054 395.009L129.043 395.03L129.037 395.042C128.592 395.833 128.253 396.679 128.029 397.558C127.781 398.392 127.785 399.28 128.038 400.111C128.195 400.496 128.439 400.839 128.75 401.114C129.062 401.389 129.434 401.588 129.835 401.695C130.701 401.958 131.608 402.066 132.511 402.011C132.582 402.01 132.652 402.026 132.714 402.059C132.776 402.092 132.829 402.141 132.866 402.2C132.904 402.259 132.926 402.327 132.93 402.398C132.933 402.468 132.919 402.538 132.888 402.601L132.881 402.614C132.303 403.716 131.914 404.906 131.73 406.137C131.589 406.688 131.615 407.269 131.804 407.806C131.994 408.342 132.338 408.811 132.794 409.152C133.879 409.673 135.1 409.845 136.287 409.643C137.545 409.493 138.788 409.231 140 408.86C142.443 408.183 144.809 407.049 147.213 406.115L154.384 403.153C154.495 403.107 154.618 403.098 154.734 403.128C154.851 403.157 154.955 403.223 155.031 403.316C155.107 403.409 155.151 403.524 155.157 403.644C155.162 403.764 155.129 403.883 155.061 403.983L155.048 404.001C154.279 405.122 153.591 406.296 152.99 407.516C152.375 408.683 151.957 409.943 151.755 411.247C151.671 411.801 151.758 412.367 152.002 412.872C152.145 413.086 152.33 413.267 152.547 413.406C152.764 413.544 153.007 413.637 153.261 413.677C154.521 413.878 155.812 413.772 157.022 413.368C159.615 412.519 162.118 411.414 164.492 410.07C166.916 408.758 169.292 407.339 171.647 405.879C176.371 402.965 180.957 399.859 185.841 397.029C187.095 396.282 188.421 395.66 189.798 395.174C191.26 394.633 192.824 394.424 194.377 394.563C197.307 395.098 200.07 396.315 202.443 398.113C207.05 401.167 211.705 404.242 216.776 405.751C219.096 406.614 221.661 406.547 223.932 405.563C224.434 405.291 224.895 404.95 225.301 404.549C225.713 404.15 226.071 403.699 226.366 403.207C226.617 402.849 226.734 402.414 226.696 401.979C226.658 401.543 226.468 401.135 226.158 400.826C225.322 399.917 224.347 399.146 223.269 398.544C222.13 397.846 220.914 397.188 219.689 396.488C218.411 395.786 217.184 394.993 216.019 394.117C214.739 393.157 213.695 391.918 212.968 390.494C211.803 387.784 211.114 384.894 210.93 381.95C210.593 379.255 210.252 376.451 208.815 374.927L208.807 374.918C208.639 374.739 208.521 374.52 208.465 374.281C208.41 374.042 208.419 373.792 208.491 373.558L218.342 341.693L228.442 309.906C231.799 299.306 235.279 288.746 238.744 278.18C242.208 267.615 245.803 257.091 249.529 246.608C249.541 246.575 249.565 246.548 249.597 246.533C249.629 246.517 249.666 246.516 249.7 246.528C249.732 246.54 249.759 246.564 249.774 246.596C249.79 246.627 249.792 246.663 249.782 246.696C246.391 257.28 243.33 267.97 240.088 278.602L230.505 310.545L220.9 342.48L211.158 374.373L210.834 373.004C211.918 374.234 212.666 375.722 213.006 377.325C213.33 378.735 213.57 380.163 213.725 381.601C213.888 384.216 214.488 386.786 215.499 389.204C216.027 390.273 216.8 391.203 217.756 391.918C218.81 392.72 219.918 393.447 221.074 394.093C222.258 394.784 223.484 395.46 224.711 396.226C226.055 397 227.261 397.992 228.278 399.162C228.891 399.905 229.268 400.812 229.363 401.769C229.418 402.734 229.179 403.693 228.678 404.52C228.258 405.222 227.745 405.864 227.154 406.43C226.564 407.002 225.896 407.487 225.171 407.873C223.736 408.614 222.135 408.977 220.52 408.926C219.009 408.892 217.51 408.647 216.067 408.198C210.437 406.454 205.713 403.207 201.108 400.108C199.064 398.492 196.675 397.368 194.125 396.823C192.897 396.699 191.657 396.853 190.496 397.273C189.242 397.696 188.033 398.243 186.887 398.906C182.103 401.586 177.421 404.652 172.6 407.455C170.193 408.87 167.759 410.249 165.259 411.529C162.756 412.869 160.126 413.955 157.407 414.773C155.956 415.218 154.418 415.298 152.928 415.008C152.498 414.917 152.091 414.739 151.733 414.485C151.375 414.232 151.073 413.907 150.845 413.531C150.472 412.78 150.342 411.931 150.473 411.103C150.717 409.657 151.204 408.262 151.911 406.977C152.565 405.714 153.309 404.5 154.139 403.345L154.803 404.193L147.57 407.036C145.144 407.957 142.815 409.06 140.256 409.754C138.988 410.131 137.689 410.394 136.374 410.54C134.989 410.758 133.57 410.529 132.324 409.887C131.682 409.485 131.212 408.859 131.007 408.131C130.825 407.446 130.786 406.732 130.892 406.033C131.097 404.7 131.527 403.412 132.164 402.224L132.533 402.826C131.534 402.871 130.535 402.749 129.577 402.465C129.058 402.323 128.579 402.064 128.176 401.708C127.773 401.352 127.457 400.908 127.252 400.412C126.926 399.422 126.902 398.359 127.183 397.356C127.418 396.39 127.78 395.46 128.261 394.589L128.451 395.218C127.926 395 127.461 394.66 127.094 394.226C126.727 393.792 126.47 393.277 126.343 392.723C126.202 391.631 126.421 390.523 126.965 389.566C127.442 388.649 128.034 387.797 128.729 387.031C128.9 386.84 129.076 386.652 129.26 386.47C129.468 386.266 129.704 386.093 129.962 385.957C130.415 385.712 130.88 385.49 131.357 385.294C135.071 383.791 138.821 382.544 142.553 381.2C150.02 378.558 157.496 375.929 164.752 372.855C166.561 372.079 168.354 371.272 170.1 370.4C171.813 369.528 173.611 368.541 175.398 367.687C177.143 366.917 178.825 366.012 180.429 364.982C181.088 364.506 181.613 363.867 181.95 363.127C182.296 362.308 182.532 361.448 182.651 360.567C183.178 356.819 183.184 352.8 183.348 348.863C183.463 344.915 183.636 340.915 184.009 336.948C184.75 329.001 186.157 321.13 188.216 313.418C190.221 305.719 192.519 298.151 194.649 290.539C196.698 282.919 198.344 275.196 199.579 267.402C200.892 259.61 201.886 251.756 202.644 243.881C202.646 243.846 202.663 243.813 202.689 243.79C202.716 243.766 202.751 243.755 202.786 243.757C202.821 243.76 202.853 243.777 202.876 243.803C202.899 243.829 202.912 243.863 202.911 243.898Z" fill="white"/>
<path d="M128.43 394.355L150.657 384.39L128.867 395.276C128.807 395.306 128.742 395.324 128.675 395.329C128.608 395.334 128.541 395.325 128.477 395.304C128.414 395.283 128.355 395.25 128.304 395.206C128.253 395.162 128.212 395.108 128.182 395.048C128.152 394.988 128.134 394.923 128.129 394.856C128.124 394.789 128.133 394.722 128.154 394.659C128.175 394.595 128.209 394.536 128.253 394.486C128.297 394.435 128.351 394.394 128.411 394.364L128.43 394.355ZM132.267 401.978L159.537 386.847L132.777 402.86C132.661 402.929 132.522 402.95 132.391 402.917C132.26 402.884 132.148 402.8 132.079 402.684C132.009 402.568 131.989 402.43 132.021 402.299C132.054 402.168 132.137 402.056 132.253 401.986L132.267 401.978ZM154.248 403.298L169.415 390.012L154.939 404.048C154.842 404.142 154.712 404.193 154.576 404.191C154.441 404.189 154.312 404.134 154.218 404.037C154.124 403.94 154.072 403.809 154.074 403.674C154.076 403.539 154.132 403.41 154.229 403.316L154.248 403.298ZM497.832 132.642C499.2 129.725 501.633 127.441 504.633 126.258C507.661 125.147 510.918 124.808 514.109 125.272C520.41 126.087 526.509 127.803 532.655 129.004C534.176 129.324 535.713 129.568 537.258 129.734C538.758 129.941 540.283 129.889 541.765 129.58C542.109 129.48 542.448 129.361 542.779 129.223C543.101 129.076 543.366 128.85 543.668 128.673C544.01 128.441 544.358 128.166 544.723 127.953C545.101 127.757 545.493 127.588 545.895 127.449C547.485 126.996 549.156 126.902 550.787 127.174C553.917 127.716 556.995 128.523 559.988 129.585L568.932 132.642C565.872 131.885 562.853 130.971 559.817 130.142C556.835 129.204 553.78 128.515 550.683 128.082C549.189 127.894 547.672 128.01 546.224 128.423C545.885 128.545 545.555 128.691 545.235 128.859C544.927 129.047 544.658 129.271 544.349 129.479C543.997 129.738 543.628 129.974 543.245 130.185C542.853 130.356 542.451 130.504 542.041 130.626C540.438 130.987 538.785 131.068 537.155 130.865C535.567 130.715 533.988 130.482 532.424 130.169C526.23 128.855 520.163 127.167 513.986 126.173C510.933 125.623 507.791 125.838 504.841 126.799C501.86 127.812 499.363 129.894 497.832 132.642ZM74.7751 33.2501C76.1432 30.3327 78.5765 28.0486 81.5763 26.8658C84.6039 25.7553 87.8609 25.4163 91.0527 25.8794C97.3529 26.6945 103.452 28.4114 109.598 29.6122C111.119 29.9322 112.656 30.1759 114.202 30.3424C115.702 30.5488 117.226 30.4966 118.708 30.188C119.053 30.0876 119.391 29.9685 119.723 29.8312C120.044 29.6837 120.309 29.4575 120.611 29.2812C120.954 29.0491 121.301 28.7736 121.666 28.5608C122.044 28.3648 122.436 28.1964 122.838 28.0569C124.428 27.6034 126.1 27.5096 127.731 27.7823C130.86 28.3246 133.938 29.1309 136.931 30.1926L145.876 33.25C142.815 32.4937 139.796 31.5791 136.76 30.7497C133.778 29.8116 130.723 29.1228 127.626 28.6904C126.132 28.502 124.616 28.6177 123.168 29.0305C122.828 29.1534 122.498 29.2993 122.179 29.4673C121.87 29.655 121.601 29.8786 121.292 30.0872C120.94 30.346 120.571 30.5819 120.188 30.7933C119.796 30.9644 119.394 31.1117 118.984 31.2342C117.382 31.5947 115.729 31.6756 114.099 31.4735C112.511 31.3227 110.931 31.0902 109.367 30.7769C103.173 29.4631 97.1063 27.7752 90.9295 26.781C87.8761 26.2315 84.7339 26.4465 81.7839 27.4067C78.8038 28.42 76.3062 30.5022 74.7751 33.2501ZM18.5127 229.866C19.8809 226.949 22.3142 224.664 25.3139 223.482C28.3416 222.371 31.5985 222.032 34.7903 222.495C41.0905 223.31 47.1895 225.027 53.3358 226.228C54.8571 226.548 56.3935 226.792 57.9392 226.958C59.4392 227.164 60.9634 227.112 62.4457 226.804C62.7902 226.703 63.129 226.584 63.4605 226.447C63.7815 226.3 64.0468 226.073 64.349 225.897C64.6912 225.665 65.0384 225.389 65.4039 225.177C65.7819 224.981 66.1736 224.812 66.5761 224.673C68.1661 224.219 69.8372 224.125 71.4681 224.398C74.5977 224.94 77.6757 225.747 80.6689 226.808L89.6132 229.866C86.5527 229.109 83.5339 228.195 80.4979 227.366C77.5157 226.427 74.4605 225.738 71.3639 225.306C69.87 225.118 68.3533 225.234 66.9053 225.646C66.566 225.769 66.2356 225.915 65.9164 226.083C65.6077 226.271 65.3389 226.494 65.0301 226.703C64.6776 226.962 64.3087 227.198 63.9256 227.409C63.5337 227.58 63.1317 227.727 62.7217 227.85C61.1193 228.21 59.4664 228.291 57.8363 228.089C56.2481 227.939 54.6688 227.706 53.1046 227.392C46.9107 226.079 40.844 224.391 34.6671 223.397C31.6137 222.847 28.4715 223.062 25.5216 224.022C22.5413 225.036 20.0437 227.118 18.5127 229.866ZM311.853 84.9405C313.221 82.0231 315.655 79.739 318.654 78.5562C321.682 77.4457 324.939 77.1067 328.131 77.5698C334.431 78.3849 340.53 80.1018 346.676 81.3026C348.198 81.6226 349.734 81.8663 351.28 82.0328C352.78 82.239 354.304 82.1868 355.786 81.8784C356.131 81.7779 356.469 81.6587 356.801 81.5213C357.122 81.3741 357.387 81.1479 357.689 80.9716C358.032 80.7395 358.379 80.4641 358.744 80.2512C359.122 80.0552 359.514 79.8868 359.917 79.7473C361.507 79.2939 363.178 79.1999 364.809 79.4724C367.938 80.0148 371.016 80.8212 374.009 81.8829L382.954 84.9404C379.893 84.1838 376.874 83.2692 373.838 82.4401C370.856 81.5018 367.801 80.813 364.704 80.3808C363.21 80.1924 361.694 80.3081 360.246 80.7209C359.906 80.8437 359.576 80.9897 359.257 81.1577C358.948 81.3453 358.679 81.5689 358.371 81.7775C358.018 82.0363 357.649 82.2721 357.266 82.4832C356.874 82.6547 356.472 82.8019 356.062 82.9242C354.46 83.2849 352.807 83.366 351.177 83.1637C349.589 83.013 348.009 82.7805 346.445 82.4672C340.251 81.1534 334.184 79.4655 328.008 78.4713C324.954 77.9218 321.812 78.1368 318.862 79.097C315.882 80.1102 313.384 82.1926 311.853 84.9405ZM574.531 33.9584C560.615 33.9584 549.003 22.7169 548.851 22.568L548.127 21.8551L549.071 21.4739C573.013 11.7782 587.594 29.0649 587.74 29.2398L588.226 29.8326L587.572 30.2334C583.662 32.6751 579.142 33.9661 574.531 33.9584ZM550.566 22.3238C554.255 25.5671 570.489 38.4577 586.174 29.5075C583.462 26.6768 570.514 14.7994 550.566 22.3238Z" fill="white"/>
<path d="M568.272 26.2424C573.31 27.0405 578.338 27.9068 583.352 28.872C585.859 29.3606 588.363 29.8623 590.856 30.4469C592.104 30.7377 593.349 31.0377 594.589 31.3958C595.875 31.7243 597.125 32.1761 598.324 32.7449C598.402 32.784 598.472 32.8381 598.53 32.9043C598.588 32.9704 598.632 33.0473 598.659 33.1304C598.687 33.2135 598.699 33.3013 598.692 33.3888C598.686 33.4763 598.663 33.5617 598.624 33.6401C598.585 33.7186 598.53 33.7886 598.464 33.8461C598.398 33.9036 598.321 33.9476 598.238 33.9754C598.155 34.0032 598.067 34.0144 597.979 34.0083C597.892 34.0022 597.806 33.979 597.728 33.9398L597.718 33.935L597.641 33.8945C595.381 32.8467 593.025 32.0176 590.607 31.4183C588.162 30.7309 585.688 30.1215 583.211 29.5255C578.254 28.3445 573.274 27.2502 568.272 26.2424ZM80.6167 145.456C75.456 145.425 70.3339 144.566 65.4456 142.913L64.4941 142.553L65.2012 141.823C83.1757 123.274 103.507 133.193 103.709 133.297L104.395 133.642L103.959 134.274C97.8162 143.172 88.5303 145.456 80.6167 145.456ZM66.9133 141.996C71.6027 143.471 91.6683 148.7 102.387 134.173C98.7612 132.681 82.108 127.056 66.9133 141.996Z" fill="white"/>
<path d="M84.6931 138.424C89.6241 137.117 94.5763 135.887 99.5496 134.733C102.039 134.167 104.533 133.614 107.05 133.141C108.308 132.903 109.568 132.674 110.848 132.5C112.156 132.281 113.483 132.189 114.809 132.224C114.986 132.233 115.151 132.312 115.27 132.442C115.389 132.573 115.451 132.745 115.443 132.922C115.435 133.098 115.357 133.264 115.227 133.383C115.097 133.502 114.925 133.565 114.748 133.558H114.737L114.65 133.552C112.159 133.507 109.669 133.701 107.215 134.13C104.7 134.49 102.191 134.932 99.6849 135.388C94.6733 136.312 89.6761 137.334 84.6931 138.424ZM611.967 38.1597C617.759 38.6602 623.505 39.594 629.157 40.9535C634.858 42.2589 640.363 44.3041 645.532 47.0368C648.154 48.4289 650.517 50.2597 652.52 52.4497C654.571 54.7015 655.858 57.5422 656.199 60.5675C656.259 61.3215 656.225 62.0833 656.222 62.8392C656.109 63.5835 656.024 64.3394 655.882 65.0738C655.563 66.5345 655.099 67.96 654.499 69.3296C653.87 70.7359 652.968 72.0039 651.847 73.0605C650.678 74.1249 649.23 74.8345 647.672 75.1064C644.629 75.4969 641.542 74.9079 638.857 73.4251C636.166 72.0303 633.923 69.9044 632.389 67.2922C630.868 64.6937 630.044 61.7475 629.996 58.738C629.947 55.7285 630.676 52.7574 632.113 50.1116C633.617 47.5328 635.712 45.347 638.225 43.7335C640.674 42.1375 643.257 40.7551 645.943 39.6015C651.316 37.3661 656.902 35.6815 662.615 34.5737C656.982 35.9286 651.49 37.8121 646.212 40.1991C641.092 42.6766 635.678 45.5425 633.018 50.6008C631.723 53.0966 631.082 55.8795 631.155 58.6897C631.228 61.4999 632.013 64.2458 633.436 66.671C634.867 69.0709 636.948 71.0178 639.439 72.2876C641.879 73.6164 644.675 74.1431 647.432 73.793C648.752 73.5751 649.981 72.9836 650.975 72.0885C651.973 71.1552 652.778 70.0345 653.343 68.7904C654.548 66.26 655.113 63.4725 654.988 60.6729C654.689 57.8959 653.521 55.2838 651.65 53.2082C649.737 51.1041 647.499 49.32 645.021 47.924C639.975 45.1269 634.588 42.9958 628.993 41.5841C623.402 40.0582 617.714 38.9141 611.967 38.1597ZM105.904 349.392C107.514 349.65 109.1 350.038 110.647 350.552C112.27 351.039 113.811 351.766 115.217 352.71C115.626 352.998 115.992 353.344 116.303 353.735C116.506 353.995 116.659 354.29 116.755 354.606C116.887 355.009 116.887 355.445 116.754 355.848C116.508 356.499 116.023 357.031 115.397 357.335C114.966 357.567 114.51 357.75 114.039 357.879C112.389 358.301 110.686 358.476 108.985 358.397C105.74 358.172 102.51 357.775 99.3076 357.207C96.12 356.752 92.92 356.432 89.7074 356.064C86.4833 355.741 83.2849 355.199 80.1346 354.441C76.9419 353.737 73.8124 352.773 70.7778 351.557C69.206 350.908 67.7078 350.094 66.3085 349.128C65.927 348.849 65.5688 348.539 65.2373 348.201C64.8024 347.785 64.4746 347.269 64.2819 346.699C64.1594 346.283 64.1641 345.839 64.2955 345.426C64.4198 345.045 64.6434 344.705 64.9434 344.44C65.3678 344.084 65.8612 343.82 66.3926 343.663C67.2373 343.417 68.1093 343.278 68.9886 343.248C69.816 343.2 70.6456 343.2 71.4731 343.248C73.0993 343.337 74.7177 343.534 76.3173 343.84L76.304 344.107C74.6947 344.254 73.0973 344.395 71.5302 344.615C70.0268 344.768 68.5488 345.111 67.1316 345.635C66.8988 345.731 66.688 345.873 66.5118 346.052C66.4605 346.198 66.5763 345.961 66.5564 345.974C66.6738 346.14 66.8141 346.289 66.9733 346.417C67.2257 346.629 67.494 346.821 67.776 346.991C69.0812 347.75 70.4492 348.395 71.8649 348.92C74.7562 350.059 77.7492 351.1 80.7854 352.011C83.8324 352.887 86.8913 353.779 89.9783 354.625C93.0615 355.481 96.2158 356.057 99.4026 356.346C102.577 356.537 105.763 356.479 108.928 356.173C110.435 356.089 111.933 355.896 113.411 355.595C113.717 355.527 114.015 355.425 114.298 355.292C114.548 355.182 114.645 355.034 114.598 355.125C114.575 355.25 114.654 355.211 114.526 354.994C114.356 354.743 114.152 354.518 113.918 354.325C112.727 353.375 111.442 352.549 110.083 351.86L105.82 349.645L105.904 349.392Z" fill="white"/>
<path d="M108.914 340.381C110.539 340.634 112.141 341.012 113.707 341.513C115.332 341.994 116.888 342.682 118.336 343.561C118.733 343.82 119.106 344.113 119.45 344.437C119.924 344.877 120.246 345.454 120.372 346.087C120.426 346.528 120.342 346.975 120.13 347.365C119.953 347.682 119.71 347.958 119.419 348.175C118.991 348.493 118.513 348.738 118.006 348.9C116.343 349.399 114.608 349.617 112.873 349.545C109.596 349.342 106.332 348.958 103.097 348.394C99.8787 347.944 96.6495 347.622 93.4071 347.254C90.1533 346.93 86.9253 346.385 83.7458 345.622C80.5235 344.914 77.365 343.942 74.3024 342.716C72.7151 342.061 71.2029 341.238 69.792 340.261C69.4063 339.975 69.045 339.658 68.7118 339.313C68.2656 338.878 67.9415 338.333 67.7719 337.733C67.6621 337.304 67.6945 336.85 67.8642 336.441C67.9326 336.244 68.0383 336.061 68.1757 335.903C68.2807 335.757 68.4075 335.627 68.5516 335.519C68.9832 335.182 69.4772 334.934 70.0053 334.788C71.6798 334.387 73.4077 334.256 75.1236 334.4C76.7641 334.493 78.3965 334.695 80.01 335.005L79.9961 335.272C78.3718 335.415 76.7591 335.552 75.1761 335.766C73.6545 335.917 72.1573 336.254 70.7182 336.77C70.4709 336.864 70.2453 337.008 70.0551 337.192C69.9648 337.355 70.1009 337.157 70.0826 337.132C70.194 337.285 70.323 337.424 70.4668 337.547C70.718 337.761 70.9855 337.956 71.2667 338.128C72.5816 338.897 73.961 339.549 75.3893 340.078C78.3074 341.228 81.3296 342.275 84.3946 343.191C87.4705 344.072 90.5592 344.967 93.6763 345.815C96.7892 346.673 99.9736 347.247 103.19 347.531C106.393 347.72 109.606 347.649 112.797 347.32C114.3 347.231 115.793 347.008 117.256 346.654C117.524 346.584 117.781 346.473 118.016 346.326C118.182 346.182 118.094 346.28 118.115 346.363C118.064 346.203 117.979 346.056 117.867 345.931C117.64 345.682 117.393 345.453 117.128 345.246C114.489 343.492 111.715 341.95 108.832 340.636L108.914 340.381ZM215.407 355.787C216.989 356.044 218.547 356.43 220.065 356.943C221.665 357.427 223.179 358.162 224.549 359.119C224.956 359.422 225.313 359.787 225.605 360.201L225.836 360.61C225.903 360.784 225.958 360.962 226 361.143C226.073 361.565 226.018 362 225.842 362.391C225.535 362.963 225.049 363.419 224.458 363.69C224.035 363.9 223.591 364.068 223.134 364.191C221.513 364.596 219.841 364.763 218.172 364.687C214.985 364.461 211.811 364.07 208.664 363.516C205.532 363.073 202.388 362.764 199.23 362.416C196.061 362.111 192.917 361.593 189.818 360.863C186.683 360.185 183.605 359.264 180.613 358.107C179.08 357.492 177.604 356.743 176.202 355.869C175.415 355.385 174.708 354.781 174.106 354.079C173.657 353.562 173.417 352.896 173.433 352.212C173.471 351.845 173.596 351.493 173.799 351.186C174.002 350.879 174.276 350.624 174.598 350.445C175.416 350.007 176.317 349.746 177.243 349.682C178.061 349.596 178.883 349.564 179.705 349.588C181.307 349.638 182.903 349.805 184.481 350.086L184.472 350.353C182.893 350.526 181.327 350.696 179.8 350.952C179.039 351.085 178.287 351.234 177.571 351.423C176.932 351.569 176.325 351.829 175.778 352.19C175.584 352.351 175.645 352.417 175.682 352.303C175.688 352.212 175.741 352.364 175.932 352.543C176.414 352.986 176.956 353.359 177.542 353.65C178.872 354.345 180.249 354.948 181.662 355.455C184.526 356.538 187.471 357.547 190.458 358.431L199.497 360.976C202.527 361.815 205.627 362.376 208.758 362.654C211.878 362.833 215.006 362.768 218.116 362.462C219.598 362.376 221.071 362.189 222.527 361.902C222.835 361.834 223.135 361.737 223.424 361.613C223.554 361.549 223.68 361.476 223.799 361.395C223.745 361.48 223.869 361.571 223.753 361.346C223.608 361.105 223.425 360.888 223.212 360.704C222.065 359.752 220.818 358.929 219.493 358.247L215.322 356.041L215.407 355.787Z" fill="white"/>
<path d="M218.203 346.709C219.734 346.973 221.24 347.372 222.701 347.901C223.451 348.162 224.181 348.477 224.886 348.843C225.669 349.219 226.384 349.722 227.002 350.332C227.445 350.777 227.722 351.361 227.786 351.985C227.795 352.354 227.712 352.72 227.547 353.05C227.381 353.38 227.137 353.665 226.836 353.879C226.061 354.4 225.185 354.754 224.266 354.918C222.696 355.235 221.093 355.354 219.494 355.272C216.365 355.141 213.334 354.487 210.302 354.073C207.271 353.638 204.227 353.344 201.169 353.018C198.101 352.736 195.055 352.247 192.053 351.553C189.018 350.912 186.035 350.046 183.129 348.962C181.653 348.387 180.22 347.706 178.841 346.926C178.114 346.51 177.425 346.032 176.782 345.497C176.419 345.186 176.093 344.835 175.813 344.448C175.607 344.179 175.457 343.872 175.371 343.544C175.285 343.216 175.266 342.874 175.314 342.539C175.389 342.211 175.536 341.904 175.746 341.641C175.955 341.378 176.221 341.166 176.524 341.02C176.935 340.806 177.373 340.649 177.827 340.551C178.623 340.377 179.435 340.285 180.25 340.279C181.808 340.26 183.363 340.377 184.9 340.628L184.897 340.896C183.376 341.11 181.862 341.307 180.413 341.637C179.712 341.785 179.024 341.987 178.354 342.242C178.072 342.349 177.805 342.494 177.562 342.673C177.344 342.834 177.338 342.967 177.392 342.888C177.421 342.811 177.435 342.908 177.601 343.084C177.806 343.285 178.028 343.467 178.265 343.628C178.835 344.016 179.437 344.355 180.065 344.641C181.394 345.263 182.754 345.815 184.14 346.295C186.932 347.311 189.789 348.271 192.683 349.118L201.435 351.578C204.366 352.395 207.366 352.941 210.397 353.212C213.419 353.381 216.449 353.325 219.462 353.046C220.943 352.94 222.424 352.831 223.792 352.598C224.382 352.521 224.952 352.338 225.477 352.058C225.644 351.931 225.592 351.979 225.609 352.055C225.644 352.099 225.589 351.893 225.432 351.687C224.455 350.688 223.329 349.845 222.095 349.189C220.804 348.431 219.459 347.716 218.113 346.961L218.203 346.709Z" fill="white"/>
</svg>
